%TF.GenerationSoftware,KiCad,Pcbnew,(6.0.7)*%
%TF.CreationDate,2023-02-04T21:02:38-08:00*%
%TF.ProjectId,ESP_Module,4553505f-4d6f-4647-956c-652e6b696361,rev?*%
%TF.SameCoordinates,Original*%
%TF.FileFunction,Copper,L3,Inr*%
%TF.FilePolarity,Positive*%
%FSLAX46Y46*%
G04 Gerber Fmt 4.6, Leading zero omitted, Abs format (unit mm)*
G04 Created by KiCad (PCBNEW (6.0.7)) date 2023-02-04 21:02:38*
%MOMM*%
%LPD*%
G01*
G04 APERTURE LIST*
%TA.AperFunction,ComponentPad*%
%ADD10R,1.508000X1.508000*%
%TD*%
%TA.AperFunction,ComponentPad*%
%ADD11C,1.508000*%
%TD*%
%TA.AperFunction,ComponentPad*%
%ADD12O,3.150000X1.575000*%
%TD*%
%TA.AperFunction,ViaPad*%
%ADD13C,0.685800*%
%TD*%
G04 APERTURE END LIST*
D10*
%TO.N,+5V*%
%TO.C,J1*%
X120464000Y-101910000D03*
D11*
%TO.N,USB_D-*%
X120464000Y-104410000D03*
%TO.N,USB_D+*%
X120464000Y-106410000D03*
%TO.N,GND*%
X120464000Y-108910000D03*
D12*
X118364000Y-99710000D03*
X118364000Y-111110000D03*
%TD*%
D13*
%TO.N,GND*%
X143764000Y-102108000D03*
X143764000Y-108204000D03*
%TO.N,Net-(P1-PadA5)*%
X142494000Y-106172000D03*
%TO.N,+3V3*%
X121920000Y-100584000D03*
X134620000Y-102362000D03*
X128270000Y-102362000D03*
X128270000Y-101346000D03*
X131064000Y-101346000D03*
X131064000Y-102362000D03*
X121920000Y-101600000D03*
X125730000Y-109982000D03*
X141478000Y-100838000D03*
X131064000Y-100330000D03*
X128270000Y-100330000D03*
%TO.N,GND*%
X122428000Y-109728000D03*
X126238000Y-106426000D03*
X136906000Y-103632000D03*
X136906000Y-100330000D03*
X134620000Y-108966000D03*
X136906000Y-101854000D03*
X129540000Y-109982000D03*
X144272000Y-110490000D03*
X136906000Y-108966000D03*
X144272000Y-100330000D03*
X136906000Y-110490000D03*
X136906000Y-107442000D03*
X122936000Y-104394000D03*
%TO.N,+5V*%
X145036051Y-104063600D03*
X145034000Y-106680000D03*
%TO.N,/MCU_D-*%
X131318000Y-111506000D03*
%TO.N,/MCU_D+*%
X132588000Y-111506000D03*
%TO.N,MCU_EN*%
X141478000Y-99822000D03*
%TO.N,MCU_BOOT*%
X127508000Y-110236000D03*
%TD*%
%TA.AperFunction,Conductor*%
%TO.N,+3V3*%
G36*
X146753621Y-97938502D02*
G01*
X146800114Y-97992158D01*
X146811500Y-98044500D01*
X146811500Y-112775500D01*
X146791498Y-112843621D01*
X146737842Y-112890114D01*
X146685500Y-112901500D01*
X116204500Y-112901500D01*
X116136379Y-112881498D01*
X116089886Y-112827842D01*
X116078500Y-112775500D01*
X116078500Y-111483817D01*
X116098502Y-111415696D01*
X116152158Y-111369203D01*
X116222432Y-111359099D01*
X116287012Y-111388593D01*
X116326207Y-111451205D01*
X116336188Y-111488454D01*
X116354006Y-111554951D01*
X116356331Y-111559936D01*
X116447517Y-111755488D01*
X116447519Y-111755492D01*
X116449843Y-111760475D01*
X116579914Y-111946235D01*
X116740265Y-112106586D01*
X116744773Y-112109743D01*
X116744776Y-112109745D01*
X116769396Y-112126984D01*
X116926025Y-112236657D01*
X116931007Y-112238980D01*
X116931012Y-112238983D01*
X117035376Y-112287648D01*
X117131549Y-112332494D01*
X117350592Y-112391187D01*
X117403021Y-112395774D01*
X117517184Y-112405762D01*
X117517193Y-112405762D01*
X117519909Y-112406000D01*
X119208091Y-112406000D01*
X119210807Y-112405762D01*
X119210816Y-112405762D01*
X119324979Y-112395774D01*
X119377408Y-112391187D01*
X119596451Y-112332494D01*
X119692624Y-112287648D01*
X119796988Y-112238983D01*
X119796993Y-112238980D01*
X119801975Y-112236657D01*
X119958604Y-112126984D01*
X119983224Y-112109745D01*
X119983227Y-112109743D01*
X119987735Y-112106586D01*
X120148086Y-111946235D01*
X120208521Y-111859926D01*
X120275004Y-111764980D01*
X120275008Y-111764974D01*
X120278157Y-111760476D01*
X120373994Y-111554951D01*
X120375418Y-111549640D01*
X120387111Y-111506000D01*
X130461910Y-111506000D01*
X130480618Y-111683991D01*
X130535923Y-111854203D01*
X130625409Y-112009197D01*
X130745164Y-112142199D01*
X130750506Y-112146080D01*
X130750508Y-112146082D01*
X130884613Y-112243515D01*
X130889955Y-112247396D01*
X130895983Y-112250080D01*
X130895985Y-112250081D01*
X131047423Y-112317505D01*
X131053454Y-112320190D01*
X131118035Y-112333917D01*
X131222057Y-112356028D01*
X131222061Y-112356028D01*
X131228514Y-112357400D01*
X131407486Y-112357400D01*
X131413939Y-112356028D01*
X131413943Y-112356028D01*
X131517965Y-112333917D01*
X131582546Y-112320190D01*
X131588577Y-112317505D01*
X131740015Y-112250081D01*
X131740017Y-112250080D01*
X131746045Y-112247396D01*
X131751387Y-112243515D01*
X131878939Y-112150843D01*
X131945807Y-112126984D01*
X132014958Y-112143065D01*
X132027061Y-112150843D01*
X132154613Y-112243515D01*
X132159955Y-112247396D01*
X132165983Y-112250080D01*
X132165985Y-112250081D01*
X132317423Y-112317505D01*
X132323454Y-112320190D01*
X132388035Y-112333917D01*
X132492057Y-112356028D01*
X132492061Y-112356028D01*
X132498514Y-112357400D01*
X132677486Y-112357400D01*
X132683939Y-112356028D01*
X132683943Y-112356028D01*
X132787965Y-112333917D01*
X132852546Y-112320190D01*
X132858577Y-112317505D01*
X133010015Y-112250081D01*
X133010017Y-112250080D01*
X133016045Y-112247396D01*
X133021387Y-112243515D01*
X133155492Y-112146082D01*
X133155494Y-112146080D01*
X133160836Y-112142199D01*
X133280591Y-112009197D01*
X133370077Y-111854203D01*
X133425382Y-111683991D01*
X133444090Y-111506000D01*
X133438331Y-111451205D01*
X133426072Y-111334573D01*
X133426072Y-111334572D01*
X133425382Y-111328009D01*
X133370077Y-111157797D01*
X133348999Y-111121288D01*
X133283892Y-111008521D01*
X133280591Y-111002803D01*
X133168923Y-110878782D01*
X133165258Y-110874712D01*
X133165257Y-110874711D01*
X133160836Y-110869801D01*
X133147951Y-110860439D01*
X133021387Y-110768485D01*
X133021386Y-110768484D01*
X133016045Y-110764604D01*
X133010017Y-110761920D01*
X133010015Y-110761919D01*
X132858577Y-110694495D01*
X132858576Y-110694495D01*
X132852546Y-110691810D01*
X132765016Y-110673205D01*
X132683943Y-110655972D01*
X132683939Y-110655972D01*
X132677486Y-110654600D01*
X132498514Y-110654600D01*
X132492061Y-110655972D01*
X132492057Y-110655972D01*
X132410984Y-110673205D01*
X132323454Y-110691810D01*
X132317424Y-110694495D01*
X132317423Y-110694495D01*
X132165985Y-110761919D01*
X132165983Y-110761920D01*
X132159955Y-110764604D01*
X132154614Y-110768484D01*
X132154613Y-110768485D01*
X132027061Y-110861157D01*
X131960193Y-110885016D01*
X131891042Y-110868935D01*
X131878939Y-110861157D01*
X131751387Y-110768485D01*
X131751386Y-110768484D01*
X131746045Y-110764604D01*
X131740017Y-110761920D01*
X131740015Y-110761919D01*
X131588577Y-110694495D01*
X131588576Y-110694495D01*
X131582546Y-110691810D01*
X131495016Y-110673205D01*
X131413943Y-110655972D01*
X131413939Y-110655972D01*
X131407486Y-110654600D01*
X131228514Y-110654600D01*
X131222061Y-110655972D01*
X131222057Y-110655972D01*
X131140984Y-110673205D01*
X131053454Y-110691810D01*
X131047424Y-110694495D01*
X131047423Y-110694495D01*
X130895985Y-110761919D01*
X130895983Y-110761920D01*
X130889955Y-110764604D01*
X130884614Y-110768484D01*
X130884613Y-110768485D01*
X130758050Y-110860439D01*
X130745164Y-110869801D01*
X130740743Y-110874711D01*
X130740742Y-110874712D01*
X130737078Y-110878782D01*
X130625409Y-111002803D01*
X130622108Y-111008521D01*
X130557002Y-111121288D01*
X130535923Y-111157797D01*
X130480618Y-111328009D01*
X130479928Y-111334572D01*
X130479928Y-111334573D01*
X130467669Y-111451205D01*
X130461910Y-111506000D01*
X120387111Y-111506000D01*
X120418570Y-111388593D01*
X120432687Y-111335908D01*
X120452451Y-111110000D01*
X120432687Y-110884092D01*
X120373994Y-110665049D01*
X120290128Y-110485197D01*
X120280483Y-110464512D01*
X120280480Y-110464507D01*
X120278157Y-110459525D01*
X120275001Y-110455017D01*
X120274997Y-110455011D01*
X120210520Y-110362928D01*
X120187832Y-110295654D01*
X120205117Y-110226794D01*
X120256887Y-110178210D01*
X120324713Y-110165137D01*
X120464000Y-110177323D01*
X120684068Y-110158070D01*
X120826748Y-110119839D01*
X120892140Y-110102317D01*
X120892142Y-110102316D01*
X120897450Y-110100894D01*
X120902432Y-110098571D01*
X121092675Y-110009860D01*
X121092680Y-110009857D01*
X121097662Y-110007534D01*
X121127702Y-109986500D01*
X121274109Y-109883985D01*
X121274112Y-109883983D01*
X121278620Y-109880826D01*
X121371759Y-109787687D01*
X121434071Y-109753661D01*
X121504886Y-109758726D01*
X121561722Y-109801273D01*
X121586164Y-109863611D01*
X121590618Y-109905991D01*
X121645923Y-110076203D01*
X121735409Y-110231197D01*
X121739827Y-110236104D01*
X121739828Y-110236105D01*
X121808172Y-110312009D01*
X121855164Y-110364199D01*
X121860506Y-110368080D01*
X121860508Y-110368082D01*
X121994613Y-110465515D01*
X121999955Y-110469396D01*
X122005983Y-110472080D01*
X122005985Y-110472081D01*
X122157423Y-110539505D01*
X122163454Y-110542190D01*
X122250984Y-110560795D01*
X122332057Y-110578028D01*
X122332061Y-110578028D01*
X122338514Y-110579400D01*
X122517486Y-110579400D01*
X122523939Y-110578028D01*
X122523943Y-110578028D01*
X122605016Y-110560795D01*
X122692546Y-110542190D01*
X122698577Y-110539505D01*
X122850015Y-110472081D01*
X122850017Y-110472080D01*
X122856045Y-110469396D01*
X122861387Y-110465515D01*
X122995492Y-110368082D01*
X122995494Y-110368080D01*
X123000836Y-110364199D01*
X123047828Y-110312009D01*
X123116172Y-110236105D01*
X123116173Y-110236104D01*
X123116267Y-110236000D01*
X126651910Y-110236000D01*
X126652600Y-110242565D01*
X126665385Y-110364199D01*
X126670618Y-110413991D01*
X126672658Y-110420269D01*
X126672658Y-110420270D01*
X126691896Y-110479479D01*
X126725923Y-110584203D01*
X126815409Y-110739197D01*
X126819827Y-110744104D01*
X126819828Y-110744105D01*
X126930742Y-110867288D01*
X126935164Y-110872199D01*
X126940506Y-110876080D01*
X126940508Y-110876082D01*
X127074613Y-110973515D01*
X127079955Y-110977396D01*
X127085983Y-110980080D01*
X127085985Y-110980081D01*
X127126468Y-110998105D01*
X127243454Y-111050190D01*
X127330984Y-111068795D01*
X127412057Y-111086028D01*
X127412061Y-111086028D01*
X127418514Y-111087400D01*
X127597486Y-111087400D01*
X127603939Y-111086028D01*
X127603943Y-111086028D01*
X127685016Y-111068795D01*
X127772546Y-111050190D01*
X127889532Y-110998105D01*
X127930015Y-110980081D01*
X127930017Y-110980080D01*
X127936045Y-110977396D01*
X127941387Y-110973515D01*
X128075492Y-110876082D01*
X128075494Y-110876080D01*
X128080836Y-110872199D01*
X128085258Y-110867288D01*
X128196172Y-110744105D01*
X128196173Y-110744104D01*
X128200591Y-110739197D01*
X128290077Y-110584203D01*
X128324104Y-110479479D01*
X128343342Y-110420270D01*
X128343342Y-110420269D01*
X128345382Y-110413991D01*
X128350616Y-110364199D01*
X128363400Y-110242565D01*
X128364090Y-110236000D01*
X128350039Y-110102317D01*
X128346072Y-110064573D01*
X128346072Y-110064572D01*
X128345382Y-110058009D01*
X128320685Y-109982000D01*
X128683910Y-109982000D01*
X128684600Y-109988565D01*
X128696407Y-110100894D01*
X128702618Y-110159991D01*
X128704658Y-110166269D01*
X128704658Y-110166270D01*
X128725182Y-110229435D01*
X128757923Y-110330203D01*
X128847409Y-110485197D01*
X128967164Y-110618199D01*
X128972506Y-110622080D01*
X128972508Y-110622082D01*
X129072176Y-110694495D01*
X129111955Y-110723396D01*
X129117983Y-110726080D01*
X129117985Y-110726081D01*
X129204510Y-110764604D01*
X129275454Y-110796190D01*
X129362984Y-110814795D01*
X129444057Y-110832028D01*
X129444061Y-110832028D01*
X129450514Y-110833400D01*
X129629486Y-110833400D01*
X129635939Y-110832028D01*
X129635943Y-110832028D01*
X129717016Y-110814795D01*
X129804546Y-110796190D01*
X129875490Y-110764604D01*
X129962015Y-110726081D01*
X129962017Y-110726080D01*
X129968045Y-110723396D01*
X130007824Y-110694495D01*
X130107492Y-110622082D01*
X130107494Y-110622080D01*
X130112836Y-110618199D01*
X130228266Y-110490000D01*
X136049910Y-110490000D01*
X136050600Y-110496565D01*
X136067211Y-110654600D01*
X136068618Y-110667991D01*
X136070658Y-110674269D01*
X136070658Y-110674270D01*
X136089896Y-110733479D01*
X136123923Y-110838203D01*
X136127226Y-110843925D01*
X136127227Y-110843926D01*
X136145792Y-110876082D01*
X136213409Y-110993197D01*
X136333164Y-111126199D01*
X136338506Y-111130080D01*
X136338508Y-111130082D01*
X136385305Y-111164082D01*
X136477955Y-111231396D01*
X136483983Y-111234080D01*
X136483985Y-111234081D01*
X136635423Y-111301505D01*
X136641454Y-111304190D01*
X136723974Y-111321730D01*
X136810057Y-111340028D01*
X136810061Y-111340028D01*
X136816514Y-111341400D01*
X136995486Y-111341400D01*
X137001939Y-111340028D01*
X137001943Y-111340028D01*
X137088026Y-111321730D01*
X137170546Y-111304190D01*
X137176577Y-111301505D01*
X137328015Y-111234081D01*
X137328017Y-111234080D01*
X137334045Y-111231396D01*
X137426695Y-111164082D01*
X137473492Y-111130082D01*
X137473494Y-111130080D01*
X137478836Y-111126199D01*
X137598591Y-110993197D01*
X137666208Y-110876082D01*
X137684773Y-110843926D01*
X137684774Y-110843925D01*
X137688077Y-110838203D01*
X137722104Y-110733479D01*
X137741342Y-110674270D01*
X137741342Y-110674269D01*
X137743382Y-110667991D01*
X137744790Y-110654600D01*
X137761400Y-110496565D01*
X137762090Y-110490000D01*
X143415910Y-110490000D01*
X143416600Y-110496565D01*
X143433211Y-110654600D01*
X143434618Y-110667991D01*
X143436658Y-110674269D01*
X143436658Y-110674270D01*
X143455896Y-110733479D01*
X143489923Y-110838203D01*
X143493226Y-110843925D01*
X143493227Y-110843926D01*
X143511792Y-110876082D01*
X143579409Y-110993197D01*
X143699164Y-111126199D01*
X143704506Y-111130080D01*
X143704508Y-111130082D01*
X143751305Y-111164082D01*
X143843955Y-111231396D01*
X143849983Y-111234080D01*
X143849985Y-111234081D01*
X144001423Y-111301505D01*
X144007454Y-111304190D01*
X144089974Y-111321730D01*
X144176057Y-111340028D01*
X144176061Y-111340028D01*
X144182514Y-111341400D01*
X144361486Y-111341400D01*
X144367939Y-111340028D01*
X144367943Y-111340028D01*
X144454026Y-111321730D01*
X144536546Y-111304190D01*
X144542577Y-111301505D01*
X144694015Y-111234081D01*
X144694017Y-111234080D01*
X144700045Y-111231396D01*
X144792695Y-111164082D01*
X144839492Y-111130082D01*
X144839494Y-111130080D01*
X144844836Y-111126199D01*
X144964591Y-110993197D01*
X145032208Y-110876082D01*
X145050773Y-110843926D01*
X145050774Y-110843925D01*
X145054077Y-110838203D01*
X145088104Y-110733479D01*
X145107342Y-110674270D01*
X145107342Y-110674269D01*
X145109382Y-110667991D01*
X145110790Y-110654600D01*
X145127400Y-110496565D01*
X145128090Y-110490000D01*
X145109382Y-110312009D01*
X145054077Y-110141797D01*
X144964591Y-109986803D01*
X144897482Y-109912270D01*
X144849258Y-109858712D01*
X144849257Y-109858711D01*
X144844836Y-109853801D01*
X144802239Y-109822852D01*
X144705387Y-109752485D01*
X144705386Y-109752484D01*
X144700045Y-109748604D01*
X144694017Y-109745920D01*
X144694015Y-109745919D01*
X144542577Y-109678495D01*
X144542576Y-109678495D01*
X144536546Y-109675810D01*
X144449016Y-109657205D01*
X144367943Y-109639972D01*
X144367939Y-109639972D01*
X144361486Y-109638600D01*
X144182514Y-109638600D01*
X144176061Y-109639972D01*
X144176057Y-109639972D01*
X144094984Y-109657205D01*
X144007454Y-109675810D01*
X144001424Y-109678495D01*
X144001423Y-109678495D01*
X143849985Y-109745919D01*
X143849983Y-109745920D01*
X143843955Y-109748604D01*
X143838614Y-109752484D01*
X143838613Y-109752485D01*
X143741762Y-109822852D01*
X143699164Y-109853801D01*
X143694743Y-109858711D01*
X143694742Y-109858712D01*
X143646519Y-109912270D01*
X143579409Y-109986803D01*
X143489923Y-110141797D01*
X143434618Y-110312009D01*
X143415910Y-110490000D01*
X137762090Y-110490000D01*
X137743382Y-110312009D01*
X137688077Y-110141797D01*
X137598591Y-109986803D01*
X137531482Y-109912270D01*
X137483258Y-109858712D01*
X137483257Y-109858711D01*
X137478836Y-109853801D01*
X137445989Y-109829936D01*
X137402635Y-109773713D01*
X137396560Y-109702977D01*
X137429692Y-109640185D01*
X137445989Y-109626064D01*
X137456032Y-109618767D01*
X137478836Y-109602199D01*
X137483258Y-109597288D01*
X137594172Y-109474105D01*
X137594173Y-109474104D01*
X137598591Y-109469197D01*
X137653510Y-109374074D01*
X137684773Y-109319926D01*
X137684774Y-109319925D01*
X137688077Y-109314203D01*
X137743382Y-109143991D01*
X137744790Y-109130600D01*
X137761400Y-108972565D01*
X137762090Y-108966000D01*
X137756780Y-108915480D01*
X137744072Y-108794573D01*
X137744072Y-108794572D01*
X137743382Y-108788009D01*
X137688077Y-108617797D01*
X137598591Y-108462803D01*
X137531482Y-108388270D01*
X137483258Y-108334712D01*
X137483257Y-108334711D01*
X137478836Y-108329801D01*
X137445989Y-108305936D01*
X137402635Y-108249713D01*
X137398709Y-108204000D01*
X142907910Y-108204000D01*
X142926618Y-108381991D01*
X142981923Y-108552203D01*
X143071409Y-108707197D01*
X143075827Y-108712104D01*
X143075828Y-108712105D01*
X143148866Y-108793222D01*
X143191164Y-108840199D01*
X143196506Y-108844080D01*
X143196508Y-108844082D01*
X143294772Y-108915475D01*
X143335955Y-108945396D01*
X143341983Y-108948080D01*
X143341985Y-108948081D01*
X143493423Y-109015505D01*
X143499454Y-109018190D01*
X143586984Y-109036795D01*
X143668057Y-109054028D01*
X143668061Y-109054028D01*
X143674514Y-109055400D01*
X143853486Y-109055400D01*
X143859939Y-109054028D01*
X143859943Y-109054028D01*
X143941016Y-109036795D01*
X144028546Y-109018190D01*
X144034577Y-109015505D01*
X144186015Y-108948081D01*
X144186017Y-108948080D01*
X144192045Y-108945396D01*
X144233228Y-108915475D01*
X144331492Y-108844082D01*
X144331494Y-108844080D01*
X144336836Y-108840199D01*
X144379134Y-108793222D01*
X144452172Y-108712105D01*
X144452173Y-108712104D01*
X144456591Y-108707197D01*
X144546077Y-108552203D01*
X144601382Y-108381991D01*
X144620090Y-108204000D01*
X144614887Y-108154495D01*
X144602072Y-108032573D01*
X144602072Y-108032572D01*
X144601382Y-108026009D01*
X144546077Y-107855797D01*
X144525663Y-107820438D01*
X144471876Y-107727278D01*
X144456591Y-107700803D01*
X144420752Y-107660999D01*
X144341258Y-107572712D01*
X144341257Y-107572711D01*
X144336836Y-107567801D01*
X144306562Y-107545805D01*
X144197387Y-107466485D01*
X144197386Y-107466484D01*
X144192045Y-107462604D01*
X144186017Y-107459920D01*
X144186015Y-107459919D01*
X144034577Y-107392495D01*
X144034576Y-107392495D01*
X144028546Y-107389810D01*
X143941016Y-107371205D01*
X143859943Y-107353972D01*
X143859939Y-107353972D01*
X143853486Y-107352600D01*
X143674514Y-107352600D01*
X143668061Y-107353972D01*
X143668057Y-107353972D01*
X143586984Y-107371205D01*
X143499454Y-107389810D01*
X143493424Y-107392495D01*
X143493423Y-107392495D01*
X143341985Y-107459919D01*
X143341983Y-107459920D01*
X143335955Y-107462604D01*
X143330614Y-107466484D01*
X143330613Y-107466485D01*
X143221439Y-107545805D01*
X143191164Y-107567801D01*
X143186743Y-107572711D01*
X143186742Y-107572712D01*
X143107249Y-107660999D01*
X143071409Y-107700803D01*
X143056124Y-107727278D01*
X143002338Y-107820438D01*
X142981923Y-107855797D01*
X142926618Y-108026009D01*
X142925928Y-108032572D01*
X142925928Y-108032573D01*
X142913113Y-108154495D01*
X142907910Y-108204000D01*
X137398709Y-108204000D01*
X137396560Y-108178977D01*
X137429692Y-108116185D01*
X137445989Y-108102064D01*
X137460549Y-108091485D01*
X137478836Y-108078199D01*
X137526847Y-108024877D01*
X137594172Y-107950105D01*
X137594173Y-107950104D01*
X137598591Y-107945197D01*
X137674079Y-107814448D01*
X137684773Y-107795926D01*
X137684774Y-107795925D01*
X137688077Y-107790203D01*
X137730707Y-107659001D01*
X137741342Y-107626270D01*
X137741342Y-107626269D01*
X137743382Y-107619991D01*
X137745648Y-107598437D01*
X137761400Y-107448565D01*
X137762090Y-107442000D01*
X137756658Y-107390323D01*
X137744072Y-107270573D01*
X137744072Y-107270572D01*
X137743382Y-107264009D01*
X137688077Y-107093797D01*
X137666999Y-107057288D01*
X137601892Y-106944521D01*
X137598591Y-106938803D01*
X137531482Y-106864270D01*
X137483258Y-106810712D01*
X137483257Y-106810711D01*
X137478836Y-106805801D01*
X137443223Y-106779926D01*
X137339387Y-106704485D01*
X137339386Y-106704484D01*
X137334045Y-106700604D01*
X137328017Y-106697920D01*
X137328015Y-106697919D01*
X137176577Y-106630495D01*
X137176576Y-106630495D01*
X137170546Y-106627810D01*
X137065670Y-106605518D01*
X137001943Y-106591972D01*
X137001939Y-106591972D01*
X136995486Y-106590600D01*
X136816514Y-106590600D01*
X136810061Y-106591972D01*
X136810057Y-106591972D01*
X136746330Y-106605518D01*
X136641454Y-106627810D01*
X136635424Y-106630495D01*
X136635423Y-106630495D01*
X136483985Y-106697919D01*
X136483983Y-106697920D01*
X136477955Y-106700604D01*
X136472614Y-106704484D01*
X136472613Y-106704485D01*
X136368778Y-106779926D01*
X136333164Y-106805801D01*
X136328743Y-106810711D01*
X136328742Y-106810712D01*
X136280519Y-106864270D01*
X136213409Y-106938803D01*
X136210108Y-106944521D01*
X136145002Y-107057288D01*
X136123923Y-107093797D01*
X136068618Y-107264009D01*
X136067928Y-107270572D01*
X136067928Y-107270573D01*
X136055342Y-107390323D01*
X136049910Y-107442000D01*
X136050600Y-107448565D01*
X136066353Y-107598437D01*
X136068618Y-107619991D01*
X136070658Y-107626269D01*
X136070658Y-107626270D01*
X136081293Y-107659001D01*
X136123923Y-107790203D01*
X136127226Y-107795925D01*
X136127227Y-107795926D01*
X136137921Y-107814448D01*
X136213409Y-107945197D01*
X136217827Y-107950104D01*
X136217828Y-107950105D01*
X136285153Y-108024877D01*
X136333164Y-108078199D01*
X136351451Y-108091485D01*
X136366011Y-108102064D01*
X136409365Y-108158287D01*
X136415440Y-108229023D01*
X136382308Y-108291815D01*
X136366011Y-108305936D01*
X136333164Y-108329801D01*
X136328743Y-108334711D01*
X136328742Y-108334712D01*
X136280519Y-108388270D01*
X136213409Y-108462803D01*
X136123923Y-108617797D01*
X136068618Y-108788009D01*
X136067928Y-108794572D01*
X136067928Y-108794573D01*
X136055220Y-108915480D01*
X136049910Y-108966000D01*
X136050600Y-108972565D01*
X136067211Y-109130600D01*
X136068618Y-109143991D01*
X136123923Y-109314203D01*
X136127226Y-109319925D01*
X136127227Y-109319926D01*
X136158490Y-109374074D01*
X136213409Y-109469197D01*
X136217827Y-109474104D01*
X136217828Y-109474105D01*
X136328742Y-109597288D01*
X136333164Y-109602199D01*
X136355968Y-109618767D01*
X136366011Y-109626064D01*
X136409365Y-109682287D01*
X136415440Y-109753023D01*
X136382308Y-109815815D01*
X136366011Y-109829936D01*
X136333164Y-109853801D01*
X136328743Y-109858711D01*
X136328742Y-109858712D01*
X136280519Y-109912270D01*
X136213409Y-109986803D01*
X136123923Y-110141797D01*
X136068618Y-110312009D01*
X136049910Y-110490000D01*
X130228266Y-110490000D01*
X130232591Y-110485197D01*
X130322077Y-110330203D01*
X130354818Y-110229435D01*
X130375342Y-110166270D01*
X130375342Y-110166269D01*
X130377382Y-110159991D01*
X130383594Y-110100894D01*
X130395400Y-109988565D01*
X130396090Y-109982000D01*
X130383132Y-109858712D01*
X130378072Y-109810573D01*
X130378072Y-109810572D01*
X130377382Y-109804009D01*
X130358508Y-109745919D01*
X130335282Y-109674438D01*
X130322077Y-109633797D01*
X130317613Y-109626064D01*
X130243954Y-109498485D01*
X130232591Y-109478803D01*
X130112836Y-109345801D01*
X130077223Y-109319926D01*
X129973387Y-109244485D01*
X129973386Y-109244484D01*
X129968045Y-109240604D01*
X129962017Y-109237920D01*
X129962015Y-109237919D01*
X129810577Y-109170495D01*
X129810576Y-109170495D01*
X129804546Y-109167810D01*
X129717016Y-109149205D01*
X129635943Y-109131972D01*
X129635939Y-109131972D01*
X129629486Y-109130600D01*
X129450514Y-109130600D01*
X129444061Y-109131972D01*
X129444057Y-109131972D01*
X129362984Y-109149205D01*
X129275454Y-109167810D01*
X129269424Y-109170495D01*
X129269423Y-109170495D01*
X129117985Y-109237919D01*
X129117983Y-109237920D01*
X129111955Y-109240604D01*
X129106614Y-109244484D01*
X129106613Y-109244485D01*
X129002778Y-109319926D01*
X128967164Y-109345801D01*
X128847409Y-109478803D01*
X128836046Y-109498485D01*
X128762388Y-109626064D01*
X128757923Y-109633797D01*
X128744718Y-109674438D01*
X128721493Y-109745919D01*
X128702618Y-109804009D01*
X128701928Y-109810572D01*
X128701928Y-109810573D01*
X128696868Y-109858712D01*
X128683910Y-109982000D01*
X128320685Y-109982000D01*
X128290077Y-109887797D01*
X128283803Y-109876929D01*
X128216983Y-109761195D01*
X128200591Y-109732803D01*
X128155107Y-109682287D01*
X128085258Y-109604712D01*
X128085257Y-109604711D01*
X128080836Y-109599801D01*
X128012304Y-109550009D01*
X127941387Y-109498485D01*
X127941386Y-109498484D01*
X127936045Y-109494604D01*
X127930017Y-109491920D01*
X127930015Y-109491919D01*
X127778577Y-109424495D01*
X127778576Y-109424495D01*
X127772546Y-109421810D01*
X127685016Y-109403205D01*
X127603943Y-109385972D01*
X127603939Y-109385972D01*
X127597486Y-109384600D01*
X127418514Y-109384600D01*
X127412061Y-109385972D01*
X127412057Y-109385972D01*
X127330984Y-109403205D01*
X127243454Y-109421810D01*
X127237424Y-109424495D01*
X127237423Y-109424495D01*
X127085985Y-109491919D01*
X127085983Y-109491920D01*
X127079955Y-109494604D01*
X127074614Y-109498484D01*
X127074613Y-109498485D01*
X127003697Y-109550009D01*
X126935164Y-109599801D01*
X126930743Y-109604711D01*
X126930742Y-109604712D01*
X126860894Y-109682287D01*
X126815409Y-109732803D01*
X126799017Y-109761195D01*
X126732198Y-109876929D01*
X126725923Y-109887797D01*
X126670618Y-110058009D01*
X126669928Y-110064572D01*
X126669928Y-110064573D01*
X126665961Y-110102317D01*
X126651910Y-110236000D01*
X123116267Y-110236000D01*
X123120591Y-110231197D01*
X123210077Y-110076203D01*
X123265382Y-109905991D01*
X123267475Y-109886083D01*
X123283400Y-109734565D01*
X123284090Y-109728000D01*
X123278887Y-109678495D01*
X123266072Y-109556573D01*
X123266072Y-109556572D01*
X123265382Y-109550009D01*
X123263320Y-109543661D01*
X123212119Y-109386082D01*
X123210077Y-109379797D01*
X123120591Y-109224803D01*
X123053482Y-109150270D01*
X123005258Y-109096712D01*
X123005257Y-109096711D01*
X123000836Y-109091801D01*
X122950735Y-109055400D01*
X122861387Y-108990485D01*
X122861386Y-108990484D01*
X122856045Y-108986604D01*
X122850017Y-108983920D01*
X122850015Y-108983919D01*
X122809768Y-108966000D01*
X133763910Y-108966000D01*
X133764600Y-108972565D01*
X133781211Y-109130600D01*
X133782618Y-109143991D01*
X133837923Y-109314203D01*
X133841226Y-109319925D01*
X133841227Y-109319926D01*
X133872490Y-109374074D01*
X133927409Y-109469197D01*
X133931827Y-109474104D01*
X133931828Y-109474105D01*
X134042742Y-109597288D01*
X134047164Y-109602199D01*
X134052506Y-109606080D01*
X134052508Y-109606082D01*
X134152176Y-109678495D01*
X134191955Y-109707396D01*
X134197983Y-109710080D01*
X134197985Y-109710081D01*
X134312790Y-109761195D01*
X134355454Y-109780190D01*
X134437974Y-109797730D01*
X134524057Y-109816028D01*
X134524061Y-109816028D01*
X134530514Y-109817400D01*
X134709486Y-109817400D01*
X134715939Y-109816028D01*
X134715943Y-109816028D01*
X134802026Y-109797730D01*
X134884546Y-109780190D01*
X134927210Y-109761195D01*
X135042015Y-109710081D01*
X135042017Y-109710080D01*
X135048045Y-109707396D01*
X135087824Y-109678495D01*
X135187492Y-109606082D01*
X135187494Y-109606080D01*
X135192836Y-109602199D01*
X135197258Y-109597288D01*
X135308172Y-109474105D01*
X135308173Y-109474104D01*
X135312591Y-109469197D01*
X135367510Y-109374074D01*
X135398773Y-109319926D01*
X135398774Y-109319925D01*
X135402077Y-109314203D01*
X135457382Y-109143991D01*
X135458790Y-109130600D01*
X135475400Y-108972565D01*
X135476090Y-108966000D01*
X135470780Y-108915480D01*
X135458072Y-108794573D01*
X135458072Y-108794572D01*
X135457382Y-108788009D01*
X135402077Y-108617797D01*
X135312591Y-108462803D01*
X135245482Y-108388270D01*
X135197258Y-108334712D01*
X135197257Y-108334711D01*
X135192836Y-108329801D01*
X135113052Y-108271834D01*
X135053387Y-108228485D01*
X135053386Y-108228484D01*
X135048045Y-108224604D01*
X135042017Y-108221920D01*
X135042015Y-108221919D01*
X134890577Y-108154495D01*
X134890576Y-108154495D01*
X134884546Y-108151810D01*
X134797016Y-108133205D01*
X134715943Y-108115972D01*
X134715939Y-108115972D01*
X134709486Y-108114600D01*
X134530514Y-108114600D01*
X134524061Y-108115972D01*
X134524057Y-108115972D01*
X134442984Y-108133205D01*
X134355454Y-108151810D01*
X134349424Y-108154495D01*
X134349423Y-108154495D01*
X134197985Y-108221919D01*
X134197983Y-108221920D01*
X134191955Y-108224604D01*
X134186614Y-108228484D01*
X134186613Y-108228485D01*
X134126949Y-108271834D01*
X134047164Y-108329801D01*
X134042743Y-108334711D01*
X134042742Y-108334712D01*
X133994519Y-108388270D01*
X133927409Y-108462803D01*
X133837923Y-108617797D01*
X133782618Y-108788009D01*
X133781928Y-108794572D01*
X133781928Y-108794573D01*
X133769220Y-108915480D01*
X133763910Y-108966000D01*
X122809768Y-108966000D01*
X122698577Y-108916495D01*
X122698576Y-108916495D01*
X122692546Y-108913810D01*
X122605016Y-108895205D01*
X122523943Y-108877972D01*
X122523939Y-108877972D01*
X122517486Y-108876600D01*
X122338514Y-108876600D01*
X122332061Y-108877972D01*
X122332057Y-108877972D01*
X122250984Y-108895205D01*
X122163454Y-108913810D01*
X122157424Y-108916495D01*
X122157423Y-108916495D01*
X122005985Y-108983919D01*
X122005983Y-108983920D01*
X121999955Y-108986604D01*
X121994614Y-108990484D01*
X121994613Y-108990485D01*
X121929611Y-109037712D01*
X121862743Y-109061571D01*
X121793592Y-109045490D01*
X121744112Y-108994576D01*
X121730029Y-108924798D01*
X121730844Y-108915480D01*
X121730844Y-108915475D01*
X121731323Y-108910000D01*
X121712070Y-108689932D01*
X121673481Y-108545918D01*
X121656317Y-108481860D01*
X121656316Y-108481858D01*
X121654894Y-108476550D01*
X121618795Y-108399135D01*
X121563857Y-108281320D01*
X121563855Y-108281317D01*
X121561534Y-108276339D01*
X121434826Y-108095380D01*
X121278620Y-107939174D01*
X121274112Y-107936017D01*
X121274109Y-107936015D01*
X121102171Y-107815623D01*
X121102169Y-107815622D01*
X121097662Y-107812466D01*
X121092680Y-107810143D01*
X121092675Y-107810140D01*
X121015589Y-107774195D01*
X120962304Y-107727278D01*
X120942843Y-107659001D01*
X120963385Y-107591041D01*
X121015589Y-107545805D01*
X121092675Y-107509860D01*
X121092680Y-107509857D01*
X121097662Y-107507534D01*
X121102171Y-107504377D01*
X121274109Y-107383985D01*
X121274112Y-107383983D01*
X121278620Y-107380826D01*
X121434826Y-107224620D01*
X121561534Y-107043661D01*
X121580042Y-107003972D01*
X121652571Y-106848432D01*
X121652572Y-106848431D01*
X121654894Y-106843450D01*
X121657047Y-106835417D01*
X121693170Y-106700604D01*
X121712070Y-106630068D01*
X121729923Y-106426000D01*
X125381910Y-106426000D01*
X125382600Y-106432565D01*
X125399211Y-106590600D01*
X125400618Y-106603991D01*
X125402658Y-106610269D01*
X125402658Y-106610270D01*
X125416326Y-106652336D01*
X125455923Y-106774203D01*
X125459226Y-106779925D01*
X125459227Y-106779926D01*
X125477792Y-106812082D01*
X125545409Y-106929197D01*
X125549827Y-106934104D01*
X125549828Y-106934105D01*
X125612736Y-107003972D01*
X125665164Y-107062199D01*
X125670506Y-107066080D01*
X125670508Y-107066082D01*
X125717305Y-107100082D01*
X125809955Y-107167396D01*
X125815983Y-107170080D01*
X125815985Y-107170081D01*
X125938483Y-107224620D01*
X125973454Y-107240190D01*
X126055974Y-107257730D01*
X126142057Y-107276028D01*
X126142061Y-107276028D01*
X126148514Y-107277400D01*
X126327486Y-107277400D01*
X126333939Y-107276028D01*
X126333943Y-107276028D01*
X126420026Y-107257730D01*
X126502546Y-107240190D01*
X126537517Y-107224620D01*
X126660015Y-107170081D01*
X126660017Y-107170080D01*
X126666045Y-107167396D01*
X126758695Y-107100082D01*
X126805492Y-107066082D01*
X126805494Y-107066080D01*
X126810836Y-107062199D01*
X126863264Y-107003972D01*
X126926172Y-106934105D01*
X126926173Y-106934104D01*
X126930591Y-106929197D01*
X126998208Y-106812082D01*
X127016773Y-106779926D01*
X127016774Y-106779925D01*
X127020077Y-106774203D01*
X127059674Y-106652336D01*
X127073342Y-106610270D01*
X127073342Y-106610269D01*
X127075382Y-106603991D01*
X127076790Y-106590600D01*
X127093400Y-106432565D01*
X127094090Y-106426000D01*
X127075382Y-106248009D01*
X127050685Y-106172000D01*
X141637910Y-106172000D01*
X141656618Y-106349991D01*
X141711923Y-106520203D01*
X141715226Y-106525925D01*
X141715227Y-106525926D01*
X141715598Y-106526568D01*
X141801409Y-106675197D01*
X141805827Y-106680104D01*
X141805828Y-106680105D01*
X141916742Y-106803288D01*
X141921164Y-106808199D01*
X141926506Y-106812080D01*
X141926508Y-106812082D01*
X141998339Y-106864270D01*
X142065955Y-106913396D01*
X142071983Y-106916080D01*
X142071985Y-106916081D01*
X142112468Y-106934105D01*
X142229454Y-106986190D01*
X142313112Y-107003972D01*
X142398057Y-107022028D01*
X142398061Y-107022028D01*
X142404514Y-107023400D01*
X142583486Y-107023400D01*
X142589939Y-107022028D01*
X142589943Y-107022028D01*
X142674888Y-107003972D01*
X142758546Y-106986190D01*
X142875532Y-106934105D01*
X142916015Y-106916081D01*
X142916017Y-106916080D01*
X142922045Y-106913396D01*
X142989661Y-106864270D01*
X143061492Y-106812082D01*
X143061494Y-106812080D01*
X143066836Y-106808199D01*
X143071258Y-106803288D01*
X143182172Y-106680105D01*
X143182173Y-106680104D01*
X143182267Y-106680000D01*
X144177910Y-106680000D01*
X144178600Y-106686565D01*
X144194722Y-106839948D01*
X144196618Y-106857991D01*
X144198658Y-106864269D01*
X144198658Y-106864270D01*
X144217896Y-106923479D01*
X144251923Y-107028203D01*
X144341409Y-107183197D01*
X144345827Y-107188104D01*
X144345828Y-107188105D01*
X144414172Y-107264009D01*
X144461164Y-107316199D01*
X144466506Y-107320080D01*
X144466508Y-107320082D01*
X144566176Y-107392495D01*
X144605955Y-107421396D01*
X144611983Y-107424080D01*
X144611985Y-107424081D01*
X144698510Y-107462604D01*
X144769454Y-107494190D01*
X144843176Y-107509860D01*
X144938057Y-107530028D01*
X144938061Y-107530028D01*
X144944514Y-107531400D01*
X145123486Y-107531400D01*
X145129939Y-107530028D01*
X145129943Y-107530028D01*
X145224824Y-107509860D01*
X145298546Y-107494190D01*
X145369490Y-107462604D01*
X145456015Y-107424081D01*
X145456017Y-107424080D01*
X145462045Y-107421396D01*
X145501824Y-107392495D01*
X145601492Y-107320082D01*
X145601494Y-107320080D01*
X145606836Y-107316199D01*
X145653828Y-107264009D01*
X145722172Y-107188105D01*
X145722173Y-107188104D01*
X145726591Y-107183197D01*
X145816077Y-107028203D01*
X145850104Y-106923479D01*
X145869342Y-106864270D01*
X145869342Y-106864269D01*
X145871382Y-106857991D01*
X145873279Y-106839948D01*
X145889400Y-106686565D01*
X145890090Y-106680000D01*
X145884842Y-106630068D01*
X145872072Y-106508573D01*
X145872072Y-106508572D01*
X145871382Y-106502009D01*
X145816077Y-106331797D01*
X145726591Y-106176803D01*
X145606836Y-106043801D01*
X145538304Y-105994009D01*
X145467387Y-105942485D01*
X145467386Y-105942484D01*
X145462045Y-105938604D01*
X145456017Y-105935920D01*
X145456015Y-105935919D01*
X145304577Y-105868495D01*
X145304576Y-105868495D01*
X145298546Y-105865810D01*
X145211016Y-105847205D01*
X145129943Y-105829972D01*
X145129939Y-105829972D01*
X145123486Y-105828600D01*
X144944514Y-105828600D01*
X144938061Y-105829972D01*
X144938057Y-105829972D01*
X144856984Y-105847205D01*
X144769454Y-105865810D01*
X144763424Y-105868495D01*
X144763423Y-105868495D01*
X144611985Y-105935919D01*
X144611983Y-105935920D01*
X144605955Y-105938604D01*
X144600614Y-105942484D01*
X144600613Y-105942485D01*
X144529697Y-105994009D01*
X144461164Y-106043801D01*
X144341409Y-106176803D01*
X144251923Y-106331797D01*
X144196618Y-106502009D01*
X144195928Y-106508572D01*
X144195928Y-106508573D01*
X144183158Y-106630068D01*
X144177910Y-106680000D01*
X143182267Y-106680000D01*
X143186591Y-106675197D01*
X143272402Y-106526568D01*
X143272773Y-106525926D01*
X143272774Y-106525925D01*
X143276077Y-106520203D01*
X143331382Y-106349991D01*
X143350090Y-106172000D01*
X143337132Y-106048712D01*
X143332072Y-106000573D01*
X143332072Y-106000572D01*
X143331382Y-105994009D01*
X143312508Y-105935919D01*
X143278119Y-105830082D01*
X143276077Y-105823797D01*
X143186591Y-105668803D01*
X143066836Y-105535801D01*
X142922045Y-105430604D01*
X142916017Y-105427920D01*
X142916015Y-105427919D01*
X142764577Y-105360495D01*
X142764576Y-105360495D01*
X142758546Y-105357810D01*
X142671016Y-105339205D01*
X142589943Y-105321972D01*
X142589939Y-105321972D01*
X142583486Y-105320600D01*
X142404514Y-105320600D01*
X142398061Y-105321972D01*
X142398057Y-105321972D01*
X142316984Y-105339205D01*
X142229454Y-105357810D01*
X142223424Y-105360495D01*
X142223423Y-105360495D01*
X142071985Y-105427919D01*
X142071983Y-105427920D01*
X142065955Y-105430604D01*
X141921164Y-105535801D01*
X141801409Y-105668803D01*
X141711923Y-105823797D01*
X141709881Y-105830082D01*
X141675493Y-105935919D01*
X141656618Y-105994009D01*
X141655928Y-106000572D01*
X141655928Y-106000573D01*
X141650868Y-106048712D01*
X141637910Y-106172000D01*
X127050685Y-106172000D01*
X127020077Y-106077797D01*
X126930591Y-105922803D01*
X126810836Y-105789801D01*
X126792308Y-105776339D01*
X126671387Y-105688485D01*
X126671386Y-105688484D01*
X126666045Y-105684604D01*
X126660017Y-105681920D01*
X126660015Y-105681919D01*
X126508577Y-105614495D01*
X126508576Y-105614495D01*
X126502546Y-105611810D01*
X126406924Y-105591485D01*
X126333943Y-105575972D01*
X126333939Y-105575972D01*
X126327486Y-105574600D01*
X126148514Y-105574600D01*
X126142061Y-105575972D01*
X126142057Y-105575972D01*
X126069076Y-105591485D01*
X125973454Y-105611810D01*
X125967424Y-105614495D01*
X125967423Y-105614495D01*
X125815985Y-105681919D01*
X125815983Y-105681920D01*
X125809955Y-105684604D01*
X125804614Y-105688484D01*
X125804613Y-105688485D01*
X125683693Y-105776339D01*
X125665164Y-105789801D01*
X125545409Y-105922803D01*
X125455923Y-106077797D01*
X125400618Y-106248009D01*
X125381910Y-106426000D01*
X121729923Y-106426000D01*
X121731323Y-106410000D01*
X121712070Y-106189932D01*
X121654894Y-105976550D01*
X121639009Y-105942485D01*
X121563857Y-105781320D01*
X121563855Y-105781317D01*
X121561534Y-105776339D01*
X121434826Y-105595380D01*
X121338541Y-105499095D01*
X121304515Y-105436783D01*
X121309580Y-105365968D01*
X121338541Y-105320905D01*
X121434826Y-105224620D01*
X121561534Y-105043661D01*
X121567812Y-105030199D01*
X121652571Y-104848432D01*
X121652572Y-104848431D01*
X121654894Y-104843450D01*
X121712070Y-104630068D01*
X121731323Y-104410000D01*
X121729923Y-104394000D01*
X122079910Y-104394000D01*
X122080600Y-104400565D01*
X122089307Y-104483400D01*
X122098618Y-104571991D01*
X122153923Y-104742203D01*
X122243409Y-104897197D01*
X122363164Y-105030199D01*
X122368506Y-105034080D01*
X122368508Y-105034082D01*
X122387893Y-105048166D01*
X122507955Y-105135396D01*
X122513983Y-105138080D01*
X122513985Y-105138081D01*
X122665423Y-105205505D01*
X122671454Y-105208190D01*
X122758984Y-105226795D01*
X122840057Y-105244028D01*
X122840061Y-105244028D01*
X122846514Y-105245400D01*
X123025486Y-105245400D01*
X123031939Y-105244028D01*
X123031943Y-105244028D01*
X123113016Y-105226795D01*
X123200546Y-105208190D01*
X123206577Y-105205505D01*
X123358015Y-105138081D01*
X123358017Y-105138080D01*
X123364045Y-105135396D01*
X123484107Y-105048166D01*
X123503492Y-105034082D01*
X123503494Y-105034080D01*
X123508836Y-105030199D01*
X123628591Y-104897197D01*
X123718077Y-104742203D01*
X123773382Y-104571991D01*
X123782694Y-104483400D01*
X123791400Y-104400565D01*
X123792090Y-104394000D01*
X123781406Y-104292354D01*
X123774072Y-104222573D01*
X123774072Y-104222572D01*
X123773382Y-104216009D01*
X123758731Y-104170916D01*
X123724795Y-104066474D01*
X123718077Y-104045797D01*
X123628591Y-103890803D01*
X123565940Y-103821221D01*
X123513258Y-103762712D01*
X123513257Y-103762711D01*
X123508836Y-103757801D01*
X123467277Y-103727606D01*
X123369387Y-103656485D01*
X123369386Y-103656484D01*
X123364045Y-103652604D01*
X123358017Y-103649920D01*
X123358015Y-103649919D01*
X123317768Y-103632000D01*
X136049910Y-103632000D01*
X136068618Y-103809991D01*
X136070658Y-103816269D01*
X136070658Y-103816270D01*
X136093188Y-103885609D01*
X136123923Y-103980203D01*
X136213409Y-104135197D01*
X136217827Y-104140104D01*
X136217828Y-104140105D01*
X136284797Y-104214482D01*
X136333164Y-104268199D01*
X136338506Y-104272080D01*
X136338508Y-104272082D01*
X136472613Y-104369515D01*
X136477955Y-104373396D01*
X136483983Y-104376080D01*
X136483985Y-104376081D01*
X136577073Y-104417526D01*
X136641454Y-104446190D01*
X136728984Y-104464795D01*
X136810057Y-104482028D01*
X136810061Y-104482028D01*
X136816514Y-104483400D01*
X136995486Y-104483400D01*
X137001939Y-104482028D01*
X137001943Y-104482028D01*
X137083016Y-104464795D01*
X137170546Y-104446190D01*
X137234927Y-104417526D01*
X137328015Y-104376081D01*
X137328017Y-104376080D01*
X137334045Y-104373396D01*
X137339387Y-104369515D01*
X137473492Y-104272082D01*
X137473494Y-104272080D01*
X137478836Y-104268199D01*
X137527203Y-104214482D01*
X137594172Y-104140105D01*
X137594173Y-104140104D01*
X137598591Y-104135197D01*
X137639928Y-104063600D01*
X144179961Y-104063600D01*
X144198669Y-104241591D01*
X144200709Y-104247869D01*
X144200709Y-104247870D01*
X144201975Y-104251766D01*
X144253974Y-104411803D01*
X144257277Y-104417525D01*
X144257278Y-104417526D01*
X144288883Y-104472268D01*
X144343460Y-104566797D01*
X144463215Y-104699799D01*
X144608006Y-104804996D01*
X144614034Y-104807680D01*
X144614036Y-104807681D01*
X144705565Y-104848432D01*
X144771505Y-104877790D01*
X144859035Y-104896395D01*
X144940108Y-104913628D01*
X144940112Y-104913628D01*
X144946565Y-104915000D01*
X145125537Y-104915000D01*
X145131990Y-104913628D01*
X145131994Y-104913628D01*
X145213067Y-104896395D01*
X145300597Y-104877790D01*
X145366537Y-104848432D01*
X145458066Y-104807681D01*
X145458068Y-104807680D01*
X145464096Y-104804996D01*
X145608887Y-104699799D01*
X145728642Y-104566797D01*
X145783219Y-104472268D01*
X145814824Y-104417526D01*
X145814825Y-104417525D01*
X145818128Y-104411803D01*
X145870127Y-104251766D01*
X145871393Y-104247870D01*
X145871393Y-104247869D01*
X145873433Y-104241591D01*
X145892141Y-104063600D01*
X145883375Y-103980203D01*
X145874123Y-103892173D01*
X145874123Y-103892172D01*
X145873433Y-103885609D01*
X145850904Y-103816270D01*
X145836465Y-103771834D01*
X145818128Y-103715397D01*
X145728642Y-103560403D01*
X145706825Y-103536172D01*
X145613309Y-103432312D01*
X145613308Y-103432311D01*
X145608887Y-103427401D01*
X145494037Y-103343957D01*
X145469438Y-103326085D01*
X145469437Y-103326084D01*
X145464096Y-103322204D01*
X145458068Y-103319520D01*
X145458066Y-103319519D01*
X145306628Y-103252095D01*
X145306627Y-103252095D01*
X145300597Y-103249410D01*
X145213067Y-103230805D01*
X145131994Y-103213572D01*
X145131990Y-103213572D01*
X145125537Y-103212200D01*
X144946565Y-103212200D01*
X144940112Y-103213572D01*
X144940108Y-103213572D01*
X144859035Y-103230805D01*
X144771505Y-103249410D01*
X144765475Y-103252095D01*
X144765474Y-103252095D01*
X144614036Y-103319519D01*
X144614034Y-103319520D01*
X144608006Y-103322204D01*
X144602665Y-103326084D01*
X144602664Y-103326085D01*
X144578066Y-103343957D01*
X144463215Y-103427401D01*
X144458794Y-103432311D01*
X144458793Y-103432312D01*
X144365278Y-103536172D01*
X144343460Y-103560403D01*
X144253974Y-103715397D01*
X144235637Y-103771834D01*
X144221199Y-103816270D01*
X144198669Y-103885609D01*
X144197979Y-103892172D01*
X144197979Y-103892173D01*
X144188727Y-103980203D01*
X144179961Y-104063600D01*
X137639928Y-104063600D01*
X137688077Y-103980203D01*
X137718812Y-103885609D01*
X137741342Y-103816270D01*
X137741342Y-103816269D01*
X137743382Y-103809991D01*
X137762090Y-103632000D01*
X137756887Y-103582495D01*
X137744072Y-103460573D01*
X137744072Y-103460572D01*
X137743382Y-103454009D01*
X137737536Y-103436015D01*
X137690119Y-103290082D01*
X137688077Y-103283797D01*
X137682039Y-103273338D01*
X137645457Y-103209978D01*
X137598591Y-103128803D01*
X137571250Y-103098437D01*
X137483258Y-103000712D01*
X137483257Y-103000711D01*
X137478836Y-102995801D01*
X137428735Y-102959400D01*
X137339387Y-102894485D01*
X137339386Y-102894484D01*
X137334045Y-102890604D01*
X137328019Y-102887921D01*
X137328012Y-102887917D01*
X137261056Y-102858107D01*
X137206960Y-102812127D01*
X137186310Y-102744200D01*
X137205662Y-102675892D01*
X137261056Y-102627893D01*
X137328012Y-102598083D01*
X137328019Y-102598079D01*
X137334045Y-102595396D01*
X137339387Y-102591515D01*
X137473492Y-102494082D01*
X137473494Y-102494080D01*
X137478836Y-102490199D01*
X137598591Y-102357197D01*
X137688077Y-102202203D01*
X137718685Y-102108000D01*
X142907910Y-102108000D01*
X142926618Y-102285991D01*
X142981923Y-102456203D01*
X143071409Y-102611197D01*
X143191164Y-102744199D01*
X143196506Y-102748080D01*
X143196508Y-102748082D01*
X143330613Y-102845515D01*
X143335955Y-102849396D01*
X143341983Y-102852080D01*
X143341985Y-102852081D01*
X143454773Y-102902297D01*
X143499454Y-102922190D01*
X143586984Y-102940795D01*
X143668057Y-102958028D01*
X143668061Y-102958028D01*
X143674514Y-102959400D01*
X143853486Y-102959400D01*
X143859939Y-102958028D01*
X143859943Y-102958028D01*
X143941016Y-102940795D01*
X144028546Y-102922190D01*
X144073227Y-102902297D01*
X144186015Y-102852081D01*
X144186017Y-102852080D01*
X144192045Y-102849396D01*
X144197387Y-102845515D01*
X144331492Y-102748082D01*
X144331494Y-102748080D01*
X144336836Y-102744199D01*
X144456591Y-102611197D01*
X144546077Y-102456203D01*
X144601382Y-102285991D01*
X144620090Y-102108000D01*
X144615910Y-102068234D01*
X144602072Y-101936573D01*
X144602072Y-101936572D01*
X144601382Y-101930009D01*
X144546077Y-101759797D01*
X144456591Y-101604803D01*
X144336836Y-101471801D01*
X144250859Y-101409335D01*
X144207506Y-101353114D01*
X144201431Y-101282378D01*
X144234562Y-101219586D01*
X144296382Y-101184675D01*
X144324921Y-101181400D01*
X144361486Y-101181400D01*
X144367939Y-101180028D01*
X144367943Y-101180028D01*
X144482762Y-101155622D01*
X144536546Y-101144190D01*
X144551094Y-101137713D01*
X144694015Y-101074081D01*
X144694017Y-101074080D01*
X144700045Y-101071396D01*
X144734605Y-101046287D01*
X144839492Y-100970082D01*
X144839494Y-100970080D01*
X144844836Y-100966199D01*
X144875184Y-100932494D01*
X144960172Y-100838105D01*
X144960173Y-100838104D01*
X144964591Y-100833197D01*
X145037690Y-100706586D01*
X145050773Y-100683926D01*
X145050774Y-100683925D01*
X145054077Y-100678203D01*
X145087986Y-100573842D01*
X145107342Y-100514270D01*
X145107342Y-100514269D01*
X145109382Y-100507991D01*
X145114616Y-100458199D01*
X145127400Y-100336565D01*
X145128090Y-100330000D01*
X145109382Y-100152009D01*
X145054077Y-99981797D01*
X144964591Y-99826803D01*
X144844836Y-99693801D01*
X144776304Y-99644009D01*
X144705387Y-99592485D01*
X144705386Y-99592484D01*
X144700045Y-99588604D01*
X144694017Y-99585920D01*
X144694015Y-99585919D01*
X144542577Y-99518495D01*
X144542576Y-99518495D01*
X144536546Y-99515810D01*
X144449016Y-99497205D01*
X144367943Y-99479972D01*
X144367939Y-99479972D01*
X144361486Y-99478600D01*
X144182514Y-99478600D01*
X144176061Y-99479972D01*
X144176057Y-99479972D01*
X144094984Y-99497205D01*
X144007454Y-99515810D01*
X144001424Y-99518495D01*
X144001423Y-99518495D01*
X143849985Y-99585919D01*
X143849983Y-99585920D01*
X143843955Y-99588604D01*
X143838614Y-99592484D01*
X143838613Y-99592485D01*
X143767697Y-99644009D01*
X143699164Y-99693801D01*
X143579409Y-99826803D01*
X143489923Y-99981797D01*
X143434618Y-100152009D01*
X143415910Y-100330000D01*
X143416600Y-100336565D01*
X143429385Y-100458199D01*
X143434618Y-100507991D01*
X143436658Y-100514269D01*
X143436658Y-100514270D01*
X143456014Y-100573842D01*
X143489923Y-100678203D01*
X143493226Y-100683925D01*
X143493227Y-100683926D01*
X143506310Y-100706586D01*
X143579409Y-100833197D01*
X143583827Y-100838104D01*
X143583828Y-100838105D01*
X143668816Y-100932494D01*
X143699164Y-100966199D01*
X143704506Y-100970080D01*
X143704508Y-100970082D01*
X143785140Y-101028664D01*
X143828494Y-101084886D01*
X143834569Y-101155622D01*
X143801438Y-101218414D01*
X143739618Y-101253325D01*
X143711079Y-101256600D01*
X143674514Y-101256600D01*
X143668061Y-101257972D01*
X143668057Y-101257972D01*
X143586984Y-101275205D01*
X143499454Y-101293810D01*
X143493424Y-101296495D01*
X143493423Y-101296495D01*
X143341985Y-101363919D01*
X143341983Y-101363920D01*
X143335955Y-101366604D01*
X143330614Y-101370484D01*
X143330613Y-101370485D01*
X143277140Y-101409336D01*
X143191164Y-101471801D01*
X143071409Y-101604803D01*
X142981923Y-101759797D01*
X142926618Y-101930009D01*
X142925928Y-101936572D01*
X142925928Y-101936573D01*
X142912090Y-102068234D01*
X142907910Y-102108000D01*
X137718685Y-102108000D01*
X137743382Y-102031991D01*
X137762090Y-101854000D01*
X137743382Y-101676009D01*
X137688077Y-101505797D01*
X137598591Y-101350803D01*
X137478836Y-101217801D01*
X137445989Y-101193936D01*
X137402635Y-101137713D01*
X137396560Y-101066977D01*
X137429692Y-101004185D01*
X137445989Y-100990064D01*
X137456032Y-100982767D01*
X137478836Y-100966199D01*
X137509184Y-100932494D01*
X137594172Y-100838105D01*
X137594173Y-100838104D01*
X137598591Y-100833197D01*
X137671690Y-100706586D01*
X137684773Y-100683926D01*
X137684774Y-100683925D01*
X137688077Y-100678203D01*
X137721986Y-100573842D01*
X137741342Y-100514270D01*
X137741342Y-100514269D01*
X137743382Y-100507991D01*
X137748616Y-100458199D01*
X137761400Y-100336565D01*
X137762090Y-100330000D01*
X137743382Y-100152009D01*
X137688077Y-99981797D01*
X137598591Y-99826803D01*
X137594266Y-99822000D01*
X140621910Y-99822000D01*
X140640618Y-99999991D01*
X140695923Y-100170203D01*
X140785409Y-100325197D01*
X140789827Y-100330104D01*
X140789828Y-100330105D01*
X140821232Y-100364983D01*
X140905164Y-100458199D01*
X140910506Y-100462080D01*
X140910508Y-100462082D01*
X141044613Y-100559515D01*
X141049955Y-100563396D01*
X141055983Y-100566080D01*
X141055985Y-100566081D01*
X141073417Y-100573842D01*
X141213454Y-100636190D01*
X141300984Y-100654795D01*
X141382057Y-100672028D01*
X141382061Y-100672028D01*
X141388514Y-100673400D01*
X141567486Y-100673400D01*
X141573939Y-100672028D01*
X141573943Y-100672028D01*
X141655016Y-100654795D01*
X141742546Y-100636190D01*
X141882583Y-100573842D01*
X141900015Y-100566081D01*
X141900017Y-100566080D01*
X141906045Y-100563396D01*
X141911387Y-100559515D01*
X142045492Y-100462082D01*
X142045494Y-100462080D01*
X142050836Y-100458199D01*
X142134768Y-100364983D01*
X142166172Y-100330105D01*
X142166173Y-100330104D01*
X142170591Y-100325197D01*
X142260077Y-100170203D01*
X142315382Y-99999991D01*
X142334090Y-99822000D01*
X142321132Y-99698712D01*
X142316072Y-99650573D01*
X142316072Y-99650572D01*
X142315382Y-99644009D01*
X142296508Y-99585919D01*
X142262119Y-99480082D01*
X142260077Y-99473797D01*
X142170591Y-99318803D01*
X142117703Y-99260064D01*
X142055258Y-99190712D01*
X142055257Y-99190711D01*
X142050836Y-99185801D01*
X141906045Y-99080604D01*
X141900017Y-99077920D01*
X141900015Y-99077919D01*
X141748577Y-99010495D01*
X141748576Y-99010495D01*
X141742546Y-99007810D01*
X141655016Y-98989205D01*
X141573943Y-98971972D01*
X141573939Y-98971972D01*
X141567486Y-98970600D01*
X141388514Y-98970600D01*
X141382061Y-98971972D01*
X141382057Y-98971972D01*
X141300984Y-98989205D01*
X141213454Y-99007810D01*
X141207424Y-99010495D01*
X141207423Y-99010495D01*
X141055985Y-99077919D01*
X141055983Y-99077920D01*
X141049955Y-99080604D01*
X140905164Y-99185801D01*
X140900743Y-99190711D01*
X140900742Y-99190712D01*
X140838298Y-99260064D01*
X140785409Y-99318803D01*
X140695923Y-99473797D01*
X140693881Y-99480082D01*
X140659493Y-99585919D01*
X140640618Y-99644009D01*
X140639928Y-99650572D01*
X140639928Y-99650573D01*
X140634868Y-99698712D01*
X140621910Y-99822000D01*
X137594266Y-99822000D01*
X137478836Y-99693801D01*
X137410304Y-99644009D01*
X137339387Y-99592485D01*
X137339386Y-99592484D01*
X137334045Y-99588604D01*
X137328017Y-99585920D01*
X137328015Y-99585919D01*
X137176577Y-99518495D01*
X137176576Y-99518495D01*
X137170546Y-99515810D01*
X137083016Y-99497205D01*
X137001943Y-99479972D01*
X137001939Y-99479972D01*
X136995486Y-99478600D01*
X136816514Y-99478600D01*
X136810061Y-99479972D01*
X136810057Y-99479972D01*
X136728984Y-99497205D01*
X136641454Y-99515810D01*
X136635424Y-99518495D01*
X136635423Y-99518495D01*
X136483985Y-99585919D01*
X136483983Y-99585920D01*
X136477955Y-99588604D01*
X136472614Y-99592484D01*
X136472613Y-99592485D01*
X136401697Y-99644009D01*
X136333164Y-99693801D01*
X136213409Y-99826803D01*
X136123923Y-99981797D01*
X136068618Y-100152009D01*
X136049910Y-100330000D01*
X136050600Y-100336565D01*
X136063385Y-100458199D01*
X136068618Y-100507991D01*
X136070658Y-100514269D01*
X136070658Y-100514270D01*
X136090014Y-100573842D01*
X136123923Y-100678203D01*
X136127226Y-100683925D01*
X136127227Y-100683926D01*
X136140310Y-100706586D01*
X136213409Y-100833197D01*
X136217827Y-100838104D01*
X136217828Y-100838105D01*
X136302816Y-100932494D01*
X136333164Y-100966199D01*
X136355968Y-100982767D01*
X136366011Y-100990064D01*
X136409365Y-101046287D01*
X136415440Y-101117023D01*
X136382308Y-101179815D01*
X136366011Y-101193936D01*
X136333164Y-101217801D01*
X136213409Y-101350803D01*
X136123923Y-101505797D01*
X136068618Y-101676009D01*
X136049910Y-101854000D01*
X136068618Y-102031991D01*
X136123923Y-102202203D01*
X136213409Y-102357197D01*
X136333164Y-102490199D01*
X136338506Y-102494080D01*
X136338508Y-102494082D01*
X136472613Y-102591515D01*
X136477955Y-102595396D01*
X136483981Y-102598079D01*
X136483988Y-102598083D01*
X136550944Y-102627893D01*
X136605040Y-102673873D01*
X136625690Y-102741800D01*
X136606338Y-102810108D01*
X136550944Y-102858107D01*
X136483988Y-102887917D01*
X136483981Y-102887921D01*
X136477955Y-102890604D01*
X136472614Y-102894484D01*
X136472613Y-102894485D01*
X136383266Y-102959400D01*
X136333164Y-102995801D01*
X136328743Y-103000711D01*
X136328742Y-103000712D01*
X136240751Y-103098437D01*
X136213409Y-103128803D01*
X136166543Y-103209978D01*
X136129962Y-103273338D01*
X136123923Y-103283797D01*
X136121881Y-103290082D01*
X136074465Y-103436015D01*
X136068618Y-103454009D01*
X136067928Y-103460572D01*
X136067928Y-103460573D01*
X136055113Y-103582495D01*
X136049910Y-103632000D01*
X123317768Y-103632000D01*
X123206577Y-103582495D01*
X123206576Y-103582495D01*
X123200546Y-103579810D01*
X123109243Y-103560403D01*
X123031943Y-103543972D01*
X123031939Y-103543972D01*
X123025486Y-103542600D01*
X122846514Y-103542600D01*
X122840061Y-103543972D01*
X122840057Y-103543972D01*
X122762757Y-103560403D01*
X122671454Y-103579810D01*
X122665424Y-103582495D01*
X122665423Y-103582495D01*
X122513985Y-103649919D01*
X122513983Y-103649920D01*
X122507955Y-103652604D01*
X122502614Y-103656484D01*
X122502613Y-103656485D01*
X122404724Y-103727606D01*
X122363164Y-103757801D01*
X122358743Y-103762711D01*
X122358742Y-103762712D01*
X122306061Y-103821221D01*
X122243409Y-103890803D01*
X122153923Y-104045797D01*
X122147205Y-104066474D01*
X122113270Y-104170916D01*
X122098618Y-104216009D01*
X122097928Y-104222572D01*
X122097928Y-104222573D01*
X122090594Y-104292354D01*
X122079910Y-104394000D01*
X121729923Y-104394000D01*
X121712070Y-104189932D01*
X121657406Y-103985926D01*
X121656317Y-103981860D01*
X121656316Y-103981858D01*
X121654894Y-103976550D01*
X121617576Y-103896521D01*
X121563857Y-103781320D01*
X121563855Y-103781317D01*
X121561534Y-103776339D01*
X121434826Y-103595380D01*
X121278620Y-103439174D01*
X121274112Y-103436017D01*
X121274109Y-103436015D01*
X121221839Y-103399415D01*
X121177511Y-103343957D01*
X121170202Y-103273338D01*
X121202233Y-103209978D01*
X121263435Y-103173993D01*
X121280502Y-103170939D01*
X121284037Y-103170555D01*
X121320460Y-103166599D01*
X121320464Y-103166598D01*
X121328316Y-103165745D01*
X121464705Y-103114615D01*
X121581261Y-103027261D01*
X121668615Y-102910705D01*
X121719745Y-102774316D01*
X121726500Y-102712134D01*
X121726500Y-101107866D01*
X121719745Y-101045684D01*
X121668615Y-100909295D01*
X121581261Y-100792739D01*
X121464705Y-100705385D01*
X121328316Y-100654255D01*
X121266134Y-100647500D01*
X120319224Y-100647500D01*
X120251103Y-100627498D01*
X120204610Y-100573842D01*
X120194506Y-100503568D01*
X120216011Y-100449229D01*
X120275004Y-100364980D01*
X120275008Y-100364974D01*
X120278157Y-100360476D01*
X120373994Y-100154951D01*
X120375418Y-100149640D01*
X120421924Y-99976074D01*
X120432687Y-99935908D01*
X120452451Y-99710000D01*
X120432687Y-99484092D01*
X120373994Y-99265049D01*
X120289796Y-99084485D01*
X120280483Y-99064512D01*
X120280480Y-99064507D01*
X120278157Y-99059525D01*
X120148086Y-98873765D01*
X119987735Y-98713414D01*
X119983227Y-98710257D01*
X119983224Y-98710255D01*
X119905880Y-98656098D01*
X119801975Y-98583343D01*
X119796993Y-98581020D01*
X119796988Y-98581017D01*
X119692624Y-98532352D01*
X119596451Y-98487506D01*
X119377408Y-98428813D01*
X119324979Y-98424226D01*
X119210816Y-98414238D01*
X119210807Y-98414238D01*
X119208091Y-98414000D01*
X117519909Y-98414000D01*
X117517193Y-98414238D01*
X117517184Y-98414238D01*
X117403021Y-98424226D01*
X117350592Y-98428813D01*
X117131549Y-98487506D01*
X117035376Y-98532352D01*
X116931012Y-98581017D01*
X116931007Y-98581020D01*
X116926025Y-98583343D01*
X116822120Y-98656098D01*
X116744776Y-98710255D01*
X116744773Y-98710257D01*
X116740265Y-98713414D01*
X116579914Y-98873765D01*
X116576757Y-98878274D01*
X116576755Y-98878276D01*
X116452996Y-99055020D01*
X116452992Y-99055026D01*
X116449843Y-99059524D01*
X116354006Y-99265049D01*
X116352585Y-99270353D01*
X116352583Y-99270358D01*
X116326207Y-99368795D01*
X116289255Y-99429417D01*
X116225394Y-99460439D01*
X116154900Y-99452010D01*
X116100153Y-99406807D01*
X116078500Y-99336183D01*
X116078500Y-98044500D01*
X116098502Y-97976379D01*
X116152158Y-97929886D01*
X116204500Y-97918500D01*
X146685500Y-97918500D01*
X146753621Y-97938502D01*
G37*
%TD.AperFunction*%
%TD*%
M02*
