%TF.GenerationSoftware,KiCad,Pcbnew,(6.0.7)*%
%TF.CreationDate,2023-02-04T21:02:38-08:00*%
%TF.ProjectId,ESP_Module,4553505f-4d6f-4647-956c-652e6b696361,rev?*%
%TF.SameCoordinates,Original*%
%TF.FileFunction,Legend,Top*%
%TF.FilePolarity,Positive*%
%FSLAX46Y46*%
G04 Gerber Fmt 4.6, Leading zero omitted, Abs format (unit mm)*
G04 Created by KiCad (PCBNEW (6.0.7)) date 2023-02-04 21:02:38*
%MOMM*%
%LPD*%
G01*
G04 APERTURE LIST*
%ADD10C,0.125000*%
%ADD11C,0.127000*%
%ADD12C,0.120000*%
G04 APERTURE END LIST*
D10*
%TO.C,R4*%
X142974190Y-103969333D02*
X142736095Y-104136000D01*
X142974190Y-104255047D02*
X142474190Y-104255047D01*
X142474190Y-104064571D01*
X142498000Y-104016952D01*
X142521809Y-103993142D01*
X142569428Y-103969333D01*
X142640857Y-103969333D01*
X142688476Y-103993142D01*
X142712285Y-104016952D01*
X142736095Y-104064571D01*
X142736095Y-104255047D01*
X142640857Y-103540761D02*
X142974190Y-103540761D01*
X142450380Y-103659809D02*
X142807523Y-103778857D01*
X142807523Y-103469333D01*
%TO.C,C2*%
X122352571Y-100159333D02*
X122376380Y-100183142D01*
X122400190Y-100254571D01*
X122400190Y-100302190D01*
X122376380Y-100373619D01*
X122328761Y-100421238D01*
X122281142Y-100445047D01*
X122185904Y-100468857D01*
X122114476Y-100468857D01*
X122019238Y-100445047D01*
X121971619Y-100421238D01*
X121924000Y-100373619D01*
X121900190Y-100302190D01*
X121900190Y-100254571D01*
X121924000Y-100183142D01*
X121947809Y-100159333D01*
X121947809Y-99968857D02*
X121924000Y-99945047D01*
X121900190Y-99897428D01*
X121900190Y-99778380D01*
X121924000Y-99730761D01*
X121947809Y-99706952D01*
X121995428Y-99683142D01*
X122043047Y-99683142D01*
X122114476Y-99706952D01*
X122400190Y-99992666D01*
X122400190Y-99683142D01*
%TO.C,C1*%
X122352571Y-102191333D02*
X122376380Y-102215142D01*
X122400190Y-102286571D01*
X122400190Y-102334190D01*
X122376380Y-102405619D01*
X122328761Y-102453238D01*
X122281142Y-102477047D01*
X122185904Y-102500857D01*
X122114476Y-102500857D01*
X122019238Y-102477047D01*
X121971619Y-102453238D01*
X121924000Y-102405619D01*
X121900190Y-102334190D01*
X121900190Y-102286571D01*
X121924000Y-102215142D01*
X121947809Y-102191333D01*
X122400190Y-101715142D02*
X122400190Y-102000857D01*
X122400190Y-101858000D02*
X121900190Y-101858000D01*
X121971619Y-101905619D01*
X122019238Y-101953238D01*
X122043047Y-102000857D01*
%TO.C,R5*%
X142974190Y-106763333D02*
X142736095Y-106930000D01*
X142974190Y-107049047D02*
X142474190Y-107049047D01*
X142474190Y-106858571D01*
X142498000Y-106810952D01*
X142521809Y-106787142D01*
X142569428Y-106763333D01*
X142640857Y-106763333D01*
X142688476Y-106787142D01*
X142712285Y-106810952D01*
X142736095Y-106858571D01*
X142736095Y-107049047D01*
X142474190Y-106310952D02*
X142474190Y-106549047D01*
X142712285Y-106572857D01*
X142688476Y-106549047D01*
X142664666Y-106501428D01*
X142664666Y-106382380D01*
X142688476Y-106334761D01*
X142712285Y-106310952D01*
X142759904Y-106287142D01*
X142878952Y-106287142D01*
X142926571Y-106310952D01*
X142950380Y-106334761D01*
X142974190Y-106382380D01*
X142974190Y-106501428D01*
X142950380Y-106549047D01*
X142926571Y-106572857D01*
%TO.C,R3*%
X140688190Y-102191333D02*
X140450095Y-102358000D01*
X140688190Y-102477047D02*
X140188190Y-102477047D01*
X140188190Y-102286571D01*
X140212000Y-102238952D01*
X140235809Y-102215142D01*
X140283428Y-102191333D01*
X140354857Y-102191333D01*
X140402476Y-102215142D01*
X140426285Y-102238952D01*
X140450095Y-102286571D01*
X140450095Y-102477047D01*
X140188190Y-102024666D02*
X140188190Y-101715142D01*
X140378666Y-101881809D01*
X140378666Y-101810380D01*
X140402476Y-101762761D01*
X140426285Y-101738952D01*
X140473904Y-101715142D01*
X140592952Y-101715142D01*
X140640571Y-101738952D01*
X140664380Y-101762761D01*
X140688190Y-101810380D01*
X140688190Y-101953238D01*
X140664380Y-102000857D01*
X140640571Y-102024666D01*
D11*
%TO.C,U2*%
X139272000Y-113135000D02*
X123872000Y-113135000D01*
D12*
%TO.C,R4*%
X143130000Y-104039641D02*
X143130000Y-103732359D01*
X143890000Y-104039641D02*
X143890000Y-103732359D01*
%TO.C,C2*%
X123296000Y-100183836D02*
X123296000Y-99968164D01*
X122576000Y-100183836D02*
X122576000Y-99968164D01*
%TO.C,C1*%
X122576000Y-102000164D02*
X122576000Y-102215836D01*
X123296000Y-102000164D02*
X123296000Y-102215836D01*
%TO.C,R5*%
X143890000Y-106526359D02*
X143890000Y-106833641D01*
X143130000Y-106526359D02*
X143130000Y-106833641D01*
%TO.C,R3*%
X140984500Y-100313258D02*
X140984500Y-99838742D01*
X139939500Y-100313258D02*
X139939500Y-99838742D01*
%TD*%
M02*
