%TF.GenerationSoftware,KiCad,Pcbnew,(6.0.7)*%
%TF.CreationDate,2023-02-04T21:02:38-08:00*%
%TF.ProjectId,ESP_Module,4553505f-4d6f-4647-956c-652e6b696361,rev?*%
%TF.SameCoordinates,Original*%
%TF.FileFunction,Copper,L4,Bot*%
%TF.FilePolarity,Positive*%
%FSLAX46Y46*%
G04 Gerber Fmt 4.6, Leading zero omitted, Abs format (unit mm)*
G04 Created by KiCad (PCBNEW (6.0.7)) date 2023-02-04 21:02:38*
%MOMM*%
%LPD*%
G01*
G04 APERTURE LIST*
G04 Aperture macros list*
%AMRoundRect*
0 Rectangle with rounded corners*
0 $1 Rounding radius*
0 $2 $3 $4 $5 $6 $7 $8 $9 X,Y pos of 4 corners*
0 Add a 4 corners polygon primitive as box body*
4,1,4,$2,$3,$4,$5,$6,$7,$8,$9,$2,$3,0*
0 Add four circle primitives for the rounded corners*
1,1,$1+$1,$2,$3*
1,1,$1+$1,$4,$5*
1,1,$1+$1,$6,$7*
1,1,$1+$1,$8,$9*
0 Add four rect primitives between the rounded corners*
20,1,$1+$1,$2,$3,$4,$5,0*
20,1,$1+$1,$4,$5,$6,$7,0*
20,1,$1+$1,$6,$7,$8,$9,0*
20,1,$1+$1,$8,$9,$2,$3,0*%
G04 Aperture macros list end*
%TA.AperFunction,ComponentPad*%
%ADD10R,1.508000X1.508000*%
%TD*%
%TA.AperFunction,ComponentPad*%
%ADD11C,1.508000*%
%TD*%
%TA.AperFunction,ComponentPad*%
%ADD12O,3.150000X1.575000*%
%TD*%
%TA.AperFunction,SMDPad,CuDef*%
%ADD13R,0.650000X1.050000*%
%TD*%
%TA.AperFunction,SMDPad,CuDef*%
%ADD14RoundRect,0.218750X-0.256250X0.218750X-0.256250X-0.218750X0.256250X-0.218750X0.256250X0.218750X0*%
%TD*%
%TA.AperFunction,SMDPad,CuDef*%
%ADD15RoundRect,0.200000X0.275000X-0.200000X0.275000X0.200000X-0.275000X0.200000X-0.275000X-0.200000X0*%
%TD*%
%TA.AperFunction,SMDPad,CuDef*%
%ADD16R,1.000000X0.380000*%
%TD*%
%TA.AperFunction,SMDPad,CuDef*%
%ADD17R,1.150000X0.700000*%
%TD*%
%TA.AperFunction,SMDPad,CuDef*%
%ADD18R,2.000000X1.500000*%
%TD*%
%TA.AperFunction,SMDPad,CuDef*%
%ADD19R,2.000000X3.800000*%
%TD*%
%TA.AperFunction,SMDPad,CuDef*%
%ADD20RoundRect,0.135000X-0.185000X0.135000X-0.185000X-0.135000X0.185000X-0.135000X0.185000X0.135000X0*%
%TD*%
%TA.AperFunction,SMDPad,CuDef*%
%ADD21RoundRect,0.140000X-0.170000X0.140000X-0.170000X-0.140000X0.170000X-0.140000X0.170000X0.140000X0*%
%TD*%
%TA.AperFunction,SMDPad,CuDef*%
%ADD22RoundRect,0.140000X0.170000X-0.140000X0.170000X0.140000X-0.170000X0.140000X-0.170000X-0.140000X0*%
%TD*%
%TA.AperFunction,ViaPad*%
%ADD23C,0.685800*%
%TD*%
%TA.AperFunction,Conductor*%
%ADD24C,0.254000*%
%TD*%
%TA.AperFunction,Conductor*%
%ADD25C,0.152400*%
%TD*%
G04 APERTURE END LIST*
D10*
%TO.P,J1,1,VCC*%
%TO.N,+5V*%
X120464000Y-101910000D03*
D11*
%TO.P,J1,2,D-*%
%TO.N,USB_D-*%
X120464000Y-104410000D03*
%TO.P,J1,3,D+*%
%TO.N,USB_D+*%
X120464000Y-106410000D03*
%TO.P,J1,4,GND*%
%TO.N,GND*%
X120464000Y-108910000D03*
D12*
%TO.P,J1,S1,SHIELD*%
X118364000Y-99710000D03*
%TO.P,J1,S2,SHIELD*%
X118364000Y-111110000D03*
%TD*%
D13*
%TO.P,SW2,1,A*%
%TO.N,MCU_BOOT*%
X140657000Y-111803000D03*
X140657000Y-107653000D03*
%TO.P,SW2,2,B*%
%TO.N,GND*%
X142807000Y-107653000D03*
X142807000Y-111803000D03*
%TD*%
D14*
%TO.P,D1,1,K*%
%TO.N,GND*%
X123444000Y-109702500D03*
%TO.P,D1,2,A*%
%TO.N,Net-(D1-Pad2)*%
X123444000Y-111277500D03*
%TD*%
D15*
%TO.P,R1,1*%
%TO.N,/MCU_D-*%
X131318000Y-110299000D03*
%TO.P,R1,2*%
%TO.N,USB_D-*%
X131318000Y-108649000D03*
%TD*%
D16*
%TO.P,P1,A1,GND*%
%TO.N,GND*%
X146264000Y-108160000D03*
%TO.P,P1,A2,TX1+*%
%TO.N,unconnected-(P1-PadA2)*%
X146264000Y-107660000D03*
%TO.P,P1,A3,TX1-*%
%TO.N,unconnected-(P1-PadA3)*%
X146264000Y-107160000D03*
%TO.P,P1,A4,VBUS*%
%TO.N,+5V*%
X146264000Y-106660000D03*
%TO.P,P1,A5,CC*%
%TO.N,Net-(P1-PadA5)*%
X146264000Y-106160000D03*
%TO.P,P1,A6,D+*%
%TO.N,USB_D+*%
X146264000Y-105660000D03*
%TO.P,P1,A7,D-*%
%TO.N,USB_D-*%
X146264000Y-105160000D03*
%TO.P,P1,A8,SBU1*%
%TO.N,unconnected-(P1-PadA8)*%
X146264000Y-104660000D03*
%TO.P,P1,A9,VBUS*%
%TO.N,+5V*%
X146264000Y-104160000D03*
%TO.P,P1,A10,RX2-*%
%TO.N,unconnected-(P1-PadA10)*%
X146264000Y-103660000D03*
%TO.P,P1,A11,RX2+*%
%TO.N,unconnected-(P1-PadA11)*%
X146264000Y-103160000D03*
%TO.P,P1,A12,GND*%
%TO.N,GND*%
X146264000Y-102660000D03*
D17*
%TO.P,P1,S1,SHIELD*%
X145424000Y-108830000D03*
%TD*%
D18*
%TO.P,U1,1,GND*%
%TO.N,GND*%
X126390000Y-103646000D03*
D19*
%TO.P,U1,2,VO*%
%TO.N,+3V3*%
X132690000Y-101346000D03*
D18*
X126390000Y-101346000D03*
%TO.P,U1,3,VI*%
%TO.N,+5V*%
X126390000Y-99046000D03*
%TD*%
D20*
%TO.P,R6,1*%
%TO.N,+3V3*%
X124968000Y-109980000D03*
%TO.P,R6,2*%
%TO.N,Net-(D1-Pad2)*%
X124968000Y-111000000D03*
%TD*%
D21*
%TO.P,C3,2*%
%TO.N,GND*%
X124460000Y-102842000D03*
%TO.P,C3,1*%
%TO.N,+5V*%
X124460000Y-101882000D03*
%TD*%
D22*
%TO.P,C4,1*%
%TO.N,+3V3*%
X134620000Y-101572000D03*
%TO.P,C4,2*%
%TO.N,GND*%
X134620000Y-100612000D03*
%TD*%
D13*
%TO.P,SW1,1,A*%
%TO.N,MCU_EN*%
X140657000Y-104183000D03*
X140657000Y-100033000D03*
%TO.P,SW1,2,B*%
%TO.N,GND*%
X142807000Y-100033000D03*
X142807000Y-104183000D03*
%TD*%
D15*
%TO.P,R2,1*%
%TO.N,/MCU_D+*%
X132842000Y-110299000D03*
%TO.P,R2,2*%
%TO.N,USB_D+*%
X132842000Y-108649000D03*
%TD*%
D23*
%TO.N,GND*%
X143764000Y-102108000D03*
X143764000Y-108204000D03*
%TO.N,Net-(P1-PadA5)*%
X142494000Y-106172000D03*
%TO.N,+3V3*%
X121920000Y-100584000D03*
X134620000Y-102362000D03*
X128270000Y-102362000D03*
X128270000Y-101346000D03*
X131064000Y-101346000D03*
X131064000Y-102362000D03*
X121920000Y-101600000D03*
X125730000Y-109982000D03*
X141478000Y-100838000D03*
X131064000Y-100330000D03*
X128270000Y-100330000D03*
%TO.N,GND*%
X122428000Y-109728000D03*
X126238000Y-106426000D03*
X136906000Y-103632000D03*
X136906000Y-100330000D03*
X134620000Y-108966000D03*
X136906000Y-101854000D03*
X129540000Y-109982000D03*
X144272000Y-110490000D03*
X136906000Y-108966000D03*
X144272000Y-100330000D03*
X136906000Y-110490000D03*
X136906000Y-107442000D03*
X122936000Y-104394000D03*
%TO.N,+5V*%
X145036051Y-104063600D03*
X145034000Y-106680000D03*
%TO.N,/MCU_D-*%
X131318000Y-111506000D03*
%TO.N,/MCU_D+*%
X132588000Y-111506000D03*
%TO.N,MCU_EN*%
X141478000Y-99822000D03*
%TO.N,MCU_BOOT*%
X127508000Y-110236000D03*
%TD*%
D24*
%TO.N,Net-(P1-PadA5)*%
X142582900Y-106083100D02*
X142494000Y-106172000D01*
X145281245Y-106083100D02*
X142582900Y-106083100D01*
X145358145Y-106160000D02*
X145281245Y-106083100D01*
X146264000Y-106160000D02*
X145358145Y-106160000D01*
%TO.N,+3V3*%
X134620000Y-101572000D02*
X134620000Y-102362000D01*
X125728000Y-109980000D02*
X125730000Y-109982000D01*
X124968000Y-109980000D02*
X125728000Y-109980000D01*
%TO.N,GND*%
X123444000Y-109702500D02*
X122453500Y-109702500D01*
X146094000Y-108160000D02*
X145424000Y-108830000D01*
X142807000Y-100033000D02*
X142807000Y-104183000D01*
X122453500Y-109702500D02*
X122428000Y-109728000D01*
X146264000Y-108160000D02*
X146094000Y-108160000D01*
X146264000Y-102660000D02*
X144824000Y-102660000D01*
X142807000Y-111803000D02*
X142807000Y-107653000D01*
%TO.N,+5V*%
X145132451Y-104160000D02*
X145036051Y-104063600D01*
X146962000Y-106660000D02*
X146264000Y-106660000D01*
X146962000Y-104160000D02*
X147018000Y-104216000D01*
X120464000Y-101910000D02*
X120750900Y-102196900D01*
X127392000Y-98044000D02*
X143764000Y-98044000D01*
X146264000Y-106660000D02*
X145054000Y-106660000D01*
X147018000Y-104696000D02*
X147018000Y-106604000D01*
X146264000Y-104160000D02*
X146962000Y-104160000D01*
X147018000Y-101298000D02*
X147018000Y-104696000D01*
X147018000Y-104216000D02*
X147018000Y-104696000D01*
X143764000Y-98044000D02*
X147018000Y-101298000D01*
X120750900Y-102196900D02*
X124145100Y-102196900D01*
X124145100Y-102196900D02*
X124460000Y-101882000D01*
X126390000Y-99046000D02*
X127392000Y-98044000D01*
X124460000Y-100976000D02*
X126390000Y-99046000D01*
X124460000Y-101882000D02*
X124460000Y-100976000D01*
X146264000Y-104160000D02*
X145132451Y-104160000D01*
X147018000Y-106604000D02*
X146962000Y-106660000D01*
X145054000Y-106660000D02*
X145034000Y-106680000D01*
D25*
%TO.N,USB_D+*%
X132842000Y-107699737D02*
X134928537Y-105613200D01*
X131760011Y-109252200D02*
X131956811Y-109055400D01*
X131956811Y-109055400D02*
X132435600Y-109055400D01*
X132435600Y-109055400D02*
X132842000Y-108649000D01*
X134928537Y-105613200D02*
X145467199Y-105613200D01*
X130875989Y-109252200D02*
X131760011Y-109252200D01*
X130679189Y-109055400D02*
X130875989Y-109252200D01*
X120464000Y-106410000D02*
X121889263Y-106410000D01*
X145513999Y-105660000D02*
X146264000Y-105660000D01*
X132842000Y-108649000D02*
X132842000Y-107699737D01*
X145467199Y-105613200D02*
X145513999Y-105660000D01*
X124534663Y-109055400D02*
X130679189Y-109055400D01*
X121889263Y-106410000D02*
X124534663Y-109055400D01*
%TO.N,USB_D-*%
X145467199Y-105206800D02*
X145513999Y-105160000D01*
X124703000Y-108649000D02*
X131318000Y-108649000D01*
X120464000Y-104410000D02*
X124703000Y-108649000D01*
X145513999Y-105160000D02*
X146264000Y-105160000D01*
X134760200Y-105206800D02*
X145467199Y-105206800D01*
X131318000Y-108649000D02*
X134760200Y-105206800D01*
D24*
%TO.N,/MCU_D-*%
X131318000Y-111506000D02*
X131318000Y-110299000D01*
%TO.N,/MCU_D+*%
X132588000Y-111506000D02*
X132588000Y-110553000D01*
X132588000Y-110553000D02*
X132842000Y-110299000D01*
%TO.N,MCU_EN*%
X140868000Y-99822000D02*
X140657000Y-100033000D01*
X140657000Y-104183000D02*
X140657000Y-100033000D01*
X141478000Y-99822000D02*
X140868000Y-99822000D01*
%TO.N,MCU_BOOT*%
X139403000Y-111803000D02*
X140657000Y-111803000D01*
X140657000Y-107653000D02*
X140657000Y-111803000D01*
X138176000Y-113030000D02*
X139403000Y-111803000D01*
X127508000Y-110236000D02*
X130302000Y-113030000D01*
X130302000Y-113030000D02*
X138176000Y-113030000D01*
%TO.N,Net-(D1-Pad2)*%
X124690500Y-111277500D02*
X124968000Y-111000000D01*
X123444000Y-111277500D02*
X124690500Y-111277500D01*
%TD*%
%TA.AperFunction,Conductor*%
%TO.N,GND*%
G36*
X141595302Y-106217902D02*
G01*
X141641795Y-106271558D01*
X141652491Y-106310728D01*
X141656618Y-106349991D01*
X141711923Y-106520203D01*
X141715226Y-106525925D01*
X141715227Y-106525926D01*
X141715598Y-106526568D01*
X141801409Y-106675197D01*
X141805827Y-106680104D01*
X141805828Y-106680105D01*
X141883537Y-106766410D01*
X141921164Y-106808199D01*
X141952162Y-106830721D01*
X141995516Y-106886941D01*
X142001592Y-106957677D01*
X141996083Y-106976885D01*
X141983522Y-107010391D01*
X141979895Y-107025649D01*
X141974369Y-107076514D01*
X141974000Y-107083328D01*
X141974000Y-107380885D01*
X141978475Y-107396124D01*
X141979865Y-107397329D01*
X141987548Y-107399000D01*
X143621884Y-107399000D01*
X143637123Y-107394525D01*
X143638328Y-107393135D01*
X143639999Y-107385452D01*
X143639999Y-107083331D01*
X143639629Y-107076510D01*
X143634105Y-107025648D01*
X143630478Y-107010394D01*
X143584906Y-106888829D01*
X143579723Y-106818022D01*
X143613644Y-106755653D01*
X143675899Y-106721524D01*
X143702888Y-106718600D01*
X144068516Y-106718600D01*
X144136637Y-106738602D01*
X144183130Y-106792258D01*
X144193826Y-106831428D01*
X144194722Y-106839948D01*
X144196618Y-106857991D01*
X144251923Y-107028203D01*
X144255226Y-107033925D01*
X144255227Y-107033926D01*
X144283749Y-107083328D01*
X144341409Y-107183197D01*
X144461164Y-107316199D01*
X144466506Y-107320080D01*
X144466508Y-107320082D01*
X144577369Y-107400627D01*
X144605955Y-107421396D01*
X144611983Y-107424080D01*
X144611985Y-107424081D01*
X144763423Y-107491505D01*
X144769454Y-107494190D01*
X144856984Y-107512795D01*
X144938057Y-107530028D01*
X144938061Y-107530028D01*
X144944514Y-107531400D01*
X145123486Y-107531400D01*
X145123486Y-107532767D01*
X145186170Y-107544231D01*
X145238016Y-107592734D01*
X145255500Y-107656768D01*
X145255500Y-107846001D01*
X145235498Y-107914122D01*
X145181842Y-107960615D01*
X145129500Y-107972001D01*
X144804331Y-107972001D01*
X144797510Y-107972371D01*
X144746648Y-107977895D01*
X144731396Y-107981521D01*
X144610946Y-108026676D01*
X144595351Y-108035214D01*
X144493276Y-108111715D01*
X144480715Y-108124276D01*
X144404214Y-108226351D01*
X144395676Y-108241946D01*
X144350522Y-108362394D01*
X144346895Y-108377649D01*
X144341369Y-108428514D01*
X144341000Y-108435328D01*
X144341000Y-108557885D01*
X144345475Y-108573124D01*
X144346865Y-108574329D01*
X144354548Y-108576000D01*
X145552000Y-108576000D01*
X145620121Y-108596002D01*
X145666614Y-108649658D01*
X145678000Y-108702000D01*
X145678000Y-109669884D01*
X145682475Y-109685123D01*
X145683865Y-109686328D01*
X145691548Y-109687999D01*
X146043669Y-109687999D01*
X146050490Y-109687629D01*
X146101352Y-109682105D01*
X146116604Y-109678479D01*
X146237054Y-109633324D01*
X146252649Y-109624786D01*
X146354724Y-109548285D01*
X146367285Y-109535724D01*
X146443786Y-109433649D01*
X146452324Y-109418054D01*
X146497478Y-109297606D01*
X146501105Y-109282351D01*
X146506631Y-109231486D01*
X146507000Y-109224672D01*
X146507000Y-108983999D01*
X146527002Y-108915878D01*
X146580658Y-108869385D01*
X146633000Y-108857999D01*
X146685500Y-108857999D01*
X146753621Y-108878001D01*
X146800114Y-108931657D01*
X146811500Y-108983999D01*
X146811500Y-112775500D01*
X146791498Y-112843621D01*
X146737842Y-112890114D01*
X146685500Y-112901500D01*
X143586699Y-112901500D01*
X143518578Y-112881498D01*
X143472085Y-112827842D01*
X143461981Y-112757568D01*
X143491475Y-112692988D01*
X143497604Y-112686405D01*
X143500285Y-112683724D01*
X143576786Y-112581649D01*
X143585324Y-112566054D01*
X143630478Y-112445606D01*
X143634105Y-112430351D01*
X143639631Y-112379486D01*
X143640000Y-112372672D01*
X143640000Y-112075115D01*
X143635525Y-112059876D01*
X143634135Y-112058671D01*
X143626452Y-112057000D01*
X141992116Y-112057000D01*
X141976877Y-112061475D01*
X141975672Y-112062865D01*
X141974001Y-112070548D01*
X141974001Y-112372669D01*
X141974371Y-112379490D01*
X141979895Y-112430352D01*
X141983521Y-112445604D01*
X142028676Y-112566054D01*
X142037214Y-112581649D01*
X142113715Y-112683724D01*
X142116396Y-112686405D01*
X142118200Y-112689708D01*
X142119096Y-112690904D01*
X142118923Y-112691033D01*
X142150422Y-112748717D01*
X142145357Y-112819532D01*
X142102810Y-112876368D01*
X142036290Y-112901179D01*
X142027301Y-112901500D01*
X141437413Y-112901500D01*
X141369292Y-112881498D01*
X141322799Y-112827842D01*
X141312695Y-112757568D01*
X141341789Y-112693863D01*
X141345261Y-112691261D01*
X141432615Y-112574705D01*
X141483745Y-112438316D01*
X141490500Y-112376134D01*
X141490500Y-111530885D01*
X141974000Y-111530885D01*
X141978475Y-111546124D01*
X141979865Y-111547329D01*
X141987548Y-111549000D01*
X142534885Y-111549000D01*
X142550124Y-111544525D01*
X142551329Y-111543135D01*
X142553000Y-111535452D01*
X142553000Y-111530885D01*
X143061000Y-111530885D01*
X143065475Y-111546124D01*
X143066865Y-111547329D01*
X143074548Y-111549000D01*
X143621884Y-111549000D01*
X143637123Y-111544525D01*
X143638328Y-111543135D01*
X143639999Y-111535452D01*
X143639999Y-111233331D01*
X143639629Y-111226510D01*
X143634105Y-111175648D01*
X143630479Y-111160396D01*
X143585324Y-111039946D01*
X143576786Y-111024351D01*
X143500285Y-110922276D01*
X143487724Y-110909715D01*
X143385649Y-110833214D01*
X143370054Y-110824676D01*
X143249606Y-110779522D01*
X143234351Y-110775895D01*
X143183486Y-110770369D01*
X143176672Y-110770000D01*
X143079115Y-110770000D01*
X143063876Y-110774475D01*
X143062671Y-110775865D01*
X143061000Y-110783548D01*
X143061000Y-111530885D01*
X142553000Y-111530885D01*
X142553000Y-110788116D01*
X142548525Y-110772877D01*
X142547135Y-110771672D01*
X142539452Y-110770001D01*
X142437331Y-110770001D01*
X142430510Y-110770371D01*
X142379648Y-110775895D01*
X142364396Y-110779521D01*
X142243946Y-110824676D01*
X142228351Y-110833214D01*
X142126276Y-110909715D01*
X142113715Y-110922276D01*
X142037214Y-111024351D01*
X142028676Y-111039946D01*
X141983522Y-111160394D01*
X141979895Y-111175649D01*
X141974369Y-111226514D01*
X141974000Y-111233328D01*
X141974000Y-111530885D01*
X141490500Y-111530885D01*
X141490500Y-111229866D01*
X141483745Y-111167684D01*
X141432615Y-111031295D01*
X141345261Y-110914739D01*
X141338081Y-110909358D01*
X141331731Y-110903008D01*
X141333870Y-110900869D01*
X141300423Y-110856145D01*
X141292500Y-110812170D01*
X141292500Y-109224669D01*
X144341001Y-109224669D01*
X144341371Y-109231490D01*
X144346895Y-109282352D01*
X144350521Y-109297604D01*
X144395676Y-109418054D01*
X144404214Y-109433649D01*
X144480715Y-109535724D01*
X144493276Y-109548285D01*
X144595351Y-109624786D01*
X144610946Y-109633324D01*
X144731394Y-109678478D01*
X144746649Y-109682105D01*
X144797514Y-109687631D01*
X144804328Y-109688000D01*
X145151885Y-109688000D01*
X145167124Y-109683525D01*
X145168329Y-109682135D01*
X145170000Y-109674452D01*
X145170000Y-109102115D01*
X145165525Y-109086876D01*
X145164135Y-109085671D01*
X145156452Y-109084000D01*
X144359116Y-109084000D01*
X144343877Y-109088475D01*
X144342672Y-109089865D01*
X144341001Y-109097548D01*
X144341001Y-109224669D01*
X141292500Y-109224669D01*
X141292500Y-108643830D01*
X141312502Y-108575709D01*
X141332721Y-108553982D01*
X141331731Y-108552992D01*
X141338081Y-108546642D01*
X141345261Y-108541261D01*
X141432615Y-108424705D01*
X141483745Y-108288316D01*
X141490500Y-108226134D01*
X141490500Y-108222669D01*
X141974001Y-108222669D01*
X141974371Y-108229490D01*
X141979895Y-108280352D01*
X141983521Y-108295604D01*
X142028676Y-108416054D01*
X142037214Y-108431649D01*
X142113715Y-108533724D01*
X142126276Y-108546285D01*
X142228351Y-108622786D01*
X142243946Y-108631324D01*
X142364394Y-108676478D01*
X142379649Y-108680105D01*
X142430514Y-108685631D01*
X142437328Y-108686000D01*
X142534885Y-108686000D01*
X142550124Y-108681525D01*
X142551329Y-108680135D01*
X142553000Y-108672452D01*
X142553000Y-108667884D01*
X143061000Y-108667884D01*
X143065475Y-108683123D01*
X143066865Y-108684328D01*
X143074548Y-108685999D01*
X143176669Y-108685999D01*
X143183490Y-108685629D01*
X143234352Y-108680105D01*
X143249604Y-108676479D01*
X143370054Y-108631324D01*
X143385649Y-108622786D01*
X143487724Y-108546285D01*
X143500285Y-108533724D01*
X143576786Y-108431649D01*
X143585324Y-108416054D01*
X143630478Y-108295606D01*
X143634105Y-108280351D01*
X143639631Y-108229486D01*
X143640000Y-108222672D01*
X143640000Y-107925115D01*
X143635525Y-107909876D01*
X143634135Y-107908671D01*
X143626452Y-107907000D01*
X143079115Y-107907000D01*
X143063876Y-107911475D01*
X143062671Y-107912865D01*
X143061000Y-107920548D01*
X143061000Y-108667884D01*
X142553000Y-108667884D01*
X142553000Y-107925115D01*
X142548525Y-107909876D01*
X142547135Y-107908671D01*
X142539452Y-107907000D01*
X141992116Y-107907000D01*
X141976877Y-107911475D01*
X141975672Y-107912865D01*
X141974001Y-107920548D01*
X141974001Y-108222669D01*
X141490500Y-108222669D01*
X141490500Y-107079866D01*
X141483745Y-107017684D01*
X141432615Y-106881295D01*
X141345261Y-106764739D01*
X141228705Y-106677385D01*
X141092316Y-106626255D01*
X141030134Y-106619500D01*
X140283866Y-106619500D01*
X140221684Y-106626255D01*
X140085295Y-106677385D01*
X139968739Y-106764739D01*
X139881385Y-106881295D01*
X139830255Y-107017684D01*
X139823500Y-107079866D01*
X139823500Y-108226134D01*
X139830255Y-108288316D01*
X139881385Y-108424705D01*
X139968739Y-108541261D01*
X139975919Y-108546642D01*
X139982269Y-108552992D01*
X139980130Y-108555131D01*
X140013577Y-108599855D01*
X140021500Y-108643830D01*
X140021500Y-110812170D01*
X140001498Y-110880291D01*
X139981279Y-110902018D01*
X139982269Y-110903008D01*
X139975919Y-110909358D01*
X139968739Y-110914739D01*
X139963358Y-110921919D01*
X139886767Y-111024113D01*
X139886765Y-111024116D01*
X139881385Y-111031295D01*
X139870385Y-111060639D01*
X139860979Y-111085729D01*
X139818338Y-111142494D01*
X139751777Y-111167194D01*
X139742997Y-111167500D01*
X139482020Y-111167500D01*
X139470786Y-111166970D01*
X139463281Y-111165292D01*
X139395571Y-111167420D01*
X139394988Y-111167438D01*
X139391031Y-111167500D01*
X139363017Y-111167500D01*
X139359092Y-111167996D01*
X139359091Y-111167996D01*
X139358996Y-111168008D01*
X139347151Y-111168941D01*
X139317330Y-111169878D01*
X139310718Y-111170086D01*
X139310717Y-111170086D01*
X139302795Y-111170335D01*
X139284880Y-111175540D01*
X139283252Y-111176013D01*
X139263888Y-111180023D01*
X139251560Y-111181580D01*
X139251558Y-111181580D01*
X139243701Y-111182573D01*
X139236337Y-111185489D01*
X139236332Y-111185490D01*
X139202444Y-111198907D01*
X139191215Y-111202752D01*
X139174535Y-111207598D01*
X139148607Y-111215131D01*
X139141780Y-111219169D01*
X139141777Y-111219170D01*
X139131094Y-111225488D01*
X139113336Y-111234188D01*
X139101785Y-111238761D01*
X139101779Y-111238765D01*
X139094412Y-111241681D01*
X139088001Y-111246339D01*
X139087999Y-111246340D01*
X139058512Y-111267764D01*
X139048590Y-111274281D01*
X139017232Y-111292826D01*
X139017228Y-111292829D01*
X139010402Y-111296866D01*
X138996018Y-111311250D01*
X138980984Y-111324091D01*
X138973072Y-111329839D01*
X138964513Y-111336058D01*
X138937696Y-111368475D01*
X138936223Y-111370255D01*
X138928233Y-111379035D01*
X137949672Y-112357595D01*
X137887360Y-112391621D01*
X137860577Y-112394500D01*
X133201362Y-112394500D01*
X133133241Y-112374498D01*
X133086748Y-112320842D01*
X133076644Y-112250568D01*
X133106138Y-112185988D01*
X133127298Y-112166566D01*
X133160836Y-112142199D01*
X133196755Y-112102307D01*
X133276172Y-112014105D01*
X133276173Y-112014104D01*
X133280591Y-112009197D01*
X133370077Y-111854203D01*
X133409627Y-111732481D01*
X133423342Y-111690270D01*
X133423342Y-111690269D01*
X133425382Y-111683991D01*
X133444090Y-111506000D01*
X133425382Y-111328009D01*
X133405356Y-111266375D01*
X133403328Y-111195409D01*
X133439991Y-111134611D01*
X133459918Y-111119664D01*
X133461545Y-111118679D01*
X133557381Y-111060639D01*
X133678639Y-110939381D01*
X133767472Y-110792699D01*
X133771602Y-110779522D01*
X133790517Y-110719164D01*
X133818753Y-110629062D01*
X133825500Y-110555635D01*
X133825499Y-110042366D01*
X133825234Y-110039474D01*
X133819364Y-109975592D01*
X133818753Y-109968938D01*
X133796717Y-109898621D01*
X133769744Y-109812550D01*
X133769743Y-109812548D01*
X133767472Y-109805301D01*
X133678639Y-109658619D01*
X133583115Y-109563095D01*
X133549089Y-109500783D01*
X133554154Y-109429968D01*
X133583115Y-109384905D01*
X133678639Y-109289381D01*
X133767472Y-109142699D01*
X133818753Y-108979062D01*
X133825500Y-108905635D01*
X133825499Y-108392366D01*
X133824226Y-108378502D01*
X133819364Y-108325592D01*
X133818753Y-108318938D01*
X133791663Y-108232493D01*
X133769744Y-108162550D01*
X133769743Y-108162548D01*
X133767472Y-108155301D01*
X133678639Y-108008619D01*
X133608419Y-107938399D01*
X133574393Y-107876087D01*
X133579458Y-107805272D01*
X133608419Y-107760209D01*
X135133822Y-106234805D01*
X135196134Y-106200780D01*
X135222917Y-106197900D01*
X141527181Y-106197900D01*
X141595302Y-106217902D01*
G37*
%TD.AperFunction*%
%TA.AperFunction,Conductor*%
G36*
X124874740Y-97938502D02*
G01*
X124921233Y-97992158D01*
X124931337Y-98062432D01*
X124924601Y-98088729D01*
X124891029Y-98178282D01*
X124891027Y-98178288D01*
X124888255Y-98185684D01*
X124881500Y-98247866D01*
X124881500Y-99603577D01*
X124861498Y-99671698D01*
X124844595Y-99692672D01*
X124066517Y-100470750D01*
X124058191Y-100478326D01*
X124051697Y-100482447D01*
X124046274Y-100488222D01*
X124004915Y-100532265D01*
X124002160Y-100535107D01*
X123982361Y-100554906D01*
X123979937Y-100558031D01*
X123979929Y-100558040D01*
X123979863Y-100558126D01*
X123972155Y-100567151D01*
X123941783Y-100599494D01*
X123937965Y-100606438D01*
X123937964Y-100606440D01*
X123931978Y-100617329D01*
X123921127Y-100633847D01*
X123908650Y-100649933D01*
X123891024Y-100690666D01*
X123885807Y-100701314D01*
X123864431Y-100740197D01*
X123862460Y-100747872D01*
X123862458Y-100747878D01*
X123859369Y-100759911D01*
X123852966Y-100778613D01*
X123844883Y-100797292D01*
X123843644Y-100805117D01*
X123837940Y-100841127D01*
X123835535Y-100852740D01*
X123824500Y-100895718D01*
X123824500Y-100916065D01*
X123822949Y-100935776D01*
X123821005Y-100948050D01*
X123819765Y-100955879D01*
X123820511Y-100963771D01*
X123823941Y-101000056D01*
X123824500Y-101011914D01*
X123824500Y-101238193D01*
X123804498Y-101306314D01*
X123787595Y-101327288D01*
X123773512Y-101341371D01*
X123690106Y-101482403D01*
X123688875Y-101486640D01*
X123644465Y-101540014D01*
X123574237Y-101561400D01*
X122885484Y-101561400D01*
X122817363Y-101541398D01*
X122770870Y-101487742D01*
X122760174Y-101448572D01*
X122758072Y-101428572D01*
X122758072Y-101428570D01*
X122757382Y-101422009D01*
X122702077Y-101251797D01*
X122646191Y-101155000D01*
X122629453Y-101086005D01*
X122646191Y-101029000D01*
X122662343Y-101001025D01*
X122702077Y-100932203D01*
X122743370Y-100805117D01*
X122755342Y-100768270D01*
X122755342Y-100768269D01*
X122757382Y-100761991D01*
X122774462Y-100599494D01*
X122775400Y-100590565D01*
X122776090Y-100584000D01*
X122773864Y-100562819D01*
X122758072Y-100412573D01*
X122758072Y-100412572D01*
X122757382Y-100406009D01*
X122738457Y-100347762D01*
X122704119Y-100242082D01*
X122702077Y-100235797D01*
X122612591Y-100080803D01*
X122552227Y-100013761D01*
X122497258Y-99952712D01*
X122497257Y-99952711D01*
X122492836Y-99947801D01*
X122348045Y-99842604D01*
X122342017Y-99839920D01*
X122342015Y-99839919D01*
X122190577Y-99772495D01*
X122190576Y-99772495D01*
X122184546Y-99769810D01*
X122097016Y-99751205D01*
X122015943Y-99733972D01*
X122015939Y-99733972D01*
X122009486Y-99732600D01*
X121830514Y-99732600D01*
X121824061Y-99733972D01*
X121824057Y-99733972D01*
X121742984Y-99751205D01*
X121655454Y-99769810D01*
X121649424Y-99772495D01*
X121649423Y-99772495D01*
X121497985Y-99839919D01*
X121497983Y-99839920D01*
X121491955Y-99842604D01*
X121347164Y-99947801D01*
X121342743Y-99952711D01*
X121342742Y-99952712D01*
X121287774Y-100013761D01*
X121227409Y-100080803D01*
X121137923Y-100235797D01*
X121135881Y-100242082D01*
X121101544Y-100347762D01*
X121082618Y-100406009D01*
X121081928Y-100412572D01*
X121081928Y-100412573D01*
X121079898Y-100431890D01*
X121074736Y-100481005D01*
X121069095Y-100534671D01*
X121042082Y-100600327D01*
X120983860Y-100640957D01*
X120943785Y-100647500D01*
X120318614Y-100647500D01*
X120250493Y-100627498D01*
X120204000Y-100573842D01*
X120193896Y-100503568D01*
X120215401Y-100449230D01*
X120274562Y-100364739D01*
X120280048Y-100355238D01*
X120371199Y-100159762D01*
X120374945Y-100149470D01*
X120419953Y-99981497D01*
X120419617Y-99967401D01*
X120411675Y-99964000D01*
X118636115Y-99964000D01*
X118620876Y-99968475D01*
X118619671Y-99969865D01*
X118618000Y-99977548D01*
X118618000Y-100987385D01*
X118622475Y-101002624D01*
X118623865Y-101003829D01*
X118631548Y-101005500D01*
X119075500Y-101005500D01*
X119143621Y-101025502D01*
X119190114Y-101079158D01*
X119201500Y-101131500D01*
X119201500Y-102120162D01*
X119181498Y-102188283D01*
X119127842Y-102234776D01*
X119057568Y-102244880D01*
X119007153Y-102226015D01*
X118946776Y-102187029D01*
X118893046Y-102152336D01*
X118893043Y-102152335D01*
X118888009Y-102149084D01*
X118687396Y-102068234D01*
X118681515Y-102067086D01*
X118681510Y-102067084D01*
X118479559Y-102027646D01*
X118479556Y-102027646D01*
X118475113Y-102026778D01*
X118469429Y-102026500D01*
X118309959Y-102026500D01*
X118148685Y-102041887D01*
X117941140Y-102102774D01*
X117935813Y-102105518D01*
X117935812Y-102105518D01*
X117754183Y-102199063D01*
X117754180Y-102199065D01*
X117748852Y-102201809D01*
X117744137Y-102205513D01*
X117583478Y-102331711D01*
X117583473Y-102331715D01*
X117578761Y-102335417D01*
X117574830Y-102339947D01*
X117574829Y-102339948D01*
X117440933Y-102494248D01*
X117440929Y-102494253D01*
X117437002Y-102498779D01*
X117328693Y-102685999D01*
X117297991Y-102774412D01*
X117268380Y-102859684D01*
X117257740Y-102890323D01*
X117256879Y-102896258D01*
X117256879Y-102896260D01*
X117228736Y-103090359D01*
X117226703Y-103104377D01*
X117236704Y-103320438D01*
X117238108Y-103326263D01*
X117238108Y-103326264D01*
X117280491Y-103502124D01*
X117287380Y-103530710D01*
X117289862Y-103536168D01*
X117289863Y-103536172D01*
X117330393Y-103625312D01*
X117376903Y-103727606D01*
X117502043Y-103904021D01*
X117658285Y-104053590D01*
X117663320Y-104056841D01*
X117834954Y-104167664D01*
X117834957Y-104167665D01*
X117839991Y-104170916D01*
X118040604Y-104251766D01*
X118046485Y-104252914D01*
X118046490Y-104252916D01*
X118248441Y-104292354D01*
X118248444Y-104292354D01*
X118252887Y-104293222D01*
X118258571Y-104293500D01*
X118418041Y-104293500D01*
X118579315Y-104278113D01*
X118786860Y-104217226D01*
X118814693Y-104202891D01*
X118973817Y-104120937D01*
X118973820Y-104120935D01*
X118979148Y-104118191D01*
X119011441Y-104092824D01*
X119077368Y-104066474D01*
X119147074Y-104079949D01*
X119198429Y-104128971D01*
X119214796Y-104202891D01*
X119206875Y-104293432D01*
X119196677Y-104410000D01*
X119215930Y-104630068D01*
X119273106Y-104843450D01*
X119275428Y-104848431D01*
X119275429Y-104848432D01*
X119281762Y-104862012D01*
X119366466Y-105043661D01*
X119493174Y-105224620D01*
X119589459Y-105320905D01*
X119623485Y-105383217D01*
X119618420Y-105454032D01*
X119589459Y-105499095D01*
X119493174Y-105595380D01*
X119366466Y-105776339D01*
X119273106Y-105976550D01*
X119215930Y-106189932D01*
X119196677Y-106410000D01*
X119210717Y-106570476D01*
X119214886Y-106618133D01*
X119200897Y-106687737D01*
X119151497Y-106738730D01*
X119082371Y-106754920D01*
X119021017Y-106734966D01*
X118893046Y-106652336D01*
X118893043Y-106652335D01*
X118888009Y-106649084D01*
X118687396Y-106568234D01*
X118681515Y-106567086D01*
X118681510Y-106567084D01*
X118479559Y-106527646D01*
X118479556Y-106527646D01*
X118475113Y-106526778D01*
X118469429Y-106526500D01*
X118309959Y-106526500D01*
X118148685Y-106541887D01*
X117941140Y-106602774D01*
X117935813Y-106605518D01*
X117935812Y-106605518D01*
X117754183Y-106699063D01*
X117754180Y-106699065D01*
X117748852Y-106701809D01*
X117744137Y-106705513D01*
X117583478Y-106831711D01*
X117583473Y-106831715D01*
X117578761Y-106835417D01*
X117574830Y-106839947D01*
X117574829Y-106839948D01*
X117440933Y-106994248D01*
X117440929Y-106994253D01*
X117437002Y-106998779D01*
X117328693Y-107185999D01*
X117257740Y-107390323D01*
X117256879Y-107396258D01*
X117256879Y-107396260D01*
X117228597Y-107591317D01*
X117226703Y-107604377D01*
X117236704Y-107820438D01*
X117238108Y-107826263D01*
X117238108Y-107826264D01*
X117283847Y-108016049D01*
X117287380Y-108030710D01*
X117376903Y-108227606D01*
X117441689Y-108318938D01*
X117495821Y-108395249D01*
X117502043Y-108404021D01*
X117658285Y-108553590D01*
X117663320Y-108556841D01*
X117834954Y-108667664D01*
X117834957Y-108667665D01*
X117839991Y-108670916D01*
X118040604Y-108751766D01*
X118046485Y-108752914D01*
X118046490Y-108752916D01*
X118248441Y-108792354D01*
X118248444Y-108792354D01*
X118252887Y-108793222D01*
X118258571Y-108793500D01*
X118418041Y-108793500D01*
X118579315Y-108778113D01*
X118786860Y-108717226D01*
X118792188Y-108714482D01*
X118973817Y-108620937D01*
X118973820Y-108620935D01*
X118979148Y-108618191D01*
X119011983Y-108592399D01*
X119077909Y-108566050D01*
X119147615Y-108579525D01*
X119198970Y-108628548D01*
X119215336Y-108702468D01*
X119197658Y-108904525D01*
X119197658Y-108915475D01*
X119215946Y-109124501D01*
X119217849Y-109135296D01*
X119272155Y-109337968D01*
X119275901Y-109348260D01*
X119364578Y-109538429D01*
X119370056Y-109547915D01*
X119424488Y-109625653D01*
X119447176Y-109692926D01*
X119429891Y-109761787D01*
X119378121Y-109810371D01*
X119310293Y-109823443D01*
X119210813Y-109814739D01*
X119205327Y-109814500D01*
X118636115Y-109814500D01*
X118620876Y-109818975D01*
X118619671Y-109820365D01*
X118618000Y-109828048D01*
X118618000Y-110837885D01*
X118622475Y-110853124D01*
X118623865Y-110854329D01*
X118631548Y-110856000D01*
X120406526Y-110856000D01*
X120420057Y-110852027D01*
X120421286Y-110843478D01*
X120374945Y-110670530D01*
X120371199Y-110660238D01*
X120280045Y-110464757D01*
X120274567Y-110455271D01*
X120209494Y-110362336D01*
X120186806Y-110295062D01*
X120204091Y-110226202D01*
X120255861Y-110177618D01*
X120323689Y-110164545D01*
X120458525Y-110176342D01*
X120469475Y-110176342D01*
X120678501Y-110158054D01*
X120689296Y-110156151D01*
X120891968Y-110101845D01*
X120902260Y-110098099D01*
X121092424Y-110009425D01*
X121101919Y-110003942D01*
X121144021Y-109974462D01*
X121152396Y-109963985D01*
X121145328Y-109950538D01*
X120193885Y-108999095D01*
X120159859Y-108936783D01*
X120161694Y-108911132D01*
X120828408Y-108911132D01*
X120828539Y-108912965D01*
X120832790Y-108919580D01*
X121505259Y-109592049D01*
X121517033Y-109598479D01*
X121529049Y-109589183D01*
X121557945Y-109547915D01*
X121563423Y-109538425D01*
X121652099Y-109348260D01*
X121655845Y-109337968D01*
X121710151Y-109135296D01*
X121712054Y-109124501D01*
X121730342Y-108915475D01*
X121730342Y-108904525D01*
X121712054Y-108695499D01*
X121710151Y-108684704D01*
X121655845Y-108482032D01*
X121652099Y-108471740D01*
X121563423Y-108281575D01*
X121557945Y-108272085D01*
X121528461Y-108229978D01*
X121517985Y-108221604D01*
X121504537Y-108228673D01*
X120836022Y-108897188D01*
X120828408Y-108911132D01*
X120161694Y-108911132D01*
X120164924Y-108865968D01*
X120193885Y-108820905D01*
X121146049Y-107868741D01*
X121152479Y-107856966D01*
X121143183Y-107844951D01*
X121101919Y-107816058D01*
X121092424Y-107810575D01*
X121014997Y-107774471D01*
X120961712Y-107727554D01*
X120942251Y-107659277D01*
X120962793Y-107591317D01*
X121014997Y-107546081D01*
X121097662Y-107507534D01*
X121103652Y-107503340D01*
X121274109Y-107383985D01*
X121274112Y-107383983D01*
X121278620Y-107380826D01*
X121434826Y-107224620D01*
X121530798Y-107087557D01*
X121586255Y-107043229D01*
X121656874Y-107035920D01*
X121723106Y-107070733D01*
X123196889Y-108544516D01*
X123230914Y-108606827D01*
X123225849Y-108677642D01*
X123183302Y-108734478D01*
X123120798Y-108758937D01*
X123044979Y-108766805D01*
X123031583Y-108769697D01*
X122884313Y-108818830D01*
X122871134Y-108825004D01*
X122739486Y-108906470D01*
X122728085Y-108915506D01*
X122618702Y-109025080D01*
X122609690Y-109036491D01*
X122528447Y-109168291D01*
X122522303Y-109181468D01*
X122473421Y-109328843D01*
X122470555Y-109342210D01*
X122461386Y-109431700D01*
X122465475Y-109445624D01*
X122466865Y-109446829D01*
X122474548Y-109448500D01*
X123572000Y-109448500D01*
X123640121Y-109468502D01*
X123686614Y-109522158D01*
X123698000Y-109574500D01*
X123698000Y-109830500D01*
X123677998Y-109898621D01*
X123624342Y-109945114D01*
X123572000Y-109956500D01*
X122479115Y-109956500D01*
X122463876Y-109960975D01*
X122462671Y-109962365D01*
X122461158Y-109969321D01*
X122461337Y-109972782D01*
X122470804Y-110064021D01*
X122473697Y-110077417D01*
X122522830Y-110224687D01*
X122529004Y-110237866D01*
X122610470Y-110369514D01*
X122619506Y-110380915D01*
X122639158Y-110400533D01*
X122673237Y-110462816D01*
X122668234Y-110533636D01*
X122639314Y-110578723D01*
X122613136Y-110604947D01*
X122609296Y-110611177D01*
X122609295Y-110611178D01*
X122604967Y-110618199D01*
X122524151Y-110749308D01*
X122521846Y-110756256D01*
X122521846Y-110756257D01*
X122486649Y-110862373D01*
X122470762Y-110910269D01*
X122460500Y-111010428D01*
X122460500Y-111544572D01*
X122471022Y-111645982D01*
X122524692Y-111806849D01*
X122613929Y-111951055D01*
X122733947Y-112070864D01*
X122878308Y-112159849D01*
X122885256Y-112162154D01*
X122885257Y-112162154D01*
X123032738Y-112211072D01*
X123032740Y-112211072D01*
X123039269Y-112213238D01*
X123139428Y-112223500D01*
X123748572Y-112223500D01*
X123751818Y-112223163D01*
X123751822Y-112223163D01*
X123785603Y-112219658D01*
X123849982Y-112212978D01*
X124010849Y-112159308D01*
X124155055Y-112070071D01*
X124274864Y-111950053D01*
X124277223Y-111952408D01*
X124323053Y-111919871D01*
X124364093Y-111913000D01*
X124611480Y-111913000D01*
X124622714Y-111913530D01*
X124630219Y-111915208D01*
X124698512Y-111913062D01*
X124702469Y-111913000D01*
X124730483Y-111913000D01*
X124734408Y-111912504D01*
X124734409Y-111912504D01*
X124734504Y-111912492D01*
X124746349Y-111911559D01*
X124776170Y-111910622D01*
X124782782Y-111910414D01*
X124782783Y-111910414D01*
X124790705Y-111910165D01*
X124810249Y-111904487D01*
X124829612Y-111900477D01*
X124841940Y-111898920D01*
X124841942Y-111898920D01*
X124849799Y-111897927D01*
X124857163Y-111895011D01*
X124857168Y-111895010D01*
X124891056Y-111881593D01*
X124902285Y-111877748D01*
X124918965Y-111872902D01*
X124944893Y-111865369D01*
X124951720Y-111861331D01*
X124951723Y-111861330D01*
X124962406Y-111855012D01*
X124980164Y-111846312D01*
X124991715Y-111841739D01*
X124991721Y-111841735D01*
X124999088Y-111838819D01*
X125034991Y-111812734D01*
X125044911Y-111806218D01*
X125062113Y-111796045D01*
X125126251Y-111778499D01*
X125217988Y-111778499D01*
X125254466Y-111775629D01*
X125351270Y-111747505D01*
X125402983Y-111732481D01*
X125402985Y-111732480D01*
X125410596Y-111730269D01*
X125542060Y-111652522D01*
X125543720Y-111651540D01*
X125550541Y-111647506D01*
X125665506Y-111532541D01*
X125748269Y-111392596D01*
X125755628Y-111367268D01*
X125791834Y-111242644D01*
X125793629Y-111236466D01*
X125794149Y-111229866D01*
X125796307Y-111202444D01*
X125796307Y-111202438D01*
X125796500Y-111199989D01*
X125796499Y-110940318D01*
X125816501Y-110872199D01*
X125870156Y-110825706D01*
X125896302Y-110817072D01*
X125919907Y-110812055D01*
X125988088Y-110797563D01*
X125988091Y-110797562D01*
X125994546Y-110796190D01*
X126022941Y-110783548D01*
X126152015Y-110726081D01*
X126152017Y-110726080D01*
X126158045Y-110723396D01*
X126230809Y-110670530D01*
X126297492Y-110622082D01*
X126297494Y-110622080D01*
X126302836Y-110618199D01*
X126359170Y-110555634D01*
X126418172Y-110490105D01*
X126418173Y-110490104D01*
X126422591Y-110485197D01*
X126454605Y-110429747D01*
X126505988Y-110380754D01*
X126575702Y-110367319D01*
X126641613Y-110393706D01*
X126683556Y-110453811D01*
X126725923Y-110584203D01*
X126729226Y-110589925D01*
X126729227Y-110589926D01*
X126747981Y-110622408D01*
X126815409Y-110739197D01*
X126819827Y-110744104D01*
X126819828Y-110744105D01*
X126917001Y-110852027D01*
X126935164Y-110872199D01*
X126940506Y-110876080D01*
X126940508Y-110876082D01*
X127004089Y-110922276D01*
X127079955Y-110977396D01*
X127085983Y-110980080D01*
X127085985Y-110980081D01*
X127220445Y-111039946D01*
X127243454Y-111050190D01*
X127397375Y-111082907D01*
X127410653Y-111085729D01*
X127418514Y-111087400D01*
X127421653Y-111087400D01*
X127486122Y-111113921D01*
X127496394Y-111123126D01*
X129059672Y-112686405D01*
X129093698Y-112748717D01*
X129088633Y-112819533D01*
X129046086Y-112876368D01*
X128979566Y-112901179D01*
X128970577Y-112901500D01*
X116204500Y-112901500D01*
X116136379Y-112881498D01*
X116089886Y-112827842D01*
X116078500Y-112775500D01*
X116078500Y-111481882D01*
X116098502Y-111413761D01*
X116152158Y-111367268D01*
X116222432Y-111357164D01*
X116287012Y-111386658D01*
X116326207Y-111449271D01*
X116353055Y-111549470D01*
X116356801Y-111559762D01*
X116447955Y-111755243D01*
X116453433Y-111764729D01*
X116577139Y-111941401D01*
X116584193Y-111949808D01*
X116736692Y-112102307D01*
X116745099Y-112109361D01*
X116921771Y-112233067D01*
X116931257Y-112238545D01*
X117126738Y-112329699D01*
X117137030Y-112333445D01*
X117345364Y-112389268D01*
X117356159Y-112391171D01*
X117517209Y-112405262D01*
X117522673Y-112405500D01*
X118091885Y-112405500D01*
X118107124Y-112401025D01*
X118108329Y-112399635D01*
X118110000Y-112391952D01*
X118110000Y-112387385D01*
X118618000Y-112387385D01*
X118622475Y-112402624D01*
X118623865Y-112403829D01*
X118631548Y-112405500D01*
X119205327Y-112405500D01*
X119210791Y-112405262D01*
X119371841Y-112391171D01*
X119382636Y-112389268D01*
X119590970Y-112333445D01*
X119601262Y-112329699D01*
X119796743Y-112238545D01*
X119806229Y-112233067D01*
X119982901Y-112109361D01*
X119991308Y-112102307D01*
X120143805Y-111949810D01*
X120150861Y-111941402D01*
X120274565Y-111764734D01*
X120280048Y-111755238D01*
X120371199Y-111559762D01*
X120374945Y-111549470D01*
X120419953Y-111381497D01*
X120419617Y-111367401D01*
X120411675Y-111364000D01*
X118636115Y-111364000D01*
X118620876Y-111368475D01*
X118619671Y-111369865D01*
X118618000Y-111377548D01*
X118618000Y-112387385D01*
X118110000Y-112387385D01*
X118110000Y-109832615D01*
X118105525Y-109817376D01*
X118104135Y-109816171D01*
X118096452Y-109814500D01*
X117522673Y-109814500D01*
X117517209Y-109814738D01*
X117356159Y-109828829D01*
X117345364Y-109830732D01*
X117137030Y-109886555D01*
X117126738Y-109890301D01*
X116931257Y-109981455D01*
X116921771Y-109986933D01*
X116745099Y-110110639D01*
X116736692Y-110117693D01*
X116584195Y-110270190D01*
X116577139Y-110278598D01*
X116453435Y-110455266D01*
X116447952Y-110464762D01*
X116356801Y-110660238D01*
X116353055Y-110670530D01*
X116326207Y-110770729D01*
X116289255Y-110831352D01*
X116225395Y-110862373D01*
X116154900Y-110853945D01*
X116100153Y-110808742D01*
X116078500Y-110738118D01*
X116078500Y-100081882D01*
X116098502Y-100013761D01*
X116152158Y-99967268D01*
X116222432Y-99957164D01*
X116287012Y-99986658D01*
X116326207Y-100049271D01*
X116353055Y-100149470D01*
X116356801Y-100159762D01*
X116447955Y-100355243D01*
X116453433Y-100364729D01*
X116577139Y-100541401D01*
X116584193Y-100549808D01*
X116736692Y-100702307D01*
X116745099Y-100709361D01*
X116921771Y-100833067D01*
X116931257Y-100838545D01*
X117126738Y-100929699D01*
X117137030Y-100933445D01*
X117345364Y-100989268D01*
X117356159Y-100991171D01*
X117517209Y-101005262D01*
X117522673Y-101005500D01*
X118091885Y-101005500D01*
X118107124Y-101001025D01*
X118108329Y-100999635D01*
X118110000Y-100991952D01*
X118110000Y-99437885D01*
X118618000Y-99437885D01*
X118622474Y-99453123D01*
X118623865Y-99454329D01*
X118631548Y-99456000D01*
X120406526Y-99456000D01*
X120420057Y-99452027D01*
X120421286Y-99443478D01*
X120374945Y-99270530D01*
X120371199Y-99260238D01*
X120280045Y-99064757D01*
X120274567Y-99055271D01*
X120150861Y-98878599D01*
X120143807Y-98870192D01*
X119991308Y-98717693D01*
X119982901Y-98710639D01*
X119806229Y-98586933D01*
X119796743Y-98581455D01*
X119601262Y-98490301D01*
X119590970Y-98486555D01*
X119382636Y-98430732D01*
X119371841Y-98428829D01*
X119210791Y-98414738D01*
X119205327Y-98414500D01*
X118636115Y-98414500D01*
X118620876Y-98418975D01*
X118619671Y-98420365D01*
X118618000Y-98428048D01*
X118618000Y-99437885D01*
X118110000Y-99437885D01*
X118110000Y-98432615D01*
X118105525Y-98417376D01*
X118104135Y-98416171D01*
X118096452Y-98414500D01*
X117522673Y-98414500D01*
X117517209Y-98414738D01*
X117356159Y-98428829D01*
X117345364Y-98430732D01*
X117137030Y-98486555D01*
X117126738Y-98490301D01*
X116931257Y-98581455D01*
X116921771Y-98586933D01*
X116745099Y-98710639D01*
X116736692Y-98717693D01*
X116584195Y-98870190D01*
X116577139Y-98878598D01*
X116453435Y-99055266D01*
X116447952Y-99064762D01*
X116356801Y-99260238D01*
X116353055Y-99270530D01*
X116326207Y-99370729D01*
X116289255Y-99431352D01*
X116225395Y-99462373D01*
X116154900Y-99453945D01*
X116100153Y-99408742D01*
X116078500Y-99338118D01*
X116078500Y-98044500D01*
X116098502Y-97976379D01*
X116152158Y-97929886D01*
X116204500Y-97918500D01*
X124806619Y-97918500D01*
X124874740Y-97938502D01*
G37*
%TD.AperFunction*%
%TA.AperFunction,Conductor*%
G36*
X130341102Y-109660102D02*
G01*
X130387595Y-109713758D01*
X130397699Y-109784032D01*
X130391590Y-109805007D01*
X130392528Y-109805301D01*
X130341247Y-109968938D01*
X130334500Y-110042365D01*
X130334501Y-110555634D01*
X130334764Y-110558492D01*
X130334764Y-110558501D01*
X130336548Y-110577919D01*
X130341247Y-110629062D01*
X130343246Y-110635440D01*
X130343246Y-110635441D01*
X130388399Y-110779522D01*
X130392528Y-110792699D01*
X130481361Y-110939381D01*
X130527532Y-110985552D01*
X130561558Y-111047864D01*
X130556493Y-111118679D01*
X130547559Y-111137644D01*
X130535923Y-111157797D01*
X130527873Y-111182573D01*
X130492050Y-111292826D01*
X130480618Y-111328009D01*
X130461910Y-111506000D01*
X130480618Y-111683991D01*
X130482658Y-111690269D01*
X130482658Y-111690270D01*
X130496373Y-111732481D01*
X130535923Y-111854203D01*
X130625409Y-112009197D01*
X130629827Y-112014104D01*
X130629828Y-112014105D01*
X130709245Y-112102307D01*
X130745164Y-112142199D01*
X130778701Y-112166565D01*
X130822053Y-112222787D01*
X130828128Y-112293523D01*
X130794996Y-112356315D01*
X130733176Y-112391226D01*
X130704638Y-112394500D01*
X130617423Y-112394500D01*
X130549302Y-112374498D01*
X130528328Y-112357595D01*
X128390633Y-110219900D01*
X128356607Y-110157588D01*
X128354418Y-110143976D01*
X128346072Y-110064573D01*
X128346072Y-110064572D01*
X128345382Y-110058009D01*
X128290077Y-109887797D01*
X128256188Y-109829099D01*
X128239450Y-109760105D01*
X128262670Y-109693013D01*
X128318477Y-109649126D01*
X128365307Y-109640100D01*
X130272981Y-109640100D01*
X130341102Y-109660102D01*
G37*
%TD.AperFunction*%
%TA.AperFunction,Conductor*%
G36*
X124660009Y-102716275D02*
G01*
X124704478Y-102771620D01*
X124714000Y-102819671D01*
X124714000Y-103610424D01*
X124718344Y-103625219D01*
X124728777Y-103627063D01*
X124733365Y-103626225D01*
X124803971Y-103633664D01*
X124859346Y-103678095D01*
X124882000Y-103750175D01*
X124882001Y-104440669D01*
X124882371Y-104447490D01*
X124887895Y-104498352D01*
X124891521Y-104513604D01*
X124936676Y-104634054D01*
X124945214Y-104649649D01*
X125021715Y-104751724D01*
X125034276Y-104764285D01*
X125136351Y-104840786D01*
X125151946Y-104849324D01*
X125272394Y-104894478D01*
X125287649Y-104898105D01*
X125338514Y-104903631D01*
X125345328Y-104904000D01*
X126117885Y-104904000D01*
X126133124Y-104899525D01*
X126134329Y-104898135D01*
X126136000Y-104890452D01*
X126136000Y-103518000D01*
X126156002Y-103449879D01*
X126209658Y-103403386D01*
X126262000Y-103392000D01*
X126518000Y-103392000D01*
X126586121Y-103412002D01*
X126632614Y-103465658D01*
X126644000Y-103518000D01*
X126644000Y-104885884D01*
X126648475Y-104901123D01*
X126649865Y-104902328D01*
X126657548Y-104903999D01*
X127434669Y-104903999D01*
X127441490Y-104903629D01*
X127492352Y-104898105D01*
X127507604Y-104894479D01*
X127628054Y-104849324D01*
X127643649Y-104840786D01*
X127745724Y-104764285D01*
X127758285Y-104751724D01*
X127834786Y-104649649D01*
X127847634Y-104626182D01*
X127849107Y-104626989D01*
X127885489Y-104578554D01*
X127952050Y-104553852D01*
X128013176Y-104564932D01*
X128113671Y-104610827D01*
X128113677Y-104610829D01*
X128117769Y-104612698D01*
X128141523Y-104619673D01*
X128181567Y-104631431D01*
X128181571Y-104631432D01*
X128185890Y-104632700D01*
X128190339Y-104633340D01*
X128190345Y-104633341D01*
X128326112Y-104652861D01*
X128326117Y-104652861D01*
X128330559Y-104653500D01*
X134182420Y-104653500D01*
X134250541Y-104673502D01*
X134297034Y-104727158D01*
X134307138Y-104797432D01*
X134277644Y-104862012D01*
X134271515Y-104868595D01*
X131436515Y-107703595D01*
X131374203Y-107737621D01*
X131347420Y-107740500D01*
X131007999Y-107740501D01*
X130986366Y-107740501D01*
X130983508Y-107740764D01*
X130983499Y-107740764D01*
X130947996Y-107744026D01*
X130912938Y-107747247D01*
X130906560Y-107749246D01*
X130906559Y-107749246D01*
X130756550Y-107796256D01*
X130756548Y-107796257D01*
X130749301Y-107798528D01*
X130602619Y-107887361D01*
X130481361Y-108008619D01*
X130477425Y-108015117D01*
X130476695Y-108016049D01*
X130418921Y-108057312D01*
X130377543Y-108064300D01*
X124997381Y-108064300D01*
X124929260Y-108044298D01*
X124908286Y-108027395D01*
X121721010Y-104840120D01*
X121686984Y-104777808D01*
X121688398Y-104718414D01*
X121710646Y-104635382D01*
X121710646Y-104635381D01*
X121712070Y-104630068D01*
X121731323Y-104410000D01*
X121712070Y-104189932D01*
X121663724Y-104009504D01*
X121656317Y-103981860D01*
X121656316Y-103981858D01*
X121654894Y-103976550D01*
X121631380Y-103926124D01*
X121563857Y-103781320D01*
X121563855Y-103781317D01*
X121561534Y-103776339D01*
X121434826Y-103595380D01*
X121278620Y-103439174D01*
X121274112Y-103436017D01*
X121274109Y-103436015D01*
X121221839Y-103399415D01*
X121177511Y-103343957D01*
X121170202Y-103273338D01*
X121202233Y-103209978D01*
X121263435Y-103173993D01*
X121280502Y-103170939D01*
X121284037Y-103170555D01*
X121320460Y-103166599D01*
X121320464Y-103166598D01*
X121328316Y-103165745D01*
X121464705Y-103114615D01*
X121581261Y-103027261D01*
X121647183Y-102939302D01*
X121663231Y-102917890D01*
X121663233Y-102917886D01*
X121668615Y-102910705D01*
X121671767Y-102902298D01*
X121674178Y-102897893D01*
X121724435Y-102847746D01*
X121784699Y-102832400D01*
X123516000Y-102832400D01*
X123584121Y-102852402D01*
X123630614Y-102906058D01*
X123642000Y-102958400D01*
X123642000Y-103044969D01*
X123642193Y-103049898D01*
X123644386Y-103077756D01*
X123646688Y-103090359D01*
X123688357Y-103233784D01*
X123694604Y-103248220D01*
X123769876Y-103375499D01*
X123779516Y-103387926D01*
X123884074Y-103492484D01*
X123896501Y-103502124D01*
X124023780Y-103577396D01*
X124038216Y-103583643D01*
X124181641Y-103625312D01*
X124189609Y-103626768D01*
X124203031Y-103623948D01*
X124206000Y-103612487D01*
X124206000Y-102939302D01*
X124226002Y-102871181D01*
X124279658Y-102824688D01*
X124298296Y-102818098D01*
X124304399Y-102817327D01*
X124311765Y-102814411D01*
X124311771Y-102814409D01*
X124345656Y-102800993D01*
X124356885Y-102797148D01*
X124373565Y-102792302D01*
X124399493Y-102784769D01*
X124406320Y-102780731D01*
X124406323Y-102780730D01*
X124417006Y-102774412D01*
X124434764Y-102765712D01*
X124446315Y-102761139D01*
X124446321Y-102761135D01*
X124453688Y-102758219D01*
X124489591Y-102732134D01*
X124499501Y-102725624D01*
X124523862Y-102711217D01*
X124592678Y-102693758D01*
X124660009Y-102716275D01*
G37*
%TD.AperFunction*%
%TA.AperFunction,Conductor*%
G36*
X143516699Y-98699502D02*
G01*
X143537673Y-98716405D01*
X146345595Y-101524328D01*
X146379621Y-101586640D01*
X146382500Y-101613423D01*
X146382500Y-102335500D01*
X146362498Y-102403621D01*
X146308842Y-102450114D01*
X146256500Y-102461500D01*
X146200000Y-102461500D01*
X146131879Y-102441498D01*
X146085386Y-102387842D01*
X146074000Y-102335500D01*
X146074000Y-101980116D01*
X146069525Y-101964877D01*
X146068135Y-101963672D01*
X146060452Y-101962001D01*
X145719331Y-101962001D01*
X145712510Y-101962371D01*
X145661648Y-101967895D01*
X145646396Y-101971521D01*
X145525946Y-102016676D01*
X145510351Y-102025214D01*
X145408276Y-102101715D01*
X145395715Y-102114276D01*
X145319214Y-102216351D01*
X145310676Y-102231946D01*
X145265522Y-102352394D01*
X145261895Y-102367649D01*
X145256369Y-102418514D01*
X145256000Y-102425328D01*
X145256000Y-102451885D01*
X145260475Y-102467124D01*
X145261865Y-102468329D01*
X145278765Y-102472005D01*
X145341078Y-102506030D01*
X145375103Y-102568342D01*
X145370039Y-102639157D01*
X145352810Y-102670690D01*
X145318770Y-102716109D01*
X145318768Y-102716112D01*
X145313385Y-102723295D01*
X145310233Y-102731703D01*
X145276214Y-102822448D01*
X145258436Y-102852353D01*
X145256001Y-102863548D01*
X145256001Y-102894673D01*
X145256263Y-102899511D01*
X145255843Y-102915061D01*
X145256053Y-102915072D01*
X145255869Y-102918469D01*
X145255500Y-102921866D01*
X145255500Y-103086616D01*
X145235498Y-103154737D01*
X145181842Y-103201230D01*
X145125537Y-103210426D01*
X145125537Y-103212200D01*
X144946565Y-103212200D01*
X144940112Y-103213572D01*
X144940108Y-103213572D01*
X144859035Y-103230805D01*
X144771505Y-103249410D01*
X144765475Y-103252095D01*
X144765474Y-103252095D01*
X144614036Y-103319519D01*
X144614034Y-103319520D01*
X144608006Y-103322204D01*
X144602665Y-103326084D01*
X144602664Y-103326085D01*
X144473476Y-103419946D01*
X144463215Y-103427401D01*
X144458794Y-103432311D01*
X144458793Y-103432312D01*
X144365278Y-103536172D01*
X144343460Y-103560403D01*
X144253974Y-103715397D01*
X144198669Y-103885609D01*
X144197979Y-103892172D01*
X144197979Y-103892173D01*
X144188552Y-103981860D01*
X144179961Y-104063600D01*
X144198669Y-104241591D01*
X144200709Y-104247869D01*
X144200709Y-104247870D01*
X144201975Y-104251766D01*
X144253974Y-104411803D01*
X144266271Y-104433101D01*
X144283008Y-104502095D01*
X144259788Y-104569187D01*
X144203981Y-104613074D01*
X144157151Y-104622100D01*
X143766000Y-104622100D01*
X143697879Y-104602098D01*
X143651386Y-104548442D01*
X143640000Y-104496100D01*
X143640000Y-104455115D01*
X143635525Y-104439876D01*
X143634135Y-104438671D01*
X143626452Y-104437000D01*
X141992116Y-104437000D01*
X141976877Y-104441475D01*
X141975672Y-104442865D01*
X141974001Y-104450548D01*
X141974001Y-104496100D01*
X141953999Y-104564221D01*
X141900343Y-104610714D01*
X141848001Y-104622100D01*
X141616500Y-104622100D01*
X141548379Y-104602098D01*
X141501886Y-104548442D01*
X141490500Y-104496100D01*
X141490500Y-103910885D01*
X141974000Y-103910885D01*
X141978475Y-103926124D01*
X141979865Y-103927329D01*
X141987548Y-103929000D01*
X142534885Y-103929000D01*
X142550124Y-103924525D01*
X142551329Y-103923135D01*
X142553000Y-103915452D01*
X142553000Y-103910885D01*
X143061000Y-103910885D01*
X143065475Y-103926124D01*
X143066865Y-103927329D01*
X143074548Y-103929000D01*
X143621884Y-103929000D01*
X143637123Y-103924525D01*
X143638328Y-103923135D01*
X143639999Y-103915452D01*
X143639999Y-103613331D01*
X143639629Y-103606510D01*
X143634105Y-103555648D01*
X143630479Y-103540396D01*
X143585324Y-103419946D01*
X143576786Y-103404351D01*
X143500285Y-103302276D01*
X143487724Y-103289715D01*
X143385649Y-103213214D01*
X143370054Y-103204676D01*
X143249606Y-103159522D01*
X143234351Y-103155895D01*
X143183486Y-103150369D01*
X143176672Y-103150000D01*
X143079115Y-103150000D01*
X143063876Y-103154475D01*
X143062671Y-103155865D01*
X143061000Y-103163548D01*
X143061000Y-103910885D01*
X142553000Y-103910885D01*
X142553000Y-103168116D01*
X142548525Y-103152877D01*
X142547135Y-103151672D01*
X142539452Y-103150001D01*
X142437331Y-103150001D01*
X142430510Y-103150371D01*
X142379648Y-103155895D01*
X142364396Y-103159521D01*
X142243946Y-103204676D01*
X142228351Y-103213214D01*
X142126276Y-103289715D01*
X142113715Y-103302276D01*
X142037214Y-103404351D01*
X142028676Y-103419946D01*
X141983522Y-103540394D01*
X141979895Y-103555649D01*
X141974369Y-103606514D01*
X141974000Y-103613328D01*
X141974000Y-103910885D01*
X141490500Y-103910885D01*
X141490500Y-103609866D01*
X141483745Y-103547684D01*
X141432615Y-103411295D01*
X141345261Y-103294739D01*
X141338081Y-103289358D01*
X141331731Y-103283008D01*
X141333870Y-103280869D01*
X141300423Y-103236145D01*
X141292500Y-103192170D01*
X141292500Y-101815400D01*
X141312502Y-101747279D01*
X141366158Y-101700786D01*
X141418500Y-101689400D01*
X141567486Y-101689400D01*
X141573939Y-101688028D01*
X141573943Y-101688028D01*
X141663498Y-101668992D01*
X141742546Y-101652190D01*
X141889775Y-101586640D01*
X141900015Y-101582081D01*
X141900017Y-101582080D01*
X141906045Y-101579396D01*
X141911387Y-101575515D01*
X142045492Y-101478082D01*
X142045494Y-101478080D01*
X142050836Y-101474199D01*
X142097828Y-101422009D01*
X142166172Y-101346105D01*
X142166173Y-101346104D01*
X142170591Y-101341197D01*
X142260077Y-101186203D01*
X142272086Y-101149243D01*
X142312160Y-101090638D01*
X142377557Y-101063001D01*
X142405525Y-101062917D01*
X142430509Y-101065631D01*
X142437328Y-101066000D01*
X142534885Y-101066000D01*
X142550124Y-101061525D01*
X142551329Y-101060135D01*
X142553000Y-101052452D01*
X142553000Y-101047884D01*
X143061000Y-101047884D01*
X143065475Y-101063123D01*
X143066865Y-101064328D01*
X143074548Y-101065999D01*
X143176669Y-101065999D01*
X143183490Y-101065629D01*
X143234352Y-101060105D01*
X143249604Y-101056479D01*
X143370054Y-101011324D01*
X143385649Y-101002786D01*
X143487724Y-100926285D01*
X143500285Y-100913724D01*
X143576786Y-100811649D01*
X143585324Y-100796054D01*
X143630478Y-100675606D01*
X143634105Y-100660351D01*
X143639631Y-100609486D01*
X143640000Y-100602672D01*
X143640000Y-100305115D01*
X143635525Y-100289876D01*
X143634135Y-100288671D01*
X143626452Y-100287000D01*
X143079115Y-100287000D01*
X143063876Y-100291475D01*
X143062671Y-100292865D01*
X143061000Y-100300548D01*
X143061000Y-101047884D01*
X142553000Y-101047884D01*
X142553000Y-99760885D01*
X143061000Y-99760885D01*
X143065475Y-99776124D01*
X143066865Y-99777329D01*
X143074548Y-99779000D01*
X143621884Y-99779000D01*
X143637123Y-99774525D01*
X143638328Y-99773135D01*
X143639999Y-99765452D01*
X143639999Y-99463331D01*
X143639629Y-99456510D01*
X143634105Y-99405648D01*
X143630479Y-99390396D01*
X143585324Y-99269946D01*
X143576786Y-99254351D01*
X143500285Y-99152276D01*
X143487724Y-99139715D01*
X143385649Y-99063214D01*
X143370054Y-99054676D01*
X143249606Y-99009522D01*
X143234351Y-99005895D01*
X143183486Y-99000369D01*
X143176672Y-99000000D01*
X143079115Y-99000000D01*
X143063876Y-99004475D01*
X143062671Y-99005865D01*
X143061000Y-99013548D01*
X143061000Y-99760885D01*
X142553000Y-99760885D01*
X142553000Y-99018116D01*
X142548525Y-99002877D01*
X142547135Y-99001672D01*
X142539452Y-99000001D01*
X142437331Y-99000001D01*
X142430510Y-99000371D01*
X142379648Y-99005895D01*
X142364396Y-99009521D01*
X142243946Y-99054676D01*
X142228352Y-99063214D01*
X142132322Y-99135184D01*
X142065816Y-99160032D01*
X141996433Y-99144979D01*
X141982696Y-99136294D01*
X141911387Y-99084485D01*
X141911386Y-99084484D01*
X141906045Y-99080604D01*
X141900017Y-99077920D01*
X141900015Y-99077919D01*
X141748577Y-99010495D01*
X141748576Y-99010495D01*
X141742546Y-99007810D01*
X141655016Y-98989205D01*
X141573943Y-98971972D01*
X141573939Y-98971972D01*
X141567486Y-98970600D01*
X141388514Y-98970600D01*
X141382061Y-98971972D01*
X141382057Y-98971972D01*
X141300984Y-98989205D01*
X141213454Y-99007810D01*
X141207421Y-99010496D01*
X141207415Y-99010498D01*
X141207127Y-99010626D01*
X141206945Y-99010650D01*
X141201142Y-99012536D01*
X141200797Y-99011475D01*
X141136760Y-99020061D01*
X141111650Y-99013502D01*
X141099721Y-99009030D01*
X141099713Y-99009028D01*
X141092316Y-99006255D01*
X141030134Y-98999500D01*
X140283866Y-98999500D01*
X140221684Y-99006255D01*
X140085295Y-99057385D01*
X139968739Y-99144739D01*
X139881385Y-99261295D01*
X139830255Y-99397684D01*
X139823500Y-99459866D01*
X139823500Y-100606134D01*
X139830255Y-100668316D01*
X139881385Y-100804705D01*
X139968739Y-100921261D01*
X139975919Y-100926642D01*
X139982269Y-100932992D01*
X139980130Y-100935131D01*
X140013577Y-100979855D01*
X140021500Y-101023830D01*
X140021500Y-103192170D01*
X140001498Y-103260291D01*
X139981279Y-103282018D01*
X139982269Y-103283008D01*
X139975919Y-103289358D01*
X139968739Y-103294739D01*
X139881385Y-103411295D01*
X139830255Y-103547684D01*
X139823500Y-103609866D01*
X139823500Y-104496100D01*
X139803498Y-104564221D01*
X139749842Y-104610714D01*
X139697500Y-104622100D01*
X135842547Y-104622100D01*
X135774426Y-104602098D01*
X135727933Y-104548442D01*
X135717829Y-104478168D01*
X135747322Y-104413588D01*
X135788081Y-104366550D01*
X135788083Y-104366547D01*
X135793982Y-104359739D01*
X135854698Y-104226790D01*
X135863912Y-104195411D01*
X135873431Y-104162992D01*
X135873432Y-104162988D01*
X135874700Y-104158669D01*
X135881053Y-104114487D01*
X135894861Y-104018447D01*
X135894861Y-104018442D01*
X135895500Y-104014000D01*
X135895500Y-102335349D01*
X135878452Y-102204133D01*
X135861997Y-102141876D01*
X135828837Y-102060651D01*
X135815227Y-102027315D01*
X135815226Y-102027314D01*
X135811982Y-102019367D01*
X135722415Y-101903868D01*
X135671366Y-101854527D01*
X135667720Y-101851893D01*
X135667715Y-101851889D01*
X135560198Y-101774222D01*
X135552893Y-101768945D01*
X135544397Y-101765940D01*
X135544396Y-101765939D01*
X135522481Y-101758187D01*
X135464930Y-101716613D01*
X135438992Y-101650525D01*
X135438500Y-101639400D01*
X135438500Y-101366516D01*
X135436521Y-101341371D01*
X135436111Y-101336156D01*
X135436110Y-101336151D01*
X135435606Y-101329746D01*
X135389894Y-101172403D01*
X135379985Y-101155647D01*
X135362526Y-101086830D01*
X135379984Y-101027372D01*
X135385395Y-101018222D01*
X135391643Y-101003784D01*
X135426619Y-100883395D01*
X135426579Y-100869295D01*
X135419309Y-100866000D01*
X135141379Y-100866000D01*
X135077240Y-100848454D01*
X135056420Y-100836141D01*
X135056419Y-100836141D01*
X135049597Y-100832106D01*
X135041986Y-100829895D01*
X135041984Y-100829894D01*
X134979183Y-100811649D01*
X134892254Y-100786394D01*
X134885849Y-100785890D01*
X134885844Y-100785889D01*
X134857940Y-100783693D01*
X134857932Y-100783693D01*
X134855484Y-100783500D01*
X134492000Y-100783500D01*
X134423879Y-100763498D01*
X134377386Y-100709842D01*
X134366000Y-100657500D01*
X134366000Y-100484000D01*
X134386002Y-100415879D01*
X134439658Y-100369386D01*
X134492000Y-100358000D01*
X134827970Y-100358000D01*
X134892110Y-100375547D01*
X134927290Y-100396353D01*
X134927308Y-100396363D01*
X134929236Y-100397503D01*
X134931254Y-100398510D01*
X134931257Y-100398511D01*
X134933702Y-100399730D01*
X134994854Y-100430227D01*
X135001403Y-100431888D01*
X135001409Y-100431890D01*
X135002383Y-100432137D01*
X135020626Y-100438281D01*
X135026988Y-100440981D01*
X135037455Y-100445423D01*
X135041376Y-100446517D01*
X135041379Y-100446518D01*
X135051100Y-100449230D01*
X135164990Y-100481005D01*
X135311148Y-100481005D01*
X135345972Y-100475998D01*
X135376966Y-100471542D01*
X135376970Y-100471541D01*
X135381422Y-100470901D01*
X135385734Y-100469635D01*
X135385738Y-100469634D01*
X135513010Y-100432263D01*
X135521657Y-100429724D01*
X135529236Y-100424854D01*
X135529239Y-100424852D01*
X135622776Y-100364739D01*
X135644612Y-100350706D01*
X135659514Y-100337794D01*
X135694875Y-100307153D01*
X135698268Y-100304213D01*
X135762510Y-100230074D01*
X135788081Y-100200564D01*
X135788083Y-100200561D01*
X135793982Y-100193753D01*
X135854698Y-100060804D01*
X135868648Y-100013296D01*
X135873431Y-99997006D01*
X135873432Y-99997002D01*
X135874700Y-99992683D01*
X135875567Y-99986658D01*
X135894861Y-99852461D01*
X135894861Y-99852456D01*
X135895500Y-99848014D01*
X135895500Y-98805500D01*
X135915502Y-98737379D01*
X135969158Y-98690886D01*
X136021500Y-98679500D01*
X143448578Y-98679500D01*
X143516699Y-98699502D01*
G37*
%TD.AperFunction*%
%TD*%
%TA.AperFunction,Conductor*%
%TO.N,+3V3*%
G36*
X135324121Y-98699502D02*
G01*
X135370614Y-98753158D01*
X135382000Y-98805500D01*
X135382000Y-99848014D01*
X135361998Y-99916135D01*
X135308342Y-99962628D01*
X135238068Y-99972732D01*
X135192006Y-99953183D01*
X135190629Y-99955512D01*
X135056420Y-99876141D01*
X135056419Y-99876141D01*
X135049597Y-99872106D01*
X135041986Y-99869895D01*
X135041984Y-99869894D01*
X134966671Y-99848014D01*
X134892254Y-99826394D01*
X134885849Y-99825890D01*
X134885844Y-99825889D01*
X134857940Y-99823693D01*
X134857932Y-99823693D01*
X134855484Y-99823500D01*
X134384516Y-99823500D01*
X134382068Y-99823693D01*
X134382060Y-99823693D01*
X134358343Y-99825560D01*
X134347746Y-99826394D01*
X134345257Y-99827117D01*
X134276035Y-99819828D01*
X134220657Y-99775400D01*
X134197999Y-99703314D01*
X134197999Y-99401331D01*
X134197629Y-99394510D01*
X134192105Y-99343648D01*
X134188479Y-99328396D01*
X134143324Y-99207946D01*
X134134786Y-99192351D01*
X134058285Y-99090276D01*
X134045724Y-99077715D01*
X133943649Y-99001214D01*
X133928054Y-98992676D01*
X133807606Y-98947522D01*
X133792351Y-98943895D01*
X133741486Y-98938369D01*
X133734672Y-98938000D01*
X132962115Y-98938000D01*
X132946876Y-98942475D01*
X132945671Y-98943865D01*
X132944000Y-98951548D01*
X132944000Y-101073885D01*
X132948475Y-101089124D01*
X132949865Y-101090329D01*
X132957548Y-101092000D01*
X133826015Y-101092000D01*
X133894136Y-101112002D01*
X133925575Y-101140774D01*
X133929473Y-101145799D01*
X133933512Y-101152629D01*
X134049371Y-101268488D01*
X134056192Y-101272522D01*
X134172610Y-101341371D01*
X134190403Y-101351894D01*
X134198014Y-101354105D01*
X134198016Y-101354106D01*
X134248995Y-101368916D01*
X134347746Y-101397606D01*
X134354151Y-101398110D01*
X134354156Y-101398111D01*
X134382060Y-101400307D01*
X134382068Y-101400307D01*
X134384516Y-101400500D01*
X134748000Y-101400500D01*
X134816121Y-101420502D01*
X134862614Y-101474158D01*
X134874000Y-101526500D01*
X134874000Y-102340424D01*
X134878344Y-102355219D01*
X134888775Y-102357063D01*
X134898359Y-102355312D01*
X135041784Y-102313643D01*
X135056220Y-102307396D01*
X135190320Y-102228090D01*
X135191838Y-102230657D01*
X135244875Y-102209841D01*
X135314496Y-102223751D01*
X135365545Y-102273092D01*
X135382000Y-102335349D01*
X135382000Y-104014000D01*
X135361998Y-104082121D01*
X135308342Y-104128614D01*
X135256000Y-104140000D01*
X128330559Y-104140000D01*
X128262438Y-104119998D01*
X128232170Y-104092712D01*
X127953582Y-103744478D01*
X127926111Y-103710138D01*
X127899175Y-103644450D01*
X127898500Y-103631427D01*
X127898500Y-103290669D01*
X131182001Y-103290669D01*
X131182371Y-103297490D01*
X131187895Y-103348352D01*
X131191521Y-103363604D01*
X131236676Y-103484054D01*
X131245214Y-103499649D01*
X131321715Y-103601724D01*
X131334276Y-103614285D01*
X131436351Y-103690786D01*
X131451946Y-103699324D01*
X131572394Y-103744478D01*
X131587649Y-103748105D01*
X131638514Y-103753631D01*
X131645328Y-103754000D01*
X132417885Y-103754000D01*
X132433124Y-103749525D01*
X132434329Y-103748135D01*
X132436000Y-103740452D01*
X132436000Y-103735884D01*
X132944000Y-103735884D01*
X132948475Y-103751123D01*
X132949865Y-103752328D01*
X132957548Y-103753999D01*
X133734669Y-103753999D01*
X133741490Y-103753629D01*
X133792352Y-103748105D01*
X133807604Y-103744479D01*
X133928054Y-103699324D01*
X133943649Y-103690786D01*
X134045724Y-103614285D01*
X134058285Y-103601724D01*
X134134786Y-103499649D01*
X134143324Y-103484054D01*
X134188478Y-103363606D01*
X134192105Y-103348351D01*
X134197631Y-103297486D01*
X134198000Y-103290672D01*
X134198000Y-102480175D01*
X134218002Y-102412054D01*
X134271658Y-102365561D01*
X134346635Y-102356225D01*
X134349608Y-102356768D01*
X134363031Y-102353948D01*
X134366000Y-102342487D01*
X134366000Y-101844115D01*
X134361525Y-101828876D01*
X134360135Y-101827671D01*
X134352452Y-101826000D01*
X133888000Y-101826000D01*
X133819879Y-101805998D01*
X133773386Y-101752342D01*
X133762000Y-101700000D01*
X133762000Y-101618115D01*
X133757525Y-101602876D01*
X133756135Y-101601671D01*
X133748452Y-101600000D01*
X132962115Y-101600000D01*
X132946876Y-101604475D01*
X132945671Y-101605865D01*
X132944000Y-101613548D01*
X132944000Y-103735884D01*
X132436000Y-103735884D01*
X132436000Y-101618115D01*
X132431525Y-101602876D01*
X132430135Y-101601671D01*
X132422452Y-101600000D01*
X131200116Y-101600000D01*
X131184877Y-101604475D01*
X131183672Y-101605865D01*
X131182001Y-101613548D01*
X131182001Y-103290669D01*
X127898500Y-103290669D01*
X127898500Y-102847866D01*
X127891745Y-102785684D01*
X127840615Y-102649295D01*
X127782047Y-102571148D01*
X127757199Y-102504642D01*
X127772252Y-102435259D01*
X127782047Y-102420018D01*
X127834786Y-102349648D01*
X127843324Y-102334054D01*
X127888478Y-102213606D01*
X127892105Y-102198351D01*
X127897631Y-102147486D01*
X127898000Y-102140672D01*
X127898000Y-101618115D01*
X127893525Y-101602876D01*
X127892135Y-101601671D01*
X127884452Y-101600000D01*
X126262000Y-101600000D01*
X126193879Y-101579998D01*
X126147386Y-101526342D01*
X126136000Y-101474000D01*
X126136000Y-101218000D01*
X126156002Y-101149879D01*
X126209658Y-101103386D01*
X126262000Y-101092000D01*
X127879884Y-101092000D01*
X127895123Y-101087525D01*
X127896328Y-101086135D01*
X127897999Y-101078452D01*
X127897999Y-101073885D01*
X131182000Y-101073885D01*
X131186475Y-101089124D01*
X131187865Y-101090329D01*
X131195548Y-101092000D01*
X132417885Y-101092000D01*
X132433124Y-101087525D01*
X132434329Y-101086135D01*
X132436000Y-101078452D01*
X132436000Y-98956116D01*
X132431525Y-98940877D01*
X132430135Y-98939672D01*
X132422452Y-98938001D01*
X131645331Y-98938001D01*
X131638510Y-98938371D01*
X131587648Y-98943895D01*
X131572396Y-98947521D01*
X131451946Y-98992676D01*
X131436351Y-99001214D01*
X131334276Y-99077715D01*
X131321715Y-99090276D01*
X131245214Y-99192351D01*
X131236676Y-99207946D01*
X131191522Y-99328394D01*
X131187895Y-99343649D01*
X131182369Y-99394514D01*
X131182000Y-99401328D01*
X131182000Y-101073885D01*
X127897999Y-101073885D01*
X127897999Y-100551331D01*
X127897629Y-100544510D01*
X127892105Y-100493648D01*
X127888479Y-100478396D01*
X127843324Y-100357946D01*
X127834786Y-100342352D01*
X127782047Y-100271982D01*
X127757199Y-100205476D01*
X127772252Y-100136093D01*
X127782047Y-100120852D01*
X127835229Y-100049891D01*
X127840615Y-100042705D01*
X127891745Y-99906316D01*
X127898500Y-99844134D01*
X127898500Y-98893399D01*
X127919661Y-98823508D01*
X127978262Y-98735607D01*
X128032692Y-98690023D01*
X128083100Y-98679500D01*
X135256000Y-98679500D01*
X135324121Y-98699502D01*
G37*
%TD.AperFunction*%
%TD*%
M02*
