%TF.GenerationSoftware,KiCad,Pcbnew,(6.0.7)*%
%TF.CreationDate,2023-02-04T21:02:38-08:00*%
%TF.ProjectId,ESP_Module,4553505f-4d6f-4647-956c-652e6b696361,rev?*%
%TF.SameCoordinates,Original*%
%TF.FileFunction,Legend,Bot*%
%TF.FilePolarity,Positive*%
%FSLAX46Y46*%
G04 Gerber Fmt 4.6, Leading zero omitted, Abs format (unit mm)*
G04 Created by KiCad (PCBNEW (6.0.7)) date 2023-02-04 21:02:38*
%MOMM*%
%LPD*%
G01*
G04 APERTURE LIST*
%ADD10C,0.152400*%
%ADD11C,0.125000*%
%ADD12C,0.200000*%
%ADD13C,0.120000*%
G04 APERTURE END LIST*
D10*
X139559695Y-100927504D02*
X139172647Y-100656571D01*
X139559695Y-100463047D02*
X138746895Y-100463047D01*
X138746895Y-100772685D01*
X138785600Y-100850095D01*
X138824304Y-100888800D01*
X138901714Y-100927504D01*
X139017828Y-100927504D01*
X139095238Y-100888800D01*
X139133942Y-100850095D01*
X139172647Y-100772685D01*
X139172647Y-100463047D01*
X139133942Y-101275847D02*
X139133942Y-101546780D01*
X139559695Y-101662895D02*
X139559695Y-101275847D01*
X138746895Y-101275847D01*
X138746895Y-101662895D01*
X139520990Y-101972533D02*
X139559695Y-102088647D01*
X139559695Y-102282171D01*
X139520990Y-102359580D01*
X139482285Y-102398285D01*
X139404876Y-102436990D01*
X139327466Y-102436990D01*
X139250057Y-102398285D01*
X139211352Y-102359580D01*
X139172647Y-102282171D01*
X139133942Y-102127352D01*
X139095238Y-102049942D01*
X139056533Y-102011238D01*
X138979123Y-101972533D01*
X138901714Y-101972533D01*
X138824304Y-102011238D01*
X138785600Y-102049942D01*
X138746895Y-102127352D01*
X138746895Y-102320876D01*
X138785600Y-102436990D01*
X139133942Y-102785333D02*
X139133942Y-103056266D01*
X139559695Y-103172380D02*
X139559695Y-102785333D01*
X138746895Y-102785333D01*
X138746895Y-103172380D01*
X138746895Y-103404609D02*
X138746895Y-103869066D01*
X139559695Y-103636838D02*
X138746895Y-103636838D01*
X139133942Y-108624914D02*
X139172647Y-108741028D01*
X139211352Y-108779733D01*
X139288761Y-108818438D01*
X139404876Y-108818438D01*
X139482285Y-108779733D01*
X139520990Y-108741028D01*
X139559695Y-108663619D01*
X139559695Y-108353980D01*
X138746895Y-108353980D01*
X138746895Y-108624914D01*
X138785600Y-108702323D01*
X138824304Y-108741028D01*
X138901714Y-108779733D01*
X138979123Y-108779733D01*
X139056533Y-108741028D01*
X139095238Y-108702323D01*
X139133942Y-108624914D01*
X139133942Y-108353980D01*
X138746895Y-109321600D02*
X138746895Y-109476419D01*
X138785600Y-109553828D01*
X138863009Y-109631238D01*
X139017828Y-109669942D01*
X139288761Y-109669942D01*
X139443580Y-109631238D01*
X139520990Y-109553828D01*
X139559695Y-109476419D01*
X139559695Y-109321600D01*
X139520990Y-109244190D01*
X139443580Y-109166780D01*
X139288761Y-109128076D01*
X139017828Y-109128076D01*
X138863009Y-109166780D01*
X138785600Y-109244190D01*
X138746895Y-109321600D01*
X138746895Y-110173104D02*
X138746895Y-110327923D01*
X138785600Y-110405333D01*
X138863009Y-110482742D01*
X139017828Y-110521447D01*
X139288761Y-110521447D01*
X139443580Y-110482742D01*
X139520990Y-110405333D01*
X139559695Y-110327923D01*
X139559695Y-110173104D01*
X139520990Y-110095695D01*
X139443580Y-110018285D01*
X139288761Y-109979580D01*
X139017828Y-109979580D01*
X138863009Y-110018285D01*
X138785600Y-110095695D01*
X138746895Y-110173104D01*
X138746895Y-110753676D02*
X138746895Y-111218133D01*
X139559695Y-110985904D02*
X138746895Y-110985904D01*
D11*
%TO.C,D1*%
X123670190Y-112152952D02*
X123170190Y-112152952D01*
X123170190Y-112272000D01*
X123194000Y-112343428D01*
X123241619Y-112391047D01*
X123289238Y-112414857D01*
X123384476Y-112438666D01*
X123455904Y-112438666D01*
X123551142Y-112414857D01*
X123598761Y-112391047D01*
X123646380Y-112343428D01*
X123670190Y-112272000D01*
X123670190Y-112152952D01*
X123670190Y-112914857D02*
X123670190Y-112629142D01*
X123670190Y-112772000D02*
X123170190Y-112772000D01*
X123241619Y-112724380D01*
X123289238Y-112676761D01*
X123313047Y-112629142D01*
%TO.C,R1*%
X130528190Y-109390666D02*
X130290095Y-109224000D01*
X130528190Y-109104952D02*
X130028190Y-109104952D01*
X130028190Y-109295428D01*
X130052000Y-109343047D01*
X130075809Y-109366857D01*
X130123428Y-109390666D01*
X130194857Y-109390666D01*
X130242476Y-109366857D01*
X130266285Y-109343047D01*
X130290095Y-109295428D01*
X130290095Y-109104952D01*
X130528190Y-109866857D02*
X130528190Y-109581142D01*
X130528190Y-109724000D02*
X130028190Y-109724000D01*
X130099619Y-109676380D01*
X130147238Y-109628761D01*
X130171047Y-109581142D01*
%TO.C,R6*%
X125194190Y-111930666D02*
X124956095Y-111764000D01*
X125194190Y-111644952D02*
X124694190Y-111644952D01*
X124694190Y-111835428D01*
X124718000Y-111883047D01*
X124741809Y-111906857D01*
X124789428Y-111930666D01*
X124860857Y-111930666D01*
X124908476Y-111906857D01*
X124932285Y-111883047D01*
X124956095Y-111835428D01*
X124956095Y-111644952D01*
X124694190Y-112359238D02*
X124694190Y-112264000D01*
X124718000Y-112216380D01*
X124741809Y-112192571D01*
X124813238Y-112144952D01*
X124908476Y-112121142D01*
X125098952Y-112121142D01*
X125146571Y-112144952D01*
X125170380Y-112168761D01*
X125194190Y-112216380D01*
X125194190Y-112311619D01*
X125170380Y-112359238D01*
X125146571Y-112383047D01*
X125098952Y-112406857D01*
X124979904Y-112406857D01*
X124932285Y-112383047D01*
X124908476Y-112359238D01*
X124884666Y-112311619D01*
X124884666Y-112216380D01*
X124908476Y-112168761D01*
X124932285Y-112144952D01*
X124979904Y-112121142D01*
%TO.C,C3*%
X123876571Y-102278666D02*
X123900380Y-102254857D01*
X123924190Y-102183428D01*
X123924190Y-102135809D01*
X123900380Y-102064380D01*
X123852761Y-102016761D01*
X123805142Y-101992952D01*
X123709904Y-101969142D01*
X123638476Y-101969142D01*
X123543238Y-101992952D01*
X123495619Y-102016761D01*
X123448000Y-102064380D01*
X123424190Y-102135809D01*
X123424190Y-102183428D01*
X123448000Y-102254857D01*
X123471809Y-102278666D01*
X123424190Y-102445333D02*
X123424190Y-102754857D01*
X123614666Y-102588190D01*
X123614666Y-102659619D01*
X123638476Y-102707238D01*
X123662285Y-102731047D01*
X123709904Y-102754857D01*
X123828952Y-102754857D01*
X123876571Y-102731047D01*
X123900380Y-102707238D01*
X123924190Y-102659619D01*
X123924190Y-102516761D01*
X123900380Y-102469142D01*
X123876571Y-102445333D01*
%TO.C,C4*%
X135814571Y-101008666D02*
X135838380Y-100984857D01*
X135862190Y-100913428D01*
X135862190Y-100865809D01*
X135838380Y-100794380D01*
X135790761Y-100746761D01*
X135743142Y-100722952D01*
X135647904Y-100699142D01*
X135576476Y-100699142D01*
X135481238Y-100722952D01*
X135433619Y-100746761D01*
X135386000Y-100794380D01*
X135362190Y-100865809D01*
X135362190Y-100913428D01*
X135386000Y-100984857D01*
X135409809Y-101008666D01*
X135528857Y-101437238D02*
X135862190Y-101437238D01*
X135338380Y-101318190D02*
X135695523Y-101199142D01*
X135695523Y-101508666D01*
%TO.C,R2*%
X134084190Y-109390666D02*
X133846095Y-109224000D01*
X134084190Y-109104952D02*
X133584190Y-109104952D01*
X133584190Y-109295428D01*
X133608000Y-109343047D01*
X133631809Y-109366857D01*
X133679428Y-109390666D01*
X133750857Y-109390666D01*
X133798476Y-109366857D01*
X133822285Y-109343047D01*
X133846095Y-109295428D01*
X133846095Y-109104952D01*
X133631809Y-109581142D02*
X133608000Y-109604952D01*
X133584190Y-109652571D01*
X133584190Y-109771619D01*
X133608000Y-109819238D01*
X133631809Y-109843047D01*
X133679428Y-109866857D01*
X133727047Y-109866857D01*
X133798476Y-109843047D01*
X134084190Y-109557333D01*
X134084190Y-109866857D01*
D12*
%TO.C,J1*%
X121864000Y-101910000D02*
G75*
G03*
X121864000Y-101910000I-100000J0D01*
G01*
D13*
%TO.C,SW2*%
X140032000Y-107528000D02*
X140152000Y-107528000D01*
X141162000Y-107528000D02*
X142302000Y-107528000D01*
X143312000Y-107528000D02*
X143432000Y-107528000D01*
X140152000Y-111928000D02*
X140032000Y-111928000D01*
X143432000Y-111928000D02*
X143312000Y-111928000D01*
X140032000Y-111928000D02*
X140032000Y-107528000D01*
X142302000Y-111928000D02*
X141162000Y-111928000D01*
X143432000Y-107528000D02*
X143432000Y-111928000D01*
%TO.C,D1*%
X122709000Y-111290000D02*
X122709000Y-109005000D01*
X124179000Y-109005000D02*
X124179000Y-111290000D01*
X122709000Y-109005000D02*
X124179000Y-109005000D01*
%TO.C,R1*%
X130795500Y-109711258D02*
X130795500Y-109236742D01*
X131840500Y-109711258D02*
X131840500Y-109236742D01*
%TO.C,U1*%
X131450000Y-104756000D02*
X131450000Y-103496000D01*
X127690000Y-97936000D02*
X131450000Y-97936000D01*
X125440000Y-104756000D02*
X131450000Y-104756000D01*
X131450000Y-97936000D02*
X131450000Y-99196000D01*
%TO.C,R6*%
X124588000Y-110336359D02*
X124588000Y-110643641D01*
X125348000Y-110336359D02*
X125348000Y-110643641D01*
%TO.C,C3*%
X124100000Y-102254164D02*
X124100000Y-102469836D01*
X124820000Y-102254164D02*
X124820000Y-102469836D01*
%TO.C,C4*%
X134980000Y-101199836D02*
X134980000Y-100984164D01*
X134260000Y-101199836D02*
X134260000Y-100984164D01*
%TO.C,SW1*%
X140152000Y-104308000D02*
X140032000Y-104308000D01*
X143312000Y-99908000D02*
X143432000Y-99908000D01*
X143432000Y-99908000D02*
X143432000Y-104308000D01*
X142302000Y-104308000D02*
X141162000Y-104308000D01*
X143432000Y-104308000D02*
X143312000Y-104308000D01*
X141162000Y-99908000D02*
X142302000Y-99908000D01*
X140032000Y-99908000D02*
X140152000Y-99908000D01*
X140032000Y-104308000D02*
X140032000Y-99908000D01*
%TO.C,R2*%
X133364500Y-109711258D02*
X133364500Y-109236742D01*
X132319500Y-109711258D02*
X132319500Y-109236742D01*
%TD*%
M02*
