M48
; DRILL file {KiCad (6.0.7)} date Sat Feb  4 21:02:36 2023
; FORMAT={-:-/ absolute / metric / decimal}
; #@! TF.CreationDate,2023-02-04T21:02:36-08:00
; #@! TF.GenerationSoftware,Kicad,Pcbnew,(6.0.7)
; #@! TF.FileFunction,MixedPlating,1,4
FMAT,2
METRIC
; #@! TA.AperFunction,Plated,PTH,ViaDrill
T1C0.330
; #@! TA.AperFunction,Plated,PTH,ComponentDrill
T2C1.000
; #@! TA.AperFunction,Plated,PTH,ComponentDrill
T3C1.050
; #@! TA.AperFunction,NonPlated,NPTH,ComponentDrill
T4C1.250
%
G90
G05
T1
X121.92Y-100.584
X121.92Y-101.6
X122.428Y-109.728
X122.936Y-104.394
X125.73Y-109.982
X126.238Y-106.426
X127.508Y-110.236
X128.27Y-100.33
X128.27Y-101.346
X128.27Y-102.362
X129.54Y-109.982
X131.064Y-100.33
X131.064Y-101.346
X131.064Y-102.362
X131.318Y-111.506
X132.588Y-111.506
X134.62Y-102.362
X134.62Y-108.966
X136.906Y-100.33
X136.906Y-101.854
X136.906Y-103.632
X136.906Y-107.442
X136.906Y-108.966
X136.906Y-110.49
X141.478Y-99.822
X141.478Y-100.838
X142.494Y-106.172
X143.764Y-102.108
X143.764Y-108.204
X144.272Y-100.33
X144.272Y-110.49
X145.034Y-106.68
X145.036Y-104.064
T2
X120.464Y-101.91
X120.464Y-104.41
X120.464Y-106.41
X120.464Y-108.91
T4
X118.364Y-103.16
X118.364Y-107.66
T3
G00X117.589Y-99.71
M15
G01X119.139Y-99.71
M16
G05
G00X117.589Y-111.11
M15
G01X119.139Y-111.11
M16
G05
T0
M30
