%TF.GenerationSoftware,KiCad,Pcbnew,(6.0.7)*%
%TF.CreationDate,2023-02-04T21:02:38-08:00*%
%TF.ProjectId,ESP_Module,4553505f-4d6f-4647-956c-652e6b696361,rev?*%
%TF.SameCoordinates,Original*%
%TF.FileFunction,Soldermask,Bot*%
%TF.FilePolarity,Negative*%
%FSLAX46Y46*%
G04 Gerber Fmt 4.6, Leading zero omitted, Abs format (unit mm)*
G04 Created by KiCad (PCBNEW (6.0.7)) date 2023-02-04 21:02:38*
%MOMM*%
%LPD*%
G01*
G04 APERTURE LIST*
G04 Aperture macros list*
%AMRoundRect*
0 Rectangle with rounded corners*
0 $1 Rounding radius*
0 $2 $3 $4 $5 $6 $7 $8 $9 X,Y pos of 4 corners*
0 Add a 4 corners polygon primitive as box body*
4,1,4,$2,$3,$4,$5,$6,$7,$8,$9,$2,$3,0*
0 Add four circle primitives for the rounded corners*
1,1,$1+$1,$2,$3*
1,1,$1+$1,$4,$5*
1,1,$1+$1,$6,$7*
1,1,$1+$1,$8,$9*
0 Add four rect primitives between the rounded corners*
20,1,$1+$1,$2,$3,$4,$5,0*
20,1,$1+$1,$4,$5,$6,$7,0*
20,1,$1+$1,$6,$7,$8,$9,0*
20,1,$1+$1,$8,$9,$2,$3,0*%
G04 Aperture macros list end*
%ADD10C,1.250000*%
%ADD11R,1.508000X1.508000*%
%ADD12C,1.508000*%
%ADD13O,3.150000X1.575000*%
%ADD14R,0.650000X1.050000*%
%ADD15RoundRect,0.218750X-0.256250X0.218750X-0.256250X-0.218750X0.256250X-0.218750X0.256250X0.218750X0*%
%ADD16RoundRect,0.200000X0.275000X-0.200000X0.275000X0.200000X-0.275000X0.200000X-0.275000X-0.200000X0*%
%ADD17R,1.000000X0.380000*%
%ADD18R,1.150000X0.700000*%
%ADD19R,2.000000X1.500000*%
%ADD20R,2.000000X3.800000*%
%ADD21RoundRect,0.135000X-0.185000X0.135000X-0.185000X-0.135000X0.185000X-0.135000X0.185000X0.135000X0*%
%ADD22RoundRect,0.140000X-0.170000X0.140000X-0.170000X-0.140000X0.170000X-0.140000X0.170000X0.140000X0*%
%ADD23RoundRect,0.140000X0.170000X-0.140000X0.170000X0.140000X-0.170000X0.140000X-0.170000X-0.140000X0*%
G04 APERTURE END LIST*
D10*
%TO.C,J1*%
X118364000Y-107660000D03*
X118364000Y-103160000D03*
D11*
X120464000Y-101910000D03*
D12*
X120464000Y-104410000D03*
X120464000Y-106410000D03*
X120464000Y-108910000D03*
D13*
X118364000Y-99710000D03*
X118364000Y-111110000D03*
%TD*%
D14*
%TO.C,SW2*%
X140657000Y-111803000D03*
X140657000Y-107653000D03*
X142807000Y-107653000D03*
X142807000Y-111803000D03*
%TD*%
D15*
%TO.C,D1*%
X123444000Y-109702500D03*
X123444000Y-111277500D03*
%TD*%
D16*
%TO.C,R1*%
X131318000Y-110299000D03*
X131318000Y-108649000D03*
%TD*%
D17*
%TO.C,P1*%
X146264000Y-108160000D03*
X146264000Y-107660000D03*
X146264000Y-107160000D03*
X146264000Y-106660000D03*
X146264000Y-106160000D03*
X146264000Y-105660000D03*
X146264000Y-105160000D03*
X146264000Y-104660000D03*
X146264000Y-104160000D03*
X146264000Y-103660000D03*
X146264000Y-103160000D03*
X146264000Y-102660000D03*
D18*
X145424000Y-108830000D03*
%TD*%
D19*
%TO.C,U1*%
X126390000Y-103646000D03*
D20*
X132690000Y-101346000D03*
D19*
X126390000Y-101346000D03*
X126390000Y-99046000D03*
%TD*%
D21*
%TO.C,R6*%
X124968000Y-109980000D03*
X124968000Y-111000000D03*
%TD*%
D22*
%TO.C,C3*%
X124460000Y-102842000D03*
X124460000Y-101882000D03*
%TD*%
D23*
%TO.C,C4*%
X134620000Y-101572000D03*
X134620000Y-100612000D03*
%TD*%
D14*
%TO.C,SW1*%
X140657000Y-104183000D03*
X140657000Y-100033000D03*
X142807000Y-100033000D03*
X142807000Y-104183000D03*
%TD*%
D16*
%TO.C,R2*%
X132842000Y-110299000D03*
X132842000Y-108649000D03*
%TD*%
M02*
