%TF.GenerationSoftware,KiCad,Pcbnew,(6.0.7)*%
%TF.CreationDate,2023-02-04T21:02:38-08:00*%
%TF.ProjectId,ESP_Module,4553505f-4d6f-4647-956c-652e6b696361,rev?*%
%TF.SameCoordinates,Original*%
%TF.FileFunction,Copper,L1,Top*%
%TF.FilePolarity,Positive*%
%FSLAX46Y46*%
G04 Gerber Fmt 4.6, Leading zero omitted, Abs format (unit mm)*
G04 Created by KiCad (PCBNEW (6.0.7)) date 2023-02-04 21:02:38*
%MOMM*%
%LPD*%
G01*
G04 APERTURE LIST*
G04 Aperture macros list*
%AMRoundRect*
0 Rectangle with rounded corners*
0 $1 Rounding radius*
0 $2 $3 $4 $5 $6 $7 $8 $9 X,Y pos of 4 corners*
0 Add a 4 corners polygon primitive as box body*
4,1,4,$2,$3,$4,$5,$6,$7,$8,$9,$2,$3,0*
0 Add four circle primitives for the rounded corners*
1,1,$1+$1,$2,$3*
1,1,$1+$1,$4,$5*
1,1,$1+$1,$6,$7*
1,1,$1+$1,$8,$9*
0 Add four rect primitives between the rounded corners*
20,1,$1+$1,$2,$3,$4,$5,0*
20,1,$1+$1,$4,$5,$6,$7,0*
20,1,$1+$1,$6,$7,$8,$9,0*
20,1,$1+$1,$8,$9,$2,$3,0*%
%AMFreePoly0*
4,1,15,0.000002,0.605000,0.600000,0.605000,0.603536,0.603536,0.605000,0.600000,0.605000,-0.600000,0.603536,-0.603536,0.600000,-0.605000,-0.600000,-0.605000,-0.603536,-0.603536,-0.605000,-0.600000,-0.605001,0.000000,-0.603536,0.003536,-0.003536,0.603536,0.000000,0.605001,0.000002,0.605000,0.000002,0.605000,$1*%
G04 Aperture macros list end*
%TA.AperFunction,ComponentPad*%
%ADD10R,1.508000X1.508000*%
%TD*%
%TA.AperFunction,ComponentPad*%
%ADD11C,1.508000*%
%TD*%
%TA.AperFunction,ComponentPad*%
%ADD12O,3.150000X1.575000*%
%TD*%
%TA.AperFunction,SMDPad,CuDef*%
%ADD13R,0.800000X0.400000*%
%TD*%
%TA.AperFunction,SMDPad,CuDef*%
%ADD14R,0.400000X0.800000*%
%TD*%
%TA.AperFunction,SMDPad,CuDef*%
%ADD15R,1.200000X1.200000*%
%TD*%
%TA.AperFunction,SMDPad,CuDef*%
%ADD16FreePoly0,0.000000*%
%TD*%
%TA.AperFunction,SMDPad,CuDef*%
%ADD17R,0.800000X0.800000*%
%TD*%
%TA.AperFunction,SMDPad,CuDef*%
%ADD18RoundRect,0.135000X0.185000X-0.135000X0.185000X0.135000X-0.185000X0.135000X-0.185000X-0.135000X0*%
%TD*%
%TA.AperFunction,SMDPad,CuDef*%
%ADD19RoundRect,0.140000X0.170000X-0.140000X0.170000X0.140000X-0.170000X0.140000X-0.170000X-0.140000X0*%
%TD*%
%TA.AperFunction,SMDPad,CuDef*%
%ADD20RoundRect,0.140000X-0.170000X0.140000X-0.170000X-0.140000X0.170000X-0.140000X0.170000X0.140000X0*%
%TD*%
%TA.AperFunction,SMDPad,CuDef*%
%ADD21RoundRect,0.135000X-0.185000X0.135000X-0.185000X-0.135000X0.185000X-0.135000X0.185000X0.135000X0*%
%TD*%
%TA.AperFunction,SMDPad,CuDef*%
%ADD22RoundRect,0.200000X0.275000X-0.200000X0.275000X0.200000X-0.275000X0.200000X-0.275000X-0.200000X0*%
%TD*%
%TA.AperFunction,SMDPad,CuDef*%
%ADD23R,1.000000X0.380000*%
%TD*%
%TA.AperFunction,SMDPad,CuDef*%
%ADD24R,1.150000X0.700000*%
%TD*%
%TA.AperFunction,ViaPad*%
%ADD25C,0.685800*%
%TD*%
%TA.AperFunction,Conductor*%
%ADD26C,0.254000*%
%TD*%
%TA.AperFunction,Conductor*%
%ADD27C,0.508000*%
%TD*%
G04 APERTURE END LIST*
D10*
%TO.P,J1,1,VCC*%
%TO.N,+5V*%
X120464000Y-101910000D03*
D11*
%TO.P,J1,2,D-*%
%TO.N,USB_D-*%
X120464000Y-104410000D03*
%TO.P,J1,3,D+*%
%TO.N,USB_D+*%
X120464000Y-106410000D03*
%TO.P,J1,4,GND*%
%TO.N,GND*%
X120464000Y-108910000D03*
D12*
%TO.P,J1,S1,SHIELD*%
X118364000Y-99710000D03*
%TO.P,J1,S2,SHIELD*%
X118364000Y-111110000D03*
%TD*%
D13*
%TO.P,U2,1,GND*%
%TO.N,GND*%
X124572000Y-99460000D03*
%TO.P,U2,2,GND*%
X124572000Y-100310000D03*
%TO.P,U2,3,3V3*%
%TO.N,+3V3*%
X124572000Y-101160000D03*
%TO.P,U2,4,IO0*%
%TO.N,MCU_BOOT*%
X124572000Y-102010000D03*
%TO.P,U2,5,IO1*%
%TO.N,unconnected-(U2-Pad5)*%
X124572000Y-102860000D03*
%TO.P,U2,6,IO2*%
%TO.N,unconnected-(U2-Pad6)*%
X124572000Y-103710000D03*
%TO.P,U2,7,IO3*%
%TO.N,unconnected-(U2-Pad7)*%
X124572000Y-104560000D03*
%TO.P,U2,8,IO4*%
%TO.N,unconnected-(U2-Pad8)*%
X124572000Y-105410000D03*
%TO.P,U2,9,IO5*%
%TO.N,unconnected-(U2-Pad9)*%
X124572000Y-106260000D03*
%TO.P,U2,10,IO6*%
%TO.N,unconnected-(U2-Pad10)*%
X124572000Y-107110000D03*
%TO.P,U2,11,IO7*%
%TO.N,unconnected-(U2-Pad11)*%
X124572000Y-107960000D03*
%TO.P,U2,12,IO8*%
%TO.N,unconnected-(U2-Pad12)*%
X124572000Y-108810000D03*
%TO.P,U2,13,IO9*%
%TO.N,unconnected-(U2-Pad13)*%
X124572000Y-109660000D03*
%TO.P,U2,14,IO10*%
%TO.N,unconnected-(U2-Pad14)*%
X124572000Y-110510000D03*
%TO.P,U2,15,IO11*%
%TO.N,unconnected-(U2-Pad15)*%
X124572000Y-111360000D03*
D14*
%TO.P,U2,16,IO12*%
%TO.N,unconnected-(U2-Pad16)*%
X125622000Y-112410000D03*
%TO.P,U2,17,IO13*%
%TO.N,unconnected-(U2-Pad17)*%
X126472000Y-112410000D03*
%TO.P,U2,18,IO14*%
%TO.N,unconnected-(U2-Pad18)*%
X127322000Y-112410000D03*
%TO.P,U2,19,IO15*%
%TO.N,unconnected-(U2-Pad19)*%
X128172000Y-112410000D03*
%TO.P,U2,20,IO16*%
%TO.N,unconnected-(U2-Pad20)*%
X129022000Y-112410000D03*
%TO.P,U2,21,IO17*%
%TO.N,unconnected-(U2-Pad21)*%
X129872000Y-112410000D03*
%TO.P,U2,22,IO18*%
%TO.N,unconnected-(U2-Pad22)*%
X130722000Y-112410000D03*
%TO.P,U2,23,IO19*%
%TO.N,/MCU_D-*%
X131572000Y-112410000D03*
%TO.P,U2,24,IO20*%
%TO.N,/MCU_D+*%
X132422000Y-112410000D03*
%TO.P,U2,25,IO21*%
%TO.N,unconnected-(U2-Pad25)*%
X133272000Y-112410000D03*
%TO.P,U2,26,IO26*%
%TO.N,unconnected-(U2-Pad26)*%
X134122000Y-112410000D03*
%TO.P,U2,27,IO47*%
%TO.N,unconnected-(U2-Pad27)*%
X134972000Y-112410000D03*
%TO.P,U2,28,IO33*%
%TO.N,unconnected-(U2-Pad28)*%
X135822000Y-112410000D03*
%TO.P,U2,29,IO34*%
%TO.N,unconnected-(U2-Pad29)*%
X136672000Y-112410000D03*
%TO.P,U2,30,IO48*%
%TO.N,unconnected-(U2-Pad30)*%
X137522000Y-112410000D03*
D13*
%TO.P,U2,31,IO35*%
%TO.N,unconnected-(U2-Pad31)*%
X138572000Y-111360000D03*
%TO.P,U2,32,IO36*%
%TO.N,unconnected-(U2-Pad32)*%
X138572000Y-110510000D03*
%TO.P,U2,33,IO37*%
%TO.N,unconnected-(U2-Pad33)*%
X138572000Y-109660000D03*
%TO.P,U2,34,IO38*%
%TO.N,unconnected-(U2-Pad34)*%
X138572000Y-108810000D03*
%TO.P,U2,35,IO39*%
%TO.N,unconnected-(U2-Pad35)*%
X138572000Y-107960000D03*
%TO.P,U2,36,IO40*%
%TO.N,unconnected-(U2-Pad36)*%
X138572000Y-107110000D03*
%TO.P,U2,37,IO41*%
%TO.N,unconnected-(U2-Pad37)*%
X138572000Y-106260000D03*
%TO.P,U2,38,IO42*%
%TO.N,unconnected-(U2-Pad38)*%
X138572000Y-105410000D03*
%TO.P,U2,39,TXD0*%
%TO.N,unconnected-(U2-Pad39)*%
X138572000Y-104560000D03*
%TO.P,U2,40,RXD0*%
%TO.N,unconnected-(U2-Pad40)*%
X138572000Y-103710000D03*
%TO.P,U2,41,IO45*%
%TO.N,unconnected-(U2-Pad41)*%
X138572000Y-102860000D03*
%TO.P,U2,42,GND*%
%TO.N,GND*%
X138572000Y-102010000D03*
%TO.P,U2,43,GND*%
X138572000Y-101160000D03*
%TO.P,U2,44,IO46*%
%TO.N,unconnected-(U2-Pad44)*%
X138572000Y-100310000D03*
%TO.P,U2,45,EN*%
%TO.N,MCU_EN*%
X138572000Y-99460000D03*
D14*
%TO.P,U2,46,GND*%
%TO.N,GND*%
X137522000Y-98410000D03*
%TO.P,U2,47,GND*%
X136672000Y-98410000D03*
%TO.P,U2,48,GND*%
X135822000Y-98410000D03*
%TO.P,U2,49,GND*%
X134972000Y-98410000D03*
%TO.P,U2,50,GND*%
X134122000Y-98410000D03*
%TO.P,U2,51,GND*%
X133272000Y-98410000D03*
%TO.P,U2,52,GND*%
X132422000Y-98410000D03*
%TO.P,U2,53,GND*%
X131572000Y-98410000D03*
%TO.P,U2,54,GND*%
X130722000Y-98410000D03*
%TO.P,U2,55,GND*%
X129872000Y-98410000D03*
%TO.P,U2,56,GND*%
X129022000Y-98410000D03*
%TO.P,U2,57,GND*%
X128172000Y-98410000D03*
%TO.P,U2,58,GND*%
X127322000Y-98410000D03*
%TO.P,U2,59,GND*%
X126472000Y-98410000D03*
%TO.P,U2,60,GND*%
X125622000Y-98410000D03*
D15*
%TO.P,U2,61,GND*%
X131572000Y-105410000D03*
D16*
%TO.P,U2,61_1,GND*%
X129922000Y-103760000D03*
D15*
%TO.P,U2,61_2,GND*%
X131572000Y-103760000D03*
%TO.P,U2,61_3,GND*%
X133222000Y-103760000D03*
%TO.P,U2,61_4,GND*%
X133222000Y-105410000D03*
%TO.P,U2,61_5,GND*%
X133222000Y-107060000D03*
%TO.P,U2,61_6,GND*%
X131572000Y-107060000D03*
%TO.P,U2,61_7,GND*%
X129922000Y-107060000D03*
%TO.P,U2,61_8,GND*%
X129922000Y-105410000D03*
D17*
%TO.P,U2,62,GND*%
X124572000Y-98410000D03*
%TO.P,U2,63,GND*%
X124572000Y-112410000D03*
%TO.P,U2,64,GND*%
X138572000Y-112410000D03*
%TO.P,U2,65,GND*%
X138572000Y-98410000D03*
%TD*%
D18*
%TO.P,R4,1*%
%TO.N,Net-(P1-PadA5)*%
X143510000Y-104396000D03*
%TO.P,R4,2*%
%TO.N,GND*%
X143510000Y-103376000D03*
%TD*%
D19*
%TO.P,C2,1*%
%TO.N,+3V3*%
X122936000Y-100556000D03*
%TO.P,C2,2*%
%TO.N,GND*%
X122936000Y-99596000D03*
%TD*%
D20*
%TO.P,C1,1*%
%TO.N,+3V3*%
X122936000Y-101628000D03*
%TO.P,C1,2*%
%TO.N,GND*%
X122936000Y-102588000D03*
%TD*%
D21*
%TO.P,R5,1*%
%TO.N,Net-(P1-PadB5)*%
X143510000Y-106170000D03*
%TO.P,R5,2*%
%TO.N,GND*%
X143510000Y-107190000D03*
%TD*%
D22*
%TO.P,R3,1*%
%TO.N,+3V3*%
X140462000Y-100901000D03*
%TO.P,R3,2*%
%TO.N,MCU_EN*%
X140462000Y-99251000D03*
%TD*%
D23*
%TO.P,P1,B1,GND*%
%TO.N,GND*%
X146264000Y-102660000D03*
%TO.P,P1,B2,TX2+*%
%TO.N,unconnected-(P1-PadB2)*%
X146264000Y-103160000D03*
%TO.P,P1,B3,TX2-*%
%TO.N,unconnected-(P1-PadB3)*%
X146264000Y-103660000D03*
%TO.P,P1,B4,VBUS*%
%TO.N,+5V*%
X146264000Y-104160000D03*
%TO.P,P1,B5,VCONN*%
%TO.N,Net-(P1-PadB5)*%
X146264000Y-104660000D03*
%TO.P,P1,B8,SBU2*%
%TO.N,unconnected-(P1-PadB8)*%
X146264000Y-106160000D03*
%TO.P,P1,B9,VBUS*%
%TO.N,+5V*%
X146264000Y-106660000D03*
%TO.P,P1,B10,RX1-*%
%TO.N,unconnected-(P1-PadB10)*%
X146264000Y-107160000D03*
%TO.P,P1,B11,RX1+*%
%TO.N,unconnected-(P1-PadB11)*%
X146264000Y-107660000D03*
%TO.P,P1,B12,GND*%
%TO.N,GND*%
X146264000Y-108160000D03*
D24*
%TO.P,P1,S1,SHIELD*%
X145424000Y-101990000D03*
%TD*%
D25*
%TO.N,GND*%
X143764000Y-102108000D03*
X143764000Y-108204000D03*
%TO.N,Net-(P1-PadA5)*%
X142494000Y-106172000D03*
%TO.N,+3V3*%
X121920000Y-100584000D03*
X134620000Y-102362000D03*
X128270000Y-102362000D03*
X128270000Y-101346000D03*
X131064000Y-101346000D03*
X131064000Y-102362000D03*
X121920000Y-101600000D03*
X125730000Y-109982000D03*
X141478000Y-100838000D03*
X131064000Y-100330000D03*
X128270000Y-100330000D03*
%TO.N,GND*%
X122428000Y-109728000D03*
X126238000Y-106426000D03*
X136906000Y-103632000D03*
X136906000Y-100330000D03*
X134620000Y-108966000D03*
X136906000Y-101854000D03*
X129540000Y-109982000D03*
X144272000Y-110490000D03*
X136906000Y-108966000D03*
X144272000Y-100330000D03*
X136906000Y-110490000D03*
X136906000Y-107442000D03*
X122936000Y-104394000D03*
%TO.N,+5V*%
X145036051Y-104063600D03*
X145034000Y-106680000D03*
%TO.N,/MCU_D-*%
X131318000Y-111506000D03*
%TO.N,/MCU_D+*%
X132588000Y-111506000D03*
%TO.N,MCU_EN*%
X141478000Y-99822000D03*
%TO.N,MCU_BOOT*%
X127508000Y-110236000D03*
%TD*%
D26*
%TO.N,Net-(P1-PadA5)*%
X142494000Y-106172000D02*
X142494000Y-105412000D01*
X142494000Y-105412000D02*
X143510000Y-104396000D01*
%TO.N,+3V3*%
X123004000Y-101160000D02*
X122936000Y-101092000D01*
X124572000Y-101160000D02*
X123004000Y-101160000D01*
X122936000Y-101092000D02*
X122936000Y-101628000D01*
X122936000Y-100556000D02*
X122936000Y-101092000D01*
X121948000Y-101628000D02*
X121920000Y-101600000D01*
X121948000Y-100556000D02*
X121920000Y-100584000D01*
X141415000Y-100901000D02*
X141478000Y-100838000D01*
X122936000Y-100556000D02*
X121948000Y-100556000D01*
X140462000Y-100901000D02*
X141415000Y-100901000D01*
X122936000Y-101628000D02*
X121948000Y-101628000D01*
D27*
%TO.N,GND*%
X131572000Y-103760000D02*
X129922000Y-103760000D01*
D26*
X145594000Y-101990000D02*
X146264000Y-102660000D01*
D27*
X129922000Y-103760000D02*
X129796000Y-103886000D01*
X129922000Y-103760000D02*
X129922000Y-105410000D01*
D26*
X145424000Y-101990000D02*
X145594000Y-101990000D01*
D27*
X129796000Y-103886000D02*
X127762000Y-103886000D01*
D26*
X146264000Y-108160000D02*
X144570000Y-108160000D01*
D27*
X129922000Y-103760000D02*
X129922000Y-101726000D01*
D26*
%TO.N,+5V*%
X145132451Y-104160000D02*
X145036051Y-104063600D01*
X146264000Y-104160000D02*
X145132451Y-104160000D01*
X145054000Y-106660000D02*
X145034000Y-106680000D01*
X146264000Y-106660000D02*
X145054000Y-106660000D01*
%TO.N,Net-(P1-PadB5)*%
X146264000Y-104660000D02*
X145020000Y-104660000D01*
X145020000Y-104660000D02*
X143510000Y-106170000D01*
%TO.N,/MCU_D-*%
X131572000Y-112410000D02*
X131572000Y-111760000D01*
X131572000Y-111760000D02*
X131318000Y-111506000D01*
%TO.N,/MCU_D+*%
X132422000Y-111672000D02*
X132588000Y-111506000D01*
X132422000Y-112410000D02*
X132422000Y-111672000D01*
%TO.N,MCU_EN*%
X140907000Y-99251000D02*
X141478000Y-99822000D01*
X140253000Y-99460000D02*
X140462000Y-99251000D01*
X140462000Y-99251000D02*
X140907000Y-99251000D01*
X138572000Y-99460000D02*
X140253000Y-99460000D01*
%TO.N,MCU_BOOT*%
X127508000Y-104688000D02*
X124830000Y-102010000D01*
X127508000Y-110236000D02*
X127508000Y-104688000D01*
X124830000Y-102010000D02*
X124572000Y-102010000D01*
%TD*%
%TA.AperFunction,Conductor*%
%TO.N,GND*%
G36*
X123606121Y-97938502D02*
G01*
X123652614Y-97992158D01*
X123664000Y-98044500D01*
X123664000Y-98137885D01*
X123668475Y-98153124D01*
X123669865Y-98154329D01*
X123677548Y-98156000D01*
X125418479Y-98156000D01*
X125486600Y-98176002D01*
X125500992Y-98186776D01*
X125525865Y-98208329D01*
X125533548Y-98210000D01*
X137605885Y-98210000D01*
X137621124Y-98205526D01*
X137626355Y-98199488D01*
X137686081Y-98161104D01*
X137721580Y-98156000D01*
X139461884Y-98156000D01*
X139477123Y-98151525D01*
X139478328Y-98150135D01*
X139479999Y-98142452D01*
X139479999Y-98044500D01*
X139500001Y-97976379D01*
X139553657Y-97929886D01*
X139605999Y-97918500D01*
X146685500Y-97918500D01*
X146753621Y-97938502D01*
X146800114Y-97992158D01*
X146811500Y-98044500D01*
X146811500Y-101836000D01*
X146791498Y-101904121D01*
X146737842Y-101950614D01*
X146685500Y-101962000D01*
X146632999Y-101962000D01*
X146564878Y-101941998D01*
X146518385Y-101888342D01*
X146506999Y-101836000D01*
X146506999Y-101595331D01*
X146506629Y-101588510D01*
X146501105Y-101537648D01*
X146497479Y-101522396D01*
X146452324Y-101401946D01*
X146443786Y-101386351D01*
X146367285Y-101284276D01*
X146354724Y-101271715D01*
X146252649Y-101195214D01*
X146237054Y-101186676D01*
X146116606Y-101141522D01*
X146101351Y-101137895D01*
X146050486Y-101132369D01*
X146043672Y-101132000D01*
X145696115Y-101132000D01*
X145680876Y-101136475D01*
X145679671Y-101137865D01*
X145678000Y-101145548D01*
X145678000Y-102118000D01*
X145657998Y-102186121D01*
X145604342Y-102232614D01*
X145552000Y-102244000D01*
X144359116Y-102244000D01*
X144343877Y-102248475D01*
X144342672Y-102249865D01*
X144341001Y-102257548D01*
X144341001Y-102384669D01*
X144341371Y-102391490D01*
X144346895Y-102442352D01*
X144350521Y-102457604D01*
X144395676Y-102578054D01*
X144404214Y-102593649D01*
X144480715Y-102695724D01*
X144493276Y-102708285D01*
X144595351Y-102784786D01*
X144610946Y-102793324D01*
X144731394Y-102838478D01*
X144746649Y-102842105D01*
X144797514Y-102847631D01*
X144804328Y-102848000D01*
X145129500Y-102848000D01*
X145197621Y-102868002D01*
X145244114Y-102921658D01*
X145255500Y-102974000D01*
X145255500Y-103086616D01*
X145235498Y-103154737D01*
X145181842Y-103201230D01*
X145125537Y-103210426D01*
X145125537Y-103212200D01*
X144946565Y-103212200D01*
X144940112Y-103213572D01*
X144940108Y-103213572D01*
X144859035Y-103230805D01*
X144771505Y-103249410D01*
X144765475Y-103252095D01*
X144765474Y-103252095D01*
X144614036Y-103319519D01*
X144614034Y-103319520D01*
X144608006Y-103322204D01*
X144602665Y-103326084D01*
X144602664Y-103326085D01*
X144538061Y-103373022D01*
X144471193Y-103396881D01*
X144402042Y-103380800D01*
X144352561Y-103329886D01*
X144338000Y-103271086D01*
X144338000Y-103178527D01*
X144337807Y-103173597D01*
X144335637Y-103146032D01*
X144333335Y-103133428D01*
X144292019Y-102991217D01*
X144285770Y-102976778D01*
X144211146Y-102850595D01*
X144201499Y-102838159D01*
X144097841Y-102734501D01*
X144085405Y-102724854D01*
X143959222Y-102650230D01*
X143944783Y-102643981D01*
X143802564Y-102602662D01*
X143789977Y-102600363D01*
X143782057Y-102599740D01*
X143766970Y-102602910D01*
X143764000Y-102614374D01*
X143764000Y-103491500D01*
X143743998Y-103559621D01*
X143690342Y-103606114D01*
X143638000Y-103617500D01*
X143269942Y-103617501D01*
X143260012Y-103617501D01*
X143223534Y-103620371D01*
X143217352Y-103622167D01*
X143217347Y-103622168D01*
X143207610Y-103624997D01*
X143172458Y-103630000D01*
X142708100Y-103630000D01*
X142694569Y-103633973D01*
X142693434Y-103641871D01*
X142727981Y-103760783D01*
X142734229Y-103775220D01*
X142761522Y-103821370D01*
X142778982Y-103890187D01*
X142761523Y-103949646D01*
X142729731Y-104003404D01*
X142727520Y-104011015D01*
X142727519Y-104011017D01*
X142703752Y-104092824D01*
X142684371Y-104159534D01*
X142683867Y-104165941D01*
X142683866Y-104165945D01*
X142681978Y-104189932D01*
X142681500Y-104196011D01*
X142681500Y-104273577D01*
X142661498Y-104341698D01*
X142644595Y-104362672D01*
X142100517Y-104906750D01*
X142092191Y-104914326D01*
X142085697Y-104918447D01*
X142054909Y-104951233D01*
X142038915Y-104968265D01*
X142036160Y-104971107D01*
X142016361Y-104990906D01*
X142013937Y-104994031D01*
X142013929Y-104994040D01*
X142013863Y-104994126D01*
X142006155Y-105003151D01*
X141975783Y-105035494D01*
X141971965Y-105042438D01*
X141971964Y-105042440D01*
X141965978Y-105053329D01*
X141955127Y-105069847D01*
X141942650Y-105085933D01*
X141925024Y-105126666D01*
X141919807Y-105137314D01*
X141913415Y-105148942D01*
X141898431Y-105176197D01*
X141896460Y-105183872D01*
X141896458Y-105183878D01*
X141893369Y-105195911D01*
X141886966Y-105214613D01*
X141878883Y-105233292D01*
X141877644Y-105241117D01*
X141871940Y-105277127D01*
X141869535Y-105288740D01*
X141858500Y-105331718D01*
X141858500Y-105352065D01*
X141856949Y-105371776D01*
X141853765Y-105391879D01*
X141854511Y-105399771D01*
X141857941Y-105436056D01*
X141858500Y-105447914D01*
X141858500Y-105557031D01*
X141838498Y-105625152D01*
X141826142Y-105641335D01*
X141801409Y-105668803D01*
X141711923Y-105823797D01*
X141656618Y-105994009D01*
X141637910Y-106172000D01*
X141638600Y-106178565D01*
X141655820Y-106342394D01*
X141656618Y-106349991D01*
X141711923Y-106520203D01*
X141715226Y-106525925D01*
X141715227Y-106525926D01*
X141715598Y-106526568D01*
X141801409Y-106675197D01*
X141805827Y-106680104D01*
X141805828Y-106680105D01*
X141906985Y-106792452D01*
X141921164Y-106808199D01*
X141926506Y-106812080D01*
X141926508Y-106812082D01*
X141995030Y-106861866D01*
X142065955Y-106913396D01*
X142071983Y-106916080D01*
X142071985Y-106916081D01*
X142223423Y-106983505D01*
X142229454Y-106986190D01*
X142313112Y-107003972D01*
X142398057Y-107022028D01*
X142398061Y-107022028D01*
X142404514Y-107023400D01*
X142583486Y-107023400D01*
X142589939Y-107022028D01*
X142589943Y-107022028D01*
X142674888Y-107003972D01*
X142758546Y-106986190D01*
X142798277Y-106968501D01*
X142846809Y-106946893D01*
X142898058Y-106936000D01*
X143172458Y-106936000D01*
X143207610Y-106941003D01*
X143217353Y-106943834D01*
X143217360Y-106943835D01*
X143223534Y-106945629D01*
X143229941Y-106946133D01*
X143229945Y-106946134D01*
X143257556Y-106948307D01*
X143257562Y-106948307D01*
X143260011Y-106948500D01*
X143269930Y-106948500D01*
X143638001Y-106948499D01*
X143706120Y-106968501D01*
X143752613Y-107022156D01*
X143764000Y-107074499D01*
X143764000Y-107949566D01*
X143768344Y-107964361D01*
X143780003Y-107966421D01*
X143789977Y-107965637D01*
X143802564Y-107963338D01*
X143944783Y-107922019D01*
X143959222Y-107915770D01*
X144085405Y-107841146D01*
X144097841Y-107831499D01*
X144201499Y-107727841D01*
X144211146Y-107715405D01*
X144285770Y-107589222D01*
X144292019Y-107574783D01*
X144333514Y-107431957D01*
X144371727Y-107372121D01*
X144436224Y-107342444D01*
X144506526Y-107352347D01*
X144528572Y-107365174D01*
X144555390Y-107384658D01*
X144605955Y-107421396D01*
X144611983Y-107424080D01*
X144611985Y-107424081D01*
X144763423Y-107491505D01*
X144769454Y-107494190D01*
X144856984Y-107512795D01*
X144938057Y-107530028D01*
X144938061Y-107530028D01*
X144944514Y-107531400D01*
X145123486Y-107531400D01*
X145123486Y-107532767D01*
X145186170Y-107544231D01*
X145238016Y-107592734D01*
X145255500Y-107656768D01*
X145255500Y-107898134D01*
X145255867Y-107901514D01*
X145256052Y-107904930D01*
X145255841Y-107904941D01*
X145256262Y-107920479D01*
X145256000Y-107925320D01*
X145256000Y-107951885D01*
X145265642Y-107984722D01*
X145278141Y-108002692D01*
X145286458Y-108024877D01*
X145313385Y-108096705D01*
X145341337Y-108134001D01*
X145352997Y-108149559D01*
X145377845Y-108216065D01*
X145362792Y-108285448D01*
X145312618Y-108335678D01*
X145287670Y-108346020D01*
X145258877Y-108354475D01*
X145257672Y-108355865D01*
X145256001Y-108363548D01*
X145256001Y-108394669D01*
X145256371Y-108401490D01*
X145261895Y-108452352D01*
X145265521Y-108467604D01*
X145310676Y-108588054D01*
X145319214Y-108603649D01*
X145395715Y-108705724D01*
X145408276Y-108718285D01*
X145510351Y-108794786D01*
X145525946Y-108803324D01*
X145646394Y-108848478D01*
X145661649Y-108852105D01*
X145712514Y-108857631D01*
X145719328Y-108858000D01*
X146055885Y-108858000D01*
X146071124Y-108853525D01*
X146072329Y-108852135D01*
X146074000Y-108844452D01*
X146074000Y-108484500D01*
X146094002Y-108416379D01*
X146147658Y-108369886D01*
X146200000Y-108358500D01*
X146328000Y-108358500D01*
X146396121Y-108378502D01*
X146442614Y-108432158D01*
X146454000Y-108484500D01*
X146454000Y-108839884D01*
X146458475Y-108855123D01*
X146459865Y-108856328D01*
X146467548Y-108857999D01*
X146685500Y-108857999D01*
X146753621Y-108878001D01*
X146800114Y-108931657D01*
X146811500Y-108983999D01*
X146811500Y-112775500D01*
X146791498Y-112843621D01*
X146737842Y-112890114D01*
X146685500Y-112901500D01*
X139606000Y-112901500D01*
X139537879Y-112881498D01*
X139491386Y-112827842D01*
X139480000Y-112775500D01*
X139480000Y-112682115D01*
X139475525Y-112666876D01*
X139474135Y-112665671D01*
X139466452Y-112664000D01*
X138444000Y-112664000D01*
X138375879Y-112643998D01*
X138329386Y-112590342D01*
X138318000Y-112538000D01*
X138318000Y-112282000D01*
X138338002Y-112213879D01*
X138391658Y-112167386D01*
X138444000Y-112156000D01*
X139461884Y-112156000D01*
X139477123Y-112151525D01*
X139478328Y-112150135D01*
X139479999Y-112142452D01*
X139479999Y-111965331D01*
X139479629Y-111958510D01*
X139474105Y-111907650D01*
X139470478Y-111892393D01*
X139447066Y-111829941D01*
X139441883Y-111759134D01*
X139447066Y-111741483D01*
X139470973Y-111677711D01*
X139470973Y-111677709D01*
X139473745Y-111670316D01*
X139480500Y-111608134D01*
X139480500Y-111111866D01*
X139473745Y-111049684D01*
X139456170Y-111002803D01*
X139447333Y-110979229D01*
X139442150Y-110908422D01*
X139447333Y-110890771D01*
X139470973Y-110827711D01*
X139470973Y-110827709D01*
X139473745Y-110820316D01*
X139475003Y-110808742D01*
X139480131Y-110761531D01*
X139480500Y-110758134D01*
X139480500Y-110261866D01*
X139473745Y-110199684D01*
X139465473Y-110177618D01*
X139447333Y-110129229D01*
X139442150Y-110058422D01*
X139447333Y-110040771D01*
X139470973Y-109977711D01*
X139470973Y-109977709D01*
X139473745Y-109970316D01*
X139480500Y-109908134D01*
X139480500Y-109411866D01*
X139473745Y-109349684D01*
X139447333Y-109279229D01*
X139442150Y-109208422D01*
X139447333Y-109190771D01*
X139470973Y-109127711D01*
X139470973Y-109127709D01*
X139473745Y-109120316D01*
X139480500Y-109058134D01*
X139480500Y-108561866D01*
X139473745Y-108499684D01*
X139467128Y-108482032D01*
X139447333Y-108429229D01*
X139442150Y-108358422D01*
X139447333Y-108340771D01*
X139470973Y-108277711D01*
X139470973Y-108277709D01*
X139473745Y-108270316D01*
X139480500Y-108208134D01*
X139480500Y-107711866D01*
X139480131Y-107708469D01*
X139474598Y-107657534D01*
X139474598Y-107657532D01*
X139473745Y-107649684D01*
X139470973Y-107642289D01*
X139447333Y-107579229D01*
X139442150Y-107508422D01*
X139447333Y-107490771D01*
X139460416Y-107455871D01*
X142693434Y-107455871D01*
X142727981Y-107574783D01*
X142734230Y-107589222D01*
X142808854Y-107715405D01*
X142818501Y-107727841D01*
X142922159Y-107831499D01*
X142934595Y-107841146D01*
X143060778Y-107915770D01*
X143075217Y-107922019D01*
X143217436Y-107963338D01*
X143230023Y-107965637D01*
X143237943Y-107966260D01*
X143253030Y-107963090D01*
X143256000Y-107951626D01*
X143256000Y-107462115D01*
X143251525Y-107446876D01*
X143250135Y-107445671D01*
X143242452Y-107444000D01*
X142708100Y-107444000D01*
X142694569Y-107447973D01*
X142693434Y-107455871D01*
X139460416Y-107455871D01*
X139470973Y-107427711D01*
X139470973Y-107427709D01*
X139473745Y-107420316D01*
X139480500Y-107358134D01*
X139480500Y-106861866D01*
X139479041Y-106848432D01*
X139474598Y-106807534D01*
X139474598Y-106807532D01*
X139473745Y-106799684D01*
X139456964Y-106754920D01*
X139447333Y-106729229D01*
X139442150Y-106658422D01*
X139447333Y-106640771D01*
X139470973Y-106577711D01*
X139470973Y-106577709D01*
X139473745Y-106570316D01*
X139478498Y-106526568D01*
X139480131Y-106511531D01*
X139480500Y-106508134D01*
X139480500Y-106011866D01*
X139477878Y-105987730D01*
X139474598Y-105957534D01*
X139474598Y-105957532D01*
X139473745Y-105949684D01*
X139447333Y-105879229D01*
X139442150Y-105808422D01*
X139447333Y-105790771D01*
X139470973Y-105727711D01*
X139470973Y-105727709D01*
X139473745Y-105720316D01*
X139480500Y-105658134D01*
X139480500Y-105161866D01*
X139477268Y-105132112D01*
X139474598Y-105107534D01*
X139474598Y-105107532D01*
X139473745Y-105099684D01*
X139459623Y-105062014D01*
X139447333Y-105029229D01*
X139442150Y-104958422D01*
X139447333Y-104940771D01*
X139470973Y-104877711D01*
X139470973Y-104877709D01*
X139473745Y-104870316D01*
X139477241Y-104838140D01*
X139480131Y-104811531D01*
X139480500Y-104808134D01*
X139480500Y-104311866D01*
X139479453Y-104302232D01*
X139474598Y-104257534D01*
X139474598Y-104257532D01*
X139473745Y-104249684D01*
X139470973Y-104242289D01*
X139447333Y-104179229D01*
X139442150Y-104108422D01*
X139447333Y-104090771D01*
X139470973Y-104027711D01*
X139470973Y-104027709D01*
X139473745Y-104020316D01*
X139478500Y-103976550D01*
X139480131Y-103961531D01*
X139480500Y-103958134D01*
X139480500Y-103461866D01*
X139473745Y-103399684D01*
X139466666Y-103380800D01*
X139447333Y-103329229D01*
X139442150Y-103258422D01*
X139447333Y-103240771D01*
X139470973Y-103177711D01*
X139470973Y-103177709D01*
X139473745Y-103170316D01*
X139475438Y-103154737D01*
X139480131Y-103111531D01*
X139480500Y-103108134D01*
X139480500Y-103104605D01*
X142695039Y-103104605D01*
X142695079Y-103118705D01*
X142702349Y-103122000D01*
X143237885Y-103122000D01*
X143253124Y-103117525D01*
X143254329Y-103116135D01*
X143256000Y-103108452D01*
X143256000Y-102616434D01*
X143251656Y-102601639D01*
X143239997Y-102599579D01*
X143230023Y-102600363D01*
X143217436Y-102602662D01*
X143075217Y-102643981D01*
X143060778Y-102650230D01*
X142934595Y-102724854D01*
X142922159Y-102734501D01*
X142818501Y-102838159D01*
X142808854Y-102850595D01*
X142734230Y-102976778D01*
X142727981Y-102991217D01*
X142695039Y-103104605D01*
X139480500Y-103104605D01*
X139480500Y-102611866D01*
X139473745Y-102549684D01*
X139470973Y-102542289D01*
X139447066Y-102478517D01*
X139441883Y-102407710D01*
X139447066Y-102390059D01*
X139470480Y-102327602D01*
X139474105Y-102312357D01*
X139479631Y-102261486D01*
X139480000Y-102254672D01*
X139480000Y-102228115D01*
X139475525Y-102212876D01*
X139474135Y-102211671D01*
X139466452Y-102210000D01*
X139243188Y-102210000D01*
X139198959Y-102201982D01*
X139089718Y-102161029D01*
X139089712Y-102161027D01*
X139082316Y-102158255D01*
X139020134Y-102151500D01*
X138123866Y-102151500D01*
X138061684Y-102158255D01*
X138054288Y-102161027D01*
X138054282Y-102161029D01*
X137945041Y-102201982D01*
X137900812Y-102210000D01*
X137682116Y-102210000D01*
X137666877Y-102214475D01*
X137665672Y-102215865D01*
X137664001Y-102223548D01*
X137664001Y-102254669D01*
X137664371Y-102261490D01*
X137669895Y-102312350D01*
X137673522Y-102327607D01*
X137696934Y-102390059D01*
X137702117Y-102460866D01*
X137696934Y-102478517D01*
X137673027Y-102542289D01*
X137670255Y-102549684D01*
X137663500Y-102611866D01*
X137663500Y-103108134D01*
X137663869Y-103111531D01*
X137668563Y-103154737D01*
X137670255Y-103170316D01*
X137673027Y-103177709D01*
X137673027Y-103177711D01*
X137696667Y-103240771D01*
X137701850Y-103311578D01*
X137696667Y-103329229D01*
X137677334Y-103380800D01*
X137670255Y-103399684D01*
X137663500Y-103461866D01*
X137663500Y-103958134D01*
X137663869Y-103961531D01*
X137665501Y-103976550D01*
X137670255Y-104020316D01*
X137673027Y-104027709D01*
X137673027Y-104027711D01*
X137696667Y-104090771D01*
X137701850Y-104161578D01*
X137696667Y-104179229D01*
X137673027Y-104242289D01*
X137670255Y-104249684D01*
X137669402Y-104257532D01*
X137669402Y-104257534D01*
X137664547Y-104302232D01*
X137663500Y-104311866D01*
X137663500Y-104808134D01*
X137663869Y-104811531D01*
X137666760Y-104838140D01*
X137670255Y-104870316D01*
X137673027Y-104877709D01*
X137673027Y-104877711D01*
X137696667Y-104940771D01*
X137701850Y-105011578D01*
X137696667Y-105029229D01*
X137684377Y-105062014D01*
X137670255Y-105099684D01*
X137669402Y-105107532D01*
X137669402Y-105107534D01*
X137666732Y-105132112D01*
X137663500Y-105161866D01*
X137663500Y-105658134D01*
X137670255Y-105720316D01*
X137673027Y-105727709D01*
X137673027Y-105727711D01*
X137696667Y-105790771D01*
X137701850Y-105861578D01*
X137696667Y-105879229D01*
X137670255Y-105949684D01*
X137669402Y-105957532D01*
X137669402Y-105957534D01*
X137666122Y-105987730D01*
X137663500Y-106011866D01*
X137663500Y-106508134D01*
X137663869Y-106511531D01*
X137665503Y-106526568D01*
X137670255Y-106570316D01*
X137673027Y-106577709D01*
X137673027Y-106577711D01*
X137696667Y-106640771D01*
X137701850Y-106711578D01*
X137696667Y-106729229D01*
X137687036Y-106754920D01*
X137670255Y-106799684D01*
X137669402Y-106807532D01*
X137669402Y-106807534D01*
X137664959Y-106848432D01*
X137663500Y-106861866D01*
X137663500Y-107358134D01*
X137670255Y-107420316D01*
X137673027Y-107427709D01*
X137673027Y-107427711D01*
X137696667Y-107490771D01*
X137701850Y-107561578D01*
X137696667Y-107579229D01*
X137673027Y-107642289D01*
X137670255Y-107649684D01*
X137669402Y-107657532D01*
X137669402Y-107657534D01*
X137663869Y-107708469D01*
X137663500Y-107711866D01*
X137663500Y-108208134D01*
X137670255Y-108270316D01*
X137673027Y-108277709D01*
X137673027Y-108277711D01*
X137696667Y-108340771D01*
X137701850Y-108411578D01*
X137696667Y-108429229D01*
X137676872Y-108482032D01*
X137670255Y-108499684D01*
X137663500Y-108561866D01*
X137663500Y-109058134D01*
X137670255Y-109120316D01*
X137673027Y-109127709D01*
X137673027Y-109127711D01*
X137696667Y-109190771D01*
X137701850Y-109261578D01*
X137696667Y-109279229D01*
X137670255Y-109349684D01*
X137663500Y-109411866D01*
X137663500Y-109908134D01*
X137670255Y-109970316D01*
X137673027Y-109977709D01*
X137673027Y-109977711D01*
X137696667Y-110040771D01*
X137701850Y-110111578D01*
X137696667Y-110129229D01*
X137678527Y-110177618D01*
X137670255Y-110199684D01*
X137663500Y-110261866D01*
X137663500Y-110758134D01*
X137663869Y-110761531D01*
X137668998Y-110808742D01*
X137670255Y-110820316D01*
X137673027Y-110827709D01*
X137673027Y-110827711D01*
X137696667Y-110890771D01*
X137701850Y-110961578D01*
X137696667Y-110979229D01*
X137687830Y-111002803D01*
X137670255Y-111049684D01*
X137663500Y-111111866D01*
X137663500Y-111375500D01*
X137643498Y-111443621D01*
X137589842Y-111490114D01*
X137537500Y-111501500D01*
X137273866Y-111501500D01*
X137270469Y-111501869D01*
X137219534Y-111507402D01*
X137219532Y-111507402D01*
X137211684Y-111508255D01*
X137204291Y-111511027D01*
X137204289Y-111511027D01*
X137141229Y-111534667D01*
X137070422Y-111539850D01*
X137052771Y-111534667D01*
X136989711Y-111511027D01*
X136989709Y-111511027D01*
X136982316Y-111508255D01*
X136974468Y-111507402D01*
X136974466Y-111507402D01*
X136923531Y-111501869D01*
X136920134Y-111501500D01*
X136423866Y-111501500D01*
X136420469Y-111501869D01*
X136369534Y-111507402D01*
X136369532Y-111507402D01*
X136361684Y-111508255D01*
X136354291Y-111511027D01*
X136354289Y-111511027D01*
X136291229Y-111534667D01*
X136220422Y-111539850D01*
X136202771Y-111534667D01*
X136139711Y-111511027D01*
X136139709Y-111511027D01*
X136132316Y-111508255D01*
X136124468Y-111507402D01*
X136124466Y-111507402D01*
X136073531Y-111501869D01*
X136070134Y-111501500D01*
X135573866Y-111501500D01*
X135570469Y-111501869D01*
X135519534Y-111507402D01*
X135519532Y-111507402D01*
X135511684Y-111508255D01*
X135504291Y-111511027D01*
X135504289Y-111511027D01*
X135441229Y-111534667D01*
X135370422Y-111539850D01*
X135352771Y-111534667D01*
X135289711Y-111511027D01*
X135289709Y-111511027D01*
X135282316Y-111508255D01*
X135274468Y-111507402D01*
X135274466Y-111507402D01*
X135223531Y-111501869D01*
X135220134Y-111501500D01*
X134723866Y-111501500D01*
X134720469Y-111501869D01*
X134669534Y-111507402D01*
X134669532Y-111507402D01*
X134661684Y-111508255D01*
X134654291Y-111511027D01*
X134654289Y-111511027D01*
X134591229Y-111534667D01*
X134520422Y-111539850D01*
X134502771Y-111534667D01*
X134439711Y-111511027D01*
X134439709Y-111511027D01*
X134432316Y-111508255D01*
X134424468Y-111507402D01*
X134424466Y-111507402D01*
X134373531Y-111501869D01*
X134370134Y-111501500D01*
X133873866Y-111501500D01*
X133870469Y-111501869D01*
X133819534Y-111507402D01*
X133819532Y-111507402D01*
X133811684Y-111508255D01*
X133804291Y-111511027D01*
X133804289Y-111511027D01*
X133741229Y-111534667D01*
X133670422Y-111539850D01*
X133652771Y-111534667D01*
X133589711Y-111511027D01*
X133589709Y-111511027D01*
X133582316Y-111508255D01*
X133574466Y-111507402D01*
X133574465Y-111507402D01*
X133558873Y-111505708D01*
X133543809Y-111504072D01*
X133478247Y-111476831D01*
X133437820Y-111418468D01*
X133432106Y-111391980D01*
X133426072Y-111334573D01*
X133426072Y-111334572D01*
X133425382Y-111328009D01*
X133370077Y-111157797D01*
X133345532Y-111115283D01*
X133283892Y-111008521D01*
X133280591Y-111002803D01*
X133270354Y-110991433D01*
X133165258Y-110874712D01*
X133165257Y-110874711D01*
X133160836Y-110869801D01*
X133150613Y-110862373D01*
X133021387Y-110768485D01*
X133021386Y-110768484D01*
X133016045Y-110764604D01*
X133010017Y-110761920D01*
X133010015Y-110761919D01*
X132858577Y-110694495D01*
X132858576Y-110694495D01*
X132852546Y-110691810D01*
X132752431Y-110670530D01*
X132683943Y-110655972D01*
X132683939Y-110655972D01*
X132677486Y-110654600D01*
X132498514Y-110654600D01*
X132492061Y-110655972D01*
X132492057Y-110655972D01*
X132423569Y-110670530D01*
X132323454Y-110691810D01*
X132317424Y-110694495D01*
X132317423Y-110694495D01*
X132165985Y-110761919D01*
X132165983Y-110761920D01*
X132159955Y-110764604D01*
X132154614Y-110768484D01*
X132154613Y-110768485D01*
X132027061Y-110861157D01*
X131960193Y-110885016D01*
X131891042Y-110868935D01*
X131878939Y-110861157D01*
X131751387Y-110768485D01*
X131751386Y-110768484D01*
X131746045Y-110764604D01*
X131740017Y-110761920D01*
X131740015Y-110761919D01*
X131588577Y-110694495D01*
X131588576Y-110694495D01*
X131582546Y-110691810D01*
X131482431Y-110670530D01*
X131413943Y-110655972D01*
X131413939Y-110655972D01*
X131407486Y-110654600D01*
X131228514Y-110654600D01*
X131222061Y-110655972D01*
X131222057Y-110655972D01*
X131153569Y-110670530D01*
X131053454Y-110691810D01*
X131047424Y-110694495D01*
X131047423Y-110694495D01*
X130895985Y-110761919D01*
X130895983Y-110761920D01*
X130889955Y-110764604D01*
X130884614Y-110768484D01*
X130884613Y-110768485D01*
X130755388Y-110862373D01*
X130745164Y-110869801D01*
X130740743Y-110874711D01*
X130740742Y-110874712D01*
X130635647Y-110991433D01*
X130625409Y-111002803D01*
X130622108Y-111008521D01*
X130560469Y-111115283D01*
X130535923Y-111157797D01*
X130480618Y-111328009D01*
X130479928Y-111334572D01*
X130479928Y-111334573D01*
X130471866Y-111411279D01*
X130444853Y-111476935D01*
X130390787Y-111516089D01*
X130341227Y-111534668D01*
X130270421Y-111539850D01*
X130252771Y-111534667D01*
X130189711Y-111511027D01*
X130189709Y-111511027D01*
X130182316Y-111508255D01*
X130174468Y-111507402D01*
X130174466Y-111507402D01*
X130123531Y-111501869D01*
X130120134Y-111501500D01*
X129623866Y-111501500D01*
X129620469Y-111501869D01*
X129569534Y-111507402D01*
X129569532Y-111507402D01*
X129561684Y-111508255D01*
X129554291Y-111511027D01*
X129554289Y-111511027D01*
X129491229Y-111534667D01*
X129420422Y-111539850D01*
X129402771Y-111534667D01*
X129339711Y-111511027D01*
X129339709Y-111511027D01*
X129332316Y-111508255D01*
X129324468Y-111507402D01*
X129324466Y-111507402D01*
X129273531Y-111501869D01*
X129270134Y-111501500D01*
X128773866Y-111501500D01*
X128770469Y-111501869D01*
X128719534Y-111507402D01*
X128719532Y-111507402D01*
X128711684Y-111508255D01*
X128704291Y-111511027D01*
X128704289Y-111511027D01*
X128641229Y-111534667D01*
X128570422Y-111539850D01*
X128552771Y-111534667D01*
X128489711Y-111511027D01*
X128489709Y-111511027D01*
X128482316Y-111508255D01*
X128474468Y-111507402D01*
X128474466Y-111507402D01*
X128423531Y-111501869D01*
X128420134Y-111501500D01*
X127923866Y-111501500D01*
X127920469Y-111501869D01*
X127869534Y-111507402D01*
X127869532Y-111507402D01*
X127861684Y-111508255D01*
X127854291Y-111511027D01*
X127854289Y-111511027D01*
X127791229Y-111534667D01*
X127720422Y-111539850D01*
X127702771Y-111534667D01*
X127639711Y-111511027D01*
X127639709Y-111511027D01*
X127632316Y-111508255D01*
X127624468Y-111507402D01*
X127624466Y-111507402D01*
X127573531Y-111501869D01*
X127570134Y-111501500D01*
X127073866Y-111501500D01*
X127070469Y-111501869D01*
X127019534Y-111507402D01*
X127019532Y-111507402D01*
X127011684Y-111508255D01*
X127004291Y-111511027D01*
X127004289Y-111511027D01*
X126941229Y-111534667D01*
X126870422Y-111539850D01*
X126852771Y-111534667D01*
X126789711Y-111511027D01*
X126789709Y-111511027D01*
X126782316Y-111508255D01*
X126774468Y-111507402D01*
X126774466Y-111507402D01*
X126723531Y-111501869D01*
X126720134Y-111501500D01*
X126223866Y-111501500D01*
X126220469Y-111501869D01*
X126169534Y-111507402D01*
X126169532Y-111507402D01*
X126161684Y-111508255D01*
X126154291Y-111511027D01*
X126154289Y-111511027D01*
X126091229Y-111534667D01*
X126020422Y-111539850D01*
X126002771Y-111534667D01*
X125939711Y-111511027D01*
X125939709Y-111511027D01*
X125932316Y-111508255D01*
X125924468Y-111507402D01*
X125924466Y-111507402D01*
X125873531Y-111501869D01*
X125870134Y-111501500D01*
X125606500Y-111501500D01*
X125538379Y-111481498D01*
X125491886Y-111427842D01*
X125480500Y-111375500D01*
X125480500Y-111111866D01*
X125473745Y-111049684D01*
X125451908Y-110991433D01*
X125446725Y-110920626D01*
X125480646Y-110858257D01*
X125542902Y-110824128D01*
X125596086Y-110823957D01*
X125627341Y-110830600D01*
X125640514Y-110833400D01*
X125819486Y-110833400D01*
X125825939Y-110832028D01*
X125825943Y-110832028D01*
X125917973Y-110812466D01*
X125994546Y-110796190D01*
X126065490Y-110764604D01*
X126152015Y-110726081D01*
X126152017Y-110726080D01*
X126158045Y-110723396D01*
X126197824Y-110694495D01*
X126297492Y-110622082D01*
X126297494Y-110622080D01*
X126302836Y-110618199D01*
X126422591Y-110485197D01*
X126454605Y-110429747D01*
X126505988Y-110380754D01*
X126575702Y-110367319D01*
X126641613Y-110393706D01*
X126683556Y-110453811D01*
X126725923Y-110584203D01*
X126815409Y-110739197D01*
X126819827Y-110744104D01*
X126819828Y-110744105D01*
X126930742Y-110867288D01*
X126935164Y-110872199D01*
X126940506Y-110876080D01*
X126940508Y-110876082D01*
X127058183Y-110961578D01*
X127079955Y-110977396D01*
X127085983Y-110980080D01*
X127085985Y-110980081D01*
X127137020Y-111002803D01*
X127243454Y-111050190D01*
X127330984Y-111068795D01*
X127412057Y-111086028D01*
X127412061Y-111086028D01*
X127418514Y-111087400D01*
X127597486Y-111087400D01*
X127603939Y-111086028D01*
X127603943Y-111086028D01*
X127685016Y-111068795D01*
X127772546Y-111050190D01*
X127878980Y-111002803D01*
X127930015Y-110980081D01*
X127930017Y-110980080D01*
X127936045Y-110977396D01*
X127957817Y-110961578D01*
X128075492Y-110876082D01*
X128075494Y-110876080D01*
X128080836Y-110872199D01*
X128085258Y-110867288D01*
X128196172Y-110744105D01*
X128196173Y-110744104D01*
X128200591Y-110739197D01*
X128290077Y-110584203D01*
X128331971Y-110455266D01*
X128343342Y-110420270D01*
X128343342Y-110420269D01*
X128345382Y-110413991D01*
X128364090Y-110236000D01*
X128351655Y-110117693D01*
X128346072Y-110064573D01*
X128346072Y-110064572D01*
X128345382Y-110058009D01*
X128290077Y-109887797D01*
X128200591Y-109732803D01*
X128175863Y-109705340D01*
X128145147Y-109641334D01*
X128143500Y-109621031D01*
X128143500Y-107704669D01*
X128814001Y-107704669D01*
X128814371Y-107711490D01*
X128819895Y-107762352D01*
X128823521Y-107777604D01*
X128868676Y-107898054D01*
X128877214Y-107913649D01*
X128953715Y-108015724D01*
X128966276Y-108028285D01*
X129068351Y-108104786D01*
X129083946Y-108113324D01*
X129204394Y-108158478D01*
X129219649Y-108162105D01*
X129270514Y-108167631D01*
X129277328Y-108168000D01*
X129649885Y-108168000D01*
X129665124Y-108163525D01*
X129666329Y-108162135D01*
X129668000Y-108154452D01*
X129668000Y-108149884D01*
X130176000Y-108149884D01*
X130180475Y-108165123D01*
X130181865Y-108166328D01*
X130189548Y-108167999D01*
X130566669Y-108167999D01*
X130573490Y-108167629D01*
X130624352Y-108162105D01*
X130639604Y-108158479D01*
X130702770Y-108134799D01*
X130773578Y-108129616D01*
X130791230Y-108134799D01*
X130854394Y-108158478D01*
X130869649Y-108162105D01*
X130920514Y-108167631D01*
X130927328Y-108168000D01*
X131299885Y-108168000D01*
X131315124Y-108163525D01*
X131316329Y-108162135D01*
X131318000Y-108154452D01*
X131318000Y-108149884D01*
X131826000Y-108149884D01*
X131830475Y-108165123D01*
X131831865Y-108166328D01*
X131839548Y-108167999D01*
X132216669Y-108167999D01*
X132223490Y-108167629D01*
X132274352Y-108162105D01*
X132289604Y-108158479D01*
X132352770Y-108134799D01*
X132423578Y-108129616D01*
X132441230Y-108134799D01*
X132504394Y-108158478D01*
X132519649Y-108162105D01*
X132570514Y-108167631D01*
X132577328Y-108168000D01*
X132949885Y-108168000D01*
X132965124Y-108163525D01*
X132966329Y-108162135D01*
X132968000Y-108154452D01*
X132968000Y-108149884D01*
X133476000Y-108149884D01*
X133480475Y-108165123D01*
X133481865Y-108166328D01*
X133489548Y-108167999D01*
X133866669Y-108167999D01*
X133873490Y-108167629D01*
X133924352Y-108162105D01*
X133939604Y-108158479D01*
X134060054Y-108113324D01*
X134075649Y-108104786D01*
X134177724Y-108028285D01*
X134190285Y-108015724D01*
X134266786Y-107913649D01*
X134275324Y-107898054D01*
X134320478Y-107777606D01*
X134324105Y-107762351D01*
X134329631Y-107711486D01*
X134330000Y-107704672D01*
X134330000Y-107332115D01*
X134325525Y-107316876D01*
X134324135Y-107315671D01*
X134316452Y-107314000D01*
X133494115Y-107314000D01*
X133478876Y-107318475D01*
X133477671Y-107319865D01*
X133476000Y-107327548D01*
X133476000Y-108149884D01*
X132968000Y-108149884D01*
X132968000Y-107332115D01*
X132963525Y-107316876D01*
X132962135Y-107315671D01*
X132954452Y-107314000D01*
X131844115Y-107314000D01*
X131828876Y-107318475D01*
X131827671Y-107319865D01*
X131826000Y-107327548D01*
X131826000Y-108149884D01*
X131318000Y-108149884D01*
X131318000Y-107332115D01*
X131313525Y-107316876D01*
X131312135Y-107315671D01*
X131304452Y-107314000D01*
X130194115Y-107314000D01*
X130178876Y-107318475D01*
X130177671Y-107319865D01*
X130176000Y-107327548D01*
X130176000Y-108149884D01*
X129668000Y-108149884D01*
X129668000Y-107332115D01*
X129663525Y-107316876D01*
X129662135Y-107315671D01*
X129654452Y-107314000D01*
X128832116Y-107314000D01*
X128816877Y-107318475D01*
X128815672Y-107319865D01*
X128814001Y-107327548D01*
X128814001Y-107704669D01*
X128143500Y-107704669D01*
X128143500Y-106787885D01*
X128814000Y-106787885D01*
X128818475Y-106803124D01*
X128819865Y-106804329D01*
X128827548Y-106806000D01*
X129649885Y-106806000D01*
X129665124Y-106801525D01*
X129666329Y-106800135D01*
X129668000Y-106792452D01*
X129668000Y-106787885D01*
X130176000Y-106787885D01*
X130180475Y-106803124D01*
X130181865Y-106804329D01*
X130189548Y-106806000D01*
X131299885Y-106806000D01*
X131315124Y-106801525D01*
X131316329Y-106800135D01*
X131318000Y-106792452D01*
X131318000Y-106787885D01*
X131826000Y-106787885D01*
X131830475Y-106803124D01*
X131831865Y-106804329D01*
X131839548Y-106806000D01*
X132949885Y-106806000D01*
X132965124Y-106801525D01*
X132966329Y-106800135D01*
X132968000Y-106792452D01*
X132968000Y-106787885D01*
X133476000Y-106787885D01*
X133480475Y-106803124D01*
X133481865Y-106804329D01*
X133489548Y-106806000D01*
X134311884Y-106806000D01*
X134327123Y-106801525D01*
X134328328Y-106800135D01*
X134329999Y-106792452D01*
X134329999Y-106415331D01*
X134329629Y-106408510D01*
X134324105Y-106357648D01*
X134320479Y-106342396D01*
X134296799Y-106279230D01*
X134291616Y-106208422D01*
X134296799Y-106190770D01*
X134320478Y-106127606D01*
X134324105Y-106112351D01*
X134329631Y-106061486D01*
X134330000Y-106054672D01*
X134330000Y-105682115D01*
X134325525Y-105666876D01*
X134324135Y-105665671D01*
X134316452Y-105664000D01*
X133494115Y-105664000D01*
X133478876Y-105668475D01*
X133477671Y-105669865D01*
X133476000Y-105677548D01*
X133476000Y-106787885D01*
X132968000Y-106787885D01*
X132968000Y-105682115D01*
X132963525Y-105666876D01*
X132962135Y-105665671D01*
X132954452Y-105664000D01*
X131844115Y-105664000D01*
X131828876Y-105668475D01*
X131827671Y-105669865D01*
X131826000Y-105677548D01*
X131826000Y-106787885D01*
X131318000Y-106787885D01*
X131318000Y-105682115D01*
X131313525Y-105666876D01*
X131312135Y-105665671D01*
X131304452Y-105664000D01*
X130194115Y-105664000D01*
X130178876Y-105668475D01*
X130177671Y-105669865D01*
X130176000Y-105677548D01*
X130176000Y-106787885D01*
X129668000Y-106787885D01*
X129668000Y-105682115D01*
X129663525Y-105666876D01*
X129662135Y-105665671D01*
X129654452Y-105664000D01*
X128832116Y-105664000D01*
X128816877Y-105668475D01*
X128815672Y-105669865D01*
X128814001Y-105677548D01*
X128814001Y-106054669D01*
X128814371Y-106061490D01*
X128819895Y-106112352D01*
X128823521Y-106127604D01*
X128847201Y-106190770D01*
X128852384Y-106261578D01*
X128847201Y-106279230D01*
X128823522Y-106342394D01*
X128819895Y-106357649D01*
X128814369Y-106408514D01*
X128814000Y-106415328D01*
X128814000Y-106787885D01*
X128143500Y-106787885D01*
X128143500Y-104767032D01*
X128144030Y-104755793D01*
X128145709Y-104748281D01*
X128143953Y-104692394D01*
X128143562Y-104679970D01*
X128143500Y-104676012D01*
X128143500Y-104648017D01*
X128142992Y-104643994D01*
X128142059Y-104632152D01*
X128141968Y-104629230D01*
X128140665Y-104587795D01*
X128134987Y-104568251D01*
X128130977Y-104548888D01*
X128129420Y-104536560D01*
X128129420Y-104536558D01*
X128128427Y-104528701D01*
X128125511Y-104521337D01*
X128125510Y-104521332D01*
X128112093Y-104487444D01*
X128108248Y-104476215D01*
X128098081Y-104441222D01*
X128095869Y-104433607D01*
X128089943Y-104423587D01*
X128085512Y-104416094D01*
X128076812Y-104398336D01*
X128072239Y-104386785D01*
X128072235Y-104386779D01*
X128069319Y-104379412D01*
X128054493Y-104359005D01*
X128803271Y-104359005D01*
X128804892Y-104359005D01*
X128807152Y-104377009D01*
X128805796Y-104414853D01*
X128841940Y-104556538D01*
X128842352Y-104557533D01*
X128842373Y-104557583D01*
X128843347Y-104559935D01*
X128845863Y-104630683D01*
X128841764Y-104643733D01*
X128823522Y-104692394D01*
X128819895Y-104707649D01*
X128814369Y-104758514D01*
X128814000Y-104765328D01*
X128814000Y-105137885D01*
X128818475Y-105153124D01*
X128819865Y-105154329D01*
X128827548Y-105156000D01*
X131299885Y-105156000D01*
X131315124Y-105151525D01*
X131316329Y-105150135D01*
X131318000Y-105142452D01*
X131318000Y-105137885D01*
X131826000Y-105137885D01*
X131830475Y-105153124D01*
X131831865Y-105154329D01*
X131839548Y-105156000D01*
X132949885Y-105156000D01*
X132965124Y-105151525D01*
X132966329Y-105150135D01*
X132968000Y-105142452D01*
X132968000Y-105137885D01*
X133476000Y-105137885D01*
X133480475Y-105153124D01*
X133481865Y-105154329D01*
X133489548Y-105156000D01*
X134311884Y-105156000D01*
X134327123Y-105151525D01*
X134328328Y-105150135D01*
X134329999Y-105142452D01*
X134329999Y-104765331D01*
X134329629Y-104758510D01*
X134324105Y-104707648D01*
X134320479Y-104692396D01*
X134296799Y-104629230D01*
X134291616Y-104558422D01*
X134296799Y-104540770D01*
X134320478Y-104477606D01*
X134324105Y-104462351D01*
X134329631Y-104411486D01*
X134330000Y-104404672D01*
X134330000Y-104032115D01*
X134325525Y-104016876D01*
X134324135Y-104015671D01*
X134316452Y-104014000D01*
X133494115Y-104014000D01*
X133478876Y-104018475D01*
X133477671Y-104019865D01*
X133476000Y-104027548D01*
X133476000Y-105137885D01*
X132968000Y-105137885D01*
X132968000Y-104032115D01*
X132963525Y-104016876D01*
X132962135Y-104015671D01*
X132954452Y-104014000D01*
X131844115Y-104014000D01*
X131828876Y-104018475D01*
X131827671Y-104019865D01*
X131826000Y-104027548D01*
X131826000Y-105137885D01*
X131318000Y-105137885D01*
X131318000Y-103632000D01*
X131338002Y-103563879D01*
X131391658Y-103517386D01*
X131444000Y-103506000D01*
X132949885Y-103506000D01*
X132965124Y-103501525D01*
X132966329Y-103500135D01*
X132968000Y-103492452D01*
X132968000Y-103487885D01*
X133476000Y-103487885D01*
X133480475Y-103503124D01*
X133481865Y-103504329D01*
X133489548Y-103506000D01*
X134311884Y-103506000D01*
X134327123Y-103501525D01*
X134328328Y-103500135D01*
X134329999Y-103492452D01*
X134329999Y-103326377D01*
X134350001Y-103258256D01*
X134403657Y-103211763D01*
X134473931Y-103201659D01*
X134482195Y-103203130D01*
X134514415Y-103209978D01*
X134530514Y-103213400D01*
X134709486Y-103213400D01*
X134715939Y-103212028D01*
X134715943Y-103212028D01*
X134797016Y-103194795D01*
X134884546Y-103176190D01*
X134896340Y-103170939D01*
X135042015Y-103106081D01*
X135042017Y-103106080D01*
X135048045Y-103103396D01*
X135053387Y-103099515D01*
X135187492Y-103002082D01*
X135187494Y-103002080D01*
X135192836Y-102998199D01*
X135209417Y-102979784D01*
X135308172Y-102870105D01*
X135308173Y-102870104D01*
X135312591Y-102865197D01*
X135402077Y-102710203D01*
X135433214Y-102614374D01*
X135455342Y-102546270D01*
X135455342Y-102546269D01*
X135457382Y-102539991D01*
X135461365Y-102502101D01*
X135475400Y-102368565D01*
X135476090Y-102362000D01*
X135470872Y-102312357D01*
X135458072Y-102190573D01*
X135458072Y-102190572D01*
X135457382Y-102184009D01*
X135449916Y-102161029D01*
X135406295Y-102026778D01*
X135402077Y-102013797D01*
X135391605Y-101995658D01*
X135315892Y-101864521D01*
X135312591Y-101858803D01*
X135302869Y-101848005D01*
X135252338Y-101791885D01*
X137664000Y-101791885D01*
X137668475Y-101807124D01*
X137669865Y-101808329D01*
X137677548Y-101810000D01*
X138353885Y-101810000D01*
X138369124Y-101805525D01*
X138370329Y-101804135D01*
X138372000Y-101796452D01*
X138372000Y-101378115D01*
X138367525Y-101362876D01*
X138366135Y-101361671D01*
X138358452Y-101360000D01*
X137682116Y-101360000D01*
X137666877Y-101364475D01*
X137665672Y-101365865D01*
X137664001Y-101373548D01*
X137664001Y-101404669D01*
X137664371Y-101411490D01*
X137669895Y-101462352D01*
X137673521Y-101477604D01*
X137697201Y-101540770D01*
X137702384Y-101611578D01*
X137697201Y-101629230D01*
X137673522Y-101692394D01*
X137669895Y-101707649D01*
X137664369Y-101758514D01*
X137664000Y-101765328D01*
X137664000Y-101791885D01*
X135252338Y-101791885D01*
X135197258Y-101730712D01*
X135197257Y-101730711D01*
X135192836Y-101725801D01*
X135181608Y-101717643D01*
X135053387Y-101624485D01*
X135053386Y-101624484D01*
X135048045Y-101620604D01*
X135042017Y-101617920D01*
X135042015Y-101617919D01*
X134890577Y-101550495D01*
X134890576Y-101550495D01*
X134884546Y-101547810D01*
X134797016Y-101529205D01*
X134715943Y-101511972D01*
X134715939Y-101511972D01*
X134709486Y-101510600D01*
X134530514Y-101510600D01*
X134524061Y-101511972D01*
X134524057Y-101511972D01*
X134442984Y-101529205D01*
X134355454Y-101547810D01*
X134349424Y-101550495D01*
X134349423Y-101550495D01*
X134197985Y-101617919D01*
X134197983Y-101617920D01*
X134191955Y-101620604D01*
X134186614Y-101624484D01*
X134186613Y-101624485D01*
X134058393Y-101717643D01*
X134047164Y-101725801D01*
X134042743Y-101730711D01*
X134042742Y-101730712D01*
X133937132Y-101848005D01*
X133927409Y-101858803D01*
X133924108Y-101864521D01*
X133848396Y-101995658D01*
X133837923Y-102013797D01*
X133833705Y-102026778D01*
X133790085Y-102161029D01*
X133782618Y-102184009D01*
X133781928Y-102190572D01*
X133781928Y-102190573D01*
X133769128Y-102312357D01*
X133763910Y-102362000D01*
X133764600Y-102368565D01*
X133779763Y-102512829D01*
X133766991Y-102582668D01*
X133718489Y-102634514D01*
X133654453Y-102652000D01*
X133494115Y-102652000D01*
X133478876Y-102656475D01*
X133477671Y-102657865D01*
X133476000Y-102665548D01*
X133476000Y-103487885D01*
X132968000Y-103487885D01*
X132968000Y-102670116D01*
X132963525Y-102654877D01*
X132962135Y-102653672D01*
X132954452Y-102652001D01*
X132577331Y-102652001D01*
X132570510Y-102652371D01*
X132519648Y-102657895D01*
X132504396Y-102661521D01*
X132441230Y-102685201D01*
X132370422Y-102690384D01*
X132352770Y-102685201D01*
X132289606Y-102661522D01*
X132274351Y-102657895D01*
X132223486Y-102652369D01*
X132216672Y-102652000D01*
X132029547Y-102652000D01*
X131961426Y-102631998D01*
X131914933Y-102578342D01*
X131904237Y-102512829D01*
X131919400Y-102368565D01*
X131920090Y-102362000D01*
X131914872Y-102312357D01*
X131902072Y-102190573D01*
X131902072Y-102190572D01*
X131901382Y-102184009D01*
X131893916Y-102161029D01*
X131850295Y-102026778D01*
X131846077Y-102013797D01*
X131835605Y-101995658D01*
X131790191Y-101917000D01*
X131773453Y-101848005D01*
X131790191Y-101791000D01*
X131842773Y-101699926D01*
X131842774Y-101699925D01*
X131846077Y-101694203D01*
X131881559Y-101585000D01*
X131899342Y-101530270D01*
X131899342Y-101530269D01*
X131901382Y-101523991D01*
X131902790Y-101510600D01*
X131919400Y-101352565D01*
X131920090Y-101346000D01*
X131901382Y-101168009D01*
X131893744Y-101144500D01*
X131852684Y-101018131D01*
X131846077Y-100997797D01*
X131842703Y-100991952D01*
X131790191Y-100901000D01*
X131773453Y-100832005D01*
X131790191Y-100775000D01*
X131842773Y-100683926D01*
X131842774Y-100683925D01*
X131846077Y-100678203D01*
X131883986Y-100561531D01*
X131885090Y-100558134D01*
X137663500Y-100558134D01*
X137663869Y-100561531D01*
X137668084Y-100600327D01*
X137670255Y-100620316D01*
X137673027Y-100627709D01*
X137673027Y-100627711D01*
X137696934Y-100691483D01*
X137702117Y-100762290D01*
X137696934Y-100779941D01*
X137673520Y-100842398D01*
X137669895Y-100857643D01*
X137664369Y-100908514D01*
X137664000Y-100915328D01*
X137664000Y-100941885D01*
X137668475Y-100957124D01*
X137669865Y-100958329D01*
X137677548Y-100960000D01*
X137900812Y-100960000D01*
X137945041Y-100968018D01*
X138054282Y-101008971D01*
X138054288Y-101008973D01*
X138061684Y-101011745D01*
X138123866Y-101018500D01*
X138646000Y-101018500D01*
X138714121Y-101038502D01*
X138760614Y-101092158D01*
X138772000Y-101144500D01*
X138772000Y-101791885D01*
X138776475Y-101807124D01*
X138777865Y-101808329D01*
X138785548Y-101810000D01*
X139461884Y-101810000D01*
X139477123Y-101805525D01*
X139478328Y-101804135D01*
X139479999Y-101796452D01*
X139479999Y-101765331D01*
X139479629Y-101758507D01*
X139474049Y-101707126D01*
X139486579Y-101637244D01*
X139534901Y-101585230D01*
X139603673Y-101567597D01*
X139671061Y-101589945D01*
X139688407Y-101604427D01*
X139746619Y-101662639D01*
X139893301Y-101751472D01*
X139900548Y-101753743D01*
X139900550Y-101753744D01*
X139966836Y-101774517D01*
X140056938Y-101802753D01*
X140130365Y-101809500D01*
X140133263Y-101809500D01*
X140462860Y-101809499D01*
X140793634Y-101809499D01*
X140796492Y-101809236D01*
X140796501Y-101809236D01*
X140832004Y-101805974D01*
X140867062Y-101802753D01*
X140873447Y-101800752D01*
X141023450Y-101753744D01*
X141023452Y-101753743D01*
X141030699Y-101751472D01*
X141059006Y-101734329D01*
X141086159Y-101717885D01*
X144341000Y-101717885D01*
X144345475Y-101733124D01*
X144346865Y-101734329D01*
X144354548Y-101736000D01*
X145151885Y-101736000D01*
X145167124Y-101731525D01*
X145168329Y-101730135D01*
X145170000Y-101722452D01*
X145170000Y-101150116D01*
X145165525Y-101134877D01*
X145164135Y-101133672D01*
X145156452Y-101132001D01*
X144804331Y-101132001D01*
X144797510Y-101132371D01*
X144746648Y-101137895D01*
X144731396Y-101141521D01*
X144610946Y-101186676D01*
X144595351Y-101195214D01*
X144493276Y-101271715D01*
X144480715Y-101284276D01*
X144404214Y-101386351D01*
X144395676Y-101401946D01*
X144350522Y-101522394D01*
X144346895Y-101537649D01*
X144341369Y-101588514D01*
X144341000Y-101595328D01*
X144341000Y-101717885D01*
X141086159Y-101717885D01*
X141156852Y-101675072D01*
X141225482Y-101656893D01*
X141248320Y-101659601D01*
X141382057Y-101688028D01*
X141382061Y-101688028D01*
X141388514Y-101689400D01*
X141567486Y-101689400D01*
X141573939Y-101688028D01*
X141573943Y-101688028D01*
X141655016Y-101670795D01*
X141742546Y-101652190D01*
X141748577Y-101649505D01*
X141900015Y-101582081D01*
X141900017Y-101582080D01*
X141906045Y-101579396D01*
X141945824Y-101550495D01*
X142045492Y-101478082D01*
X142045494Y-101478080D01*
X142050836Y-101474199D01*
X142055258Y-101469288D01*
X142166172Y-101346105D01*
X142166173Y-101346104D01*
X142170591Y-101341197D01*
X142234178Y-101231062D01*
X142256773Y-101191926D01*
X142256774Y-101191925D01*
X142260077Y-101186203D01*
X142315382Y-101015991D01*
X142334090Y-100838000D01*
X142318690Y-100691483D01*
X142316072Y-100666573D01*
X142316072Y-100666572D01*
X142315382Y-100660009D01*
X142260077Y-100489797D01*
X142204191Y-100393000D01*
X142187453Y-100324005D01*
X142204191Y-100267000D01*
X142256773Y-100175926D01*
X142256774Y-100175925D01*
X142260077Y-100170203D01*
X142315382Y-99999991D01*
X142318549Y-99969865D01*
X142333400Y-99828565D01*
X142334090Y-99822000D01*
X142328613Y-99769889D01*
X142316072Y-99650573D01*
X142316072Y-99650572D01*
X142315382Y-99644009D01*
X142296508Y-99585919D01*
X142262119Y-99480082D01*
X142260077Y-99473797D01*
X142253482Y-99462373D01*
X142216945Y-99399090D01*
X142170591Y-99318803D01*
X142161295Y-99308478D01*
X142055258Y-99190712D01*
X142055257Y-99190711D01*
X142050836Y-99185801D01*
X142011939Y-99157540D01*
X141911387Y-99084485D01*
X141911386Y-99084484D01*
X141906045Y-99080604D01*
X141900017Y-99077920D01*
X141900015Y-99077919D01*
X141748577Y-99010495D01*
X141748576Y-99010495D01*
X141742546Y-99007810D01*
X141567486Y-98970600D01*
X141564347Y-98970600D01*
X141499878Y-98944079D01*
X141489607Y-98934874D01*
X141443787Y-98889054D01*
X141412648Y-98837638D01*
X141389744Y-98764550D01*
X141389743Y-98764548D01*
X141387472Y-98757301D01*
X141298639Y-98610619D01*
X141177381Y-98489361D01*
X141030699Y-98400528D01*
X141023452Y-98398257D01*
X141023450Y-98398256D01*
X140957164Y-98377483D01*
X140867062Y-98349247D01*
X140793635Y-98342500D01*
X140790737Y-98342500D01*
X140461140Y-98342501D01*
X140130366Y-98342501D01*
X140127508Y-98342764D01*
X140127499Y-98342764D01*
X140091996Y-98346026D01*
X140056938Y-98349247D01*
X140050560Y-98351246D01*
X140050559Y-98351246D01*
X139900550Y-98398256D01*
X139900548Y-98398257D01*
X139893301Y-98400528D01*
X139746619Y-98489361D01*
X139625361Y-98610619D01*
X139621424Y-98617120D01*
X139616738Y-98623096D01*
X139614221Y-98621122D01*
X139572556Y-98659240D01*
X139502580Y-98671236D01*
X139490358Y-98669200D01*
X139466455Y-98664000D01*
X137740115Y-98664000D01*
X137724876Y-98668475D01*
X137723671Y-98669865D01*
X137722000Y-98677548D01*
X137722000Y-98988812D01*
X137713982Y-99033041D01*
X137673029Y-99142282D01*
X137673027Y-99142288D01*
X137670255Y-99149684D01*
X137663500Y-99211866D01*
X137663500Y-99708134D01*
X137663869Y-99711531D01*
X137665224Y-99724000D01*
X137670255Y-99770316D01*
X137673027Y-99777709D01*
X137673027Y-99777711D01*
X137696667Y-99840771D01*
X137701850Y-99911578D01*
X137696667Y-99929229D01*
X137675138Y-99986658D01*
X137670255Y-99999684D01*
X137663500Y-100061866D01*
X137663500Y-100558134D01*
X131885090Y-100558134D01*
X131899342Y-100514270D01*
X131899342Y-100514269D01*
X131901382Y-100507991D01*
X131915062Y-100377842D01*
X131919400Y-100336565D01*
X131920090Y-100330000D01*
X131901382Y-100152009D01*
X131897273Y-100139361D01*
X131854029Y-100006270D01*
X131846077Y-99981797D01*
X131837766Y-99967401D01*
X131767954Y-99846485D01*
X131756591Y-99826803D01*
X131746960Y-99816106D01*
X131641258Y-99698712D01*
X131641257Y-99698711D01*
X131636836Y-99693801D01*
X131615247Y-99678115D01*
X131497387Y-99592485D01*
X131497386Y-99592484D01*
X131492045Y-99588604D01*
X131486017Y-99585920D01*
X131486015Y-99585919D01*
X131384049Y-99540521D01*
X131329953Y-99494541D01*
X131309304Y-99426613D01*
X131328656Y-99358305D01*
X131346310Y-99342711D01*
X131344896Y-99341486D01*
X131370329Y-99312135D01*
X131372000Y-99304452D01*
X131372000Y-99299884D01*
X131772000Y-99299884D01*
X131776475Y-99315123D01*
X131777865Y-99316328D01*
X131785548Y-99317999D01*
X131816669Y-99317999D01*
X131823490Y-99317629D01*
X131874352Y-99312105D01*
X131889604Y-99308479D01*
X131952770Y-99284799D01*
X132023578Y-99279616D01*
X132041230Y-99284799D01*
X132104394Y-99308478D01*
X132119649Y-99312105D01*
X132170514Y-99317631D01*
X132177328Y-99318000D01*
X132203885Y-99318000D01*
X132219124Y-99313525D01*
X132220329Y-99312135D01*
X132222000Y-99304452D01*
X132222000Y-99299884D01*
X132622000Y-99299884D01*
X132626475Y-99315123D01*
X132627865Y-99316328D01*
X132635548Y-99317999D01*
X132666669Y-99317999D01*
X132673490Y-99317629D01*
X132724352Y-99312105D01*
X132739604Y-99308479D01*
X132802770Y-99284799D01*
X132873578Y-99279616D01*
X132891230Y-99284799D01*
X132954394Y-99308478D01*
X132969649Y-99312105D01*
X133020514Y-99317631D01*
X133027328Y-99318000D01*
X133053885Y-99318000D01*
X133069124Y-99313525D01*
X133070329Y-99312135D01*
X133072000Y-99304452D01*
X133072000Y-99299884D01*
X133472000Y-99299884D01*
X133476475Y-99315123D01*
X133477865Y-99316328D01*
X133485548Y-99317999D01*
X133516669Y-99317999D01*
X133523490Y-99317629D01*
X133574352Y-99312105D01*
X133589604Y-99308479D01*
X133652770Y-99284799D01*
X133723578Y-99279616D01*
X133741230Y-99284799D01*
X133804394Y-99308478D01*
X133819649Y-99312105D01*
X133870514Y-99317631D01*
X133877328Y-99318000D01*
X133903885Y-99318000D01*
X133919124Y-99313525D01*
X133920329Y-99312135D01*
X133922000Y-99304452D01*
X133922000Y-99299884D01*
X134322000Y-99299884D01*
X134326475Y-99315123D01*
X134327865Y-99316328D01*
X134335548Y-99317999D01*
X134366669Y-99317999D01*
X134373490Y-99317629D01*
X134424352Y-99312105D01*
X134439604Y-99308479D01*
X134502770Y-99284799D01*
X134573578Y-99279616D01*
X134591230Y-99284799D01*
X134654394Y-99308478D01*
X134669649Y-99312105D01*
X134720514Y-99317631D01*
X134727328Y-99318000D01*
X134753885Y-99318000D01*
X134769124Y-99313525D01*
X134770329Y-99312135D01*
X134772000Y-99304452D01*
X134772000Y-99299884D01*
X135172000Y-99299884D01*
X135176475Y-99315123D01*
X135177865Y-99316328D01*
X135185548Y-99317999D01*
X135216669Y-99317999D01*
X135223490Y-99317629D01*
X135274352Y-99312105D01*
X135289604Y-99308479D01*
X135352770Y-99284799D01*
X135423578Y-99279616D01*
X135441230Y-99284799D01*
X135504394Y-99308478D01*
X135519649Y-99312105D01*
X135570514Y-99317631D01*
X135577328Y-99318000D01*
X135603885Y-99318000D01*
X135619124Y-99313525D01*
X135620329Y-99312135D01*
X135622000Y-99304452D01*
X135622000Y-99299884D01*
X136022000Y-99299884D01*
X136026475Y-99315123D01*
X136027865Y-99316328D01*
X136035548Y-99317999D01*
X136066669Y-99317999D01*
X136073490Y-99317629D01*
X136124352Y-99312105D01*
X136139604Y-99308479D01*
X136202770Y-99284799D01*
X136273578Y-99279616D01*
X136291230Y-99284799D01*
X136354394Y-99308478D01*
X136369649Y-99312105D01*
X136420514Y-99317631D01*
X136427328Y-99318000D01*
X136453885Y-99318000D01*
X136469124Y-99313525D01*
X136470329Y-99312135D01*
X136472000Y-99304452D01*
X136472000Y-99299884D01*
X136872000Y-99299884D01*
X136876475Y-99315123D01*
X136877865Y-99316328D01*
X136885548Y-99317999D01*
X136916669Y-99317999D01*
X136923490Y-99317629D01*
X136974352Y-99312105D01*
X136989604Y-99308479D01*
X137052770Y-99284799D01*
X137123578Y-99279616D01*
X137141230Y-99284799D01*
X137204394Y-99308478D01*
X137219649Y-99312105D01*
X137270514Y-99317631D01*
X137277328Y-99318000D01*
X137303885Y-99318000D01*
X137319124Y-99313525D01*
X137320329Y-99312135D01*
X137322000Y-99304452D01*
X137322000Y-98628115D01*
X137317525Y-98612876D01*
X137316135Y-98611671D01*
X137308452Y-98610000D01*
X136890115Y-98610000D01*
X136874876Y-98614475D01*
X136873671Y-98615865D01*
X136872000Y-98623548D01*
X136872000Y-99299884D01*
X136472000Y-99299884D01*
X136472000Y-98628115D01*
X136467525Y-98612876D01*
X136466135Y-98611671D01*
X136458452Y-98610000D01*
X136040115Y-98610000D01*
X136024876Y-98614475D01*
X136023671Y-98615865D01*
X136022000Y-98623548D01*
X136022000Y-99299884D01*
X135622000Y-99299884D01*
X135622000Y-98628115D01*
X135617525Y-98612876D01*
X135616135Y-98611671D01*
X135608452Y-98610000D01*
X135190115Y-98610000D01*
X135174876Y-98614475D01*
X135173671Y-98615865D01*
X135172000Y-98623548D01*
X135172000Y-99299884D01*
X134772000Y-99299884D01*
X134772000Y-98628115D01*
X134767525Y-98612876D01*
X134766135Y-98611671D01*
X134758452Y-98610000D01*
X134340115Y-98610000D01*
X134324876Y-98614475D01*
X134323671Y-98615865D01*
X134322000Y-98623548D01*
X134322000Y-99299884D01*
X133922000Y-99299884D01*
X133922000Y-98628115D01*
X133917525Y-98612876D01*
X133916135Y-98611671D01*
X133908452Y-98610000D01*
X133490115Y-98610000D01*
X133474876Y-98614475D01*
X133473671Y-98615865D01*
X133472000Y-98623548D01*
X133472000Y-99299884D01*
X133072000Y-99299884D01*
X133072000Y-98628115D01*
X133067525Y-98612876D01*
X133066135Y-98611671D01*
X133058452Y-98610000D01*
X132640115Y-98610000D01*
X132624876Y-98614475D01*
X132623671Y-98615865D01*
X132622000Y-98623548D01*
X132622000Y-99299884D01*
X132222000Y-99299884D01*
X132222000Y-98628115D01*
X132217525Y-98612876D01*
X132216135Y-98611671D01*
X132208452Y-98610000D01*
X131790115Y-98610000D01*
X131774876Y-98614475D01*
X131773671Y-98615865D01*
X131772000Y-98623548D01*
X131772000Y-99299884D01*
X131372000Y-99299884D01*
X131372000Y-98628115D01*
X131367525Y-98612876D01*
X131366135Y-98611671D01*
X131358452Y-98610000D01*
X130940115Y-98610000D01*
X130924876Y-98614475D01*
X130923671Y-98615865D01*
X130922000Y-98623548D01*
X130922000Y-99299883D01*
X130936168Y-99348134D01*
X130936168Y-99419131D01*
X130897785Y-99478857D01*
X130841467Y-99506880D01*
X130799454Y-99515810D01*
X130793424Y-99518495D01*
X130793423Y-99518495D01*
X130641985Y-99585919D01*
X130641983Y-99585920D01*
X130635955Y-99588604D01*
X130630614Y-99592484D01*
X130630613Y-99592485D01*
X130512754Y-99678115D01*
X130491164Y-99693801D01*
X130486743Y-99698711D01*
X130486742Y-99698712D01*
X130381041Y-99816106D01*
X130371409Y-99826803D01*
X130360046Y-99846485D01*
X130290235Y-99967401D01*
X130281923Y-99981797D01*
X130273971Y-100006270D01*
X130230728Y-100139361D01*
X130226618Y-100152009D01*
X130207910Y-100330000D01*
X130208600Y-100336565D01*
X130212939Y-100377842D01*
X130226618Y-100507991D01*
X130228658Y-100514269D01*
X130228658Y-100514270D01*
X130244014Y-100561531D01*
X130281923Y-100678203D01*
X130285226Y-100683925D01*
X130285227Y-100683926D01*
X130337809Y-100775000D01*
X130354547Y-100843995D01*
X130337809Y-100901000D01*
X130285298Y-100991952D01*
X130281923Y-100997797D01*
X130275316Y-101018131D01*
X130234257Y-101144500D01*
X130226618Y-101168009D01*
X130207910Y-101346000D01*
X130208600Y-101352565D01*
X130225211Y-101510600D01*
X130226618Y-101523991D01*
X130228658Y-101530269D01*
X130228658Y-101530270D01*
X130246441Y-101585000D01*
X130281923Y-101694203D01*
X130285226Y-101699925D01*
X130285227Y-101699926D01*
X130337809Y-101791000D01*
X130354547Y-101859995D01*
X130337809Y-101917000D01*
X130292396Y-101995658D01*
X130281923Y-102013797D01*
X130277705Y-102026778D01*
X130234085Y-102161029D01*
X130226618Y-102184009D01*
X130225928Y-102190572D01*
X130225928Y-102190573D01*
X130213128Y-102312357D01*
X130207910Y-102362000D01*
X130208600Y-102368565D01*
X130208600Y-102368566D01*
X130222635Y-102502101D01*
X130209863Y-102571939D01*
X130161361Y-102623786D01*
X130097325Y-102641271D01*
X129922995Y-102641271D01*
X129922995Y-102642892D01*
X129904991Y-102645152D01*
X129867147Y-102643796D01*
X129725462Y-102679940D01*
X129724467Y-102680352D01*
X129724417Y-102680373D01*
X129721585Y-102681546D01*
X129703052Y-102691667D01*
X129632053Y-102730440D01*
X129632051Y-102730441D01*
X129625130Y-102734221D01*
X129619359Y-102739595D01*
X129619358Y-102739596D01*
X129571995Y-102783704D01*
X129556408Y-102795815D01*
X129554500Y-102793907D01*
X128955907Y-103392500D01*
X128957058Y-103393651D01*
X128945932Y-103407975D01*
X128924718Y-103427731D01*
X128918123Y-103433873D01*
X128913526Y-103441622D01*
X128913525Y-103441624D01*
X128845828Y-103555752D01*
X128843525Y-103559635D01*
X128843134Y-103560580D01*
X128841961Y-103563412D01*
X128811033Y-103668724D01*
X128810751Y-103676604D01*
X128808427Y-103741433D01*
X128805969Y-103760995D01*
X128803271Y-103760995D01*
X128803271Y-104359005D01*
X128054493Y-104359005D01*
X128051901Y-104355438D01*
X128043234Y-104343509D01*
X128036719Y-104333590D01*
X128018174Y-104302232D01*
X128018171Y-104302228D01*
X128014134Y-104295402D01*
X127999750Y-104281018D01*
X127986909Y-104265984D01*
X127979602Y-104255927D01*
X127974942Y-104249513D01*
X127940744Y-104221222D01*
X127931965Y-104213233D01*
X126080733Y-102362000D01*
X127413910Y-102362000D01*
X127414600Y-102368565D01*
X127428636Y-102502101D01*
X127432618Y-102539991D01*
X127434658Y-102546269D01*
X127434658Y-102546270D01*
X127456786Y-102614374D01*
X127487923Y-102710203D01*
X127577409Y-102865197D01*
X127581827Y-102870104D01*
X127581828Y-102870105D01*
X127680583Y-102979784D01*
X127697164Y-102998199D01*
X127702506Y-103002080D01*
X127702508Y-103002082D01*
X127836613Y-103099515D01*
X127841955Y-103103396D01*
X127847983Y-103106080D01*
X127847985Y-103106081D01*
X127993660Y-103170939D01*
X128005454Y-103176190D01*
X128092984Y-103194795D01*
X128174057Y-103212028D01*
X128174061Y-103212028D01*
X128180514Y-103213400D01*
X128359486Y-103213400D01*
X128365939Y-103212028D01*
X128365943Y-103212028D01*
X128447016Y-103194795D01*
X128534546Y-103176190D01*
X128546340Y-103170939D01*
X128692015Y-103106081D01*
X128692017Y-103106080D01*
X128698045Y-103103396D01*
X128703387Y-103099515D01*
X128837492Y-103002082D01*
X128837494Y-103002080D01*
X128842836Y-102998199D01*
X128859417Y-102979784D01*
X128958172Y-102870105D01*
X128958173Y-102870104D01*
X128962591Y-102865197D01*
X129052077Y-102710203D01*
X129083214Y-102614374D01*
X129105342Y-102546270D01*
X129105342Y-102546269D01*
X129107382Y-102539991D01*
X129111365Y-102502101D01*
X129125400Y-102368565D01*
X129126090Y-102362000D01*
X129120872Y-102312357D01*
X129108072Y-102190573D01*
X129108072Y-102190572D01*
X129107382Y-102184009D01*
X129099916Y-102161029D01*
X129056295Y-102026778D01*
X129052077Y-102013797D01*
X129041605Y-101995658D01*
X128996191Y-101917000D01*
X128979453Y-101848005D01*
X128996191Y-101791000D01*
X129048773Y-101699926D01*
X129048774Y-101699925D01*
X129052077Y-101694203D01*
X129087559Y-101585000D01*
X129105342Y-101530270D01*
X129105342Y-101530269D01*
X129107382Y-101523991D01*
X129108790Y-101510600D01*
X129125400Y-101352565D01*
X129126090Y-101346000D01*
X129107382Y-101168009D01*
X129099744Y-101144500D01*
X129058684Y-101018131D01*
X129052077Y-100997797D01*
X129048703Y-100991952D01*
X128996191Y-100901000D01*
X128979453Y-100832005D01*
X128996191Y-100775000D01*
X129048773Y-100683926D01*
X129048774Y-100683925D01*
X129052077Y-100678203D01*
X129089986Y-100561531D01*
X129105342Y-100514270D01*
X129105342Y-100514269D01*
X129107382Y-100507991D01*
X129121062Y-100377842D01*
X129125400Y-100336565D01*
X129126090Y-100330000D01*
X129107382Y-100152009D01*
X129103273Y-100139361D01*
X129060029Y-100006270D01*
X129052077Y-99981797D01*
X129043766Y-99967401D01*
X128973954Y-99846485D01*
X128962591Y-99826803D01*
X128952960Y-99816106D01*
X128847258Y-99698712D01*
X128847257Y-99698711D01*
X128842836Y-99693801D01*
X128821247Y-99678115D01*
X128703387Y-99592485D01*
X128703386Y-99592484D01*
X128698045Y-99588604D01*
X128692019Y-99585921D01*
X128692012Y-99585917D01*
X128542203Y-99519219D01*
X128488107Y-99473239D01*
X128467457Y-99405312D01*
X128486809Y-99337004D01*
X128540020Y-99290002D01*
X128549206Y-99286136D01*
X128552755Y-99284805D01*
X128623561Y-99279612D01*
X128641230Y-99284799D01*
X128704394Y-99308478D01*
X128719649Y-99312105D01*
X128770514Y-99317631D01*
X128777328Y-99318000D01*
X128803885Y-99318000D01*
X128819124Y-99313525D01*
X128820329Y-99312135D01*
X128822000Y-99304452D01*
X128822000Y-99299884D01*
X129222000Y-99299884D01*
X129226475Y-99315123D01*
X129227865Y-99316328D01*
X129235548Y-99317999D01*
X129266669Y-99317999D01*
X129273490Y-99317629D01*
X129324352Y-99312105D01*
X129339604Y-99308479D01*
X129402770Y-99284799D01*
X129473578Y-99279616D01*
X129491230Y-99284799D01*
X129554394Y-99308478D01*
X129569649Y-99312105D01*
X129620514Y-99317631D01*
X129627328Y-99318000D01*
X129653885Y-99318000D01*
X129669124Y-99313525D01*
X129670329Y-99312135D01*
X129672000Y-99304452D01*
X129672000Y-99299884D01*
X130072000Y-99299884D01*
X130076475Y-99315123D01*
X130077865Y-99316328D01*
X130085548Y-99317999D01*
X130116669Y-99317999D01*
X130123490Y-99317629D01*
X130174352Y-99312105D01*
X130189604Y-99308479D01*
X130252770Y-99284799D01*
X130323578Y-99279616D01*
X130341230Y-99284799D01*
X130404394Y-99308478D01*
X130419649Y-99312105D01*
X130470514Y-99317631D01*
X130477328Y-99318000D01*
X130503885Y-99318000D01*
X130519124Y-99313525D01*
X130520329Y-99312135D01*
X130522000Y-99304452D01*
X130522000Y-98628115D01*
X130517525Y-98612876D01*
X130516135Y-98611671D01*
X130508452Y-98610000D01*
X130090115Y-98610000D01*
X130074876Y-98614475D01*
X130073671Y-98615865D01*
X130072000Y-98623548D01*
X130072000Y-99299884D01*
X129672000Y-99299884D01*
X129672000Y-98628115D01*
X129667525Y-98612876D01*
X129666135Y-98611671D01*
X129658452Y-98610000D01*
X129240115Y-98610000D01*
X129224876Y-98614475D01*
X129223671Y-98615865D01*
X129222000Y-98623548D01*
X129222000Y-99299884D01*
X128822000Y-99299884D01*
X128822000Y-98628115D01*
X128817525Y-98612876D01*
X128816135Y-98611671D01*
X128808452Y-98610000D01*
X127540115Y-98610000D01*
X127524876Y-98614475D01*
X127523671Y-98615865D01*
X127522000Y-98623548D01*
X127522000Y-99299884D01*
X127526475Y-99315123D01*
X127527865Y-99316328D01*
X127535548Y-99317999D01*
X127566669Y-99317999D01*
X127573490Y-99317629D01*
X127624352Y-99312105D01*
X127639604Y-99308479D01*
X127702770Y-99284799D01*
X127773578Y-99279616D01*
X127791230Y-99284799D01*
X127854394Y-99308478D01*
X127869649Y-99312105D01*
X127882358Y-99313486D01*
X127947920Y-99340727D01*
X127988347Y-99399090D01*
X127990803Y-99470044D01*
X127954508Y-99531062D01*
X127920000Y-99553856D01*
X127847985Y-99585919D01*
X127847983Y-99585920D01*
X127841955Y-99588604D01*
X127836614Y-99592484D01*
X127836613Y-99592485D01*
X127718754Y-99678115D01*
X127697164Y-99693801D01*
X127692743Y-99698711D01*
X127692742Y-99698712D01*
X127587041Y-99816106D01*
X127577409Y-99826803D01*
X127566046Y-99846485D01*
X127496235Y-99967401D01*
X127487923Y-99981797D01*
X127479971Y-100006270D01*
X127436728Y-100139361D01*
X127432618Y-100152009D01*
X127413910Y-100330000D01*
X127414600Y-100336565D01*
X127418939Y-100377842D01*
X127432618Y-100507991D01*
X127434658Y-100514269D01*
X127434658Y-100514270D01*
X127450014Y-100561531D01*
X127487923Y-100678203D01*
X127491226Y-100683925D01*
X127491227Y-100683926D01*
X127543809Y-100775000D01*
X127560547Y-100843995D01*
X127543809Y-100901000D01*
X127491298Y-100991952D01*
X127487923Y-100997797D01*
X127481316Y-101018131D01*
X127440257Y-101144500D01*
X127432618Y-101168009D01*
X127413910Y-101346000D01*
X127414600Y-101352565D01*
X127431211Y-101510600D01*
X127432618Y-101523991D01*
X127434658Y-101530269D01*
X127434658Y-101530270D01*
X127452441Y-101585000D01*
X127487923Y-101694203D01*
X127491226Y-101699925D01*
X127491227Y-101699926D01*
X127543809Y-101791000D01*
X127560547Y-101859995D01*
X127543809Y-101917000D01*
X127498396Y-101995658D01*
X127487923Y-102013797D01*
X127483705Y-102026778D01*
X127440085Y-102161029D01*
X127432618Y-102184009D01*
X127431928Y-102190572D01*
X127431928Y-102190573D01*
X127419128Y-102312357D01*
X127413910Y-102362000D01*
X126080733Y-102362000D01*
X125511864Y-101793131D01*
X125477838Y-101730819D01*
X125475696Y-101717643D01*
X125474598Y-101707535D01*
X125474598Y-101707534D01*
X125473745Y-101699684D01*
X125469890Y-101689400D01*
X125447333Y-101629229D01*
X125442150Y-101558422D01*
X125447333Y-101540771D01*
X125470973Y-101477711D01*
X125470973Y-101477709D01*
X125473745Y-101470316D01*
X125480500Y-101408134D01*
X125480500Y-100911866D01*
X125473745Y-100849684D01*
X125469365Y-100838000D01*
X125447066Y-100778517D01*
X125441883Y-100707710D01*
X125447066Y-100690059D01*
X125470480Y-100627602D01*
X125474105Y-100612357D01*
X125479631Y-100561486D01*
X125480000Y-100554672D01*
X125480000Y-100528115D01*
X125475525Y-100512876D01*
X125474135Y-100511671D01*
X125466452Y-100510000D01*
X125243188Y-100510000D01*
X125198959Y-100501982D01*
X125089718Y-100461029D01*
X125089712Y-100461027D01*
X125082316Y-100458255D01*
X125020134Y-100451500D01*
X124498000Y-100451500D01*
X124429879Y-100431498D01*
X124383386Y-100377842D01*
X124372000Y-100325500D01*
X124372000Y-100091885D01*
X124772000Y-100091885D01*
X124776475Y-100107124D01*
X124777865Y-100108329D01*
X124785548Y-100110000D01*
X125461884Y-100110000D01*
X125477123Y-100105525D01*
X125478328Y-100104135D01*
X125479999Y-100096452D01*
X125479999Y-100065331D01*
X125479629Y-100058510D01*
X125474105Y-100007648D01*
X125470479Y-99992396D01*
X125446799Y-99929230D01*
X125441616Y-99858422D01*
X125446799Y-99840770D01*
X125470478Y-99777606D01*
X125474105Y-99762351D01*
X125479631Y-99711486D01*
X125480000Y-99704672D01*
X125480000Y-99678115D01*
X125475525Y-99662876D01*
X125474135Y-99661671D01*
X125466452Y-99660000D01*
X124790115Y-99660000D01*
X124774876Y-99664475D01*
X124773671Y-99665865D01*
X124772000Y-99673548D01*
X124772000Y-100091885D01*
X124372000Y-100091885D01*
X124372000Y-99678115D01*
X124367525Y-99662876D01*
X124366135Y-99661671D01*
X124358452Y-99660000D01*
X123812115Y-99660000D01*
X123796876Y-99664475D01*
X123795671Y-99665865D01*
X123794000Y-99673548D01*
X123794000Y-99724000D01*
X123773998Y-99792121D01*
X123720342Y-99838614D01*
X123668000Y-99850000D01*
X123457379Y-99850000D01*
X123393240Y-99832454D01*
X123372420Y-99820141D01*
X123372419Y-99820141D01*
X123365597Y-99816106D01*
X123357986Y-99813895D01*
X123357984Y-99813894D01*
X123283039Y-99792121D01*
X123208254Y-99770394D01*
X123201849Y-99769890D01*
X123201844Y-99769889D01*
X123173940Y-99767693D01*
X123173932Y-99767693D01*
X123171484Y-99767500D01*
X122700516Y-99767500D01*
X122698068Y-99767693D01*
X122698060Y-99767693D01*
X122670156Y-99769889D01*
X122670151Y-99769890D01*
X122663746Y-99770394D01*
X122588961Y-99792121D01*
X122514016Y-99813894D01*
X122514014Y-99813895D01*
X122506403Y-99816106D01*
X122499580Y-99820141D01*
X122478760Y-99832454D01*
X122414621Y-99850000D01*
X122391440Y-99850000D01*
X122340192Y-99839107D01*
X122190581Y-99772496D01*
X122190573Y-99772493D01*
X122184546Y-99769810D01*
X122097016Y-99751205D01*
X122015943Y-99733972D01*
X122015939Y-99733972D01*
X122009486Y-99732600D01*
X121830514Y-99732600D01*
X121824061Y-99733972D01*
X121824057Y-99733972D01*
X121742984Y-99751205D01*
X121655454Y-99769810D01*
X121649424Y-99772495D01*
X121649423Y-99772495D01*
X121497985Y-99839919D01*
X121497983Y-99839920D01*
X121491955Y-99842604D01*
X121486614Y-99846484D01*
X121486613Y-99846485D01*
X121372725Y-99929230D01*
X121347164Y-99947801D01*
X121342743Y-99952711D01*
X121342742Y-99952712D01*
X121247482Y-100058510D01*
X121227409Y-100080803D01*
X121137923Y-100235797D01*
X121082618Y-100406009D01*
X121081928Y-100412572D01*
X121081928Y-100412573D01*
X121069095Y-100534671D01*
X121042082Y-100600327D01*
X120983860Y-100640957D01*
X120943785Y-100647500D01*
X120318614Y-100647500D01*
X120250493Y-100627498D01*
X120204000Y-100573842D01*
X120193896Y-100503568D01*
X120215401Y-100449230D01*
X120274562Y-100364739D01*
X120280048Y-100355238D01*
X120371199Y-100159762D01*
X120374945Y-100149470D01*
X120419953Y-99981497D01*
X120419617Y-99967401D01*
X120411675Y-99964000D01*
X118636115Y-99964000D01*
X118620876Y-99968475D01*
X118619671Y-99969865D01*
X118618000Y-99977548D01*
X118618000Y-100987385D01*
X118622475Y-101002624D01*
X118623865Y-101003829D01*
X118631548Y-101005500D01*
X119075500Y-101005500D01*
X119143621Y-101025502D01*
X119190114Y-101079158D01*
X119201500Y-101131500D01*
X119201500Y-102120162D01*
X119181498Y-102188283D01*
X119127842Y-102234776D01*
X119057568Y-102244880D01*
X119007153Y-102226015D01*
X118906509Y-102161029D01*
X118893046Y-102152336D01*
X118893043Y-102152335D01*
X118888009Y-102149084D01*
X118687396Y-102068234D01*
X118681515Y-102067086D01*
X118681510Y-102067084D01*
X118479559Y-102027646D01*
X118479556Y-102027646D01*
X118475113Y-102026778D01*
X118469429Y-102026500D01*
X118309959Y-102026500D01*
X118148685Y-102041887D01*
X117941140Y-102102774D01*
X117935813Y-102105518D01*
X117935812Y-102105518D01*
X117754183Y-102199063D01*
X117754180Y-102199065D01*
X117748852Y-102201809D01*
X117706883Y-102234776D01*
X117583478Y-102331711D01*
X117583473Y-102331715D01*
X117578761Y-102335417D01*
X117574830Y-102339947D01*
X117574829Y-102339948D01*
X117440933Y-102494248D01*
X117440929Y-102494253D01*
X117437002Y-102498779D01*
X117328693Y-102685999D01*
X117291424Y-102793324D01*
X117268380Y-102859684D01*
X117257740Y-102890323D01*
X117256879Y-102896258D01*
X117256879Y-102896260D01*
X117237885Y-103027261D01*
X117226703Y-103104377D01*
X117236704Y-103320438D01*
X117238108Y-103326263D01*
X117238108Y-103326264D01*
X117280732Y-103503124D01*
X117287380Y-103530710D01*
X117289862Y-103536168D01*
X117289863Y-103536172D01*
X117327917Y-103619866D01*
X117376903Y-103727606D01*
X117502043Y-103904021D01*
X117658285Y-104053590D01*
X117663320Y-104056841D01*
X117834954Y-104167664D01*
X117834957Y-104167665D01*
X117839991Y-104170916D01*
X117845554Y-104173158D01*
X117919331Y-104202891D01*
X118040604Y-104251766D01*
X118046485Y-104252914D01*
X118046490Y-104252916D01*
X118248441Y-104292354D01*
X118248444Y-104292354D01*
X118252887Y-104293222D01*
X118258571Y-104293500D01*
X118418041Y-104293500D01*
X118579315Y-104278113D01*
X118786860Y-104217226D01*
X118823258Y-104198480D01*
X118973817Y-104120937D01*
X118973820Y-104120935D01*
X118979148Y-104118191D01*
X119011441Y-104092824D01*
X119077368Y-104066474D01*
X119147074Y-104079949D01*
X119198429Y-104128971D01*
X119214796Y-104202891D01*
X119202494Y-104343512D01*
X119196677Y-104410000D01*
X119215930Y-104630068D01*
X119273106Y-104843450D01*
X119275428Y-104848431D01*
X119275429Y-104848432D01*
X119362658Y-105035494D01*
X119366466Y-105043661D01*
X119493174Y-105224620D01*
X119589459Y-105320905D01*
X119623485Y-105383217D01*
X119618420Y-105454032D01*
X119589459Y-105499095D01*
X119493174Y-105595380D01*
X119366466Y-105776339D01*
X119364145Y-105781317D01*
X119364143Y-105781320D01*
X119303589Y-105911179D01*
X119273106Y-105976550D01*
X119215930Y-106189932D01*
X119196677Y-106410000D01*
X119211350Y-106577711D01*
X119214886Y-106618133D01*
X119200897Y-106687737D01*
X119151497Y-106738730D01*
X119082371Y-106754920D01*
X119021017Y-106734966D01*
X118893046Y-106652336D01*
X118893043Y-106652335D01*
X118888009Y-106649084D01*
X118687396Y-106568234D01*
X118681515Y-106567086D01*
X118681510Y-106567084D01*
X118479559Y-106527646D01*
X118479556Y-106527646D01*
X118475113Y-106526778D01*
X118469429Y-106526500D01*
X118309959Y-106526500D01*
X118148685Y-106541887D01*
X117941140Y-106602774D01*
X117935813Y-106605518D01*
X117935812Y-106605518D01*
X117754183Y-106699063D01*
X117754180Y-106699065D01*
X117748852Y-106701809D01*
X117716556Y-106727178D01*
X117583478Y-106831711D01*
X117583473Y-106831715D01*
X117578761Y-106835417D01*
X117574830Y-106839947D01*
X117574829Y-106839948D01*
X117440933Y-106994248D01*
X117440929Y-106994253D01*
X117437002Y-106998779D01*
X117328693Y-107185999D01*
X117257740Y-107390323D01*
X117256879Y-107396258D01*
X117256879Y-107396260D01*
X117228597Y-107591317D01*
X117226703Y-107604377D01*
X117236704Y-107820438D01*
X117238108Y-107826263D01*
X117238108Y-107826264D01*
X117280628Y-108002692D01*
X117287380Y-108030710D01*
X117376903Y-108227606D01*
X117502043Y-108404021D01*
X117658285Y-108553590D01*
X117663320Y-108556841D01*
X117834954Y-108667664D01*
X117834957Y-108667665D01*
X117839991Y-108670916D01*
X118040604Y-108751766D01*
X118046485Y-108752914D01*
X118046490Y-108752916D01*
X118248441Y-108792354D01*
X118248444Y-108792354D01*
X118252887Y-108793222D01*
X118258571Y-108793500D01*
X118418041Y-108793500D01*
X118579315Y-108778113D01*
X118786860Y-108717226D01*
X118792188Y-108714482D01*
X118973817Y-108620937D01*
X118973820Y-108620935D01*
X118979148Y-108618191D01*
X119011983Y-108592399D01*
X119077909Y-108566050D01*
X119147615Y-108579525D01*
X119198970Y-108628548D01*
X119215336Y-108702468D01*
X119197658Y-108904525D01*
X119197658Y-108915475D01*
X119215946Y-109124501D01*
X119217849Y-109135296D01*
X119272155Y-109337968D01*
X119275901Y-109348260D01*
X119364578Y-109538429D01*
X119370056Y-109547915D01*
X119424488Y-109625653D01*
X119447176Y-109692926D01*
X119429891Y-109761787D01*
X119378121Y-109810371D01*
X119310293Y-109823443D01*
X119210813Y-109814739D01*
X119205327Y-109814500D01*
X118636115Y-109814500D01*
X118620876Y-109818975D01*
X118619671Y-109820365D01*
X118618000Y-109828048D01*
X118618000Y-110837885D01*
X118622475Y-110853124D01*
X118623865Y-110854329D01*
X118631548Y-110856000D01*
X120406526Y-110856000D01*
X120420057Y-110852027D01*
X120421286Y-110843478D01*
X120374945Y-110670530D01*
X120371199Y-110660238D01*
X120280045Y-110464757D01*
X120274567Y-110455271D01*
X120209494Y-110362336D01*
X120186806Y-110295062D01*
X120204091Y-110226202D01*
X120255861Y-110177618D01*
X120323689Y-110164545D01*
X120458525Y-110176342D01*
X120469475Y-110176342D01*
X120678501Y-110158054D01*
X120689296Y-110156151D01*
X120891968Y-110101845D01*
X120902260Y-110098099D01*
X121092424Y-110009425D01*
X121101919Y-110003942D01*
X121144021Y-109974462D01*
X121152396Y-109963985D01*
X121145328Y-109950538D01*
X120193885Y-108999095D01*
X120159859Y-108936783D01*
X120161694Y-108911132D01*
X120828408Y-108911132D01*
X120828539Y-108912965D01*
X120832790Y-108919580D01*
X121505259Y-109592049D01*
X121517033Y-109598479D01*
X121529049Y-109589183D01*
X121557945Y-109547915D01*
X121563423Y-109538425D01*
X121652099Y-109348260D01*
X121655845Y-109337968D01*
X121710151Y-109135296D01*
X121712054Y-109124501D01*
X121730342Y-108915475D01*
X121730342Y-108904525D01*
X121712054Y-108695499D01*
X121710151Y-108684704D01*
X121655845Y-108482032D01*
X121652099Y-108471740D01*
X121563423Y-108281575D01*
X121557945Y-108272085D01*
X121528461Y-108229978D01*
X121517985Y-108221604D01*
X121504537Y-108228673D01*
X120836022Y-108897188D01*
X120828408Y-108911132D01*
X120161694Y-108911132D01*
X120164924Y-108865968D01*
X120193885Y-108820905D01*
X121146049Y-107868741D01*
X121152479Y-107856966D01*
X121143183Y-107844951D01*
X121101919Y-107816058D01*
X121092424Y-107810575D01*
X121014997Y-107774471D01*
X120961712Y-107727554D01*
X120942251Y-107659277D01*
X120962793Y-107591317D01*
X121014997Y-107546081D01*
X121097662Y-107507534D01*
X121103652Y-107503340D01*
X121274109Y-107383985D01*
X121274112Y-107383983D01*
X121278620Y-107380826D01*
X121434826Y-107224620D01*
X121561534Y-107043661D01*
X121580042Y-107003972D01*
X121652571Y-106848432D01*
X121652572Y-106848431D01*
X121654894Y-106843450D01*
X121657047Y-106835417D01*
X121692847Y-106701809D01*
X121712070Y-106630068D01*
X121731323Y-106410000D01*
X121712070Y-106189932D01*
X121654894Y-105976550D01*
X121624411Y-105911179D01*
X121563857Y-105781320D01*
X121563855Y-105781317D01*
X121561534Y-105776339D01*
X121434826Y-105595380D01*
X121338541Y-105499095D01*
X121304515Y-105436783D01*
X121309580Y-105365968D01*
X121338541Y-105320905D01*
X121434826Y-105224620D01*
X121561534Y-105043661D01*
X121565343Y-105035494D01*
X121652571Y-104848432D01*
X121652572Y-104848431D01*
X121654894Y-104843450D01*
X121712070Y-104630068D01*
X121731323Y-104410000D01*
X121712070Y-104189932D01*
X121664518Y-104012466D01*
X121656317Y-103981860D01*
X121656316Y-103981858D01*
X121654894Y-103976550D01*
X121647891Y-103961531D01*
X121563857Y-103781320D01*
X121563855Y-103781317D01*
X121561534Y-103776339D01*
X121434826Y-103595380D01*
X121278620Y-103439174D01*
X121274112Y-103436017D01*
X121274109Y-103436015D01*
X121221839Y-103399415D01*
X121177511Y-103343957D01*
X121170202Y-103273338D01*
X121202233Y-103209978D01*
X121263435Y-103173993D01*
X121280502Y-103170939D01*
X121284037Y-103170555D01*
X121320460Y-103166599D01*
X121320464Y-103166598D01*
X121328316Y-103165745D01*
X121464705Y-103114615D01*
X121581261Y-103027261D01*
X121668615Y-102910705D01*
X121689921Y-102853871D01*
X122127776Y-102853871D01*
X122164357Y-102979784D01*
X122170604Y-102994220D01*
X122245876Y-103121499D01*
X122255516Y-103133926D01*
X122360074Y-103238484D01*
X122372501Y-103248124D01*
X122499780Y-103323396D01*
X122514216Y-103329643D01*
X122657641Y-103371312D01*
X122665609Y-103372768D01*
X122679031Y-103369948D01*
X122682000Y-103358487D01*
X122682000Y-102860115D01*
X122677525Y-102844876D01*
X122676135Y-102843671D01*
X122668452Y-102842000D01*
X122142442Y-102842000D01*
X122128911Y-102845973D01*
X122127776Y-102853871D01*
X121689921Y-102853871D01*
X121719745Y-102774316D01*
X121726500Y-102712134D01*
X121726500Y-102577400D01*
X121746502Y-102509279D01*
X121800158Y-102462786D01*
X121852500Y-102451400D01*
X122009486Y-102451400D01*
X122015939Y-102450028D01*
X122015943Y-102450028D01*
X122113501Y-102429291D01*
X122184546Y-102414190D01*
X122190573Y-102411507D01*
X122190581Y-102411504D01*
X122340192Y-102344893D01*
X122391440Y-102334000D01*
X122414621Y-102334000D01*
X122478760Y-102351546D01*
X122506403Y-102367894D01*
X122514014Y-102370105D01*
X122514016Y-102370106D01*
X122564143Y-102384669D01*
X122663746Y-102413606D01*
X122670151Y-102414110D01*
X122670156Y-102414111D01*
X122698060Y-102416307D01*
X122698068Y-102416307D01*
X122700516Y-102416500D01*
X123064000Y-102416500D01*
X123132121Y-102436502D01*
X123178614Y-102490158D01*
X123190000Y-102542500D01*
X123190000Y-103356424D01*
X123194344Y-103371219D01*
X123204775Y-103373063D01*
X123214359Y-103371312D01*
X123357784Y-103329643D01*
X123372224Y-103323394D01*
X123485965Y-103256129D01*
X123554781Y-103238670D01*
X123622112Y-103261187D01*
X123666581Y-103316532D01*
X123672650Y-103393294D01*
X123670255Y-103399684D01*
X123663500Y-103461866D01*
X123663500Y-103958134D01*
X123663869Y-103961531D01*
X123665501Y-103976550D01*
X123670255Y-104020316D01*
X123673027Y-104027709D01*
X123673027Y-104027711D01*
X123696667Y-104090771D01*
X123701850Y-104161578D01*
X123696667Y-104179229D01*
X123673027Y-104242289D01*
X123670255Y-104249684D01*
X123669402Y-104257532D01*
X123669402Y-104257534D01*
X123664547Y-104302232D01*
X123663500Y-104311866D01*
X123663500Y-104808134D01*
X123663869Y-104811531D01*
X123666760Y-104838140D01*
X123670255Y-104870316D01*
X123673027Y-104877709D01*
X123673027Y-104877711D01*
X123696667Y-104940771D01*
X123701850Y-105011578D01*
X123696667Y-105029229D01*
X123684377Y-105062014D01*
X123670255Y-105099684D01*
X123669402Y-105107532D01*
X123669402Y-105107534D01*
X123666732Y-105132112D01*
X123663500Y-105161866D01*
X123663500Y-105658134D01*
X123670255Y-105720316D01*
X123673027Y-105727709D01*
X123673027Y-105727711D01*
X123696667Y-105790771D01*
X123701850Y-105861578D01*
X123696667Y-105879229D01*
X123670255Y-105949684D01*
X123669402Y-105957532D01*
X123669402Y-105957534D01*
X123666122Y-105987730D01*
X123663500Y-106011866D01*
X123663500Y-106508134D01*
X123663869Y-106511531D01*
X123665503Y-106526568D01*
X123670255Y-106570316D01*
X123673027Y-106577709D01*
X123673027Y-106577711D01*
X123696667Y-106640771D01*
X123701850Y-106711578D01*
X123696667Y-106729229D01*
X123687036Y-106754920D01*
X123670255Y-106799684D01*
X123669402Y-106807532D01*
X123669402Y-106807534D01*
X123664959Y-106848432D01*
X123663500Y-106861866D01*
X123663500Y-107358134D01*
X123670255Y-107420316D01*
X123673027Y-107427709D01*
X123673027Y-107427711D01*
X123696667Y-107490771D01*
X123701850Y-107561578D01*
X123696667Y-107579229D01*
X123673027Y-107642289D01*
X123670255Y-107649684D01*
X123669402Y-107657532D01*
X123669402Y-107657534D01*
X123663869Y-107708469D01*
X123663500Y-107711866D01*
X123663500Y-108208134D01*
X123670255Y-108270316D01*
X123673027Y-108277709D01*
X123673027Y-108277711D01*
X123696667Y-108340771D01*
X123701850Y-108411578D01*
X123696667Y-108429229D01*
X123676872Y-108482032D01*
X123670255Y-108499684D01*
X123663500Y-108561866D01*
X123663500Y-109058134D01*
X123670255Y-109120316D01*
X123673027Y-109127709D01*
X123673027Y-109127711D01*
X123696667Y-109190771D01*
X123701850Y-109261578D01*
X123696667Y-109279229D01*
X123670255Y-109349684D01*
X123663500Y-109411866D01*
X123663500Y-109908134D01*
X123670255Y-109970316D01*
X123673027Y-109977709D01*
X123673027Y-109977711D01*
X123696667Y-110040771D01*
X123701850Y-110111578D01*
X123696667Y-110129229D01*
X123678527Y-110177618D01*
X123670255Y-110199684D01*
X123663500Y-110261866D01*
X123663500Y-110758134D01*
X123663869Y-110761531D01*
X123668998Y-110808742D01*
X123670255Y-110820316D01*
X123673027Y-110827709D01*
X123673027Y-110827711D01*
X123696667Y-110890771D01*
X123701850Y-110961578D01*
X123696667Y-110979229D01*
X123687830Y-111002803D01*
X123670255Y-111049684D01*
X123663500Y-111111866D01*
X123663500Y-111608134D01*
X123670255Y-111670316D01*
X123673027Y-111677709D01*
X123673027Y-111677711D01*
X123696934Y-111741483D01*
X123702117Y-111812290D01*
X123696934Y-111829941D01*
X123673520Y-111892398D01*
X123669895Y-111907643D01*
X123664369Y-111958514D01*
X123664000Y-111965328D01*
X123664000Y-112137885D01*
X123668475Y-112153124D01*
X123669865Y-112154329D01*
X123677548Y-112156000D01*
X124700000Y-112156000D01*
X124768121Y-112176002D01*
X124814614Y-112229658D01*
X124826000Y-112282000D01*
X124826000Y-112538000D01*
X124805998Y-112606121D01*
X124752342Y-112652614D01*
X124700000Y-112664000D01*
X123682116Y-112664000D01*
X123666877Y-112668475D01*
X123665672Y-112669865D01*
X123664001Y-112677548D01*
X123664001Y-112775500D01*
X123643999Y-112843621D01*
X123590343Y-112890114D01*
X123538001Y-112901500D01*
X116204500Y-112901500D01*
X116136379Y-112881498D01*
X116089886Y-112827842D01*
X116078500Y-112775500D01*
X116078500Y-111481882D01*
X116098502Y-111413761D01*
X116152158Y-111367268D01*
X116222432Y-111357164D01*
X116287012Y-111386658D01*
X116326207Y-111449271D01*
X116353055Y-111549470D01*
X116356801Y-111559762D01*
X116447955Y-111755243D01*
X116453433Y-111764729D01*
X116577139Y-111941401D01*
X116584193Y-111949808D01*
X116736692Y-112102307D01*
X116745099Y-112109361D01*
X116921771Y-112233067D01*
X116931257Y-112238545D01*
X117126738Y-112329699D01*
X117137030Y-112333445D01*
X117345364Y-112389268D01*
X117356159Y-112391171D01*
X117517209Y-112405262D01*
X117522673Y-112405500D01*
X118091885Y-112405500D01*
X118107124Y-112401025D01*
X118108329Y-112399635D01*
X118110000Y-112391952D01*
X118110000Y-112387385D01*
X118618000Y-112387385D01*
X118622475Y-112402624D01*
X118623865Y-112403829D01*
X118631548Y-112405500D01*
X119205327Y-112405500D01*
X119210791Y-112405262D01*
X119371841Y-112391171D01*
X119382636Y-112389268D01*
X119590970Y-112333445D01*
X119601262Y-112329699D01*
X119796743Y-112238545D01*
X119806229Y-112233067D01*
X119982901Y-112109361D01*
X119991308Y-112102307D01*
X120143805Y-111949810D01*
X120150861Y-111941402D01*
X120274565Y-111764734D01*
X120280048Y-111755238D01*
X120371199Y-111559762D01*
X120374945Y-111549470D01*
X120419953Y-111381497D01*
X120419617Y-111367401D01*
X120411675Y-111364000D01*
X118636115Y-111364000D01*
X118620876Y-111368475D01*
X118619671Y-111369865D01*
X118618000Y-111377548D01*
X118618000Y-112387385D01*
X118110000Y-112387385D01*
X118110000Y-109832615D01*
X118105525Y-109817376D01*
X118104135Y-109816171D01*
X118096452Y-109814500D01*
X117522673Y-109814500D01*
X117517209Y-109814738D01*
X117356159Y-109828829D01*
X117345364Y-109830732D01*
X117137030Y-109886555D01*
X117126738Y-109890301D01*
X116931257Y-109981455D01*
X116921771Y-109986933D01*
X116745099Y-110110639D01*
X116736692Y-110117693D01*
X116584195Y-110270190D01*
X116577139Y-110278598D01*
X116453435Y-110455266D01*
X116447952Y-110464762D01*
X116356801Y-110660238D01*
X116353055Y-110670530D01*
X116326207Y-110770729D01*
X116289255Y-110831352D01*
X116225395Y-110862373D01*
X116154900Y-110853945D01*
X116100153Y-110808742D01*
X116078500Y-110738118D01*
X116078500Y-100081882D01*
X116098502Y-100013761D01*
X116152158Y-99967268D01*
X116222432Y-99957164D01*
X116287012Y-99986658D01*
X116326207Y-100049271D01*
X116353055Y-100149470D01*
X116356801Y-100159762D01*
X116447955Y-100355243D01*
X116453433Y-100364729D01*
X116577139Y-100541401D01*
X116584193Y-100549808D01*
X116736692Y-100702307D01*
X116745099Y-100709361D01*
X116921771Y-100833067D01*
X116931257Y-100838545D01*
X117126738Y-100929699D01*
X117137030Y-100933445D01*
X117345364Y-100989268D01*
X117356159Y-100991171D01*
X117517209Y-101005262D01*
X117522673Y-101005500D01*
X118091885Y-101005500D01*
X118107124Y-101001025D01*
X118108329Y-100999635D01*
X118110000Y-100991952D01*
X118110000Y-99437885D01*
X118618000Y-99437885D01*
X118622475Y-99453124D01*
X118623865Y-99454329D01*
X118631548Y-99456000D01*
X120406526Y-99456000D01*
X120420057Y-99452027D01*
X120421286Y-99443478D01*
X120389434Y-99324605D01*
X122129381Y-99324605D01*
X122129421Y-99338705D01*
X122136691Y-99342000D01*
X122663885Y-99342000D01*
X122679124Y-99337525D01*
X122680329Y-99336135D01*
X122682000Y-99328452D01*
X122682000Y-99323885D01*
X123190000Y-99323885D01*
X123194475Y-99339124D01*
X123195865Y-99340329D01*
X123203548Y-99342000D01*
X123605885Y-99342000D01*
X123621124Y-99337525D01*
X123642835Y-99312469D01*
X123649708Y-99299884D01*
X125822000Y-99299884D01*
X125826475Y-99315123D01*
X125827865Y-99316328D01*
X125835548Y-99317999D01*
X125866669Y-99317999D01*
X125873490Y-99317629D01*
X125924352Y-99312105D01*
X125939604Y-99308479D01*
X126002770Y-99284799D01*
X126073578Y-99279616D01*
X126091230Y-99284799D01*
X126154394Y-99308478D01*
X126169649Y-99312105D01*
X126220514Y-99317631D01*
X126227328Y-99318000D01*
X126253885Y-99318000D01*
X126269124Y-99313525D01*
X126270329Y-99312135D01*
X126272000Y-99304452D01*
X126272000Y-99299884D01*
X126672000Y-99299884D01*
X126676475Y-99315123D01*
X126677865Y-99316328D01*
X126685548Y-99317999D01*
X126716669Y-99317999D01*
X126723490Y-99317629D01*
X126774352Y-99312105D01*
X126789604Y-99308479D01*
X126852770Y-99284799D01*
X126923578Y-99279616D01*
X126941230Y-99284799D01*
X127004394Y-99308478D01*
X127019649Y-99312105D01*
X127070514Y-99317631D01*
X127077328Y-99318000D01*
X127103885Y-99318000D01*
X127119124Y-99313525D01*
X127120329Y-99312135D01*
X127122000Y-99304452D01*
X127122000Y-98628115D01*
X127117525Y-98612876D01*
X127116135Y-98611671D01*
X127108452Y-98610000D01*
X126690115Y-98610000D01*
X126674876Y-98614475D01*
X126673671Y-98615865D01*
X126672000Y-98623548D01*
X126672000Y-99299884D01*
X126272000Y-99299884D01*
X126272000Y-98628115D01*
X126267525Y-98612876D01*
X126266135Y-98611671D01*
X126258452Y-98610000D01*
X125840115Y-98610000D01*
X125824876Y-98614475D01*
X125823671Y-98615865D01*
X125822000Y-98623548D01*
X125822000Y-99299884D01*
X123649708Y-99299884D01*
X123651337Y-99296901D01*
X123713650Y-99262879D01*
X123740429Y-99260000D01*
X124299885Y-99260000D01*
X124315124Y-99255525D01*
X124316329Y-99254135D01*
X124318000Y-99246452D01*
X124318000Y-99241885D01*
X124826000Y-99241885D01*
X124830475Y-99257124D01*
X124831865Y-99258329D01*
X124839548Y-99260000D01*
X125403885Y-99260000D01*
X125419124Y-99255525D01*
X125420329Y-99254135D01*
X125422000Y-99246452D01*
X125422000Y-98682115D01*
X125417525Y-98666876D01*
X125416135Y-98665671D01*
X125408452Y-98664000D01*
X124844115Y-98664000D01*
X124828876Y-98668475D01*
X124827671Y-98669865D01*
X124826000Y-98677548D01*
X124826000Y-99241885D01*
X124318000Y-99241885D01*
X124318000Y-98682115D01*
X124313525Y-98666876D01*
X124312135Y-98665671D01*
X124304452Y-98664000D01*
X123682116Y-98664000D01*
X123666877Y-98668475D01*
X123665672Y-98669865D01*
X123664001Y-98677548D01*
X123664001Y-98812261D01*
X123643999Y-98880382D01*
X123590343Y-98926875D01*
X123520069Y-98936979D01*
X123473862Y-98920715D01*
X123372220Y-98860604D01*
X123357784Y-98854357D01*
X123214359Y-98812688D01*
X123206391Y-98811232D01*
X123192969Y-98814052D01*
X123190000Y-98825513D01*
X123190000Y-99323885D01*
X122682000Y-99323885D01*
X122682000Y-98827576D01*
X122677656Y-98812781D01*
X122667225Y-98810937D01*
X122657641Y-98812688D01*
X122514216Y-98854357D01*
X122499780Y-98860604D01*
X122372501Y-98935876D01*
X122360074Y-98945516D01*
X122255516Y-99050074D01*
X122245876Y-99062501D01*
X122170604Y-99189780D01*
X122164357Y-99204216D01*
X122129381Y-99324605D01*
X120389434Y-99324605D01*
X120374945Y-99270530D01*
X120371199Y-99260238D01*
X120280045Y-99064757D01*
X120274567Y-99055271D01*
X120150861Y-98878599D01*
X120143807Y-98870192D01*
X119991308Y-98717693D01*
X119982901Y-98710639D01*
X119806229Y-98586933D01*
X119796743Y-98581455D01*
X119601262Y-98490301D01*
X119590970Y-98486555D01*
X119382636Y-98430732D01*
X119371841Y-98428829D01*
X119210791Y-98414738D01*
X119205327Y-98414500D01*
X118636115Y-98414500D01*
X118620876Y-98418975D01*
X118619671Y-98420365D01*
X118618000Y-98428048D01*
X118618000Y-99437885D01*
X118110000Y-99437885D01*
X118110000Y-98432615D01*
X118105525Y-98417376D01*
X118104135Y-98416171D01*
X118096452Y-98414500D01*
X117522673Y-98414500D01*
X117517209Y-98414738D01*
X117356159Y-98428829D01*
X117345364Y-98430732D01*
X117137030Y-98486555D01*
X117126738Y-98490301D01*
X116931257Y-98581455D01*
X116921771Y-98586933D01*
X116745099Y-98710639D01*
X116736692Y-98717693D01*
X116584195Y-98870190D01*
X116577139Y-98878598D01*
X116453435Y-99055266D01*
X116447952Y-99064762D01*
X116356801Y-99260238D01*
X116353055Y-99270530D01*
X116326207Y-99370729D01*
X116289255Y-99431352D01*
X116225395Y-99462373D01*
X116154900Y-99453945D01*
X116100153Y-99408742D01*
X116078500Y-99338118D01*
X116078500Y-98044500D01*
X116098502Y-97976379D01*
X116152158Y-97929886D01*
X116204500Y-97918500D01*
X123538000Y-97918500D01*
X123606121Y-97938502D01*
G37*
%TD.AperFunction*%
%TA.AperFunction,Conductor*%
G36*
X125689012Y-103768198D02*
G01*
X125695593Y-103774325D01*
X126267363Y-104346096D01*
X126835595Y-104914328D01*
X126869621Y-104976640D01*
X126872500Y-105003423D01*
X126872500Y-109621031D01*
X126852498Y-109689152D01*
X126840142Y-109705335D01*
X126815409Y-109732803D01*
X126812108Y-109738521D01*
X126783395Y-109788253D01*
X126732012Y-109837246D01*
X126662298Y-109850681D01*
X126596387Y-109824294D01*
X126554443Y-109764188D01*
X126546104Y-109738521D01*
X126512077Y-109633797D01*
X126422591Y-109478803D01*
X126313401Y-109357534D01*
X126307258Y-109350712D01*
X126307257Y-109350711D01*
X126302836Y-109345801D01*
X126158045Y-109240604D01*
X126152017Y-109237920D01*
X126152015Y-109237919D01*
X126000577Y-109170495D01*
X126000576Y-109170495D01*
X125994546Y-109167810D01*
X125907016Y-109149205D01*
X125825943Y-109131972D01*
X125825939Y-109131972D01*
X125819486Y-109130600D01*
X125640514Y-109130600D01*
X125632704Y-109132260D01*
X125631902Y-109132199D01*
X125627486Y-109132663D01*
X125627401Y-109131856D01*
X125561912Y-109126862D01*
X125505278Y-109084049D01*
X125480780Y-109017412D01*
X125480500Y-109009015D01*
X125480500Y-108561866D01*
X125473745Y-108499684D01*
X125467128Y-108482032D01*
X125447333Y-108429229D01*
X125442150Y-108358422D01*
X125447333Y-108340771D01*
X125470973Y-108277711D01*
X125470973Y-108277709D01*
X125473745Y-108270316D01*
X125480500Y-108208134D01*
X125480500Y-107711866D01*
X125480131Y-107708469D01*
X125474598Y-107657534D01*
X125474598Y-107657532D01*
X125473745Y-107649684D01*
X125470973Y-107642289D01*
X125447333Y-107579229D01*
X125442150Y-107508422D01*
X125447333Y-107490771D01*
X125470973Y-107427711D01*
X125470973Y-107427709D01*
X125473745Y-107420316D01*
X125480500Y-107358134D01*
X125480500Y-106861866D01*
X125479041Y-106848432D01*
X125474598Y-106807534D01*
X125474598Y-106807532D01*
X125473745Y-106799684D01*
X125456964Y-106754920D01*
X125447333Y-106729229D01*
X125442150Y-106658422D01*
X125447333Y-106640771D01*
X125470973Y-106577711D01*
X125470973Y-106577709D01*
X125473745Y-106570316D01*
X125478498Y-106526568D01*
X125480131Y-106511531D01*
X125480500Y-106508134D01*
X125480500Y-106011866D01*
X125477878Y-105987730D01*
X125474598Y-105957534D01*
X125474598Y-105957532D01*
X125473745Y-105949684D01*
X125447333Y-105879229D01*
X125442150Y-105808422D01*
X125447333Y-105790771D01*
X125470973Y-105727711D01*
X125470973Y-105727709D01*
X125473745Y-105720316D01*
X125480500Y-105658134D01*
X125480500Y-105161866D01*
X125477268Y-105132112D01*
X125474598Y-105107534D01*
X125474598Y-105107532D01*
X125473745Y-105099684D01*
X125459623Y-105062014D01*
X125447333Y-105029229D01*
X125442150Y-104958422D01*
X125447333Y-104940771D01*
X125470973Y-104877711D01*
X125470973Y-104877709D01*
X125473745Y-104870316D01*
X125477241Y-104838140D01*
X125480131Y-104811531D01*
X125480500Y-104808134D01*
X125480500Y-104311866D01*
X125479453Y-104302232D01*
X125474598Y-104257534D01*
X125474598Y-104257532D01*
X125473745Y-104249684D01*
X125470973Y-104242289D01*
X125447333Y-104179229D01*
X125442150Y-104108422D01*
X125447333Y-104090771D01*
X125470973Y-104027711D01*
X125470973Y-104027709D01*
X125473745Y-104020316D01*
X125478500Y-103976550D01*
X125480131Y-103961531D01*
X125480500Y-103958134D01*
X125480500Y-103863422D01*
X125500502Y-103795301D01*
X125554158Y-103748808D01*
X125624432Y-103738704D01*
X125689012Y-103768198D01*
G37*
%TD.AperFunction*%
%TD*%
M02*
