%TF.GenerationSoftware,KiCad,Pcbnew,(6.0.7)*%
%TF.CreationDate,2023-02-04T21:02:38-08:00*%
%TF.ProjectId,ESP_Module,4553505f-4d6f-4647-956c-652e6b696361,rev?*%
%TF.SameCoordinates,Original*%
%TF.FileFunction,Soldermask,Top*%
%TF.FilePolarity,Negative*%
%FSLAX46Y46*%
G04 Gerber Fmt 4.6, Leading zero omitted, Abs format (unit mm)*
G04 Created by KiCad (PCBNEW (6.0.7)) date 2023-02-04 21:02:38*
%MOMM*%
%LPD*%
G01*
G04 APERTURE LIST*
G04 Aperture macros list*
%AMRoundRect*
0 Rectangle with rounded corners*
0 $1 Rounding radius*
0 $2 $3 $4 $5 $6 $7 $8 $9 X,Y pos of 4 corners*
0 Add a 4 corners polygon primitive as box body*
4,1,4,$2,$3,$4,$5,$6,$7,$8,$9,$2,$3,0*
0 Add four circle primitives for the rounded corners*
1,1,$1+$1,$2,$3*
1,1,$1+$1,$4,$5*
1,1,$1+$1,$6,$7*
1,1,$1+$1,$8,$9*
0 Add four rect primitives between the rounded corners*
20,1,$1+$1,$2,$3,$4,$5,0*
20,1,$1+$1,$4,$5,$6,$7,0*
20,1,$1+$1,$6,$7,$8,$9,0*
20,1,$1+$1,$8,$9,$2,$3,0*%
G04 Aperture macros list end*
%ADD10C,0.010000*%
%ADD11C,1.250000*%
%ADD12R,1.508000X1.508000*%
%ADD13C,1.508000*%
%ADD14O,3.150000X1.575000*%
%ADD15R,0.800000X0.400000*%
%ADD16R,0.400000X0.800000*%
%ADD17R,1.200000X1.200000*%
%ADD18R,0.800000X0.800000*%
%ADD19RoundRect,0.135000X0.185000X-0.135000X0.185000X0.135000X-0.185000X0.135000X-0.185000X-0.135000X0*%
%ADD20RoundRect,0.140000X0.170000X-0.140000X0.170000X0.140000X-0.170000X0.140000X-0.170000X-0.140000X0*%
%ADD21RoundRect,0.140000X-0.170000X0.140000X-0.170000X-0.140000X0.170000X-0.140000X0.170000X0.140000X0*%
%ADD22RoundRect,0.135000X-0.185000X0.135000X-0.185000X-0.135000X0.185000X-0.135000X0.185000X0.135000X0*%
%ADD23RoundRect,0.200000X0.275000X-0.200000X0.275000X0.200000X-0.275000X0.200000X-0.275000X-0.200000X0*%
%ADD24R,1.000000X0.380000*%
%ADD25R,1.150000X0.700000*%
G04 APERTURE END LIST*
%TO.C,U2*%
G36*
X130622000Y-104460000D02*
G01*
X129222000Y-104460000D01*
X129222000Y-103710000D01*
X129872000Y-103060000D01*
X130622000Y-103060000D01*
X130622000Y-104460000D01*
G37*
D10*
X130622000Y-104460000D02*
X129222000Y-104460000D01*
X129222000Y-103710000D01*
X129872000Y-103060000D01*
X130622000Y-103060000D01*
X130622000Y-104460000D01*
G36*
X130622000Y-104460000D02*
G01*
X129222000Y-104460000D01*
X129222000Y-103710000D01*
X129872000Y-103060000D01*
X130622000Y-103060000D01*
X130622000Y-104460000D01*
G37*
X130622000Y-104460000D02*
X129222000Y-104460000D01*
X129222000Y-103710000D01*
X129872000Y-103060000D01*
X130622000Y-103060000D01*
X130622000Y-104460000D01*
%TD*%
D11*
%TO.C,J1*%
X118364000Y-107660000D03*
X118364000Y-103160000D03*
D12*
X120464000Y-101910000D03*
D13*
X120464000Y-104410000D03*
X120464000Y-106410000D03*
X120464000Y-108910000D03*
D14*
X118364000Y-99710000D03*
X118364000Y-111110000D03*
%TD*%
D15*
%TO.C,U2*%
X124572000Y-99460000D03*
X124572000Y-100310000D03*
X124572000Y-101160000D03*
X124572000Y-102010000D03*
X124572000Y-102860000D03*
X124572000Y-103710000D03*
X124572000Y-104560000D03*
X124572000Y-105410000D03*
X124572000Y-106260000D03*
X124572000Y-107110000D03*
X124572000Y-107960000D03*
X124572000Y-108810000D03*
X124572000Y-109660000D03*
X124572000Y-110510000D03*
X124572000Y-111360000D03*
D16*
X125622000Y-112410000D03*
X126472000Y-112410000D03*
X127322000Y-112410000D03*
X128172000Y-112410000D03*
X129022000Y-112410000D03*
X129872000Y-112410000D03*
X130722000Y-112410000D03*
X131572000Y-112410000D03*
X132422000Y-112410000D03*
X133272000Y-112410000D03*
X134122000Y-112410000D03*
X134972000Y-112410000D03*
X135822000Y-112410000D03*
X136672000Y-112410000D03*
X137522000Y-112410000D03*
D15*
X138572000Y-111360000D03*
X138572000Y-110510000D03*
X138572000Y-109660000D03*
X138572000Y-108810000D03*
X138572000Y-107960000D03*
X138572000Y-107110000D03*
X138572000Y-106260000D03*
X138572000Y-105410000D03*
X138572000Y-104560000D03*
X138572000Y-103710000D03*
X138572000Y-102860000D03*
X138572000Y-102010000D03*
X138572000Y-101160000D03*
X138572000Y-100310000D03*
X138572000Y-99460000D03*
D16*
X137522000Y-98410000D03*
X136672000Y-98410000D03*
X135822000Y-98410000D03*
X134972000Y-98410000D03*
X134122000Y-98410000D03*
X133272000Y-98410000D03*
X132422000Y-98410000D03*
X131572000Y-98410000D03*
X130722000Y-98410000D03*
X129872000Y-98410000D03*
X129022000Y-98410000D03*
X128172000Y-98410000D03*
X127322000Y-98410000D03*
X126472000Y-98410000D03*
X125622000Y-98410000D03*
D17*
X131572000Y-105410000D03*
X131572000Y-103760000D03*
X133222000Y-103760000D03*
X133222000Y-105410000D03*
X133222000Y-107060000D03*
X131572000Y-107060000D03*
X129922000Y-107060000D03*
X129922000Y-105410000D03*
D18*
X124572000Y-98410000D03*
X124572000Y-112410000D03*
X138572000Y-112410000D03*
X138572000Y-98410000D03*
%TD*%
D19*
%TO.C,R4*%
X143510000Y-104396000D03*
X143510000Y-103376000D03*
%TD*%
D20*
%TO.C,C2*%
X122936000Y-100556000D03*
X122936000Y-99596000D03*
%TD*%
D21*
%TO.C,C1*%
X122936000Y-101628000D03*
X122936000Y-102588000D03*
%TD*%
D22*
%TO.C,R5*%
X143510000Y-106170000D03*
X143510000Y-107190000D03*
%TD*%
D23*
%TO.C,R3*%
X140462000Y-100901000D03*
X140462000Y-99251000D03*
%TD*%
D24*
%TO.C,P1*%
X146264000Y-102660000D03*
X146264000Y-103160000D03*
X146264000Y-103660000D03*
X146264000Y-104160000D03*
X146264000Y-104660000D03*
X146264000Y-106160000D03*
X146264000Y-106660000D03*
X146264000Y-107160000D03*
X146264000Y-107660000D03*
X146264000Y-108160000D03*
D25*
X145424000Y-101990000D03*
%TD*%
M02*
