%TF.GenerationSoftware,KiCad,Pcbnew,(6.0.7)*%
%TF.CreationDate,2023-03-11T05:38:16-08:00*%
%TF.ProjectId,ESP_SoC,4553505f-536f-4432-9e6b-696361645f70,rev?*%
%TF.SameCoordinates,Original*%
%TF.FileFunction,Legend,Bot*%
%TF.FilePolarity,Positive*%
%FSLAX46Y46*%
G04 Gerber Fmt 4.6, Leading zero omitted, Abs format (unit mm)*
G04 Created by KiCad (PCBNEW (6.0.7)) date 2023-03-11 05:38:16*
%MOMM*%
%LPD*%
G01*
G04 APERTURE LIST*
%ADD10C,0.125000*%
%ADD11C,0.120000*%
G04 APERTURE END LIST*
D10*
X127964285Y-102142857D02*
X127845238Y-102476190D01*
X127726190Y-102142857D01*
X127273809Y-102476190D02*
X127559523Y-102476190D01*
X127416666Y-102476190D02*
X127416666Y-101976190D01*
X127464285Y-102047619D01*
X127511904Y-102095238D01*
X127559523Y-102119047D01*
X127059523Y-102428571D02*
X127035714Y-102452380D01*
X127059523Y-102476190D01*
X127083333Y-102452380D01*
X127059523Y-102428571D01*
X127059523Y-102476190D01*
X126559523Y-102476190D02*
X126845238Y-102476190D01*
X126702380Y-102476190D02*
X126702380Y-101976190D01*
X126750000Y-102047619D01*
X126797619Y-102095238D01*
X126845238Y-102119047D01*
X102857142Y-100695238D02*
X102857142Y-101304761D01*
X103161904Y-101000000D02*
X102552380Y-101000000D01*
X102857142Y-96195238D02*
X102857142Y-96804761D01*
%TO.C,kibuzzard-64092D35*%
G36*
X107312928Y-94923658D02*
G01*
X126191267Y-94923658D01*
X128187072Y-101576342D01*
X109308733Y-101576342D01*
X108629918Y-99313625D01*
X110631650Y-99313625D01*
X110809450Y-99700975D01*
X111109487Y-99942672D01*
X111476200Y-100115312D01*
X111909588Y-100218897D01*
X112409650Y-100253425D01*
X112867247Y-100208777D01*
X113293887Y-100074831D01*
X113689572Y-99851589D01*
X113946850Y-99631125D01*
X115165550Y-99631125D01*
X115175075Y-99850200D01*
X115229050Y-100012125D01*
X115397325Y-100140713D01*
X115724350Y-100183575D01*
X116079950Y-100124837D01*
X116245050Y-99948625D01*
X116283150Y-99624775D01*
X116283150Y-98507175D01*
X116432375Y-98100775D01*
X116832425Y-97954725D01*
X117238825Y-98107125D01*
X117394400Y-98507175D01*
X117394400Y-99631125D01*
X117403925Y-99850200D01*
X117464250Y-100012125D01*
X117627763Y-100140713D01*
X117953200Y-100183575D01*
X118275463Y-100140713D01*
X118442150Y-100012125D01*
X118496125Y-99843850D01*
X118505374Y-99631125D01*
X119013650Y-99631125D01*
X119023175Y-99853375D01*
X119083500Y-100018475D01*
X119251775Y-100147063D01*
X119578800Y-100189925D01*
X119931225Y-100129600D01*
X120099500Y-99948625D01*
X120136853Y-99631125D01*
X120645600Y-99631125D01*
X120705925Y-99978788D01*
X120886900Y-100145475D01*
X121191700Y-100183575D01*
X121483800Y-100151825D01*
X121648900Y-100075625D01*
X121737800Y-99948625D01*
X121769550Y-99618425D01*
X121769550Y-97491175D01*
X121964812Y-97745969D01*
X122233100Y-98116650D01*
X122482337Y-98465106D01*
X122620450Y-98653225D01*
X122734750Y-98802450D01*
X122890325Y-98916750D01*
X123157025Y-98989775D01*
X123417375Y-98923100D01*
X123585650Y-98792925D01*
X123636450Y-98723075D01*
X123825362Y-98474631D01*
X124138100Y-98046800D01*
X124427025Y-97649131D01*
X124544500Y-97491175D01*
X124544500Y-99631125D01*
X124554025Y-99850200D01*
X124614350Y-100012125D01*
X124785800Y-100140713D01*
X125109650Y-100183575D01*
X125423975Y-100140713D01*
X125592250Y-100012125D01*
X125652575Y-99847025D01*
X125662100Y-99618425D01*
X125662100Y-96094175D01*
X125652575Y-95875100D01*
X125592250Y-95706825D01*
X125420800Y-95583000D01*
X125096950Y-95541725D01*
X124801675Y-95583000D01*
X124639750Y-95668725D01*
X124601650Y-95706825D01*
X123160200Y-97599125D01*
X122757102Y-97066487D01*
X122411408Y-96611573D01*
X122123118Y-96234383D01*
X121892232Y-95934917D01*
X121718750Y-95713175D01*
X121536981Y-95584587D01*
X121207575Y-95541725D01*
X120882931Y-95584587D01*
X120715450Y-95713175D01*
X120655125Y-95884625D01*
X120645600Y-96106875D01*
X120645600Y-99631125D01*
X120136853Y-99631125D01*
X120137600Y-99624775D01*
X120137600Y-96094175D01*
X120128075Y-95875100D01*
X120067750Y-95706825D01*
X119899475Y-95578237D01*
X119572450Y-95535375D01*
X119218437Y-95594113D01*
X119045400Y-95770325D01*
X119013650Y-96100525D01*
X119013650Y-99631125D01*
X118505374Y-99631125D01*
X118505650Y-99624775D01*
X118505650Y-97376875D01*
X118496125Y-97164150D01*
X118435800Y-97002225D01*
X118269113Y-96883163D01*
X117946850Y-96843475D01*
X117634112Y-96879988D01*
X117470600Y-96989525D01*
X117407100Y-97249875D01*
X117292800Y-97122875D01*
X117121350Y-96989525D01*
X116645100Y-96843475D01*
X116245403Y-96897450D01*
X115892978Y-97059375D01*
X115587825Y-97329250D01*
X115353228Y-97676736D01*
X115212469Y-98071494D01*
X115165550Y-98513525D01*
X115165550Y-99631125D01*
X113946850Y-99631125D01*
X114054300Y-99539050D01*
X114359894Y-99163408D01*
X114578175Y-98750856D01*
X114709144Y-98301395D01*
X114752800Y-97815025D01*
X114708350Y-97331036D01*
X114575000Y-96888719D01*
X114352750Y-96488073D01*
X114041600Y-96129100D01*
X113670125Y-95833230D01*
X113266900Y-95621894D01*
X112831925Y-95495092D01*
X112365200Y-95452825D01*
X111874839Y-95507858D01*
X111402822Y-95672958D01*
X110949150Y-95948125D01*
X110777700Y-96230700D01*
X110923750Y-96589475D01*
X111160287Y-96841888D01*
X111374600Y-96926025D01*
X111761950Y-96751400D01*
X112054050Y-96620431D01*
X112396950Y-96576775D01*
X112852562Y-96661706D01*
X113254200Y-96916500D01*
X113535187Y-97308613D01*
X113628850Y-97805500D01*
X113586517Y-98153339D01*
X113459517Y-98464489D01*
X113247850Y-98738950D01*
X112841450Y-99027081D01*
X112384250Y-99123125D01*
X112052462Y-99094550D01*
X111755600Y-99008825D01*
X111755600Y-98316675D01*
X112257250Y-98316675D01*
X112536650Y-98265875D01*
X112644600Y-98116650D01*
X112670000Y-97849950D01*
X112641425Y-97580075D01*
X112536650Y-97440375D01*
X112231850Y-97383225D01*
X111114250Y-97383225D01*
X110695150Y-97561025D01*
X110631650Y-97916625D01*
X110631650Y-99313625D01*
X108629918Y-99313625D01*
X107312928Y-94923658D01*
G37*
D11*
%TO.C,D3*%
X104550000Y-105300000D02*
X104550000Y-102750000D01*
X106250000Y-105300000D02*
X106250000Y-102750000D01*
X106250000Y-105300000D02*
X104550000Y-105300000D01*
%TO.C,G\u002A\u002A\u002A*%
G36*
X132164565Y-93253446D02*
G01*
X132175702Y-93297021D01*
X132170143Y-93474342D01*
X132139727Y-93640110D01*
X132085112Y-93779893D01*
X132007341Y-93890018D01*
X131979339Y-93921739D01*
X131948504Y-93964281D01*
X131938614Y-93990079D01*
X131938972Y-93995867D01*
X131924078Y-94035409D01*
X131886184Y-94094300D01*
X131830041Y-94165799D01*
X131760395Y-94243162D01*
X131723198Y-94284608D01*
X131686829Y-94339488D01*
X131678477Y-94382885D01*
X131675705Y-94416724D01*
X131643924Y-94450051D01*
X131614912Y-94472353D01*
X131570286Y-94518166D01*
X131518161Y-94578279D01*
X131465501Y-94643988D01*
X131419267Y-94706587D01*
X131386420Y-94757373D01*
X131373924Y-94787640D01*
X131373242Y-94795146D01*
X131357306Y-94827769D01*
X131330664Y-94849891D01*
X131307283Y-94848712D01*
X131304631Y-94847335D01*
X131280306Y-94857418D01*
X131245078Y-94888886D01*
X131238168Y-94896229D01*
X131204352Y-94928793D01*
X131184879Y-94942021D01*
X131184734Y-94942020D01*
X131174526Y-94935066D01*
X131182130Y-94912112D01*
X131209784Y-94869726D01*
X131259724Y-94804476D01*
X131334189Y-94712928D01*
X131334990Y-94711959D01*
X131399176Y-94632707D01*
X131455873Y-94559853D01*
X131498962Y-94501441D01*
X131522327Y-94465516D01*
X131536294Y-94441852D01*
X131572385Y-94386870D01*
X131621461Y-94315867D01*
X131677062Y-94238328D01*
X131711135Y-94190940D01*
X131771746Y-94103475D01*
X131825559Y-94022158D01*
X131863924Y-93959879D01*
X131887799Y-93918385D01*
X131935701Y-93835876D01*
X131978146Y-93763571D01*
X132020524Y-93683005D01*
X132069341Y-93561185D01*
X132102010Y-93441416D01*
X132113924Y-93338137D01*
X132115574Y-93291255D01*
X132124724Y-93253109D01*
X132143924Y-93242021D01*
X132164565Y-93253446D01*
G37*
G36*
X128234706Y-96000498D02*
G01*
X128238112Y-96004055D01*
X128267986Y-96039904D01*
X128311205Y-96096061D01*
X128359642Y-96162021D01*
X128372336Y-96179699D01*
X128432254Y-96261922D01*
X128476580Y-96317758D01*
X128511704Y-96352528D01*
X128544014Y-96371555D01*
X128579899Y-96380158D01*
X128625749Y-96383659D01*
X128689809Y-96392090D01*
X128776876Y-96411656D01*
X128862595Y-96437620D01*
X129001266Y-96486530D01*
X129173561Y-96444275D01*
X129250885Y-96426617D01*
X129374614Y-96406279D01*
X129463075Y-96404437D01*
X129516201Y-96421090D01*
X129533924Y-96456236D01*
X129524340Y-96495988D01*
X129495227Y-96560821D01*
X129452301Y-96638351D01*
X129401377Y-96718843D01*
X129348271Y-96792564D01*
X129298799Y-96849778D01*
X129250084Y-96900269D01*
X129225980Y-96932530D01*
X129223000Y-96954218D01*
X129236991Y-96973658D01*
X129260331Y-96991894D01*
X129305976Y-97011827D01*
X129327887Y-97016007D01*
X129350105Y-97020490D01*
X129351459Y-97022173D01*
X129343924Y-97042021D01*
X129335542Y-97051895D01*
X129296585Y-97061256D01*
X129242260Y-97040625D01*
X129178631Y-96991840D01*
X129143801Y-96958370D01*
X129121241Y-96930839D01*
X129122419Y-96914083D01*
X129143924Y-96898984D01*
X129177349Y-96875379D01*
X129231503Y-96824422D01*
X129289284Y-96759245D01*
X129345503Y-96687057D01*
X129394970Y-96615068D01*
X129432495Y-96550488D01*
X129452890Y-96500527D01*
X129450965Y-96472394D01*
X129446069Y-96470752D01*
X129410613Y-96472726D01*
X129351055Y-96482285D01*
X129277944Y-96497171D01*
X129201829Y-96515126D01*
X129133257Y-96533892D01*
X129082777Y-96551211D01*
X129073064Y-96555172D01*
X129037190Y-96565842D01*
X129001203Y-96565218D01*
X128952964Y-96551633D01*
X128880334Y-96523420D01*
X128804372Y-96494595D01*
X128711747Y-96463331D01*
X128633924Y-96440898D01*
X128556765Y-96416111D01*
X128472754Y-96369246D01*
X128394799Y-96298383D01*
X128313698Y-96196497D01*
X128311648Y-96193646D01*
X128267475Y-96137302D01*
X128229336Y-96097259D01*
X128205287Y-96082021D01*
X128185224Y-96096172D01*
X128157162Y-96139745D01*
X128127735Y-96202835D01*
X128101602Y-96275306D01*
X128083427Y-96347021D01*
X128082434Y-96352109D01*
X128064493Y-96403296D01*
X128040110Y-96422021D01*
X128038463Y-96421989D01*
X128019681Y-96408813D01*
X128021651Y-96367021D01*
X128022994Y-96360160D01*
X128034148Y-96299461D01*
X128045722Y-96232021D01*
X128047005Y-96225031D01*
X128070705Y-96152786D01*
X128106406Y-96088355D01*
X128115350Y-96076020D01*
X128142849Y-96032447D01*
X128153924Y-96005022D01*
X128166566Y-95981830D01*
X128198458Y-95979314D01*
X128234706Y-96000498D01*
G37*
G36*
X130068549Y-95863337D02*
G01*
X130101181Y-95882138D01*
X130134960Y-95913925D01*
X130158590Y-95946710D01*
X130160774Y-95968504D01*
X130148111Y-95977922D01*
X130114689Y-95975541D01*
X130072796Y-95937021D01*
X130044459Y-95898631D01*
X130037142Y-95870678D01*
X130060438Y-95862021D01*
X130068549Y-95863337D01*
G37*
G36*
X127998366Y-98250667D02*
G01*
X128006046Y-98273019D01*
X128002845Y-98318235D01*
X127996948Y-98330458D01*
X127986222Y-98334228D01*
X127974322Y-98302021D01*
X127968947Y-98278156D01*
X127968321Y-98241701D01*
X127979292Y-98230049D01*
X127998366Y-98250667D01*
G37*
G36*
X131132911Y-94542168D02*
G01*
X131138388Y-94561070D01*
X131127187Y-94604085D01*
X131122649Y-94615690D01*
X131106571Y-94643774D01*
X131097233Y-94632916D01*
X131095693Y-94599352D01*
X131107985Y-94559107D01*
X131131560Y-94542021D01*
X131132911Y-94542168D01*
G37*
G36*
X131989417Y-92342021D02*
G01*
X131966755Y-92448687D01*
X131960735Y-92477021D01*
X131955154Y-92504157D01*
X131953703Y-92510840D01*
X131934891Y-92597487D01*
X131916841Y-92673012D01*
X131902792Y-92723575D01*
X131894532Y-92742021D01*
X131893729Y-92741901D01*
X131879548Y-92722545D01*
X131863060Y-92680129D01*
X131844745Y-92636490D01*
X131823954Y-92622523D01*
X131805370Y-92647153D01*
X131790814Y-92709637D01*
X131790395Y-92712021D01*
X131783584Y-92750738D01*
X131765349Y-92833472D01*
X131743814Y-92915361D01*
X131730274Y-92967387D01*
X131715618Y-93041422D01*
X131709924Y-93096978D01*
X131703466Y-93143714D01*
X131681924Y-93162021D01*
X131678834Y-93161772D01*
X131664059Y-93147436D01*
X131656224Y-93106360D01*
X131653924Y-93032021D01*
X131655813Y-92972894D01*
X131663235Y-92920841D01*
X131675272Y-92902021D01*
X131685933Y-92893999D01*
X131683620Y-92861061D01*
X131680667Y-92832741D01*
X131695986Y-92789536D01*
X131710354Y-92765041D01*
X131698289Y-92744718D01*
X131693750Y-92741036D01*
X131690726Y-92714562D01*
X131691968Y-92712021D01*
X131713924Y-92712021D01*
X131723924Y-92722021D01*
X131733924Y-92712021D01*
X131723924Y-92702021D01*
X131713924Y-92712021D01*
X131691968Y-92712021D01*
X131714575Y-92665759D01*
X131719678Y-92657109D01*
X131744022Y-92606948D01*
X131753924Y-92570357D01*
X131757152Y-92555722D01*
X131777015Y-92553930D01*
X131787613Y-92558686D01*
X131786761Y-92546609D01*
X131784403Y-92523402D01*
X131824779Y-92523402D01*
X131830016Y-92531074D01*
X131847333Y-92539737D01*
X131853924Y-92510840D01*
X131850991Y-92496567D01*
X131833598Y-92492222D01*
X131827287Y-92497716D01*
X131824779Y-92523402D01*
X131784403Y-92523402D01*
X131784053Y-92519957D01*
X131795787Y-92477409D01*
X131807810Y-92454703D01*
X131877462Y-92454703D01*
X131893924Y-92462021D01*
X131904512Y-92460577D01*
X131907258Y-92448687D01*
X131904326Y-92446294D01*
X131880591Y-92448687D01*
X131877462Y-92454703D01*
X131807810Y-92454703D01*
X131816213Y-92438833D01*
X131838012Y-92422021D01*
X131844504Y-92420119D01*
X131852432Y-92397021D01*
X131852744Y-92342021D01*
X131873924Y-92342021D01*
X131874506Y-92346801D01*
X131893924Y-92362021D01*
X131898705Y-92361439D01*
X131913924Y-92342021D01*
X131913343Y-92337240D01*
X131893924Y-92322021D01*
X131889144Y-92322602D01*
X131873924Y-92342021D01*
X131852744Y-92342021D01*
X131852787Y-92334393D01*
X131879552Y-92278449D01*
X131897841Y-92245765D01*
X131909574Y-92194043D01*
X131913320Y-92171619D01*
X131938198Y-92171619D01*
X131940591Y-92195354D01*
X131946607Y-92198483D01*
X131953924Y-92182021D01*
X131952481Y-92171433D01*
X131940591Y-92168687D01*
X131938198Y-92171619D01*
X131913320Y-92171619D01*
X131917081Y-92149109D01*
X131931189Y-92114043D01*
X131945568Y-92086544D01*
X131961197Y-92038419D01*
X131962678Y-92034703D01*
X131977462Y-92034703D01*
X131993924Y-92042021D01*
X132004512Y-92040577D01*
X132007258Y-92028687D01*
X132004326Y-92026294D01*
X131980591Y-92028687D01*
X131977462Y-92034703D01*
X131962678Y-92034703D01*
X131982509Y-91984950D01*
X132022878Y-91940290D01*
X132070487Y-91921947D01*
X132116484Y-91932822D01*
X132152017Y-91975822D01*
X132155988Y-91993442D01*
X132161367Y-92048443D01*
X132166078Y-92132334D01*
X132170062Y-92238854D01*
X132173259Y-92361743D01*
X132175610Y-92494740D01*
X132177057Y-92631584D01*
X132177539Y-92766014D01*
X132176999Y-92891770D01*
X132175376Y-93002590D01*
X132172612Y-93092215D01*
X132168647Y-93154382D01*
X132163423Y-93182833D01*
X132150888Y-93197292D01*
X132139660Y-93193773D01*
X132130809Y-93167272D01*
X132124098Y-93114955D01*
X132119292Y-93033988D01*
X132116152Y-92921536D01*
X132114442Y-92774765D01*
X132113924Y-92590840D01*
X132113924Y-92587477D01*
X132113292Y-92424152D01*
X132111524Y-92282146D01*
X132108736Y-92165194D01*
X132105046Y-92077032D01*
X132100571Y-92021396D01*
X132095429Y-92002021D01*
X132079228Y-92018595D01*
X132075183Y-92028687D01*
X132056815Y-92074514D01*
X132029554Y-92169704D01*
X132026614Y-92182021D01*
X131997507Y-92303946D01*
X131989417Y-92342021D01*
G37*
G36*
X128063220Y-96547880D02*
G01*
X128073924Y-96577221D01*
X128080357Y-96617238D01*
X128105161Y-96629844D01*
X128153478Y-96612251D01*
X128179498Y-96600033D01*
X128214936Y-96595430D01*
X128252205Y-96615067D01*
X128293193Y-96656012D01*
X128323437Y-96733999D01*
X128322392Y-96835266D01*
X128318245Y-96859466D01*
X128303787Y-96908184D01*
X128289389Y-96918102D01*
X128278339Y-96889953D01*
X128273924Y-96824469D01*
X128268069Y-96751625D01*
X128249378Y-96706716D01*
X128219097Y-96698162D01*
X128178508Y-96727270D01*
X128177328Y-96728541D01*
X128140909Y-96778317D01*
X128113168Y-96834706D01*
X128097202Y-96887556D01*
X128096110Y-96926712D01*
X128112989Y-96942021D01*
X128122250Y-96936189D01*
X128145778Y-96903113D01*
X128172515Y-96850548D01*
X128188651Y-96818062D01*
X128214400Y-96780754D01*
X128233022Y-96771463D01*
X128235215Y-96773249D01*
X128239358Y-96793923D01*
X128229817Y-96836720D01*
X128205258Y-96906225D01*
X128164342Y-97007021D01*
X128159810Y-97020832D01*
X128168064Y-97037803D01*
X128207785Y-97042021D01*
X128252179Y-97048625D01*
X128296210Y-97071688D01*
X128313924Y-97103783D01*
X128308483Y-97108035D01*
X128274233Y-97112564D01*
X128218924Y-97111822D01*
X128184693Y-97109044D01*
X128137783Y-97097735D01*
X128101277Y-97070796D01*
X128059409Y-97019059D01*
X128045325Y-96999290D01*
X128006382Y-96925332D01*
X127994409Y-96853021D01*
X127992881Y-96814103D01*
X127985538Y-96790857D01*
X127969924Y-96798021D01*
X127956135Y-96809096D01*
X127922031Y-96822021D01*
X127914656Y-96819137D01*
X127908223Y-96791160D01*
X127916428Y-96741566D01*
X127937017Y-96680429D01*
X127967734Y-96617826D01*
X128001162Y-96573111D01*
X128036346Y-96547512D01*
X128063220Y-96547880D01*
G37*
G36*
X127927657Y-96919817D02*
G01*
X127907452Y-96958123D01*
X127884820Y-97002029D01*
X127876807Y-97065524D01*
X127883705Y-97134559D01*
X127903172Y-97197845D01*
X127932869Y-97244095D01*
X127970455Y-97262021D01*
X127993520Y-97266030D01*
X128032494Y-97290297D01*
X128043897Y-97300913D01*
X128087475Y-97329992D01*
X128144943Y-97360399D01*
X128186540Y-97382420D01*
X128225313Y-97418902D01*
X128230207Y-97464094D01*
X128204666Y-97527639D01*
X128187545Y-97575147D01*
X128186865Y-97612471D01*
X128187737Y-97630676D01*
X128163534Y-97654938D01*
X128158101Y-97657866D01*
X128128958Y-97690828D01*
X128096133Y-97747074D01*
X128065463Y-97814169D01*
X128042782Y-97879677D01*
X128033924Y-97931162D01*
X128028538Y-97965419D01*
X128007317Y-98005771D01*
X127994483Y-98023668D01*
X127988984Y-98057199D01*
X127996599Y-98072105D01*
X128022419Y-98081547D01*
X128053768Y-98060018D01*
X128082944Y-98011282D01*
X128107817Y-97965196D01*
X128149658Y-97907143D01*
X128200724Y-97847570D01*
X128255279Y-97791908D01*
X128307587Y-97745591D01*
X128351913Y-97714049D01*
X128382520Y-97702715D01*
X128393672Y-97717021D01*
X128393528Y-97717877D01*
X128376960Y-97739512D01*
X128338279Y-97778466D01*
X128285182Y-97826940D01*
X128261859Y-97848409D01*
X128182174Y-97938139D01*
X128124033Y-98030009D01*
X128099420Y-98079025D01*
X128073776Y-98126921D01*
X128059189Y-98150089D01*
X128058367Y-98150907D01*
X128043757Y-98160410D01*
X128023219Y-98154558D01*
X127983221Y-98129720D01*
X127944446Y-98086103D01*
X127935724Y-98024859D01*
X127961961Y-97956317D01*
X127962326Y-97955737D01*
X127986213Y-97904139D01*
X128004532Y-97842551D01*
X128009318Y-97824221D01*
X128035323Y-97757965D01*
X128070659Y-97692551D01*
X128109546Y-97617038D01*
X128124699Y-97531623D01*
X128102253Y-97453468D01*
X128041406Y-97380204D01*
X127941360Y-97309460D01*
X127909251Y-97289940D01*
X127860509Y-97252185D01*
X127833588Y-97209855D01*
X127822802Y-97151234D01*
X127822462Y-97064612D01*
X127822829Y-97053168D01*
X127828637Y-96980352D01*
X127841430Y-96935878D01*
X127863939Y-96909537D01*
X127884186Y-96897876D01*
X127917007Y-96896503D01*
X127927657Y-96919817D01*
G37*
G36*
X131249650Y-94480495D02*
G01*
X131221347Y-94488264D01*
X131208251Y-94485944D01*
X131193924Y-94499881D01*
X131192998Y-94506529D01*
X131173924Y-94522021D01*
X131155943Y-94512032D01*
X131162494Y-94477716D01*
X131191647Y-94430840D01*
X131233924Y-94430840D01*
X131234316Y-94440938D01*
X131243763Y-94461137D01*
X131263070Y-94443402D01*
X131265788Y-94436191D01*
X131254251Y-94412222D01*
X131243765Y-94410241D01*
X131233924Y-94430840D01*
X131191647Y-94430840D01*
X131197377Y-94421627D01*
X131213603Y-94401075D01*
X131242756Y-94377791D01*
X131267046Y-94384611D01*
X131273611Y-94389384D01*
X131294456Y-94388441D01*
X131313593Y-94352892D01*
X131326909Y-94308955D01*
X131333924Y-94263167D01*
X131344726Y-94225050D01*
X131377544Y-94195033D01*
X131418603Y-94192746D01*
X131425716Y-94193523D01*
X131453290Y-94175168D01*
X131482079Y-94134307D01*
X131504739Y-94083173D01*
X131513924Y-94033998D01*
X131516813Y-94018317D01*
X131536257Y-94002021D01*
X131547633Y-93994138D01*
X131548209Y-93962326D01*
X131547113Y-93955880D01*
X131557898Y-93907202D01*
X131594556Y-93844323D01*
X131615277Y-93816620D01*
X131656575Y-93768302D01*
X131683962Y-93746910D01*
X131693633Y-93755840D01*
X131689579Y-93777194D01*
X131673502Y-93829973D01*
X131649178Y-93898845D01*
X131620912Y-93971793D01*
X131593006Y-94036803D01*
X131581102Y-94063194D01*
X131561618Y-94109707D01*
X131553924Y-94133437D01*
X131550716Y-94141678D01*
X131527493Y-94176533D01*
X131487178Y-94229278D01*
X131436152Y-94291969D01*
X131380796Y-94356659D01*
X131327491Y-94415404D01*
X131305967Y-94436191D01*
X131293378Y-94448349D01*
X131249650Y-94480495D01*
G37*
G36*
X128747043Y-96892472D02*
G01*
X128749564Y-96930796D01*
X128741807Y-96986557D01*
X128725532Y-97048351D01*
X128702501Y-97104774D01*
X128691798Y-97123157D01*
X128663272Y-97149635D01*
X128642168Y-97138207D01*
X128633924Y-97090043D01*
X128639331Y-97053882D01*
X128658361Y-96997756D01*
X128685158Y-96941931D01*
X128713430Y-96899116D01*
X128736887Y-96882021D01*
X128747043Y-96892472D01*
G37*
G36*
X130335460Y-95483771D02*
G01*
X130352262Y-95499091D01*
X130334792Y-95527765D01*
X130284172Y-95566837D01*
X130268414Y-95577652D01*
X130229761Y-95610879D01*
X130214172Y-95635673D01*
X130208138Y-95650438D01*
X130177677Y-95670829D01*
X130174063Y-95672285D01*
X130139801Y-95696061D01*
X130089919Y-95739976D01*
X130033885Y-95795799D01*
X130026152Y-95803869D01*
X129971862Y-95854762D01*
X129933939Y-95880580D01*
X129915789Y-95880975D01*
X129920820Y-95855600D01*
X129952438Y-95804108D01*
X129985162Y-95763680D01*
X130040214Y-95705401D01*
X130105371Y-95642766D01*
X130173098Y-95582442D01*
X130235862Y-95531098D01*
X130286127Y-95495401D01*
X130316359Y-95482021D01*
X130335460Y-95483771D01*
G37*
G36*
X131718474Y-93205756D02*
G01*
X131736463Y-93226195D01*
X131749750Y-93269536D01*
X131759880Y-93341477D01*
X131768398Y-93447719D01*
X131768708Y-93452510D01*
X131772406Y-93555981D01*
X131767644Y-93626953D01*
X131754010Y-93671860D01*
X131746790Y-93684528D01*
X131722414Y-93708016D01*
X131691005Y-93700458D01*
X131664309Y-93690688D01*
X131653924Y-93704650D01*
X131653087Y-93713208D01*
X131643454Y-93718216D01*
X131641793Y-93716270D01*
X131640540Y-93688011D01*
X131658929Y-93656766D01*
X131686064Y-93642021D01*
X131699014Y-93638560D01*
X131713924Y-93612021D01*
X131711668Y-93598220D01*
X131693924Y-93582021D01*
X131684724Y-93578636D01*
X131673924Y-93552021D01*
X131676107Y-93538229D01*
X131693297Y-93522021D01*
X131700661Y-93519705D01*
X131704526Y-93497021D01*
X131699062Y-93467176D01*
X131692020Y-93409348D01*
X131685150Y-93337021D01*
X131682164Y-93296857D01*
X131680936Y-93239212D01*
X131687170Y-93210079D01*
X131701781Y-93202021D01*
X131718474Y-93205756D01*
G37*
G36*
X131146170Y-94967600D02*
G01*
X131149521Y-94971414D01*
X131152258Y-94988133D01*
X131133079Y-95002762D01*
X131089182Y-95036775D01*
X131030763Y-95082274D01*
X130966930Y-95132143D01*
X130906791Y-95179264D01*
X130859454Y-95216521D01*
X130834027Y-95236796D01*
X130807932Y-95255774D01*
X130756306Y-95290170D01*
X130693924Y-95329761D01*
X130639007Y-95362241D01*
X130588277Y-95388963D01*
X130559552Y-95399986D01*
X130542538Y-95395378D01*
X130546821Y-95374754D01*
X130574241Y-95344747D01*
X130619552Y-95312968D01*
X130629366Y-95307124D01*
X130682134Y-95272676D01*
X130751085Y-95224708D01*
X130823924Y-95171720D01*
X130842425Y-95158054D01*
X130916659Y-95105241D01*
X130984748Y-95059583D01*
X131033924Y-95029714D01*
X131046536Y-95022735D01*
X131092312Y-94994028D01*
X131117837Y-94972600D01*
X131123825Y-94966575D01*
X131146170Y-94967600D01*
G37*
G36*
X130723096Y-96457534D02*
G01*
X130783223Y-96479650D01*
X130842951Y-96502488D01*
X130901739Y-96510859D01*
X130971882Y-96502408D01*
X131075927Y-96492869D01*
X131152019Y-96508983D01*
X131198305Y-96550531D01*
X131213924Y-96617106D01*
X131202016Y-96667278D01*
X131156657Y-96727428D01*
X131083924Y-96776079D01*
X131062371Y-96783367D01*
X130997106Y-96793781D01*
X130912563Y-96798968D01*
X130822249Y-96798749D01*
X130739672Y-96792949D01*
X130678337Y-96781390D01*
X130665701Y-96777272D01*
X130593705Y-96750486D01*
X130522610Y-96720033D01*
X130506662Y-96712909D01*
X130440291Y-96690300D01*
X130385911Y-96682098D01*
X130351783Y-96688742D01*
X130346173Y-96710669D01*
X130339716Y-96738576D01*
X130299089Y-96769350D01*
X130250901Y-96799747D01*
X130212600Y-96833616D01*
X130196245Y-96847300D01*
X130147292Y-96877733D01*
X130077139Y-96915575D01*
X129995022Y-96955647D01*
X129918506Y-96989854D01*
X129837137Y-97020859D01*
X129773981Y-97036296D01*
X129719708Y-97038987D01*
X129716498Y-97038827D01*
X129658307Y-97041044D01*
X129613715Y-97059603D01*
X129563742Y-97102197D01*
X129556533Y-97109372D01*
X129510471Y-97168908D01*
X129493292Y-97220944D01*
X129493146Y-97225173D01*
X129470908Y-97289113D01*
X129414027Y-97355012D01*
X129326855Y-97417724D01*
X129320095Y-97421679D01*
X129269342Y-97446928D01*
X129229799Y-97451686D01*
X129182358Y-97438731D01*
X129141168Y-97426732D01*
X129106454Y-97427006D01*
X129103847Y-97445960D01*
X129136091Y-97481080D01*
X129183924Y-97521139D01*
X129059803Y-97636580D01*
X128958001Y-97731046D01*
X128849704Y-97830711D01*
X128764941Y-97907367D01*
X128700654Y-97963600D01*
X128653783Y-98001994D01*
X128621268Y-98025135D01*
X128600051Y-98035607D01*
X128587072Y-98035996D01*
X128578114Y-98035740D01*
X128541930Y-98055057D01*
X128491036Y-98097511D01*
X128431451Y-98156304D01*
X128369198Y-98224636D01*
X128310298Y-98295708D01*
X128260771Y-98362720D01*
X128226640Y-98418872D01*
X128213924Y-98457367D01*
X128205226Y-98488388D01*
X128181624Y-98532724D01*
X128153795Y-98566655D01*
X128120667Y-98578054D01*
X128085237Y-98553697D01*
X128043016Y-98492275D01*
X128039727Y-98486596D01*
X128011830Y-98430403D01*
X127999790Y-98391317D01*
X128002900Y-98374515D01*
X128020451Y-98385177D01*
X128051736Y-98428479D01*
X128064133Y-98447768D01*
X128092846Y-98486484D01*
X128110556Y-98501758D01*
X128110870Y-98501721D01*
X128126084Y-98483631D01*
X128152208Y-98438866D01*
X128183778Y-98376758D01*
X128185956Y-98372262D01*
X128224353Y-98304537D01*
X128276087Y-98234453D01*
X128347211Y-98154578D01*
X128443778Y-98057478D01*
X128466611Y-98035490D01*
X128539947Y-97967663D01*
X128603675Y-97912781D01*
X128651612Y-97876001D01*
X128677577Y-97862478D01*
X128699868Y-97854357D01*
X128724163Y-97821270D01*
X128728925Y-97810952D01*
X128761661Y-97772005D01*
X128810510Y-97733537D01*
X128819320Y-97727734D01*
X128884963Y-97677550D01*
X128943573Y-97623341D01*
X128978944Y-97582181D01*
X128987904Y-97557772D01*
X128973573Y-97541069D01*
X128950944Y-97528789D01*
X128866761Y-97501406D01*
X128752219Y-97482236D01*
X128613924Y-97472538D01*
X128538013Y-97469080D01*
X128446022Y-97459522D01*
X128391741Y-97444871D01*
X128373926Y-97424881D01*
X128379829Y-97419072D01*
X128416531Y-97413064D01*
X128479506Y-97412181D01*
X128560243Y-97415797D01*
X128650232Y-97423289D01*
X128740961Y-97434032D01*
X128823919Y-97447403D01*
X128890594Y-97462776D01*
X128905081Y-97466909D01*
X128974145Y-97484494D01*
X129025456Y-97494128D01*
X129048804Y-97493807D01*
X129046851Y-97475101D01*
X129023924Y-97442021D01*
X129002740Y-97410980D01*
X129000955Y-97388324D01*
X129003946Y-97386524D01*
X129037440Y-97378523D01*
X129097645Y-97370218D01*
X129174013Y-97363144D01*
X129181610Y-97362579D01*
X129263096Y-97354657D01*
X129316981Y-97343460D01*
X129354789Y-97325425D01*
X129388045Y-97296991D01*
X129409998Y-97273468D01*
X129428006Y-97241804D01*
X129418670Y-97218766D01*
X129417374Y-97217497D01*
X129391423Y-97207124D01*
X129357822Y-97228493D01*
X129336218Y-97246455D01*
X129304543Y-97260797D01*
X129293924Y-97241354D01*
X129295035Y-97235534D01*
X129314605Y-97204231D01*
X129350608Y-97164254D01*
X129392585Y-97125498D01*
X129430078Y-97097856D01*
X129452630Y-97091220D01*
X129462378Y-97093160D01*
X129492415Y-97078582D01*
X129521168Y-97048254D01*
X129534172Y-97015592D01*
X129537164Y-97007134D01*
X129563858Y-96977284D01*
X129609172Y-96942385D01*
X129649738Y-96918915D01*
X129699183Y-96901559D01*
X129764042Y-96891356D01*
X129856594Y-96885482D01*
X129934462Y-96881550D01*
X129993987Y-96874641D01*
X130037461Y-96861097D01*
X130077468Y-96836829D01*
X130126594Y-96797747D01*
X130173920Y-96760671D01*
X130229650Y-96721879D01*
X130268924Y-96700145D01*
X130297296Y-96682473D01*
X130313924Y-96652516D01*
X130314259Y-96648276D01*
X130335618Y-96626342D01*
X130384963Y-96620026D01*
X130454870Y-96628515D01*
X130537917Y-96651001D01*
X130626679Y-96686671D01*
X130675437Y-96707739D01*
X130798944Y-96744052D01*
X130912513Y-96753775D01*
X131010654Y-96737521D01*
X131087879Y-96695902D01*
X131138698Y-96629530D01*
X131143769Y-96617845D01*
X131150893Y-96582340D01*
X131132787Y-96560376D01*
X131127326Y-96557582D01*
X131082724Y-96551046D01*
X131021574Y-96554909D01*
X130961581Y-96567080D01*
X130920449Y-96585466D01*
X130890270Y-96588689D01*
X130837118Y-96572264D01*
X130771689Y-96539722D01*
X130703956Y-96495221D01*
X130693068Y-96486586D01*
X130673148Y-96461959D01*
X130684781Y-96451956D01*
X130723096Y-96457534D01*
G37*
G36*
X131073500Y-94713994D02*
G01*
X131060004Y-94747988D01*
X131017962Y-94800823D01*
X130985655Y-94833168D01*
X130957922Y-94847689D01*
X130935462Y-94837058D01*
X130912579Y-94822730D01*
X130898391Y-94841120D01*
X130880702Y-94872655D01*
X130831744Y-94930908D01*
X130761785Y-94999272D01*
X130678549Y-95071469D01*
X130589761Y-95141216D01*
X130503144Y-95202233D01*
X130426422Y-95248240D01*
X130367319Y-95272956D01*
X130328453Y-95286604D01*
X130302555Y-95304236D01*
X130292189Y-95315355D01*
X130266941Y-95320510D01*
X130253924Y-95302021D01*
X130257309Y-95292820D01*
X130283924Y-95282021D01*
X130297658Y-95280352D01*
X130314154Y-95267021D01*
X130316311Y-95262485D01*
X130342604Y-95241751D01*
X130389154Y-95216198D01*
X130432491Y-95191116D01*
X130498915Y-95144132D01*
X130563924Y-95090678D01*
X130615049Y-95046155D01*
X130677143Y-94995029D01*
X130724983Y-94958815D01*
X130731212Y-94954331D01*
X130784797Y-94905206D01*
X130831054Y-94847981D01*
X130861146Y-94807586D01*
X130891557Y-94788780D01*
X130931211Y-94791424D01*
X130947324Y-94794385D01*
X130985545Y-94788828D01*
X131013519Y-94752778D01*
X131036884Y-94717751D01*
X131057304Y-94702021D01*
X131073500Y-94713994D01*
G37*
G36*
X128827455Y-96737082D02*
G01*
X128890228Y-96793860D01*
X128924226Y-96846328D01*
X128957581Y-96925898D01*
X128979039Y-97010348D01*
X128985496Y-97086748D01*
X128973846Y-97142167D01*
X128955664Y-97168084D01*
X128935938Y-97170290D01*
X128923287Y-97136053D01*
X128919094Y-97067266D01*
X128918906Y-97053471D01*
X128907774Y-96967980D01*
X128882846Y-96885741D01*
X128848766Y-96819003D01*
X128810178Y-96780016D01*
X128767562Y-96772844D01*
X128715054Y-96795376D01*
X128663707Y-96844249D01*
X128618893Y-96912710D01*
X128585988Y-96994006D01*
X128570364Y-97081384D01*
X128568702Y-97115250D01*
X128570017Y-97164414D01*
X128580354Y-97188780D01*
X128602510Y-97198541D01*
X128625102Y-97205994D01*
X128668939Y-97234178D01*
X128699628Y-97255433D01*
X128749322Y-97257503D01*
X128815223Y-97228072D01*
X128827974Y-97221002D01*
X128870331Y-97206329D01*
X128891062Y-97214023D01*
X128883526Y-97242665D01*
X128882695Y-97243911D01*
X128853630Y-97267847D01*
X128806524Y-97292728D01*
X128792386Y-97298299D01*
X128729439Y-97309732D01*
X128659565Y-97297504D01*
X128571391Y-97260034D01*
X128509512Y-97219105D01*
X128482991Y-97173238D01*
X128493996Y-97121886D01*
X128507604Y-97079484D01*
X128513924Y-97022021D01*
X128514955Y-96996544D01*
X128529653Y-96934031D01*
X128566226Y-96871179D01*
X128630348Y-96797021D01*
X128696956Y-96741443D01*
X128763726Y-96719601D01*
X128827455Y-96737082D01*
G37*
G36*
X130187988Y-95303998D02*
G01*
X130191066Y-95329412D01*
X130165235Y-95342021D01*
X130147732Y-95347738D01*
X130101099Y-95371798D01*
X130035834Y-95410323D01*
X129960235Y-95458595D01*
X129910713Y-95491177D01*
X129829269Y-95544129D01*
X129758601Y-95589344D01*
X129709957Y-95619588D01*
X129693353Y-95630339D01*
X129647859Y-95668670D01*
X129623572Y-95703133D01*
X129611070Y-95723048D01*
X129572724Y-95766485D01*
X129515895Y-95822887D01*
X129447539Y-95885065D01*
X129396215Y-95930345D01*
X129329054Y-95991083D01*
X129275499Y-96041242D01*
X129243924Y-96073089D01*
X129231048Y-96086695D01*
X129184005Y-96131280D01*
X129120346Y-96187842D01*
X129049290Y-96248579D01*
X128980055Y-96305686D01*
X128921860Y-96351362D01*
X128883924Y-96377803D01*
X128863877Y-96388121D01*
X128824927Y-96397051D01*
X128811398Y-96382705D01*
X128825007Y-96351979D01*
X128867473Y-96311767D01*
X128915028Y-96275144D01*
X128998855Y-96206260D01*
X129091924Y-96125802D01*
X129189276Y-96038460D01*
X129285951Y-95948927D01*
X129376988Y-95861893D01*
X129457429Y-95782050D01*
X129522314Y-95714088D01*
X129566682Y-95662698D01*
X129585573Y-95632572D01*
X129596682Y-95611441D01*
X129644629Y-95570328D01*
X129730299Y-95522228D01*
X129730376Y-95522190D01*
X129805318Y-95482522D01*
X129873372Y-95442078D01*
X129919815Y-95409607D01*
X129969434Y-95374795D01*
X130031820Y-95340125D01*
X130094641Y-95311558D01*
X130146524Y-95294252D01*
X130176098Y-95293364D01*
X130187988Y-95303998D01*
G37*
G36*
X130482835Y-96178578D02*
G01*
X130450337Y-96218557D01*
X130403924Y-96268817D01*
X130360619Y-96315150D01*
X130326855Y-96355052D01*
X130313924Y-96375719D01*
X130317747Y-96379616D01*
X130337924Y-96366021D01*
X130372356Y-96347975D01*
X130442929Y-96344421D01*
X130538924Y-96363072D01*
X130547834Y-96365631D01*
X130598519Y-96386214D01*
X130610077Y-96404456D01*
X130583287Y-96417975D01*
X130518924Y-96424387D01*
X130494717Y-96425394D01*
X130421896Y-96432177D01*
X130363924Y-96442437D01*
X130311185Y-96452102D01*
X130253924Y-96455070D01*
X130229793Y-96451654D01*
X130211845Y-96437509D01*
X130202824Y-96403149D01*
X130197976Y-96338682D01*
X130194263Y-96297060D01*
X130181700Y-96235886D01*
X130180121Y-96232854D01*
X130219512Y-96232854D01*
X130234628Y-96263335D01*
X130239781Y-96272229D01*
X130270007Y-96298539D01*
X130308675Y-96289975D01*
X130360183Y-96245926D01*
X130362504Y-96243483D01*
X130405658Y-96184822D01*
X130416411Y-96141114D01*
X130398611Y-96117671D01*
X130356108Y-96119807D01*
X130292750Y-96152834D01*
X130287446Y-96156508D01*
X130240293Y-96190140D01*
X130219524Y-96212022D01*
X130219512Y-96232854D01*
X130180121Y-96232854D01*
X130164165Y-96202220D01*
X130151077Y-96186199D01*
X130145113Y-96150558D01*
X130149133Y-96137580D01*
X130163628Y-96091158D01*
X130178101Y-96071591D01*
X130210198Y-96080026D01*
X130212942Y-96081432D01*
X130253726Y-96086891D01*
X130306623Y-96063537D01*
X130331062Y-96049087D01*
X130361137Y-96038655D01*
X130388767Y-96049515D01*
X130430053Y-96084387D01*
X130445912Y-96099104D01*
X130480240Y-96135890D01*
X130483355Y-96141114D01*
X130493924Y-96158836D01*
X130482835Y-96178578D01*
G37*
%TD*%
M02*
