%TF.GenerationSoftware,KiCad,Pcbnew,(6.0.7)*%
%TF.CreationDate,2023-03-11T05:38:16-08:00*%
%TF.ProjectId,ESP_SoC,4553505f-536f-4432-9e6b-696361645f70,rev?*%
%TF.SameCoordinates,Original*%
%TF.FileFunction,Copper,L3,Inr*%
%TF.FilePolarity,Positive*%
%FSLAX46Y46*%
G04 Gerber Fmt 4.6, Leading zero omitted, Abs format (unit mm)*
G04 Created by KiCad (PCBNEW (6.0.7)) date 2023-03-11 05:38:16*
%MOMM*%
%LPD*%
G01*
G04 APERTURE LIST*
%TA.AperFunction,ComponentPad*%
%ADD10O,3.500000X1.900000*%
%TD*%
%TA.AperFunction,ViaPad*%
%ADD11C,0.685800*%
%TD*%
%TA.AperFunction,ViaPad*%
%ADD12C,0.889000*%
%TD*%
%TA.AperFunction,Conductor*%
%ADD13C,0.508000*%
%TD*%
%TA.AperFunction,Conductor*%
%ADD14C,0.762000*%
%TD*%
%TA.AperFunction,Conductor*%
%ADD15C,0.254000*%
%TD*%
G04 APERTURE END LIST*
D10*
%TO.N,GND*%
%TO.C,J1*%
X101600000Y-104450000D03*
X101600000Y-93050000D03*
%TD*%
D11*
%TO.N,+3V3*%
X125800000Y-95000000D03*
X118079000Y-102621000D03*
X116400000Y-99900000D03*
X119337156Y-94518432D03*
X122600000Y-104500000D03*
X116580000Y-102900000D03*
X128900000Y-93300000D03*
X119000000Y-98900000D03*
X120600000Y-95700000D03*
X117100000Y-101226500D03*
%TO.N,GND*%
X117800000Y-93000000D03*
X106800000Y-92700000D03*
X117178019Y-100133500D03*
X104700000Y-104500000D03*
D12*
X122750000Y-98500000D03*
D11*
X131000000Y-94500000D03*
X126700000Y-94500000D03*
X106800000Y-91800000D03*
X112800000Y-94500000D03*
D12*
X124000000Y-99750000D03*
D11*
X106800000Y-93600000D03*
X107800000Y-94500000D03*
D12*
X122750000Y-101000000D03*
D11*
X107700000Y-101100000D03*
X117400000Y-96100000D03*
X115000000Y-101226500D03*
X131000000Y-92300000D03*
X126700000Y-92300000D03*
X113000000Y-97800000D03*
X115300000Y-99900000D03*
D12*
X124000000Y-98500000D03*
D11*
X113800000Y-94500000D03*
X117000000Y-92200000D03*
X109800000Y-94500000D03*
X119875000Y-104499500D03*
X114800000Y-94500000D03*
D12*
X124000000Y-101000000D03*
D11*
X118800000Y-97400000D03*
X108800000Y-94500000D03*
D12*
X125250000Y-98500000D03*
D11*
X106800000Y-94500000D03*
D12*
X122750000Y-99750000D03*
X125250000Y-101000000D03*
D11*
X111800000Y-94500000D03*
X129750000Y-98750000D03*
X118600000Y-93800000D03*
D12*
X125250000Y-99750000D03*
D11*
X108800000Y-97800000D03*
X112800000Y-101226500D03*
X116700000Y-95400000D03*
X110800000Y-94500000D03*
X119875000Y-103000000D03*
X130700000Y-103800000D03*
%TO.N,+5V*%
X106300000Y-104900000D03*
%TO.N,USB_D-*%
X106400000Y-99800000D03*
X129600000Y-104200000D03*
%TO.N,USB_D+*%
X128200000Y-103400000D03*
X106400000Y-97800000D03*
%TO.N,Net-(P1-PadB5)*%
X130300000Y-101000000D03*
%TO.N,Net-(D2-Pad2)*%
X128775000Y-95775000D03*
X131800000Y-97300000D03*
D12*
X109500000Y-103600000D03*
D11*
X131900000Y-100500000D03*
%TD*%
D13*
%TO.N,+3V3*%
X118879606Y-100079606D02*
X119479606Y-99479606D01*
D14*
X118079000Y-102621000D02*
X117479000Y-102621000D01*
D15*
X116400000Y-100526500D02*
X117100000Y-101226500D01*
D14*
X116859000Y-102621000D02*
X117479000Y-102621000D01*
D15*
X116400000Y-99900000D02*
X116400000Y-100526500D01*
X121454000Y-97054000D02*
X123746000Y-97054000D01*
D14*
X116580000Y-102900000D02*
X116859000Y-102621000D01*
D15*
X128900000Y-93300000D02*
X126750000Y-93300000D01*
X119479606Y-99379606D02*
X119479606Y-99479606D01*
D13*
X121454000Y-97505212D02*
X121454000Y-97054000D01*
D15*
X125800000Y-94250000D02*
X125800000Y-95000000D01*
X123746000Y-97054000D02*
X125462500Y-95337500D01*
X125462500Y-95337500D02*
X125800000Y-95000000D01*
X119000000Y-98900000D02*
X119479606Y-99379606D01*
D13*
X117479000Y-102621000D02*
X117479000Y-101480212D01*
X119479606Y-99479606D02*
X121454000Y-97505212D01*
X118129606Y-100829606D02*
X118879606Y-100079606D01*
X117479000Y-101480212D02*
X117732712Y-101226500D01*
D15*
X126750000Y-93300000D02*
X125800000Y-94250000D01*
X122600000Y-103800000D02*
X118879606Y-100079606D01*
X122600000Y-104500000D02*
X122600000Y-103800000D01*
D13*
X121454000Y-96635276D02*
X119337156Y-94518432D01*
X117732712Y-101226500D02*
X118129606Y-100829606D01*
X117100000Y-101226500D02*
X117732712Y-101226500D01*
X121454000Y-97054000D02*
X121454000Y-96635276D01*
D15*
%TO.N,Net-(D2-Pad2)*%
X130300000Y-97300000D02*
X128775000Y-95775000D01*
D13*
X111023900Y-105223900D02*
X109500000Y-103700000D01*
X130776100Y-105223900D02*
X111023900Y-105223900D01*
D15*
X131800000Y-97300000D02*
X130300000Y-97300000D01*
D13*
X109500000Y-103700000D02*
X109500000Y-103600000D01*
X131900000Y-104100000D02*
X130776100Y-105223900D01*
X131900000Y-100500000D02*
X131900000Y-104100000D01*
%TD*%
%TA.AperFunction,Conductor*%
%TO.N,GND*%
G36*
X107425459Y-91655333D02*
G01*
X107430292Y-91667017D01*
X107427956Y-93940306D01*
X107427896Y-93998552D01*
X107431154Y-93998572D01*
X107431155Y-93998572D01*
X115943296Y-94049960D01*
X115954777Y-94054707D01*
X118537691Y-96599637D01*
X119350000Y-97400000D01*
X120805907Y-97400000D01*
X120817574Y-97404833D01*
X120822407Y-97416500D01*
X120817574Y-97428167D01*
X119572895Y-98672846D01*
X119561228Y-98677679D01*
X119549561Y-98672846D01*
X119545984Y-98667493D01*
X119518750Y-98601744D01*
X119518750Y-98601743D01*
X119518334Y-98600740D01*
X119423218Y-98476782D01*
X119321041Y-98398379D01*
X119300122Y-98382327D01*
X119300120Y-98382326D01*
X119299260Y-98381666D01*
X119154908Y-98321874D01*
X119153843Y-98321734D01*
X119153840Y-98321733D01*
X119001071Y-98301621D01*
X119000000Y-98301480D01*
X118998929Y-98301621D01*
X118846160Y-98321733D01*
X118846157Y-98321734D01*
X118845092Y-98321874D01*
X118700740Y-98381666D01*
X118699880Y-98382326D01*
X118699878Y-98382327D01*
X118678959Y-98398379D01*
X118576782Y-98476782D01*
X118481666Y-98600740D01*
X118421874Y-98745092D01*
X118401480Y-98900000D01*
X118421874Y-99054908D01*
X118481666Y-99199260D01*
X118482326Y-99200120D01*
X118482327Y-99200122D01*
X118498910Y-99221733D01*
X118576782Y-99323218D01*
X118577637Y-99323874D01*
X118699878Y-99417673D01*
X118699880Y-99417674D01*
X118700740Y-99418334D01*
X118701743Y-99418750D01*
X118701744Y-99418750D01*
X118767493Y-99445984D01*
X118776423Y-99454914D01*
X118776423Y-99467542D01*
X118772846Y-99472895D01*
X117528574Y-100717167D01*
X117516907Y-100722000D01*
X117422890Y-100722000D01*
X117412846Y-100718590D01*
X117400126Y-100708829D01*
X117400118Y-100708824D01*
X117399260Y-100708166D01*
X117394560Y-100706219D01*
X117255905Y-100648787D01*
X117254908Y-100648374D01*
X117253843Y-100648234D01*
X117253840Y-100648233D01*
X117101071Y-100628121D01*
X117100000Y-100627980D01*
X117050935Y-100634440D01*
X117038737Y-100631171D01*
X117037114Y-100629748D01*
X116784107Y-100376741D01*
X116779274Y-100365074D01*
X116784107Y-100353407D01*
X116785730Y-100351984D01*
X116822359Y-100323878D01*
X116822363Y-100323874D01*
X116823218Y-100323218D01*
X116879735Y-100249564D01*
X116917673Y-100200122D01*
X116917674Y-100200120D01*
X116918334Y-100199260D01*
X116978126Y-100054908D01*
X116987682Y-99982327D01*
X116998379Y-99901071D01*
X116998520Y-99900000D01*
X116978126Y-99745092D01*
X116918334Y-99600740D01*
X116823218Y-99476782D01*
X116747047Y-99418334D01*
X116700122Y-99382327D01*
X116700120Y-99382326D01*
X116699260Y-99381666D01*
X116554908Y-99321874D01*
X116553843Y-99321734D01*
X116553840Y-99321733D01*
X116401071Y-99301621D01*
X116400000Y-99301480D01*
X116398929Y-99301621D01*
X116246160Y-99321733D01*
X116246157Y-99321734D01*
X116245092Y-99321874D01*
X116100740Y-99381666D01*
X116099880Y-99382326D01*
X116099878Y-99382327D01*
X116052953Y-99418334D01*
X115976782Y-99476782D01*
X115881666Y-99600740D01*
X115821874Y-99745092D01*
X115801480Y-99900000D01*
X115801621Y-99901071D01*
X115812319Y-99982327D01*
X115821874Y-100054908D01*
X115881666Y-100199260D01*
X115882326Y-100200120D01*
X115882327Y-100200122D01*
X115920265Y-100249564D01*
X115976782Y-100323218D01*
X115983182Y-100328129D01*
X116016045Y-100353346D01*
X116022359Y-100364282D01*
X116022500Y-100366436D01*
X116022500Y-100484445D01*
X116022130Y-100487917D01*
X116017705Y-100508471D01*
X116017865Y-100509824D01*
X116017865Y-100509827D01*
X116022386Y-100548022D01*
X116022500Y-100549961D01*
X116022500Y-100557862D01*
X116022612Y-100558534D01*
X116022612Y-100558536D01*
X116026071Y-100579317D01*
X116026179Y-100580076D01*
X116032476Y-100633275D01*
X116033066Y-100634503D01*
X116033067Y-100634507D01*
X116035402Y-100639368D01*
X116036805Y-100643803D01*
X116037914Y-100650470D01*
X116038563Y-100651672D01*
X116038563Y-100651673D01*
X116063347Y-100697605D01*
X116063700Y-100698298D01*
X116086878Y-100746566D01*
X116090450Y-100750815D01*
X116092234Y-100752599D01*
X116095088Y-100756431D01*
X116097592Y-100761072D01*
X116098596Y-100762000D01*
X116138550Y-100798933D01*
X116139017Y-100799382D01*
X116503248Y-101163613D01*
X116508081Y-101175280D01*
X116507940Y-101177433D01*
X116501480Y-101226500D01*
X116501621Y-101227571D01*
X116511173Y-101300122D01*
X116521874Y-101381408D01*
X116581666Y-101525760D01*
X116582326Y-101526620D01*
X116582327Y-101526622D01*
X116639073Y-101600575D01*
X116676782Y-101649718D01*
X116677637Y-101650374D01*
X116799878Y-101744173D01*
X116799880Y-101744174D01*
X116800740Y-101744834D01*
X116801743Y-101745250D01*
X116801744Y-101745250D01*
X116864034Y-101771051D01*
X116945092Y-101804626D01*
X116946157Y-101804766D01*
X116946160Y-101804767D01*
X116956479Y-101806125D01*
X116960154Y-101806609D01*
X116971090Y-101812923D01*
X116974500Y-101822968D01*
X116974500Y-101973000D01*
X116969667Y-101984667D01*
X116958000Y-101989500D01*
X116930541Y-101989500D01*
X116926942Y-101989103D01*
X116919914Y-101987532D01*
X116919912Y-101987532D01*
X116918902Y-101987306D01*
X116849333Y-101989492D01*
X116848815Y-101989500D01*
X116819270Y-101989500D01*
X116816223Y-101989885D01*
X116810173Y-101990649D01*
X116808623Y-101990771D01*
X116760463Y-101992284D01*
X116760460Y-101992285D01*
X116759426Y-101992317D01*
X116758433Y-101992606D01*
X116758430Y-101992606D01*
X116731789Y-102000347D01*
X116729253Y-102000872D01*
X116701732Y-102004348D01*
X116701731Y-102004348D01*
X116700704Y-102004478D01*
X116699740Y-102004860D01*
X116699739Y-102004860D01*
X116654943Y-102022596D01*
X116653476Y-102023099D01*
X116606208Y-102036832D01*
X116600694Y-102040093D01*
X116581439Y-102051480D01*
X116579115Y-102052619D01*
X116552355Y-102063214D01*
X116551515Y-102063825D01*
X116551512Y-102063826D01*
X116512537Y-102092143D01*
X116511238Y-102092996D01*
X116478900Y-102112121D01*
X116468873Y-102118051D01*
X116448521Y-102138403D01*
X116446553Y-102140084D01*
X116423273Y-102156998D01*
X116422612Y-102157797D01*
X116422611Y-102157798D01*
X116391900Y-102194921D01*
X116390854Y-102196070D01*
X116105369Y-102481555D01*
X116032121Y-102575985D01*
X116031709Y-102576937D01*
X115995797Y-102659926D01*
X115968755Y-102722416D01*
X115943796Y-102880007D01*
X115946115Y-102904540D01*
X115957574Y-103025772D01*
X115958810Y-103038852D01*
X115959160Y-103039825D01*
X115959161Y-103039828D01*
X115994445Y-103137833D01*
X116012857Y-103188974D01*
X116013440Y-103189831D01*
X116013440Y-103189832D01*
X116101957Y-103320081D01*
X116101960Y-103320084D01*
X116102540Y-103320938D01*
X116103316Y-103321622D01*
X116221444Y-103425765D01*
X116221447Y-103425767D01*
X116222224Y-103426452D01*
X116223149Y-103426923D01*
X116223150Y-103426924D01*
X116363464Y-103498419D01*
X116363466Y-103498420D01*
X116364387Y-103498889D01*
X116365398Y-103499115D01*
X116519086Y-103533468D01*
X116519088Y-103533468D01*
X116520098Y-103533694D01*
X116602978Y-103531089D01*
X116678536Y-103528715D01*
X116678539Y-103528715D01*
X116679574Y-103528682D01*
X116783740Y-103498419D01*
X116831798Y-103484457D01*
X116831800Y-103484456D01*
X116832792Y-103484168D01*
X116970127Y-103402949D01*
X117115743Y-103257333D01*
X117127410Y-103252500D01*
X118118730Y-103252500D01*
X118189501Y-103243560D01*
X118236268Y-103237652D01*
X118236269Y-103237652D01*
X118237296Y-103237522D01*
X118385645Y-103178786D01*
X118386485Y-103178175D01*
X118386488Y-103178174D01*
X118513886Y-103085613D01*
X118514727Y-103085002D01*
X118616431Y-102962064D01*
X118684366Y-102817695D01*
X118687433Y-102801621D01*
X118714068Y-102661989D01*
X118714263Y-102660967D01*
X118708917Y-102575985D01*
X118704310Y-102502770D01*
X118704309Y-102502767D01*
X118704244Y-102501728D01*
X118654940Y-102349983D01*
X118569446Y-102215268D01*
X118453136Y-102106045D01*
X118452229Y-102105546D01*
X118452227Y-102105545D01*
X118314228Y-102029680D01*
X118314226Y-102029679D01*
X118313318Y-102029180D01*
X118158777Y-101989500D01*
X118000000Y-101989500D01*
X117988333Y-101984667D01*
X117983500Y-101973000D01*
X117983500Y-101696017D01*
X117988333Y-101684350D01*
X118075389Y-101597294D01*
X118076285Y-101596461D01*
X118115906Y-101562321D01*
X118116794Y-101561556D01*
X118126287Y-101546910D01*
X118128466Y-101544217D01*
X118957742Y-100714941D01*
X118969409Y-100710108D01*
X118981076Y-100714941D01*
X122217667Y-103951532D01*
X122222500Y-103963199D01*
X122222500Y-104033564D01*
X122217667Y-104045231D01*
X122216045Y-104046654D01*
X122203035Y-104056637D01*
X122176782Y-104076782D01*
X122176126Y-104077637D01*
X122083056Y-104198929D01*
X122081666Y-104200740D01*
X122081250Y-104201743D01*
X122081250Y-104201744D01*
X122039880Y-104301621D01*
X122021874Y-104345092D01*
X122021734Y-104346157D01*
X122021733Y-104346160D01*
X122010548Y-104431119D01*
X122001480Y-104500000D01*
X122001621Y-104501071D01*
X122018369Y-104628283D01*
X122021874Y-104654908D01*
X122022287Y-104655905D01*
X122039137Y-104696586D01*
X122039137Y-104709214D01*
X122030207Y-104718144D01*
X122023893Y-104719400D01*
X111239705Y-104719400D01*
X111228038Y-104714567D01*
X110196834Y-103683363D01*
X110192001Y-103671696D01*
X110192166Y-103669371D01*
X110199875Y-103615197D01*
X110199875Y-103615195D01*
X110199951Y-103614662D01*
X110200105Y-103600000D01*
X110179896Y-103433002D01*
X110120436Y-103275644D01*
X110093973Y-103237140D01*
X110025722Y-103137833D01*
X110025719Y-103137829D01*
X110025157Y-103137012D01*
X110019925Y-103132350D01*
X109900303Y-103025772D01*
X109900304Y-103025772D01*
X109899559Y-103025109D01*
X109890854Y-103020500D01*
X109751776Y-102946862D01*
X109751773Y-102946861D01*
X109750895Y-102946396D01*
X109749932Y-102946154D01*
X109749929Y-102946153D01*
X109588710Y-102905658D01*
X109588709Y-102905658D01*
X109587746Y-102905416D01*
X109497994Y-102904946D01*
X109420521Y-102904540D01*
X109420520Y-102904540D01*
X109419532Y-102904535D01*
X109418571Y-102904766D01*
X109418569Y-102904766D01*
X109415862Y-102905416D01*
X109255963Y-102943804D01*
X109106483Y-103020957D01*
X108979721Y-103131538D01*
X108882995Y-103269165D01*
X108882633Y-103270094D01*
X108823057Y-103422899D01*
X108821890Y-103425891D01*
X108799933Y-103592669D01*
X108800042Y-103593657D01*
X108800042Y-103593659D01*
X108808401Y-103669371D01*
X108818393Y-103759870D01*
X108876202Y-103917841D01*
X108970024Y-104057463D01*
X108970758Y-104058131D01*
X108970759Y-104058132D01*
X109032233Y-104114069D01*
X109094442Y-104170675D01*
X109242274Y-104250941D01*
X109243230Y-104251192D01*
X109243233Y-104251193D01*
X109367007Y-104283665D01*
X109374487Y-104287958D01*
X110625872Y-105539343D01*
X110628159Y-105542205D01*
X110635122Y-105553241D01*
X110635127Y-105553247D01*
X110635753Y-105554239D01*
X110636635Y-105555018D01*
X110636636Y-105555019D01*
X110678293Y-105591809D01*
X110679038Y-105592509D01*
X110692780Y-105606251D01*
X110693249Y-105606602D01*
X110693253Y-105606606D01*
X110704570Y-105615087D01*
X110705596Y-105615922D01*
X110744070Y-105649901D01*
X110745132Y-105650399D01*
X110745134Y-105650401D01*
X110761156Y-105657923D01*
X110764036Y-105659653D01*
X110779136Y-105670970D01*
X110827197Y-105688988D01*
X110828408Y-105689498D01*
X110874882Y-105711317D01*
X110876041Y-105711497D01*
X110876043Y-105711498D01*
X110886341Y-105713101D01*
X110893532Y-105714220D01*
X110896782Y-105715073D01*
X110914452Y-105721698D01*
X110926235Y-105722573D01*
X110965646Y-105725502D01*
X110966945Y-105725651D01*
X110984597Y-105728400D01*
X111004026Y-105728400D01*
X111005249Y-105728445D01*
X111057393Y-105732320D01*
X111057395Y-105732320D01*
X111058567Y-105732407D01*
X111059719Y-105732161D01*
X111059721Y-105732161D01*
X111075633Y-105728764D01*
X111079078Y-105728400D01*
X130717710Y-105728400D01*
X130721351Y-105728807D01*
X130735224Y-105731946D01*
X130791867Y-105728432D01*
X130792889Y-105728400D01*
X130812326Y-105728400D01*
X130826910Y-105726311D01*
X130828228Y-105726176D01*
X130878282Y-105723071D01*
X130879459Y-105722998D01*
X130880566Y-105722598D01*
X130880568Y-105722598D01*
X130897214Y-105716589D01*
X130900476Y-105715776D01*
X130911339Y-105714220D01*
X130919152Y-105713101D01*
X130920224Y-105712614D01*
X130920226Y-105712613D01*
X130965864Y-105691863D01*
X130967090Y-105691363D01*
X130995644Y-105681054D01*
X131015384Y-105673928D01*
X131030624Y-105662794D01*
X131033525Y-105661099D01*
X131040511Y-105657923D01*
X131049635Y-105653775D01*
X131049638Y-105653773D01*
X131050705Y-105653288D01*
X131051594Y-105652522D01*
X131089588Y-105619784D01*
X131090626Y-105618961D01*
X131104523Y-105608808D01*
X131104526Y-105608805D01*
X131105044Y-105608427D01*
X131118789Y-105594681D01*
X131119687Y-105593848D01*
X131122053Y-105591809D01*
X131160182Y-105558956D01*
X131163240Y-105554239D01*
X131169675Y-105544310D01*
X131171854Y-105541617D01*
X132215443Y-104498027D01*
X132218305Y-104495740D01*
X132229341Y-104488777D01*
X132229342Y-104488776D01*
X132230339Y-104488147D01*
X132267916Y-104445599D01*
X132268616Y-104444854D01*
X132282351Y-104431119D01*
X132282702Y-104430650D01*
X132282706Y-104430646D01*
X132291184Y-104419333D01*
X132292020Y-104418306D01*
X132325222Y-104380712D01*
X132326001Y-104379830D01*
X132334021Y-104362748D01*
X132335754Y-104359864D01*
X132346365Y-104345706D01*
X132347071Y-104344764D01*
X132365091Y-104296696D01*
X132365603Y-104295480D01*
X132371150Y-104283665D01*
X132387417Y-104249018D01*
X132390320Y-104230368D01*
X132391174Y-104227116D01*
X132397385Y-104210550D01*
X132397385Y-104210549D01*
X132397798Y-104209448D01*
X132401602Y-104158262D01*
X132401753Y-104156947D01*
X132404403Y-104139930D01*
X132404404Y-104139922D01*
X132404500Y-104139303D01*
X132404500Y-104119882D01*
X132404545Y-104118659D01*
X132408421Y-104066507D01*
X132408421Y-104066505D01*
X132408508Y-104065333D01*
X132404864Y-104048262D01*
X132404500Y-104044817D01*
X132404500Y-100822890D01*
X132407910Y-100812846D01*
X132417671Y-100800126D01*
X132417676Y-100800118D01*
X132418334Y-100799260D01*
X132433768Y-100762000D01*
X132477713Y-100655905D01*
X132478126Y-100654908D01*
X132478711Y-100650470D01*
X132498379Y-100501071D01*
X132498520Y-100500000D01*
X132496052Y-100481250D01*
X132478267Y-100346160D01*
X132478266Y-100346157D01*
X132478126Y-100345092D01*
X132427645Y-100223218D01*
X132418750Y-100201744D01*
X132418750Y-100201743D01*
X132418334Y-100200740D01*
X132417199Y-100199260D01*
X132323874Y-100077637D01*
X132323218Y-100076782D01*
X132306991Y-100064331D01*
X132200122Y-99982327D01*
X132200120Y-99982326D01*
X132199260Y-99981666D01*
X132132082Y-99953840D01*
X132055905Y-99922287D01*
X132054908Y-99921874D01*
X132053843Y-99921734D01*
X132053840Y-99921733D01*
X131901071Y-99901621D01*
X131900000Y-99901480D01*
X131898929Y-99901621D01*
X131746160Y-99921733D01*
X131746157Y-99921734D01*
X131745092Y-99921874D01*
X131744095Y-99922287D01*
X131667919Y-99953840D01*
X131600740Y-99981666D01*
X131599880Y-99982326D01*
X131599878Y-99982327D01*
X131493009Y-100064331D01*
X131476782Y-100076782D01*
X131476126Y-100077637D01*
X131382802Y-100199260D01*
X131381666Y-100200740D01*
X131381250Y-100201743D01*
X131381250Y-100201744D01*
X131372355Y-100223218D01*
X131321874Y-100345092D01*
X131321734Y-100346157D01*
X131321733Y-100346160D01*
X131303948Y-100481250D01*
X131301480Y-100500000D01*
X131301621Y-100501071D01*
X131321290Y-100650470D01*
X131321874Y-100654908D01*
X131322287Y-100655905D01*
X131366233Y-100762000D01*
X131381666Y-100799260D01*
X131382324Y-100800118D01*
X131382329Y-100800126D01*
X131392090Y-100812846D01*
X131395500Y-100822890D01*
X131395500Y-103884195D01*
X131390667Y-103895862D01*
X130571962Y-104714567D01*
X130560295Y-104719400D01*
X129946478Y-104719400D01*
X129934811Y-104714567D01*
X129929978Y-104702900D01*
X129934811Y-104691233D01*
X129936433Y-104689810D01*
X129981919Y-104654908D01*
X130023218Y-104623218D01*
X130041127Y-104599878D01*
X130117673Y-104500122D01*
X130117674Y-104500120D01*
X130118334Y-104499260D01*
X130127291Y-104477637D01*
X130177713Y-104355905D01*
X130178126Y-104354908D01*
X130179338Y-104345706D01*
X130198379Y-104201071D01*
X130198520Y-104200000D01*
X130190467Y-104138830D01*
X130178267Y-104046160D01*
X130178266Y-104046157D01*
X130178126Y-104045092D01*
X130125622Y-103918334D01*
X130118750Y-103901744D01*
X130118750Y-103901743D01*
X130118334Y-103900740D01*
X130058850Y-103823218D01*
X130023874Y-103777637D01*
X130023218Y-103776782D01*
X129945301Y-103716994D01*
X129900122Y-103682327D01*
X129900120Y-103682326D01*
X129899260Y-103681666D01*
X129885654Y-103676030D01*
X129755905Y-103622287D01*
X129754908Y-103621874D01*
X129753843Y-103621734D01*
X129753840Y-103621733D01*
X129601071Y-103601621D01*
X129600000Y-103601480D01*
X129598929Y-103601621D01*
X129446160Y-103621733D01*
X129446157Y-103621734D01*
X129445092Y-103621874D01*
X129444095Y-103622287D01*
X129314347Y-103676030D01*
X129300740Y-103681666D01*
X129299880Y-103682326D01*
X129299878Y-103682327D01*
X129254699Y-103716994D01*
X129176782Y-103776782D01*
X129176126Y-103777637D01*
X129141151Y-103823218D01*
X129081666Y-103900740D01*
X129081250Y-103901743D01*
X129081250Y-103901744D01*
X129074378Y-103918334D01*
X129021874Y-104045092D01*
X129021734Y-104046157D01*
X129021733Y-104046160D01*
X129009533Y-104138830D01*
X129001480Y-104200000D01*
X129001621Y-104201071D01*
X129020663Y-104345706D01*
X129021874Y-104354908D01*
X129022287Y-104355905D01*
X129072710Y-104477637D01*
X129081666Y-104499260D01*
X129082326Y-104500120D01*
X129082327Y-104500122D01*
X129158873Y-104599878D01*
X129176782Y-104623218D01*
X129218082Y-104654908D01*
X129263567Y-104689810D01*
X129269881Y-104700746D01*
X129266612Y-104712945D01*
X129255676Y-104719259D01*
X129253522Y-104719400D01*
X123176107Y-104719400D01*
X123164440Y-104714567D01*
X123159607Y-104702900D01*
X123160863Y-104696586D01*
X123177713Y-104655905D01*
X123178126Y-104654908D01*
X123181632Y-104628283D01*
X123198379Y-104501071D01*
X123198520Y-104500000D01*
X123189452Y-104431119D01*
X123178267Y-104346160D01*
X123178266Y-104346157D01*
X123178126Y-104345092D01*
X123160120Y-104301621D01*
X123118750Y-104201744D01*
X123118750Y-104201743D01*
X123118334Y-104200740D01*
X123116945Y-104198929D01*
X123023874Y-104077637D01*
X123023218Y-104076782D01*
X122996965Y-104056637D01*
X122983955Y-104046654D01*
X122977641Y-104035718D01*
X122977500Y-104033564D01*
X122977500Y-103842055D01*
X122977870Y-103838582D01*
X122982295Y-103818029D01*
X122977614Y-103778478D01*
X122977500Y-103776539D01*
X122977500Y-103768638D01*
X122973928Y-103747173D01*
X122973819Y-103746413D01*
X122967524Y-103693225D01*
X122964597Y-103687129D01*
X122963195Y-103682695D01*
X122963024Y-103681666D01*
X122962086Y-103676030D01*
X122959748Y-103671696D01*
X122936658Y-103628905D01*
X122936305Y-103628212D01*
X122913574Y-103580873D01*
X122913574Y-103580872D01*
X122913123Y-103579934D01*
X122909550Y-103575685D01*
X122907766Y-103573901D01*
X122904912Y-103570069D01*
X122903057Y-103566630D01*
X122903055Y-103566628D01*
X122902408Y-103565428D01*
X122861449Y-103527566D01*
X122860982Y-103527117D01*
X122733865Y-103400000D01*
X127601480Y-103400000D01*
X127601621Y-103401071D01*
X127619077Y-103533661D01*
X127621874Y-103554908D01*
X127681666Y-103699260D01*
X127682326Y-103700120D01*
X127682327Y-103700122D01*
X127742452Y-103778478D01*
X127776782Y-103823218D01*
X127777637Y-103823874D01*
X127899878Y-103917673D01*
X127899880Y-103917674D01*
X127900740Y-103918334D01*
X128045092Y-103978126D01*
X128046157Y-103978266D01*
X128046160Y-103978267D01*
X128198929Y-103998379D01*
X128200000Y-103998520D01*
X128201071Y-103998379D01*
X128353840Y-103978267D01*
X128353843Y-103978266D01*
X128354908Y-103978126D01*
X128499260Y-103918334D01*
X128500120Y-103917674D01*
X128500122Y-103917673D01*
X128622363Y-103823874D01*
X128623218Y-103823218D01*
X128657548Y-103778478D01*
X128717673Y-103700122D01*
X128717674Y-103700120D01*
X128718334Y-103699260D01*
X128778126Y-103554908D01*
X128780924Y-103533661D01*
X128798379Y-103401071D01*
X128798520Y-103400000D01*
X128788607Y-103324701D01*
X128778267Y-103246160D01*
X128778266Y-103246157D01*
X128778126Y-103245092D01*
X128754478Y-103187999D01*
X128718750Y-103101744D01*
X128718750Y-103101743D01*
X128718334Y-103100740D01*
X128660301Y-103025109D01*
X128623874Y-102977637D01*
X128623218Y-102976782D01*
X128583618Y-102946396D01*
X128500122Y-102882327D01*
X128500120Y-102882326D01*
X128499260Y-102881666D01*
X128354908Y-102821874D01*
X128353843Y-102821734D01*
X128353840Y-102821733D01*
X128201071Y-102801621D01*
X128200000Y-102801480D01*
X128198929Y-102801621D01*
X128046160Y-102821733D01*
X128046157Y-102821734D01*
X128045092Y-102821874D01*
X127900740Y-102881666D01*
X127899880Y-102882326D01*
X127899878Y-102882327D01*
X127816382Y-102946396D01*
X127776782Y-102976782D01*
X127776126Y-102977637D01*
X127739700Y-103025109D01*
X127681666Y-103100740D01*
X127681250Y-103101743D01*
X127681250Y-103101744D01*
X127645522Y-103187999D01*
X127621874Y-103245092D01*
X127621734Y-103246157D01*
X127621733Y-103246160D01*
X127611393Y-103324701D01*
X127601480Y-103400000D01*
X122733865Y-103400000D01*
X120333865Y-101000000D01*
X129701480Y-101000000D01*
X129721874Y-101154908D01*
X129722287Y-101155905D01*
X129750433Y-101223855D01*
X129781666Y-101299260D01*
X129876782Y-101423218D01*
X129877637Y-101423874D01*
X129999878Y-101517673D01*
X129999880Y-101517674D01*
X130000740Y-101518334D01*
X130001743Y-101518750D01*
X130001744Y-101518750D01*
X130101107Y-101559907D01*
X130145092Y-101578126D01*
X130146157Y-101578266D01*
X130146160Y-101578267D01*
X130298929Y-101598379D01*
X130300000Y-101598520D01*
X130301071Y-101598379D01*
X130453840Y-101578267D01*
X130453843Y-101578266D01*
X130454908Y-101578126D01*
X130498893Y-101559907D01*
X130598256Y-101518750D01*
X130598257Y-101518750D01*
X130599260Y-101518334D01*
X130600120Y-101517674D01*
X130600122Y-101517673D01*
X130722363Y-101423874D01*
X130723218Y-101423218D01*
X130818334Y-101299260D01*
X130849568Y-101223855D01*
X130877713Y-101155905D01*
X130878126Y-101154908D01*
X130898520Y-101000000D01*
X130898361Y-100998794D01*
X130878267Y-100846160D01*
X130878266Y-100846157D01*
X130878126Y-100845092D01*
X130859098Y-100799153D01*
X130818750Y-100701744D01*
X130818750Y-100701743D01*
X130818334Y-100700740D01*
X130816461Y-100698298D01*
X130723874Y-100577637D01*
X130723218Y-100576782D01*
X130694616Y-100554835D01*
X130600122Y-100482327D01*
X130600120Y-100482326D01*
X130599260Y-100481666D01*
X130454908Y-100421874D01*
X130453843Y-100421734D01*
X130453840Y-100421733D01*
X130301071Y-100401621D01*
X130300000Y-100401480D01*
X130298929Y-100401621D01*
X130146160Y-100421733D01*
X130146157Y-100421734D01*
X130145092Y-100421874D01*
X130000740Y-100481666D01*
X129999880Y-100482326D01*
X129999878Y-100482327D01*
X129905384Y-100554835D01*
X129876782Y-100576782D01*
X129876126Y-100577637D01*
X129783540Y-100698298D01*
X129781666Y-100700740D01*
X129781250Y-100701743D01*
X129781250Y-100701744D01*
X129740902Y-100799153D01*
X129721874Y-100845092D01*
X129721734Y-100846157D01*
X129721733Y-100846160D01*
X129701639Y-100998794D01*
X129701480Y-101000000D01*
X120333865Y-101000000D01*
X119514941Y-100181076D01*
X119510108Y-100169409D01*
X119514941Y-100157742D01*
X121769443Y-97903240D01*
X121772305Y-97900953D01*
X121783341Y-97893990D01*
X121783347Y-97893985D01*
X121784339Y-97893359D01*
X121821909Y-97850819D01*
X121822609Y-97850074D01*
X121836351Y-97836332D01*
X121845193Y-97824535D01*
X121846029Y-97823509D01*
X121879221Y-97785925D01*
X121880001Y-97785042D01*
X121888021Y-97767961D01*
X121889753Y-97765079D01*
X121900365Y-97750919D01*
X121900367Y-97750915D01*
X121901071Y-97749976D01*
X121919091Y-97701908D01*
X121919603Y-97700692D01*
X121927461Y-97683955D01*
X121941417Y-97654230D01*
X121944320Y-97635580D01*
X121945174Y-97632328D01*
X121951385Y-97615762D01*
X121951385Y-97615761D01*
X121951798Y-97614660D01*
X121955602Y-97563474D01*
X121955753Y-97562159D01*
X121958403Y-97545142D01*
X121958404Y-97545134D01*
X121958500Y-97544515D01*
X121958500Y-97525094D01*
X121958545Y-97523871D01*
X121962421Y-97471719D01*
X121962421Y-97471717D01*
X121962508Y-97470545D01*
X121958864Y-97453474D01*
X121958500Y-97450029D01*
X121958500Y-97448000D01*
X121963333Y-97436333D01*
X121975000Y-97431500D01*
X123703945Y-97431500D01*
X123707417Y-97431870D01*
X123727971Y-97436295D01*
X123729324Y-97436135D01*
X123729327Y-97436135D01*
X123767522Y-97431614D01*
X123769461Y-97431500D01*
X123777362Y-97431500D01*
X123778034Y-97431388D01*
X123778036Y-97431388D01*
X123786755Y-97429937D01*
X123798827Y-97427928D01*
X123799576Y-97427821D01*
X123852775Y-97421524D01*
X123854003Y-97420934D01*
X123854007Y-97420933D01*
X123858868Y-97418598D01*
X123863303Y-97417195D01*
X123869970Y-97416086D01*
X123917105Y-97390653D01*
X123917798Y-97390300D01*
X123965131Y-97367571D01*
X123966066Y-97367122D01*
X123970315Y-97363550D01*
X123972099Y-97361766D01*
X123975931Y-97358912D01*
X123979370Y-97357057D01*
X123979372Y-97357055D01*
X123980572Y-97356408D01*
X124018434Y-97315449D01*
X124018883Y-97314982D01*
X125558865Y-95775000D01*
X128176480Y-95775000D01*
X128176621Y-95776071D01*
X128196475Y-95926874D01*
X128196874Y-95929908D01*
X128256666Y-96074260D01*
X128257326Y-96075120D01*
X128257327Y-96075122D01*
X128282464Y-96107881D01*
X128351782Y-96198218D01*
X128352637Y-96198874D01*
X128474878Y-96292673D01*
X128474880Y-96292674D01*
X128475740Y-96293334D01*
X128620092Y-96353126D01*
X128621157Y-96353266D01*
X128621160Y-96353267D01*
X128773929Y-96373379D01*
X128775000Y-96373520D01*
X128824066Y-96367060D01*
X128836264Y-96370329D01*
X128837887Y-96371752D01*
X130003325Y-97537190D01*
X130005520Y-97539907D01*
X130016928Y-97557575D01*
X130018000Y-97558420D01*
X130048209Y-97582235D01*
X130049661Y-97583526D01*
X130055244Y-97589109D01*
X130055793Y-97589502D01*
X130055795Y-97589503D01*
X130072940Y-97601756D01*
X130073561Y-97602222D01*
X130090737Y-97615762D01*
X130115623Y-97635380D01*
X130116904Y-97635830D01*
X130116906Y-97635831D01*
X130121999Y-97637619D01*
X130126125Y-97639762D01*
X130131627Y-97643694D01*
X130166859Y-97654230D01*
X130182930Y-97659036D01*
X130183667Y-97659275D01*
X130234199Y-97677021D01*
X130235236Y-97677111D01*
X130235237Y-97677111D01*
X130236217Y-97677196D01*
X130239730Y-97677500D01*
X130242256Y-97677500D01*
X130246984Y-97678192D01*
X130250725Y-97679311D01*
X130250726Y-97679311D01*
X130252033Y-97679702D01*
X130307746Y-97677513D01*
X130308394Y-97677500D01*
X131333564Y-97677500D01*
X131345231Y-97682333D01*
X131346654Y-97683955D01*
X131376782Y-97723218D01*
X131377637Y-97723874D01*
X131499878Y-97817673D01*
X131499880Y-97817674D01*
X131500740Y-97818334D01*
X131501743Y-97818750D01*
X131501744Y-97818750D01*
X131543052Y-97835860D01*
X131645092Y-97878126D01*
X131646157Y-97878266D01*
X131646160Y-97878267D01*
X131798929Y-97898379D01*
X131800000Y-97898520D01*
X131801071Y-97898379D01*
X131953840Y-97878267D01*
X131953843Y-97878266D01*
X131954908Y-97878126D01*
X132056948Y-97835860D01*
X132098256Y-97818750D01*
X132098257Y-97818750D01*
X132099260Y-97818334D01*
X132100120Y-97817674D01*
X132100122Y-97817673D01*
X132222363Y-97723874D01*
X132223218Y-97723218D01*
X132240503Y-97700692D01*
X132317673Y-97600122D01*
X132317674Y-97600120D01*
X132318334Y-97599260D01*
X132322376Y-97589503D01*
X132377713Y-97455905D01*
X132378126Y-97454908D01*
X132378540Y-97451769D01*
X132398379Y-97301071D01*
X132398520Y-97300000D01*
X132392003Y-97250500D01*
X132378267Y-97146160D01*
X132378266Y-97146157D01*
X132378126Y-97145092D01*
X132318334Y-97000740D01*
X132283561Y-96955422D01*
X132223874Y-96877637D01*
X132223218Y-96876782D01*
X132128257Y-96803916D01*
X132100122Y-96782327D01*
X132100120Y-96782326D01*
X132099260Y-96781666D01*
X131954908Y-96721874D01*
X131953843Y-96721734D01*
X131953840Y-96721733D01*
X131801071Y-96701621D01*
X131800000Y-96701480D01*
X131798929Y-96701621D01*
X131646160Y-96721733D01*
X131646157Y-96721734D01*
X131645092Y-96721874D01*
X131500740Y-96781666D01*
X131499880Y-96782326D01*
X131499878Y-96782327D01*
X131471743Y-96803916D01*
X131376782Y-96876782D01*
X131376126Y-96877637D01*
X131346654Y-96916045D01*
X131335718Y-96922359D01*
X131333564Y-96922500D01*
X130463199Y-96922500D01*
X130451532Y-96917667D01*
X129371752Y-95837887D01*
X129366919Y-95826220D01*
X129367060Y-95824066D01*
X129373379Y-95776071D01*
X129373520Y-95775000D01*
X129369710Y-95746061D01*
X129353267Y-95621160D01*
X129353266Y-95621157D01*
X129353126Y-95620092D01*
X129313023Y-95523273D01*
X129293750Y-95476744D01*
X129293750Y-95476743D01*
X129293334Y-95475740D01*
X129273200Y-95449500D01*
X129198874Y-95352637D01*
X129198218Y-95351782D01*
X129129770Y-95299260D01*
X129075122Y-95257327D01*
X129075120Y-95257326D01*
X129074260Y-95256666D01*
X128929908Y-95196874D01*
X128928843Y-95196734D01*
X128928840Y-95196733D01*
X128776071Y-95176621D01*
X128775000Y-95176480D01*
X128773929Y-95176621D01*
X128621160Y-95196733D01*
X128621157Y-95196734D01*
X128620092Y-95196874D01*
X128475740Y-95256666D01*
X128474880Y-95257326D01*
X128474878Y-95257327D01*
X128420230Y-95299260D01*
X128351782Y-95351782D01*
X128351126Y-95352637D01*
X128276801Y-95449500D01*
X128256666Y-95475740D01*
X128256250Y-95476743D01*
X128256250Y-95476744D01*
X128236977Y-95523273D01*
X128196874Y-95620092D01*
X128196734Y-95621157D01*
X128196733Y-95621160D01*
X128180290Y-95746061D01*
X128176480Y-95775000D01*
X125558865Y-95775000D01*
X125737113Y-95596752D01*
X125748780Y-95591919D01*
X125750933Y-95592060D01*
X125800000Y-95598520D01*
X125801071Y-95598379D01*
X125953840Y-95578267D01*
X125953843Y-95578266D01*
X125954908Y-95578126D01*
X125984072Y-95566046D01*
X126098256Y-95518750D01*
X126098257Y-95518750D01*
X126099260Y-95518334D01*
X126100120Y-95517674D01*
X126100122Y-95517673D01*
X126222363Y-95423874D01*
X126223218Y-95423218D01*
X126318334Y-95299260D01*
X126327291Y-95277637D01*
X126377713Y-95155905D01*
X126378126Y-95154908D01*
X126385010Y-95102624D01*
X126398379Y-95001071D01*
X126398520Y-95000000D01*
X126378126Y-94845092D01*
X126318334Y-94700740D01*
X126223218Y-94576782D01*
X126183955Y-94546654D01*
X126177641Y-94535718D01*
X126177500Y-94533564D01*
X126177500Y-94413199D01*
X126182333Y-94401532D01*
X126901532Y-93682333D01*
X126913199Y-93677500D01*
X128433564Y-93677500D01*
X128445231Y-93682333D01*
X128446654Y-93683955D01*
X128476782Y-93723218D01*
X128477637Y-93723874D01*
X128599878Y-93817673D01*
X128599880Y-93817674D01*
X128600740Y-93818334D01*
X128745092Y-93878126D01*
X128746157Y-93878266D01*
X128746160Y-93878267D01*
X128898929Y-93898379D01*
X128900000Y-93898520D01*
X128901071Y-93898379D01*
X129053840Y-93878267D01*
X129053843Y-93878266D01*
X129054908Y-93878126D01*
X129199260Y-93818334D01*
X129200120Y-93817674D01*
X129200122Y-93817673D01*
X129322363Y-93723874D01*
X129323218Y-93723218D01*
X129335669Y-93706991D01*
X129417673Y-93600122D01*
X129417674Y-93600120D01*
X129418334Y-93599260D01*
X129478126Y-93454908D01*
X129486470Y-93391533D01*
X129498379Y-93301071D01*
X129498520Y-93300000D01*
X129488773Y-93225962D01*
X129478267Y-93146160D01*
X129478266Y-93146157D01*
X129478126Y-93145092D01*
X129418334Y-93000740D01*
X129415919Y-92997592D01*
X129323874Y-92877637D01*
X129323218Y-92876782D01*
X129306991Y-92864331D01*
X129200122Y-92782327D01*
X129200120Y-92782326D01*
X129199260Y-92781666D01*
X129054908Y-92721874D01*
X129053843Y-92721734D01*
X129053840Y-92721733D01*
X128901071Y-92701621D01*
X128900000Y-92701480D01*
X128898929Y-92701621D01*
X128746160Y-92721733D01*
X128746157Y-92721734D01*
X128745092Y-92721874D01*
X128600740Y-92781666D01*
X128599880Y-92782326D01*
X128599878Y-92782327D01*
X128493009Y-92864331D01*
X128476782Y-92876782D01*
X128476126Y-92877637D01*
X128446654Y-92916045D01*
X128435718Y-92922359D01*
X128433564Y-92922500D01*
X126792055Y-92922500D01*
X126788582Y-92922130D01*
X126768029Y-92917705D01*
X126766676Y-92917865D01*
X126766673Y-92917865D01*
X126728478Y-92922386D01*
X126726539Y-92922500D01*
X126718638Y-92922500D01*
X126717966Y-92922612D01*
X126717964Y-92922612D01*
X126709245Y-92924063D01*
X126697173Y-92926072D01*
X126696424Y-92926179D01*
X126643225Y-92932476D01*
X126637130Y-92935403D01*
X126632696Y-92936805D01*
X126626030Y-92937914D01*
X126624828Y-92938563D01*
X126624827Y-92938563D01*
X126578905Y-92963342D01*
X126578211Y-92963695D01*
X126529934Y-92986877D01*
X126525685Y-92990450D01*
X126523901Y-92992234D01*
X126520069Y-92995088D01*
X126516630Y-92996943D01*
X126516628Y-92996945D01*
X126515428Y-92997592D01*
X126514500Y-92998596D01*
X126477567Y-93038550D01*
X126477118Y-93039017D01*
X125562808Y-93953326D01*
X125560091Y-93955520D01*
X125543575Y-93966184D01*
X125543570Y-93966189D01*
X125542425Y-93966928D01*
X125541580Y-93968000D01*
X125517769Y-93998204D01*
X125516478Y-93999656D01*
X125510891Y-94005243D01*
X125510494Y-94005798D01*
X125510491Y-94005802D01*
X125498238Y-94022948D01*
X125497772Y-94023569D01*
X125468611Y-94060561D01*
X125464620Y-94065623D01*
X125464170Y-94066904D01*
X125464169Y-94066906D01*
X125462380Y-94072002D01*
X125460236Y-94076128D01*
X125457101Y-94080515D01*
X125456307Y-94081627D01*
X125455917Y-94082932D01*
X125440966Y-94132925D01*
X125440726Y-94133664D01*
X125422979Y-94184199D01*
X125422500Y-94189730D01*
X125422500Y-94192256D01*
X125421808Y-94196984D01*
X125420298Y-94202033D01*
X125422054Y-94246717D01*
X125422487Y-94257746D01*
X125422500Y-94258394D01*
X125422500Y-94533564D01*
X125417667Y-94545231D01*
X125416045Y-94546654D01*
X125376782Y-94576782D01*
X125281666Y-94700740D01*
X125221874Y-94845092D01*
X125201480Y-95000000D01*
X125201621Y-95001071D01*
X125207940Y-95049065D01*
X125204671Y-95061263D01*
X125203248Y-95062886D01*
X125173391Y-95092743D01*
X125173389Y-95092746D01*
X123594467Y-96671667D01*
X123582800Y-96676500D01*
X121977575Y-96676500D01*
X121965908Y-96671667D01*
X121961107Y-96661022D01*
X121958748Y-96622983D01*
X121958532Y-96619509D01*
X121958500Y-96618487D01*
X121958500Y-96599050D01*
X121956411Y-96584465D01*
X121956276Y-96583148D01*
X121953171Y-96533094D01*
X121953098Y-96531917D01*
X121946689Y-96514162D01*
X121945876Y-96510900D01*
X121943368Y-96493391D01*
X121943201Y-96492224D01*
X121921961Y-96445508D01*
X121921461Y-96444282D01*
X121904425Y-96397094D01*
X121904027Y-96395991D01*
X121892892Y-96380750D01*
X121891199Y-96377851D01*
X121883876Y-96361744D01*
X121883876Y-96361743D01*
X121883388Y-96360671D01*
X121870789Y-96346050D01*
X121849882Y-96321784D01*
X121849059Y-96320748D01*
X121838900Y-96306844D01*
X121838526Y-96306332D01*
X121824801Y-96292607D01*
X121823968Y-96291711D01*
X121789821Y-96252082D01*
X121789056Y-96251194D01*
X121774407Y-96241699D01*
X121771714Y-96239520D01*
X121197376Y-95665181D01*
X121192684Y-95655668D01*
X121178267Y-95546160D01*
X121178266Y-95546157D01*
X121178126Y-95545092D01*
X121138531Y-95449500D01*
X121118750Y-95401744D01*
X121118750Y-95401743D01*
X121118334Y-95400740D01*
X121100057Y-95376920D01*
X121023874Y-95277637D01*
X121023218Y-95276782D01*
X120918896Y-95196733D01*
X120900122Y-95182327D01*
X120900120Y-95182326D01*
X120899260Y-95181666D01*
X120832082Y-95153840D01*
X120755905Y-95122287D01*
X120754908Y-95121874D01*
X120753843Y-95121734D01*
X120753840Y-95121733D01*
X120644332Y-95107316D01*
X120634819Y-95102624D01*
X119922209Y-94390014D01*
X119917517Y-94380501D01*
X119915423Y-94364592D01*
X119915422Y-94364589D01*
X119915282Y-94363524D01*
X119867861Y-94249038D01*
X119855906Y-94220176D01*
X119855906Y-94220175D01*
X119855490Y-94219172D01*
X119843387Y-94203398D01*
X119761030Y-94096069D01*
X119760374Y-94095214D01*
X119733011Y-94074218D01*
X119637278Y-94000759D01*
X119637276Y-94000758D01*
X119636416Y-94000098D01*
X119631844Y-93998204D01*
X119505929Y-93946049D01*
X119492064Y-93940306D01*
X119490999Y-93940166D01*
X119490996Y-93940165D01*
X119338227Y-93920053D01*
X119337156Y-93919912D01*
X119336085Y-93920053D01*
X119183316Y-93940165D01*
X119183313Y-93940166D01*
X119182248Y-93940306D01*
X119168383Y-93946049D01*
X119042469Y-93998204D01*
X119037896Y-94000098D01*
X119037036Y-94000758D01*
X119037034Y-94000759D01*
X118941301Y-94074218D01*
X118913938Y-94095214D01*
X118913282Y-94096069D01*
X118830926Y-94203398D01*
X118818822Y-94219172D01*
X118818406Y-94220175D01*
X118818406Y-94220176D01*
X118806451Y-94249038D01*
X118759030Y-94363524D01*
X118758890Y-94364589D01*
X118758889Y-94364592D01*
X118740442Y-94504716D01*
X118734128Y-94515652D01*
X118721929Y-94518921D01*
X118712539Y-94514351D01*
X117163508Y-92997592D01*
X116404956Y-92254843D01*
X116400000Y-92243054D01*
X116400000Y-91667000D01*
X116404833Y-91655333D01*
X116416500Y-91650500D01*
X132783000Y-91650500D01*
X132794667Y-91655333D01*
X132799500Y-91667000D01*
X132799500Y-95373701D01*
X132799183Y-95376919D01*
X132794592Y-95400000D01*
X132794909Y-95401594D01*
X132797744Y-95415847D01*
X132797957Y-95417218D01*
X132801277Y-95446683D01*
X132809907Y-95523273D01*
X132810214Y-95524149D01*
X132810214Y-95524151D01*
X132850574Y-95639494D01*
X132850576Y-95639498D01*
X132850879Y-95640364D01*
X132851369Y-95641144D01*
X132851370Y-95641146D01*
X132899111Y-95717125D01*
X132916879Y-95745403D01*
X133004597Y-95833121D01*
X133005385Y-95833616D01*
X133108854Y-95898630D01*
X133108856Y-95898631D01*
X133109636Y-95899121D01*
X133188950Y-95926874D01*
X133198366Y-95935289D01*
X133200000Y-95942448D01*
X133200000Y-101557552D01*
X133195167Y-101569219D01*
X133188951Y-101573125D01*
X133109636Y-101600879D01*
X133108856Y-101601369D01*
X133108854Y-101601370D01*
X133073996Y-101623273D01*
X133004597Y-101666879D01*
X132916879Y-101754597D01*
X132916384Y-101755385D01*
X132856652Y-101850449D01*
X132850879Y-101859636D01*
X132850576Y-101860502D01*
X132850574Y-101860506D01*
X132825165Y-101933121D01*
X132809907Y-101976727D01*
X132803486Y-102033713D01*
X132797957Y-102082782D01*
X132797744Y-102084153D01*
X132794592Y-102100000D01*
X132794909Y-102101594D01*
X132799183Y-102123080D01*
X132799500Y-102126299D01*
X132799500Y-105833000D01*
X132794667Y-105844667D01*
X132783000Y-105849500D01*
X98817000Y-105849500D01*
X98805333Y-105844667D01*
X98800500Y-105833000D01*
X98800500Y-104627320D01*
X99612796Y-104627320D01*
X99635795Y-104761170D01*
X99636185Y-104762622D01*
X99711994Y-104968115D01*
X99712646Y-104969480D01*
X99824628Y-105157706D01*
X99825525Y-105158940D01*
X99969933Y-105323605D01*
X99971032Y-105324648D01*
X100143041Y-105460249D01*
X100144302Y-105461068D01*
X100338146Y-105563054D01*
X100339532Y-105563628D01*
X100548720Y-105628583D01*
X100550182Y-105628894D01*
X100728021Y-105649943D01*
X100728998Y-105650000D01*
X101421717Y-105650000D01*
X101424038Y-105649038D01*
X101425000Y-105646717D01*
X101775000Y-105646717D01*
X101775962Y-105649038D01*
X101778283Y-105650000D01*
X102455569Y-105650000D01*
X102456327Y-105649965D01*
X102618871Y-105635030D01*
X102620343Y-105634757D01*
X102831165Y-105575299D01*
X102832558Y-105574764D01*
X103029007Y-105477886D01*
X103030288Y-105477101D01*
X103205788Y-105346049D01*
X103206914Y-105345034D01*
X103355588Y-105184200D01*
X103356505Y-105183006D01*
X103473387Y-104997759D01*
X103474069Y-104996419D01*
X103512536Y-104900000D01*
X105701480Y-104900000D01*
X105721874Y-105054908D01*
X105781666Y-105199260D01*
X105876782Y-105323218D01*
X105877637Y-105323874D01*
X105999878Y-105417673D01*
X105999880Y-105417674D01*
X106000740Y-105418334D01*
X106145092Y-105478126D01*
X106146157Y-105478266D01*
X106146160Y-105478267D01*
X106298929Y-105498379D01*
X106300000Y-105498520D01*
X106301071Y-105498379D01*
X106453840Y-105478267D01*
X106453843Y-105478266D01*
X106454908Y-105478126D01*
X106599260Y-105418334D01*
X106600120Y-105417674D01*
X106600122Y-105417673D01*
X106722363Y-105323874D01*
X106723218Y-105323218D01*
X106818334Y-105199260D01*
X106878126Y-105054908D01*
X106898520Y-104900000D01*
X106898361Y-104898794D01*
X106878267Y-104746160D01*
X106878266Y-104746157D01*
X106878126Y-104745092D01*
X106828781Y-104625962D01*
X106818750Y-104601744D01*
X106818750Y-104601743D01*
X106818334Y-104600740D01*
X106723218Y-104476782D01*
X106706991Y-104464331D01*
X106600122Y-104382327D01*
X106600120Y-104382326D01*
X106599260Y-104381666D01*
X106594828Y-104379830D01*
X106455905Y-104322287D01*
X106454908Y-104321874D01*
X106453843Y-104321734D01*
X106453840Y-104321733D01*
X106301071Y-104301621D01*
X106300000Y-104301480D01*
X106298929Y-104301621D01*
X106146160Y-104321733D01*
X106146157Y-104321734D01*
X106145092Y-104321874D01*
X106144095Y-104322287D01*
X106005173Y-104379830D01*
X106000740Y-104381666D01*
X105999880Y-104382326D01*
X105999878Y-104382327D01*
X105893009Y-104464331D01*
X105876782Y-104476782D01*
X105781666Y-104600740D01*
X105781250Y-104601743D01*
X105781250Y-104601744D01*
X105771219Y-104625962D01*
X105721874Y-104745092D01*
X105721734Y-104746157D01*
X105721733Y-104746160D01*
X105701639Y-104898794D01*
X105701480Y-104900000D01*
X103512536Y-104900000D01*
X103555230Y-104792987D01*
X103555661Y-104791533D01*
X103588147Y-104628219D01*
X103587656Y-104625755D01*
X103586527Y-104625000D01*
X101778283Y-104625000D01*
X101775962Y-104625962D01*
X101775000Y-104628283D01*
X101775000Y-105646717D01*
X101425000Y-105646717D01*
X101425000Y-104628283D01*
X101424038Y-104625962D01*
X101421717Y-104625000D01*
X99615680Y-104625000D01*
X99613359Y-104625962D01*
X99612796Y-104627320D01*
X98800500Y-104627320D01*
X98800500Y-104271781D01*
X99611853Y-104271781D01*
X99612344Y-104274245D01*
X99613473Y-104275000D01*
X101421717Y-104275000D01*
X101424038Y-104274038D01*
X101425000Y-104271717D01*
X101775000Y-104271717D01*
X101775962Y-104274038D01*
X101778283Y-104275000D01*
X103584320Y-104275000D01*
X103586641Y-104274038D01*
X103587204Y-104272680D01*
X103564205Y-104138830D01*
X103563815Y-104137378D01*
X103488006Y-103931885D01*
X103487354Y-103930520D01*
X103375372Y-103742294D01*
X103374475Y-103741060D01*
X103230067Y-103576395D01*
X103228968Y-103575352D01*
X103056959Y-103439751D01*
X103055698Y-103438932D01*
X102861854Y-103336946D01*
X102860468Y-103336372D01*
X102651280Y-103271417D01*
X102649818Y-103271106D01*
X102471979Y-103250057D01*
X102471002Y-103250000D01*
X101778283Y-103250000D01*
X101775962Y-103250962D01*
X101775000Y-103253283D01*
X101775000Y-104271717D01*
X101425000Y-104271717D01*
X101425000Y-103253283D01*
X101424038Y-103250962D01*
X101421717Y-103250000D01*
X100744431Y-103250000D01*
X100743673Y-103250035D01*
X100581129Y-103264970D01*
X100579657Y-103265243D01*
X100368835Y-103324701D01*
X100367442Y-103325236D01*
X100170993Y-103422114D01*
X100169712Y-103422899D01*
X99994212Y-103553951D01*
X99993086Y-103554966D01*
X99844412Y-103715800D01*
X99843495Y-103716994D01*
X99726613Y-103902241D01*
X99725931Y-103903581D01*
X99644770Y-104107013D01*
X99644339Y-104108467D01*
X99611853Y-104271781D01*
X98800500Y-104271781D01*
X98800500Y-101044376D01*
X100794455Y-101044376D01*
X100813227Y-101222983D01*
X100813524Y-101223855D01*
X100867499Y-101382405D01*
X100871103Y-101392993D01*
X100965206Y-101545955D01*
X100965854Y-101546617D01*
X100965855Y-101546618D01*
X100981233Y-101562321D01*
X101090859Y-101674268D01*
X101114003Y-101689183D01*
X101216728Y-101755385D01*
X101241817Y-101771554D01*
X101317558Y-101799121D01*
X101409714Y-101832664D01*
X101409718Y-101832665D01*
X101410578Y-101832978D01*
X101549283Y-101850500D01*
X101645155Y-101850500D01*
X101645606Y-101850449D01*
X101645613Y-101850449D01*
X101732242Y-101840732D01*
X101778472Y-101835546D01*
X101868449Y-101804213D01*
X101947204Y-101776788D01*
X101947207Y-101776787D01*
X101948073Y-101776485D01*
X101984154Y-101753939D01*
X102099596Y-101681803D01*
X102099597Y-101681802D01*
X102100375Y-101681316D01*
X102106968Y-101674769D01*
X102227151Y-101555422D01*
X102227153Y-101555419D01*
X102227807Y-101554770D01*
X102324037Y-101403136D01*
X102384281Y-101233951D01*
X102405545Y-101055624D01*
X102386773Y-100877017D01*
X102366440Y-100817289D01*
X102329195Y-100707881D01*
X102329193Y-100707877D01*
X102328897Y-100707007D01*
X102234794Y-100554045D01*
X102188856Y-100507134D01*
X102109788Y-100426393D01*
X102109141Y-100425732D01*
X102015018Y-100365074D01*
X101958964Y-100328949D01*
X101958962Y-100328948D01*
X101958183Y-100328446D01*
X101882442Y-100300879D01*
X101790286Y-100267336D01*
X101790282Y-100267335D01*
X101789422Y-100267022D01*
X101650717Y-100249500D01*
X101554845Y-100249500D01*
X101554394Y-100249551D01*
X101554387Y-100249551D01*
X101467758Y-100259268D01*
X101421528Y-100264454D01*
X101347789Y-100290132D01*
X101252796Y-100323212D01*
X101252793Y-100323213D01*
X101251927Y-100323515D01*
X101251150Y-100324001D01*
X101251149Y-100324001D01*
X101132120Y-100398379D01*
X101099625Y-100418684D01*
X101098973Y-100419331D01*
X101098971Y-100419333D01*
X100972849Y-100544578D01*
X100972847Y-100544581D01*
X100972193Y-100545230D01*
X100875963Y-100696864D01*
X100815719Y-100866049D01*
X100794455Y-101044376D01*
X98800500Y-101044376D01*
X98800500Y-99800000D01*
X105801480Y-99800000D01*
X105801621Y-99801071D01*
X105814859Y-99901621D01*
X105821874Y-99954908D01*
X105822287Y-99955905D01*
X105872710Y-100077637D01*
X105881666Y-100099260D01*
X105882326Y-100100120D01*
X105882327Y-100100122D01*
X105935493Y-100169409D01*
X105976782Y-100223218D01*
X105977637Y-100223874D01*
X106099878Y-100317673D01*
X106099880Y-100317674D01*
X106100740Y-100318334D01*
X106101743Y-100318750D01*
X106101744Y-100318750D01*
X106181979Y-100351984D01*
X106245092Y-100378126D01*
X106246157Y-100378266D01*
X106246160Y-100378267D01*
X106398929Y-100398379D01*
X106400000Y-100398520D01*
X106401071Y-100398379D01*
X106553840Y-100378267D01*
X106553843Y-100378266D01*
X106554908Y-100378126D01*
X106618021Y-100351984D01*
X106698256Y-100318750D01*
X106698257Y-100318750D01*
X106699260Y-100318334D01*
X106700120Y-100317674D01*
X106700122Y-100317673D01*
X106822363Y-100223874D01*
X106823218Y-100223218D01*
X106864507Y-100169409D01*
X106917673Y-100100122D01*
X106917674Y-100100120D01*
X106918334Y-100099260D01*
X106927291Y-100077637D01*
X106977713Y-99955905D01*
X106978126Y-99954908D01*
X106985142Y-99901621D01*
X106998379Y-99801071D01*
X106998520Y-99800000D01*
X106978126Y-99645092D01*
X106918334Y-99500740D01*
X106899951Y-99476782D01*
X106823874Y-99377637D01*
X106823218Y-99376782D01*
X106752298Y-99322363D01*
X106700122Y-99282327D01*
X106700120Y-99282326D01*
X106699260Y-99281666D01*
X106554908Y-99221874D01*
X106553843Y-99221734D01*
X106553840Y-99221733D01*
X106401071Y-99201621D01*
X106400000Y-99201480D01*
X106398929Y-99201621D01*
X106246160Y-99221733D01*
X106246157Y-99221734D01*
X106245092Y-99221874D01*
X106100740Y-99281666D01*
X106099880Y-99282326D01*
X106099878Y-99282327D01*
X106047702Y-99322363D01*
X105976782Y-99376782D01*
X105976126Y-99377637D01*
X105900050Y-99476782D01*
X105881666Y-99500740D01*
X105821874Y-99645092D01*
X105801480Y-99800000D01*
X98800500Y-99800000D01*
X98800500Y-97800000D01*
X105801480Y-97800000D01*
X105801621Y-97801071D01*
X105814900Y-97901933D01*
X105821874Y-97954908D01*
X105881666Y-98099260D01*
X105976782Y-98223218D01*
X105977637Y-98223874D01*
X106099878Y-98317673D01*
X106099880Y-98317674D01*
X106100740Y-98318334D01*
X106245092Y-98378126D01*
X106246157Y-98378266D01*
X106246160Y-98378267D01*
X106398929Y-98398379D01*
X106400000Y-98398520D01*
X106401071Y-98398379D01*
X106553840Y-98378267D01*
X106553843Y-98378266D01*
X106554908Y-98378126D01*
X106699260Y-98318334D01*
X106700120Y-98317674D01*
X106700122Y-98317673D01*
X106822363Y-98223874D01*
X106823218Y-98223218D01*
X106918334Y-98099260D01*
X106978126Y-97954908D01*
X106985101Y-97901933D01*
X106998379Y-97801071D01*
X106998520Y-97800000D01*
X106988498Y-97723874D01*
X106978267Y-97646160D01*
X106978266Y-97646157D01*
X106978126Y-97645092D01*
X106958726Y-97598256D01*
X106918750Y-97501744D01*
X106918750Y-97501743D01*
X106918334Y-97500740D01*
X106896066Y-97471719D01*
X106823874Y-97377637D01*
X106823218Y-97376782D01*
X106742977Y-97315211D01*
X106700122Y-97282327D01*
X106700120Y-97282326D01*
X106699260Y-97281666D01*
X106623864Y-97250436D01*
X106555905Y-97222287D01*
X106554908Y-97221874D01*
X106553843Y-97221734D01*
X106553840Y-97221733D01*
X106401071Y-97201621D01*
X106400000Y-97201480D01*
X106398929Y-97201621D01*
X106246160Y-97221733D01*
X106246157Y-97221734D01*
X106245092Y-97221874D01*
X106244095Y-97222287D01*
X106176137Y-97250436D01*
X106100740Y-97281666D01*
X106099880Y-97282326D01*
X106099878Y-97282327D01*
X106057023Y-97315211D01*
X105976782Y-97376782D01*
X105976126Y-97377637D01*
X105903935Y-97471719D01*
X105881666Y-97500740D01*
X105881250Y-97501743D01*
X105881250Y-97501744D01*
X105841274Y-97598256D01*
X105821874Y-97645092D01*
X105821734Y-97646157D01*
X105821733Y-97646160D01*
X105811502Y-97723874D01*
X105801480Y-97800000D01*
X98800500Y-97800000D01*
X98800500Y-96444376D01*
X100794455Y-96444376D01*
X100813227Y-96622983D01*
X100813524Y-96623855D01*
X100839998Y-96701621D01*
X100871103Y-96792993D01*
X100965206Y-96945955D01*
X101090859Y-97074268D01*
X101241817Y-97171554D01*
X101317558Y-97199121D01*
X101409714Y-97232664D01*
X101409718Y-97232665D01*
X101410578Y-97232978D01*
X101549283Y-97250500D01*
X101645155Y-97250500D01*
X101645606Y-97250449D01*
X101645613Y-97250449D01*
X101732242Y-97240732D01*
X101778472Y-97235546D01*
X101876297Y-97201480D01*
X101947204Y-97176788D01*
X101947207Y-97176787D01*
X101948073Y-97176485D01*
X101996603Y-97146160D01*
X102099596Y-97081803D01*
X102099597Y-97081802D01*
X102100375Y-97081316D01*
X102106968Y-97074769D01*
X102227151Y-96955422D01*
X102227153Y-96955419D01*
X102227807Y-96954770D01*
X102324037Y-96803136D01*
X102370851Y-96671667D01*
X102383972Y-96634819D01*
X102383972Y-96634818D01*
X102384281Y-96633951D01*
X102405545Y-96455624D01*
X102386773Y-96277017D01*
X102359657Y-96197363D01*
X102329195Y-96107881D01*
X102329193Y-96107877D01*
X102328897Y-96107007D01*
X102234794Y-95954045D01*
X102231323Y-95950500D01*
X102121044Y-95837887D01*
X102109141Y-95825732D01*
X101984495Y-95745403D01*
X101958964Y-95728949D01*
X101958962Y-95728948D01*
X101958183Y-95728446D01*
X101882442Y-95700879D01*
X101790286Y-95667336D01*
X101790282Y-95667335D01*
X101789422Y-95667022D01*
X101650717Y-95649500D01*
X101554845Y-95649500D01*
X101554394Y-95649551D01*
X101554387Y-95649551D01*
X101467758Y-95659268D01*
X101421528Y-95664454D01*
X101347789Y-95690132D01*
X101252796Y-95723212D01*
X101252793Y-95723213D01*
X101251927Y-95723515D01*
X101099625Y-95818684D01*
X101098973Y-95819331D01*
X101098971Y-95819333D01*
X100972849Y-95944578D01*
X100972847Y-95944581D01*
X100972193Y-95945230D01*
X100875963Y-96096864D01*
X100875654Y-96097732D01*
X100825166Y-96239520D01*
X100815719Y-96266049D01*
X100794455Y-96444376D01*
X98800500Y-96444376D01*
X98800500Y-93227320D01*
X99612796Y-93227320D01*
X99635795Y-93361170D01*
X99636185Y-93362622D01*
X99711994Y-93568115D01*
X99712646Y-93569480D01*
X99824628Y-93757706D01*
X99825525Y-93758940D01*
X99969933Y-93923605D01*
X99971032Y-93924648D01*
X100143041Y-94060249D01*
X100144302Y-94061068D01*
X100338146Y-94163054D01*
X100339532Y-94163628D01*
X100548720Y-94228583D01*
X100550182Y-94228894D01*
X100728021Y-94249943D01*
X100728998Y-94250000D01*
X101421717Y-94250000D01*
X101424038Y-94249038D01*
X101425000Y-94246717D01*
X101775000Y-94246717D01*
X101775962Y-94249038D01*
X101778283Y-94250000D01*
X102455569Y-94250000D01*
X102456327Y-94249965D01*
X102618871Y-94235030D01*
X102620343Y-94234757D01*
X102831165Y-94175299D01*
X102832558Y-94174764D01*
X103029007Y-94077886D01*
X103030288Y-94077101D01*
X103205788Y-93946049D01*
X103206914Y-93945034D01*
X103355588Y-93784200D01*
X103356505Y-93783006D01*
X103473387Y-93597759D01*
X103474069Y-93596419D01*
X103555230Y-93392987D01*
X103555661Y-93391533D01*
X103588147Y-93228219D01*
X103587656Y-93225755D01*
X103586527Y-93225000D01*
X101778283Y-93225000D01*
X101775962Y-93225962D01*
X101775000Y-93228283D01*
X101775000Y-94246717D01*
X101425000Y-94246717D01*
X101425000Y-93228283D01*
X101424038Y-93225962D01*
X101421717Y-93225000D01*
X99615680Y-93225000D01*
X99613359Y-93225962D01*
X99612796Y-93227320D01*
X98800500Y-93227320D01*
X98800500Y-92871781D01*
X99611853Y-92871781D01*
X99612344Y-92874245D01*
X99613473Y-92875000D01*
X101421717Y-92875000D01*
X101424038Y-92874038D01*
X101425000Y-92871717D01*
X101775000Y-92871717D01*
X101775962Y-92874038D01*
X101778283Y-92875000D01*
X103584320Y-92875000D01*
X103586641Y-92874038D01*
X103587204Y-92872680D01*
X103564205Y-92738830D01*
X103563815Y-92737378D01*
X103488006Y-92531885D01*
X103487354Y-92530520D01*
X103375372Y-92342294D01*
X103374475Y-92341060D01*
X103230067Y-92176395D01*
X103228968Y-92175352D01*
X103056959Y-92039751D01*
X103055698Y-92038932D01*
X102861854Y-91936946D01*
X102860468Y-91936372D01*
X102651280Y-91871417D01*
X102649818Y-91871106D01*
X102471979Y-91850057D01*
X102471002Y-91850000D01*
X101778283Y-91850000D01*
X101775962Y-91850962D01*
X101775000Y-91853283D01*
X101775000Y-92871717D01*
X101425000Y-92871717D01*
X101425000Y-91853283D01*
X101424038Y-91850962D01*
X101421717Y-91850000D01*
X100744431Y-91850000D01*
X100743673Y-91850035D01*
X100581129Y-91864970D01*
X100579657Y-91865243D01*
X100368835Y-91924701D01*
X100367442Y-91925236D01*
X100170993Y-92022114D01*
X100169712Y-92022899D01*
X99994212Y-92153951D01*
X99993086Y-92154966D01*
X99844412Y-92315800D01*
X99843495Y-92316994D01*
X99726613Y-92502241D01*
X99725931Y-92503581D01*
X99644770Y-92707013D01*
X99644339Y-92708467D01*
X99611853Y-92871781D01*
X98800500Y-92871781D01*
X98800500Y-91667000D01*
X98805333Y-91655333D01*
X98817000Y-91650500D01*
X107413792Y-91650500D01*
X107425459Y-91655333D01*
G37*
%TD.AperFunction*%
%TD*%
M02*
