M48
; DRILL file {KiCad (6.0.7)} date Sat Mar 11 05:38:11 2023
; FORMAT={-:-/ absolute / metric / decimal}
; #@! TF.CreationDate,2023-03-11T05:38:11-08:00
; #@! TF.GenerationSoftware,Kicad,Pcbnew,(6.0.7)
; #@! TF.FileFunction,MixedPlating,1,4
FMAT,2
METRIC
; #@! TA.AperFunction,Plated,PTH,ViaDrill
T1C0.330
; #@! TA.AperFunction,Plated,PTH,ViaDrill
T2C0.381
; #@! TA.AperFunction,Plated,PTH,ComponentDrill
T3C0.900
; #@! TA.AperFunction,NonPlated,NPTH,ComponentDrill
T4C1.100
%
G90
G05
T1
X104.7Y-104.5
X106.3Y-104.9
X106.4Y-97.8
X106.4Y-99.8
X106.8Y-91.8
X106.8Y-92.7
X106.8Y-93.6
X106.8Y-94.5
X107.7Y-101.1
X107.8Y-94.5
X108.8Y-94.5
X108.8Y-97.8
X109.8Y-94.5
X110.8Y-94.5
X111.8Y-94.5
X112.8Y-94.5
X112.8Y-101.227
X113.0Y-97.8
X113.8Y-94.5
X114.8Y-94.5
X115.0Y-101.227
X115.3Y-99.9
X116.4Y-99.9
X116.58Y-102.9
X116.7Y-95.4
X117.0Y-92.2
X117.1Y-101.227
X117.178Y-100.133
X117.4Y-96.1
X117.8Y-93.0
X118.079Y-102.621
X118.6Y-93.8
X118.8Y-97.4
X119.0Y-98.9
X119.337Y-94.518
X119.875Y-103.0
X119.875Y-104.499
X120.6Y-95.7
X122.6Y-104.5
X125.8Y-95.0
X126.7Y-92.3
X126.7Y-94.5
X128.2Y-103.4
X128.775Y-95.775
X128.9Y-93.3
X129.6Y-104.2
X129.75Y-98.75
X130.3Y-101.0
X130.7Y-103.8
X131.0Y-92.3
X131.0Y-94.5
X131.8Y-97.3
X131.9Y-100.5
T2
X109.5Y-103.6
X122.75Y-98.5
X122.75Y-99.75
X122.75Y-101.0
X124.0Y-98.5
X124.0Y-99.75
X124.0Y-101.0
X125.25Y-98.5
X125.25Y-99.75
X125.25Y-101.0
T4
X101.6Y-96.45
X101.6Y-101.05
T3
G00X102.4Y-93.05
M15
G01X100.8Y-93.05
M16
G05
G00X102.4Y-104.45
M15
G01X100.8Y-104.45
M16
G05
T0
M30
