M48
; DRILL file {KiCad (6.0.7)} date Thu Feb  9 21:31:30 2023
; FORMAT={-:-/ absolute / metric / decimal}
; #@! TF.CreationDate,2023-02-09T21:31:30-08:00
; #@! TF.GenerationSoftware,Kicad,Pcbnew,(6.0.7)
; #@! TF.FileFunction,MixedPlating,1,4
FMAT,2
METRIC
; #@! TA.AperFunction,Plated,PTH,ViaDrill
T1C0.330
; #@! TA.AperFunction,Plated,PTH,ViaDrill
T2C0.381
; #@! TA.AperFunction,Plated,PTH,ComponentDrill
T3C0.900
; #@! TA.AperFunction,NonPlated,NPTH,ComponentDrill
T4C1.100
%
G90
G05
T1
X104.7Y-104.5
X106.4Y-97.8
X106.4Y-99.8
X106.4Y-105.0
X106.8Y-91.8
X106.8Y-92.7
X106.8Y-93.6
X106.8Y-94.5
X107.7Y-101.1
X107.8Y-94.5
X108.4Y-103.4
X108.4Y-104.4
X108.8Y-94.5
X108.8Y-97.8
X109.8Y-94.5
X110.8Y-94.5
X111.0Y-104.0
X111.8Y-94.5
X112.8Y-94.5
X113.0Y-97.8
X113.0Y-101.1
X113.8Y-94.5
X114.295Y-102.475
X114.8Y-94.5
X115.3Y-99.9
X116.1Y-102.5
X116.4Y-99.9
X116.7Y-95.4
X117.0Y-92.1
X117.1Y-101.227
X117.178Y-100.133
X117.4Y-96.1
X117.7Y-92.8
X118.4Y-93.5
X118.7Y-102.7
X118.8Y-97.4
X119.0Y-98.9
X119.337Y-94.518
X120.6Y-95.7
X122.6Y-104.5
X125.8Y-95.0
X127.4Y-92.3
X127.4Y-94.5
X128.2Y-103.4
X129.0Y-96.7
X129.6Y-104.2
X129.75Y-98.75
X130.3Y-101.0
X130.4Y-92.3
X130.4Y-94.5
X130.7Y-103.8
X131.8Y-97.3
X131.9Y-100.5
T2
X122.75Y-98.5
X122.75Y-99.75
X122.75Y-101.0
X124.0Y-98.5
X124.0Y-99.75
X124.0Y-101.0
X125.25Y-98.5
X125.25Y-99.75
X125.25Y-101.0
T4
X101.65Y-96.45
X101.65Y-101.05
T3
G00X102.45Y-93.05
M15
G01X100.85Y-93.05
M16
G05
G00X102.45Y-104.45
M15
G01X100.85Y-104.45
M16
G05
T0
M30
