%TF.GenerationSoftware,KiCad,Pcbnew,(6.0.7)*%
%TF.CreationDate,2023-02-09T21:31:31-08:00*%
%TF.ProjectId,ESP_SoC,4553505f-536f-4432-9e6b-696361645f70,rev?*%
%TF.SameCoordinates,Original*%
%TF.FileFunction,Copper,L1,Top*%
%TF.FilePolarity,Positive*%
%FSLAX46Y46*%
G04 Gerber Fmt 4.6, Leading zero omitted, Abs format (unit mm)*
G04 Created by KiCad (PCBNEW (6.0.7)) date 2023-02-09 21:31:31*
%MOMM*%
%LPD*%
G01*
G04 APERTURE LIST*
G04 Aperture macros list*
%AMRoundRect*
0 Rectangle with rounded corners*
0 $1 Rounding radius*
0 $2 $3 $4 $5 $6 $7 $8 $9 X,Y pos of 4 corners*
0 Add a 4 corners polygon primitive as box body*
4,1,4,$2,$3,$4,$5,$6,$7,$8,$9,$2,$3,0*
0 Add four circle primitives for the rounded corners*
1,1,$1+$1,$2,$3*
1,1,$1+$1,$4,$5*
1,1,$1+$1,$6,$7*
1,1,$1+$1,$8,$9*
0 Add four rect primitives between the rounded corners*
20,1,$1+$1,$2,$3,$4,$5,0*
20,1,$1+$1,$4,$5,$6,$7,0*
20,1,$1+$1,$6,$7,$8,$9,0*
20,1,$1+$1,$8,$9,$2,$3,0*%
G04 Aperture macros list end*
%TA.AperFunction,SMDPad,CuDef*%
%ADD10RoundRect,0.140000X0.170000X-0.140000X0.170000X0.140000X-0.170000X0.140000X-0.170000X-0.140000X0*%
%TD*%
%TA.AperFunction,SMDPad,CuDef*%
%ADD11RoundRect,0.135000X-0.135000X-0.185000X0.135000X-0.185000X0.135000X0.185000X-0.135000X0.185000X0*%
%TD*%
%TA.AperFunction,SMDPad,CuDef*%
%ADD12R,2.500000X1.100000*%
%TD*%
%TA.AperFunction,ComponentPad*%
%ADD13O,3.500000X1.900000*%
%TD*%
%TA.AperFunction,SMDPad,CuDef*%
%ADD14RoundRect,0.147500X-0.172500X0.147500X-0.172500X-0.147500X0.172500X-0.147500X0.172500X0.147500X0*%
%TD*%
%TA.AperFunction,SMDPad,CuDef*%
%ADD15RoundRect,0.140000X-0.170000X0.140000X-0.170000X-0.140000X0.170000X-0.140000X0.170000X0.140000X0*%
%TD*%
%TA.AperFunction,SMDPad,CuDef*%
%ADD16RoundRect,0.140000X-0.021213X0.219203X-0.219203X0.021213X0.021213X-0.219203X0.219203X-0.021213X0*%
%TD*%
%TA.AperFunction,SMDPad,CuDef*%
%ADD17RoundRect,0.147500X-0.226274X-0.017678X-0.017678X-0.226274X0.226274X0.017678X0.017678X0.226274X0*%
%TD*%
%TA.AperFunction,SMDPad,CuDef*%
%ADD18RoundRect,0.276000X-0.324000X-0.634000X0.324000X-0.634000X0.324000X0.634000X-0.324000X0.634000X0*%
%TD*%
%TA.AperFunction,SMDPad,CuDef*%
%ADD19RoundRect,0.135000X0.185000X-0.135000X0.185000X0.135000X-0.185000X0.135000X-0.185000X-0.135000X0*%
%TD*%
%TA.AperFunction,SMDPad,CuDef*%
%ADD20RoundRect,0.225000X-0.250000X0.225000X-0.250000X-0.225000X0.250000X-0.225000X0.250000X0.225000X0*%
%TD*%
%TA.AperFunction,SMDPad,CuDef*%
%ADD21RoundRect,0.140000X0.140000X0.170000X-0.140000X0.170000X-0.140000X-0.170000X0.140000X-0.170000X0*%
%TD*%
%TA.AperFunction,SMDPad,CuDef*%
%ADD22R,0.650000X1.050000*%
%TD*%
%TA.AperFunction,SMDPad,CuDef*%
%ADD23R,0.500000X0.500000*%
%TD*%
%TA.AperFunction,SMDPad,CuDef*%
%ADD24R,1.150000X0.700000*%
%TD*%
%TA.AperFunction,SMDPad,CuDef*%
%ADD25R,1.000000X0.380000*%
%TD*%
%TA.AperFunction,SMDPad,CuDef*%
%ADD26RoundRect,0.150000X-0.512500X-0.150000X0.512500X-0.150000X0.512500X0.150000X-0.512500X0.150000X0*%
%TD*%
%TA.AperFunction,SMDPad,CuDef*%
%ADD27RoundRect,0.135000X-0.185000X0.135000X-0.185000X-0.135000X0.185000X-0.135000X0.185000X0.135000X0*%
%TD*%
%TA.AperFunction,SMDPad,CuDef*%
%ADD28R,4.000000X4.000000*%
%TD*%
%TA.AperFunction,SMDPad,CuDef*%
%ADD29RoundRect,0.022000X-0.088000X-0.383000X0.088000X-0.383000X0.088000X0.383000X-0.088000X0.383000X0*%
%TD*%
%TA.AperFunction,SMDPad,CuDef*%
%ADD30RoundRect,0.006600X-0.398400X-0.103400X0.398400X-0.103400X0.398400X0.103400X-0.398400X0.103400X0*%
%TD*%
%TA.AperFunction,SMDPad,CuDef*%
%ADD31R,0.900000X0.800000*%
%TD*%
%TA.AperFunction,ViaPad*%
%ADD32C,0.685800*%
%TD*%
%TA.AperFunction,ViaPad*%
%ADD33C,0.889000*%
%TD*%
%TA.AperFunction,Conductor*%
%ADD34C,0.127000*%
%TD*%
%TA.AperFunction,Conductor*%
%ADD35C,0.293370*%
%TD*%
%TA.AperFunction,Conductor*%
%ADD36C,0.254000*%
%TD*%
%TA.AperFunction,Conductor*%
%ADD37C,0.762000*%
%TD*%
%TA.AperFunction,Conductor*%
%ADD38C,0.154200*%
%TD*%
%TA.AperFunction,Conductor*%
%ADD39C,0.152400*%
%TD*%
G04 APERTURE END LIST*
D10*
%TO.P,C16,2*%
%TO.N,GND*%
X128750000Y-98770000D03*
%TO.P,C16,1*%
%TO.N,VDD*%
X128750000Y-99730000D03*
%TD*%
D11*
%TO.P,R2,2*%
%TO.N,CHIP_PU*%
X118910000Y-101300000D03*
%TO.P,R2,1*%
%TO.N,+3V3*%
X117890000Y-101300000D03*
%TD*%
D12*
%TO.P,J1,1,VBUS*%
%TO.N,Net-(D1-Pad2)*%
X104400000Y-102250000D03*
%TO.P,J1,2,D-*%
%TO.N,USB_D-*%
X104400000Y-99750000D03*
%TO.P,J1,3,D+*%
%TO.N,USB_D+*%
X104400000Y-97750000D03*
%TO.P,J1,4,GND*%
%TO.N,GND*%
X104400000Y-95250000D03*
D13*
%TO.P,J1,5,Shield*%
X101650000Y-104450000D03*
X101650000Y-93050000D03*
%TD*%
D10*
%TO.P,C2,2*%
%TO.N,GND*%
X120000000Y-94020000D03*
%TO.P,C2,1*%
%TO.N,+3V3*%
X120000000Y-94980000D03*
%TD*%
D11*
%TO.P,R4,2*%
%TO.N,USB_D+*%
X127510000Y-104500000D03*
%TO.P,R4,1*%
%TO.N,Net-(R4-Pad1)*%
X126490000Y-104500000D03*
%TD*%
D14*
%TO.P,L2,2*%
%TO.N,+3V3*%
X118100000Y-98985000D03*
%TO.P,L2,1*%
%TO.N,Net-(C5-Pad1)*%
X118100000Y-98015000D03*
%TD*%
D15*
%TO.P,C7,2*%
%TO.N,GND*%
X117000000Y-103380000D03*
%TO.P,C7,1*%
%TO.N,+3V3*%
X117000000Y-102420000D03*
%TD*%
D11*
%TO.P,R3,2*%
%TO.N,USB_D-*%
X127510000Y-105500000D03*
%TO.P,R3,1*%
%TO.N,Net-(R3-Pad1)*%
X126490000Y-105500000D03*
%TD*%
D10*
%TO.P,C9,2*%
%TO.N,GND*%
X125000000Y-94020000D03*
%TO.P,C9,1*%
%TO.N,+3V3*%
X125000000Y-94980000D03*
%TD*%
D15*
%TO.P,C13,2*%
%TO.N,GND*%
X113750000Y-103980000D03*
%TO.P,C13,1*%
%TO.N,+3V3*%
X113750000Y-103020000D03*
%TD*%
D16*
%TO.P,C3,2*%
%TO.N,GND*%
X115910589Y-94589411D03*
%TO.P,C3,1*%
%TO.N,Net-(AE1-Pad1)*%
X116589411Y-93910589D03*
%TD*%
D15*
%TO.P,C15,2*%
%TO.N,GND*%
X125000000Y-92980000D03*
%TO.P,C15,1*%
%TO.N,XTAL_N*%
X125000000Y-92020000D03*
%TD*%
D17*
%TO.P,L1,2*%
%TO.N,LNA_IN*%
X118092947Y-95342947D03*
%TO.P,L1,1*%
%TO.N,Net-(AE1-Pad1)*%
X117407053Y-94657053D03*
%TD*%
D18*
%TO.P,AE1,1*%
%TO.N,Net-(AE1-Pad1)*%
X114710000Y-92750000D03*
%TO.P,AE1,2*%
%TO.N,N/C*%
X111790000Y-92750000D03*
%TD*%
D19*
%TO.P,R5,2*%
%TO.N,GND*%
X130300000Y-96590000D03*
%TO.P,R5,1*%
%TO.N,Net-(P1-PadA5)*%
X130300000Y-97610000D03*
%TD*%
D20*
%TO.P,C8,2*%
%TO.N,GND*%
X115250000Y-104025000D03*
%TO.P,C8,1*%
%TO.N,+3V3*%
X115250000Y-102475000D03*
%TD*%
D21*
%TO.P,C6,1*%
%TO.N,+3V3*%
X117080000Y-99000000D03*
%TO.P,C6,2*%
%TO.N,GND*%
X116120000Y-99000000D03*
%TD*%
D22*
%TO.P,SW2,2,B*%
%TO.N,BOOT*%
X109825000Y-99825000D03*
X109825000Y-95675000D03*
%TO.P,SW2,1,A*%
%TO.N,GND*%
X107675000Y-95675000D03*
X107675000Y-99825000D03*
%TD*%
%TO.P,SW1,2,B*%
%TO.N,CHIP_PU*%
X114075000Y-99825000D03*
X114075000Y-95675000D03*
%TO.P,SW1,1,A*%
%TO.N,GND*%
X111925000Y-99825000D03*
X111925000Y-95675000D03*
%TD*%
D23*
%TO.P,D1,2,A*%
%TO.N,Net-(D1-Pad2)*%
X107500000Y-102700000D03*
%TO.P,D1,1,K*%
%TO.N,+5V*%
X107500000Y-104900000D03*
%TD*%
D15*
%TO.P,C10,2*%
%TO.N,GND*%
X123400000Y-105480000D03*
%TO.P,C10,1*%
%TO.N,+3V3*%
X123400000Y-104520000D03*
%TD*%
D21*
%TO.P,C5,2*%
%TO.N,GND*%
X116120000Y-98000000D03*
%TO.P,C5,1*%
%TO.N,Net-(C5-Pad1)*%
X117080000Y-98000000D03*
%TD*%
D24*
%TO.P,P1,S1,SHIELD*%
%TO.N,GND*%
X132170000Y-95330000D03*
D25*
%TO.P,P1,A12,GND*%
X133010000Y-101500000D03*
%TO.P,P1,A11,RX2+*%
%TO.N,unconnected-(P1-PadA11)*%
X133010000Y-101000000D03*
%TO.P,P1,A10,RX2-*%
%TO.N,unconnected-(P1-PadA10)*%
X133010000Y-100500000D03*
%TO.P,P1,A9,VBUS*%
%TO.N,+5V*%
X133010000Y-100000000D03*
%TO.P,P1,A8,SBU1*%
%TO.N,unconnected-(P1-PadA8)*%
X133010000Y-99500000D03*
%TO.P,P1,A7,D-*%
%TO.N,USB_D-*%
X133010000Y-99000000D03*
%TO.P,P1,A6,D+*%
%TO.N,USB_D+*%
X133010000Y-98500000D03*
%TO.P,P1,A5,CC*%
%TO.N,Net-(P1-PadA5)*%
X133010000Y-98000000D03*
%TO.P,P1,A4,VBUS*%
%TO.N,+5V*%
X133010000Y-97500000D03*
%TO.P,P1,A3,TX1-*%
%TO.N,unconnected-(P1-PadA3)*%
X133010000Y-97000000D03*
%TO.P,P1,A2,TX1+*%
%TO.N,unconnected-(P1-PadA2)*%
X133010000Y-96500000D03*
%TO.P,P1,A1,GND*%
%TO.N,GND*%
X133010000Y-96000000D03*
%TD*%
D26*
%TO.P,U1,5,VOUT*%
%TO.N,+3V3*%
X112137500Y-103050000D03*
%TO.P,U1,4,NC*%
%TO.N,unconnected-(U1-Pad4)*%
X112137500Y-104950000D03*
%TO.P,U1,3,EN*%
%TO.N,+5V*%
X109862500Y-104950000D03*
%TO.P,U1,2,GND*%
%TO.N,GND*%
X109862500Y-104000000D03*
%TO.P,U1,1,VIN*%
%TO.N,+5V*%
X109862500Y-103050000D03*
%TD*%
D21*
%TO.P,C11,2*%
%TO.N,GND*%
X117920000Y-100100000D03*
%TO.P,C11,1*%
%TO.N,CHIP_PU*%
X118880000Y-100100000D03*
%TD*%
D10*
%TO.P,C14,2*%
%TO.N,GND*%
X121000000Y-92000000D03*
%TO.P,C14,1*%
%TO.N,Net-(C14-Pad1)*%
X121000000Y-92960000D03*
%TD*%
%TO.P,C1,2*%
%TO.N,GND*%
X121000000Y-94020000D03*
%TO.P,C1,1*%
%TO.N,+3V3*%
X121000000Y-94980000D03*
%TD*%
D27*
%TO.P,R6,2*%
%TO.N,GND*%
X130300000Y-102810000D03*
%TO.P,R6,1*%
%TO.N,Net-(P1-PadB5)*%
X130300000Y-101790000D03*
%TD*%
D11*
%TO.P,R1,2*%
%TO.N,Net-(C14-Pad1)*%
X123010000Y-94750000D03*
%TO.P,R1,1*%
%TO.N,XTAL_P*%
X121990000Y-94750000D03*
%TD*%
D16*
%TO.P,C4,2*%
%TO.N,GND*%
X118160589Y-96839411D03*
%TO.P,C4,1*%
%TO.N,LNA_IN*%
X118839411Y-96160589D03*
%TD*%
D28*
%TO.P,U2,57,GND*%
%TO.N,GND*%
X124000000Y-99750000D03*
D29*
%TO.P,U2,56,VDDA2*%
%TO.N,+3V3*%
X121400000Y-96305000D03*
%TO.P,U2,55,VDDA1*%
X121800000Y-96305000D03*
%TO.P,U2,54,XTAL_P*%
%TO.N,XTAL_P*%
X122200000Y-96305000D03*
%TO.P,U2,53,XTAL_N*%
%TO.N,XTAL_N*%
X122600000Y-96305000D03*
%TO.P,U2,52,GPIO46*%
%TO.N,unconnected-(U2-Pad52)*%
X123000000Y-96305000D03*
%TO.P,U2,51,GPIO45*%
%TO.N,unconnected-(U2-Pad51)*%
X123400000Y-96305000D03*
%TO.P,U2,50,U0RXD*%
%TO.N,unconnected-(U2-Pad50)*%
X123800000Y-96305000D03*
%TO.P,U2,49,U0TXD*%
%TO.N,unconnected-(U2-Pad49)*%
X124200000Y-96305000D03*
%TO.P,U2,48,MTMS*%
%TO.N,unconnected-(U2-Pad48)*%
X124600000Y-96305000D03*
%TO.P,U2,47,MTDI*%
%TO.N,unconnected-(U2-Pad47)*%
X125000000Y-96305000D03*
%TO.P,U2,46,VDD3P3_CPU*%
%TO.N,+3V3*%
X125400000Y-96305000D03*
%TO.P,U2,45,MTDO*%
%TO.N,unconnected-(U2-Pad45)*%
X125800000Y-96305000D03*
%TO.P,U2,44,MTCK*%
%TO.N,unconnected-(U2-Pad44)*%
X126200000Y-96305000D03*
%TO.P,U2,43,GPIO38*%
%TO.N,unconnected-(U2-Pad43)*%
X126600000Y-96305000D03*
D30*
%TO.P,U2,42,GPIO37*%
%TO.N,unconnected-(U2-Pad42)*%
X127445000Y-97150000D03*
%TO.P,U2,41,GPIO36*%
%TO.N,unconnected-(U2-Pad41)*%
X127445000Y-97550000D03*
%TO.P,U2,40,GPIO35*%
%TO.N,unconnected-(U2-Pad40)*%
X127445000Y-97950000D03*
%TO.P,U2,39,GPIO34*%
%TO.N,unconnected-(U2-Pad39)*%
X127445000Y-98350000D03*
%TO.P,U2,38,GPIO33*%
%TO.N,unconnected-(U2-Pad38)*%
X127445000Y-98750000D03*
%TO.P,U2,37,SPICLK_P*%
%TO.N,unconnected-(U2-Pad37)*%
X127445000Y-99150000D03*
%TO.P,U2,36,SPICLK_N*%
%TO.N,unconnected-(U2-Pad36)*%
X127445000Y-99550000D03*
%TO.P,U2,35,SPID*%
%TO.N,unconnected-(U2-Pad35)*%
X127445000Y-99950000D03*
%TO.P,U2,34,SPIQ*%
%TO.N,unconnected-(U2-Pad34)*%
X127445000Y-100350000D03*
%TO.P,U2,33,SPICLK*%
%TO.N,unconnected-(U2-Pad33)*%
X127445000Y-100750000D03*
%TO.P,U2,32,SPICS0*%
%TO.N,unconnected-(U2-Pad32)*%
X127445000Y-101150000D03*
%TO.P,U2,31,SPIWP*%
%TO.N,unconnected-(U2-Pad31)*%
X127445000Y-101550000D03*
%TO.P,U2,30,SPIHD*%
%TO.N,unconnected-(U2-Pad30)*%
X127445000Y-101950000D03*
%TO.P,U2,29,VDD_SPI*%
%TO.N,VDD*%
X127445000Y-102350000D03*
D29*
%TO.P,U2,28,SPICS1*%
%TO.N,unconnected-(U2-Pad28)*%
X126600000Y-103195000D03*
%TO.P,U2,27,GPIO21*%
%TO.N,unconnected-(U2-Pad27)*%
X126200000Y-103195000D03*
%TO.P,U2,26,GPIO20*%
%TO.N,Net-(R4-Pad1)*%
X125800000Y-103195000D03*
%TO.P,U2,25,GPIO19*%
%TO.N,Net-(R3-Pad1)*%
X125400000Y-103195000D03*
%TO.P,U2,24,GPIO18*%
%TO.N,unconnected-(U2-Pad24)*%
X125000000Y-103195000D03*
%TO.P,U2,23,GPIO17*%
%TO.N,unconnected-(U2-Pad23)*%
X124600000Y-103195000D03*
%TO.P,U2,22,XTAL_32K_N*%
%TO.N,unconnected-(U2-Pad22)*%
X124200000Y-103195000D03*
%TO.P,U2,21,XTAL_32K_P*%
%TO.N,unconnected-(U2-Pad21)*%
X123800000Y-103195000D03*
%TO.P,U2,20,VDD3P3_RTC*%
%TO.N,+3V3*%
X123400000Y-103195000D03*
%TO.P,U2,19,GPIO14*%
%TO.N,unconnected-(U2-Pad19)*%
X123000000Y-103195000D03*
%TO.P,U2,18,GPIO13*%
%TO.N,unconnected-(U2-Pad18)*%
X122600000Y-103195000D03*
%TO.P,U2,17,GPIO12*%
%TO.N,unconnected-(U2-Pad17)*%
X122200000Y-103195000D03*
%TO.P,U2,16,GPIO11*%
%TO.N,unconnected-(U2-Pad16)*%
X121800000Y-103195000D03*
%TO.P,U2,15,GPIO10*%
%TO.N,unconnected-(U2-Pad15)*%
X121400000Y-103195000D03*
D30*
%TO.P,U2,14,GPIO9*%
%TO.N,unconnected-(U2-Pad14)*%
X120555000Y-102350000D03*
%TO.P,U2,13,GPIO8*%
%TO.N,unconnected-(U2-Pad13)*%
X120555000Y-101950000D03*
%TO.P,U2,12,GPIO7*%
%TO.N,unconnected-(U2-Pad12)*%
X120555000Y-101550000D03*
%TO.P,U2,11,GPIO6*%
%TO.N,unconnected-(U2-Pad11)*%
X120555000Y-101150000D03*
%TO.P,U2,10,GPIO5*%
%TO.N,unconnected-(U2-Pad10)*%
X120555000Y-100750000D03*
%TO.P,U2,9,GPIO4*%
%TO.N,unconnected-(U2-Pad9)*%
X120555000Y-100350000D03*
%TO.P,U2,8,GPIO3*%
%TO.N,unconnected-(U2-Pad8)*%
X120555000Y-99950000D03*
%TO.P,U2,7,GPIO2*%
%TO.N,unconnected-(U2-Pad7)*%
X120555000Y-99550000D03*
%TO.P,U2,6,GPIO1*%
%TO.N,unconnected-(U2-Pad6)*%
X120555000Y-99150000D03*
%TO.P,U2,5,GPIO0*%
%TO.N,BOOT*%
X120555000Y-98750000D03*
%TO.P,U2,4,CHIP_PU*%
%TO.N,CHIP_PU*%
X120555000Y-98350000D03*
%TO.P,U2,3,VDD3P3*%
%TO.N,Net-(C5-Pad1)*%
X120555000Y-97950000D03*
%TO.P,U2,2,VDD3P3*%
X120555000Y-97550000D03*
%TO.P,U2,1,LNA_IN*%
%TO.N,LNA_IN*%
X120555000Y-97150000D03*
%TD*%
D31*
%TO.P,Y1,4,4*%
%TO.N,GND*%
X122300000Y-92200000D03*
%TO.P,Y1,3,3*%
%TO.N,XTAL_N*%
X123700000Y-92200000D03*
%TO.P,Y1,2,2*%
%TO.N,GND*%
X123700000Y-93300000D03*
%TO.P,Y1,1,1*%
%TO.N,Net-(C14-Pad1)*%
X122300000Y-93300000D03*
%TD*%
D21*
%TO.P,C12,2*%
%TO.N,GND*%
X108920000Y-101600000D03*
%TO.P,C12,1*%
%TO.N,+5V*%
X109880000Y-101600000D03*
%TD*%
D32*
%TO.N,+3V3*%
X125800000Y-95000000D03*
X116100000Y-102500000D03*
X116400000Y-99900000D03*
X119337156Y-94518432D03*
X122600000Y-104500000D03*
X119000000Y-98900000D03*
X114295000Y-102475000D03*
X120600000Y-95700000D03*
X117100000Y-101226500D03*
%TO.N,GND*%
X117700000Y-92800000D03*
X106800000Y-92700000D03*
X117178019Y-100133500D03*
X104700000Y-104500000D03*
D33*
X122750000Y-98500000D03*
D32*
X111000000Y-104000000D03*
X130400000Y-94500000D03*
X127400000Y-94500000D03*
X106800000Y-91800000D03*
X112800000Y-94500000D03*
D33*
X124000000Y-99750000D03*
D32*
X106800000Y-93600000D03*
X107800000Y-94500000D03*
D33*
X122750000Y-101000000D03*
D32*
X107700000Y-101100000D03*
X117400000Y-96100000D03*
X130400000Y-92300000D03*
X127400000Y-92300000D03*
X113000000Y-97800000D03*
X115300000Y-99900000D03*
D33*
X124000000Y-98500000D03*
D32*
X113800000Y-94500000D03*
X117000000Y-92100000D03*
X109800000Y-94500000D03*
X114800000Y-94500000D03*
X118700000Y-102700000D03*
D33*
X124000000Y-101000000D03*
D32*
X118800000Y-97400000D03*
X108800000Y-94500000D03*
D33*
X125250000Y-98500000D03*
D32*
X106800000Y-94500000D03*
D33*
X122750000Y-99750000D03*
X125250000Y-101000000D03*
D32*
X111800000Y-94500000D03*
X129750000Y-98750000D03*
X118400000Y-93500000D03*
D33*
X125250000Y-99750000D03*
D32*
X108800000Y-97800000D03*
X113000000Y-101100000D03*
X116700000Y-95400000D03*
X129000000Y-96700000D03*
X110800000Y-94500000D03*
X130700000Y-103800000D03*
%TO.N,+5V*%
X108400000Y-103400000D03*
X131800000Y-97300000D03*
X106400000Y-105000000D03*
X131900000Y-100500000D03*
X108400000Y-104400000D03*
%TO.N,USB_D-*%
X106400000Y-99800000D03*
X129600000Y-104200000D03*
%TO.N,USB_D+*%
X128200000Y-103400000D03*
X106400000Y-97800000D03*
%TO.N,Net-(P1-PadB5)*%
X130300000Y-101000000D03*
%TD*%
D34*
%TO.N,VDD*%
X128400000Y-101850000D02*
X127900000Y-102350000D01*
X128400000Y-100080000D02*
X128400000Y-101850000D01*
X127900000Y-102350000D02*
X127445000Y-102350000D01*
X128750000Y-99730000D02*
X128400000Y-100080000D01*
D35*
%TO.N,LNA_IN*%
X119994507Y-97149994D02*
G75*
G02*
X119711665Y-97032841I-7J399994D01*
G01*
%TO.N,Net-(AE1-Pad1)*%
X115545962Y-92867176D02*
G75*
G03*
X115263137Y-92750000I-282862J-282824D01*
G01*
D36*
%TO.N,+3V3*%
X120000000Y-94980000D02*
X121000000Y-94980000D01*
X125000000Y-94980000D02*
X125780000Y-94980000D01*
D37*
X116920000Y-102500000D02*
X117000000Y-102420000D01*
X116100000Y-102500000D02*
X116920000Y-102500000D01*
D38*
X121400000Y-96305000D02*
X121400000Y-95600000D01*
D36*
X119798724Y-94980000D02*
X119337156Y-94518432D01*
X118915000Y-98985000D02*
X119000000Y-98900000D01*
X120600000Y-95700000D02*
X120600000Y-95380000D01*
D37*
X116075000Y-102475000D02*
X116100000Y-102500000D01*
D36*
X125780000Y-94980000D02*
X125800000Y-95000000D01*
X123400000Y-103195000D02*
X123400000Y-104520000D01*
X123380000Y-104500000D02*
X123400000Y-104520000D01*
D38*
X125400000Y-96305000D02*
X125400000Y-95380000D01*
D36*
X122600000Y-104500000D02*
X123380000Y-104500000D01*
X116400000Y-99900000D02*
X117080000Y-99220000D01*
D35*
X117173500Y-101300000D02*
X117100000Y-101226500D01*
D38*
X121400000Y-95600000D02*
X121550000Y-95450000D01*
X121080000Y-94980000D02*
X121000000Y-94980000D01*
D37*
X112137500Y-103050000D02*
X113720000Y-103050000D01*
D38*
X125400000Y-95380000D02*
X125000000Y-94980000D01*
D37*
X113720000Y-103050000D02*
X113750000Y-103020000D01*
X114295000Y-102475000D02*
X113750000Y-103020000D01*
D35*
X117890000Y-101300000D02*
X117173500Y-101300000D01*
D36*
X117080000Y-99220000D02*
X117080000Y-99000000D01*
D37*
X115250000Y-102475000D02*
X116075000Y-102475000D01*
D38*
X121550000Y-95450000D02*
X121080000Y-94980000D01*
D37*
X115250000Y-102475000D02*
X114295000Y-102475000D01*
D38*
X121800000Y-95700000D02*
X121550000Y-95450000D01*
X121800000Y-96305000D02*
X121800000Y-95700000D01*
D36*
X120000000Y-94980000D02*
X119798724Y-94980000D01*
X120600000Y-95380000D02*
X121000000Y-94980000D01*
X118100000Y-98985000D02*
X118915000Y-98985000D01*
%TO.N,GND*%
X121200000Y-92200000D02*
X121000000Y-92000000D01*
D38*
X132840000Y-96000000D02*
X132170000Y-95330000D01*
D36*
X123700000Y-93300000D02*
X124680000Y-93300000D01*
X124680000Y-93300000D02*
X125000000Y-92980000D01*
X109862500Y-104000000D02*
X111000000Y-104000000D01*
X117920000Y-100100000D02*
X117211519Y-100100000D01*
X122300000Y-92200000D02*
X121200000Y-92200000D01*
D38*
X133010000Y-96000000D02*
X132840000Y-96000000D01*
D36*
X117211519Y-100100000D02*
X117178019Y-100133500D01*
D35*
%TO.N,LNA_IN*%
X119711664Y-97032842D02*
X118839411Y-96160589D01*
X118839411Y-96089411D02*
X118092947Y-95342947D01*
X120555000Y-97150000D02*
X119994507Y-97150000D01*
X118839411Y-96160589D02*
X118839411Y-96089411D01*
D38*
%TO.N,Net-(C5-Pad1)*%
X117095000Y-98015000D02*
X117080000Y-98000000D01*
X119485000Y-98015000D02*
X118100000Y-98015000D01*
X119850000Y-97950000D02*
X119700000Y-97800000D01*
X119950000Y-97550000D02*
X119700000Y-97800000D01*
X118100000Y-98015000D02*
X117095000Y-98015000D01*
X119700000Y-97800000D02*
X119485000Y-98015000D01*
X120555000Y-97550000D02*
X119950000Y-97550000D01*
X120555000Y-97950000D02*
X119850000Y-97950000D01*
%TO.N,CHIP_PU*%
X118880000Y-100680000D02*
X118880000Y-101270000D01*
X114930000Y-100680000D02*
X114075000Y-99825000D01*
D36*
X114075000Y-95675000D02*
X114075000Y-99825000D01*
D38*
X118880000Y-101270000D02*
X118910000Y-101300000D01*
X119100000Y-100100000D02*
X118880000Y-100100000D01*
X119600000Y-98800000D02*
X119600000Y-99600000D01*
X119600000Y-99600000D02*
X119100000Y-100100000D01*
X118880000Y-100100000D02*
X118880000Y-100680000D01*
X120050000Y-98350000D02*
X119600000Y-98800000D01*
X120555000Y-98350000D02*
X120050000Y-98350000D01*
X118880000Y-100680000D02*
X114930000Y-100680000D01*
D36*
%TO.N,+5V*%
X132000000Y-97500000D02*
X131800000Y-97300000D01*
X133708000Y-97500000D02*
X133764000Y-97556000D01*
X133010000Y-97500000D02*
X132000000Y-97500000D01*
X132400000Y-100000000D02*
X133010000Y-100000000D01*
X131900000Y-100500000D02*
X132400000Y-100000000D01*
X133708000Y-100000000D02*
X133010000Y-100000000D01*
X133010000Y-97500000D02*
X133708000Y-97500000D01*
X133764000Y-99944000D02*
X133708000Y-100000000D01*
X133764000Y-97556000D02*
X133764000Y-99944000D01*
D38*
%TO.N,Net-(C14-Pad1)*%
X122300000Y-93300000D02*
X121340000Y-93300000D01*
X122300000Y-94040000D02*
X122300000Y-93300000D01*
X123010000Y-94750000D02*
X122300000Y-94040000D01*
X121340000Y-93300000D02*
X121000000Y-92960000D01*
D39*
%TO.N,XTAL_N*%
X123300000Y-95400000D02*
X123115519Y-95400000D01*
X123543600Y-92200000D02*
X123000000Y-92743600D01*
X123880000Y-92020000D02*
X123700000Y-92200000D01*
X123600000Y-94500000D02*
X123600000Y-95100000D01*
X122600000Y-95915519D02*
X122600000Y-96305000D01*
X125000000Y-92020000D02*
X123880000Y-92020000D01*
X123600000Y-95100000D02*
X123300000Y-95400000D01*
X123115519Y-95400000D02*
X122600000Y-95915519D01*
X123700000Y-92200000D02*
X123543600Y-92200000D01*
X123000000Y-92743600D02*
X123000000Y-93900000D01*
X123000000Y-93900000D02*
X123600000Y-94500000D01*
%TO.N,USB_D-*%
X131434170Y-98953200D02*
X129200000Y-101187370D01*
X133010000Y-99000000D02*
X132259999Y-99000000D01*
X129005000Y-104005000D02*
X127510000Y-105500000D01*
X129200000Y-103810000D02*
X129005000Y-104005000D01*
X129200000Y-101187370D02*
X129200000Y-103810000D01*
X132213199Y-98953200D02*
X131434170Y-98953200D01*
D38*
X129005000Y-104005000D02*
X129200000Y-104200000D01*
X106350000Y-99750000D02*
X106400000Y-99800000D01*
X129200000Y-104200000D02*
X129600000Y-104200000D01*
D39*
X132259999Y-99000000D02*
X132213199Y-98953200D01*
D38*
X104400000Y-99750000D02*
X106350000Y-99750000D01*
D39*
%TO.N,USB_D+*%
X131265830Y-98546800D02*
X128800000Y-101012630D01*
D38*
X106350000Y-97750000D02*
X104400000Y-97750000D01*
D39*
X128617632Y-103817632D02*
X127935263Y-104500000D01*
X133010000Y-98500000D02*
X132259999Y-98500000D01*
X132259999Y-98500000D02*
X132213199Y-98546800D01*
X132213199Y-98546800D02*
X131265830Y-98546800D01*
X128800000Y-102400000D02*
X128800000Y-103635263D01*
X127935263Y-104500000D02*
X127510000Y-104500000D01*
X128800000Y-103635263D02*
X128617632Y-103817632D01*
D38*
X128617632Y-103817632D02*
X128200000Y-103400000D01*
D39*
X128800000Y-101012630D02*
X128800000Y-102400000D01*
D38*
X106400000Y-97800000D02*
X106350000Y-97750000D01*
D36*
%TO.N,Net-(P1-PadA5)*%
X133010000Y-98000000D02*
X130690000Y-98000000D01*
X130690000Y-98000000D02*
X130300000Y-97610000D01*
%TO.N,Net-(P1-PadB5)*%
X130300000Y-101790000D02*
X130300000Y-101000000D01*
D39*
%TO.N,XTAL_P*%
X122200000Y-94960000D02*
X121990000Y-94750000D01*
X122200000Y-96305000D02*
X122200000Y-94960000D01*
D38*
%TO.N,Net-(R3-Pad1)*%
X125400000Y-104410000D02*
X126490000Y-105500000D01*
X125400000Y-103195000D02*
X125400000Y-104410000D01*
%TO.N,Net-(R4-Pad1)*%
X125800000Y-103810000D02*
X126490000Y-104500000D01*
X125800000Y-103195000D02*
X125800000Y-103810000D01*
D36*
%TO.N,BOOT*%
X109825000Y-99825000D02*
X109825000Y-95675000D01*
D38*
X111800000Y-101800000D02*
X109825000Y-99825000D01*
X119100000Y-102000000D02*
X117407456Y-102000000D01*
X119881200Y-101218800D02*
X119100000Y-102000000D01*
X119881200Y-98918800D02*
X119881200Y-101218800D01*
X120050000Y-98750000D02*
X119881200Y-98918800D01*
X120555000Y-98750000D02*
X120050000Y-98750000D01*
X117207456Y-101800000D02*
X111800000Y-101800000D01*
X117407456Y-102000000D02*
X117207456Y-101800000D01*
D35*
%TO.N,Net-(AE1-Pad1)*%
X117335875Y-94657053D02*
X116589411Y-93910589D01*
X114710000Y-92750000D02*
X115263137Y-92750000D01*
X115545980Y-92867158D02*
X116589411Y-93910589D01*
X117407053Y-94657053D02*
X117335875Y-94657053D01*
D37*
%TO.N,Net-(D1-Pad2)*%
X104400000Y-102250000D02*
X107050000Y-102250000D01*
X107050000Y-102250000D02*
X107500000Y-102700000D01*
%TD*%
%TA.AperFunction,Conductor*%
%TO.N,+5V*%
G36*
X110076121Y-101366002D02*
G01*
X110122614Y-101419658D01*
X110134000Y-101472000D01*
X110134000Y-102398602D01*
X110124121Y-102432248D01*
X110125007Y-102432441D01*
X110116500Y-102471548D01*
X110116500Y-103065500D01*
X110096498Y-103133621D01*
X110042842Y-103180114D01*
X109990500Y-103191500D01*
X109283498Y-103191500D01*
X109281050Y-103191693D01*
X109281042Y-103191693D01*
X109252579Y-103193933D01*
X109252574Y-103193934D01*
X109246169Y-103194438D01*
X109146231Y-103223472D01*
X109094012Y-103238643D01*
X109094010Y-103238644D01*
X109086399Y-103240855D01*
X109079572Y-103244892D01*
X109079573Y-103244892D01*
X109009297Y-103286453D01*
X108945158Y-103304000D01*
X108713122Y-103304000D01*
X108699591Y-103307973D01*
X108698456Y-103315871D01*
X108739107Y-103455790D01*
X108747128Y-103474326D01*
X108755824Y-103544788D01*
X108747128Y-103574404D01*
X108744889Y-103579577D01*
X108740855Y-103586399D01*
X108694438Y-103746169D01*
X108691500Y-103783498D01*
X108691500Y-104216502D01*
X108694438Y-104253831D01*
X108740855Y-104413601D01*
X108744889Y-104420423D01*
X108747128Y-104425596D01*
X108755824Y-104496058D01*
X108747128Y-104525674D01*
X108739107Y-104544210D01*
X108700061Y-104678605D01*
X108700101Y-104692706D01*
X108707370Y-104696000D01*
X108945158Y-104696000D01*
X109009297Y-104713547D01*
X109086399Y-104759145D01*
X109094010Y-104761356D01*
X109094012Y-104761357D01*
X109102604Y-104763853D01*
X109246169Y-104805562D01*
X109252574Y-104806066D01*
X109252579Y-104806067D01*
X109281042Y-104808307D01*
X109281050Y-104808307D01*
X109283498Y-104808500D01*
X109990500Y-104808500D01*
X110058621Y-104828502D01*
X110105114Y-104882158D01*
X110116500Y-104934500D01*
X110116500Y-105078000D01*
X110096498Y-105146121D01*
X110042842Y-105192614D01*
X109990500Y-105204000D01*
X108713122Y-105204000D01*
X108699591Y-105207973D01*
X108698456Y-105215871D01*
X108739107Y-105355790D01*
X108745352Y-105370221D01*
X108763768Y-105401361D01*
X108781227Y-105470177D01*
X108758710Y-105537509D01*
X108703366Y-105581978D01*
X108655314Y-105591500D01*
X108304572Y-105591500D01*
X108236451Y-105571498D01*
X108189958Y-105517842D01*
X108179854Y-105447568D01*
X108194052Y-105404992D01*
X108203321Y-105388061D01*
X108248478Y-105267606D01*
X108252105Y-105252351D01*
X108257631Y-105201486D01*
X108258000Y-105194672D01*
X108258000Y-105168115D01*
X108253525Y-105152876D01*
X108252135Y-105151671D01*
X108244452Y-105150000D01*
X106760116Y-105150000D01*
X106744877Y-105154475D01*
X106743672Y-105155865D01*
X106742001Y-105163548D01*
X106742001Y-105194669D01*
X106742371Y-105201490D01*
X106747895Y-105252352D01*
X106751521Y-105267604D01*
X106796679Y-105388061D01*
X106805948Y-105404992D01*
X106821117Y-105474349D01*
X106796380Y-105540897D01*
X106739592Y-105583507D01*
X106695428Y-105591500D01*
X106326000Y-105591500D01*
X106257879Y-105571498D01*
X106211386Y-105517842D01*
X106200000Y-105465500D01*
X106200000Y-104631885D01*
X106742000Y-104631885D01*
X106746475Y-104647124D01*
X106747865Y-104648329D01*
X106755548Y-104650000D01*
X107231885Y-104650000D01*
X107247124Y-104645525D01*
X107248329Y-104644135D01*
X107250000Y-104636452D01*
X107250000Y-104631885D01*
X107750000Y-104631885D01*
X107754475Y-104647124D01*
X107755865Y-104648329D01*
X107763548Y-104650000D01*
X108239884Y-104650000D01*
X108255123Y-104645525D01*
X108256328Y-104644135D01*
X108257999Y-104636452D01*
X108257999Y-104605331D01*
X108257629Y-104598510D01*
X108252105Y-104547648D01*
X108248479Y-104532396D01*
X108203324Y-104411946D01*
X108194786Y-104396351D01*
X108118285Y-104294276D01*
X108105724Y-104281715D01*
X108003649Y-104205214D01*
X107988054Y-104196676D01*
X107867606Y-104151522D01*
X107852351Y-104147895D01*
X107801486Y-104142369D01*
X107794672Y-104142000D01*
X107768115Y-104142000D01*
X107752876Y-104146475D01*
X107751671Y-104147865D01*
X107750000Y-104155548D01*
X107750000Y-104631885D01*
X107250000Y-104631885D01*
X107250000Y-104160116D01*
X107245525Y-104144877D01*
X107244135Y-104143672D01*
X107236452Y-104142001D01*
X107205331Y-104142001D01*
X107198510Y-104142371D01*
X107147648Y-104147895D01*
X107132396Y-104151521D01*
X107011946Y-104196676D01*
X106996351Y-104205214D01*
X106894276Y-104281715D01*
X106881715Y-104294276D01*
X106805214Y-104396351D01*
X106796676Y-104411946D01*
X106751522Y-104532394D01*
X106747895Y-104547649D01*
X106742369Y-104598514D01*
X106742000Y-104605328D01*
X106742000Y-104631885D01*
X106200000Y-104631885D01*
X106200000Y-103265500D01*
X106220002Y-103197379D01*
X106273658Y-103150886D01*
X106326000Y-103139500D01*
X106629367Y-103139500D01*
X106697488Y-103159502D01*
X106718462Y-103176405D01*
X106903994Y-103361937D01*
X106906569Y-103364022D01*
X107007742Y-103445951D01*
X107007746Y-103445953D01*
X107012875Y-103450107D01*
X107179475Y-103534994D01*
X107185848Y-103536702D01*
X107185849Y-103536702D01*
X107353709Y-103581680D01*
X107353713Y-103581681D01*
X107360085Y-103583388D01*
X107366677Y-103583733D01*
X107366680Y-103583734D01*
X107540218Y-103592829D01*
X107540223Y-103592829D01*
X107546810Y-103593174D01*
X107553325Y-103592142D01*
X107553327Y-103592142D01*
X107613627Y-103582591D01*
X107731488Y-103563924D01*
X107737647Y-103561560D01*
X107737650Y-103561559D01*
X107899886Y-103499282D01*
X107899888Y-103499281D01*
X107906049Y-103496916D01*
X108062864Y-103395079D01*
X108195079Y-103262864D01*
X108296916Y-103106049D01*
X108311877Y-103067075D01*
X108361559Y-102937650D01*
X108361560Y-102937647D01*
X108363924Y-102931488D01*
X108393174Y-102746810D01*
X108387041Y-102629775D01*
X108383734Y-102566680D01*
X108383733Y-102566677D01*
X108383388Y-102560085D01*
X108374434Y-102526668D01*
X108376122Y-102455691D01*
X108415916Y-102396895D01*
X108481180Y-102368946D01*
X108531292Y-102373058D01*
X108619217Y-102398602D01*
X108677631Y-102415573D01*
X108677634Y-102415574D01*
X108677745Y-102415606D01*
X108677739Y-102415627D01*
X108739010Y-102446463D01*
X108775104Y-102507599D01*
X108772416Y-102578545D01*
X108761405Y-102602633D01*
X108745354Y-102629775D01*
X108739107Y-102644210D01*
X108700061Y-102778605D01*
X108700101Y-102792706D01*
X108707370Y-102796000D01*
X109590385Y-102796000D01*
X109605624Y-102791525D01*
X109606829Y-102790135D01*
X109608500Y-102782452D01*
X109608500Y-102261398D01*
X109618379Y-102227752D01*
X109617493Y-102227559D01*
X109626000Y-102188452D01*
X109626000Y-102121379D01*
X109643546Y-102057240D01*
X109655859Y-102036420D01*
X109655859Y-102036419D01*
X109659894Y-102029597D01*
X109705606Y-101872254D01*
X109706118Y-101865756D01*
X109708307Y-101837940D01*
X109708307Y-101837932D01*
X109708500Y-101835484D01*
X109708500Y-101472000D01*
X109728502Y-101403879D01*
X109782158Y-101357386D01*
X109834500Y-101346000D01*
X110008000Y-101346000D01*
X110076121Y-101366002D01*
G37*
%TD.AperFunction*%
%TD*%
%TA.AperFunction,Conductor*%
%TO.N,GND*%
G36*
X132094413Y-99282884D02*
G01*
X132119799Y-99300659D01*
X132121191Y-99301032D01*
X132121193Y-99301033D01*
X132131803Y-99303876D01*
X132135778Y-99305522D01*
X132146537Y-99311734D01*
X132147959Y-99311985D01*
X132147960Y-99311985D01*
X132188500Y-99319133D01*
X132189906Y-99319444D01*
X132227663Y-99329561D01*
X132231085Y-99330478D01*
X132241562Y-99329561D01*
X132253606Y-99333358D01*
X132259437Y-99344559D01*
X132259500Y-99345998D01*
X132259500Y-99636988D01*
X132254667Y-99648655D01*
X132250837Y-99651508D01*
X132228905Y-99663342D01*
X132228212Y-99663695D01*
X132198613Y-99677908D01*
X132179934Y-99686877D01*
X132175685Y-99690450D01*
X132173901Y-99692234D01*
X132170069Y-99695088D01*
X132166630Y-99696943D01*
X132166628Y-99696945D01*
X132165428Y-99697592D01*
X132164071Y-99699060D01*
X132127567Y-99738550D01*
X132127118Y-99739017D01*
X131962887Y-99903248D01*
X131951220Y-99908081D01*
X131949067Y-99907940D01*
X131900000Y-99901480D01*
X131898929Y-99901621D01*
X131746160Y-99921733D01*
X131746157Y-99921734D01*
X131745092Y-99921874D01*
X131744095Y-99922287D01*
X131667919Y-99953840D01*
X131600740Y-99981666D01*
X131599880Y-99982326D01*
X131599878Y-99982327D01*
X131497755Y-100060689D01*
X131476782Y-100076782D01*
X131476126Y-100077637D01*
X131382802Y-100199260D01*
X131381666Y-100200740D01*
X131381250Y-100201743D01*
X131381250Y-100201744D01*
X131340247Y-100300735D01*
X131321874Y-100345092D01*
X131321734Y-100346157D01*
X131321733Y-100346160D01*
X131308596Y-100445950D01*
X131301480Y-100500000D01*
X131301621Y-100501071D01*
X131317554Y-100622092D01*
X131321874Y-100654908D01*
X131322287Y-100655905D01*
X131381055Y-100797784D01*
X131381666Y-100799260D01*
X131382326Y-100800120D01*
X131382327Y-100800122D01*
X131451941Y-100890845D01*
X131476782Y-100923218D01*
X131492855Y-100935551D01*
X131599878Y-101017673D01*
X131599880Y-101017674D01*
X131600740Y-101018334D01*
X131601743Y-101018750D01*
X131601744Y-101018750D01*
X131665828Y-101045294D01*
X131745092Y-101078126D01*
X131746157Y-101078266D01*
X131746160Y-101078267D01*
X131898929Y-101098379D01*
X131900000Y-101098520D01*
X131901071Y-101098379D01*
X132053840Y-101078267D01*
X132053843Y-101078266D01*
X132054908Y-101078126D01*
X132134172Y-101045294D01*
X132198256Y-101018750D01*
X132198257Y-101018750D01*
X132199260Y-101018334D01*
X132200120Y-101017674D01*
X132200122Y-101017673D01*
X132232955Y-100992479D01*
X132245154Y-100989210D01*
X132256090Y-100995524D01*
X132259500Y-101005569D01*
X132259500Y-101214674D01*
X132265452Y-101244592D01*
X132266142Y-101248063D01*
X132266142Y-101254501D01*
X132260159Y-101284577D01*
X132260000Y-101286191D01*
X132260000Y-101321717D01*
X132260962Y-101324038D01*
X132263283Y-101325000D01*
X132290111Y-101325000D01*
X132301778Y-101329833D01*
X132303828Y-101332330D01*
X132329399Y-101370601D01*
X132412260Y-101425966D01*
X132485326Y-101440500D01*
X133168500Y-101440500D01*
X133180167Y-101445333D01*
X133185000Y-101457000D01*
X133185000Y-101562801D01*
X133180167Y-101574468D01*
X133173952Y-101578374D01*
X133109636Y-101600879D01*
X133108856Y-101601369D01*
X133108854Y-101601370D01*
X133049614Y-101638593D01*
X133004597Y-101666879D01*
X133001309Y-101670167D01*
X132989642Y-101675000D01*
X132263283Y-101675000D01*
X132260962Y-101675962D01*
X132260000Y-101678283D01*
X132260000Y-101713809D01*
X132260159Y-101715423D01*
X132274188Y-101785950D01*
X132275409Y-101788898D01*
X132328858Y-101868890D01*
X132331110Y-101871142D01*
X132411102Y-101924591D01*
X132414050Y-101925812D01*
X132484577Y-101939841D01*
X132486191Y-101940000D01*
X132799504Y-101940000D01*
X132811171Y-101944833D01*
X132816004Y-101956500D01*
X132815078Y-101961948D01*
X132809907Y-101976727D01*
X132803081Y-102037309D01*
X132797957Y-102082782D01*
X132797744Y-102084153D01*
X132794592Y-102100000D01*
X132794909Y-102101594D01*
X132799183Y-102123080D01*
X132799500Y-102126299D01*
X132799500Y-105833000D01*
X132794667Y-105844667D01*
X132783000Y-105849500D01*
X128020141Y-105849500D01*
X128008474Y-105844667D01*
X128003641Y-105833000D01*
X128005317Y-105825754D01*
X128018978Y-105797808D01*
X128018978Y-105797807D01*
X128019541Y-105796656D01*
X128029096Y-105731157D01*
X128030413Y-105722133D01*
X128030413Y-105722130D01*
X128030500Y-105721535D01*
X128030499Y-105448359D01*
X128035332Y-105436692D01*
X128996888Y-104475136D01*
X129008555Y-104470303D01*
X129016805Y-104472514D01*
X129023196Y-104476204D01*
X129024410Y-104476977D01*
X129029132Y-104480283D01*
X129059414Y-104501487D01*
X129060806Y-104501860D01*
X129060808Y-104501861D01*
X129071456Y-104504714D01*
X129075430Y-104506360D01*
X129086226Y-104512593D01*
X129087648Y-104512844D01*
X129089004Y-104513337D01*
X129088754Y-104514023D01*
X129096690Y-104518840D01*
X129176122Y-104622359D01*
X129176126Y-104622363D01*
X129176782Y-104623218D01*
X129183383Y-104628283D01*
X129299878Y-104717673D01*
X129299880Y-104717674D01*
X129300740Y-104718334D01*
X129301743Y-104718750D01*
X129301744Y-104718750D01*
X129316833Y-104725000D01*
X129445092Y-104778126D01*
X129446157Y-104778266D01*
X129446160Y-104778267D01*
X129598929Y-104798379D01*
X129600000Y-104798520D01*
X129601071Y-104798379D01*
X129753840Y-104778267D01*
X129753843Y-104778266D01*
X129754908Y-104778126D01*
X129883167Y-104725000D01*
X129898256Y-104718750D01*
X129898257Y-104718750D01*
X129899260Y-104718334D01*
X129900120Y-104717674D01*
X129900122Y-104717673D01*
X130016617Y-104628283D01*
X130023218Y-104623218D01*
X130069570Y-104562811D01*
X130117673Y-104500122D01*
X130117674Y-104500120D01*
X130118334Y-104499260D01*
X130125613Y-104481688D01*
X130177713Y-104355905D01*
X130178126Y-104354908D01*
X130178649Y-104350940D01*
X130198379Y-104201071D01*
X130198520Y-104200000D01*
X130194592Y-104170167D01*
X130178267Y-104046160D01*
X130178266Y-104046157D01*
X130178126Y-104045092D01*
X130144325Y-103963488D01*
X130118750Y-103901744D01*
X130118750Y-103901743D01*
X130118334Y-103900740D01*
X130113889Y-103894946D01*
X130023874Y-103777637D01*
X130023218Y-103776782D01*
X129995470Y-103755490D01*
X129900122Y-103682327D01*
X129900120Y-103682326D01*
X129899260Y-103681666D01*
X129898237Y-103681242D01*
X129755905Y-103622287D01*
X129754908Y-103621874D01*
X129753843Y-103621734D01*
X129753840Y-103621733D01*
X129601071Y-103601621D01*
X129600000Y-103601480D01*
X129598929Y-103601621D01*
X129545354Y-103608674D01*
X129533155Y-103605405D01*
X129526841Y-103594469D01*
X129526700Y-103592315D01*
X129526700Y-102987422D01*
X129730873Y-102987422D01*
X129740952Y-103055894D01*
X129741705Y-103058316D01*
X129797024Y-103170990D01*
X129798595Y-103173183D01*
X129887371Y-103261804D01*
X129889564Y-103263368D01*
X130002337Y-103318493D01*
X130004759Y-103319241D01*
X130077908Y-103329913D01*
X130079109Y-103330000D01*
X130121717Y-103330000D01*
X130124038Y-103329038D01*
X130125000Y-103326717D01*
X130475000Y-103326717D01*
X130475962Y-103329038D01*
X130478283Y-103330000D01*
X130520890Y-103330000D01*
X130522092Y-103329912D01*
X130595894Y-103319048D01*
X130598316Y-103318295D01*
X130710990Y-103262976D01*
X130713183Y-103261405D01*
X130801804Y-103172629D01*
X130803368Y-103170436D01*
X130858493Y-103057663D01*
X130859241Y-103055241D01*
X130869015Y-102988249D01*
X130868399Y-102985813D01*
X130867035Y-102985000D01*
X130478283Y-102985000D01*
X130475962Y-102985962D01*
X130475000Y-102988283D01*
X130475000Y-103326717D01*
X130125000Y-103326717D01*
X130125000Y-102988283D01*
X130124038Y-102985962D01*
X130121717Y-102985000D01*
X129733799Y-102985000D01*
X129731478Y-102985962D01*
X129730873Y-102987422D01*
X129526700Y-102987422D01*
X129526700Y-101329528D01*
X129531533Y-101317861D01*
X129696391Y-101153003D01*
X129708058Y-101148170D01*
X129719725Y-101153003D01*
X129723302Y-101158356D01*
X129751084Y-101225429D01*
X129781666Y-101299260D01*
X129782326Y-101300120D01*
X129782327Y-101300122D01*
X129804891Y-101329528D01*
X129835311Y-101369171D01*
X129835323Y-101369187D01*
X129838592Y-101381386D01*
X129833910Y-101390888D01*
X129822558Y-101402260D01*
X129799858Y-101425000D01*
X129796819Y-101428044D01*
X129782665Y-101457000D01*
X129752605Y-101518497D01*
X129740459Y-101543344D01*
X129735349Y-101578375D01*
X129730158Y-101613958D01*
X129729500Y-101618465D01*
X129729501Y-101961534D01*
X129729589Y-101962131D01*
X129729589Y-101962133D01*
X129735299Y-102000926D01*
X129740654Y-102037309D01*
X129761379Y-102079521D01*
X129796613Y-102151284D01*
X129796615Y-102151287D01*
X129797216Y-102152511D01*
X129798184Y-102153477D01*
X129886677Y-102241816D01*
X129888044Y-102243181D01*
X129923673Y-102260597D01*
X129974461Y-102285423D01*
X129982821Y-102294889D01*
X129982039Y-102307493D01*
X129974487Y-102315058D01*
X129889010Y-102357025D01*
X129886817Y-102358595D01*
X129798196Y-102447371D01*
X129796632Y-102449564D01*
X129741507Y-102562337D01*
X129740759Y-102564759D01*
X129730985Y-102631751D01*
X129731601Y-102634187D01*
X129732965Y-102635000D01*
X130866201Y-102635000D01*
X130868522Y-102634038D01*
X130869127Y-102632578D01*
X130859048Y-102564106D01*
X130858295Y-102561684D01*
X130802976Y-102449010D01*
X130801405Y-102446817D01*
X130712629Y-102358196D01*
X130710436Y-102356632D01*
X130625539Y-102315133D01*
X130617179Y-102305667D01*
X130617961Y-102293063D01*
X130625512Y-102285499D01*
X130685834Y-102255882D01*
X130711284Y-102243387D01*
X130711287Y-102243385D01*
X130712511Y-102242784D01*
X130774607Y-102180580D01*
X130802216Y-102152923D01*
X130802217Y-102152922D01*
X130803181Y-102151956D01*
X130859541Y-102036656D01*
X130866958Y-101985812D01*
X130870413Y-101962133D01*
X130870413Y-101962130D01*
X130870500Y-101961535D01*
X130870499Y-101618466D01*
X130869836Y-101613958D01*
X130859533Y-101543961D01*
X130859346Y-101542691D01*
X130836194Y-101495537D01*
X130803387Y-101428716D01*
X130803385Y-101428713D01*
X130802784Y-101427489D01*
X130801818Y-101426524D01*
X130801816Y-101426522D01*
X130766124Y-101390892D01*
X130761281Y-101379229D01*
X130764691Y-101369171D01*
X130817671Y-101300126D01*
X130817676Y-101300118D01*
X130818334Y-101299260D01*
X130849568Y-101223855D01*
X130877713Y-101155905D01*
X130878126Y-101154908D01*
X130878980Y-101148427D01*
X130898379Y-101001071D01*
X130898520Y-101000000D01*
X130892361Y-100953219D01*
X130878267Y-100846160D01*
X130878266Y-100846157D01*
X130878126Y-100845092D01*
X130820930Y-100707007D01*
X130818750Y-100701744D01*
X130818750Y-100701743D01*
X130818334Y-100700740D01*
X130814762Y-100696084D01*
X130723874Y-100577637D01*
X130723218Y-100576782D01*
X130694616Y-100554835D01*
X130600122Y-100482327D01*
X130600120Y-100482326D01*
X130599260Y-100481666D01*
X130594084Y-100479522D01*
X130458356Y-100423302D01*
X130449426Y-100414372D01*
X130449426Y-100401744D01*
X130453003Y-100396391D01*
X131564661Y-99284733D01*
X131576328Y-99279900D01*
X132084950Y-99279900D01*
X132094413Y-99282884D01*
G37*
%TD.AperFunction*%
%TA.AperFunction,Conductor*%
G36*
X119898530Y-101688100D02*
G01*
X119903046Y-101696548D01*
X119909884Y-101730927D01*
X119911762Y-101740364D01*
X119913038Y-101746781D01*
X119913038Y-101753217D01*
X119899500Y-101821277D01*
X119899501Y-102078722D01*
X119910312Y-102133074D01*
X119913038Y-102146781D01*
X119913038Y-102153217D01*
X119899500Y-102221277D01*
X119899501Y-102478722D01*
X119914417Y-102553715D01*
X119971241Y-102638759D01*
X120056285Y-102695583D01*
X120131277Y-102710500D01*
X120555000Y-102710500D01*
X120978722Y-102710499D01*
X121033247Y-102699654D01*
X121045633Y-102702118D01*
X121052649Y-102712618D01*
X121052649Y-102719054D01*
X121039500Y-102785159D01*
X121039501Y-103604840D01*
X121055310Y-103684324D01*
X121115538Y-103774462D01*
X121116888Y-103775364D01*
X121197704Y-103829363D01*
X121205676Y-103834690D01*
X121285159Y-103850500D01*
X121400000Y-103850500D01*
X121514840Y-103850499D01*
X121567446Y-103840036D01*
X121592731Y-103835007D01*
X121592732Y-103835007D01*
X121594324Y-103834690D01*
X121594441Y-103834612D01*
X121605559Y-103834612D01*
X121605676Y-103834690D01*
X121607268Y-103835007D01*
X121607269Y-103835007D01*
X121657984Y-103845095D01*
X121685159Y-103850500D01*
X121800000Y-103850500D01*
X121914840Y-103850499D01*
X121967446Y-103840036D01*
X121992731Y-103835007D01*
X121992732Y-103835007D01*
X121994324Y-103834690D01*
X121994441Y-103834612D01*
X122005559Y-103834612D01*
X122005676Y-103834690D01*
X122007268Y-103835007D01*
X122007269Y-103835007D01*
X122057984Y-103845095D01*
X122085159Y-103850500D01*
X122200000Y-103850500D01*
X122314840Y-103850499D01*
X122367446Y-103840036D01*
X122392731Y-103835007D01*
X122392732Y-103835007D01*
X122394324Y-103834690D01*
X122394441Y-103834612D01*
X122405559Y-103834612D01*
X122405676Y-103834690D01*
X122407268Y-103835007D01*
X122407269Y-103835007D01*
X122457984Y-103845095D01*
X122485159Y-103850500D01*
X122600000Y-103850500D01*
X122714840Y-103850499D01*
X122767446Y-103840036D01*
X122792731Y-103835007D01*
X122792732Y-103835007D01*
X122794324Y-103834690D01*
X122794441Y-103834612D01*
X122805559Y-103834612D01*
X122805676Y-103834690D01*
X122807268Y-103835007D01*
X122807269Y-103835007D01*
X122857984Y-103845095D01*
X122885159Y-103850500D01*
X122891624Y-103850500D01*
X123006000Y-103850499D01*
X123017667Y-103855332D01*
X123022500Y-103866999D01*
X123022500Y-104037346D01*
X123017667Y-104049013D01*
X123013494Y-104052046D01*
X123009245Y-104054212D01*
X122996655Y-104055205D01*
X122991706Y-104052602D01*
X122990982Y-104052046D01*
X122920266Y-103997784D01*
X122900122Y-103982327D01*
X122900120Y-103982326D01*
X122899260Y-103981666D01*
X122832560Y-103954038D01*
X122755905Y-103922287D01*
X122754908Y-103921874D01*
X122753843Y-103921734D01*
X122753840Y-103921733D01*
X122601071Y-103901621D01*
X122600000Y-103901480D01*
X122598929Y-103901621D01*
X122446160Y-103921733D01*
X122446157Y-103921734D01*
X122445092Y-103921874D01*
X122444095Y-103922287D01*
X122367441Y-103954038D01*
X122300740Y-103981666D01*
X122299880Y-103982326D01*
X122299878Y-103982327D01*
X122212971Y-104049013D01*
X122176782Y-104076782D01*
X122168882Y-104087077D01*
X122083056Y-104198929D01*
X122081666Y-104200740D01*
X122081250Y-104201743D01*
X122081250Y-104201744D01*
X122051195Y-104274304D01*
X122021874Y-104345092D01*
X122021734Y-104346157D01*
X122021733Y-104346160D01*
X122012782Y-104414151D01*
X122001480Y-104500000D01*
X122001621Y-104501071D01*
X122021461Y-104651768D01*
X122021874Y-104654908D01*
X122022287Y-104655905D01*
X122048340Y-104718802D01*
X122081666Y-104799260D01*
X122082326Y-104800120D01*
X122082327Y-104800122D01*
X122152243Y-104891238D01*
X122176782Y-104923218D01*
X122177637Y-104923874D01*
X122299878Y-105017673D01*
X122299880Y-105017674D01*
X122300740Y-105018334D01*
X122445092Y-105078126D01*
X122446157Y-105078266D01*
X122446160Y-105078267D01*
X122598929Y-105098379D01*
X122600000Y-105098520D01*
X122601071Y-105098379D01*
X122753840Y-105078267D01*
X122753843Y-105078266D01*
X122754908Y-105078126D01*
X122899260Y-105018334D01*
X122965201Y-104967736D01*
X122977397Y-104964468D01*
X122986910Y-104969160D01*
X122997609Y-104979859D01*
X123007846Y-104985075D01*
X123008835Y-104985579D01*
X123017036Y-104995182D01*
X123016046Y-105007772D01*
X123008835Y-105014983D01*
X122999060Y-105019964D01*
X122996990Y-105021468D01*
X122911468Y-105106990D01*
X122909964Y-105109060D01*
X122855054Y-105216824D01*
X122854262Y-105219264D01*
X122841195Y-105301759D01*
X122841782Y-105304201D01*
X122843086Y-105305000D01*
X123956033Y-105305000D01*
X123958354Y-105304038D01*
X123958940Y-105302625D01*
X123945738Y-105219264D01*
X123944946Y-105216824D01*
X123890036Y-105109060D01*
X123888532Y-105106990D01*
X123803010Y-105021468D01*
X123800940Y-105019964D01*
X123791165Y-105014983D01*
X123782964Y-105005380D01*
X123783954Y-104992790D01*
X123791165Y-104985579D01*
X123792154Y-104985075D01*
X123802391Y-104979859D01*
X123889859Y-104892391D01*
X123937761Y-104798379D01*
X123945428Y-104783332D01*
X123945429Y-104783329D01*
X123946017Y-104782175D01*
X123960500Y-104690735D01*
X123960499Y-104349266D01*
X123946017Y-104257825D01*
X123945429Y-104256671D01*
X123945428Y-104256668D01*
X123916008Y-104198929D01*
X123889859Y-104147609D01*
X123802391Y-104060141D01*
X123801237Y-104059553D01*
X123801233Y-104059550D01*
X123786509Y-104052047D01*
X123778307Y-104042444D01*
X123777500Y-104037346D01*
X123777500Y-103867000D01*
X123782333Y-103855333D01*
X123794000Y-103850500D01*
X123908376Y-103850499D01*
X123914840Y-103850499D01*
X123967446Y-103840036D01*
X123992731Y-103835007D01*
X123992732Y-103835007D01*
X123994324Y-103834690D01*
X123994441Y-103834612D01*
X124005559Y-103834612D01*
X124005676Y-103834690D01*
X124007268Y-103835007D01*
X124007269Y-103835007D01*
X124057984Y-103845095D01*
X124085159Y-103850500D01*
X124200000Y-103850500D01*
X124314840Y-103850499D01*
X124367446Y-103840036D01*
X124392731Y-103835007D01*
X124392732Y-103835007D01*
X124394324Y-103834690D01*
X124394441Y-103834612D01*
X124405559Y-103834612D01*
X124405676Y-103834690D01*
X124407268Y-103835007D01*
X124407269Y-103835007D01*
X124457984Y-103845095D01*
X124485159Y-103850500D01*
X124600000Y-103850500D01*
X124714840Y-103850499D01*
X124767446Y-103840036D01*
X124792731Y-103835007D01*
X124792732Y-103835007D01*
X124794324Y-103834690D01*
X124794441Y-103834612D01*
X124805559Y-103834612D01*
X124805676Y-103834690D01*
X124807268Y-103835007D01*
X124807269Y-103835007D01*
X124857984Y-103845095D01*
X124885159Y-103850500D01*
X124893972Y-103850500D01*
X125055900Y-103850499D01*
X125067567Y-103855332D01*
X125072400Y-103866999D01*
X125072400Y-104394978D01*
X125072337Y-104396416D01*
X125068612Y-104438993D01*
X125068985Y-104440385D01*
X125068985Y-104440386D01*
X125079675Y-104480283D01*
X125079986Y-104481688D01*
X125084978Y-104509999D01*
X125087407Y-104523774D01*
X125093640Y-104534570D01*
X125095286Y-104538544D01*
X125098513Y-104550586D01*
X125123029Y-104585598D01*
X125123802Y-104586812D01*
X125145172Y-104623826D01*
X125146279Y-104624755D01*
X125177925Y-104651309D01*
X125178986Y-104652282D01*
X125964667Y-105437963D01*
X125969500Y-105449630D01*
X125969501Y-105721534D01*
X125969589Y-105722131D01*
X125969589Y-105722133D01*
X125971063Y-105732147D01*
X125980654Y-105797309D01*
X125981220Y-105798461D01*
X125994607Y-105825728D01*
X125995411Y-105838331D01*
X125987068Y-105847811D01*
X125979796Y-105849500D01*
X123917696Y-105849500D01*
X123906029Y-105844667D01*
X123901196Y-105833000D01*
X123902994Y-105825509D01*
X123944946Y-105743176D01*
X123945738Y-105740736D01*
X123958805Y-105658241D01*
X123958218Y-105655799D01*
X123956914Y-105655000D01*
X122843967Y-105655000D01*
X122841646Y-105655962D01*
X122841060Y-105657375D01*
X122854262Y-105740736D01*
X122855054Y-105743176D01*
X122897006Y-105825509D01*
X122897996Y-105838099D01*
X122889795Y-105847702D01*
X122882304Y-105849500D01*
X109197537Y-105849500D01*
X109185870Y-105844667D01*
X109181037Y-105833000D01*
X109182793Y-105825593D01*
X109232525Y-105726593D01*
X109242081Y-105718337D01*
X109247269Y-105717500D01*
X109990500Y-105717500D01*
X110099649Y-105705766D01*
X110100072Y-105705674D01*
X110100078Y-105705673D01*
X110151566Y-105694473D01*
X110151576Y-105694470D01*
X110151991Y-105694380D01*
X110256157Y-105659710D01*
X110259791Y-105657375D01*
X110307730Y-105626566D01*
X110379112Y-105580692D01*
X110432768Y-105534199D01*
X110466847Y-105494870D01*
X110476734Y-105489379D01*
X110500304Y-105485646D01*
X110501458Y-105485058D01*
X110501461Y-105485057D01*
X110570989Y-105449630D01*
X110613342Y-105428050D01*
X110703050Y-105338342D01*
X110730782Y-105283916D01*
X110760057Y-105226461D01*
X110760058Y-105226458D01*
X110760646Y-105225304D01*
X110775500Y-105131519D01*
X110775499Y-104768482D01*
X110775499Y-104768481D01*
X111224500Y-104768481D01*
X111224501Y-105131518D01*
X111239354Y-105225304D01*
X111239942Y-105226458D01*
X111239943Y-105226461D01*
X111269218Y-105283916D01*
X111296950Y-105338342D01*
X111386658Y-105428050D01*
X111429011Y-105449630D01*
X111498539Y-105485057D01*
X111498542Y-105485058D01*
X111499696Y-105485646D01*
X111593481Y-105500500D01*
X112137500Y-105500500D01*
X112681518Y-105500499D01*
X112775304Y-105485646D01*
X112776458Y-105485058D01*
X112776461Y-105485057D01*
X112845989Y-105449630D01*
X112888342Y-105428050D01*
X112978050Y-105338342D01*
X113005782Y-105283916D01*
X113035057Y-105226461D01*
X113035058Y-105226458D01*
X113035646Y-105225304D01*
X113050500Y-105131519D01*
X113050499Y-104768482D01*
X113035646Y-104674696D01*
X113035058Y-104673542D01*
X113035057Y-104673539D01*
X112992509Y-104590036D01*
X112978050Y-104561658D01*
X112888342Y-104471950D01*
X112831126Y-104442797D01*
X112776461Y-104414943D01*
X112776458Y-104414942D01*
X112775304Y-104414354D01*
X112681519Y-104399500D01*
X112680873Y-104399500D01*
X112137501Y-104399501D01*
X111593482Y-104399501D01*
X111499696Y-104414354D01*
X111498542Y-104414942D01*
X111498539Y-104414943D01*
X111443874Y-104442797D01*
X111386658Y-104471950D01*
X111296950Y-104561658D01*
X111282491Y-104590036D01*
X111239943Y-104673539D01*
X111239942Y-104673542D01*
X111239354Y-104674696D01*
X111224500Y-104768481D01*
X110775499Y-104768481D01*
X110760646Y-104674696D01*
X110760058Y-104673542D01*
X110760057Y-104673539D01*
X110717509Y-104590036D01*
X110703050Y-104561658D01*
X110627706Y-104486314D01*
X110622873Y-104474647D01*
X110627706Y-104462980D01*
X110701724Y-104388962D01*
X110703228Y-104386892D01*
X110759576Y-104276305D01*
X110760368Y-104273865D01*
X110774899Y-104182118D01*
X110775000Y-104180835D01*
X110775000Y-104178283D01*
X110774038Y-104175962D01*
X110771717Y-104175000D01*
X109704000Y-104175000D01*
X109692333Y-104170167D01*
X109687500Y-104158500D01*
X109687500Y-104157375D01*
X113191060Y-104157375D01*
X113204262Y-104240736D01*
X113205054Y-104243176D01*
X113259964Y-104350940D01*
X113261468Y-104353010D01*
X113346990Y-104438532D01*
X113349060Y-104440036D01*
X113456824Y-104494946D01*
X113459264Y-104495738D01*
X113548672Y-104509899D01*
X113549955Y-104510000D01*
X113571717Y-104510000D01*
X113574038Y-104509038D01*
X113575000Y-104506717D01*
X113575000Y-104506716D01*
X113925000Y-104506716D01*
X113925962Y-104509037D01*
X113928283Y-104509999D01*
X113950044Y-104509999D01*
X113951327Y-104509898D01*
X114040736Y-104495738D01*
X114043176Y-104494946D01*
X114150940Y-104440036D01*
X114153010Y-104438532D01*
X114238532Y-104353010D01*
X114240036Y-104350940D01*
X114268789Y-104294510D01*
X114525000Y-104294510D01*
X114525050Y-104295424D01*
X114531198Y-104352016D01*
X114531674Y-104354018D01*
X114578657Y-104479348D01*
X114579779Y-104481397D01*
X114659964Y-104588388D01*
X114661612Y-104590036D01*
X114768603Y-104670221D01*
X114770652Y-104671343D01*
X114895982Y-104718326D01*
X114897984Y-104718802D01*
X114954576Y-104724950D01*
X114955490Y-104725000D01*
X115071717Y-104725000D01*
X115074038Y-104724038D01*
X115075000Y-104721717D01*
X115425000Y-104721717D01*
X115425962Y-104724038D01*
X115428283Y-104725000D01*
X115544510Y-104725000D01*
X115545424Y-104724950D01*
X115602016Y-104718802D01*
X115604018Y-104718326D01*
X115729348Y-104671343D01*
X115731397Y-104670221D01*
X115838388Y-104590036D01*
X115840036Y-104588388D01*
X115920221Y-104481397D01*
X115921343Y-104479348D01*
X115968326Y-104354018D01*
X115968802Y-104352016D01*
X115974950Y-104295424D01*
X115975000Y-104294510D01*
X115975000Y-104203283D01*
X115974038Y-104200962D01*
X115971717Y-104200000D01*
X115428283Y-104200000D01*
X115425962Y-104200962D01*
X115425000Y-104203283D01*
X115425000Y-104721717D01*
X115075000Y-104721717D01*
X115075000Y-104203283D01*
X115074038Y-104200962D01*
X115071717Y-104200000D01*
X114528283Y-104200000D01*
X114525962Y-104200962D01*
X114525000Y-104203283D01*
X114525000Y-104294510D01*
X114268789Y-104294510D01*
X114294946Y-104243176D01*
X114295738Y-104240736D01*
X114308805Y-104158241D01*
X114308218Y-104155799D01*
X114306914Y-104155000D01*
X113928283Y-104155000D01*
X113925962Y-104155962D01*
X113925000Y-104158283D01*
X113925000Y-104506716D01*
X113575000Y-104506716D01*
X113575000Y-104158283D01*
X113574038Y-104155962D01*
X113571717Y-104155000D01*
X113193967Y-104155000D01*
X113191646Y-104155962D01*
X113191060Y-104157375D01*
X109687500Y-104157375D01*
X109687500Y-103846717D01*
X114525000Y-103846717D01*
X114525962Y-103849038D01*
X114528283Y-103850000D01*
X115071717Y-103850000D01*
X115074038Y-103849038D01*
X115075000Y-103846717D01*
X115425000Y-103846717D01*
X115425962Y-103849038D01*
X115428283Y-103850000D01*
X115971717Y-103850000D01*
X115974038Y-103849038D01*
X115975000Y-103846717D01*
X115975000Y-103755490D01*
X115974950Y-103754576D01*
X115968802Y-103697984D01*
X115968326Y-103695982D01*
X115921343Y-103570652D01*
X115920221Y-103568603D01*
X115911806Y-103557375D01*
X116441060Y-103557375D01*
X116454262Y-103640736D01*
X116455054Y-103643176D01*
X116509964Y-103750940D01*
X116511468Y-103753010D01*
X116596990Y-103838532D01*
X116599060Y-103840036D01*
X116706824Y-103894946D01*
X116709264Y-103895738D01*
X116798672Y-103909899D01*
X116799955Y-103910000D01*
X116821717Y-103910000D01*
X116824038Y-103909038D01*
X116825000Y-103906717D01*
X116825000Y-103906716D01*
X117175000Y-103906716D01*
X117175962Y-103909037D01*
X117178283Y-103909999D01*
X117200044Y-103909999D01*
X117201327Y-103909898D01*
X117290736Y-103895738D01*
X117293176Y-103894946D01*
X117400940Y-103840036D01*
X117403010Y-103838532D01*
X117488532Y-103753010D01*
X117490036Y-103750940D01*
X117544946Y-103643176D01*
X117545738Y-103640736D01*
X117558805Y-103558241D01*
X117558218Y-103555799D01*
X117556914Y-103555000D01*
X117178283Y-103555000D01*
X117175962Y-103555962D01*
X117175000Y-103558283D01*
X117175000Y-103906716D01*
X116825000Y-103906716D01*
X116825000Y-103558283D01*
X116824038Y-103555962D01*
X116821717Y-103555000D01*
X116443967Y-103555000D01*
X116441646Y-103555962D01*
X116441060Y-103557375D01*
X115911806Y-103557375D01*
X115840036Y-103461612D01*
X115838388Y-103459964D01*
X115731397Y-103379779D01*
X115729348Y-103378657D01*
X115604018Y-103331674D01*
X115602016Y-103331198D01*
X115545424Y-103325050D01*
X115544510Y-103325000D01*
X115428283Y-103325000D01*
X115425962Y-103325962D01*
X115425000Y-103328283D01*
X115425000Y-103846717D01*
X115075000Y-103846717D01*
X115075000Y-103328283D01*
X115074038Y-103325962D01*
X115071717Y-103325000D01*
X114955490Y-103325000D01*
X114954576Y-103325050D01*
X114897984Y-103331198D01*
X114895982Y-103331674D01*
X114770652Y-103378657D01*
X114768603Y-103379779D01*
X114661612Y-103459964D01*
X114659964Y-103461612D01*
X114579779Y-103568603D01*
X114578657Y-103570652D01*
X114531674Y-103695982D01*
X114531198Y-103697984D01*
X114525050Y-103754576D01*
X114525000Y-103755490D01*
X114525000Y-103846717D01*
X109687500Y-103846717D01*
X109687500Y-103841500D01*
X109692333Y-103829833D01*
X109704000Y-103825000D01*
X110771716Y-103825000D01*
X110774037Y-103824038D01*
X110774999Y-103821717D01*
X110774999Y-103819166D01*
X110774898Y-103817883D01*
X110760368Y-103726135D01*
X110759576Y-103723695D01*
X110703228Y-103613108D01*
X110701724Y-103611038D01*
X110627706Y-103537020D01*
X110622873Y-103525353D01*
X110627706Y-103513686D01*
X110703050Y-103438342D01*
X110730782Y-103383916D01*
X110760057Y-103326461D01*
X110760058Y-103326458D01*
X110760646Y-103325304D01*
X110775500Y-103231519D01*
X110775499Y-103035490D01*
X110780332Y-103023823D01*
X110791999Y-103018990D01*
X110798029Y-103020132D01*
X110813656Y-103026268D01*
X110845482Y-103038765D01*
X110853035Y-103041731D01*
X110998620Y-103054659D01*
X110999193Y-103054628D01*
X110999200Y-103054628D01*
X111068927Y-103050843D01*
X111068930Y-103050843D01*
X111069512Y-103050811D01*
X111204771Y-103023812D01*
X111217158Y-103026268D01*
X111224181Y-103036763D01*
X111224500Y-103039993D01*
X111224501Y-103136042D01*
X111224501Y-103231518D01*
X111239354Y-103325304D01*
X111239942Y-103326458D01*
X111239943Y-103326461D01*
X111269218Y-103383916D01*
X111296950Y-103438342D01*
X111386658Y-103528050D01*
X111437491Y-103553951D01*
X111498539Y-103585057D01*
X111498542Y-103585058D01*
X111499696Y-103585646D01*
X111593481Y-103600500D01*
X111823784Y-103600500D01*
X111831732Y-103602541D01*
X111903182Y-103641820D01*
X112057723Y-103681500D01*
X113196127Y-103681500D01*
X113207794Y-103686333D01*
X113212627Y-103698000D01*
X113210829Y-103705491D01*
X113205054Y-103716824D01*
X113204262Y-103719264D01*
X113191195Y-103801759D01*
X113191782Y-103804201D01*
X113193086Y-103805000D01*
X114306033Y-103805000D01*
X114308354Y-103804038D01*
X114308940Y-103802625D01*
X114295738Y-103719264D01*
X114294946Y-103716824D01*
X114240036Y-103609060D01*
X114238532Y-103606990D01*
X114161733Y-103530191D01*
X114156900Y-103518524D01*
X114160687Y-103508006D01*
X114187100Y-103476079D01*
X114188146Y-103474930D01*
X114551743Y-103111333D01*
X114563410Y-103106500D01*
X114743964Y-103106500D01*
X114753859Y-103109797D01*
X114768362Y-103120666D01*
X114768366Y-103120668D01*
X114769305Y-103121372D01*
X114896843Y-103169184D01*
X114954985Y-103175500D01*
X114955441Y-103175500D01*
X115254266Y-103175499D01*
X115545014Y-103175499D01*
X115545445Y-103175452D01*
X115545449Y-103175452D01*
X115571438Y-103172629D01*
X115603157Y-103169184D01*
X115730695Y-103121372D01*
X115731634Y-103120668D01*
X115731638Y-103120666D01*
X115746141Y-103109797D01*
X115756036Y-103106500D01*
X115908034Y-103106500D01*
X115914587Y-103107857D01*
X115922416Y-103111245D01*
X115971025Y-103118944D01*
X115972545Y-103119259D01*
X116020223Y-103131500D01*
X116049006Y-103131500D01*
X116051587Y-103131703D01*
X116078981Y-103136042D01*
X116078984Y-103136042D01*
X116080006Y-103136204D01*
X116129001Y-103131573D01*
X116130555Y-103131500D01*
X116433005Y-103131500D01*
X116444672Y-103136333D01*
X116449505Y-103148000D01*
X116449302Y-103150581D01*
X116441195Y-103201759D01*
X116441782Y-103204201D01*
X116443086Y-103205000D01*
X117556033Y-103205000D01*
X117558354Y-103204038D01*
X117558940Y-103202625D01*
X117545737Y-103119259D01*
X117544946Y-103116824D01*
X117490036Y-103009060D01*
X117488532Y-103006990D01*
X117408976Y-102927434D01*
X117404143Y-102915767D01*
X117408976Y-102904100D01*
X117474631Y-102838445D01*
X117547879Y-102744015D01*
X117562451Y-102710341D01*
X117610833Y-102598537D01*
X117610834Y-102598534D01*
X117611245Y-102597584D01*
X117627837Y-102492823D01*
X117636042Y-102441019D01*
X117636042Y-102441016D01*
X117636204Y-102439994D01*
X117627287Y-102345652D01*
X117631001Y-102333582D01*
X117642161Y-102327673D01*
X117643714Y-102327600D01*
X119084978Y-102327600D01*
X119086416Y-102327663D01*
X119128993Y-102331388D01*
X119130385Y-102331015D01*
X119130386Y-102331015D01*
X119170283Y-102320325D01*
X119171688Y-102320014D01*
X119212350Y-102312844D01*
X119213774Y-102312593D01*
X119224570Y-102306360D01*
X119228544Y-102304714D01*
X119239192Y-102301861D01*
X119239194Y-102301860D01*
X119240586Y-102301487D01*
X119275598Y-102276971D01*
X119276812Y-102276198D01*
X119313826Y-102254828D01*
X119341309Y-102222075D01*
X119342282Y-102221014D01*
X119875196Y-101688100D01*
X119886863Y-101683267D01*
X119898530Y-101688100D01*
G37*
%TD.AperFunction*%
%TA.AperFunction,Conductor*%
G36*
X107425459Y-91655333D02*
G01*
X107430292Y-91667017D01*
X107427956Y-93940306D01*
X107427896Y-93998552D01*
X107431154Y-93998572D01*
X107431155Y-93998572D01*
X115271543Y-94045904D01*
X115624510Y-94048035D01*
X115636147Y-94052938D01*
X115640910Y-94064635D01*
X115639764Y-94068655D01*
X115640535Y-94071869D01*
X115910589Y-94341924D01*
X116427507Y-94858841D01*
X116429829Y-94859803D01*
X116431243Y-94859217D01*
X116480852Y-94790938D01*
X116482018Y-94788649D01*
X116519389Y-94673633D01*
X116519791Y-94671093D01*
X116519791Y-94650833D01*
X116524624Y-94639166D01*
X116536291Y-94634333D01*
X116547872Y-94639080D01*
X118134074Y-96201956D01*
X118138993Y-96213587D01*
X118134246Y-96225290D01*
X118122493Y-96230209D01*
X118078907Y-96230209D01*
X118076367Y-96230611D01*
X117961349Y-96267982D01*
X117959062Y-96269147D01*
X117891491Y-96318241D01*
X117890179Y-96320383D01*
X117890535Y-96321869D01*
X118160589Y-96591924D01*
X118677507Y-97108841D01*
X118679829Y-97109803D01*
X118681243Y-97109217D01*
X118730852Y-97040938D01*
X118732018Y-97038649D01*
X118769389Y-96923633D01*
X118769791Y-96921093D01*
X118769791Y-96867744D01*
X118774624Y-96856077D01*
X118786291Y-96851244D01*
X118797871Y-96855991D01*
X119350000Y-97400000D01*
X119524843Y-97400000D01*
X119533464Y-97402431D01*
X119565549Y-97422092D01*
X119578124Y-97429798D01*
X119585547Y-97440015D01*
X119583572Y-97452488D01*
X119581170Y-97455534D01*
X119354137Y-97682567D01*
X119342470Y-97687400D01*
X118637532Y-97687400D01*
X118625865Y-97682567D01*
X118622830Y-97678391D01*
X118610427Y-97654050D01*
X118598502Y-97630645D01*
X118509355Y-97541498D01*
X118446662Y-97509554D01*
X118398179Y-97484850D01*
X118398176Y-97484849D01*
X118397022Y-97484261D01*
X118303823Y-97469500D01*
X118283465Y-97469500D01*
X118271798Y-97464667D01*
X118266965Y-97453000D01*
X118271798Y-97441333D01*
X118278366Y-97437308D01*
X118359829Y-97410840D01*
X118362116Y-97409675D01*
X118429687Y-97360581D01*
X118430999Y-97358439D01*
X118430643Y-97356953D01*
X118162911Y-97089220D01*
X118160589Y-97088258D01*
X118158267Y-97089220D01*
X117911889Y-97335599D01*
X117910927Y-97337921D01*
X117911889Y-97340243D01*
X117927274Y-97355628D01*
X117928252Y-97356464D01*
X118001488Y-97409674D01*
X118003777Y-97410840D01*
X118085240Y-97437309D01*
X118094843Y-97445510D01*
X118095833Y-97458100D01*
X118087632Y-97467703D01*
X118080143Y-97469501D01*
X117896178Y-97469501D01*
X117802978Y-97484261D01*
X117801824Y-97484849D01*
X117801821Y-97484850D01*
X117753338Y-97509554D01*
X117690645Y-97541498D01*
X117601498Y-97630645D01*
X117600911Y-97631798D01*
X117593797Y-97645759D01*
X117584194Y-97653960D01*
X117571604Y-97652970D01*
X117564393Y-97645759D01*
X117550079Y-97617667D01*
X117539859Y-97597609D01*
X117452391Y-97510141D01*
X117372629Y-97469500D01*
X117343332Y-97454572D01*
X117343329Y-97454571D01*
X117342175Y-97453983D01*
X117250735Y-97439500D01*
X117250089Y-97439500D01*
X117080001Y-97439501D01*
X116909266Y-97439501D01*
X116817825Y-97453983D01*
X116816671Y-97454571D01*
X116816668Y-97454572D01*
X116787371Y-97469500D01*
X116707609Y-97510141D01*
X116620141Y-97597609D01*
X116619554Y-97598762D01*
X116614421Y-97608835D01*
X116604818Y-97617036D01*
X116592228Y-97616046D01*
X116585017Y-97608835D01*
X116580036Y-97599060D01*
X116578532Y-97596990D01*
X116493010Y-97511468D01*
X116490940Y-97509964D01*
X116383176Y-97455054D01*
X116380736Y-97454262D01*
X116298241Y-97441195D01*
X116295799Y-97441782D01*
X116295000Y-97443086D01*
X116295000Y-99158500D01*
X116290167Y-99170167D01*
X116278500Y-99175000D01*
X115593284Y-99175000D01*
X115590963Y-99175962D01*
X115590001Y-99178283D01*
X115590001Y-99200044D01*
X115590102Y-99201327D01*
X115604262Y-99290736D01*
X115605054Y-99293176D01*
X115659964Y-99400940D01*
X115661468Y-99403010D01*
X115746990Y-99488532D01*
X115749060Y-99490036D01*
X115856824Y-99544946D01*
X115859265Y-99545738D01*
X115889477Y-99550524D01*
X115900245Y-99557123D01*
X115903193Y-99569402D01*
X115899987Y-99576863D01*
X115881666Y-99600740D01*
X115821874Y-99745092D01*
X115821734Y-99746157D01*
X115821733Y-99746160D01*
X115809506Y-99839037D01*
X115801480Y-99900000D01*
X115801621Y-99901071D01*
X115815936Y-100009801D01*
X115821874Y-100054908D01*
X115881666Y-100199260D01*
X115882326Y-100200120D01*
X115882327Y-100200122D01*
X115960019Y-100301372D01*
X115976782Y-100323218D01*
X115977637Y-100323874D01*
X115977996Y-100324233D01*
X115982829Y-100335900D01*
X115977996Y-100347567D01*
X115966329Y-100352400D01*
X115072530Y-100352400D01*
X115060863Y-100347567D01*
X114655333Y-99942037D01*
X114650500Y-99930370D01*
X114650500Y-99275326D01*
X114635966Y-99202260D01*
X114580601Y-99119399D01*
X114497740Y-99064034D01*
X114465781Y-99057677D01*
X114455281Y-99050661D01*
X114452500Y-99041494D01*
X114452500Y-98821717D01*
X115590000Y-98821717D01*
X115590962Y-98824038D01*
X115593283Y-98825000D01*
X115941717Y-98825000D01*
X115944038Y-98824038D01*
X115945000Y-98821717D01*
X115945000Y-98178283D01*
X115944038Y-98175962D01*
X115941717Y-98175000D01*
X115593284Y-98175000D01*
X115590963Y-98175962D01*
X115590001Y-98178283D01*
X115590001Y-98200044D01*
X115590102Y-98201327D01*
X115604262Y-98290736D01*
X115605054Y-98293176D01*
X115659964Y-98400940D01*
X115661468Y-98403010D01*
X115746791Y-98488333D01*
X115751624Y-98500000D01*
X115746791Y-98511667D01*
X115661468Y-98596990D01*
X115659964Y-98599060D01*
X115605054Y-98706824D01*
X115604262Y-98709264D01*
X115590101Y-98798672D01*
X115590000Y-98799955D01*
X115590000Y-98821717D01*
X114452500Y-98821717D01*
X114452500Y-97821717D01*
X115590000Y-97821717D01*
X115590962Y-97824038D01*
X115593283Y-97825000D01*
X115941717Y-97825000D01*
X115944038Y-97824038D01*
X115945000Y-97821717D01*
X115945000Y-97443967D01*
X115944038Y-97441646D01*
X115942625Y-97441060D01*
X115859264Y-97454262D01*
X115856824Y-97455054D01*
X115749060Y-97509964D01*
X115746990Y-97511468D01*
X115661468Y-97596990D01*
X115659964Y-97599060D01*
X115605054Y-97706824D01*
X115604262Y-97709264D01*
X115590101Y-97798672D01*
X115590000Y-97799955D01*
X115590000Y-97821717D01*
X114452500Y-97821717D01*
X114452500Y-96878667D01*
X117551387Y-96878667D01*
X117551789Y-96881207D01*
X117589160Y-96996225D01*
X117590325Y-96998512D01*
X117643528Y-97071740D01*
X117644375Y-97072731D01*
X117659756Y-97088112D01*
X117662078Y-97089074D01*
X117664400Y-97088112D01*
X117910780Y-96841733D01*
X117911742Y-96839411D01*
X117910780Y-96837089D01*
X117643671Y-96569981D01*
X117641349Y-96569019D01*
X117639935Y-96569605D01*
X117590326Y-96637884D01*
X117589160Y-96640173D01*
X117551789Y-96755189D01*
X117551387Y-96757729D01*
X117551387Y-96878667D01*
X114452500Y-96878667D01*
X114452500Y-96458506D01*
X114457333Y-96446839D01*
X114465780Y-96442323D01*
X114497740Y-96435966D01*
X114580601Y-96380601D01*
X114626724Y-96311572D01*
X114635062Y-96299093D01*
X114635966Y-96297740D01*
X114650500Y-96224674D01*
X114650500Y-95125326D01*
X114643060Y-95087921D01*
X115660927Y-95087921D01*
X115661889Y-95090243D01*
X115677274Y-95105628D01*
X115678252Y-95106464D01*
X115751488Y-95159674D01*
X115753777Y-95160840D01*
X115868793Y-95198211D01*
X115871333Y-95198613D01*
X115992271Y-95198613D01*
X115994811Y-95198211D01*
X116109829Y-95160840D01*
X116112116Y-95159675D01*
X116179687Y-95110581D01*
X116180999Y-95108439D01*
X116180643Y-95106953D01*
X115912911Y-94839220D01*
X115910589Y-94838258D01*
X115908267Y-94839220D01*
X115661889Y-95085599D01*
X115660927Y-95087921D01*
X114643060Y-95087921D01*
X114635966Y-95052260D01*
X114580601Y-94969399D01*
X114497740Y-94914034D01*
X114424674Y-94899500D01*
X113725326Y-94899500D01*
X113652260Y-94914034D01*
X113569399Y-94969399D01*
X113514034Y-95052260D01*
X113499500Y-95125326D01*
X113499500Y-96224674D01*
X113514034Y-96297740D01*
X113514938Y-96299093D01*
X113523276Y-96311572D01*
X113569399Y-96380601D01*
X113652260Y-96435966D01*
X113684219Y-96442323D01*
X113694719Y-96449339D01*
X113697500Y-96458506D01*
X113697500Y-99041494D01*
X113692667Y-99053161D01*
X113684220Y-99057677D01*
X113652260Y-99064034D01*
X113569399Y-99119399D01*
X113514034Y-99202260D01*
X113499500Y-99275326D01*
X113499500Y-100374674D01*
X113514034Y-100447740D01*
X113569399Y-100530601D01*
X113652260Y-100585966D01*
X113725326Y-100600500D01*
X114380370Y-100600500D01*
X114392037Y-100605333D01*
X114687718Y-100901014D01*
X114688691Y-100902075D01*
X114706983Y-100923874D01*
X114716174Y-100934828D01*
X114742453Y-100950000D01*
X114753188Y-100956198D01*
X114754402Y-100956971D01*
X114789414Y-100981487D01*
X114790806Y-100981860D01*
X114790808Y-100981861D01*
X114801456Y-100984714D01*
X114805430Y-100986360D01*
X114816226Y-100992593D01*
X114817649Y-100992844D01*
X114823134Y-100993811D01*
X114858318Y-101000015D01*
X114859698Y-101000320D01*
X114901007Y-101011389D01*
X114943596Y-101007663D01*
X114945034Y-101007600D01*
X116523686Y-101007600D01*
X116535353Y-101012433D01*
X116540186Y-101024100D01*
X116538930Y-101030414D01*
X116533681Y-101043086D01*
X116521874Y-101071592D01*
X116521734Y-101072657D01*
X116521733Y-101072660D01*
X116504767Y-101201532D01*
X116501480Y-101226500D01*
X116501621Y-101227571D01*
X116520274Y-101369251D01*
X116521874Y-101381408D01*
X116522287Y-101382405D01*
X116550114Y-101449586D01*
X116550114Y-101462214D01*
X116541184Y-101471144D01*
X116534870Y-101472400D01*
X111942530Y-101472400D01*
X111930863Y-101467567D01*
X110837105Y-100373809D01*
X111350000Y-100373809D01*
X111350159Y-100375423D01*
X111364188Y-100445950D01*
X111365409Y-100448898D01*
X111418858Y-100528890D01*
X111421110Y-100531142D01*
X111501102Y-100584591D01*
X111504050Y-100585812D01*
X111574577Y-100599841D01*
X111576191Y-100600000D01*
X111746717Y-100600000D01*
X111749038Y-100599038D01*
X111750000Y-100596717D01*
X112100000Y-100596717D01*
X112100962Y-100599038D01*
X112103283Y-100600000D01*
X112273809Y-100600000D01*
X112275423Y-100599841D01*
X112345950Y-100585812D01*
X112348898Y-100584591D01*
X112428890Y-100531142D01*
X112431142Y-100528890D01*
X112484591Y-100448898D01*
X112485812Y-100445950D01*
X112499841Y-100375423D01*
X112500000Y-100373809D01*
X112500000Y-100003283D01*
X112499038Y-100000962D01*
X112496717Y-100000000D01*
X112103283Y-100000000D01*
X112100962Y-100000962D01*
X112100000Y-100003283D01*
X112100000Y-100596717D01*
X111750000Y-100596717D01*
X111750000Y-100003283D01*
X111749038Y-100000962D01*
X111746717Y-100000000D01*
X111353283Y-100000000D01*
X111350962Y-100000962D01*
X111350000Y-100003283D01*
X111350000Y-100373809D01*
X110837105Y-100373809D01*
X110405333Y-99942037D01*
X110400500Y-99930370D01*
X110400500Y-99646717D01*
X111350000Y-99646717D01*
X111350962Y-99649038D01*
X111353283Y-99650000D01*
X111746717Y-99650000D01*
X111749038Y-99649038D01*
X111750000Y-99646717D01*
X112100000Y-99646717D01*
X112100962Y-99649038D01*
X112103283Y-99650000D01*
X112496717Y-99650000D01*
X112499038Y-99649038D01*
X112500000Y-99646717D01*
X112500000Y-99276191D01*
X112499841Y-99274577D01*
X112485812Y-99204050D01*
X112484591Y-99201102D01*
X112431142Y-99121110D01*
X112428890Y-99118858D01*
X112348898Y-99065409D01*
X112345950Y-99064188D01*
X112275423Y-99050159D01*
X112273809Y-99050000D01*
X112103283Y-99050000D01*
X112100962Y-99050962D01*
X112100000Y-99053283D01*
X112100000Y-99646717D01*
X111750000Y-99646717D01*
X111750000Y-99053283D01*
X111749038Y-99050962D01*
X111746717Y-99050000D01*
X111576191Y-99050000D01*
X111574577Y-99050159D01*
X111504050Y-99064188D01*
X111501102Y-99065409D01*
X111421110Y-99118858D01*
X111418858Y-99121110D01*
X111365409Y-99201102D01*
X111364188Y-99204050D01*
X111350159Y-99274577D01*
X111350000Y-99276191D01*
X111350000Y-99646717D01*
X110400500Y-99646717D01*
X110400500Y-99275326D01*
X110385966Y-99202260D01*
X110330601Y-99119399D01*
X110247740Y-99064034D01*
X110215781Y-99057677D01*
X110205281Y-99050661D01*
X110202500Y-99041494D01*
X110202500Y-96458506D01*
X110207333Y-96446839D01*
X110215780Y-96442323D01*
X110247740Y-96435966D01*
X110330601Y-96380601D01*
X110376724Y-96311572D01*
X110385062Y-96299093D01*
X110385966Y-96297740D01*
X110400500Y-96224674D01*
X110400500Y-96223809D01*
X111350000Y-96223809D01*
X111350159Y-96225423D01*
X111364188Y-96295950D01*
X111365409Y-96298898D01*
X111418858Y-96378890D01*
X111421110Y-96381142D01*
X111501102Y-96434591D01*
X111504050Y-96435812D01*
X111574577Y-96449841D01*
X111576191Y-96450000D01*
X111746717Y-96450000D01*
X111749038Y-96449038D01*
X111750000Y-96446717D01*
X112100000Y-96446717D01*
X112100962Y-96449038D01*
X112103283Y-96450000D01*
X112273809Y-96450000D01*
X112275423Y-96449841D01*
X112345950Y-96435812D01*
X112348898Y-96434591D01*
X112428890Y-96381142D01*
X112431142Y-96378890D01*
X112484591Y-96298898D01*
X112485812Y-96295950D01*
X112499841Y-96225423D01*
X112500000Y-96223809D01*
X112500000Y-95853283D01*
X112499038Y-95850962D01*
X112496717Y-95850000D01*
X112103283Y-95850000D01*
X112100962Y-95850962D01*
X112100000Y-95853283D01*
X112100000Y-96446717D01*
X111750000Y-96446717D01*
X111750000Y-95853283D01*
X111749038Y-95850962D01*
X111746717Y-95850000D01*
X111353283Y-95850000D01*
X111350962Y-95850962D01*
X111350000Y-95853283D01*
X111350000Y-96223809D01*
X110400500Y-96223809D01*
X110400500Y-95496717D01*
X111350000Y-95496717D01*
X111350962Y-95499038D01*
X111353283Y-95500000D01*
X111746717Y-95500000D01*
X111749038Y-95499038D01*
X111750000Y-95496717D01*
X112100000Y-95496717D01*
X112100962Y-95499038D01*
X112103283Y-95500000D01*
X112496717Y-95500000D01*
X112499038Y-95499038D01*
X112500000Y-95496717D01*
X112500000Y-95126191D01*
X112499841Y-95124577D01*
X112485812Y-95054050D01*
X112484591Y-95051102D01*
X112431142Y-94971110D01*
X112428890Y-94968858D01*
X112348898Y-94915409D01*
X112345950Y-94914188D01*
X112275423Y-94900159D01*
X112273809Y-94900000D01*
X112103283Y-94900000D01*
X112100962Y-94900962D01*
X112100000Y-94903283D01*
X112100000Y-95496717D01*
X111750000Y-95496717D01*
X111750000Y-94903283D01*
X111749038Y-94900962D01*
X111746717Y-94900000D01*
X111576191Y-94900000D01*
X111574577Y-94900159D01*
X111504050Y-94914188D01*
X111501102Y-94915409D01*
X111421110Y-94968858D01*
X111418858Y-94971110D01*
X111365409Y-95051102D01*
X111364188Y-95054050D01*
X111350159Y-95124577D01*
X111350000Y-95126191D01*
X111350000Y-95496717D01*
X110400500Y-95496717D01*
X110400500Y-95125326D01*
X110385966Y-95052260D01*
X110330601Y-94969399D01*
X110247740Y-94914034D01*
X110174674Y-94899500D01*
X109475326Y-94899500D01*
X109402260Y-94914034D01*
X109319399Y-94969399D01*
X109264034Y-95052260D01*
X109249500Y-95125326D01*
X109249500Y-96224674D01*
X109264034Y-96297740D01*
X109264938Y-96299093D01*
X109273276Y-96311572D01*
X109319399Y-96380601D01*
X109402260Y-96435966D01*
X109434219Y-96442323D01*
X109444719Y-96449339D01*
X109447500Y-96458506D01*
X109447500Y-99041494D01*
X109442667Y-99053161D01*
X109434220Y-99057677D01*
X109402260Y-99064034D01*
X109319399Y-99119399D01*
X109264034Y-99202260D01*
X109249500Y-99275326D01*
X109249500Y-100374674D01*
X109264034Y-100447740D01*
X109319399Y-100530601D01*
X109402260Y-100585966D01*
X109475326Y-100600500D01*
X110130370Y-100600500D01*
X110142037Y-100605333D01*
X110685131Y-101148427D01*
X110689964Y-101160094D01*
X110685131Y-101171761D01*
X110675812Y-101176426D01*
X110668578Y-101177466D01*
X110668015Y-101177631D01*
X110668012Y-101177632D01*
X110624265Y-101190478D01*
X110602087Y-101196990D01*
X110598470Y-101198052D01*
X110585913Y-101196702D01*
X110579940Y-101191141D01*
X110571519Y-101178038D01*
X110510692Y-101083388D01*
X110464199Y-101029732D01*
X110353739Y-100934018D01*
X110220790Y-100873302D01*
X110220234Y-100873139D01*
X110220232Y-100873138D01*
X110153235Y-100853466D01*
X110153233Y-100853465D01*
X110152669Y-100853300D01*
X110032709Y-100836053D01*
X110008585Y-100832584D01*
X110008583Y-100832584D01*
X110008000Y-100832500D01*
X109834500Y-100832500D01*
X109725351Y-100844234D01*
X109724928Y-100844326D01*
X109724922Y-100844327D01*
X109673434Y-100855527D01*
X109673424Y-100855530D01*
X109673009Y-100855620D01*
X109568843Y-100890290D01*
X109445888Y-100969308D01*
X109392232Y-101015801D01*
X109391849Y-101016243D01*
X109312946Y-101107302D01*
X109301653Y-101112955D01*
X109292239Y-101110264D01*
X109292093Y-101110551D01*
X109183176Y-101055054D01*
X109180736Y-101054262D01*
X109098241Y-101041195D01*
X109095799Y-101041782D01*
X109095000Y-101043086D01*
X109095000Y-101758500D01*
X109090167Y-101770167D01*
X109078500Y-101775000D01*
X108393284Y-101775000D01*
X108390963Y-101775962D01*
X108390001Y-101778283D01*
X108390001Y-101800044D01*
X108390102Y-101801327D01*
X108397778Y-101849793D01*
X108394830Y-101862072D01*
X108385752Y-101868312D01*
X108348640Y-101878257D01*
X108279033Y-101896909D01*
X108213769Y-101924858D01*
X108213268Y-101925164D01*
X108213263Y-101925166D01*
X108095879Y-101996717D01*
X108088974Y-102000926D01*
X108088182Y-102001798D01*
X108088180Y-102001799D01*
X107996299Y-102102873D01*
X107990660Y-102109076D01*
X107950866Y-102167872D01*
X107933922Y-102202754D01*
X107931592Y-102207550D01*
X107922147Y-102215933D01*
X107909540Y-102215182D01*
X107905083Y-102212007D01*
X107547122Y-101854046D01*
X107544858Y-101851220D01*
X107541001Y-101845143D01*
X107540446Y-101844268D01*
X107489717Y-101796630D01*
X107489346Y-101796270D01*
X107468445Y-101775369D01*
X107461177Y-101769731D01*
X107460022Y-101768744D01*
X107424136Y-101735045D01*
X107398921Y-101721182D01*
X107396759Y-101719763D01*
X107374834Y-101702756D01*
X107374833Y-101702755D01*
X107374015Y-101702121D01*
X107328828Y-101682567D01*
X107327448Y-101681891D01*
X107289868Y-101661231D01*
X107285228Y-101658680D01*
X107285226Y-101658679D01*
X107284318Y-101658180D01*
X107256444Y-101651023D01*
X107254000Y-101650186D01*
X107244125Y-101645913D01*
X107228537Y-101639167D01*
X107228534Y-101639166D01*
X107227584Y-101638755D01*
X107205697Y-101635289D01*
X107178978Y-101631057D01*
X107177456Y-101630742D01*
X107130781Y-101618757D01*
X107130775Y-101618756D01*
X107129777Y-101618500D01*
X107100993Y-101618500D01*
X107098412Y-101618297D01*
X107071018Y-101613958D01*
X107071015Y-101613958D01*
X107069993Y-101613796D01*
X107028203Y-101617746D01*
X107020998Y-101618427D01*
X107019445Y-101618500D01*
X105902738Y-101618500D01*
X105891071Y-101613667D01*
X105886555Y-101605221D01*
X105886283Y-101603854D01*
X105885966Y-101602260D01*
X105830601Y-101519399D01*
X105747740Y-101464034D01*
X105674674Y-101449500D01*
X103125326Y-101449500D01*
X103052260Y-101464034D01*
X102969399Y-101519399D01*
X102914034Y-101602260D01*
X102899500Y-101675326D01*
X102899500Y-102824674D01*
X102914034Y-102897740D01*
X102969399Y-102980601D01*
X103052260Y-103035966D01*
X103125326Y-103050500D01*
X105674674Y-103050500D01*
X105704527Y-103044562D01*
X105716913Y-103047026D01*
X105723929Y-103057526D01*
X105723578Y-103065393D01*
X105718065Y-103084168D01*
X105707762Y-103119259D01*
X105707300Y-103120831D01*
X105691479Y-103230872D01*
X105686807Y-103263368D01*
X105686500Y-103265500D01*
X105686500Y-105465500D01*
X105698234Y-105574649D01*
X105698326Y-105575072D01*
X105698327Y-105575078D01*
X105709527Y-105626566D01*
X105709530Y-105626576D01*
X105709620Y-105626991D01*
X105709755Y-105627398D01*
X105709756Y-105627400D01*
X105719733Y-105657375D01*
X105744290Y-105731157D01*
X105744844Y-105732019D01*
X105744845Y-105732021D01*
X105804007Y-105824079D01*
X105806249Y-105836507D01*
X105799047Y-105846881D01*
X105790126Y-105849500D01*
X98817000Y-105849500D01*
X98805333Y-105844667D01*
X98800500Y-105833000D01*
X98800500Y-104627320D01*
X99662796Y-104627320D01*
X99685795Y-104761170D01*
X99686185Y-104762622D01*
X99761994Y-104968115D01*
X99762646Y-104969480D01*
X99874628Y-105157706D01*
X99875525Y-105158940D01*
X100019933Y-105323605D01*
X100021032Y-105324648D01*
X100193041Y-105460249D01*
X100194302Y-105461068D01*
X100388146Y-105563054D01*
X100389532Y-105563628D01*
X100598720Y-105628583D01*
X100600182Y-105628894D01*
X100778021Y-105649943D01*
X100778998Y-105650000D01*
X101471717Y-105650000D01*
X101474038Y-105649038D01*
X101475000Y-105646717D01*
X101825000Y-105646717D01*
X101825962Y-105649038D01*
X101828283Y-105650000D01*
X102505569Y-105650000D01*
X102506327Y-105649965D01*
X102668871Y-105635030D01*
X102670343Y-105634757D01*
X102881165Y-105575299D01*
X102882558Y-105574764D01*
X103079007Y-105477886D01*
X103080288Y-105477101D01*
X103255788Y-105346049D01*
X103256914Y-105345034D01*
X103405588Y-105184200D01*
X103406505Y-105183006D01*
X103523387Y-104997759D01*
X103524069Y-104996419D01*
X103605230Y-104792987D01*
X103605661Y-104791533D01*
X103638147Y-104628219D01*
X103637656Y-104625755D01*
X103636527Y-104625000D01*
X101828283Y-104625000D01*
X101825962Y-104625962D01*
X101825000Y-104628283D01*
X101825000Y-105646717D01*
X101475000Y-105646717D01*
X101475000Y-104628283D01*
X101474038Y-104625962D01*
X101471717Y-104625000D01*
X99665680Y-104625000D01*
X99663359Y-104625962D01*
X99662796Y-104627320D01*
X98800500Y-104627320D01*
X98800500Y-104271781D01*
X99661853Y-104271781D01*
X99662344Y-104274245D01*
X99663473Y-104275000D01*
X101471717Y-104275000D01*
X101474038Y-104274038D01*
X101475000Y-104271717D01*
X101825000Y-104271717D01*
X101825962Y-104274038D01*
X101828283Y-104275000D01*
X103634320Y-104275000D01*
X103636641Y-104274038D01*
X103637204Y-104272680D01*
X103614205Y-104138830D01*
X103613815Y-104137378D01*
X103538006Y-103931885D01*
X103537354Y-103930520D01*
X103425372Y-103742294D01*
X103424475Y-103741060D01*
X103280067Y-103576395D01*
X103278968Y-103575352D01*
X103106959Y-103439751D01*
X103105698Y-103438932D01*
X102911854Y-103336946D01*
X102910468Y-103336372D01*
X102701280Y-103271417D01*
X102699818Y-103271106D01*
X102521979Y-103250057D01*
X102521002Y-103250000D01*
X101828283Y-103250000D01*
X101825962Y-103250962D01*
X101825000Y-103253283D01*
X101825000Y-104271717D01*
X101475000Y-104271717D01*
X101475000Y-103253283D01*
X101474038Y-103250962D01*
X101471717Y-103250000D01*
X100794431Y-103250000D01*
X100793673Y-103250035D01*
X100631129Y-103264970D01*
X100629657Y-103265243D01*
X100418835Y-103324701D01*
X100417442Y-103325236D01*
X100220993Y-103422114D01*
X100219712Y-103422899D01*
X100044212Y-103553951D01*
X100043086Y-103554966D01*
X99894412Y-103715800D01*
X99893495Y-103716994D01*
X99776613Y-103902241D01*
X99775931Y-103903581D01*
X99694770Y-104107013D01*
X99694339Y-104108467D01*
X99661853Y-104271781D01*
X98800500Y-104271781D01*
X98800500Y-101044376D01*
X100844455Y-101044376D01*
X100863227Y-101222983D01*
X100863524Y-101223855D01*
X100920388Y-101390892D01*
X100921103Y-101392993D01*
X101015206Y-101545955D01*
X101015854Y-101546617D01*
X101015855Y-101546618D01*
X101023072Y-101553988D01*
X101140859Y-101674268D01*
X101204719Y-101715423D01*
X101289665Y-101770167D01*
X101291817Y-101771554D01*
X101367558Y-101799121D01*
X101459714Y-101832664D01*
X101459718Y-101832665D01*
X101460578Y-101832978D01*
X101599283Y-101850500D01*
X101695155Y-101850500D01*
X101695606Y-101850449D01*
X101695613Y-101850449D01*
X101782242Y-101840732D01*
X101828472Y-101835546D01*
X101926736Y-101801327D01*
X101997204Y-101776788D01*
X101997207Y-101776787D01*
X101998073Y-101776485D01*
X102000355Y-101775059D01*
X102149596Y-101681803D01*
X102149597Y-101681802D01*
X102150375Y-101681316D01*
X102152183Y-101679521D01*
X102277151Y-101555422D01*
X102277153Y-101555419D01*
X102277807Y-101554770D01*
X102362245Y-101421717D01*
X108390000Y-101421717D01*
X108390962Y-101424038D01*
X108393283Y-101425000D01*
X108741717Y-101425000D01*
X108744038Y-101424038D01*
X108745000Y-101421717D01*
X108745000Y-101043967D01*
X108744038Y-101041646D01*
X108742625Y-101041060D01*
X108659264Y-101054262D01*
X108656824Y-101055054D01*
X108549060Y-101109964D01*
X108546990Y-101111468D01*
X108461468Y-101196990D01*
X108459964Y-101199060D01*
X108405054Y-101306824D01*
X108404262Y-101309264D01*
X108390101Y-101398672D01*
X108390000Y-101399955D01*
X108390000Y-101421717D01*
X102362245Y-101421717D01*
X102374037Y-101403136D01*
X102425287Y-101259210D01*
X102433972Y-101234819D01*
X102433972Y-101234818D01*
X102434281Y-101233951D01*
X102455545Y-101055624D01*
X102436773Y-100877017D01*
X102410596Y-100800122D01*
X102379195Y-100707881D01*
X102379193Y-100707877D01*
X102378897Y-100707007D01*
X102284794Y-100554045D01*
X102281323Y-100550500D01*
X102213508Y-100481250D01*
X102159141Y-100425732D01*
X102034799Y-100345599D01*
X102008964Y-100328949D01*
X102008962Y-100328948D01*
X102008183Y-100328446D01*
X101997819Y-100324674D01*
X102899500Y-100324674D01*
X102914034Y-100397740D01*
X102969399Y-100480601D01*
X102970749Y-100481503D01*
X103045581Y-100531503D01*
X103052260Y-100535966D01*
X103125326Y-100550500D01*
X105674674Y-100550500D01*
X105747740Y-100535966D01*
X105754420Y-100531503D01*
X105829251Y-100481503D01*
X105830601Y-100480601D01*
X105885966Y-100397740D01*
X105900500Y-100324674D01*
X105900500Y-100172413D01*
X105905333Y-100160746D01*
X105917000Y-100155913D01*
X105928667Y-100160746D01*
X105930090Y-100162368D01*
X105976782Y-100223218D01*
X105977637Y-100223874D01*
X106099878Y-100317673D01*
X106099880Y-100317674D01*
X106100740Y-100318334D01*
X106101743Y-100318750D01*
X106101744Y-100318750D01*
X106171315Y-100347567D01*
X106245092Y-100378126D01*
X106246157Y-100378266D01*
X106246160Y-100378267D01*
X106398929Y-100398379D01*
X106400000Y-100398520D01*
X106401071Y-100398379D01*
X106553840Y-100378267D01*
X106553843Y-100378266D01*
X106554908Y-100378126D01*
X106565330Y-100373809D01*
X107100000Y-100373809D01*
X107100159Y-100375423D01*
X107114188Y-100445950D01*
X107115409Y-100448898D01*
X107168858Y-100528890D01*
X107171110Y-100531142D01*
X107251102Y-100584591D01*
X107254050Y-100585812D01*
X107324577Y-100599841D01*
X107326191Y-100600000D01*
X107496717Y-100600000D01*
X107499038Y-100599038D01*
X107500000Y-100596717D01*
X107850000Y-100596717D01*
X107850962Y-100599038D01*
X107853283Y-100600000D01*
X108023809Y-100600000D01*
X108025423Y-100599841D01*
X108095950Y-100585812D01*
X108098898Y-100584591D01*
X108178890Y-100531142D01*
X108181142Y-100528890D01*
X108234591Y-100448898D01*
X108235812Y-100445950D01*
X108249841Y-100375423D01*
X108250000Y-100373809D01*
X108250000Y-100003283D01*
X108249038Y-100000962D01*
X108246717Y-100000000D01*
X107853283Y-100000000D01*
X107850962Y-100000962D01*
X107850000Y-100003283D01*
X107850000Y-100596717D01*
X107500000Y-100596717D01*
X107500000Y-100003283D01*
X107499038Y-100000962D01*
X107496717Y-100000000D01*
X107103283Y-100000000D01*
X107100962Y-100000962D01*
X107100000Y-100003283D01*
X107100000Y-100373809D01*
X106565330Y-100373809D01*
X106628685Y-100347567D01*
X106698256Y-100318750D01*
X106698257Y-100318750D01*
X106699260Y-100318334D01*
X106700120Y-100317674D01*
X106700122Y-100317673D01*
X106822363Y-100223874D01*
X106823218Y-100223218D01*
X106888713Y-100137863D01*
X106917673Y-100100122D01*
X106917674Y-100100120D01*
X106918334Y-100099260D01*
X106927291Y-100077637D01*
X106977713Y-99955905D01*
X106978126Y-99954908D01*
X106979398Y-99945251D01*
X106998379Y-99801071D01*
X106998520Y-99800000D01*
X106992361Y-99753219D01*
X106978340Y-99646717D01*
X107100000Y-99646717D01*
X107100962Y-99649038D01*
X107103283Y-99650000D01*
X107496717Y-99650000D01*
X107499038Y-99649038D01*
X107500000Y-99646717D01*
X107850000Y-99646717D01*
X107850962Y-99649038D01*
X107853283Y-99650000D01*
X108246717Y-99650000D01*
X108249038Y-99649038D01*
X108250000Y-99646717D01*
X108250000Y-99276191D01*
X108249841Y-99274577D01*
X108235812Y-99204050D01*
X108234591Y-99201102D01*
X108181142Y-99121110D01*
X108178890Y-99118858D01*
X108098898Y-99065409D01*
X108095950Y-99064188D01*
X108025423Y-99050159D01*
X108023809Y-99050000D01*
X107853283Y-99050000D01*
X107850962Y-99050962D01*
X107850000Y-99053283D01*
X107850000Y-99646717D01*
X107500000Y-99646717D01*
X107500000Y-99053283D01*
X107499038Y-99050962D01*
X107496717Y-99050000D01*
X107326191Y-99050000D01*
X107324577Y-99050159D01*
X107254050Y-99064188D01*
X107251102Y-99065409D01*
X107171110Y-99118858D01*
X107168858Y-99121110D01*
X107115409Y-99201102D01*
X107114188Y-99204050D01*
X107100159Y-99274577D01*
X107100000Y-99276191D01*
X107100000Y-99646717D01*
X106978340Y-99646717D01*
X106978267Y-99646160D01*
X106978266Y-99646157D01*
X106978126Y-99645092D01*
X106947733Y-99571717D01*
X106918750Y-99501744D01*
X106918750Y-99501743D01*
X106918334Y-99500740D01*
X106916523Y-99498379D01*
X106823874Y-99377637D01*
X106823218Y-99376782D01*
X106783154Y-99346040D01*
X106700122Y-99282327D01*
X106700120Y-99282326D01*
X106699260Y-99281666D01*
X106694997Y-99279900D01*
X106555905Y-99222287D01*
X106554908Y-99221874D01*
X106553843Y-99221734D01*
X106553840Y-99221733D01*
X106401071Y-99201621D01*
X106400000Y-99201480D01*
X106398929Y-99201621D01*
X106246160Y-99221733D01*
X106246157Y-99221734D01*
X106245092Y-99221874D01*
X106244095Y-99222287D01*
X106105004Y-99279900D01*
X106100740Y-99281666D01*
X106099880Y-99282326D01*
X106099878Y-99282327D01*
X106016846Y-99346040D01*
X105976782Y-99376782D01*
X105976126Y-99377637D01*
X105946731Y-99415945D01*
X105935795Y-99422259D01*
X105933641Y-99422400D01*
X105917000Y-99422400D01*
X105905333Y-99417567D01*
X105900500Y-99405900D01*
X105900500Y-99175326D01*
X105885966Y-99102260D01*
X105830601Y-99019399D01*
X105747740Y-98964034D01*
X105674674Y-98949500D01*
X103125326Y-98949500D01*
X103052260Y-98964034D01*
X102969399Y-99019399D01*
X102914034Y-99102260D01*
X102899500Y-99175326D01*
X102899500Y-100324674D01*
X101997819Y-100324674D01*
X101930149Y-100300044D01*
X101840286Y-100267336D01*
X101840282Y-100267335D01*
X101839422Y-100267022D01*
X101700717Y-100249500D01*
X101604845Y-100249500D01*
X101604394Y-100249551D01*
X101604387Y-100249551D01*
X101517758Y-100259268D01*
X101471528Y-100264454D01*
X101397789Y-100290132D01*
X101302796Y-100323212D01*
X101302793Y-100323213D01*
X101301927Y-100323515D01*
X101301150Y-100324001D01*
X101301149Y-100324001D01*
X101156526Y-100414372D01*
X101149625Y-100418684D01*
X101148973Y-100419331D01*
X101148971Y-100419333D01*
X101022849Y-100544578D01*
X101022847Y-100544581D01*
X101022193Y-100545230D01*
X100925963Y-100696864D01*
X100865719Y-100866049D01*
X100844455Y-101044376D01*
X98800500Y-101044376D01*
X98800500Y-98324674D01*
X102899500Y-98324674D01*
X102914034Y-98397740D01*
X102969399Y-98480601D01*
X103052260Y-98535966D01*
X103125326Y-98550500D01*
X105674674Y-98550500D01*
X105747740Y-98535966D01*
X105830601Y-98480601D01*
X105885966Y-98397740D01*
X105900500Y-98324674D01*
X105900500Y-98172413D01*
X105905333Y-98160746D01*
X105917000Y-98155913D01*
X105928667Y-98160746D01*
X105930090Y-98162368D01*
X105968691Y-98212674D01*
X105976782Y-98223218D01*
X105977637Y-98223874D01*
X106099878Y-98317673D01*
X106099880Y-98317674D01*
X106100740Y-98318334D01*
X106101743Y-98318750D01*
X106101744Y-98318750D01*
X106181074Y-98351609D01*
X106245092Y-98378126D01*
X106246157Y-98378266D01*
X106246160Y-98378267D01*
X106398929Y-98398379D01*
X106400000Y-98398520D01*
X106401071Y-98398379D01*
X106553840Y-98378267D01*
X106553843Y-98378266D01*
X106554908Y-98378126D01*
X106618926Y-98351609D01*
X106698256Y-98318750D01*
X106698257Y-98318750D01*
X106699260Y-98318334D01*
X106700120Y-98317674D01*
X106700122Y-98317673D01*
X106822363Y-98223874D01*
X106823218Y-98223218D01*
X106835669Y-98206991D01*
X106917673Y-98100122D01*
X106917674Y-98100120D01*
X106918334Y-98099260D01*
X106978126Y-97954908D01*
X106990824Y-97858461D01*
X106998379Y-97801071D01*
X106998520Y-97800000D01*
X106992361Y-97753219D01*
X106978267Y-97646160D01*
X106978266Y-97646157D01*
X106978126Y-97645092D01*
X106918334Y-97500740D01*
X106906142Y-97484850D01*
X106823874Y-97377637D01*
X106823218Y-97376782D01*
X106796739Y-97356464D01*
X106700122Y-97282327D01*
X106700120Y-97282326D01*
X106699260Y-97281666D01*
X106694082Y-97279521D01*
X106555905Y-97222287D01*
X106554908Y-97221874D01*
X106553843Y-97221734D01*
X106553840Y-97221733D01*
X106401071Y-97201621D01*
X106400000Y-97201480D01*
X106398929Y-97201621D01*
X106246160Y-97221733D01*
X106246157Y-97221734D01*
X106245092Y-97221874D01*
X106244095Y-97222287D01*
X106105919Y-97279521D01*
X106100740Y-97281666D01*
X106099880Y-97282326D01*
X106099878Y-97282327D01*
X106003261Y-97356464D01*
X105976782Y-97376782D01*
X105976126Y-97377637D01*
X105946731Y-97415945D01*
X105935795Y-97422259D01*
X105933641Y-97422400D01*
X105917000Y-97422400D01*
X105905333Y-97417567D01*
X105900500Y-97405900D01*
X105900500Y-97175326D01*
X105885966Y-97102260D01*
X105830601Y-97019399D01*
X105747740Y-96964034D01*
X105674674Y-96949500D01*
X103125326Y-96949500D01*
X103052260Y-96964034D01*
X102969399Y-97019399D01*
X102914034Y-97102260D01*
X102899500Y-97175326D01*
X102899500Y-98324674D01*
X98800500Y-98324674D01*
X98800500Y-96444376D01*
X100844455Y-96444376D01*
X100863227Y-96622983D01*
X100863524Y-96623855D01*
X100919914Y-96789500D01*
X100921103Y-96792993D01*
X101015206Y-96945955D01*
X101015854Y-96946617D01*
X101015855Y-96946618D01*
X101022284Y-96953183D01*
X101140859Y-97074268D01*
X101203290Y-97114502D01*
X101281058Y-97164620D01*
X101291817Y-97171554D01*
X101367558Y-97199121D01*
X101459714Y-97232664D01*
X101459718Y-97232665D01*
X101460578Y-97232978D01*
X101599283Y-97250500D01*
X101695155Y-97250500D01*
X101695606Y-97250449D01*
X101695613Y-97250449D01*
X101782242Y-97240732D01*
X101828472Y-97235546D01*
X101936253Y-97198013D01*
X101997204Y-97176788D01*
X101997207Y-97176787D01*
X101998073Y-97176485D01*
X101999928Y-97175326D01*
X102149596Y-97081803D01*
X102149597Y-97081802D01*
X102150375Y-97081316D01*
X102156968Y-97074769D01*
X102277151Y-96955422D01*
X102277153Y-96955419D01*
X102277807Y-96954770D01*
X102374037Y-96803136D01*
X102418721Y-96677649D01*
X102433972Y-96634819D01*
X102433972Y-96634818D01*
X102434281Y-96633951D01*
X102455545Y-96455624D01*
X102436773Y-96277017D01*
X102418659Y-96223809D01*
X107100000Y-96223809D01*
X107100159Y-96225423D01*
X107114188Y-96295950D01*
X107115409Y-96298898D01*
X107168858Y-96378890D01*
X107171110Y-96381142D01*
X107251102Y-96434591D01*
X107254050Y-96435812D01*
X107324577Y-96449841D01*
X107326191Y-96450000D01*
X107496717Y-96450000D01*
X107499038Y-96449038D01*
X107500000Y-96446717D01*
X107850000Y-96446717D01*
X107850962Y-96449038D01*
X107853283Y-96450000D01*
X108023809Y-96450000D01*
X108025423Y-96449841D01*
X108095950Y-96435812D01*
X108098898Y-96434591D01*
X108178890Y-96381142D01*
X108181142Y-96378890D01*
X108234591Y-96298898D01*
X108235812Y-96295950D01*
X108249841Y-96225423D01*
X108250000Y-96223809D01*
X108250000Y-95853283D01*
X108249038Y-95850962D01*
X108246717Y-95850000D01*
X107853283Y-95850000D01*
X107850962Y-95850962D01*
X107850000Y-95853283D01*
X107850000Y-96446717D01*
X107500000Y-96446717D01*
X107500000Y-95853283D01*
X107499038Y-95850962D01*
X107496717Y-95850000D01*
X107103283Y-95850000D01*
X107100962Y-95850962D01*
X107100000Y-95853283D01*
X107100000Y-96223809D01*
X102418659Y-96223809D01*
X102411220Y-96201956D01*
X102379195Y-96107881D01*
X102379193Y-96107877D01*
X102378897Y-96107007D01*
X102284794Y-95954045D01*
X102281323Y-95950500D01*
X102193817Y-95861142D01*
X102159141Y-95825732D01*
X102156157Y-95823809D01*
X102900000Y-95823809D01*
X102900159Y-95825423D01*
X102914188Y-95895950D01*
X102915409Y-95898898D01*
X102968858Y-95978890D01*
X102971110Y-95981142D01*
X103051102Y-96034591D01*
X103054050Y-96035812D01*
X103124577Y-96049841D01*
X103126191Y-96050000D01*
X104221717Y-96050000D01*
X104224038Y-96049038D01*
X104225000Y-96046717D01*
X104575000Y-96046717D01*
X104575962Y-96049038D01*
X104578283Y-96050000D01*
X105673809Y-96050000D01*
X105675423Y-96049841D01*
X105745950Y-96035812D01*
X105748898Y-96034591D01*
X105828890Y-95981142D01*
X105831142Y-95978890D01*
X105884591Y-95898898D01*
X105885812Y-95895950D01*
X105899841Y-95825423D01*
X105900000Y-95823809D01*
X105900000Y-95496717D01*
X107100000Y-95496717D01*
X107100962Y-95499038D01*
X107103283Y-95500000D01*
X107496717Y-95500000D01*
X107499038Y-95499038D01*
X107500000Y-95496717D01*
X107850000Y-95496717D01*
X107850962Y-95499038D01*
X107853283Y-95500000D01*
X108246717Y-95500000D01*
X108249038Y-95499038D01*
X108250000Y-95496717D01*
X108250000Y-95126191D01*
X108249841Y-95124577D01*
X108235812Y-95054050D01*
X108234591Y-95051102D01*
X108181142Y-94971110D01*
X108178890Y-94968858D01*
X108098898Y-94915409D01*
X108095950Y-94914188D01*
X108025423Y-94900159D01*
X108023809Y-94900000D01*
X107853283Y-94900000D01*
X107850962Y-94900962D01*
X107850000Y-94903283D01*
X107850000Y-95496717D01*
X107500000Y-95496717D01*
X107500000Y-94903283D01*
X107499038Y-94900962D01*
X107496717Y-94900000D01*
X107326191Y-94900000D01*
X107324577Y-94900159D01*
X107254050Y-94914188D01*
X107251102Y-94915409D01*
X107171110Y-94968858D01*
X107168858Y-94971110D01*
X107115409Y-95051102D01*
X107114188Y-95054050D01*
X107100159Y-95124577D01*
X107100000Y-95126191D01*
X107100000Y-95496717D01*
X105900000Y-95496717D01*
X105900000Y-95428283D01*
X105899038Y-95425962D01*
X105896717Y-95425000D01*
X104578283Y-95425000D01*
X104575962Y-95425962D01*
X104575000Y-95428283D01*
X104575000Y-96046717D01*
X104225000Y-96046717D01*
X104225000Y-95428283D01*
X104224038Y-95425962D01*
X104221717Y-95425000D01*
X102903283Y-95425000D01*
X102900962Y-95425962D01*
X102900000Y-95428283D01*
X102900000Y-95823809D01*
X102156157Y-95823809D01*
X102055426Y-95758892D01*
X102008964Y-95728949D01*
X102008962Y-95728948D01*
X102008183Y-95728446D01*
X101927086Y-95698929D01*
X101840286Y-95667336D01*
X101840282Y-95667335D01*
X101839422Y-95667022D01*
X101700717Y-95649500D01*
X101604845Y-95649500D01*
X101604394Y-95649551D01*
X101604387Y-95649551D01*
X101517758Y-95659268D01*
X101471528Y-95664454D01*
X101397789Y-95690132D01*
X101302796Y-95723212D01*
X101302793Y-95723213D01*
X101301927Y-95723515D01*
X101301150Y-95724001D01*
X101301149Y-95724001D01*
X101154439Y-95815676D01*
X101149625Y-95818684D01*
X101148973Y-95819331D01*
X101148971Y-95819333D01*
X101022849Y-95944578D01*
X101022847Y-95944581D01*
X101022193Y-95945230D01*
X100925963Y-96096864D01*
X100900751Y-96167667D01*
X100873037Y-96245499D01*
X100865719Y-96266049D01*
X100844455Y-96444376D01*
X98800500Y-96444376D01*
X98800500Y-95071717D01*
X102900000Y-95071717D01*
X102900962Y-95074038D01*
X102903283Y-95075000D01*
X104221717Y-95075000D01*
X104224038Y-95074038D01*
X104225000Y-95071717D01*
X104575000Y-95071717D01*
X104575962Y-95074038D01*
X104578283Y-95075000D01*
X105896717Y-95075000D01*
X105899038Y-95074038D01*
X105900000Y-95071717D01*
X105900000Y-94676191D01*
X105899841Y-94674577D01*
X105890709Y-94628667D01*
X115301387Y-94628667D01*
X115301789Y-94631207D01*
X115339160Y-94746225D01*
X115340325Y-94748512D01*
X115393528Y-94821740D01*
X115394375Y-94822731D01*
X115409756Y-94838112D01*
X115412078Y-94839074D01*
X115414400Y-94838112D01*
X115660780Y-94591733D01*
X115661742Y-94589411D01*
X115660780Y-94587089D01*
X115393671Y-94319981D01*
X115391349Y-94319019D01*
X115389935Y-94319605D01*
X115340326Y-94387884D01*
X115339160Y-94390173D01*
X115301789Y-94505189D01*
X115301387Y-94507729D01*
X115301387Y-94628667D01*
X105890709Y-94628667D01*
X105885812Y-94604050D01*
X105884591Y-94601102D01*
X105831142Y-94521110D01*
X105828890Y-94518858D01*
X105748898Y-94465409D01*
X105745950Y-94464188D01*
X105675423Y-94450159D01*
X105673809Y-94450000D01*
X104578283Y-94450000D01*
X104575962Y-94450962D01*
X104575000Y-94453283D01*
X104575000Y-95071717D01*
X104225000Y-95071717D01*
X104225000Y-94453283D01*
X104224038Y-94450962D01*
X104221717Y-94450000D01*
X103126191Y-94450000D01*
X103124577Y-94450159D01*
X103054050Y-94464188D01*
X103051102Y-94465409D01*
X102971110Y-94518858D01*
X102968858Y-94521110D01*
X102915409Y-94601102D01*
X102914188Y-94604050D01*
X102900159Y-94674577D01*
X102900000Y-94676191D01*
X102900000Y-95071717D01*
X98800500Y-95071717D01*
X98800500Y-93227320D01*
X99662796Y-93227320D01*
X99685795Y-93361170D01*
X99686185Y-93362622D01*
X99761994Y-93568115D01*
X99762646Y-93569480D01*
X99874628Y-93757706D01*
X99875525Y-93758940D01*
X100019933Y-93923605D01*
X100021032Y-93924648D01*
X100193041Y-94060249D01*
X100194302Y-94061068D01*
X100388146Y-94163054D01*
X100389532Y-94163628D01*
X100598720Y-94228583D01*
X100600182Y-94228894D01*
X100778021Y-94249943D01*
X100778998Y-94250000D01*
X101471717Y-94250000D01*
X101474038Y-94249038D01*
X101475000Y-94246717D01*
X101825000Y-94246717D01*
X101825962Y-94249038D01*
X101828283Y-94250000D01*
X102505569Y-94250000D01*
X102506327Y-94249965D01*
X102668871Y-94235030D01*
X102670343Y-94234757D01*
X102881165Y-94175299D01*
X102882558Y-94174764D01*
X103079007Y-94077886D01*
X103080288Y-94077101D01*
X103255788Y-93946049D01*
X103256914Y-93945034D01*
X103405588Y-93784200D01*
X103406505Y-93783006D01*
X103523387Y-93597759D01*
X103524069Y-93596419D01*
X103605230Y-93392987D01*
X103605661Y-93391533D01*
X103638147Y-93228219D01*
X103637656Y-93225755D01*
X103636527Y-93225000D01*
X101828283Y-93225000D01*
X101825962Y-93225962D01*
X101825000Y-93228283D01*
X101825000Y-94246717D01*
X101475000Y-94246717D01*
X101475000Y-93228283D01*
X101474038Y-93225962D01*
X101471717Y-93225000D01*
X99665680Y-93225000D01*
X99663359Y-93225962D01*
X99662796Y-93227320D01*
X98800500Y-93227320D01*
X98800500Y-92871781D01*
X99661853Y-92871781D01*
X99662344Y-92874245D01*
X99663473Y-92875000D01*
X101471717Y-92875000D01*
X101474038Y-92874038D01*
X101475000Y-92871717D01*
X101825000Y-92871717D01*
X101825962Y-92874038D01*
X101828283Y-92875000D01*
X103634320Y-92875000D01*
X103636641Y-92874038D01*
X103637204Y-92872680D01*
X103614205Y-92738830D01*
X103613815Y-92737378D01*
X103538006Y-92531885D01*
X103537354Y-92530520D01*
X103425372Y-92342294D01*
X103424475Y-92341060D01*
X103280067Y-92176395D01*
X103278968Y-92175352D01*
X103106959Y-92039751D01*
X103105698Y-92038932D01*
X102911854Y-91936946D01*
X102910468Y-91936372D01*
X102701280Y-91871417D01*
X102699818Y-91871106D01*
X102521979Y-91850057D01*
X102521002Y-91850000D01*
X101828283Y-91850000D01*
X101825962Y-91850962D01*
X101825000Y-91853283D01*
X101825000Y-92871717D01*
X101475000Y-92871717D01*
X101475000Y-91853283D01*
X101474038Y-91850962D01*
X101471717Y-91850000D01*
X100794431Y-91850000D01*
X100793673Y-91850035D01*
X100631129Y-91864970D01*
X100629657Y-91865243D01*
X100418835Y-91924701D01*
X100417442Y-91925236D01*
X100220993Y-92022114D01*
X100219712Y-92022899D01*
X100044212Y-92153951D01*
X100043086Y-92154966D01*
X99894412Y-92315800D01*
X99893495Y-92316994D01*
X99776613Y-92502241D01*
X99775931Y-92503581D01*
X99694770Y-92707013D01*
X99694339Y-92708467D01*
X99661853Y-92871781D01*
X98800500Y-92871781D01*
X98800500Y-91667000D01*
X98805333Y-91655333D01*
X98817000Y-91650500D01*
X107413792Y-91650500D01*
X107425459Y-91655333D01*
G37*
%TD.AperFunction*%
%TA.AperFunction,Conductor*%
G36*
X121605676Y-96944690D02*
G01*
X121607268Y-96945007D01*
X121607269Y-96945007D01*
X121652421Y-96953988D01*
X121685159Y-96960500D01*
X121800000Y-96960500D01*
X121914840Y-96960499D01*
X121962649Y-96950990D01*
X121992731Y-96945007D01*
X121992732Y-96945007D01*
X121994324Y-96944690D01*
X121994441Y-96944612D01*
X122005559Y-96944612D01*
X122005676Y-96944690D01*
X122007268Y-96945007D01*
X122007269Y-96945007D01*
X122052421Y-96953988D01*
X122085159Y-96960500D01*
X122200000Y-96960500D01*
X122314840Y-96960499D01*
X122362649Y-96950990D01*
X122392731Y-96945007D01*
X122392732Y-96945007D01*
X122394324Y-96944690D01*
X122394441Y-96944612D01*
X122405559Y-96944612D01*
X122405676Y-96944690D01*
X122407268Y-96945007D01*
X122407269Y-96945007D01*
X122452421Y-96953988D01*
X122485159Y-96960500D01*
X122600000Y-96960500D01*
X122714840Y-96960499D01*
X122762649Y-96950990D01*
X122792731Y-96945007D01*
X122792732Y-96945007D01*
X122794324Y-96944690D01*
X122794441Y-96944612D01*
X122805559Y-96944612D01*
X122805676Y-96944690D01*
X122807268Y-96945007D01*
X122807269Y-96945007D01*
X122852421Y-96953988D01*
X122885159Y-96960500D01*
X123000000Y-96960500D01*
X123114840Y-96960499D01*
X123162649Y-96950990D01*
X123192731Y-96945007D01*
X123192732Y-96945007D01*
X123194324Y-96944690D01*
X123194441Y-96944612D01*
X123205559Y-96944612D01*
X123205676Y-96944690D01*
X123207268Y-96945007D01*
X123207269Y-96945007D01*
X123252421Y-96953988D01*
X123285159Y-96960500D01*
X123400000Y-96960500D01*
X123514840Y-96960499D01*
X123562649Y-96950990D01*
X123592731Y-96945007D01*
X123592732Y-96945007D01*
X123594324Y-96944690D01*
X123594441Y-96944612D01*
X123605559Y-96944612D01*
X123605676Y-96944690D01*
X123607268Y-96945007D01*
X123607269Y-96945007D01*
X123652421Y-96953988D01*
X123685159Y-96960500D01*
X123800000Y-96960500D01*
X123914840Y-96960499D01*
X123962649Y-96950990D01*
X123992731Y-96945007D01*
X123992732Y-96945007D01*
X123994324Y-96944690D01*
X123994441Y-96944612D01*
X124005559Y-96944612D01*
X124005676Y-96944690D01*
X124007268Y-96945007D01*
X124007269Y-96945007D01*
X124052421Y-96953988D01*
X124085159Y-96960500D01*
X124200000Y-96960500D01*
X124314840Y-96960499D01*
X124362649Y-96950990D01*
X124392731Y-96945007D01*
X124392732Y-96945007D01*
X124394324Y-96944690D01*
X124394441Y-96944612D01*
X124405559Y-96944612D01*
X124405676Y-96944690D01*
X124407268Y-96945007D01*
X124407269Y-96945007D01*
X124452421Y-96953988D01*
X124485159Y-96960500D01*
X124600000Y-96960500D01*
X124714840Y-96960499D01*
X124762649Y-96950990D01*
X124792731Y-96945007D01*
X124792732Y-96945007D01*
X124794324Y-96944690D01*
X124794441Y-96944612D01*
X124805559Y-96944612D01*
X124805676Y-96944690D01*
X124807268Y-96945007D01*
X124807269Y-96945007D01*
X124852421Y-96953988D01*
X124885159Y-96960500D01*
X125000000Y-96960500D01*
X125114840Y-96960499D01*
X125162649Y-96950990D01*
X125192731Y-96945007D01*
X125192732Y-96945007D01*
X125194324Y-96944690D01*
X125194441Y-96944612D01*
X125205559Y-96944612D01*
X125205676Y-96944690D01*
X125207268Y-96945007D01*
X125207269Y-96945007D01*
X125252421Y-96953988D01*
X125285159Y-96960500D01*
X125400000Y-96960500D01*
X125514840Y-96960499D01*
X125562649Y-96950990D01*
X125592731Y-96945007D01*
X125592732Y-96945007D01*
X125594324Y-96944690D01*
X125594441Y-96944612D01*
X125605559Y-96944612D01*
X125605676Y-96944690D01*
X125607268Y-96945007D01*
X125607269Y-96945007D01*
X125652421Y-96953988D01*
X125685159Y-96960500D01*
X125800000Y-96960500D01*
X125914840Y-96960499D01*
X125962649Y-96950990D01*
X125992731Y-96945007D01*
X125992732Y-96945007D01*
X125994324Y-96944690D01*
X125994441Y-96944612D01*
X126005559Y-96944612D01*
X126005676Y-96944690D01*
X126007268Y-96945007D01*
X126007269Y-96945007D01*
X126052421Y-96953988D01*
X126085159Y-96960500D01*
X126200000Y-96960500D01*
X126314840Y-96960499D01*
X126362649Y-96950990D01*
X126392731Y-96945007D01*
X126392732Y-96945007D01*
X126394324Y-96944690D01*
X126394441Y-96944612D01*
X126405559Y-96944612D01*
X126405676Y-96944690D01*
X126407268Y-96945007D01*
X126407269Y-96945007D01*
X126452421Y-96953988D01*
X126485159Y-96960500D01*
X126600000Y-96960500D01*
X126714840Y-96960499D01*
X126780945Y-96947351D01*
X126793330Y-96949815D01*
X126800346Y-96960315D01*
X126800346Y-96966751D01*
X126789500Y-97021277D01*
X126789501Y-97278722D01*
X126801738Y-97340243D01*
X126803038Y-97346781D01*
X126803038Y-97353217D01*
X126789500Y-97421277D01*
X126789501Y-97678722D01*
X126798943Y-97726191D01*
X126803038Y-97746781D01*
X126803038Y-97753217D01*
X126789500Y-97821277D01*
X126789501Y-98078722D01*
X126793758Y-98100122D01*
X126803038Y-98146781D01*
X126803038Y-98153217D01*
X126789500Y-98221277D01*
X126789501Y-98478722D01*
X126800611Y-98534577D01*
X126803038Y-98546781D01*
X126803038Y-98553217D01*
X126789500Y-98621277D01*
X126789501Y-98878722D01*
X126802843Y-98945799D01*
X126803038Y-98946781D01*
X126803038Y-98953217D01*
X126789500Y-99021277D01*
X126789501Y-99278722D01*
X126802891Y-99346040D01*
X126803038Y-99346781D01*
X126803038Y-99353217D01*
X126789500Y-99421277D01*
X126789501Y-99678722D01*
X126795491Y-99708835D01*
X126803038Y-99746781D01*
X126803038Y-99753217D01*
X126789500Y-99821277D01*
X126789501Y-100078722D01*
X126797669Y-100119785D01*
X126803038Y-100146781D01*
X126803038Y-100153217D01*
X126789500Y-100221277D01*
X126789501Y-100478722D01*
X126802730Y-100545230D01*
X126803038Y-100546781D01*
X126803038Y-100553217D01*
X126789500Y-100621277D01*
X126789501Y-100878722D01*
X126800661Y-100934828D01*
X126803038Y-100946781D01*
X126803038Y-100953217D01*
X126789500Y-101021277D01*
X126789501Y-101278722D01*
X126795091Y-101306824D01*
X126803038Y-101346781D01*
X126803038Y-101353217D01*
X126789500Y-101421277D01*
X126789501Y-101678722D01*
X126801762Y-101740364D01*
X126803038Y-101746781D01*
X126803038Y-101753217D01*
X126789500Y-101821277D01*
X126789501Y-102078722D01*
X126800312Y-102133074D01*
X126803038Y-102146781D01*
X126803038Y-102153217D01*
X126789500Y-102221277D01*
X126789501Y-102478722D01*
X126789660Y-102479521D01*
X126800346Y-102533247D01*
X126797882Y-102545633D01*
X126787382Y-102552649D01*
X126780946Y-102552649D01*
X126714841Y-102539500D01*
X126714026Y-102539500D01*
X126600001Y-102539501D01*
X126485160Y-102539501D01*
X126484360Y-102539660D01*
X126484361Y-102539660D01*
X126407269Y-102554993D01*
X126407268Y-102554993D01*
X126405676Y-102555310D01*
X126405559Y-102555388D01*
X126394441Y-102555388D01*
X126394324Y-102555310D01*
X126392732Y-102554993D01*
X126392731Y-102554993D01*
X126315640Y-102539659D01*
X126315641Y-102539659D01*
X126314841Y-102539500D01*
X126314026Y-102539500D01*
X126200001Y-102539501D01*
X126085160Y-102539501D01*
X126084360Y-102539660D01*
X126084361Y-102539660D01*
X126007269Y-102554993D01*
X126007268Y-102554993D01*
X126005676Y-102555310D01*
X126005559Y-102555388D01*
X125994441Y-102555388D01*
X125994324Y-102555310D01*
X125992732Y-102554993D01*
X125992731Y-102554993D01*
X125915640Y-102539659D01*
X125915641Y-102539659D01*
X125914841Y-102539500D01*
X125914026Y-102539500D01*
X125800001Y-102539501D01*
X125685160Y-102539501D01*
X125684360Y-102539660D01*
X125684361Y-102539660D01*
X125607269Y-102554993D01*
X125607268Y-102554993D01*
X125605676Y-102555310D01*
X125605559Y-102555388D01*
X125594441Y-102555388D01*
X125594324Y-102555310D01*
X125592732Y-102554993D01*
X125592731Y-102554993D01*
X125515640Y-102539659D01*
X125515641Y-102539659D01*
X125514841Y-102539500D01*
X125514026Y-102539500D01*
X125400001Y-102539501D01*
X125285160Y-102539501D01*
X125284360Y-102539660D01*
X125284361Y-102539660D01*
X125207269Y-102554993D01*
X125207268Y-102554993D01*
X125205676Y-102555310D01*
X125205559Y-102555388D01*
X125194441Y-102555388D01*
X125194324Y-102555310D01*
X125192732Y-102554993D01*
X125192731Y-102554993D01*
X125115640Y-102539659D01*
X125115641Y-102539659D01*
X125114841Y-102539500D01*
X125114026Y-102539500D01*
X125000001Y-102539501D01*
X124885160Y-102539501D01*
X124884360Y-102539660D01*
X124884361Y-102539660D01*
X124807269Y-102554993D01*
X124807268Y-102554993D01*
X124805676Y-102555310D01*
X124805559Y-102555388D01*
X124794441Y-102555388D01*
X124794324Y-102555310D01*
X124792732Y-102554993D01*
X124792731Y-102554993D01*
X124715640Y-102539659D01*
X124715641Y-102539659D01*
X124714841Y-102539500D01*
X124714026Y-102539500D01*
X124600001Y-102539501D01*
X124485160Y-102539501D01*
X124484360Y-102539660D01*
X124484361Y-102539660D01*
X124407269Y-102554993D01*
X124407268Y-102554993D01*
X124405676Y-102555310D01*
X124405559Y-102555388D01*
X124394441Y-102555388D01*
X124394324Y-102555310D01*
X124392732Y-102554993D01*
X124392731Y-102554993D01*
X124315640Y-102539659D01*
X124315641Y-102539659D01*
X124314841Y-102539500D01*
X124314026Y-102539500D01*
X124200001Y-102539501D01*
X124085160Y-102539501D01*
X124084360Y-102539660D01*
X124084361Y-102539660D01*
X124007269Y-102554993D01*
X124007268Y-102554993D01*
X124005676Y-102555310D01*
X124005559Y-102555388D01*
X123994441Y-102555388D01*
X123994324Y-102555310D01*
X123992732Y-102554993D01*
X123992731Y-102554993D01*
X123915640Y-102539659D01*
X123915641Y-102539659D01*
X123914841Y-102539500D01*
X123914026Y-102539500D01*
X123800001Y-102539501D01*
X123685160Y-102539501D01*
X123684360Y-102539660D01*
X123684361Y-102539660D01*
X123607269Y-102554993D01*
X123607268Y-102554993D01*
X123605676Y-102555310D01*
X123605559Y-102555388D01*
X123594441Y-102555388D01*
X123594324Y-102555310D01*
X123592732Y-102554993D01*
X123592731Y-102554993D01*
X123515640Y-102539659D01*
X123515641Y-102539659D01*
X123514841Y-102539500D01*
X123514026Y-102539500D01*
X123400001Y-102539501D01*
X123285160Y-102539501D01*
X123284360Y-102539660D01*
X123284361Y-102539660D01*
X123207269Y-102554993D01*
X123207268Y-102554993D01*
X123205676Y-102555310D01*
X123205559Y-102555388D01*
X123194441Y-102555388D01*
X123194324Y-102555310D01*
X123192732Y-102554993D01*
X123192731Y-102554993D01*
X123115640Y-102539659D01*
X123115641Y-102539659D01*
X123114841Y-102539500D01*
X123114026Y-102539500D01*
X123000001Y-102539501D01*
X122885160Y-102539501D01*
X122884360Y-102539660D01*
X122884361Y-102539660D01*
X122807269Y-102554993D01*
X122807268Y-102554993D01*
X122805676Y-102555310D01*
X122805559Y-102555388D01*
X122794441Y-102555388D01*
X122794324Y-102555310D01*
X122792732Y-102554993D01*
X122792731Y-102554993D01*
X122715640Y-102539659D01*
X122715641Y-102539659D01*
X122714841Y-102539500D01*
X122714026Y-102539500D01*
X122600001Y-102539501D01*
X122485160Y-102539501D01*
X122484360Y-102539660D01*
X122484361Y-102539660D01*
X122407269Y-102554993D01*
X122407268Y-102554993D01*
X122405676Y-102555310D01*
X122405559Y-102555388D01*
X122394441Y-102555388D01*
X122394324Y-102555310D01*
X122392732Y-102554993D01*
X122392731Y-102554993D01*
X122315640Y-102539659D01*
X122315641Y-102539659D01*
X122314841Y-102539500D01*
X122314026Y-102539500D01*
X122200001Y-102539501D01*
X122085160Y-102539501D01*
X122084360Y-102539660D01*
X122084361Y-102539660D01*
X122007269Y-102554993D01*
X122007268Y-102554993D01*
X122005676Y-102555310D01*
X122005559Y-102555388D01*
X121994441Y-102555388D01*
X121994324Y-102555310D01*
X121992732Y-102554993D01*
X121992731Y-102554993D01*
X121915640Y-102539659D01*
X121915641Y-102539659D01*
X121914841Y-102539500D01*
X121914026Y-102539500D01*
X121800001Y-102539501D01*
X121685160Y-102539501D01*
X121684360Y-102539660D01*
X121684361Y-102539660D01*
X121607269Y-102554993D01*
X121607268Y-102554993D01*
X121605676Y-102555310D01*
X121605559Y-102555388D01*
X121594441Y-102555388D01*
X121594324Y-102555310D01*
X121592732Y-102554993D01*
X121592731Y-102554993D01*
X121515640Y-102539659D01*
X121515641Y-102539659D01*
X121514841Y-102539500D01*
X121514026Y-102539500D01*
X121400001Y-102539501D01*
X121285160Y-102539501D01*
X121219055Y-102552649D01*
X121206670Y-102550185D01*
X121199654Y-102539685D01*
X121199654Y-102533247D01*
X121207893Y-102491831D01*
X121210500Y-102478723D01*
X121210499Y-102221278D01*
X121196962Y-102153218D01*
X121196962Y-102146781D01*
X121197496Y-102144100D01*
X121210500Y-102078723D01*
X121210499Y-101821278D01*
X121201058Y-101773809D01*
X121750000Y-101773809D01*
X121750159Y-101775423D01*
X121764188Y-101845950D01*
X121765409Y-101848898D01*
X121818858Y-101928890D01*
X121821110Y-101931142D01*
X121901102Y-101984591D01*
X121904050Y-101985812D01*
X121974577Y-101999841D01*
X121976191Y-102000000D01*
X123821717Y-102000000D01*
X123824038Y-101999038D01*
X123825000Y-101996717D01*
X124175000Y-101996717D01*
X124175962Y-101999038D01*
X124178283Y-102000000D01*
X126023809Y-102000000D01*
X126025423Y-101999841D01*
X126095950Y-101985812D01*
X126098898Y-101984591D01*
X126178890Y-101931142D01*
X126181142Y-101928890D01*
X126234591Y-101848898D01*
X126235812Y-101845950D01*
X126249841Y-101775423D01*
X126250000Y-101773809D01*
X126250000Y-99928283D01*
X126249038Y-99925962D01*
X126246717Y-99925000D01*
X124178283Y-99925000D01*
X124175962Y-99925962D01*
X124175000Y-99928283D01*
X124175000Y-101996717D01*
X123825000Y-101996717D01*
X123825000Y-99928283D01*
X123824038Y-99925962D01*
X123821717Y-99925000D01*
X121753283Y-99925000D01*
X121750962Y-99925962D01*
X121750000Y-99928283D01*
X121750000Y-101773809D01*
X121201058Y-101773809D01*
X121196962Y-101753218D01*
X121196962Y-101746781D01*
X121198239Y-101740364D01*
X121210500Y-101678723D01*
X121210499Y-101421278D01*
X121196962Y-101353218D01*
X121196962Y-101346781D01*
X121200334Y-101329833D01*
X121210500Y-101278723D01*
X121210499Y-101021278D01*
X121196962Y-100953218D01*
X121196962Y-100946781D01*
X121199599Y-100933528D01*
X121210500Y-100878723D01*
X121210499Y-100621278D01*
X121196962Y-100553218D01*
X121196962Y-100546781D01*
X121197401Y-100544578D01*
X121210500Y-100478723D01*
X121210499Y-100221278D01*
X121196962Y-100153218D01*
X121196962Y-100146781D01*
X121199698Y-100133030D01*
X121210500Y-100078723D01*
X121210499Y-99821278D01*
X121196962Y-99753218D01*
X121196962Y-99746781D01*
X121197497Y-99744095D01*
X121210500Y-99678723D01*
X121210500Y-99571717D01*
X121750000Y-99571717D01*
X121750962Y-99574038D01*
X121753283Y-99575000D01*
X123821717Y-99575000D01*
X123824038Y-99574038D01*
X123825000Y-99571717D01*
X124175000Y-99571717D01*
X124175962Y-99574038D01*
X124178283Y-99575000D01*
X126246717Y-99575000D01*
X126249038Y-99574038D01*
X126250000Y-99571717D01*
X126250000Y-97726191D01*
X126249841Y-97724577D01*
X126235812Y-97654050D01*
X126234591Y-97651102D01*
X126181142Y-97571110D01*
X126178890Y-97568858D01*
X126098898Y-97515409D01*
X126095950Y-97514188D01*
X126025423Y-97500159D01*
X126023809Y-97500000D01*
X124178283Y-97500000D01*
X124175962Y-97500962D01*
X124175000Y-97503283D01*
X124175000Y-99571717D01*
X123825000Y-99571717D01*
X123825000Y-97503283D01*
X123824038Y-97500962D01*
X123821717Y-97500000D01*
X121976191Y-97500000D01*
X121974577Y-97500159D01*
X121904050Y-97514188D01*
X121901102Y-97515409D01*
X121821110Y-97568858D01*
X121818858Y-97571110D01*
X121765409Y-97651102D01*
X121764188Y-97654050D01*
X121750159Y-97724577D01*
X121750000Y-97726191D01*
X121750000Y-99571717D01*
X121210500Y-99571717D01*
X121210499Y-99421278D01*
X121196962Y-99353218D01*
X121196962Y-99346781D01*
X121197110Y-99346040D01*
X121210500Y-99278723D01*
X121210499Y-99021278D01*
X121196962Y-98953218D01*
X121196962Y-98946781D01*
X121197158Y-98945799D01*
X121210500Y-98878723D01*
X121210499Y-98621278D01*
X121196962Y-98553218D01*
X121196962Y-98546781D01*
X121199051Y-98536283D01*
X121210500Y-98478723D01*
X121210499Y-98221278D01*
X121196962Y-98153218D01*
X121196962Y-98146781D01*
X121201533Y-98123805D01*
X121210500Y-98078723D01*
X121210499Y-97821278D01*
X121196962Y-97753218D01*
X121196962Y-97746781D01*
X121210341Y-97679522D01*
X121210341Y-97679521D01*
X121210500Y-97678723D01*
X121210499Y-97421278D01*
X121200317Y-97370086D01*
X121200000Y-97366867D01*
X121200000Y-97333134D01*
X121200317Y-97329915D01*
X121210341Y-97279522D01*
X121210341Y-97279521D01*
X121210500Y-97278723D01*
X121210499Y-97021278D01*
X121200317Y-96970086D01*
X121200000Y-96966867D01*
X121200000Y-96963666D01*
X121204833Y-96951999D01*
X121216500Y-96947166D01*
X121219716Y-96947483D01*
X121285159Y-96960500D01*
X121400000Y-96960500D01*
X121514840Y-96960499D01*
X121562649Y-96950990D01*
X121592731Y-96945007D01*
X121592732Y-96945007D01*
X121594324Y-96944690D01*
X121594441Y-96944612D01*
X121605559Y-96944612D01*
X121605676Y-96944690D01*
G37*
%TD.AperFunction*%
%TA.AperFunction,Conductor*%
G36*
X117586586Y-99347030D02*
G01*
X117593797Y-99354241D01*
X117601498Y-99369355D01*
X117690645Y-99458502D01*
X117729159Y-99478126D01*
X117789357Y-99508799D01*
X117797558Y-99518402D01*
X117796568Y-99530992D01*
X117786965Y-99539193D01*
X117781866Y-99540001D01*
X117749956Y-99540001D01*
X117748673Y-99540102D01*
X117659264Y-99554262D01*
X117656824Y-99555054D01*
X117549060Y-99609964D01*
X117546990Y-99611468D01*
X117461468Y-99696990D01*
X117459964Y-99699060D01*
X117405054Y-99806824D01*
X117404262Y-99809264D01*
X117390101Y-99898672D01*
X117390000Y-99899955D01*
X117390000Y-99921717D01*
X117390962Y-99924038D01*
X117393283Y-99925000D01*
X118078500Y-99925000D01*
X118090167Y-99929833D01*
X118095000Y-99941500D01*
X118095000Y-100258500D01*
X118090167Y-100270167D01*
X118078500Y-100275000D01*
X117393284Y-100275000D01*
X117390963Y-100275962D01*
X117390001Y-100278283D01*
X117390001Y-100300044D01*
X117390102Y-100301327D01*
X117395168Y-100333319D01*
X117392220Y-100345599D01*
X117381452Y-100352197D01*
X117378871Y-100352400D01*
X116833671Y-100352400D01*
X116822004Y-100347567D01*
X116817171Y-100335900D01*
X116822004Y-100324233D01*
X116822363Y-100323874D01*
X116823218Y-100323218D01*
X116839981Y-100301372D01*
X116917673Y-100200122D01*
X116917674Y-100200120D01*
X116918334Y-100199260D01*
X116978126Y-100054908D01*
X116984065Y-100009801D01*
X116998379Y-99901071D01*
X116998520Y-99900000D01*
X116992060Y-99850934D01*
X116995329Y-99838736D01*
X116996752Y-99837113D01*
X117134806Y-99699060D01*
X117273835Y-99560031D01*
X117282920Y-99555402D01*
X117342175Y-99546017D01*
X117343329Y-99545429D01*
X117343332Y-99545428D01*
X117429065Y-99501744D01*
X117452391Y-99489859D01*
X117539859Y-99402391D01*
X117564393Y-99354241D01*
X117573996Y-99346040D01*
X117586586Y-99347030D01*
G37*
%TD.AperFunction*%
%TA.AperFunction,Conductor*%
G36*
X132794667Y-91655333D02*
G01*
X132799500Y-91667000D01*
X132799500Y-94715837D01*
X132794667Y-94727504D01*
X132783000Y-94732337D01*
X132779782Y-94732020D01*
X132770425Y-94730159D01*
X132768809Y-94730000D01*
X132348283Y-94730000D01*
X132345962Y-94730962D01*
X132345000Y-94733283D01*
X132345000Y-95821717D01*
X132345962Y-95824038D01*
X132348283Y-95825000D01*
X132989642Y-95825000D01*
X133001309Y-95829833D01*
X133004597Y-95833121D01*
X133005385Y-95833616D01*
X133108854Y-95898630D01*
X133108856Y-95898631D01*
X133109636Y-95899121D01*
X133173951Y-95921626D01*
X133183366Y-95930040D01*
X133185000Y-95937199D01*
X133185000Y-96043000D01*
X133180167Y-96054667D01*
X133168500Y-96059500D01*
X132485326Y-96059500D01*
X132412260Y-96074034D01*
X132329399Y-96129399D01*
X132328497Y-96130749D01*
X132303830Y-96167667D01*
X132293330Y-96174683D01*
X132290111Y-96175000D01*
X132263283Y-96175000D01*
X132260962Y-96175962D01*
X132260000Y-96178283D01*
X132260000Y-96213809D01*
X132260159Y-96215423D01*
X132266142Y-96245499D01*
X132266142Y-96251935D01*
X132259500Y-96285326D01*
X132259500Y-96714674D01*
X132259659Y-96715473D01*
X132265887Y-96746781D01*
X132265887Y-96753217D01*
X132259500Y-96785326D01*
X132259500Y-96875458D01*
X132254667Y-96887125D01*
X132243000Y-96891958D01*
X132231333Y-96887125D01*
X132229910Y-96885503D01*
X132223874Y-96877637D01*
X132223218Y-96876782D01*
X132128257Y-96803916D01*
X132100122Y-96782327D01*
X132100120Y-96782326D01*
X132099260Y-96781666D01*
X132059025Y-96765000D01*
X131955905Y-96722287D01*
X131954908Y-96721874D01*
X131953843Y-96721734D01*
X131953840Y-96721733D01*
X131801071Y-96701621D01*
X131800000Y-96701480D01*
X131798929Y-96701621D01*
X131646160Y-96721733D01*
X131646157Y-96721734D01*
X131645092Y-96721874D01*
X131644095Y-96722287D01*
X131540976Y-96765000D01*
X131500740Y-96781666D01*
X131499880Y-96782326D01*
X131499878Y-96782327D01*
X131471743Y-96803916D01*
X131376782Y-96876782D01*
X131376126Y-96877637D01*
X131283376Y-96998512D01*
X131281666Y-97000740D01*
X131221874Y-97145092D01*
X131221734Y-97146157D01*
X131221733Y-97146160D01*
X131207997Y-97250500D01*
X131201480Y-97300000D01*
X131201621Y-97301071D01*
X131221623Y-97453000D01*
X131221874Y-97454908D01*
X131222287Y-97455905D01*
X131281666Y-97599260D01*
X131281182Y-97599460D01*
X131282606Y-97610269D01*
X131274919Y-97620289D01*
X131266668Y-97622500D01*
X130887000Y-97622500D01*
X130875333Y-97617667D01*
X130870500Y-97606000D01*
X130870499Y-97439070D01*
X130870499Y-97438466D01*
X130867852Y-97420478D01*
X130859533Y-97363961D01*
X130859346Y-97362691D01*
X130819889Y-97282327D01*
X130803387Y-97248716D01*
X130803385Y-97248713D01*
X130802784Y-97247489D01*
X130731312Y-97176141D01*
X130712923Y-97157784D01*
X130712922Y-97157783D01*
X130711956Y-97156819D01*
X130641747Y-97122500D01*
X130625539Y-97114577D01*
X130617179Y-97105111D01*
X130617961Y-97092507D01*
X130625513Y-97084942D01*
X130710990Y-97042975D01*
X130713183Y-97041405D01*
X130801804Y-96952629D01*
X130803368Y-96950436D01*
X130858493Y-96837663D01*
X130859241Y-96835241D01*
X130869015Y-96768249D01*
X130868399Y-96765813D01*
X130867035Y-96765000D01*
X129733799Y-96765000D01*
X129731478Y-96765962D01*
X129730873Y-96767422D01*
X129740952Y-96835894D01*
X129741705Y-96838316D01*
X129797024Y-96950990D01*
X129798595Y-96953183D01*
X129887371Y-97041804D01*
X129889564Y-97043368D01*
X129974461Y-97084867D01*
X129982821Y-97094333D01*
X129982039Y-97106937D01*
X129974488Y-97114501D01*
X129957221Y-97122979D01*
X129888716Y-97156613D01*
X129888713Y-97156615D01*
X129887489Y-97157216D01*
X129870208Y-97174527D01*
X129809600Y-97235241D01*
X129796819Y-97248044D01*
X129790210Y-97261565D01*
X129741810Y-97360581D01*
X129740459Y-97363344D01*
X129738594Y-97376126D01*
X129729669Y-97437309D01*
X129729500Y-97438465D01*
X129729501Y-97781534D01*
X129729589Y-97782131D01*
X129729589Y-97782133D01*
X129740467Y-97856039D01*
X129740654Y-97857309D01*
X129741220Y-97858461D01*
X129796613Y-97971284D01*
X129796615Y-97971287D01*
X129797216Y-97972511D01*
X129888044Y-98063181D01*
X130003344Y-98119541D01*
X130032573Y-98123805D01*
X130077867Y-98130413D01*
X130077870Y-98130413D01*
X130078465Y-98130500D01*
X130279800Y-98130500D01*
X130291467Y-98135333D01*
X130393326Y-98237192D01*
X130395520Y-98239909D01*
X130406184Y-98256425D01*
X130406189Y-98256430D01*
X130406928Y-98257575D01*
X130408000Y-98258420D01*
X130438204Y-98282231D01*
X130439656Y-98283522D01*
X130445243Y-98289109D01*
X130445793Y-98289502D01*
X130462946Y-98301761D01*
X130463567Y-98302227D01*
X130495745Y-98327593D01*
X130505623Y-98335380D01*
X130506911Y-98335832D01*
X130506912Y-98335833D01*
X130512001Y-98337620D01*
X130516128Y-98339764D01*
X130520185Y-98342663D01*
X130521626Y-98343693D01*
X130522932Y-98344084D01*
X130522933Y-98344084D01*
X130572930Y-98359036D01*
X130573669Y-98359276D01*
X130600819Y-98368811D01*
X130624199Y-98377021D01*
X130625236Y-98377111D01*
X130625237Y-98377111D01*
X130626217Y-98377196D01*
X130629730Y-98377500D01*
X130632255Y-98377500D01*
X130636983Y-98378192D01*
X130640724Y-98379311D01*
X130640725Y-98379311D01*
X130642032Y-98379702D01*
X130697745Y-98377513D01*
X130698393Y-98377500D01*
X130933272Y-98377500D01*
X130944939Y-98382333D01*
X130949772Y-98394000D01*
X130944939Y-98405667D01*
X129304843Y-100045763D01*
X129293176Y-100050596D01*
X129281509Y-100045763D01*
X129276676Y-100034096D01*
X129278474Y-100026605D01*
X129295428Y-99993332D01*
X129295429Y-99993329D01*
X129296017Y-99992175D01*
X129310500Y-99900735D01*
X129310499Y-99559266D01*
X129296017Y-99467825D01*
X129295429Y-99466671D01*
X129295428Y-99466668D01*
X129261937Y-99400940D01*
X129239859Y-99357609D01*
X129152391Y-99270141D01*
X129141165Y-99264421D01*
X129132964Y-99254818D01*
X129133954Y-99242228D01*
X129141165Y-99235017D01*
X129150940Y-99230036D01*
X129153010Y-99228532D01*
X129238532Y-99143010D01*
X129240036Y-99140940D01*
X129294946Y-99033176D01*
X129295738Y-99030736D01*
X129308805Y-98948241D01*
X129308218Y-98945799D01*
X129306914Y-98945000D01*
X128193967Y-98945000D01*
X128191646Y-98945962D01*
X128191060Y-98947375D01*
X128204262Y-99030736D01*
X128205054Y-99033176D01*
X128259964Y-99140940D01*
X128261468Y-99143010D01*
X128346990Y-99228532D01*
X128349060Y-99230036D01*
X128358835Y-99235017D01*
X128367036Y-99244620D01*
X128366046Y-99257210D01*
X128358835Y-99264421D01*
X128347609Y-99270141D01*
X128260141Y-99357609D01*
X128238063Y-99400940D01*
X128204572Y-99466668D01*
X128204571Y-99466671D01*
X128203983Y-99467825D01*
X128189500Y-99559265D01*
X128189500Y-99559911D01*
X128189501Y-99839037D01*
X128184668Y-99850704D01*
X128183607Y-99851677D01*
X128155751Y-99875051D01*
X128136752Y-99907958D01*
X128135281Y-99910506D01*
X128134512Y-99911714D01*
X128130516Y-99917422D01*
X128119866Y-99924207D01*
X128107537Y-99921475D01*
X128100751Y-99910824D01*
X128100500Y-99907958D01*
X128100499Y-99822093D01*
X128100499Y-99821278D01*
X128086962Y-99753218D01*
X128086962Y-99746781D01*
X128087497Y-99744095D01*
X128100500Y-99678723D01*
X128100499Y-99421278D01*
X128086962Y-99353218D01*
X128086962Y-99346781D01*
X128087110Y-99346040D01*
X128100500Y-99278723D01*
X128100499Y-99021278D01*
X128086962Y-98953218D01*
X128086962Y-98946781D01*
X128087158Y-98945799D01*
X128100500Y-98878723D01*
X128100499Y-98621278D01*
X128094628Y-98591759D01*
X128191195Y-98591759D01*
X128191782Y-98594201D01*
X128193086Y-98595000D01*
X128571717Y-98595000D01*
X128574038Y-98594038D01*
X128575000Y-98591717D01*
X128925000Y-98591717D01*
X128925962Y-98594038D01*
X128928283Y-98595000D01*
X129306033Y-98595000D01*
X129308354Y-98594038D01*
X129308940Y-98592625D01*
X129295738Y-98509264D01*
X129294946Y-98506824D01*
X129240036Y-98399060D01*
X129238532Y-98396990D01*
X129153010Y-98311468D01*
X129150940Y-98309964D01*
X129043176Y-98255054D01*
X129040736Y-98254262D01*
X128951328Y-98240101D01*
X128950045Y-98240000D01*
X128928283Y-98240000D01*
X128925962Y-98240962D01*
X128925000Y-98243283D01*
X128925000Y-98591717D01*
X128575000Y-98591717D01*
X128575000Y-98243284D01*
X128574038Y-98240963D01*
X128571717Y-98240001D01*
X128549956Y-98240001D01*
X128548673Y-98240102D01*
X128459264Y-98254262D01*
X128456824Y-98255054D01*
X128349060Y-98309964D01*
X128346990Y-98311468D01*
X128261468Y-98396990D01*
X128259964Y-98399060D01*
X128205054Y-98506824D01*
X128204262Y-98509264D01*
X128191195Y-98591759D01*
X128094628Y-98591759D01*
X128086962Y-98553218D01*
X128086962Y-98546781D01*
X128089051Y-98536283D01*
X128100500Y-98478723D01*
X128100499Y-98221278D01*
X128086962Y-98153218D01*
X128086962Y-98146781D01*
X128091533Y-98123805D01*
X128100500Y-98078723D01*
X128100499Y-97821278D01*
X128086962Y-97753218D01*
X128086962Y-97746781D01*
X128100341Y-97679522D01*
X128100341Y-97679521D01*
X128100500Y-97678723D01*
X128100499Y-97421278D01*
X128086962Y-97353218D01*
X128086962Y-97346781D01*
X128088725Y-97337921D01*
X128100500Y-97278723D01*
X128100499Y-97021278D01*
X128085583Y-96946285D01*
X128028759Y-96861241D01*
X127943715Y-96804417D01*
X127868723Y-96789500D01*
X127867908Y-96789500D01*
X127445001Y-96789501D01*
X127021278Y-96789501D01*
X126966753Y-96800346D01*
X126954367Y-96797882D01*
X126947351Y-96787382D01*
X126947351Y-96780944D01*
X126948279Y-96776283D01*
X126960500Y-96714841D01*
X126960500Y-96411751D01*
X129730985Y-96411751D01*
X129731601Y-96414187D01*
X129732965Y-96415000D01*
X130121717Y-96415000D01*
X130124038Y-96414038D01*
X130125000Y-96411717D01*
X130475000Y-96411717D01*
X130475962Y-96414038D01*
X130478283Y-96415000D01*
X130866201Y-96415000D01*
X130868522Y-96414038D01*
X130869127Y-96412578D01*
X130859048Y-96344106D01*
X130858295Y-96341684D01*
X130802976Y-96229010D01*
X130801405Y-96226817D01*
X130712629Y-96138196D01*
X130710436Y-96136632D01*
X130597663Y-96081507D01*
X130595241Y-96080759D01*
X130522092Y-96070087D01*
X130520891Y-96070000D01*
X130478283Y-96070000D01*
X130475962Y-96070962D01*
X130475000Y-96073283D01*
X130475000Y-96411717D01*
X130125000Y-96411717D01*
X130125000Y-96073283D01*
X130124038Y-96070962D01*
X130121717Y-96070000D01*
X130079110Y-96070000D01*
X130077908Y-96070088D01*
X130004106Y-96080952D01*
X130001684Y-96081705D01*
X129889010Y-96137024D01*
X129886817Y-96138595D01*
X129798196Y-96227371D01*
X129796632Y-96229564D01*
X129741507Y-96342337D01*
X129740759Y-96344759D01*
X129730985Y-96411751D01*
X126960500Y-96411751D01*
X126960499Y-95895160D01*
X126944690Y-95815676D01*
X126884462Y-95725538D01*
X126851942Y-95703809D01*
X131345000Y-95703809D01*
X131345159Y-95705423D01*
X131359188Y-95775950D01*
X131360409Y-95778898D01*
X131413858Y-95858890D01*
X131416110Y-95861142D01*
X131496102Y-95914591D01*
X131499050Y-95915812D01*
X131569577Y-95929841D01*
X131571191Y-95930000D01*
X131991717Y-95930000D01*
X131994038Y-95929038D01*
X131995000Y-95926717D01*
X131995000Y-95508283D01*
X131994038Y-95505962D01*
X131991717Y-95505000D01*
X131348283Y-95505000D01*
X131345962Y-95505962D01*
X131345000Y-95508283D01*
X131345000Y-95703809D01*
X126851942Y-95703809D01*
X126794324Y-95665310D01*
X126714841Y-95649500D01*
X126714026Y-95649500D01*
X126600001Y-95649501D01*
X126485160Y-95649501D01*
X126458078Y-95654888D01*
X126407269Y-95664993D01*
X126407268Y-95664993D01*
X126405676Y-95665310D01*
X126405559Y-95665388D01*
X126394441Y-95665388D01*
X126394324Y-95665310D01*
X126392732Y-95664993D01*
X126392731Y-95664993D01*
X126340466Y-95654597D01*
X126314841Y-95649500D01*
X126314026Y-95649500D01*
X126200001Y-95649501D01*
X126085160Y-95649501D01*
X126058078Y-95654888D01*
X126007269Y-95664993D01*
X126007268Y-95664993D01*
X126005676Y-95665310D01*
X126005559Y-95665388D01*
X125994441Y-95665388D01*
X125994324Y-95665310D01*
X125992732Y-95664993D01*
X125992731Y-95664993D01*
X125940466Y-95654597D01*
X125914841Y-95649500D01*
X125906028Y-95649500D01*
X125744100Y-95649501D01*
X125732433Y-95644668D01*
X125727600Y-95633001D01*
X125727600Y-95607803D01*
X125732433Y-95596136D01*
X125744100Y-95591303D01*
X125746255Y-95591444D01*
X125800000Y-95598520D01*
X125801071Y-95598379D01*
X125953840Y-95578267D01*
X125953843Y-95578266D01*
X125954908Y-95578126D01*
X125984072Y-95566046D01*
X126098256Y-95518750D01*
X126098257Y-95518750D01*
X126099260Y-95518334D01*
X126100120Y-95517674D01*
X126100122Y-95517673D01*
X126222363Y-95423874D01*
X126223218Y-95423218D01*
X126276862Y-95353308D01*
X126317673Y-95300122D01*
X126317674Y-95300120D01*
X126318334Y-95299260D01*
X126328334Y-95275119D01*
X126377713Y-95155905D01*
X126378126Y-95154908D01*
X126378547Y-95151717D01*
X131345000Y-95151717D01*
X131345962Y-95154038D01*
X131348283Y-95155000D01*
X131991717Y-95155000D01*
X131994038Y-95154038D01*
X131995000Y-95151717D01*
X131995000Y-94733283D01*
X131994038Y-94730962D01*
X131991717Y-94730000D01*
X131571191Y-94730000D01*
X131569577Y-94730159D01*
X131499050Y-94744188D01*
X131496102Y-94745409D01*
X131416110Y-94798858D01*
X131413858Y-94801110D01*
X131360409Y-94881102D01*
X131359188Y-94884050D01*
X131345159Y-94954577D01*
X131345000Y-94956191D01*
X131345000Y-95151717D01*
X126378547Y-95151717D01*
X126378564Y-95151586D01*
X126398379Y-95001071D01*
X126398520Y-95000000D01*
X126394373Y-94968497D01*
X126378267Y-94846160D01*
X126378266Y-94846157D01*
X126378126Y-94845092D01*
X126331422Y-94732337D01*
X126318750Y-94701744D01*
X126318750Y-94701743D01*
X126318334Y-94700740D01*
X126298259Y-94674577D01*
X126223874Y-94577637D01*
X126223218Y-94576782D01*
X126179299Y-94543082D01*
X126100122Y-94482327D01*
X126100119Y-94482325D01*
X126099260Y-94481666D01*
X126073718Y-94471086D01*
X125955905Y-94422287D01*
X125954908Y-94421874D01*
X125953843Y-94421734D01*
X125953840Y-94421733D01*
X125801071Y-94401621D01*
X125800000Y-94401480D01*
X125798929Y-94401621D01*
X125646160Y-94421733D01*
X125646157Y-94421734D01*
X125645092Y-94421874D01*
X125500740Y-94481666D01*
X125434799Y-94532264D01*
X125422603Y-94535532D01*
X125413090Y-94530840D01*
X125402391Y-94520141D01*
X125391165Y-94514421D01*
X125382964Y-94504818D01*
X125383954Y-94492228D01*
X125391165Y-94485017D01*
X125400940Y-94480036D01*
X125403010Y-94478532D01*
X125488532Y-94393010D01*
X125490036Y-94390940D01*
X125544946Y-94283176D01*
X125545738Y-94280736D01*
X125558805Y-94198241D01*
X125558218Y-94195799D01*
X125556914Y-94195000D01*
X124841500Y-94195000D01*
X124829833Y-94190167D01*
X124825000Y-94178500D01*
X124825000Y-93841717D01*
X125175000Y-93841717D01*
X125175962Y-93844038D01*
X125178283Y-93845000D01*
X125556033Y-93845000D01*
X125558354Y-93844038D01*
X125558940Y-93842625D01*
X125545738Y-93759264D01*
X125544946Y-93756824D01*
X125490036Y-93649060D01*
X125488532Y-93646990D01*
X125403010Y-93561468D01*
X125400940Y-93559964D01*
X125312110Y-93514702D01*
X125303909Y-93505099D01*
X125304899Y-93492509D01*
X125312110Y-93485298D01*
X125400940Y-93440036D01*
X125403010Y-93438532D01*
X125488532Y-93353010D01*
X125490036Y-93350940D01*
X125544946Y-93243176D01*
X125545738Y-93240736D01*
X125558805Y-93158241D01*
X125558218Y-93155799D01*
X125556914Y-93155000D01*
X125178283Y-93155000D01*
X125175962Y-93155962D01*
X125175000Y-93158283D01*
X125175000Y-93841717D01*
X124825000Y-93841717D01*
X124825000Y-92821500D01*
X124829833Y-92809833D01*
X124841500Y-92805000D01*
X125556033Y-92805000D01*
X125558354Y-92804038D01*
X125558940Y-92802625D01*
X125545738Y-92719264D01*
X125544946Y-92716824D01*
X125490036Y-92609060D01*
X125488532Y-92606990D01*
X125403010Y-92521468D01*
X125400940Y-92519964D01*
X125391165Y-92514983D01*
X125382964Y-92505380D01*
X125383954Y-92492790D01*
X125391165Y-92485579D01*
X125392154Y-92485075D01*
X125402391Y-92479859D01*
X125489859Y-92392391D01*
X125528884Y-92315800D01*
X125545428Y-92283332D01*
X125545429Y-92283329D01*
X125546017Y-92282175D01*
X125560500Y-92190735D01*
X125560499Y-91849266D01*
X125546017Y-91757825D01*
X125545429Y-91756671D01*
X125545428Y-91756668D01*
X125503556Y-91674491D01*
X125502566Y-91661901D01*
X125510767Y-91652298D01*
X125518258Y-91650500D01*
X132783000Y-91650500D01*
X132794667Y-91655333D01*
G37*
%TD.AperFunction*%
%TA.AperFunction,Conductor*%
G36*
X120483780Y-91655333D02*
G01*
X120488613Y-91667000D01*
X120486815Y-91674491D01*
X120455054Y-91736824D01*
X120454262Y-91739264D01*
X120441195Y-91821759D01*
X120441782Y-91824201D01*
X120443086Y-91825000D01*
X121158500Y-91825000D01*
X121170167Y-91829833D01*
X121175000Y-91841500D01*
X121175000Y-92158500D01*
X121170167Y-92170167D01*
X121158500Y-92175000D01*
X120443967Y-92175000D01*
X120441646Y-92175962D01*
X120441060Y-92177375D01*
X120454262Y-92260736D01*
X120455054Y-92263176D01*
X120509964Y-92370940D01*
X120511468Y-92373010D01*
X120596990Y-92458532D01*
X120599060Y-92460036D01*
X120608835Y-92465017D01*
X120617036Y-92474620D01*
X120616046Y-92487210D01*
X120608835Y-92494421D01*
X120597609Y-92500141D01*
X120510141Y-92587609D01*
X120509554Y-92588762D01*
X120454572Y-92696668D01*
X120454571Y-92696671D01*
X120453983Y-92697825D01*
X120439500Y-92789265D01*
X120439501Y-93130734D01*
X120453983Y-93222175D01*
X120454571Y-93223329D01*
X120454572Y-93223332D01*
X120483104Y-93279327D01*
X120510141Y-93332391D01*
X120597609Y-93419859D01*
X120668096Y-93455774D01*
X120706965Y-93475579D01*
X120715166Y-93485182D01*
X120714176Y-93497772D01*
X120706965Y-93504983D01*
X120599060Y-93559964D01*
X120596990Y-93561468D01*
X120511667Y-93646791D01*
X120500000Y-93651624D01*
X120488333Y-93646791D01*
X120403010Y-93561468D01*
X120400940Y-93559964D01*
X120293176Y-93505054D01*
X120290736Y-93504262D01*
X120201328Y-93490101D01*
X120200045Y-93490000D01*
X120178283Y-93490000D01*
X120175962Y-93490962D01*
X120175000Y-93493283D01*
X120175000Y-93841717D01*
X120175962Y-93844038D01*
X120178283Y-93845000D01*
X121158500Y-93845000D01*
X121170167Y-93849833D01*
X121175000Y-93861500D01*
X121175000Y-94178500D01*
X121170167Y-94190167D01*
X121158500Y-94195000D01*
X119845079Y-94195000D01*
X119833412Y-94190167D01*
X119831989Y-94188545D01*
X119828410Y-94183881D01*
X119825000Y-94173836D01*
X119825000Y-93493284D01*
X119824038Y-93490963D01*
X119821717Y-93490001D01*
X119799956Y-93490001D01*
X119798673Y-93490102D01*
X119709264Y-93504262D01*
X119706824Y-93505054D01*
X119599060Y-93559964D01*
X119596990Y-93561468D01*
X119511468Y-93646990D01*
X119509964Y-93649060D01*
X119455054Y-93756824D01*
X119454262Y-93759264D01*
X119440101Y-93848672D01*
X119440000Y-93849955D01*
X119440000Y-93914637D01*
X119435167Y-93926304D01*
X119423500Y-93931137D01*
X119421349Y-93930996D01*
X119337156Y-93919912D01*
X119336085Y-93920053D01*
X119183316Y-93940165D01*
X119183313Y-93940166D01*
X119182248Y-93940306D01*
X119168383Y-93946049D01*
X119049550Y-93995271D01*
X119037896Y-94000098D01*
X119037036Y-94000758D01*
X119037034Y-94000759D01*
X118975423Y-94048035D01*
X118913938Y-94095214D01*
X118913282Y-94096069D01*
X118822853Y-94213919D01*
X118818822Y-94219172D01*
X118818406Y-94220175D01*
X118818406Y-94220176D01*
X118802365Y-94258904D01*
X118759030Y-94363524D01*
X118758890Y-94364589D01*
X118758889Y-94364592D01*
X118749925Y-94432684D01*
X118745053Y-94469694D01*
X118740442Y-94504716D01*
X118734128Y-94515652D01*
X118721929Y-94518921D01*
X118712539Y-94514351D01*
X117037537Y-92874245D01*
X116404956Y-92254843D01*
X116400000Y-92243054D01*
X116400000Y-91667000D01*
X116404833Y-91655333D01*
X116416500Y-91650500D01*
X120472113Y-91650500D01*
X120483780Y-91655333D01*
G37*
%TD.AperFunction*%
%TD*%
M02*
