%TF.GenerationSoftware,KiCad,Pcbnew,(6.0.7)*%
%TF.CreationDate,2023-03-08T16:51:48-08:00*%
%TF.ProjectId,ESP_SoC,4553505f-536f-4432-9e6b-696361645f70,rev?*%
%TF.SameCoordinates,Original*%
%TF.FileFunction,Legend,Top*%
%TF.FilePolarity,Positive*%
%FSLAX46Y46*%
G04 Gerber Fmt 4.6, Leading zero omitted, Abs format (unit mm)*
G04 Created by KiCad (PCBNEW (6.0.7)) date 2023-03-08 16:51:48*
%MOMM*%
%LPD*%
G01*
G04 APERTURE LIST*
%ADD10C,0.125000*%
%ADD11C,0.150000*%
%ADD12C,0.120000*%
%ADD13C,0.127000*%
%ADD14C,0.200000*%
G04 APERTURE END LIST*
D10*
X112273809Y-94726190D02*
X112107142Y-94488095D01*
X111988095Y-94726190D02*
X111988095Y-94226190D01*
X112178571Y-94226190D01*
X112226190Y-94250000D01*
X112250000Y-94273809D01*
X112273809Y-94321428D01*
X112273809Y-94392857D01*
X112250000Y-94440476D01*
X112226190Y-94464285D01*
X112178571Y-94488095D01*
X111988095Y-94488095D01*
X112488095Y-94464285D02*
X112654761Y-94464285D01*
X112726190Y-94726190D02*
X112488095Y-94726190D01*
X112488095Y-94226190D01*
X112726190Y-94226190D01*
X112916666Y-94702380D02*
X112988095Y-94726190D01*
X113107142Y-94726190D01*
X113154761Y-94702380D01*
X113178571Y-94678571D01*
X113202380Y-94630952D01*
X113202380Y-94583333D01*
X113178571Y-94535714D01*
X113154761Y-94511904D01*
X113107142Y-94488095D01*
X113011904Y-94464285D01*
X112964285Y-94440476D01*
X112940476Y-94416666D01*
X112916666Y-94369047D01*
X112916666Y-94321428D01*
X112940476Y-94273809D01*
X112964285Y-94250000D01*
X113011904Y-94226190D01*
X113130952Y-94226190D01*
X113202380Y-94250000D01*
X113416666Y-94464285D02*
X113583333Y-94464285D01*
X113654761Y-94726190D02*
X113416666Y-94726190D01*
X113416666Y-94226190D01*
X113654761Y-94226190D01*
X113797619Y-94226190D02*
X114083333Y-94226190D01*
X113940476Y-94726190D02*
X113940476Y-94226190D01*
X108071428Y-94464285D02*
X108142857Y-94488095D01*
X108166666Y-94511904D01*
X108190476Y-94559523D01*
X108190476Y-94630952D01*
X108166666Y-94678571D01*
X108142857Y-94702380D01*
X108095238Y-94726190D01*
X107904761Y-94726190D01*
X107904761Y-94226190D01*
X108071428Y-94226190D01*
X108119047Y-94250000D01*
X108142857Y-94273809D01*
X108166666Y-94321428D01*
X108166666Y-94369047D01*
X108142857Y-94416666D01*
X108119047Y-94440476D01*
X108071428Y-94464285D01*
X107904761Y-94464285D01*
X108500000Y-94226190D02*
X108595238Y-94226190D01*
X108642857Y-94250000D01*
X108690476Y-94297619D01*
X108714285Y-94392857D01*
X108714285Y-94559523D01*
X108690476Y-94654761D01*
X108642857Y-94702380D01*
X108595238Y-94726190D01*
X108500000Y-94726190D01*
X108452380Y-94702380D01*
X108404761Y-94654761D01*
X108380952Y-94559523D01*
X108380952Y-94392857D01*
X108404761Y-94297619D01*
X108452380Y-94250000D01*
X108500000Y-94226190D01*
X109023809Y-94226190D02*
X109119047Y-94226190D01*
X109166666Y-94250000D01*
X109214285Y-94297619D01*
X109238095Y-94392857D01*
X109238095Y-94559523D01*
X109214285Y-94654761D01*
X109166666Y-94702380D01*
X109119047Y-94726190D01*
X109023809Y-94726190D01*
X108976190Y-94702380D01*
X108928571Y-94654761D01*
X108904761Y-94559523D01*
X108904761Y-94392857D01*
X108928571Y-94297619D01*
X108976190Y-94250000D01*
X109023809Y-94226190D01*
X109380952Y-94226190D02*
X109666666Y-94226190D01*
X109523809Y-94726190D02*
X109523809Y-94226190D01*
D11*
%TO.C,*%
D12*
%TO.C,R2*%
X118246359Y-100920000D02*
X118553641Y-100920000D01*
X118246359Y-101680000D02*
X118553641Y-101680000D01*
%TO.C,J1*%
X102720000Y-103150000D02*
X103475000Y-103150000D01*
X102720000Y-103150000D02*
X102720000Y-94350000D01*
X99550000Y-104895000D02*
X98500000Y-104895000D01*
X99550000Y-92605000D02*
X98500000Y-92605000D01*
%TO.C,C2*%
X119640000Y-94607836D02*
X119640000Y-94392164D01*
X120360000Y-94607836D02*
X120360000Y-94392164D01*
%TO.C,R4*%
X126846359Y-104880000D02*
X127153641Y-104880000D01*
X126846359Y-104120000D02*
X127153641Y-104120000D01*
%TO.C,C7*%
X118490000Y-102892164D02*
X118490000Y-103107836D01*
X119210000Y-102892164D02*
X119210000Y-103107836D01*
%TO.C,R3*%
X126846359Y-105880000D02*
X127153641Y-105880000D01*
X126846359Y-105120000D02*
X127153641Y-105120000D01*
%TO.C,C9*%
X125360000Y-94607836D02*
X125360000Y-94392164D01*
X124640000Y-94607836D02*
X124640000Y-94392164D01*
%TO.C,C13*%
X116210000Y-103392164D02*
X116210000Y-103607836D01*
X115490000Y-103392164D02*
X115490000Y-103607836D01*
%TO.C,C3*%
X116580810Y-94428307D02*
X116428307Y-94580810D01*
X116071693Y-93919190D02*
X115919190Y-94071693D01*
%TO.C,C15*%
X124640000Y-92392164D02*
X124640000Y-92607836D01*
X125360000Y-92392164D02*
X125360000Y-92607836D01*
D13*
%TO.C,AE1*%
X114850000Y-93840000D02*
X111650000Y-93840000D01*
X114850000Y-91660000D02*
X111650000Y-91660000D01*
D14*
X116050000Y-92750000D02*
G75*
G03*
X116050000Y-92750000I-100000J0D01*
G01*
D12*
%TO.C,R5*%
X130680000Y-97253641D02*
X130680000Y-96946359D01*
X129920000Y-97253641D02*
X129920000Y-96946359D01*
%TO.C,C8*%
X116840000Y-103459420D02*
X116840000Y-103740580D01*
X117860000Y-103459420D02*
X117860000Y-103740580D01*
%TO.C,C6*%
X116707836Y-99360000D02*
X116492164Y-99360000D01*
X116707836Y-98640000D02*
X116492164Y-98640000D01*
%TO.C,C16*%
X129110000Y-99357836D02*
X129110000Y-99142164D01*
X128390000Y-99357836D02*
X128390000Y-99142164D01*
%TO.C,SW2*%
X110330000Y-99950000D02*
X110450000Y-99950000D01*
X107170000Y-95550000D02*
X107050000Y-95550000D01*
X110450000Y-95550000D02*
X110330000Y-95550000D01*
X110450000Y-99950000D02*
X110450000Y-95550000D01*
X107050000Y-95550000D02*
X107050000Y-99950000D01*
X107050000Y-99950000D02*
X107170000Y-99950000D01*
X108180000Y-99950000D02*
X109320000Y-99950000D01*
X109320000Y-95550000D02*
X108180000Y-95550000D01*
%TO.C,D2*%
X108650000Y-105300000D02*
X108650000Y-102750000D01*
X110350000Y-105300000D02*
X110350000Y-102750000D01*
X108650000Y-105300000D02*
X110350000Y-105300000D01*
%TO.C,R7*%
X129130000Y-97253641D02*
X129130000Y-96946359D01*
X128370000Y-97253641D02*
X128370000Y-96946359D01*
%TO.C,SW1*%
X111300000Y-95550000D02*
X111300000Y-99950000D01*
X113570000Y-95550000D02*
X112430000Y-95550000D01*
X112430000Y-99950000D02*
X113570000Y-99950000D01*
X111420000Y-95550000D02*
X111300000Y-95550000D01*
X114700000Y-99950000D02*
X114700000Y-95550000D01*
X114700000Y-95550000D02*
X114580000Y-95550000D01*
X114580000Y-99950000D02*
X114700000Y-99950000D01*
X111300000Y-99950000D02*
X111420000Y-99950000D01*
%TO.C,D1*%
X106650000Y-105300000D02*
X108350000Y-105300000D01*
X106650000Y-105300000D02*
X106650000Y-102750000D01*
X108350000Y-105300000D02*
X108350000Y-102750000D01*
%TO.C,C10*%
X123767164Y-104140000D02*
X123982836Y-104140000D01*
X123767164Y-104860000D02*
X123982836Y-104860000D01*
%TO.C,C5*%
X116707836Y-97640000D02*
X116492164Y-97640000D01*
X116707836Y-98360000D02*
X116492164Y-98360000D01*
%TO.C,U1*%
X113100000Y-105560000D02*
X113900000Y-105560000D01*
X113100000Y-105560000D02*
X112300000Y-105560000D01*
X113100000Y-102440000D02*
X111300000Y-102440000D01*
X113100000Y-102440000D02*
X113900000Y-102440000D01*
%TO.C,C11*%
X118507836Y-99740000D02*
X118292164Y-99740000D01*
X118507836Y-100460000D02*
X118292164Y-100460000D01*
%TO.C,C14*%
X121360000Y-92587836D02*
X121360000Y-92372164D01*
X120640000Y-92587836D02*
X120640000Y-92372164D01*
%TO.C,C1*%
X120640000Y-94607836D02*
X120640000Y-94392164D01*
X121360000Y-94607836D02*
X121360000Y-94392164D01*
%TO.C,R6*%
X130680000Y-102146359D02*
X130680000Y-102453641D01*
X129920000Y-102146359D02*
X129920000Y-102453641D01*
%TO.C,R1*%
X122346359Y-94370000D02*
X122653641Y-94370000D01*
X122346359Y-95130000D02*
X122653641Y-95130000D01*
%TO.C,C4*%
X118830810Y-96678307D02*
X118678307Y-96830810D01*
X118321693Y-96169190D02*
X118169190Y-96321693D01*
D13*
%TO.C,U2*%
X127500000Y-103250000D02*
X127500000Y-102780000D01*
X127500000Y-96250000D02*
X127500000Y-96720000D01*
X120500000Y-96250000D02*
X120970000Y-96250000D01*
X120500000Y-96250000D02*
X120500000Y-96720000D01*
X120500000Y-103250000D02*
X120970000Y-103250000D01*
X120500000Y-103250000D02*
X120500000Y-102780000D01*
X127500000Y-103250000D02*
X127030000Y-103250000D01*
X127500000Y-96250000D02*
X127030000Y-96250000D01*
D14*
X119645000Y-97150000D02*
G75*
G03*
X119645000Y-97150000I-100000J0D01*
G01*
D12*
%TO.C,Y1*%
X121650000Y-93900000D02*
X124350000Y-93900000D01*
X121650000Y-91600000D02*
X121650000Y-93900000D01*
%TO.C,C12*%
X109507836Y-101960000D02*
X109292164Y-101960000D01*
X109507836Y-101240000D02*
X109292164Y-101240000D01*
%TD*%
M02*
