%TF.GenerationSoftware,KiCad,Pcbnew,(6.0.7)*%
%TF.CreationDate,2023-02-07T19:22:30-08:00*%
%TF.ProjectId,ESP_Module,4553505f-4d6f-4647-956c-652e6b696361,rev?*%
%TF.SameCoordinates,Original*%
%TF.FileFunction,Legend,Bot*%
%TF.FilePolarity,Positive*%
%FSLAX46Y46*%
G04 Gerber Fmt 4.6, Leading zero omitted, Abs format (unit mm)*
G04 Created by KiCad (PCBNEW (6.0.7)) date 2023-02-07 19:22:30*
%MOMM*%
%LPD*%
G01*
G04 APERTURE LIST*
G04 APERTURE END LIST*
%TO.C,G\u002A\u002A\u002A*%
G36*
X158538343Y-79700695D02*
G01*
X158658597Y-79744927D01*
X158778054Y-79790604D01*
X158895629Y-79807345D01*
X159035916Y-79790443D01*
X159036477Y-79790337D01*
X159247009Y-79771206D01*
X159398223Y-79804419D01*
X159489444Y-79889646D01*
X159520000Y-80026560D01*
X159512405Y-80093484D01*
X159466723Y-80174715D01*
X159364668Y-80261689D01*
X159347780Y-80273763D01*
X159260858Y-80326991D01*
X159170626Y-80358829D01*
X159051528Y-80375703D01*
X158878012Y-80384036D01*
X158749703Y-80386202D01*
X158598555Y-80379010D01*
X158464574Y-80353909D01*
X158318340Y-80304637D01*
X158130436Y-80224934D01*
X158020443Y-80181733D01*
X157880386Y-80150685D01*
X157791255Y-80166693D01*
X157760000Y-80229669D01*
X157751875Y-80276198D01*
X157716732Y-80309669D01*
X157687756Y-80319854D01*
X157607956Y-80368944D01*
X157506732Y-80444984D01*
X157488191Y-80459604D01*
X157339369Y-80558043D01*
X157157984Y-80654723D01*
X156964030Y-80741375D01*
X156777499Y-80809733D01*
X156618384Y-80851531D01*
X156506677Y-80858500D01*
X156469806Y-80853790D01*
X156390751Y-80860683D01*
X156310810Y-80903872D01*
X156203885Y-80995133D01*
X156159145Y-81038191D01*
X156072223Y-81144789D01*
X156057140Y-81216637D01*
X156060140Y-81248102D01*
X156027248Y-81337913D01*
X155955769Y-81441927D01*
X155862910Y-81537400D01*
X155765878Y-81601590D01*
X155687250Y-81642734D01*
X155634296Y-81684265D01*
X155633299Y-81685549D01*
X155577531Y-81697475D01*
X155478327Y-81675079D01*
X155361004Y-81639771D01*
X155280805Y-81630013D01*
X155263250Y-81651736D01*
X155314214Y-81703908D01*
X155364784Y-81751968D01*
X155390427Y-81820905D01*
X155361106Y-81902033D01*
X155272422Y-82005245D01*
X155119970Y-82140432D01*
X155098328Y-82158480D01*
X154932812Y-82298873D01*
X154749530Y-82457407D01*
X154584331Y-82603117D01*
X154520919Y-82658621D01*
X154401039Y-82756737D01*
X154307156Y-82824635D01*
X154255503Y-82850120D01*
X154253215Y-82850215D01*
X154183938Y-82883227D01*
X154081313Y-82965706D01*
X153958713Y-83083352D01*
X153829511Y-83221861D01*
X153707081Y-83366932D01*
X153604796Y-83504264D01*
X153536030Y-83619554D01*
X153481478Y-83730432D01*
X153424659Y-83838692D01*
X153388134Y-83899669D01*
X153367905Y-83921869D01*
X153317826Y-83949669D01*
X153304281Y-83946314D01*
X153246467Y-83893174D01*
X153178127Y-83791102D01*
X153111571Y-83660467D01*
X153059114Y-83521640D01*
X153029313Y-83418551D01*
X153004853Y-83305389D01*
X153008685Y-83246542D01*
X153040000Y-83229669D01*
X153041052Y-83229710D01*
X153068596Y-83266595D01*
X153080000Y-83351744D01*
X153096035Y-83441889D01*
X153136672Y-83556041D01*
X153190034Y-83668707D01*
X153244247Y-83754832D01*
X153287433Y-83789360D01*
X153288382Y-83789242D01*
X153320336Y-83752663D01*
X153374993Y-83663371D01*
X153441092Y-83539669D01*
X153487878Y-83455454D01*
X153599647Y-83295441D01*
X153755401Y-83114454D01*
X153965650Y-82899669D01*
X154011625Y-82855019D01*
X154156276Y-82719350D01*
X154280648Y-82609715D01*
X154372749Y-82536394D01*
X154420584Y-82509669D01*
X154461298Y-82495303D01*
X154517834Y-82433717D01*
X154526110Y-82421031D01*
X154590192Y-82350927D01*
X154694872Y-82254266D01*
X154822097Y-82148001D01*
X154825430Y-82145347D01*
X154953451Y-82039533D01*
X155024864Y-81968590D01*
X155048417Y-81921733D01*
X155032856Y-81888180D01*
X154968943Y-81847663D01*
X154834948Y-81797998D01*
X154670143Y-81758473D01*
X154502502Y-81735446D01*
X154360000Y-81735274D01*
X154293644Y-81740011D01*
X154146353Y-81736156D01*
X154008037Y-81716919D01*
X153902349Y-81686347D01*
X153852944Y-81648489D01*
X153860146Y-81633793D01*
X153925785Y-81617627D01*
X154044831Y-81612196D01*
X154201062Y-81616503D01*
X154378252Y-81629552D01*
X154560178Y-81650345D01*
X154730615Y-81677887D01*
X154873339Y-81711179D01*
X155002035Y-81744859D01*
X155123371Y-81766887D01*
X155194404Y-81767393D01*
X155206161Y-81746587D01*
X155149667Y-81704681D01*
X155111190Y-81674213D01*
X155080000Y-81612346D01*
X155083091Y-81594632D01*
X155139543Y-81547710D01*
X155268942Y-81519790D01*
X155473826Y-81510215D01*
X155636812Y-81492270D01*
X155782984Y-81439697D01*
X155882958Y-81361547D01*
X155920000Y-81266945D01*
X155909612Y-81211122D01*
X155866742Y-81194914D01*
X155800000Y-81249669D01*
X155756187Y-81291245D01*
X155702150Y-81305647D01*
X155680000Y-81259539D01*
X155692039Y-81224597D01*
X155751098Y-81147266D01*
X155837557Y-81063786D01*
X155926750Y-80996937D01*
X155994013Y-80969503D01*
X155996377Y-80969411D01*
X156056282Y-80934447D01*
X156116837Y-80855432D01*
X156190551Y-80758888D01*
X156353298Y-80646123D01*
X156568939Y-80574649D01*
X156825418Y-80549669D01*
X156896770Y-80549363D01*
X157026827Y-80542545D01*
X157123674Y-80518524D01*
X157219385Y-80466606D01*
X157346037Y-80376098D01*
X157352305Y-80371457D01*
X157477434Y-80282514D01*
X157584170Y-80212907D01*
X157650000Y-80177353D01*
X157687147Y-80154594D01*
X157720000Y-80090924D01*
X157751527Y-80044315D01*
X157842285Y-80027719D01*
X157978629Y-80042092D01*
X158146865Y-80085939D01*
X158333296Y-80157769D01*
X158353938Y-80166857D01*
X158624922Y-80259698D01*
X158868383Y-80293908D01*
X159076809Y-80270259D01*
X159242686Y-80189521D01*
X159358503Y-80052467D01*
X159385674Y-79997454D01*
X159394160Y-79943241D01*
X159358152Y-79906642D01*
X159347419Y-79901121D01*
X159258152Y-79887815D01*
X159135705Y-79895394D01*
X159015522Y-79919696D01*
X158933049Y-79956559D01*
X158872692Y-79963005D01*
X158766388Y-79930155D01*
X158635529Y-79865072D01*
X158500063Y-79776070D01*
X158478287Y-79758799D01*
X158438448Y-79709545D01*
X158461713Y-79689539D01*
X158538343Y-79700695D01*
G37*
G36*
X152911589Y-80609673D02*
G01*
X152868073Y-80706774D01*
X152839257Y-80783399D01*
X152826868Y-80912801D01*
X152840121Y-81052649D01*
X152874511Y-81180424D01*
X152925531Y-81273604D01*
X152988678Y-81309669D01*
X152993073Y-81309866D01*
X153067802Y-81335394D01*
X153161505Y-81390740D01*
X153169243Y-81396159D01*
X153290568Y-81469040D01*
X153421759Y-81532981D01*
X153483856Y-81559775D01*
X153532313Y-81593276D01*
X153545282Y-81642801D01*
X153526098Y-81728286D01*
X153478098Y-81869669D01*
X153453222Y-81938549D01*
X153414433Y-82028446D01*
X153362502Y-82120984D01*
X153281038Y-82247597D01*
X153257465Y-82288757D01*
X153202177Y-82420434D01*
X153160477Y-82564869D01*
X153143802Y-82634224D01*
X153108084Y-82748026D01*
X153075420Y-82815188D01*
X153056077Y-82853780D01*
X153066368Y-82919329D01*
X153121548Y-82949669D01*
X153137244Y-82941352D01*
X153186010Y-82881430D01*
X153243564Y-82782683D01*
X153257028Y-82758271D01*
X153330107Y-82651573D01*
X153430014Y-82528195D01*
X153541724Y-82404225D01*
X153650207Y-82295754D01*
X153740439Y-82218871D01*
X153797392Y-82189669D01*
X153837318Y-82204644D01*
X153827213Y-82256643D01*
X153759571Y-82338316D01*
X153639337Y-82441770D01*
X153573703Y-82496010D01*
X153434643Y-82650430D01*
X153318997Y-82851770D01*
X153312635Y-82865058D01*
X153251125Y-82988801D01*
X153203582Y-83076414D01*
X153179839Y-83109669D01*
X153140776Y-83096885D01*
X153060924Y-83062811D01*
X153031574Y-83046921D01*
X152952236Y-82961367D01*
X152929873Y-82856176D01*
X152972256Y-82758057D01*
X152995023Y-82724931D01*
X153042800Y-82619808D01*
X153083634Y-82489669D01*
X153100133Y-82430781D01*
X153156523Y-82276471D01*
X153219059Y-82149669D01*
X153228005Y-82134327D01*
X153285505Y-81995828D01*
X153313851Y-81857052D01*
X153312673Y-81769850D01*
X153279589Y-81678960D01*
X153194922Y-81584924D01*
X153159673Y-81553720D01*
X153029145Y-81452939D01*
X152893492Y-81363740D01*
X152720000Y-81262067D01*
X152720000Y-80955489D01*
X152720017Y-80938047D01*
X152723240Y-80784435D01*
X152735242Y-80689370D01*
X152760601Y-80633262D01*
X152803896Y-80596519D01*
X152837745Y-80577469D01*
X152900493Y-80564878D01*
X152911589Y-80609673D01*
G37*
G36*
X154648184Y-80233605D02*
G01*
X154776413Y-80293058D01*
X154887898Y-80412012D01*
X154973740Y-80575026D01*
X155025041Y-80766660D01*
X155032904Y-80971471D01*
X155020862Y-81060772D01*
X154995895Y-81121125D01*
X154966139Y-81109111D01*
X154936729Y-81028508D01*
X154912800Y-80883095D01*
X154876461Y-80677137D01*
X154805082Y-80483350D01*
X154707115Y-80355573D01*
X154696563Y-80347659D01*
X154607268Y-80328977D01*
X154507283Y-80373125D01*
X154407147Y-80467838D01*
X154317396Y-80600852D01*
X154248567Y-80759905D01*
X154211198Y-80932732D01*
X154202873Y-81025699D01*
X154204850Y-81111365D01*
X154229799Y-81157722D01*
X154284517Y-81188478D01*
X154356236Y-81223256D01*
X154447846Y-81278009D01*
X154483953Y-81297793D01*
X154553611Y-81299385D01*
X154659203Y-81258105D01*
X154685586Y-81245874D01*
X154785097Y-81205825D01*
X154848330Y-81189669D01*
X154850658Y-81189737D01*
X154861985Y-81211684D01*
X154826848Y-81261056D01*
X154763484Y-81320589D01*
X154690132Y-81373015D01*
X154625030Y-81401068D01*
X154566728Y-81407574D01*
X154388168Y-81379726D01*
X154186900Y-81280810D01*
X154130230Y-81244280D01*
X154066536Y-81188311D01*
X154048380Y-81123381D01*
X154060253Y-81017209D01*
X154088326Y-80863858D01*
X154142728Y-80674159D01*
X154218918Y-80524837D01*
X154327178Y-80391802D01*
X154400572Y-80320962D01*
X154505303Y-80250399D01*
X154605437Y-80229669D01*
X154648184Y-80233605D01*
G37*
G36*
X154560319Y-80550753D02*
G01*
X154589698Y-80569032D01*
X154596201Y-80618263D01*
X154578041Y-80709245D01*
X154533432Y-80852780D01*
X154460589Y-81059669D01*
X154430519Y-81103012D01*
X154384203Y-81095342D01*
X154346574Y-81022647D01*
X154343506Y-81002964D01*
X154354140Y-80906889D01*
X154390153Y-80788355D01*
X154440991Y-80672529D01*
X154496100Y-80584578D01*
X154544926Y-80549669D01*
X154560319Y-80550753D01*
G37*
G36*
X153216469Y-79888723D02*
G01*
X153240000Y-79970696D01*
X153240024Y-79983929D01*
X153246299Y-80041816D01*
X153279046Y-80047961D01*
X153360362Y-80009482D01*
X153472979Y-79974895D01*
X153588902Y-80003715D01*
X153679084Y-80107956D01*
X153689362Y-80133391D01*
X153708711Y-80232924D01*
X153718124Y-80361008D01*
X153717345Y-80490695D01*
X153706120Y-80595035D01*
X153684192Y-80647078D01*
X153670066Y-80653017D01*
X153638577Y-80631329D01*
X153617643Y-80546289D01*
X153604723Y-80389669D01*
X153601016Y-80339416D01*
X153584554Y-80233818D01*
X153562549Y-80176357D01*
X153531118Y-80172426D01*
X153467212Y-80214619D01*
X153393747Y-80294094D01*
X153327391Y-80392045D01*
X153284815Y-80489669D01*
X153264925Y-80593224D01*
X153274877Y-80654828D01*
X153311546Y-80653125D01*
X153365181Y-80589733D01*
X153426029Y-80466266D01*
X153442603Y-80427610D01*
X153488879Y-80343291D01*
X153524344Y-80309669D01*
X153549588Y-80318521D01*
X153556085Y-80360872D01*
X153533558Y-80450114D01*
X153480021Y-80599239D01*
X153450575Y-80677421D01*
X153414013Y-80785380D01*
X153407066Y-80842807D01*
X153429888Y-80865603D01*
X153482630Y-80869669D01*
X153505654Y-80870819D01*
X153603709Y-80895029D01*
X153685671Y-80938929D01*
X153720000Y-80986935D01*
X153711933Y-80993887D01*
X153649546Y-81003872D01*
X153548993Y-81007274D01*
X153438653Y-81004454D01*
X153346907Y-80995776D01*
X153302135Y-80981601D01*
X153295334Y-80972272D01*
X153252959Y-80914937D01*
X153186868Y-80825893D01*
X153118050Y-80708411D01*
X153080000Y-80538254D01*
X153077812Y-80489063D01*
X153057011Y-80398344D01*
X153021531Y-80360483D01*
X152980404Y-80389016D01*
X152971714Y-80400607D01*
X152918640Y-80429669D01*
X152910676Y-80427902D01*
X152895561Y-80382702D01*
X152908245Y-80292207D01*
X152941658Y-80177568D01*
X152988731Y-80059934D01*
X153042396Y-79960455D01*
X153095582Y-79900281D01*
X153152216Y-79873651D01*
X153216469Y-79888723D01*
G37*
G36*
X153550266Y-78814709D02*
G01*
X153666598Y-78945493D01*
X153734648Y-79032429D01*
X153861895Y-79195204D01*
X153979212Y-79345493D01*
X153981772Y-79348775D01*
X154072357Y-79459019D01*
X154141505Y-79519315D01*
X154213573Y-79544564D01*
X154312917Y-79549669D01*
X154317307Y-79549700D01*
X154445618Y-79564755D01*
X154611623Y-79602013D01*
X154780562Y-79653739D01*
X155073713Y-79757810D01*
X155431808Y-79673739D01*
X155515468Y-79654655D01*
X155755548Y-79608988D01*
X155931342Y-79593183D01*
X156050425Y-79606979D01*
X156120373Y-79650117D01*
X156134263Y-79702902D01*
X156111498Y-79813192D01*
X156050406Y-79957892D01*
X155958560Y-80122138D01*
X155843532Y-80291071D01*
X155712895Y-80449828D01*
X155644509Y-80525223D01*
X155571910Y-80611850D01*
X155542054Y-80667111D01*
X155547570Y-80707839D01*
X155581088Y-80750870D01*
X155641144Y-80802178D01*
X155708561Y-80829669D01*
X155732152Y-80834450D01*
X155740000Y-80869669D01*
X155678914Y-80907578D01*
X155579139Y-80878555D01*
X155440693Y-80780439D01*
X155286766Y-80651209D01*
X155525442Y-80435219D01*
X155564451Y-80398157D01*
X155675785Y-80275613D01*
X155782251Y-80137704D01*
X155874292Y-79999550D01*
X155942351Y-79876267D01*
X155976868Y-79782974D01*
X155968285Y-79734788D01*
X155923568Y-79731170D01*
X155818562Y-79744142D01*
X155677268Y-79771115D01*
X155521417Y-79807400D01*
X155372737Y-79848309D01*
X155252957Y-79889151D01*
X155211621Y-79905309D01*
X155136190Y-79927035D01*
X155066079Y-79924950D01*
X154975341Y-79895732D01*
X154838028Y-79836063D01*
X154701318Y-79779434D01*
X154517522Y-79713601D01*
X154360000Y-79667434D01*
X154104570Y-79566087D01*
X153875556Y-79392242D01*
X153681000Y-79151227D01*
X153618377Y-79062427D01*
X153546276Y-78981054D01*
X153496858Y-78949669D01*
X153438256Y-78985682D01*
X153373511Y-79084620D01*
X153311453Y-79230455D01*
X153260370Y-79407154D01*
X153242974Y-79472478D01*
X153202333Y-79572930D01*
X153162441Y-79621269D01*
X153132073Y-79609771D01*
X153120000Y-79530715D01*
X153120020Y-79526182D01*
X153135323Y-79378049D01*
X153173015Y-79214815D01*
X153224094Y-79068136D01*
X153279558Y-78969669D01*
X153327594Y-78904589D01*
X153372785Y-78819669D01*
X153400499Y-78770996D01*
X153462317Y-78756865D01*
X153550266Y-78814709D01*
G37*
G36*
X158056074Y-79133391D02*
G01*
X157992189Y-79216436D01*
X157900000Y-79318913D01*
X157812823Y-79413599D01*
X157745694Y-79494281D01*
X157720000Y-79536214D01*
X157727671Y-79544467D01*
X157768000Y-79517669D01*
X157836863Y-79481577D01*
X157978010Y-79474469D01*
X158170000Y-79511772D01*
X158206400Y-79522599D01*
X158296740Y-79562695D01*
X158309504Y-79597314D01*
X158246617Y-79622527D01*
X158110000Y-79634401D01*
X158039155Y-79637368D01*
X157892091Y-79650664D01*
X157780000Y-79669669D01*
X157714084Y-79685395D01*
X157582591Y-79701861D01*
X157507243Y-79673662D01*
X157475581Y-79591689D01*
X157475148Y-79446837D01*
X157469202Y-79318456D01*
X157433706Y-79241856D01*
X157526968Y-79241856D01*
X157542858Y-79295237D01*
X157560758Y-79321954D01*
X157624883Y-79373423D01*
X157701009Y-79357512D01*
X157802764Y-79273058D01*
X157839720Y-79233061D01*
X157906783Y-79123927D01*
X157909725Y-79046103D01*
X157859164Y-79010350D01*
X157765717Y-79027428D01*
X157640000Y-79108098D01*
X157557848Y-79184546D01*
X157526968Y-79241856D01*
X157433706Y-79241856D01*
X157422681Y-79218063D01*
X157405268Y-79200542D01*
X157368491Y-79153002D01*
X157367922Y-79101522D01*
X157399622Y-79010663D01*
X157415521Y-78972915D01*
X157455053Y-78930231D01*
X157515348Y-78947178D01*
X157533468Y-78955753D01*
X157606472Y-78959445D01*
X157696350Y-78905394D01*
X157801249Y-78822880D01*
X157937737Y-78936274D01*
X157974337Y-78968081D01*
X158046919Y-79041951D01*
X158049508Y-79046103D01*
X158077113Y-79090367D01*
X158056074Y-79133391D01*
G37*
G36*
X157444211Y-77396481D02*
G01*
X157448006Y-77405292D01*
X157420274Y-77456249D01*
X157314759Y-77516470D01*
X157218102Y-77565691D01*
X157072413Y-77650809D01*
X156927640Y-77744663D01*
X156810668Y-77823954D01*
X156655853Y-77926015D01*
X156528077Y-78007277D01*
X156470737Y-78045706D01*
X156377308Y-78123952D01*
X156328077Y-78187995D01*
X156327679Y-78188976D01*
X156288086Y-78239693D01*
X156199065Y-78332985D01*
X156071053Y-78459197D01*
X155914487Y-78608673D01*
X155739807Y-78771759D01*
X155557449Y-78938801D01*
X155377852Y-79100143D01*
X155211453Y-79246131D01*
X155068690Y-79367111D01*
X154960000Y-79453427D01*
X154845018Y-79536409D01*
X154772433Y-79578187D01*
X154730326Y-79581942D01*
X154702644Y-79553946D01*
X154706007Y-79538197D01*
X154754351Y-79478355D01*
X154846667Y-79389486D01*
X154970283Y-79284353D01*
X155005766Y-79255541D01*
X155208165Y-79085543D01*
X155416598Y-78902175D01*
X155621468Y-78714715D01*
X155813178Y-78532443D01*
X155982130Y-78364637D01*
X156118726Y-78220578D01*
X156213370Y-78109545D01*
X156256462Y-78040816D01*
X156280254Y-78001234D01*
X156380947Y-77919461D01*
X156551591Y-77827137D01*
X156700381Y-77751254D01*
X156837558Y-77671544D01*
X156931281Y-77606314D01*
X157040199Y-77527524D01*
X157170259Y-77455265D01*
X157294240Y-77403900D01*
X157392203Y-77381586D01*
X157444211Y-77396481D01*
G37*
G36*
X157236509Y-78516143D02*
G01*
X157307181Y-78567166D01*
X157371756Y-78642523D01*
X157400000Y-78710126D01*
X157395315Y-78731848D01*
X157352941Y-78749835D01*
X157286875Y-78723813D01*
X157222269Y-78660768D01*
X157177992Y-78589424D01*
X157165170Y-78528502D01*
X157211111Y-78509669D01*
X157236509Y-78516143D01*
G37*
G36*
X157767991Y-77755995D02*
G01*
X157790264Y-77791325D01*
X157753027Y-77845435D01*
X157662113Y-77904216D01*
X157578675Y-77963208D01*
X157530748Y-78032891D01*
X157509032Y-78075810D01*
X157436592Y-78130750D01*
X157432153Y-78132389D01*
X157364515Y-78177148D01*
X157265255Y-78262673D01*
X157154196Y-78372027D01*
X157101529Y-78426522D01*
X156999619Y-78524332D01*
X156941675Y-78563508D01*
X156922831Y-78546376D01*
X156938226Y-78475260D01*
X156971940Y-78418887D01*
X157054283Y-78321654D01*
X157169307Y-78202655D01*
X157302480Y-78075276D01*
X157439267Y-77952902D01*
X157565137Y-77848918D01*
X157665556Y-77776712D01*
X157725992Y-77749669D01*
X157767991Y-77755995D01*
G37*
G36*
X159277722Y-76792550D02*
G01*
X159278394Y-76825906D01*
X159225918Y-76886600D01*
X159130000Y-76961986D01*
X159082273Y-76996028D01*
X158947873Y-77099947D01*
X158820438Y-77207302D01*
X158756997Y-77261327D01*
X158670991Y-77325570D01*
X158620438Y-77351307D01*
X158597865Y-77358515D01*
X158520804Y-77401378D01*
X158420000Y-77469669D01*
X158364896Y-77507943D01*
X158269622Y-77564901D01*
X158210000Y-77588030D01*
X158167963Y-77581138D01*
X158171482Y-77542834D01*
X158245786Y-77472096D01*
X158390000Y-77369984D01*
X158505716Y-77291848D01*
X158657740Y-77184162D01*
X158780000Y-77092236D01*
X158869452Y-77025439D01*
X158991669Y-76941957D01*
X159111814Y-76866093D01*
X159208986Y-76810960D01*
X159262287Y-76789669D01*
X159277722Y-76792550D01*
G37*
G36*
X158990437Y-76386738D02*
G01*
X159049888Y-76427457D01*
X159057560Y-76473618D01*
X159033598Y-76489594D01*
X158969935Y-76461611D01*
X158962806Y-76455818D01*
X158913786Y-76431059D01*
X158888746Y-76469669D01*
X158885546Y-76478508D01*
X158827550Y-76564226D01*
X158718801Y-76679608D01*
X158573922Y-76812842D01*
X158407536Y-76952117D01*
X158234268Y-77085621D01*
X158068739Y-77201543D01*
X157925573Y-77288071D01*
X157819394Y-77333395D01*
X157749452Y-77358109D01*
X157697262Y-77394100D01*
X157679473Y-77410633D01*
X157609640Y-77429669D01*
X157571761Y-77421313D01*
X157587890Y-77390623D01*
X157668584Y-77333925D01*
X157817955Y-77247627D01*
X157851131Y-77228487D01*
X158013098Y-77120857D01*
X158211065Y-76972210D01*
X158428783Y-76795149D01*
X158650000Y-76602280D01*
X158664563Y-76588648D01*
X158732413Y-76509514D01*
X158760000Y-76448973D01*
X158774466Y-76413289D01*
X158838490Y-76370148D01*
X158907056Y-76364613D01*
X158990437Y-76386738D01*
G37*
G36*
X159369562Y-76710831D02*
G01*
X159400000Y-76749669D01*
X159398838Y-76759230D01*
X159360000Y-76789669D01*
X159350439Y-76788506D01*
X159320000Y-76749669D01*
X159321163Y-76740107D01*
X159360000Y-76709669D01*
X159369562Y-76710831D01*
G37*
G36*
X161421281Y-73292520D02*
G01*
X161443555Y-73379669D01*
X161432437Y-73734312D01*
X161371605Y-74065847D01*
X161262376Y-74345413D01*
X161106834Y-74565663D01*
X161050829Y-74629105D01*
X160989159Y-74714190D01*
X160969380Y-74765786D01*
X160970096Y-74777361D01*
X160940307Y-74856445D01*
X160864520Y-74974228D01*
X160752233Y-75117225D01*
X160612941Y-75271952D01*
X160555090Y-75335447D01*
X160470310Y-75455790D01*
X160449105Y-75546292D01*
X160444027Y-75606407D01*
X160380609Y-75684009D01*
X160326162Y-75722793D01*
X160244302Y-75805434D01*
X160199121Y-75861633D01*
X160113827Y-75962259D01*
X160013694Y-76076769D01*
X159931307Y-76178043D01*
X159865307Y-76277894D01*
X159840000Y-76343004D01*
X159825037Y-76412040D01*
X159770310Y-76475509D01*
X159698194Y-76483440D01*
X159654980Y-76489769D01*
X159601661Y-76546566D01*
X159561194Y-76597799D01*
X159496232Y-76629669D01*
X159466578Y-76625973D01*
X159457724Y-76608334D01*
X159476757Y-76567317D01*
X159529612Y-76493489D01*
X159622225Y-76377417D01*
X159760531Y-76209669D01*
X159831632Y-76122604D01*
X159950069Y-75971989D01*
X160048743Y-75839780D01*
X160111556Y-75747187D01*
X160144814Y-75694704D01*
X160227493Y-75571953D01*
X160333701Y-75419842D01*
X160448616Y-75259803D01*
X160514522Y-75167982D01*
X160635437Y-74993238D01*
X160743072Y-74830368D01*
X160820000Y-74705386D01*
X160867750Y-74622398D01*
X160963554Y-74457379D01*
X161048443Y-74312770D01*
X161133199Y-74151637D01*
X161230833Y-73907998D01*
X161296172Y-73668460D01*
X161320000Y-73461902D01*
X161323299Y-73368137D01*
X161341600Y-73291845D01*
X161380000Y-73269669D01*
X161421281Y-73292520D01*
G37*
G36*
X159228510Y-76233904D02*
G01*
X159201834Y-76306243D01*
X159200297Y-76309074D01*
X159148122Y-76372908D01*
X159100695Y-76387927D01*
X159080000Y-76346811D01*
X159088313Y-76315893D01*
X159130726Y-76254891D01*
X159185373Y-76207706D01*
X159225146Y-76201481D01*
X159228510Y-76233904D01*
G37*
G36*
X159372704Y-75892840D02*
G01*
X159347401Y-75966889D01*
X159307065Y-76036986D01*
X159271289Y-76069356D01*
X159258350Y-76043500D01*
X159275716Y-75981955D01*
X159311145Y-75916574D01*
X159351221Y-75879262D01*
X159372704Y-75892840D01*
G37*
G36*
X159617711Y-75709420D02*
G01*
X159611399Y-75712683D01*
X159528361Y-75762376D01*
X159486667Y-75799669D01*
X159473173Y-75818050D01*
X159426397Y-75826068D01*
X159400000Y-75785843D01*
X159400535Y-75780147D01*
X159427893Y-75714113D01*
X159470754Y-75645300D01*
X159566285Y-75645300D01*
X159575834Y-75698835D01*
X159589488Y-75698216D01*
X159596843Y-75646335D01*
X159590437Y-75607017D01*
X159572676Y-75622169D01*
X159566285Y-75645300D01*
X159470754Y-75645300D01*
X159483905Y-75624186D01*
X159507031Y-75593319D01*
X159568388Y-75538134D01*
X159617626Y-75547698D01*
X159623312Y-75552106D01*
X159669043Y-75555397D01*
X159713722Y-75487474D01*
X159743658Y-75404278D01*
X159760000Y-75312684D01*
X159781880Y-75235742D01*
X159846690Y-75175517D01*
X159926943Y-75170193D01*
X159944834Y-75170328D01*
X159999202Y-75127447D01*
X160056415Y-75042983D01*
X160101630Y-74941688D01*
X160120000Y-74848311D01*
X160124575Y-74821928D01*
X160162515Y-74789669D01*
X160183722Y-74778362D01*
X160193334Y-74719669D01*
X160191374Y-74685698D01*
X160219138Y-74563519D01*
X160283119Y-74440659D01*
X160365066Y-74355788D01*
X160421617Y-74325572D01*
X160460990Y-74317324D01*
X160461258Y-74317642D01*
X160455620Y-74362556D01*
X160426691Y-74461324D01*
X160381173Y-74594326D01*
X160325771Y-74741943D01*
X160267187Y-74884553D01*
X160251168Y-74922086D01*
X160213946Y-75015260D01*
X160198228Y-75064553D01*
X160198211Y-75064776D01*
X160169650Y-75119117D01*
X160098632Y-75213075D01*
X159999758Y-75330429D01*
X159887627Y-75454959D01*
X159776842Y-75570448D01*
X159697075Y-75646335D01*
X159682003Y-75660674D01*
X159617711Y-75709420D01*
G37*
G36*
X160533525Y-73198356D02*
G01*
X160565841Y-73239299D01*
X160590103Y-73324720D01*
X160609421Y-73466457D01*
X160626900Y-73676347D01*
X160630447Y-73729851D01*
X160636405Y-73918264D01*
X160626338Y-74046868D01*
X160599321Y-74130938D01*
X160560274Y-74192721D01*
X160506460Y-74226821D01*
X160457361Y-74185398D01*
X160435201Y-74164882D01*
X160395613Y-74195398D01*
X160370672Y-74226034D01*
X160360613Y-74199277D01*
X160377866Y-74152090D01*
X160436604Y-74083296D01*
X160452026Y-74069553D01*
X160490484Y-74009375D01*
X160466604Y-73938461D01*
X160465829Y-73937139D01*
X160440284Y-73871673D01*
X160470250Y-73841026D01*
X160489338Y-73828381D01*
X160491943Y-73776631D01*
X160476795Y-73718569D01*
X160463323Y-73604222D01*
X160455092Y-73460048D01*
X160454382Y-73434301D01*
X160455804Y-73290625D01*
X160470084Y-73212966D01*
X160499119Y-73189669D01*
X160533525Y-73198356D01*
G37*
G36*
X161070986Y-71469669D02*
G01*
X161025661Y-71683002D01*
X161013622Y-71739669D01*
X161002460Y-71793942D01*
X160999558Y-71807308D01*
X160961933Y-71980601D01*
X160925833Y-72131651D01*
X160897735Y-72232778D01*
X160881216Y-72269669D01*
X160879609Y-72269430D01*
X160851247Y-72230717D01*
X160818272Y-72145886D01*
X160779292Y-72054730D01*
X160738286Y-72031561D01*
X160701586Y-72085524D01*
X160673549Y-72209669D01*
X160672315Y-72215135D01*
X160663245Y-72269029D01*
X160625569Y-72439798D01*
X160579733Y-72602078D01*
X160561136Y-72665109D01*
X160527150Y-72821778D01*
X160512703Y-72955078D01*
X160512575Y-72962243D01*
X160496712Y-73073091D01*
X160455285Y-73109669D01*
X160448961Y-73108408D01*
X160420333Y-73061323D01*
X160402894Y-72964434D01*
X160396894Y-72842700D01*
X160402579Y-72721078D01*
X160420199Y-72624526D01*
X160450000Y-72578002D01*
X160479793Y-72554534D01*
X160450547Y-72507215D01*
X160448014Y-72504488D01*
X160423654Y-72450320D01*
X160463152Y-72386186D01*
X160497198Y-72335627D01*
X160481691Y-72290714D01*
X160479587Y-72289034D01*
X160477214Y-72239317D01*
X160486508Y-72209669D01*
X160520000Y-72209669D01*
X160540000Y-72229669D01*
X160560000Y-72209669D01*
X160540000Y-72189669D01*
X160520000Y-72209669D01*
X160486508Y-72209669D01*
X160504943Y-72150857D01*
X160550925Y-72049977D01*
X160603310Y-71963000D01*
X160650250Y-71916252D01*
X160656939Y-71912015D01*
X160659742Y-71869250D01*
X160658087Y-71832432D01*
X160741709Y-71832432D01*
X160752183Y-71847776D01*
X160786818Y-71865101D01*
X160800000Y-71807308D01*
X160794134Y-71778762D01*
X160759348Y-71770072D01*
X160746725Y-71781059D01*
X160741709Y-71832432D01*
X160658087Y-71832432D01*
X160657537Y-71820200D01*
X160684295Y-71738249D01*
X160708513Y-71695033D01*
X160847076Y-71695033D01*
X160880000Y-71709669D01*
X160901176Y-71706782D01*
X160906667Y-71683002D01*
X160900804Y-71678215D01*
X160853334Y-71683002D01*
X160847076Y-71695033D01*
X160708513Y-71695033D01*
X160726583Y-71662789D01*
X160768175Y-71629669D01*
X160781160Y-71625866D01*
X160797015Y-71579669D01*
X160799873Y-71469669D01*
X160840000Y-71469669D01*
X160841163Y-71479230D01*
X160880000Y-71509669D01*
X160889562Y-71508506D01*
X160920000Y-71469669D01*
X160918838Y-71460107D01*
X160880000Y-71429669D01*
X160870439Y-71430831D01*
X160840000Y-71469669D01*
X160799873Y-71469669D01*
X160800562Y-71443168D01*
X160862551Y-71332832D01*
X160895488Y-71286495D01*
X160900464Y-71230418D01*
X160897987Y-71224867D01*
X160901795Y-71157200D01*
X160911408Y-71128865D01*
X160968547Y-71128865D01*
X160973334Y-71176335D01*
X160985365Y-71182593D01*
X161000000Y-71149669D01*
X160997114Y-71128493D01*
X160973334Y-71123002D01*
X160968547Y-71128865D01*
X160911408Y-71128865D01*
X160934733Y-71060111D01*
X160936379Y-71056455D01*
X160984690Y-70939599D01*
X161014167Y-70855033D01*
X161047076Y-70855033D01*
X161080000Y-70869669D01*
X161101176Y-70866782D01*
X161106667Y-70843002D01*
X161100804Y-70838215D01*
X161053334Y-70843002D01*
X161047076Y-70855033D01*
X161014167Y-70855033D01*
X161019440Y-70839905D01*
X161053904Y-70758001D01*
X161134872Y-70667395D01*
X161231414Y-70630331D01*
X161324771Y-70651920D01*
X161396186Y-70737271D01*
X161404128Y-70772512D01*
X161414886Y-70882514D01*
X161424308Y-71050296D01*
X161432275Y-71263336D01*
X161438669Y-71509114D01*
X161443372Y-71775108D01*
X161446265Y-72048795D01*
X161447230Y-72317656D01*
X161446149Y-72569167D01*
X161442904Y-72790808D01*
X161437375Y-72970057D01*
X161429446Y-73094392D01*
X161418997Y-73151293D01*
X161393928Y-73180212D01*
X161371471Y-73173173D01*
X161353769Y-73120171D01*
X161340348Y-73015538D01*
X161330735Y-72853604D01*
X161324455Y-72628700D01*
X161321035Y-72335158D01*
X161320000Y-71967308D01*
X161320000Y-71960581D01*
X161318736Y-71633931D01*
X161315199Y-71349919D01*
X161309623Y-71116015D01*
X161302243Y-70939692D01*
X161293294Y-70828420D01*
X161283009Y-70789669D01*
X161250607Y-70822817D01*
X161242517Y-70843002D01*
X161205782Y-70934656D01*
X161151260Y-71125036D01*
X161145379Y-71149669D01*
X161087165Y-71393520D01*
X161070986Y-71469669D01*
G37*
%TD*%
M02*
