%TF.GenerationSoftware,KiCad,Pcbnew,(6.0.7)*%
%TF.CreationDate,2023-02-07T19:22:30-08:00*%
%TF.ProjectId,ESP_Module,4553505f-4d6f-4647-956c-652e6b696361,rev?*%
%TF.SameCoordinates,Original*%
%TF.FileFunction,Copper,L2,Inr*%
%TF.FilePolarity,Positive*%
%FSLAX46Y46*%
G04 Gerber Fmt 4.6, Leading zero omitted, Abs format (unit mm)*
G04 Created by KiCad (PCBNEW (6.0.7)) date 2023-02-07 19:22:30*
%MOMM*%
%LPD*%
G01*
G04 APERTURE LIST*
%TA.AperFunction,ComponentPad*%
%ADD10R,1.508000X1.508000*%
%TD*%
%TA.AperFunction,ComponentPad*%
%ADD11C,1.508000*%
%TD*%
%TA.AperFunction,ComponentPad*%
%ADD12O,1.575000X3.150000*%
%TD*%
%TA.AperFunction,ViaPad*%
%ADD13C,0.685800*%
%TD*%
G04 APERTURE END LIST*
D10*
%TO.N,+5V*%
%TO.C,J1*%
X160218000Y-100516000D03*
D11*
%TO.N,USB_D-*%
X157718000Y-100516000D03*
%TO.N,USB_D+*%
X155718000Y-100516000D03*
%TO.N,GND*%
X153218000Y-100516000D03*
D12*
X162418000Y-102616000D03*
X151018000Y-102616000D03*
%TD*%
D13*
%TO.N,+3V3*%
X148100000Y-72200000D03*
X161300000Y-91800000D03*
X160000000Y-93100000D03*
X161300000Y-93100000D03*
X153200000Y-97000000D03*
X158600000Y-91800000D03*
X161400000Y-84900000D03*
X160000000Y-91800000D03*
X152600000Y-84900000D03*
X158600000Y-93100000D03*
%TO.N,GND*%
X164500000Y-97400000D03*
X156700000Y-80000000D03*
X154500000Y-86800000D03*
X159600000Y-84600000D03*
X152500000Y-86800000D03*
X149000000Y-97400000D03*
X149000000Y-99400000D03*
X160700000Y-80000000D03*
X154500000Y-84900000D03*
X156700000Y-71000000D03*
X158700000Y-80000000D03*
X164500000Y-99400000D03*
X160700000Y-71000000D03*
X164500000Y-91300000D03*
X152700000Y-80000000D03*
X152700000Y-71000000D03*
X158700000Y-71000000D03*
X154700000Y-80000000D03*
X164500000Y-89300000D03*
X164500000Y-93300000D03*
X164500000Y-95300000D03*
X150500000Y-86800000D03*
X154700000Y-71000000D03*
%TO.N,USB_D+*%
X155600000Y-88300000D03*
%TO.N,USB_D-*%
X156376702Y-87076702D03*
%TD*%
%TA.AperFunction,Conductor*%
%TO.N,GND*%
G36*
X165423121Y-68478502D02*
G01*
X165469614Y-68532158D01*
X165481000Y-68584500D01*
X165481000Y-104735500D01*
X165460998Y-104803621D01*
X165407342Y-104850114D01*
X165355000Y-104861500D01*
X162925073Y-104861500D01*
X162856952Y-104841498D01*
X162810459Y-104787842D01*
X162800355Y-104717568D01*
X162829849Y-104652988D01*
X162871823Y-104621305D01*
X163063243Y-104532045D01*
X163072729Y-104526567D01*
X163249401Y-104402861D01*
X163257808Y-104395807D01*
X163410307Y-104243308D01*
X163417361Y-104234901D01*
X163541067Y-104058229D01*
X163546545Y-104048743D01*
X163637699Y-103853262D01*
X163641445Y-103842970D01*
X163697268Y-103634636D01*
X163699171Y-103623841D01*
X163713262Y-103462791D01*
X163713500Y-103457327D01*
X163713500Y-102888115D01*
X163709025Y-102872876D01*
X163707635Y-102871671D01*
X163699952Y-102870000D01*
X161140615Y-102870000D01*
X161125376Y-102874475D01*
X161124171Y-102875865D01*
X161122500Y-102883548D01*
X161122500Y-103457327D01*
X161122738Y-103462791D01*
X161136829Y-103623841D01*
X161138732Y-103634636D01*
X161194555Y-103842970D01*
X161198301Y-103853262D01*
X161289455Y-104048743D01*
X161294933Y-104058229D01*
X161418639Y-104234901D01*
X161425693Y-104243308D01*
X161578190Y-104395805D01*
X161586598Y-104402861D01*
X161763266Y-104526565D01*
X161772762Y-104532047D01*
X161964177Y-104621305D01*
X162017462Y-104668222D01*
X162036923Y-104736499D01*
X162016381Y-104804459D01*
X161962359Y-104850525D01*
X161910927Y-104861500D01*
X151525073Y-104861500D01*
X151456952Y-104841498D01*
X151410459Y-104787842D01*
X151400355Y-104717568D01*
X151429849Y-104652988D01*
X151471823Y-104621305D01*
X151663243Y-104532045D01*
X151672729Y-104526567D01*
X151849401Y-104402861D01*
X151857808Y-104395807D01*
X152010307Y-104243308D01*
X152017361Y-104234901D01*
X152141067Y-104058229D01*
X152146545Y-104048743D01*
X152237699Y-103853262D01*
X152241445Y-103842970D01*
X152297268Y-103634636D01*
X152299171Y-103623841D01*
X152313262Y-103462791D01*
X152313500Y-103457327D01*
X152313500Y-102888115D01*
X152309025Y-102872876D01*
X152307635Y-102871671D01*
X152299952Y-102870000D01*
X149740615Y-102870000D01*
X149725376Y-102874475D01*
X149724171Y-102875865D01*
X149722500Y-102883548D01*
X149722500Y-103457327D01*
X149722738Y-103462791D01*
X149736829Y-103623841D01*
X149738732Y-103634636D01*
X149794555Y-103842970D01*
X149798301Y-103853262D01*
X149889455Y-104048743D01*
X149894933Y-104058229D01*
X150018639Y-104234901D01*
X150025693Y-104243308D01*
X150178190Y-104395805D01*
X150186598Y-104402861D01*
X150363266Y-104526565D01*
X150372762Y-104532047D01*
X150564177Y-104621305D01*
X150617462Y-104668222D01*
X150636923Y-104736499D01*
X150616381Y-104804459D01*
X150562359Y-104850525D01*
X150510927Y-104861500D01*
X148081000Y-104861500D01*
X148012879Y-104841498D01*
X147966386Y-104787842D01*
X147955000Y-104735500D01*
X147955000Y-102343885D01*
X149722500Y-102343885D01*
X149726975Y-102359124D01*
X149728365Y-102360329D01*
X149736048Y-102362000D01*
X150745885Y-102362000D01*
X150761124Y-102357525D01*
X150762329Y-102356135D01*
X150764000Y-102348452D01*
X150764000Y-102343885D01*
X151272000Y-102343885D01*
X151276475Y-102359124D01*
X151277865Y-102360329D01*
X151285548Y-102362000D01*
X152295385Y-102362000D01*
X152310624Y-102357525D01*
X152311829Y-102356135D01*
X152313500Y-102348452D01*
X152313500Y-101774673D01*
X152313261Y-101769187D01*
X152304557Y-101669708D01*
X152318545Y-101600103D01*
X152367944Y-101549111D01*
X152437070Y-101532920D01*
X152502348Y-101555513D01*
X152580081Y-101609942D01*
X152589576Y-101615425D01*
X152779740Y-101704099D01*
X152790032Y-101707845D01*
X152992704Y-101762151D01*
X153003499Y-101764054D01*
X153212525Y-101782342D01*
X153223475Y-101782342D01*
X153421792Y-101764991D01*
X153491397Y-101778980D01*
X153542389Y-101828379D01*
X153558580Y-101897505D01*
X153538903Y-101953565D01*
X153541002Y-101954779D01*
X153432693Y-102141999D01*
X153361740Y-102346323D01*
X153330703Y-102560377D01*
X153340704Y-102776438D01*
X153342108Y-102782263D01*
X153342108Y-102782264D01*
X153363253Y-102870000D01*
X153391380Y-102986710D01*
X153480903Y-103183606D01*
X153606043Y-103360021D01*
X153762285Y-103509590D01*
X153767320Y-103512841D01*
X153938954Y-103623664D01*
X153938957Y-103623665D01*
X153943991Y-103626916D01*
X154144604Y-103707766D01*
X154150485Y-103708914D01*
X154150490Y-103708916D01*
X154352441Y-103748354D01*
X154352444Y-103748354D01*
X154356887Y-103749222D01*
X154362571Y-103749500D01*
X154522041Y-103749500D01*
X154683315Y-103734113D01*
X154890860Y-103673226D01*
X154965787Y-103634636D01*
X155077817Y-103576937D01*
X155077820Y-103576935D01*
X155083148Y-103574191D01*
X155170666Y-103505445D01*
X155248522Y-103444289D01*
X155248527Y-103444285D01*
X155253239Y-103440583D01*
X155257171Y-103436052D01*
X155391067Y-103281752D01*
X155391071Y-103281747D01*
X155394998Y-103277221D01*
X155503307Y-103090001D01*
X155574260Y-102885677D01*
X155576533Y-102870000D01*
X155604436Y-102677563D01*
X155604436Y-102677560D01*
X155605297Y-102671623D01*
X155595296Y-102455562D01*
X155544620Y-102245290D01*
X155455097Y-102048394D01*
X155394822Y-101963422D01*
X155371724Y-101896288D01*
X155388588Y-101827323D01*
X155440060Y-101778424D01*
X155508573Y-101765001D01*
X155712525Y-101782844D01*
X155718000Y-101783323D01*
X155938068Y-101764070D01*
X156100243Y-101720615D01*
X156146140Y-101708317D01*
X156146142Y-101708316D01*
X156151450Y-101706894D01*
X156157444Y-101704099D01*
X156346675Y-101615860D01*
X156346680Y-101615857D01*
X156351662Y-101613534D01*
X156356792Y-101609942D01*
X156528109Y-101489985D01*
X156528112Y-101489983D01*
X156532620Y-101486826D01*
X156628905Y-101390541D01*
X156691217Y-101356515D01*
X156762032Y-101361580D01*
X156807095Y-101390541D01*
X156903380Y-101486826D01*
X156907888Y-101489983D01*
X156907891Y-101489985D01*
X157079208Y-101609942D01*
X157084338Y-101613534D01*
X157089320Y-101615857D01*
X157089325Y-101615860D01*
X157278556Y-101704099D01*
X157284550Y-101706894D01*
X157289858Y-101708316D01*
X157289860Y-101708317D01*
X157335757Y-101720615D01*
X157497932Y-101764070D01*
X157718000Y-101783323D01*
X157921411Y-101765527D01*
X157991014Y-101779516D01*
X158042007Y-101828916D01*
X158058197Y-101898042D01*
X158038759Y-101953481D01*
X158041002Y-101954779D01*
X157932693Y-102141999D01*
X157861740Y-102346323D01*
X157830703Y-102560377D01*
X157840704Y-102776438D01*
X157842108Y-102782263D01*
X157842108Y-102782264D01*
X157863253Y-102870000D01*
X157891380Y-102986710D01*
X157980903Y-103183606D01*
X158106043Y-103360021D01*
X158262285Y-103509590D01*
X158267320Y-103512841D01*
X158438954Y-103623664D01*
X158438957Y-103623665D01*
X158443991Y-103626916D01*
X158644604Y-103707766D01*
X158650485Y-103708914D01*
X158650490Y-103708916D01*
X158852441Y-103748354D01*
X158852444Y-103748354D01*
X158856887Y-103749222D01*
X158862571Y-103749500D01*
X159022041Y-103749500D01*
X159183315Y-103734113D01*
X159390860Y-103673226D01*
X159465787Y-103634636D01*
X159577817Y-103576937D01*
X159577820Y-103576935D01*
X159583148Y-103574191D01*
X159670666Y-103505445D01*
X159748522Y-103444289D01*
X159748527Y-103444285D01*
X159753239Y-103440583D01*
X159757171Y-103436052D01*
X159891067Y-103281752D01*
X159891071Y-103281747D01*
X159894998Y-103277221D01*
X160003307Y-103090001D01*
X160074260Y-102885677D01*
X160076533Y-102870000D01*
X160104436Y-102677563D01*
X160104436Y-102677560D01*
X160105297Y-102671623D01*
X160095296Y-102455562D01*
X160044620Y-102245290D01*
X159955097Y-102048394D01*
X159904737Y-101977399D01*
X159881639Y-101910266D01*
X159898503Y-101841301D01*
X159949975Y-101792402D01*
X160007507Y-101778500D01*
X160996500Y-101778500D01*
X161064621Y-101798502D01*
X161111114Y-101852158D01*
X161122500Y-101904500D01*
X161122500Y-102343885D01*
X161126975Y-102359124D01*
X161128365Y-102360329D01*
X161136048Y-102362000D01*
X162145885Y-102362000D01*
X162161124Y-102357525D01*
X162162329Y-102356135D01*
X162164000Y-102348452D01*
X162164000Y-102343885D01*
X162672000Y-102343885D01*
X162676475Y-102359124D01*
X162677865Y-102360329D01*
X162685548Y-102362000D01*
X163695385Y-102362000D01*
X163710624Y-102357525D01*
X163711829Y-102356135D01*
X163713500Y-102348452D01*
X163713500Y-101774673D01*
X163713262Y-101769209D01*
X163699171Y-101608159D01*
X163697268Y-101597364D01*
X163641445Y-101389030D01*
X163637699Y-101378738D01*
X163546545Y-101183257D01*
X163541067Y-101173771D01*
X163417361Y-100997099D01*
X163410307Y-100988692D01*
X163257810Y-100836195D01*
X163249402Y-100829139D01*
X163072734Y-100705435D01*
X163063238Y-100699952D01*
X162867762Y-100608801D01*
X162857470Y-100605055D01*
X162689497Y-100560047D01*
X162675401Y-100560383D01*
X162672000Y-100568325D01*
X162672000Y-102343885D01*
X162164000Y-102343885D01*
X162164000Y-100573474D01*
X162160027Y-100559943D01*
X162151478Y-100558714D01*
X161978530Y-100605055D01*
X161968238Y-100608801D01*
X161772757Y-100699955D01*
X161763279Y-100705428D01*
X161678770Y-100764601D01*
X161611496Y-100787288D01*
X161542636Y-100770003D01*
X161494052Y-100718233D01*
X161480500Y-100661387D01*
X161480500Y-99713866D01*
X161473745Y-99651684D01*
X161422615Y-99515295D01*
X161335261Y-99398739D01*
X161218705Y-99311385D01*
X161082316Y-99260255D01*
X161020134Y-99253500D01*
X159415866Y-99253500D01*
X159353684Y-99260255D01*
X159217295Y-99311385D01*
X159100739Y-99398739D01*
X159013385Y-99515295D01*
X158962255Y-99651684D01*
X158957280Y-99697485D01*
X158957061Y-99699499D01*
X158929820Y-99765061D01*
X158871457Y-99805488D01*
X158800503Y-99807944D01*
X158739485Y-99771649D01*
X158728585Y-99758162D01*
X158699961Y-99717283D01*
X158688826Y-99701380D01*
X158532620Y-99545174D01*
X158528112Y-99542017D01*
X158528109Y-99542015D01*
X158356171Y-99421623D01*
X158356168Y-99421621D01*
X158351662Y-99418466D01*
X158346680Y-99416143D01*
X158346675Y-99416140D01*
X158156432Y-99327429D01*
X158156431Y-99327429D01*
X158151450Y-99325106D01*
X158146142Y-99323684D01*
X158146140Y-99323683D01*
X158080748Y-99306161D01*
X157938068Y-99267930D01*
X157718000Y-99248677D01*
X157497932Y-99267930D01*
X157355252Y-99306161D01*
X157289860Y-99323683D01*
X157289858Y-99323684D01*
X157284550Y-99325106D01*
X157279569Y-99327428D01*
X157279568Y-99327429D01*
X157089320Y-99416143D01*
X157089317Y-99416145D01*
X157084339Y-99418466D01*
X156903380Y-99545174D01*
X156807095Y-99641459D01*
X156744783Y-99675485D01*
X156673968Y-99670420D01*
X156628905Y-99641459D01*
X156532620Y-99545174D01*
X156528112Y-99542017D01*
X156528109Y-99542015D01*
X156356171Y-99421623D01*
X156356168Y-99421621D01*
X156351662Y-99418466D01*
X156346680Y-99416143D01*
X156346675Y-99416140D01*
X156156432Y-99327429D01*
X156156431Y-99327429D01*
X156151450Y-99325106D01*
X156146142Y-99323684D01*
X156146140Y-99323683D01*
X156080748Y-99306161D01*
X155938068Y-99267930D01*
X155718000Y-99248677D01*
X155497932Y-99267930D01*
X155355252Y-99306161D01*
X155289860Y-99323683D01*
X155289858Y-99323684D01*
X155284550Y-99325106D01*
X155279569Y-99327428D01*
X155279568Y-99327429D01*
X155089320Y-99416143D01*
X155089317Y-99416145D01*
X155084339Y-99418466D01*
X154903380Y-99545174D01*
X154747174Y-99701380D01*
X154620466Y-99882339D01*
X154618145Y-99887317D01*
X154618143Y-99887320D01*
X154581919Y-99965003D01*
X154535002Y-100018288D01*
X154466724Y-100037749D01*
X154398764Y-100017207D01*
X154353529Y-99965003D01*
X154317424Y-99887575D01*
X154311945Y-99878085D01*
X154282461Y-99835978D01*
X154271985Y-99827604D01*
X154258537Y-99834673D01*
X153307095Y-100786115D01*
X153244783Y-100820141D01*
X153173968Y-100815076D01*
X153128905Y-100786115D01*
X152176741Y-99833951D01*
X152164967Y-99827521D01*
X152152951Y-99836817D01*
X152124055Y-99878085D01*
X152118577Y-99887575D01*
X152029901Y-100077740D01*
X152026155Y-100088032D01*
X151971849Y-100290704D01*
X151969946Y-100301499D01*
X151951658Y-100510525D01*
X151951658Y-100521486D01*
X151963454Y-100656309D01*
X151949466Y-100725914D01*
X151900067Y-100776906D01*
X151830941Y-100793097D01*
X151765664Y-100770505D01*
X151672731Y-100705434D01*
X151663238Y-100699952D01*
X151467762Y-100608801D01*
X151457470Y-100605055D01*
X151289497Y-100560047D01*
X151275401Y-100560383D01*
X151272000Y-100568325D01*
X151272000Y-102343885D01*
X150764000Y-102343885D01*
X150764000Y-100573474D01*
X150760027Y-100559943D01*
X150751478Y-100558714D01*
X150578530Y-100605055D01*
X150568238Y-100608801D01*
X150372757Y-100699955D01*
X150363271Y-100705433D01*
X150186599Y-100829139D01*
X150178192Y-100836193D01*
X150025693Y-100988692D01*
X150018639Y-100997099D01*
X149894933Y-101173771D01*
X149889455Y-101183257D01*
X149798301Y-101378738D01*
X149794555Y-101389030D01*
X149738732Y-101597364D01*
X149736829Y-101608159D01*
X149722738Y-101769209D01*
X149722500Y-101774673D01*
X149722500Y-102343885D01*
X147955000Y-102343885D01*
X147955000Y-99462015D01*
X152529604Y-99462015D01*
X152536673Y-99475463D01*
X153205188Y-100143978D01*
X153219132Y-100151592D01*
X153220965Y-100151461D01*
X153227580Y-100147210D01*
X153900049Y-99474741D01*
X153906479Y-99462966D01*
X153897183Y-99450951D01*
X153855919Y-99422058D01*
X153846424Y-99416575D01*
X153656260Y-99327901D01*
X153645968Y-99324155D01*
X153443296Y-99269849D01*
X153432501Y-99267946D01*
X153223475Y-99249658D01*
X153212525Y-99249658D01*
X153003499Y-99267946D01*
X152992704Y-99269849D01*
X152790032Y-99324155D01*
X152779740Y-99327901D01*
X152589575Y-99416577D01*
X152580085Y-99422055D01*
X152537978Y-99451539D01*
X152529604Y-99462015D01*
X147955000Y-99462015D01*
X147955000Y-97000000D01*
X152343910Y-97000000D01*
X152362618Y-97177991D01*
X152417923Y-97348203D01*
X152507409Y-97503197D01*
X152627164Y-97636199D01*
X152771955Y-97741396D01*
X152777983Y-97744080D01*
X152777985Y-97744081D01*
X152929423Y-97811505D01*
X152935454Y-97814190D01*
X153022984Y-97832795D01*
X153104057Y-97850028D01*
X153104061Y-97850028D01*
X153110514Y-97851400D01*
X153289486Y-97851400D01*
X153295939Y-97850028D01*
X153295943Y-97850028D01*
X153377016Y-97832795D01*
X153464546Y-97814190D01*
X153470577Y-97811505D01*
X153622015Y-97744081D01*
X153622017Y-97744080D01*
X153628045Y-97741396D01*
X153772836Y-97636199D01*
X153892591Y-97503197D01*
X153982077Y-97348203D01*
X154037382Y-97177991D01*
X154056090Y-97000000D01*
X154037382Y-96822009D01*
X153982077Y-96651797D01*
X153892591Y-96496803D01*
X153772836Y-96363801D01*
X153628045Y-96258604D01*
X153622017Y-96255920D01*
X153622015Y-96255919D01*
X153470577Y-96188495D01*
X153470576Y-96188495D01*
X153464546Y-96185810D01*
X153377016Y-96167205D01*
X153295943Y-96149972D01*
X153295939Y-96149972D01*
X153289486Y-96148600D01*
X153110514Y-96148600D01*
X153104061Y-96149972D01*
X153104057Y-96149972D01*
X153022984Y-96167205D01*
X152935454Y-96185810D01*
X152929424Y-96188495D01*
X152929423Y-96188495D01*
X152777985Y-96255919D01*
X152777983Y-96255920D01*
X152771955Y-96258604D01*
X152627164Y-96363801D01*
X152507409Y-96496803D01*
X152417923Y-96651797D01*
X152362618Y-96822009D01*
X152343910Y-97000000D01*
X147955000Y-97000000D01*
X147955000Y-93100000D01*
X157743910Y-93100000D01*
X157762618Y-93277991D01*
X157817923Y-93448203D01*
X157907409Y-93603197D01*
X158027164Y-93736199D01*
X158171955Y-93841396D01*
X158177983Y-93844080D01*
X158177985Y-93844081D01*
X158329423Y-93911505D01*
X158335454Y-93914190D01*
X158422984Y-93932795D01*
X158504057Y-93950028D01*
X158504061Y-93950028D01*
X158510514Y-93951400D01*
X158689486Y-93951400D01*
X158695939Y-93950028D01*
X158695943Y-93950028D01*
X158777016Y-93932795D01*
X158864546Y-93914190D01*
X158870577Y-93911505D01*
X159022015Y-93844081D01*
X159022017Y-93844080D01*
X159028045Y-93841396D01*
X159172836Y-93736199D01*
X159206366Y-93698960D01*
X159266809Y-93661722D01*
X159337793Y-93663073D01*
X159393634Y-93698960D01*
X159427164Y-93736199D01*
X159571955Y-93841396D01*
X159577983Y-93844080D01*
X159577985Y-93844081D01*
X159729423Y-93911505D01*
X159735454Y-93914190D01*
X159822984Y-93932795D01*
X159904057Y-93950028D01*
X159904061Y-93950028D01*
X159910514Y-93951400D01*
X160089486Y-93951400D01*
X160095939Y-93950028D01*
X160095943Y-93950028D01*
X160177016Y-93932795D01*
X160264546Y-93914190D01*
X160270577Y-93911505D01*
X160422015Y-93844081D01*
X160422017Y-93844080D01*
X160428045Y-93841396D01*
X160572836Y-93736199D01*
X160573954Y-93737738D01*
X160629696Y-93710988D01*
X160700150Y-93719751D01*
X160726712Y-93736821D01*
X160727164Y-93736199D01*
X160871955Y-93841396D01*
X160877983Y-93844080D01*
X160877985Y-93844081D01*
X161029423Y-93911505D01*
X161035454Y-93914190D01*
X161122984Y-93932795D01*
X161204057Y-93950028D01*
X161204061Y-93950028D01*
X161210514Y-93951400D01*
X161389486Y-93951400D01*
X161395939Y-93950028D01*
X161395943Y-93950028D01*
X161477016Y-93932795D01*
X161564546Y-93914190D01*
X161570577Y-93911505D01*
X161722015Y-93844081D01*
X161722017Y-93844080D01*
X161728045Y-93841396D01*
X161872836Y-93736199D01*
X161992591Y-93603197D01*
X162082077Y-93448203D01*
X162137382Y-93277991D01*
X162156090Y-93100000D01*
X162137382Y-92922009D01*
X162082077Y-92751797D01*
X161992591Y-92596803D01*
X161936322Y-92534309D01*
X161905605Y-92470303D01*
X161914369Y-92399849D01*
X161936322Y-92365690D01*
X161988172Y-92308105D01*
X161988173Y-92308104D01*
X161992591Y-92303197D01*
X162082077Y-92148203D01*
X162137382Y-91977991D01*
X162156090Y-91800000D01*
X162137382Y-91622009D01*
X162082077Y-91451797D01*
X161992591Y-91296803D01*
X161872836Y-91163801D01*
X161728045Y-91058604D01*
X161722017Y-91055920D01*
X161722015Y-91055919D01*
X161570577Y-90988495D01*
X161570576Y-90988495D01*
X161564546Y-90985810D01*
X161477016Y-90967205D01*
X161395943Y-90949972D01*
X161395939Y-90949972D01*
X161389486Y-90948600D01*
X161210514Y-90948600D01*
X161204061Y-90949972D01*
X161204057Y-90949972D01*
X161122984Y-90967205D01*
X161035454Y-90985810D01*
X161029424Y-90988495D01*
X161029423Y-90988495D01*
X160877985Y-91055919D01*
X160877983Y-91055920D01*
X160871955Y-91058604D01*
X160727164Y-91163801D01*
X160726046Y-91162262D01*
X160670304Y-91189012D01*
X160599850Y-91180249D01*
X160573288Y-91163179D01*
X160572836Y-91163801D01*
X160433387Y-91062485D01*
X160433386Y-91062484D01*
X160428045Y-91058604D01*
X160422017Y-91055920D01*
X160422015Y-91055919D01*
X160270577Y-90988495D01*
X160270576Y-90988495D01*
X160264546Y-90985810D01*
X160177016Y-90967205D01*
X160095943Y-90949972D01*
X160095939Y-90949972D01*
X160089486Y-90948600D01*
X159910514Y-90948600D01*
X159904061Y-90949972D01*
X159904057Y-90949972D01*
X159822984Y-90967205D01*
X159735454Y-90985810D01*
X159729424Y-90988495D01*
X159729423Y-90988495D01*
X159577985Y-91055919D01*
X159577983Y-91055920D01*
X159571955Y-91058604D01*
X159427164Y-91163801D01*
X159393634Y-91201040D01*
X159333191Y-91238278D01*
X159262207Y-91236927D01*
X159206366Y-91201040D01*
X159172836Y-91163801D01*
X159028045Y-91058604D01*
X159022017Y-91055920D01*
X159022015Y-91055919D01*
X158870577Y-90988495D01*
X158870576Y-90988495D01*
X158864546Y-90985810D01*
X158777016Y-90967205D01*
X158695943Y-90949972D01*
X158695939Y-90949972D01*
X158689486Y-90948600D01*
X158510514Y-90948600D01*
X158504061Y-90949972D01*
X158504057Y-90949972D01*
X158422984Y-90967205D01*
X158335454Y-90985810D01*
X158329424Y-90988495D01*
X158329423Y-90988495D01*
X158177985Y-91055919D01*
X158177983Y-91055920D01*
X158171955Y-91058604D01*
X158027164Y-91163801D01*
X157907409Y-91296803D01*
X157817923Y-91451797D01*
X157762618Y-91622009D01*
X157743910Y-91800000D01*
X157762618Y-91977991D01*
X157817923Y-92148203D01*
X157907409Y-92303197D01*
X157911827Y-92308104D01*
X157911828Y-92308105D01*
X157963678Y-92365690D01*
X157994395Y-92429697D01*
X157985631Y-92500151D01*
X157963679Y-92534309D01*
X157907409Y-92596803D01*
X157817923Y-92751797D01*
X157762618Y-92922009D01*
X157743910Y-93100000D01*
X147955000Y-93100000D01*
X147955000Y-88300000D01*
X154743910Y-88300000D01*
X154762618Y-88477991D01*
X154817923Y-88648203D01*
X154907409Y-88803197D01*
X155027164Y-88936199D01*
X155171955Y-89041396D01*
X155177983Y-89044080D01*
X155177985Y-89044081D01*
X155329423Y-89111505D01*
X155335454Y-89114190D01*
X155422984Y-89132795D01*
X155504057Y-89150028D01*
X155504061Y-89150028D01*
X155510514Y-89151400D01*
X155689486Y-89151400D01*
X155695939Y-89150028D01*
X155695943Y-89150028D01*
X155777016Y-89132795D01*
X155864546Y-89114190D01*
X155870577Y-89111505D01*
X156022015Y-89044081D01*
X156022017Y-89044080D01*
X156028045Y-89041396D01*
X156172836Y-88936199D01*
X156292591Y-88803197D01*
X156382077Y-88648203D01*
X156437382Y-88477991D01*
X156456090Y-88300000D01*
X156437382Y-88122009D01*
X156423552Y-88079444D01*
X156421524Y-88008478D01*
X156458187Y-87947680D01*
X156517188Y-87917262D01*
X156566461Y-87906788D01*
X156641248Y-87890892D01*
X156647279Y-87888207D01*
X156798717Y-87820783D01*
X156798719Y-87820782D01*
X156804747Y-87818098D01*
X156834057Y-87796803D01*
X156944194Y-87716784D01*
X156944196Y-87716782D01*
X156949538Y-87712901D01*
X157069293Y-87579899D01*
X157158779Y-87424905D01*
X157214084Y-87254693D01*
X157232792Y-87076702D01*
X157214084Y-86898711D01*
X157158779Y-86728499D01*
X157069293Y-86573505D01*
X156949538Y-86440503D01*
X156804747Y-86335306D01*
X156798719Y-86332622D01*
X156798717Y-86332621D01*
X156647279Y-86265197D01*
X156647278Y-86265197D01*
X156641248Y-86262512D01*
X156553718Y-86243907D01*
X156472645Y-86226674D01*
X156472641Y-86226674D01*
X156466188Y-86225302D01*
X156287216Y-86225302D01*
X156280763Y-86226674D01*
X156280759Y-86226674D01*
X156199686Y-86243907D01*
X156112156Y-86262512D01*
X156106126Y-86265197D01*
X156106125Y-86265197D01*
X155954687Y-86332621D01*
X155954685Y-86332622D01*
X155948657Y-86335306D01*
X155803866Y-86440503D01*
X155684111Y-86573505D01*
X155594625Y-86728499D01*
X155539320Y-86898711D01*
X155520612Y-87076702D01*
X155539320Y-87254693D01*
X155541360Y-87260971D01*
X155541360Y-87260972D01*
X155553150Y-87297257D01*
X155555178Y-87368224D01*
X155518515Y-87429022D01*
X155459514Y-87459440D01*
X155410241Y-87469914D01*
X155335454Y-87485810D01*
X155329424Y-87488495D01*
X155329423Y-87488495D01*
X155177985Y-87555919D01*
X155177983Y-87555920D01*
X155171955Y-87558604D01*
X155166614Y-87562484D01*
X155166613Y-87562485D01*
X155135890Y-87584807D01*
X155027164Y-87663801D01*
X154907409Y-87796803D01*
X154817923Y-87951797D01*
X154762618Y-88122009D01*
X154743910Y-88300000D01*
X147955000Y-88300000D01*
X147955000Y-84900000D01*
X151743910Y-84900000D01*
X151762618Y-85077991D01*
X151817923Y-85248203D01*
X151907409Y-85403197D01*
X152027164Y-85536199D01*
X152171955Y-85641396D01*
X152177983Y-85644080D01*
X152177985Y-85644081D01*
X152329423Y-85711505D01*
X152335454Y-85714190D01*
X152422984Y-85732795D01*
X152504057Y-85750028D01*
X152504061Y-85750028D01*
X152510514Y-85751400D01*
X152689486Y-85751400D01*
X152695939Y-85750028D01*
X152695943Y-85750028D01*
X152777016Y-85732795D01*
X152864546Y-85714190D01*
X152870577Y-85711505D01*
X153022015Y-85644081D01*
X153022017Y-85644080D01*
X153028045Y-85641396D01*
X153172836Y-85536199D01*
X153292591Y-85403197D01*
X153382077Y-85248203D01*
X153437382Y-85077991D01*
X153456090Y-84900000D01*
X160543910Y-84900000D01*
X160562618Y-85077991D01*
X160617923Y-85248203D01*
X160707409Y-85403197D01*
X160827164Y-85536199D01*
X160971955Y-85641396D01*
X160977983Y-85644080D01*
X160977985Y-85644081D01*
X161129423Y-85711505D01*
X161135454Y-85714190D01*
X161222984Y-85732795D01*
X161304057Y-85750028D01*
X161304061Y-85750028D01*
X161310514Y-85751400D01*
X161489486Y-85751400D01*
X161495939Y-85750028D01*
X161495943Y-85750028D01*
X161577016Y-85732795D01*
X161664546Y-85714190D01*
X161670577Y-85711505D01*
X161822015Y-85644081D01*
X161822017Y-85644080D01*
X161828045Y-85641396D01*
X161972836Y-85536199D01*
X162092591Y-85403197D01*
X162182077Y-85248203D01*
X162237382Y-85077991D01*
X162256090Y-84900000D01*
X162237382Y-84722009D01*
X162182077Y-84551797D01*
X162092591Y-84396803D01*
X161972836Y-84263801D01*
X161828045Y-84158604D01*
X161822017Y-84155920D01*
X161822015Y-84155919D01*
X161670577Y-84088495D01*
X161670576Y-84088495D01*
X161664546Y-84085810D01*
X161577016Y-84067205D01*
X161495943Y-84049972D01*
X161495939Y-84049972D01*
X161489486Y-84048600D01*
X161310514Y-84048600D01*
X161304061Y-84049972D01*
X161304057Y-84049972D01*
X161222984Y-84067205D01*
X161135454Y-84085810D01*
X161129424Y-84088495D01*
X161129423Y-84088495D01*
X160977985Y-84155919D01*
X160977983Y-84155920D01*
X160971955Y-84158604D01*
X160827164Y-84263801D01*
X160707409Y-84396803D01*
X160617923Y-84551797D01*
X160562618Y-84722009D01*
X160543910Y-84900000D01*
X153456090Y-84900000D01*
X153437382Y-84722009D01*
X153382077Y-84551797D01*
X153292591Y-84396803D01*
X153172836Y-84263801D01*
X153028045Y-84158604D01*
X153022017Y-84155920D01*
X153022015Y-84155919D01*
X152870577Y-84088495D01*
X152870576Y-84088495D01*
X152864546Y-84085810D01*
X152777016Y-84067205D01*
X152695943Y-84049972D01*
X152695939Y-84049972D01*
X152689486Y-84048600D01*
X152510514Y-84048600D01*
X152504061Y-84049972D01*
X152504057Y-84049972D01*
X152422984Y-84067205D01*
X152335454Y-84085810D01*
X152329424Y-84088495D01*
X152329423Y-84088495D01*
X152177985Y-84155919D01*
X152177983Y-84155920D01*
X152171955Y-84158604D01*
X152027164Y-84263801D01*
X151907409Y-84396803D01*
X151817923Y-84551797D01*
X151762618Y-84722009D01*
X151743910Y-84900000D01*
X147955000Y-84900000D01*
X147955000Y-73177400D01*
X147975002Y-73109279D01*
X148028658Y-73062786D01*
X148081000Y-73051400D01*
X148189486Y-73051400D01*
X148195939Y-73050028D01*
X148195943Y-73050028D01*
X148277016Y-73032795D01*
X148364546Y-73014190D01*
X148370577Y-73011505D01*
X148522015Y-72944081D01*
X148522017Y-72944080D01*
X148528045Y-72941396D01*
X148672836Y-72836199D01*
X148792591Y-72703197D01*
X148882077Y-72548203D01*
X148937382Y-72377991D01*
X148956090Y-72200000D01*
X148937382Y-72022009D01*
X148882077Y-71851797D01*
X148792591Y-71696803D01*
X148672836Y-71563801D01*
X148528045Y-71458604D01*
X148522017Y-71455920D01*
X148522015Y-71455919D01*
X148370577Y-71388495D01*
X148370576Y-71388495D01*
X148364546Y-71385810D01*
X148277016Y-71367205D01*
X148195943Y-71349972D01*
X148195939Y-71349972D01*
X148189486Y-71348600D01*
X148081000Y-71348600D01*
X148012879Y-71328598D01*
X147966386Y-71274942D01*
X147955000Y-71222600D01*
X147955000Y-68584500D01*
X147975002Y-68516379D01*
X148028658Y-68469886D01*
X148081000Y-68458500D01*
X165355000Y-68458500D01*
X165423121Y-68478502D01*
G37*
%TD.AperFunction*%
%TD*%
M02*
