M48
; DRILL file {KiCad (6.0.7)} date Tue Feb  7 19:22:24 2023
; FORMAT={-:-/ absolute / metric / decimal}
; #@! TF.CreationDate,2023-02-07T19:22:24-08:00
; #@! TF.GenerationSoftware,Kicad,Pcbnew,(6.0.7)
; #@! TF.FileFunction,MixedPlating,1,4
FMAT,2
METRIC
; #@! TA.AperFunction,Plated,PTH,ViaDrill
T1C0.330
; #@! TA.AperFunction,Plated,PTH,ComponentDrill
T2C1.000
; #@! TA.AperFunction,Plated,PTH,ComponentDrill
T3C1.050
; #@! TA.AperFunction,NonPlated,NPTH,ComponentDrill
T4C1.250
%
G90
G05
T1
X148.1Y-72.2
X149.0Y-97.4
X149.0Y-99.4
X150.5Y-86.8
X152.5Y-86.8
X152.6Y-84.9
X152.7Y-71.0
X152.7Y-80.0
X153.2Y-97.0
X154.5Y-84.9
X154.5Y-86.8
X154.7Y-71.0
X154.7Y-80.0
X155.6Y-88.3
X156.377Y-87.077
X156.7Y-71.0
X156.7Y-80.0
X158.6Y-91.8
X158.6Y-93.1
X158.7Y-71.0
X158.7Y-80.0
X159.6Y-84.6
X160.0Y-91.8
X160.0Y-93.1
X160.7Y-71.0
X160.7Y-80.0
X161.3Y-91.8
X161.3Y-93.1
X161.4Y-84.9
X164.5Y-89.3
X164.5Y-91.3
X164.5Y-93.3
X164.5Y-95.3
X164.5Y-97.4
X164.5Y-99.4
T2
X153.218Y-100.516
X155.718Y-100.516
X157.718Y-100.516
X160.218Y-100.516
T4
X154.468Y-102.616
X158.968Y-102.616
T3
G00X151.018Y-101.841
M15
G01X151.018Y-103.391
M16
G05
G00X162.418Y-101.841
M15
G01X162.418Y-103.391
M16
G05
T0
M30
