%TF.GenerationSoftware,KiCad,Pcbnew,(6.0.7)*%
%TF.CreationDate,2023-02-05T00:26:33-08:00*%
%TF.ProjectId,ESP_Module,4553505f-4d6f-4647-956c-652e6b696361,rev?*%
%TF.SameCoordinates,Original*%
%TF.FileFunction,Copper,L3,Inr*%
%TF.FilePolarity,Positive*%
%FSLAX46Y46*%
G04 Gerber Fmt 4.6, Leading zero omitted, Abs format (unit mm)*
G04 Created by KiCad (PCBNEW (6.0.7)) date 2023-02-05 00:26:33*
%MOMM*%
%LPD*%
G01*
G04 APERTURE LIST*
%TA.AperFunction,ComponentPad*%
%ADD10R,1.508000X1.508000*%
%TD*%
%TA.AperFunction,ComponentPad*%
%ADD11C,1.508000*%
%TD*%
%TA.AperFunction,ComponentPad*%
%ADD12O,1.575000X3.150000*%
%TD*%
%TA.AperFunction,ViaPad*%
%ADD13C,0.685800*%
%TD*%
G04 APERTURE END LIST*
D10*
%TO.N,+5V*%
%TO.C,J1*%
X160218000Y-100516000D03*
D11*
%TO.N,USB_D-*%
X157718000Y-100516000D03*
%TO.N,USB_D+*%
X155718000Y-100516000D03*
%TO.N,GND*%
X153218000Y-100516000D03*
D12*
X162418000Y-102616000D03*
X151018000Y-102616000D03*
%TD*%
D13*
%TO.N,GND*%
X164500000Y-97400000D03*
X164500000Y-99400000D03*
X149000000Y-97400000D03*
X149000000Y-99400000D03*
%TO.N,+3V3*%
X148100000Y-72200000D03*
%TO.N,GND*%
X159600000Y-84600000D03*
%TO.N,+3V3*%
X152600000Y-84900000D03*
%TO.N,GND*%
X154500000Y-84900000D03*
X150500000Y-86800000D03*
%TO.N,+3V3*%
X161300000Y-91800000D03*
X160000000Y-93100000D03*
X161300000Y-93100000D03*
X153200000Y-97000000D03*
X158600000Y-91800000D03*
X161400000Y-84900000D03*
X160000000Y-91800000D03*
X158600000Y-93100000D03*
%TO.N,GND*%
X156700000Y-80000000D03*
X154500000Y-86800000D03*
X152500000Y-86800000D03*
X160700000Y-80000000D03*
X156700000Y-71000000D03*
X158700000Y-80000000D03*
X160700000Y-71000000D03*
X164500000Y-91300000D03*
X152700000Y-80000000D03*
X152700000Y-71000000D03*
X158700000Y-71000000D03*
X154700000Y-80000000D03*
X164500000Y-89300000D03*
X164500000Y-93300000D03*
X164500000Y-95300000D03*
X154700000Y-71000000D03*
%TO.N,USB_D+*%
X155600000Y-88300000D03*
%TO.N,USB_D-*%
X156376702Y-87076702D03*
%TD*%
%TA.AperFunction,Conductor*%
%TO.N,+3V3*%
G36*
X165423121Y-68478502D02*
G01*
X165469614Y-68532158D01*
X165481000Y-68584500D01*
X165481000Y-88826104D01*
X165460998Y-88894225D01*
X165407342Y-88940718D01*
X165337068Y-88950822D01*
X165272488Y-88921328D01*
X165245881Y-88889104D01*
X165199116Y-88808105D01*
X165192591Y-88796803D01*
X165072836Y-88663801D01*
X165059245Y-88653926D01*
X164933387Y-88562485D01*
X164933386Y-88562484D01*
X164928045Y-88558604D01*
X164922017Y-88555920D01*
X164922015Y-88555919D01*
X164770577Y-88488495D01*
X164770576Y-88488495D01*
X164764546Y-88485810D01*
X164677016Y-88467205D01*
X164595943Y-88449972D01*
X164595939Y-88449972D01*
X164589486Y-88448600D01*
X164410514Y-88448600D01*
X164404061Y-88449972D01*
X164404057Y-88449972D01*
X164322984Y-88467205D01*
X164235454Y-88485810D01*
X164229424Y-88488495D01*
X164229423Y-88488495D01*
X164077985Y-88555919D01*
X164077983Y-88555920D01*
X164071955Y-88558604D01*
X164066614Y-88562484D01*
X164066613Y-88562485D01*
X163940756Y-88653926D01*
X163927164Y-88663801D01*
X163807409Y-88796803D01*
X163800884Y-88808105D01*
X163726929Y-88936199D01*
X163717923Y-88951797D01*
X163715881Y-88958082D01*
X163665159Y-89114190D01*
X163662618Y-89122009D01*
X163643910Y-89300000D01*
X163662618Y-89477991D01*
X163717923Y-89648203D01*
X163807409Y-89803197D01*
X163927164Y-89936199D01*
X164071955Y-90041396D01*
X164077983Y-90044080D01*
X164077985Y-90044081D01*
X164229423Y-90111505D01*
X164235454Y-90114190D01*
X164322984Y-90132795D01*
X164404057Y-90150028D01*
X164404061Y-90150028D01*
X164410514Y-90151400D01*
X164589486Y-90151400D01*
X164595939Y-90150028D01*
X164595943Y-90150028D01*
X164677016Y-90132795D01*
X164764546Y-90114190D01*
X164770577Y-90111505D01*
X164922015Y-90044081D01*
X164922017Y-90044080D01*
X164928045Y-90041396D01*
X165072836Y-89936199D01*
X165192591Y-89803197D01*
X165245881Y-89710896D01*
X165297263Y-89661903D01*
X165366977Y-89648467D01*
X165432888Y-89674853D01*
X165474070Y-89732685D01*
X165481000Y-89773896D01*
X165481000Y-90826104D01*
X165460998Y-90894225D01*
X165407342Y-90940718D01*
X165337068Y-90950822D01*
X165272488Y-90921328D01*
X165245881Y-90889104D01*
X165195892Y-90802521D01*
X165192591Y-90796803D01*
X165072836Y-90663801D01*
X164928045Y-90558604D01*
X164922017Y-90555920D01*
X164922015Y-90555919D01*
X164770577Y-90488495D01*
X164770576Y-90488495D01*
X164764546Y-90485810D01*
X164677016Y-90467205D01*
X164595943Y-90449972D01*
X164595939Y-90449972D01*
X164589486Y-90448600D01*
X164410514Y-90448600D01*
X164404061Y-90449972D01*
X164404057Y-90449972D01*
X164322984Y-90467205D01*
X164235454Y-90485810D01*
X164229424Y-90488495D01*
X164229423Y-90488495D01*
X164077985Y-90555919D01*
X164077983Y-90555920D01*
X164071955Y-90558604D01*
X163927164Y-90663801D01*
X163807409Y-90796803D01*
X163717923Y-90951797D01*
X163662618Y-91122009D01*
X163643910Y-91300000D01*
X163662618Y-91477991D01*
X163717923Y-91648203D01*
X163807409Y-91803197D01*
X163927164Y-91936199D01*
X164071955Y-92041396D01*
X164077983Y-92044080D01*
X164077985Y-92044081D01*
X164229423Y-92111505D01*
X164235454Y-92114190D01*
X164322984Y-92132795D01*
X164404057Y-92150028D01*
X164404061Y-92150028D01*
X164410514Y-92151400D01*
X164589486Y-92151400D01*
X164595939Y-92150028D01*
X164595943Y-92150028D01*
X164677016Y-92132795D01*
X164764546Y-92114190D01*
X164770577Y-92111505D01*
X164922015Y-92044081D01*
X164922017Y-92044080D01*
X164928045Y-92041396D01*
X165072836Y-91936199D01*
X165192591Y-91803197D01*
X165245881Y-91710896D01*
X165297263Y-91661903D01*
X165366977Y-91648467D01*
X165432888Y-91674853D01*
X165474070Y-91732685D01*
X165481000Y-91773896D01*
X165481000Y-92826104D01*
X165460998Y-92894225D01*
X165407342Y-92940718D01*
X165337068Y-92950822D01*
X165272488Y-92921328D01*
X165245881Y-92889104D01*
X165195892Y-92802521D01*
X165192591Y-92796803D01*
X165072836Y-92663801D01*
X164928045Y-92558604D01*
X164922017Y-92555920D01*
X164922015Y-92555919D01*
X164770577Y-92488495D01*
X164770576Y-92488495D01*
X164764546Y-92485810D01*
X164677016Y-92467205D01*
X164595943Y-92449972D01*
X164595939Y-92449972D01*
X164589486Y-92448600D01*
X164410514Y-92448600D01*
X164404061Y-92449972D01*
X164404057Y-92449972D01*
X164322984Y-92467205D01*
X164235454Y-92485810D01*
X164229424Y-92488495D01*
X164229423Y-92488495D01*
X164077985Y-92555919D01*
X164077983Y-92555920D01*
X164071955Y-92558604D01*
X163927164Y-92663801D01*
X163807409Y-92796803D01*
X163717923Y-92951797D01*
X163662618Y-93122009D01*
X163643910Y-93300000D01*
X163662618Y-93477991D01*
X163717923Y-93648203D01*
X163807409Y-93803197D01*
X163927164Y-93936199D01*
X164071955Y-94041396D01*
X164077983Y-94044080D01*
X164077985Y-94044081D01*
X164229423Y-94111505D01*
X164235454Y-94114190D01*
X164322984Y-94132795D01*
X164404057Y-94150028D01*
X164404061Y-94150028D01*
X164410514Y-94151400D01*
X164589486Y-94151400D01*
X164595939Y-94150028D01*
X164595943Y-94150028D01*
X164677016Y-94132795D01*
X164764546Y-94114190D01*
X164770577Y-94111505D01*
X164922015Y-94044081D01*
X164922017Y-94044080D01*
X164928045Y-94041396D01*
X165072836Y-93936199D01*
X165192591Y-93803197D01*
X165245881Y-93710896D01*
X165297263Y-93661903D01*
X165366977Y-93648467D01*
X165432888Y-93674853D01*
X165474070Y-93732685D01*
X165481000Y-93773896D01*
X165481000Y-94826104D01*
X165460998Y-94894225D01*
X165407342Y-94940718D01*
X165337068Y-94950822D01*
X165272488Y-94921328D01*
X165245881Y-94889104D01*
X165195892Y-94802521D01*
X165192591Y-94796803D01*
X165072836Y-94663801D01*
X164928045Y-94558604D01*
X164922017Y-94555920D01*
X164922015Y-94555919D01*
X164770577Y-94488495D01*
X164770576Y-94488495D01*
X164764546Y-94485810D01*
X164677016Y-94467205D01*
X164595943Y-94449972D01*
X164595939Y-94449972D01*
X164589486Y-94448600D01*
X164410514Y-94448600D01*
X164404061Y-94449972D01*
X164404057Y-94449972D01*
X164322984Y-94467205D01*
X164235454Y-94485810D01*
X164229424Y-94488495D01*
X164229423Y-94488495D01*
X164077985Y-94555919D01*
X164077983Y-94555920D01*
X164071955Y-94558604D01*
X163927164Y-94663801D01*
X163807409Y-94796803D01*
X163717923Y-94951797D01*
X163662618Y-95122009D01*
X163643910Y-95300000D01*
X163662618Y-95477991D01*
X163717923Y-95648203D01*
X163807409Y-95803197D01*
X163927164Y-95936199D01*
X164071955Y-96041396D01*
X164077983Y-96044080D01*
X164077985Y-96044081D01*
X164229423Y-96111505D01*
X164235454Y-96114190D01*
X164322984Y-96132795D01*
X164404057Y-96150028D01*
X164404061Y-96150028D01*
X164410514Y-96151400D01*
X164589486Y-96151400D01*
X164595939Y-96150028D01*
X164595943Y-96150028D01*
X164677016Y-96132795D01*
X164764546Y-96114190D01*
X164770577Y-96111505D01*
X164922015Y-96044081D01*
X164922017Y-96044080D01*
X164928045Y-96041396D01*
X165072836Y-95936199D01*
X165192591Y-95803197D01*
X165245881Y-95710896D01*
X165297263Y-95661903D01*
X165366977Y-95648467D01*
X165432888Y-95674853D01*
X165474070Y-95732685D01*
X165481000Y-95773896D01*
X165481000Y-96926104D01*
X165460998Y-96994225D01*
X165407342Y-97040718D01*
X165337068Y-97050822D01*
X165272488Y-97021328D01*
X165245881Y-96989104D01*
X165195892Y-96902521D01*
X165192591Y-96896803D01*
X165072836Y-96763801D01*
X164928045Y-96658604D01*
X164922017Y-96655920D01*
X164922015Y-96655919D01*
X164770577Y-96588495D01*
X164770576Y-96588495D01*
X164764546Y-96585810D01*
X164677016Y-96567205D01*
X164595943Y-96549972D01*
X164595939Y-96549972D01*
X164589486Y-96548600D01*
X164410514Y-96548600D01*
X164404061Y-96549972D01*
X164404057Y-96549972D01*
X164322984Y-96567205D01*
X164235454Y-96585810D01*
X164229424Y-96588495D01*
X164229423Y-96588495D01*
X164077985Y-96655919D01*
X164077983Y-96655920D01*
X164071955Y-96658604D01*
X163927164Y-96763801D01*
X163807409Y-96896803D01*
X163717923Y-97051797D01*
X163662618Y-97222009D01*
X163643910Y-97400000D01*
X163662618Y-97577991D01*
X163717923Y-97748203D01*
X163807409Y-97903197D01*
X163927164Y-98036199D01*
X164071955Y-98141396D01*
X164077983Y-98144080D01*
X164077985Y-98144081D01*
X164229423Y-98211505D01*
X164235454Y-98214190D01*
X164322984Y-98232795D01*
X164404057Y-98250028D01*
X164404061Y-98250028D01*
X164410514Y-98251400D01*
X164589486Y-98251400D01*
X164595939Y-98250028D01*
X164595943Y-98250028D01*
X164677016Y-98232795D01*
X164764546Y-98214190D01*
X164770577Y-98211505D01*
X164922015Y-98144081D01*
X164922017Y-98144080D01*
X164928045Y-98141396D01*
X165072836Y-98036199D01*
X165192591Y-97903197D01*
X165245881Y-97810896D01*
X165297263Y-97761903D01*
X165366977Y-97748467D01*
X165432888Y-97774853D01*
X165474070Y-97832685D01*
X165481000Y-97873896D01*
X165481000Y-98926104D01*
X165460998Y-98994225D01*
X165407342Y-99040718D01*
X165337068Y-99050822D01*
X165272488Y-99021328D01*
X165245881Y-98989104D01*
X165195892Y-98902521D01*
X165192591Y-98896803D01*
X165072836Y-98763801D01*
X164928045Y-98658604D01*
X164922017Y-98655920D01*
X164922015Y-98655919D01*
X164770577Y-98588495D01*
X164770576Y-98588495D01*
X164764546Y-98585810D01*
X164677016Y-98567205D01*
X164595943Y-98549972D01*
X164595939Y-98549972D01*
X164589486Y-98548600D01*
X164410514Y-98548600D01*
X164404061Y-98549972D01*
X164404057Y-98549972D01*
X164322984Y-98567205D01*
X164235454Y-98585810D01*
X164229424Y-98588495D01*
X164229423Y-98588495D01*
X164077985Y-98655919D01*
X164077983Y-98655920D01*
X164071955Y-98658604D01*
X163927164Y-98763801D01*
X163807409Y-98896803D01*
X163717923Y-99051797D01*
X163662618Y-99222009D01*
X163661928Y-99228572D01*
X163661928Y-99228573D01*
X163657842Y-99267451D01*
X163643910Y-99400000D01*
X163644600Y-99406565D01*
X163646183Y-99421621D01*
X163662618Y-99577991D01*
X163717923Y-99748203D01*
X163721226Y-99753925D01*
X163721227Y-99753926D01*
X163733309Y-99774853D01*
X163807409Y-99903197D01*
X163811827Y-99908104D01*
X163811828Y-99908105D01*
X163910504Y-100017696D01*
X163927164Y-100036199D01*
X163932506Y-100040080D01*
X163932508Y-100040082D01*
X163998269Y-100087860D01*
X164071955Y-100141396D01*
X164077983Y-100144080D01*
X164077985Y-100144081D01*
X164229423Y-100211505D01*
X164235454Y-100214190D01*
X164322984Y-100232795D01*
X164404057Y-100250028D01*
X164404061Y-100250028D01*
X164410514Y-100251400D01*
X164589486Y-100251400D01*
X164595939Y-100250028D01*
X164595943Y-100250028D01*
X164677016Y-100232795D01*
X164764546Y-100214190D01*
X164770577Y-100211505D01*
X164922015Y-100144081D01*
X164922017Y-100144080D01*
X164928045Y-100141396D01*
X165001731Y-100087860D01*
X165067492Y-100040082D01*
X165067494Y-100040080D01*
X165072836Y-100036199D01*
X165089496Y-100017696D01*
X165188172Y-99908105D01*
X165188173Y-99908104D01*
X165192591Y-99903197D01*
X165245881Y-99810896D01*
X165297263Y-99761903D01*
X165366977Y-99748467D01*
X165432888Y-99774853D01*
X165474070Y-99832685D01*
X165481000Y-99873896D01*
X165481000Y-104815500D01*
X165460998Y-104883621D01*
X165407342Y-104930114D01*
X165355000Y-104941500D01*
X162594400Y-104941500D01*
X162526279Y-104921498D01*
X162479786Y-104867842D01*
X162469682Y-104797568D01*
X162499176Y-104732988D01*
X162558902Y-104694604D01*
X162583419Y-104689979D01*
X162584200Y-104689911D01*
X162643908Y-104684687D01*
X162862951Y-104625994D01*
X162959124Y-104581148D01*
X163063488Y-104532483D01*
X163063493Y-104532480D01*
X163068475Y-104530157D01*
X163172380Y-104457402D01*
X163249724Y-104403245D01*
X163249727Y-104403243D01*
X163254235Y-104400086D01*
X163414586Y-104239735D01*
X163544657Y-104053975D01*
X163546980Y-104048993D01*
X163546983Y-104048988D01*
X163638169Y-103853436D01*
X163640494Y-103848451D01*
X163699187Y-103629408D01*
X163709385Y-103512841D01*
X163713762Y-103462816D01*
X163713762Y-103462807D01*
X163714000Y-103460091D01*
X163714000Y-101771909D01*
X163713315Y-101764070D01*
X163699666Y-101608069D01*
X163699187Y-101602592D01*
X163640494Y-101383549D01*
X163595648Y-101287376D01*
X163546983Y-101183012D01*
X163546980Y-101183007D01*
X163544657Y-101178025D01*
X163414586Y-100992265D01*
X163254235Y-100831914D01*
X163197337Y-100792073D01*
X163072980Y-100704996D01*
X163072974Y-100704992D01*
X163068476Y-100701843D01*
X162862951Y-100606006D01*
X162857647Y-100604585D01*
X162857642Y-100604583D01*
X162708260Y-100564556D01*
X162643908Y-100547313D01*
X162418000Y-100527549D01*
X162192092Y-100547313D01*
X161973049Y-100606006D01*
X161876876Y-100650852D01*
X161772512Y-100699517D01*
X161772509Y-100699519D01*
X161767525Y-100701843D01*
X161763017Y-100704999D01*
X161763011Y-100705003D01*
X161678770Y-100763989D01*
X161611496Y-100786677D01*
X161542636Y-100769392D01*
X161494052Y-100717622D01*
X161480500Y-100660776D01*
X161480500Y-99713866D01*
X161473745Y-99651684D01*
X161422615Y-99515295D01*
X161335261Y-99398739D01*
X161218705Y-99311385D01*
X161082316Y-99260255D01*
X161020134Y-99253500D01*
X159415866Y-99253500D01*
X159353684Y-99260255D01*
X159217295Y-99311385D01*
X159100739Y-99398739D01*
X159013385Y-99515295D01*
X158962255Y-99651684D01*
X158957484Y-99695605D01*
X158957061Y-99699499D01*
X158929820Y-99765061D01*
X158871457Y-99805488D01*
X158800503Y-99807944D01*
X158739485Y-99771649D01*
X158728585Y-99758162D01*
X158699961Y-99717283D01*
X158688826Y-99701380D01*
X158532620Y-99545174D01*
X158528112Y-99542017D01*
X158528109Y-99542015D01*
X158356171Y-99421623D01*
X158356168Y-99421621D01*
X158351662Y-99418466D01*
X158346680Y-99416143D01*
X158346675Y-99416140D01*
X158156432Y-99327429D01*
X158156431Y-99327429D01*
X158151450Y-99325106D01*
X158146142Y-99323684D01*
X158146140Y-99323683D01*
X158080748Y-99306161D01*
X157938068Y-99267930D01*
X157718000Y-99248677D01*
X157497932Y-99267930D01*
X157355252Y-99306161D01*
X157289860Y-99323683D01*
X157289858Y-99323684D01*
X157284550Y-99325106D01*
X157279569Y-99327428D01*
X157279568Y-99327429D01*
X157089320Y-99416143D01*
X157089317Y-99416145D01*
X157084339Y-99418466D01*
X156903380Y-99545174D01*
X156807095Y-99641459D01*
X156744783Y-99675485D01*
X156673968Y-99670420D01*
X156628905Y-99641459D01*
X156532620Y-99545174D01*
X156528112Y-99542017D01*
X156528109Y-99542015D01*
X156356171Y-99421623D01*
X156356168Y-99421621D01*
X156351662Y-99418466D01*
X156346680Y-99416143D01*
X156346675Y-99416140D01*
X156156432Y-99327429D01*
X156156431Y-99327429D01*
X156151450Y-99325106D01*
X156146142Y-99323684D01*
X156146140Y-99323683D01*
X156080748Y-99306161D01*
X155938068Y-99267930D01*
X155718000Y-99248677D01*
X155497932Y-99267930D01*
X155355252Y-99306161D01*
X155289860Y-99323683D01*
X155289858Y-99323684D01*
X155284550Y-99325106D01*
X155279569Y-99327428D01*
X155279568Y-99327429D01*
X155089320Y-99416143D01*
X155089317Y-99416145D01*
X155084339Y-99418466D01*
X154903380Y-99545174D01*
X154747174Y-99701380D01*
X154620466Y-99882339D01*
X154618145Y-99887317D01*
X154618143Y-99887320D01*
X154582195Y-99964411D01*
X154535277Y-100017696D01*
X154467000Y-100037157D01*
X154399040Y-100016615D01*
X154353805Y-99964411D01*
X154317857Y-99887320D01*
X154317855Y-99887317D01*
X154315534Y-99882339D01*
X154188826Y-99701380D01*
X154032620Y-99545174D01*
X154028112Y-99542017D01*
X154028109Y-99542015D01*
X153856171Y-99421623D01*
X153856168Y-99421621D01*
X153851662Y-99418466D01*
X153846680Y-99416143D01*
X153846675Y-99416140D01*
X153656432Y-99327429D01*
X153656431Y-99327429D01*
X153651450Y-99325106D01*
X153646142Y-99323684D01*
X153646140Y-99323683D01*
X153580748Y-99306161D01*
X153438068Y-99267930D01*
X153218000Y-99248677D01*
X152997932Y-99267930D01*
X152855252Y-99306161D01*
X152789860Y-99323683D01*
X152789858Y-99323684D01*
X152784550Y-99325106D01*
X152779569Y-99327428D01*
X152779568Y-99327429D01*
X152589320Y-99416143D01*
X152589317Y-99416145D01*
X152584339Y-99418466D01*
X152403380Y-99545174D01*
X152247174Y-99701380D01*
X152120466Y-99882339D01*
X152118145Y-99887317D01*
X152118143Y-99887320D01*
X152108451Y-99908105D01*
X152027106Y-100082550D01*
X151969930Y-100295932D01*
X151950677Y-100516000D01*
X151958552Y-100606006D01*
X151962863Y-100655285D01*
X151948874Y-100724890D01*
X151899474Y-100775883D01*
X151830348Y-100792073D01*
X151765071Y-100769480D01*
X151672980Y-100704996D01*
X151672974Y-100704992D01*
X151668476Y-100701843D01*
X151462951Y-100606006D01*
X151457647Y-100604585D01*
X151457642Y-100604583D01*
X151308260Y-100564556D01*
X151243908Y-100547313D01*
X151018000Y-100527549D01*
X150792092Y-100547313D01*
X150573049Y-100606006D01*
X150476876Y-100650852D01*
X150372512Y-100699517D01*
X150372509Y-100699519D01*
X150367525Y-100701843D01*
X150334611Y-100724890D01*
X150186276Y-100828755D01*
X150186273Y-100828757D01*
X150181765Y-100831914D01*
X150021414Y-100992265D01*
X149891343Y-101178025D01*
X149889020Y-101183007D01*
X149889017Y-101183012D01*
X149840352Y-101287376D01*
X149795506Y-101383549D01*
X149736813Y-101602592D01*
X149736334Y-101608069D01*
X149722686Y-101764070D01*
X149722000Y-101771909D01*
X149722000Y-103460091D01*
X149722238Y-103462807D01*
X149722238Y-103462816D01*
X149726615Y-103512841D01*
X149736813Y-103629408D01*
X149795506Y-103848451D01*
X149797831Y-103853436D01*
X149889017Y-104048988D01*
X149889020Y-104048993D01*
X149891343Y-104053975D01*
X150021414Y-104239735D01*
X150181765Y-104400086D01*
X150186274Y-104403243D01*
X150186276Y-104403245D01*
X150363020Y-104527004D01*
X150363026Y-104527008D01*
X150367524Y-104530157D01*
X150573049Y-104625994D01*
X150578353Y-104627415D01*
X150578358Y-104627417D01*
X150727740Y-104667444D01*
X150792092Y-104684687D01*
X150851800Y-104689911D01*
X150852581Y-104689979D01*
X150918700Y-104715842D01*
X150960339Y-104773346D01*
X150964280Y-104844233D01*
X150929271Y-104905998D01*
X150866427Y-104939030D01*
X150841600Y-104941500D01*
X148081000Y-104941500D01*
X148012879Y-104921498D01*
X147966386Y-104867842D01*
X147955000Y-104815500D01*
X147955000Y-99734541D01*
X147975002Y-99666420D01*
X148028658Y-99619927D01*
X148098932Y-99609823D01*
X148163512Y-99639317D01*
X148200833Y-99695605D01*
X148217923Y-99748203D01*
X148221226Y-99753925D01*
X148221227Y-99753926D01*
X148233309Y-99774853D01*
X148307409Y-99903197D01*
X148311827Y-99908104D01*
X148311828Y-99908105D01*
X148410504Y-100017696D01*
X148427164Y-100036199D01*
X148432506Y-100040080D01*
X148432508Y-100040082D01*
X148498269Y-100087860D01*
X148571955Y-100141396D01*
X148577983Y-100144080D01*
X148577985Y-100144081D01*
X148729423Y-100211505D01*
X148735454Y-100214190D01*
X148822984Y-100232795D01*
X148904057Y-100250028D01*
X148904061Y-100250028D01*
X148910514Y-100251400D01*
X149089486Y-100251400D01*
X149095939Y-100250028D01*
X149095943Y-100250028D01*
X149177016Y-100232795D01*
X149264546Y-100214190D01*
X149270577Y-100211505D01*
X149422015Y-100144081D01*
X149422017Y-100144080D01*
X149428045Y-100141396D01*
X149501731Y-100087860D01*
X149567492Y-100040082D01*
X149567494Y-100040080D01*
X149572836Y-100036199D01*
X149589496Y-100017696D01*
X149688172Y-99908105D01*
X149688173Y-99908104D01*
X149692591Y-99903197D01*
X149766691Y-99774853D01*
X149778773Y-99753926D01*
X149778774Y-99753925D01*
X149782077Y-99748203D01*
X149837382Y-99577991D01*
X149853818Y-99421621D01*
X149855400Y-99406565D01*
X149856090Y-99400000D01*
X149842158Y-99267451D01*
X149838072Y-99228573D01*
X149838072Y-99228572D01*
X149837382Y-99222009D01*
X149782077Y-99051797D01*
X149692591Y-98896803D01*
X149572836Y-98763801D01*
X149428045Y-98658604D01*
X149422017Y-98655920D01*
X149422015Y-98655919D01*
X149270577Y-98588495D01*
X149270576Y-98588495D01*
X149264546Y-98585810D01*
X149177016Y-98567205D01*
X149095943Y-98549972D01*
X149095939Y-98549972D01*
X149089486Y-98548600D01*
X148910514Y-98548600D01*
X148904061Y-98549972D01*
X148904057Y-98549972D01*
X148822984Y-98567205D01*
X148735454Y-98585810D01*
X148729424Y-98588495D01*
X148729423Y-98588495D01*
X148577985Y-98655919D01*
X148577983Y-98655920D01*
X148571955Y-98658604D01*
X148427164Y-98763801D01*
X148307409Y-98896803D01*
X148217923Y-99051797D01*
X148215881Y-99058082D01*
X148200833Y-99104395D01*
X148160760Y-99163001D01*
X148095363Y-99190638D01*
X148025406Y-99178531D01*
X147973100Y-99130525D01*
X147955000Y-99065459D01*
X147955000Y-97734541D01*
X147975002Y-97666420D01*
X148028658Y-97619927D01*
X148098932Y-97609823D01*
X148163512Y-97639317D01*
X148200833Y-97695605D01*
X148217923Y-97748203D01*
X148307409Y-97903197D01*
X148427164Y-98036199D01*
X148571955Y-98141396D01*
X148577983Y-98144080D01*
X148577985Y-98144081D01*
X148729423Y-98211505D01*
X148735454Y-98214190D01*
X148822984Y-98232795D01*
X148904057Y-98250028D01*
X148904061Y-98250028D01*
X148910514Y-98251400D01*
X149089486Y-98251400D01*
X149095939Y-98250028D01*
X149095943Y-98250028D01*
X149177016Y-98232795D01*
X149264546Y-98214190D01*
X149270577Y-98211505D01*
X149422015Y-98144081D01*
X149422017Y-98144080D01*
X149428045Y-98141396D01*
X149572836Y-98036199D01*
X149692591Y-97903197D01*
X149782077Y-97748203D01*
X149837382Y-97577991D01*
X149856090Y-97400000D01*
X149837382Y-97222009D01*
X149782077Y-97051797D01*
X149692591Y-96896803D01*
X149572836Y-96763801D01*
X149428045Y-96658604D01*
X149422017Y-96655920D01*
X149422015Y-96655919D01*
X149270577Y-96588495D01*
X149270576Y-96588495D01*
X149264546Y-96585810D01*
X149177016Y-96567205D01*
X149095943Y-96549972D01*
X149095939Y-96549972D01*
X149089486Y-96548600D01*
X148910514Y-96548600D01*
X148904061Y-96549972D01*
X148904057Y-96549972D01*
X148822984Y-96567205D01*
X148735454Y-96585810D01*
X148729424Y-96588495D01*
X148729423Y-96588495D01*
X148577985Y-96655919D01*
X148577983Y-96655920D01*
X148571955Y-96658604D01*
X148427164Y-96763801D01*
X148307409Y-96896803D01*
X148217923Y-97051797D01*
X148215881Y-97058082D01*
X148200833Y-97104395D01*
X148160760Y-97163001D01*
X148095363Y-97190638D01*
X148025406Y-97178531D01*
X147973100Y-97130525D01*
X147955000Y-97065459D01*
X147955000Y-86800000D01*
X149643910Y-86800000D01*
X149662618Y-86977991D01*
X149717923Y-87148203D01*
X149807409Y-87303197D01*
X149811827Y-87308104D01*
X149811828Y-87308105D01*
X149911336Y-87418620D01*
X149927164Y-87436199D01*
X149932506Y-87440080D01*
X149932508Y-87440082D01*
X149996536Y-87486601D01*
X150071955Y-87541396D01*
X150077983Y-87544080D01*
X150077985Y-87544081D01*
X150169458Y-87584807D01*
X150235454Y-87614190D01*
X150322984Y-87632795D01*
X150404057Y-87650028D01*
X150404061Y-87650028D01*
X150410514Y-87651400D01*
X150589486Y-87651400D01*
X150595939Y-87650028D01*
X150595943Y-87650028D01*
X150677016Y-87632795D01*
X150764546Y-87614190D01*
X150830542Y-87584807D01*
X150922015Y-87544081D01*
X150922017Y-87544080D01*
X150928045Y-87541396D01*
X151003464Y-87486601D01*
X151067492Y-87440082D01*
X151067494Y-87440080D01*
X151072836Y-87436199D01*
X151088664Y-87418620D01*
X151188172Y-87308105D01*
X151188173Y-87308104D01*
X151192591Y-87303197D01*
X151282077Y-87148203D01*
X151337382Y-86977991D01*
X151356090Y-86800000D01*
X151643910Y-86800000D01*
X151662618Y-86977991D01*
X151717923Y-87148203D01*
X151807409Y-87303197D01*
X151811827Y-87308104D01*
X151811828Y-87308105D01*
X151911336Y-87418620D01*
X151927164Y-87436199D01*
X151932506Y-87440080D01*
X151932508Y-87440082D01*
X151996536Y-87486601D01*
X152071955Y-87541396D01*
X152077983Y-87544080D01*
X152077985Y-87544081D01*
X152169458Y-87584807D01*
X152235454Y-87614190D01*
X152322984Y-87632795D01*
X152404057Y-87650028D01*
X152404061Y-87650028D01*
X152410514Y-87651400D01*
X152589486Y-87651400D01*
X152595939Y-87650028D01*
X152595943Y-87650028D01*
X152677016Y-87632795D01*
X152764546Y-87614190D01*
X152830542Y-87584807D01*
X152922015Y-87544081D01*
X152922017Y-87544080D01*
X152928045Y-87541396D01*
X153003464Y-87486601D01*
X153067492Y-87440082D01*
X153067494Y-87440080D01*
X153072836Y-87436199D01*
X153088664Y-87418620D01*
X153188172Y-87308105D01*
X153188173Y-87308104D01*
X153192591Y-87303197D01*
X153282077Y-87148203D01*
X153337382Y-86977991D01*
X153356090Y-86800000D01*
X153643910Y-86800000D01*
X153662618Y-86977991D01*
X153717923Y-87148203D01*
X153807409Y-87303197D01*
X153811827Y-87308104D01*
X153811828Y-87308105D01*
X153911336Y-87418620D01*
X153927164Y-87436199D01*
X153932506Y-87440080D01*
X153932508Y-87440082D01*
X153996536Y-87486601D01*
X154071955Y-87541396D01*
X154077983Y-87544080D01*
X154077985Y-87544081D01*
X154169458Y-87584807D01*
X154235454Y-87614190D01*
X154322984Y-87632795D01*
X154404057Y-87650028D01*
X154404061Y-87650028D01*
X154410514Y-87651400D01*
X154589486Y-87651400D01*
X154595939Y-87650028D01*
X154595943Y-87650028D01*
X154758097Y-87615561D01*
X154758099Y-87615560D01*
X154758773Y-87615417D01*
X154758775Y-87615417D01*
X154764546Y-87614190D01*
X154764770Y-87615246D01*
X154829485Y-87613399D01*
X154890282Y-87650063D01*
X154921605Y-87713776D01*
X154913510Y-87784310D01*
X154906569Y-87798258D01*
X154853087Y-87890892D01*
X154817923Y-87951797D01*
X154762618Y-88122009D01*
X154743910Y-88300000D01*
X154762618Y-88477991D01*
X154764658Y-88484269D01*
X154764658Y-88484270D01*
X154766031Y-88488495D01*
X154817923Y-88648203D01*
X154821226Y-88653925D01*
X154821227Y-88653926D01*
X154829764Y-88668712D01*
X154907409Y-88803197D01*
X154911827Y-88808104D01*
X154911828Y-88808105D01*
X155013774Y-88921328D01*
X155027164Y-88936199D01*
X155032506Y-88940080D01*
X155032508Y-88940082D01*
X155057283Y-88958082D01*
X155171955Y-89041396D01*
X155177983Y-89044080D01*
X155177985Y-89044081D01*
X155329423Y-89111505D01*
X155335454Y-89114190D01*
X155422984Y-89132795D01*
X155504057Y-89150028D01*
X155504061Y-89150028D01*
X155510514Y-89151400D01*
X155689486Y-89151400D01*
X155695939Y-89150028D01*
X155695943Y-89150028D01*
X155777016Y-89132795D01*
X155864546Y-89114190D01*
X155870577Y-89111505D01*
X156022015Y-89044081D01*
X156022017Y-89044080D01*
X156028045Y-89041396D01*
X156142717Y-88958082D01*
X156167492Y-88940082D01*
X156167494Y-88940080D01*
X156172836Y-88936199D01*
X156186226Y-88921328D01*
X156288172Y-88808105D01*
X156288173Y-88808104D01*
X156292591Y-88803197D01*
X156370236Y-88668712D01*
X156378773Y-88653926D01*
X156378774Y-88653925D01*
X156382077Y-88648203D01*
X156433969Y-88488495D01*
X156435342Y-88484270D01*
X156435342Y-88484269D01*
X156437382Y-88477991D01*
X156456090Y-88300000D01*
X156437382Y-88122009D01*
X156423552Y-88079444D01*
X156421524Y-88008478D01*
X156458187Y-87947680D01*
X156517188Y-87917262D01*
X156566461Y-87906788D01*
X156641248Y-87890892D01*
X156647279Y-87888207D01*
X156798717Y-87820783D01*
X156798719Y-87820782D01*
X156804747Y-87818098D01*
X156810089Y-87814217D01*
X156944194Y-87716784D01*
X156944196Y-87716782D01*
X156949538Y-87712901D01*
X157037467Y-87615246D01*
X157064874Y-87584807D01*
X157064875Y-87584806D01*
X157069293Y-87579899D01*
X157150017Y-87440082D01*
X157155475Y-87430628D01*
X157155476Y-87430627D01*
X157158779Y-87424905D01*
X157194265Y-87315690D01*
X157212044Y-87260972D01*
X157212044Y-87260971D01*
X157214084Y-87254693D01*
X157232792Y-87076702D01*
X157214084Y-86898711D01*
X157158779Y-86728499D01*
X157069293Y-86573505D01*
X156949538Y-86440503D01*
X156804747Y-86335306D01*
X156798719Y-86332622D01*
X156798717Y-86332621D01*
X156647279Y-86265197D01*
X156647278Y-86265197D01*
X156641248Y-86262512D01*
X156553718Y-86243907D01*
X156472645Y-86226674D01*
X156472641Y-86226674D01*
X156466188Y-86225302D01*
X156287216Y-86225302D01*
X156280763Y-86226674D01*
X156280759Y-86226674D01*
X156199686Y-86243907D01*
X156112156Y-86262512D01*
X156106126Y-86265197D01*
X156106125Y-86265197D01*
X155954687Y-86332621D01*
X155954685Y-86332622D01*
X155948657Y-86335306D01*
X155803866Y-86440503D01*
X155684111Y-86573505D01*
X155594625Y-86728499D01*
X155592585Y-86734779D01*
X155592580Y-86734789D01*
X155591891Y-86736911D01*
X155591160Y-86737980D01*
X155589899Y-86740812D01*
X155589381Y-86740581D01*
X155551815Y-86795515D01*
X155486418Y-86823149D01*
X155416461Y-86811040D01*
X155364157Y-86763031D01*
X155346750Y-86711140D01*
X155338072Y-86628574D01*
X155338072Y-86628573D01*
X155337382Y-86622009D01*
X155320028Y-86568597D01*
X155284119Y-86458082D01*
X155282077Y-86451797D01*
X155275557Y-86440503D01*
X155214821Y-86335306D01*
X155192591Y-86296803D01*
X155161716Y-86262512D01*
X155077258Y-86168712D01*
X155077257Y-86168711D01*
X155072836Y-86163801D01*
X154928045Y-86058604D01*
X154922017Y-86055920D01*
X154922015Y-86055919D01*
X154770577Y-85988495D01*
X154770576Y-85988495D01*
X154764546Y-85985810D01*
X154705441Y-85973247D01*
X154642968Y-85939519D01*
X154608646Y-85877369D01*
X154613374Y-85806530D01*
X154655649Y-85749493D01*
X154705441Y-85726753D01*
X154764546Y-85714190D01*
X154770577Y-85711505D01*
X154922015Y-85644081D01*
X154922017Y-85644080D01*
X154928045Y-85641396D01*
X155072836Y-85536199D01*
X155149189Y-85451400D01*
X155188172Y-85408105D01*
X155188173Y-85408104D01*
X155192591Y-85403197D01*
X155282077Y-85248203D01*
X155305011Y-85177620D01*
X155335342Y-85084270D01*
X155335342Y-85084269D01*
X155337382Y-85077991D01*
X155356090Y-84900000D01*
X155337382Y-84722009D01*
X155297739Y-84600000D01*
X158743910Y-84600000D01*
X158762618Y-84777991D01*
X158817923Y-84948203D01*
X158907409Y-85103197D01*
X159027164Y-85236199D01*
X159032506Y-85240080D01*
X159032508Y-85240082D01*
X159043686Y-85248203D01*
X159171955Y-85341396D01*
X159177983Y-85344080D01*
X159177985Y-85344081D01*
X159329423Y-85411505D01*
X159335454Y-85414190D01*
X159422984Y-85432795D01*
X159504057Y-85450028D01*
X159504061Y-85450028D01*
X159510514Y-85451400D01*
X159689486Y-85451400D01*
X159695939Y-85450028D01*
X159695943Y-85450028D01*
X159777016Y-85432795D01*
X159864546Y-85414190D01*
X159870577Y-85411505D01*
X160022015Y-85344081D01*
X160022017Y-85344080D01*
X160028045Y-85341396D01*
X160156314Y-85248203D01*
X160167492Y-85240082D01*
X160167494Y-85240080D01*
X160172836Y-85236199D01*
X160292591Y-85103197D01*
X160382077Y-84948203D01*
X160437382Y-84777991D01*
X160456090Y-84600000D01*
X160437382Y-84422009D01*
X160427598Y-84391895D01*
X160384119Y-84258082D01*
X160382077Y-84251797D01*
X160292591Y-84096803D01*
X160285111Y-84088495D01*
X160177258Y-83968712D01*
X160177257Y-83968711D01*
X160172836Y-83963801D01*
X160028045Y-83858604D01*
X160022017Y-83855920D01*
X160022015Y-83855919D01*
X159870577Y-83788495D01*
X159870576Y-83788495D01*
X159864546Y-83785810D01*
X159777016Y-83767205D01*
X159695943Y-83749972D01*
X159695939Y-83749972D01*
X159689486Y-83748600D01*
X159510514Y-83748600D01*
X159504061Y-83749972D01*
X159504057Y-83749972D01*
X159422984Y-83767205D01*
X159335454Y-83785810D01*
X159329424Y-83788495D01*
X159329423Y-83788495D01*
X159177985Y-83855919D01*
X159177983Y-83855920D01*
X159171955Y-83858604D01*
X159027164Y-83963801D01*
X159022743Y-83968711D01*
X159022742Y-83968712D01*
X158914890Y-84088495D01*
X158907409Y-84096803D01*
X158817923Y-84251797D01*
X158815881Y-84258082D01*
X158772403Y-84391895D01*
X158762618Y-84422009D01*
X158743910Y-84600000D01*
X155297739Y-84600000D01*
X155282077Y-84551797D01*
X155192591Y-84396803D01*
X155072836Y-84263801D01*
X155064965Y-84258082D01*
X154933387Y-84162485D01*
X154933386Y-84162484D01*
X154928045Y-84158604D01*
X154922017Y-84155920D01*
X154922015Y-84155919D01*
X154770577Y-84088495D01*
X154770576Y-84088495D01*
X154764546Y-84085810D01*
X154677016Y-84067205D01*
X154595943Y-84049972D01*
X154595939Y-84049972D01*
X154589486Y-84048600D01*
X154410514Y-84048600D01*
X154404061Y-84049972D01*
X154404057Y-84049972D01*
X154322984Y-84067205D01*
X154235454Y-84085810D01*
X154229424Y-84088495D01*
X154229423Y-84088495D01*
X154077985Y-84155919D01*
X154077983Y-84155920D01*
X154071955Y-84158604D01*
X154066614Y-84162484D01*
X154066613Y-84162485D01*
X153935036Y-84258082D01*
X153927164Y-84263801D01*
X153807409Y-84396803D01*
X153717923Y-84551797D01*
X153662618Y-84722009D01*
X153643910Y-84900000D01*
X153662618Y-85077991D01*
X153664658Y-85084269D01*
X153664658Y-85084270D01*
X153694989Y-85177620D01*
X153717923Y-85248203D01*
X153807409Y-85403197D01*
X153811827Y-85408104D01*
X153811828Y-85408105D01*
X153850811Y-85451400D01*
X153927164Y-85536199D01*
X154071955Y-85641396D01*
X154077983Y-85644080D01*
X154077985Y-85644081D01*
X154229423Y-85711505D01*
X154235454Y-85714190D01*
X154294559Y-85726753D01*
X154357032Y-85760481D01*
X154391354Y-85822631D01*
X154386626Y-85893470D01*
X154344351Y-85950507D01*
X154294559Y-85973247D01*
X154235454Y-85985810D01*
X154229424Y-85988495D01*
X154229423Y-85988495D01*
X154077985Y-86055919D01*
X154077983Y-86055920D01*
X154071955Y-86058604D01*
X153927164Y-86163801D01*
X153922743Y-86168711D01*
X153922742Y-86168712D01*
X153838285Y-86262512D01*
X153807409Y-86296803D01*
X153785179Y-86335306D01*
X153724444Y-86440503D01*
X153717923Y-86451797D01*
X153715881Y-86458082D01*
X153679973Y-86568597D01*
X153662618Y-86622009D01*
X153643910Y-86800000D01*
X153356090Y-86800000D01*
X153337382Y-86622009D01*
X153320028Y-86568597D01*
X153284119Y-86458082D01*
X153282077Y-86451797D01*
X153275557Y-86440503D01*
X153214821Y-86335306D01*
X153192591Y-86296803D01*
X153161716Y-86262512D01*
X153077258Y-86168712D01*
X153077257Y-86168711D01*
X153072836Y-86163801D01*
X152928045Y-86058604D01*
X152922017Y-86055920D01*
X152922015Y-86055919D01*
X152770577Y-85988495D01*
X152770576Y-85988495D01*
X152764546Y-85985810D01*
X152677016Y-85967205D01*
X152595943Y-85949972D01*
X152595939Y-85949972D01*
X152589486Y-85948600D01*
X152410514Y-85948600D01*
X152404061Y-85949972D01*
X152404057Y-85949972D01*
X152322984Y-85967205D01*
X152235454Y-85985810D01*
X152229424Y-85988495D01*
X152229423Y-85988495D01*
X152077985Y-86055919D01*
X152077983Y-86055920D01*
X152071955Y-86058604D01*
X151927164Y-86163801D01*
X151922743Y-86168711D01*
X151922742Y-86168712D01*
X151838285Y-86262512D01*
X151807409Y-86296803D01*
X151785179Y-86335306D01*
X151724444Y-86440503D01*
X151717923Y-86451797D01*
X151715881Y-86458082D01*
X151679973Y-86568597D01*
X151662618Y-86622009D01*
X151643910Y-86800000D01*
X151356090Y-86800000D01*
X151337382Y-86622009D01*
X151320028Y-86568597D01*
X151284119Y-86458082D01*
X151282077Y-86451797D01*
X151275557Y-86440503D01*
X151214821Y-86335306D01*
X151192591Y-86296803D01*
X151161716Y-86262512D01*
X151077258Y-86168712D01*
X151077257Y-86168711D01*
X151072836Y-86163801D01*
X150928045Y-86058604D01*
X150922017Y-86055920D01*
X150922015Y-86055919D01*
X150770577Y-85988495D01*
X150770576Y-85988495D01*
X150764546Y-85985810D01*
X150677016Y-85967205D01*
X150595943Y-85949972D01*
X150595939Y-85949972D01*
X150589486Y-85948600D01*
X150410514Y-85948600D01*
X150404061Y-85949972D01*
X150404057Y-85949972D01*
X150322984Y-85967205D01*
X150235454Y-85985810D01*
X150229424Y-85988495D01*
X150229423Y-85988495D01*
X150077985Y-86055919D01*
X150077983Y-86055920D01*
X150071955Y-86058604D01*
X149927164Y-86163801D01*
X149922743Y-86168711D01*
X149922742Y-86168712D01*
X149838285Y-86262512D01*
X149807409Y-86296803D01*
X149785179Y-86335306D01*
X149724444Y-86440503D01*
X149717923Y-86451797D01*
X149715881Y-86458082D01*
X149679973Y-86568597D01*
X149662618Y-86622009D01*
X149643910Y-86800000D01*
X147955000Y-86800000D01*
X147955000Y-80000000D01*
X151843910Y-80000000D01*
X151862618Y-80177991D01*
X151917923Y-80348203D01*
X152007409Y-80503197D01*
X152127164Y-80636199D01*
X152271955Y-80741396D01*
X152277983Y-80744080D01*
X152277985Y-80744081D01*
X152429423Y-80811505D01*
X152435454Y-80814190D01*
X152522984Y-80832795D01*
X152604057Y-80850028D01*
X152604061Y-80850028D01*
X152610514Y-80851400D01*
X152789486Y-80851400D01*
X152795939Y-80850028D01*
X152795943Y-80850028D01*
X152877016Y-80832795D01*
X152964546Y-80814190D01*
X152970577Y-80811505D01*
X153122015Y-80744081D01*
X153122017Y-80744080D01*
X153128045Y-80741396D01*
X153272836Y-80636199D01*
X153392591Y-80503197D01*
X153482077Y-80348203D01*
X153537382Y-80177991D01*
X153556090Y-80000000D01*
X153843910Y-80000000D01*
X153862618Y-80177991D01*
X153917923Y-80348203D01*
X154007409Y-80503197D01*
X154127164Y-80636199D01*
X154271955Y-80741396D01*
X154277983Y-80744080D01*
X154277985Y-80744081D01*
X154429423Y-80811505D01*
X154435454Y-80814190D01*
X154522984Y-80832795D01*
X154604057Y-80850028D01*
X154604061Y-80850028D01*
X154610514Y-80851400D01*
X154789486Y-80851400D01*
X154795939Y-80850028D01*
X154795943Y-80850028D01*
X154877016Y-80832795D01*
X154964546Y-80814190D01*
X154970577Y-80811505D01*
X155122015Y-80744081D01*
X155122017Y-80744080D01*
X155128045Y-80741396D01*
X155272836Y-80636199D01*
X155392591Y-80503197D01*
X155482077Y-80348203D01*
X155537382Y-80177991D01*
X155556090Y-80000000D01*
X155843910Y-80000000D01*
X155862618Y-80177991D01*
X155917923Y-80348203D01*
X156007409Y-80503197D01*
X156127164Y-80636199D01*
X156271955Y-80741396D01*
X156277983Y-80744080D01*
X156277985Y-80744081D01*
X156429423Y-80811505D01*
X156435454Y-80814190D01*
X156522984Y-80832795D01*
X156604057Y-80850028D01*
X156604061Y-80850028D01*
X156610514Y-80851400D01*
X156789486Y-80851400D01*
X156795939Y-80850028D01*
X156795943Y-80850028D01*
X156877016Y-80832795D01*
X156964546Y-80814190D01*
X156970577Y-80811505D01*
X157122015Y-80744081D01*
X157122017Y-80744080D01*
X157128045Y-80741396D01*
X157272836Y-80636199D01*
X157392591Y-80503197D01*
X157482077Y-80348203D01*
X157537382Y-80177991D01*
X157556090Y-80000000D01*
X157843910Y-80000000D01*
X157862618Y-80177991D01*
X157917923Y-80348203D01*
X158007409Y-80503197D01*
X158127164Y-80636199D01*
X158271955Y-80741396D01*
X158277983Y-80744080D01*
X158277985Y-80744081D01*
X158429423Y-80811505D01*
X158435454Y-80814190D01*
X158522984Y-80832795D01*
X158604057Y-80850028D01*
X158604061Y-80850028D01*
X158610514Y-80851400D01*
X158789486Y-80851400D01*
X158795939Y-80850028D01*
X158795943Y-80850028D01*
X158877016Y-80832795D01*
X158964546Y-80814190D01*
X158970577Y-80811505D01*
X159122015Y-80744081D01*
X159122017Y-80744080D01*
X159128045Y-80741396D01*
X159272836Y-80636199D01*
X159392591Y-80503197D01*
X159482077Y-80348203D01*
X159537382Y-80177991D01*
X159556090Y-80000000D01*
X159843910Y-80000000D01*
X159862618Y-80177991D01*
X159917923Y-80348203D01*
X160007409Y-80503197D01*
X160127164Y-80636199D01*
X160271955Y-80741396D01*
X160277983Y-80744080D01*
X160277985Y-80744081D01*
X160429423Y-80811505D01*
X160435454Y-80814190D01*
X160522984Y-80832795D01*
X160604057Y-80850028D01*
X160604061Y-80850028D01*
X160610514Y-80851400D01*
X160789486Y-80851400D01*
X160795939Y-80850028D01*
X160795943Y-80850028D01*
X160877016Y-80832795D01*
X160964546Y-80814190D01*
X160970577Y-80811505D01*
X161122015Y-80744081D01*
X161122017Y-80744080D01*
X161128045Y-80741396D01*
X161272836Y-80636199D01*
X161392591Y-80503197D01*
X161482077Y-80348203D01*
X161537382Y-80177991D01*
X161556090Y-80000000D01*
X161537382Y-79822009D01*
X161482077Y-79651797D01*
X161392591Y-79496803D01*
X161272836Y-79363801D01*
X161128045Y-79258604D01*
X161122017Y-79255920D01*
X161122015Y-79255919D01*
X160970577Y-79188495D01*
X160970576Y-79188495D01*
X160964546Y-79185810D01*
X160877016Y-79167205D01*
X160795943Y-79149972D01*
X160795939Y-79149972D01*
X160789486Y-79148600D01*
X160610514Y-79148600D01*
X160604061Y-79149972D01*
X160604057Y-79149972D01*
X160522984Y-79167205D01*
X160435454Y-79185810D01*
X160429424Y-79188495D01*
X160429423Y-79188495D01*
X160277985Y-79255919D01*
X160277983Y-79255920D01*
X160271955Y-79258604D01*
X160127164Y-79363801D01*
X160007409Y-79496803D01*
X159917923Y-79651797D01*
X159862618Y-79822009D01*
X159843910Y-80000000D01*
X159556090Y-80000000D01*
X159537382Y-79822009D01*
X159482077Y-79651797D01*
X159392591Y-79496803D01*
X159272836Y-79363801D01*
X159128045Y-79258604D01*
X159122017Y-79255920D01*
X159122015Y-79255919D01*
X158970577Y-79188495D01*
X158970576Y-79188495D01*
X158964546Y-79185810D01*
X158877016Y-79167205D01*
X158795943Y-79149972D01*
X158795939Y-79149972D01*
X158789486Y-79148600D01*
X158610514Y-79148600D01*
X158604061Y-79149972D01*
X158604057Y-79149972D01*
X158522984Y-79167205D01*
X158435454Y-79185810D01*
X158429424Y-79188495D01*
X158429423Y-79188495D01*
X158277985Y-79255919D01*
X158277983Y-79255920D01*
X158271955Y-79258604D01*
X158127164Y-79363801D01*
X158007409Y-79496803D01*
X157917923Y-79651797D01*
X157862618Y-79822009D01*
X157843910Y-80000000D01*
X157556090Y-80000000D01*
X157537382Y-79822009D01*
X157482077Y-79651797D01*
X157392591Y-79496803D01*
X157272836Y-79363801D01*
X157128045Y-79258604D01*
X157122017Y-79255920D01*
X157122015Y-79255919D01*
X156970577Y-79188495D01*
X156970576Y-79188495D01*
X156964546Y-79185810D01*
X156877016Y-79167205D01*
X156795943Y-79149972D01*
X156795939Y-79149972D01*
X156789486Y-79148600D01*
X156610514Y-79148600D01*
X156604061Y-79149972D01*
X156604057Y-79149972D01*
X156522984Y-79167205D01*
X156435454Y-79185810D01*
X156429424Y-79188495D01*
X156429423Y-79188495D01*
X156277985Y-79255919D01*
X156277983Y-79255920D01*
X156271955Y-79258604D01*
X156127164Y-79363801D01*
X156007409Y-79496803D01*
X155917923Y-79651797D01*
X155862618Y-79822009D01*
X155843910Y-80000000D01*
X155556090Y-80000000D01*
X155537382Y-79822009D01*
X155482077Y-79651797D01*
X155392591Y-79496803D01*
X155272836Y-79363801D01*
X155128045Y-79258604D01*
X155122017Y-79255920D01*
X155122015Y-79255919D01*
X154970577Y-79188495D01*
X154970576Y-79188495D01*
X154964546Y-79185810D01*
X154877016Y-79167205D01*
X154795943Y-79149972D01*
X154795939Y-79149972D01*
X154789486Y-79148600D01*
X154610514Y-79148600D01*
X154604061Y-79149972D01*
X154604057Y-79149972D01*
X154522984Y-79167205D01*
X154435454Y-79185810D01*
X154429424Y-79188495D01*
X154429423Y-79188495D01*
X154277985Y-79255919D01*
X154277983Y-79255920D01*
X154271955Y-79258604D01*
X154127164Y-79363801D01*
X154007409Y-79496803D01*
X153917923Y-79651797D01*
X153862618Y-79822009D01*
X153843910Y-80000000D01*
X153556090Y-80000000D01*
X153537382Y-79822009D01*
X153482077Y-79651797D01*
X153392591Y-79496803D01*
X153272836Y-79363801D01*
X153128045Y-79258604D01*
X153122017Y-79255920D01*
X153122015Y-79255919D01*
X152970577Y-79188495D01*
X152970576Y-79188495D01*
X152964546Y-79185810D01*
X152877016Y-79167205D01*
X152795943Y-79149972D01*
X152795939Y-79149972D01*
X152789486Y-79148600D01*
X152610514Y-79148600D01*
X152604061Y-79149972D01*
X152604057Y-79149972D01*
X152522984Y-79167205D01*
X152435454Y-79185810D01*
X152429424Y-79188495D01*
X152429423Y-79188495D01*
X152277985Y-79255919D01*
X152277983Y-79255920D01*
X152271955Y-79258604D01*
X152127164Y-79363801D01*
X152007409Y-79496803D01*
X151917923Y-79651797D01*
X151862618Y-79822009D01*
X151843910Y-80000000D01*
X147955000Y-80000000D01*
X147955000Y-71000000D01*
X151843910Y-71000000D01*
X151862618Y-71177991D01*
X151917923Y-71348203D01*
X152007409Y-71503197D01*
X152127164Y-71636199D01*
X152271955Y-71741396D01*
X152277983Y-71744080D01*
X152277985Y-71744081D01*
X152429423Y-71811505D01*
X152435454Y-71814190D01*
X152522984Y-71832795D01*
X152604057Y-71850028D01*
X152604061Y-71850028D01*
X152610514Y-71851400D01*
X152789486Y-71851400D01*
X152795939Y-71850028D01*
X152795943Y-71850028D01*
X152877016Y-71832795D01*
X152964546Y-71814190D01*
X152970577Y-71811505D01*
X153122015Y-71744081D01*
X153122017Y-71744080D01*
X153128045Y-71741396D01*
X153272836Y-71636199D01*
X153392591Y-71503197D01*
X153482077Y-71348203D01*
X153537382Y-71177991D01*
X153556090Y-71000000D01*
X153843910Y-71000000D01*
X153862618Y-71177991D01*
X153917923Y-71348203D01*
X154007409Y-71503197D01*
X154127164Y-71636199D01*
X154271955Y-71741396D01*
X154277983Y-71744080D01*
X154277985Y-71744081D01*
X154429423Y-71811505D01*
X154435454Y-71814190D01*
X154522984Y-71832795D01*
X154604057Y-71850028D01*
X154604061Y-71850028D01*
X154610514Y-71851400D01*
X154789486Y-71851400D01*
X154795939Y-71850028D01*
X154795943Y-71850028D01*
X154877016Y-71832795D01*
X154964546Y-71814190D01*
X154970577Y-71811505D01*
X155122015Y-71744081D01*
X155122017Y-71744080D01*
X155128045Y-71741396D01*
X155272836Y-71636199D01*
X155392591Y-71503197D01*
X155482077Y-71348203D01*
X155537382Y-71177991D01*
X155556090Y-71000000D01*
X155843910Y-71000000D01*
X155862618Y-71177991D01*
X155917923Y-71348203D01*
X156007409Y-71503197D01*
X156127164Y-71636199D01*
X156271955Y-71741396D01*
X156277983Y-71744080D01*
X156277985Y-71744081D01*
X156429423Y-71811505D01*
X156435454Y-71814190D01*
X156522984Y-71832795D01*
X156604057Y-71850028D01*
X156604061Y-71850028D01*
X156610514Y-71851400D01*
X156789486Y-71851400D01*
X156795939Y-71850028D01*
X156795943Y-71850028D01*
X156877016Y-71832795D01*
X156964546Y-71814190D01*
X156970577Y-71811505D01*
X157122015Y-71744081D01*
X157122017Y-71744080D01*
X157128045Y-71741396D01*
X157272836Y-71636199D01*
X157392591Y-71503197D01*
X157482077Y-71348203D01*
X157537382Y-71177991D01*
X157556090Y-71000000D01*
X157843910Y-71000000D01*
X157862618Y-71177991D01*
X157917923Y-71348203D01*
X158007409Y-71503197D01*
X158127164Y-71636199D01*
X158271955Y-71741396D01*
X158277983Y-71744080D01*
X158277985Y-71744081D01*
X158429423Y-71811505D01*
X158435454Y-71814190D01*
X158522984Y-71832795D01*
X158604057Y-71850028D01*
X158604061Y-71850028D01*
X158610514Y-71851400D01*
X158789486Y-71851400D01*
X158795939Y-71850028D01*
X158795943Y-71850028D01*
X158877016Y-71832795D01*
X158964546Y-71814190D01*
X158970577Y-71811505D01*
X159122015Y-71744081D01*
X159122017Y-71744080D01*
X159128045Y-71741396D01*
X159272836Y-71636199D01*
X159392591Y-71503197D01*
X159482077Y-71348203D01*
X159537382Y-71177991D01*
X159556090Y-71000000D01*
X159843910Y-71000000D01*
X159862618Y-71177991D01*
X159917923Y-71348203D01*
X160007409Y-71503197D01*
X160127164Y-71636199D01*
X160271955Y-71741396D01*
X160277983Y-71744080D01*
X160277985Y-71744081D01*
X160429423Y-71811505D01*
X160435454Y-71814190D01*
X160522984Y-71832795D01*
X160604057Y-71850028D01*
X160604061Y-71850028D01*
X160610514Y-71851400D01*
X160789486Y-71851400D01*
X160795939Y-71850028D01*
X160795943Y-71850028D01*
X160877016Y-71832795D01*
X160964546Y-71814190D01*
X160970577Y-71811505D01*
X161122015Y-71744081D01*
X161122017Y-71744080D01*
X161128045Y-71741396D01*
X161272836Y-71636199D01*
X161392591Y-71503197D01*
X161482077Y-71348203D01*
X161537382Y-71177991D01*
X161556090Y-71000000D01*
X161537382Y-70822009D01*
X161482077Y-70651797D01*
X161392591Y-70496803D01*
X161272836Y-70363801D01*
X161128045Y-70258604D01*
X161122017Y-70255920D01*
X161122015Y-70255919D01*
X160970577Y-70188495D01*
X160970576Y-70188495D01*
X160964546Y-70185810D01*
X160877016Y-70167205D01*
X160795943Y-70149972D01*
X160795939Y-70149972D01*
X160789486Y-70148600D01*
X160610514Y-70148600D01*
X160604061Y-70149972D01*
X160604057Y-70149972D01*
X160522984Y-70167205D01*
X160435454Y-70185810D01*
X160429424Y-70188495D01*
X160429423Y-70188495D01*
X160277985Y-70255919D01*
X160277983Y-70255920D01*
X160271955Y-70258604D01*
X160127164Y-70363801D01*
X160007409Y-70496803D01*
X159917923Y-70651797D01*
X159862618Y-70822009D01*
X159843910Y-71000000D01*
X159556090Y-71000000D01*
X159537382Y-70822009D01*
X159482077Y-70651797D01*
X159392591Y-70496803D01*
X159272836Y-70363801D01*
X159128045Y-70258604D01*
X159122017Y-70255920D01*
X159122015Y-70255919D01*
X158970577Y-70188495D01*
X158970576Y-70188495D01*
X158964546Y-70185810D01*
X158877016Y-70167205D01*
X158795943Y-70149972D01*
X158795939Y-70149972D01*
X158789486Y-70148600D01*
X158610514Y-70148600D01*
X158604061Y-70149972D01*
X158604057Y-70149972D01*
X158522984Y-70167205D01*
X158435454Y-70185810D01*
X158429424Y-70188495D01*
X158429423Y-70188495D01*
X158277985Y-70255919D01*
X158277983Y-70255920D01*
X158271955Y-70258604D01*
X158127164Y-70363801D01*
X158007409Y-70496803D01*
X157917923Y-70651797D01*
X157862618Y-70822009D01*
X157843910Y-71000000D01*
X157556090Y-71000000D01*
X157537382Y-70822009D01*
X157482077Y-70651797D01*
X157392591Y-70496803D01*
X157272836Y-70363801D01*
X157128045Y-70258604D01*
X157122017Y-70255920D01*
X157122015Y-70255919D01*
X156970577Y-70188495D01*
X156970576Y-70188495D01*
X156964546Y-70185810D01*
X156877016Y-70167205D01*
X156795943Y-70149972D01*
X156795939Y-70149972D01*
X156789486Y-70148600D01*
X156610514Y-70148600D01*
X156604061Y-70149972D01*
X156604057Y-70149972D01*
X156522984Y-70167205D01*
X156435454Y-70185810D01*
X156429424Y-70188495D01*
X156429423Y-70188495D01*
X156277985Y-70255919D01*
X156277983Y-70255920D01*
X156271955Y-70258604D01*
X156127164Y-70363801D01*
X156007409Y-70496803D01*
X155917923Y-70651797D01*
X155862618Y-70822009D01*
X155843910Y-71000000D01*
X155556090Y-71000000D01*
X155537382Y-70822009D01*
X155482077Y-70651797D01*
X155392591Y-70496803D01*
X155272836Y-70363801D01*
X155128045Y-70258604D01*
X155122017Y-70255920D01*
X155122015Y-70255919D01*
X154970577Y-70188495D01*
X154970576Y-70188495D01*
X154964546Y-70185810D01*
X154877016Y-70167205D01*
X154795943Y-70149972D01*
X154795939Y-70149972D01*
X154789486Y-70148600D01*
X154610514Y-70148600D01*
X154604061Y-70149972D01*
X154604057Y-70149972D01*
X154522984Y-70167205D01*
X154435454Y-70185810D01*
X154429424Y-70188495D01*
X154429423Y-70188495D01*
X154277985Y-70255919D01*
X154277983Y-70255920D01*
X154271955Y-70258604D01*
X154127164Y-70363801D01*
X154007409Y-70496803D01*
X153917923Y-70651797D01*
X153862618Y-70822009D01*
X153843910Y-71000000D01*
X153556090Y-71000000D01*
X153537382Y-70822009D01*
X153482077Y-70651797D01*
X153392591Y-70496803D01*
X153272836Y-70363801D01*
X153128045Y-70258604D01*
X153122017Y-70255920D01*
X153122015Y-70255919D01*
X152970577Y-70188495D01*
X152970576Y-70188495D01*
X152964546Y-70185810D01*
X152877016Y-70167205D01*
X152795943Y-70149972D01*
X152795939Y-70149972D01*
X152789486Y-70148600D01*
X152610514Y-70148600D01*
X152604061Y-70149972D01*
X152604057Y-70149972D01*
X152522984Y-70167205D01*
X152435454Y-70185810D01*
X152429424Y-70188495D01*
X152429423Y-70188495D01*
X152277985Y-70255919D01*
X152277983Y-70255920D01*
X152271955Y-70258604D01*
X152127164Y-70363801D01*
X152007409Y-70496803D01*
X151917923Y-70651797D01*
X151862618Y-70822009D01*
X151843910Y-71000000D01*
X147955000Y-71000000D01*
X147955000Y-68584500D01*
X147975002Y-68516379D01*
X148028658Y-68469886D01*
X148081000Y-68458500D01*
X165355000Y-68458500D01*
X165423121Y-68478502D01*
G37*
%TD.AperFunction*%
%TD*%
M02*
