%TF.GenerationSoftware,KiCad,Pcbnew,(6.0.7)*%
%TF.CreationDate,2023-02-08T01:32:31-08:00*%
%TF.ProjectId,ESP_SoC,4553505f-536f-4432-9e6b-696361645f70,rev?*%
%TF.SameCoordinates,Original*%
%TF.FileFunction,Legend,Top*%
%TF.FilePolarity,Positive*%
%FSLAX46Y46*%
G04 Gerber Fmt 4.6, Leading zero omitted, Abs format (unit mm)*
G04 Created by KiCad (PCBNEW (6.0.7)) date 2023-02-08 01:32:31*
%MOMM*%
%LPD*%
G01*
G04 APERTURE LIST*
%ADD10C,0.125000*%
%ADD11C,0.150000*%
%ADD12C,0.120000*%
%ADD13C,0.127000*%
%ADD14C,0.200000*%
G04 APERTURE END LIST*
D10*
X112273809Y-94726190D02*
X112107142Y-94488095D01*
X111988095Y-94726190D02*
X111988095Y-94226190D01*
X112178571Y-94226190D01*
X112226190Y-94250000D01*
X112250000Y-94273809D01*
X112273809Y-94321428D01*
X112273809Y-94392857D01*
X112250000Y-94440476D01*
X112226190Y-94464285D01*
X112178571Y-94488095D01*
X111988095Y-94488095D01*
X112488095Y-94464285D02*
X112654761Y-94464285D01*
X112726190Y-94726190D02*
X112488095Y-94726190D01*
X112488095Y-94226190D01*
X112726190Y-94226190D01*
X112916666Y-94702380D02*
X112988095Y-94726190D01*
X113107142Y-94726190D01*
X113154761Y-94702380D01*
X113178571Y-94678571D01*
X113202380Y-94630952D01*
X113202380Y-94583333D01*
X113178571Y-94535714D01*
X113154761Y-94511904D01*
X113107142Y-94488095D01*
X113011904Y-94464285D01*
X112964285Y-94440476D01*
X112940476Y-94416666D01*
X112916666Y-94369047D01*
X112916666Y-94321428D01*
X112940476Y-94273809D01*
X112964285Y-94250000D01*
X113011904Y-94226190D01*
X113130952Y-94226190D01*
X113202380Y-94250000D01*
X113416666Y-94464285D02*
X113583333Y-94464285D01*
X113654761Y-94726190D02*
X113416666Y-94726190D01*
X113416666Y-94226190D01*
X113654761Y-94226190D01*
X113797619Y-94226190D02*
X114083333Y-94226190D01*
X113940476Y-94726190D02*
X113940476Y-94226190D01*
X108071428Y-94464285D02*
X108142857Y-94488095D01*
X108166666Y-94511904D01*
X108190476Y-94559523D01*
X108190476Y-94630952D01*
X108166666Y-94678571D01*
X108142857Y-94702380D01*
X108095238Y-94726190D01*
X107904761Y-94726190D01*
X107904761Y-94226190D01*
X108071428Y-94226190D01*
X108119047Y-94250000D01*
X108142857Y-94273809D01*
X108166666Y-94321428D01*
X108166666Y-94369047D01*
X108142857Y-94416666D01*
X108119047Y-94440476D01*
X108071428Y-94464285D01*
X107904761Y-94464285D01*
X108500000Y-94226190D02*
X108595238Y-94226190D01*
X108642857Y-94250000D01*
X108690476Y-94297619D01*
X108714285Y-94392857D01*
X108714285Y-94559523D01*
X108690476Y-94654761D01*
X108642857Y-94702380D01*
X108595238Y-94726190D01*
X108500000Y-94726190D01*
X108452380Y-94702380D01*
X108404761Y-94654761D01*
X108380952Y-94559523D01*
X108380952Y-94392857D01*
X108404761Y-94297619D01*
X108452380Y-94250000D01*
X108500000Y-94226190D01*
X109023809Y-94226190D02*
X109119047Y-94226190D01*
X109166666Y-94250000D01*
X109214285Y-94297619D01*
X109238095Y-94392857D01*
X109238095Y-94559523D01*
X109214285Y-94654761D01*
X109166666Y-94702380D01*
X109119047Y-94726190D01*
X109023809Y-94726190D01*
X108976190Y-94702380D01*
X108928571Y-94654761D01*
X108904761Y-94559523D01*
X108904761Y-94392857D01*
X108928571Y-94297619D01*
X108976190Y-94250000D01*
X109023809Y-94226190D01*
X109380952Y-94226190D02*
X109666666Y-94226190D01*
X109523809Y-94726190D02*
X109523809Y-94226190D01*
%TO.C,R2*%
X116826666Y-101526190D02*
X116660000Y-101288095D01*
X116540952Y-101526190D02*
X116540952Y-101026190D01*
X116731428Y-101026190D01*
X116779047Y-101050000D01*
X116802857Y-101073809D01*
X116826666Y-101121428D01*
X116826666Y-101192857D01*
X116802857Y-101240476D01*
X116779047Y-101264285D01*
X116731428Y-101288095D01*
X116540952Y-101288095D01*
X117017142Y-101073809D02*
X117040952Y-101050000D01*
X117088571Y-101026190D01*
X117207619Y-101026190D01*
X117255238Y-101050000D01*
X117279047Y-101073809D01*
X117302857Y-101121428D01*
X117302857Y-101169047D01*
X117279047Y-101240476D01*
X116993333Y-101526190D01*
X117302857Y-101526190D01*
%TO.C,C2*%
X119428571Y-93083333D02*
X119452380Y-93107142D01*
X119476190Y-93178571D01*
X119476190Y-93226190D01*
X119452380Y-93297619D01*
X119404761Y-93345238D01*
X119357142Y-93369047D01*
X119261904Y-93392857D01*
X119190476Y-93392857D01*
X119095238Y-93369047D01*
X119047619Y-93345238D01*
X119000000Y-93297619D01*
X118976190Y-93226190D01*
X118976190Y-93178571D01*
X119000000Y-93107142D01*
X119023809Y-93083333D01*
X119023809Y-92892857D02*
X119000000Y-92869047D01*
X118976190Y-92821428D01*
X118976190Y-92702380D01*
X119000000Y-92654761D01*
X119023809Y-92630952D01*
X119071428Y-92607142D01*
X119119047Y-92607142D01*
X119190476Y-92630952D01*
X119476190Y-92916666D01*
X119476190Y-92607142D01*
%TO.C,R4*%
X125416666Y-104726190D02*
X125250000Y-104488095D01*
X125130952Y-104726190D02*
X125130952Y-104226190D01*
X125321428Y-104226190D01*
X125369047Y-104250000D01*
X125392857Y-104273809D01*
X125416666Y-104321428D01*
X125416666Y-104392857D01*
X125392857Y-104440476D01*
X125369047Y-104464285D01*
X125321428Y-104488095D01*
X125130952Y-104488095D01*
X125845238Y-104392857D02*
X125845238Y-104726190D01*
X125726190Y-104202380D02*
X125607142Y-104559523D01*
X125916666Y-104559523D01*
D11*
%TO.C,*%
D10*
%TO.C,L2*%
X118916666Y-98326190D02*
X118678571Y-98326190D01*
X118678571Y-97826190D01*
X119059523Y-97873809D02*
X119083333Y-97850000D01*
X119130952Y-97826190D01*
X119250000Y-97826190D01*
X119297619Y-97850000D01*
X119321428Y-97873809D01*
X119345238Y-97921428D01*
X119345238Y-97969047D01*
X119321428Y-98040476D01*
X119035714Y-98326190D01*
X119345238Y-98326190D01*
%TO.C,C7*%
X117178571Y-104458333D02*
X117202380Y-104482142D01*
X117226190Y-104553571D01*
X117226190Y-104601190D01*
X117202380Y-104672619D01*
X117154761Y-104720238D01*
X117107142Y-104744047D01*
X117011904Y-104767857D01*
X116940476Y-104767857D01*
X116845238Y-104744047D01*
X116797619Y-104720238D01*
X116750000Y-104672619D01*
X116726190Y-104601190D01*
X116726190Y-104553571D01*
X116750000Y-104482142D01*
X116773809Y-104458333D01*
X116726190Y-104291666D02*
X116726190Y-103958333D01*
X117226190Y-104172619D01*
%TO.C,R3*%
X125416666Y-105726190D02*
X125250000Y-105488095D01*
X125130952Y-105726190D02*
X125130952Y-105226190D01*
X125321428Y-105226190D01*
X125369047Y-105250000D01*
X125392857Y-105273809D01*
X125416666Y-105321428D01*
X125416666Y-105392857D01*
X125392857Y-105440476D01*
X125369047Y-105464285D01*
X125321428Y-105488095D01*
X125130952Y-105488095D01*
X125583333Y-105226190D02*
X125892857Y-105226190D01*
X125726190Y-105416666D01*
X125797619Y-105416666D01*
X125845238Y-105440476D01*
X125869047Y-105464285D01*
X125892857Y-105511904D01*
X125892857Y-105630952D01*
X125869047Y-105678571D01*
X125845238Y-105702380D01*
X125797619Y-105726190D01*
X125654761Y-105726190D01*
X125607142Y-105702380D01*
X125583333Y-105678571D01*
%TO.C,C9*%
X126178571Y-94583333D02*
X126202380Y-94607142D01*
X126226190Y-94678571D01*
X126226190Y-94726190D01*
X126202380Y-94797619D01*
X126154761Y-94845238D01*
X126107142Y-94869047D01*
X126011904Y-94892857D01*
X125940476Y-94892857D01*
X125845238Y-94869047D01*
X125797619Y-94845238D01*
X125750000Y-94797619D01*
X125726190Y-94726190D01*
X125726190Y-94678571D01*
X125750000Y-94607142D01*
X125773809Y-94583333D01*
X126226190Y-94345238D02*
X126226190Y-94250000D01*
X126202380Y-94202380D01*
X126178571Y-94178571D01*
X126107142Y-94130952D01*
X126011904Y-94107142D01*
X125821428Y-94107142D01*
X125773809Y-94130952D01*
X125750000Y-94154761D01*
X125726190Y-94202380D01*
X125726190Y-94297619D01*
X125750000Y-94345238D01*
X125773809Y-94369047D01*
X125821428Y-94392857D01*
X125940476Y-94392857D01*
X125988095Y-94369047D01*
X126011904Y-94345238D01*
X126035714Y-94297619D01*
X126035714Y-94202380D01*
X126011904Y-94154761D01*
X125988095Y-94130952D01*
X125940476Y-94107142D01*
%TO.C,C13*%
X113928571Y-105571428D02*
X113952380Y-105595238D01*
X113976190Y-105666666D01*
X113976190Y-105714285D01*
X113952380Y-105785714D01*
X113904761Y-105833333D01*
X113857142Y-105857142D01*
X113761904Y-105880952D01*
X113690476Y-105880952D01*
X113595238Y-105857142D01*
X113547619Y-105833333D01*
X113500000Y-105785714D01*
X113476190Y-105714285D01*
X113476190Y-105666666D01*
X113500000Y-105595238D01*
X113523809Y-105571428D01*
X113976190Y-105095238D02*
X113976190Y-105380952D01*
X113976190Y-105238095D02*
X113476190Y-105238095D01*
X113547619Y-105285714D01*
X113595238Y-105333333D01*
X113619047Y-105380952D01*
X113476190Y-104928571D02*
X113476190Y-104619047D01*
X113666666Y-104785714D01*
X113666666Y-104714285D01*
X113690476Y-104666666D01*
X113714285Y-104642857D01*
X113761904Y-104619047D01*
X113880952Y-104619047D01*
X113928571Y-104642857D01*
X113952380Y-104666666D01*
X113976190Y-104714285D01*
X113976190Y-104857142D01*
X113952380Y-104904761D01*
X113928571Y-104928571D01*
%TO.C,C3*%
X117317343Y-93435194D02*
X117317343Y-93468866D01*
X117283671Y-93536209D01*
X117250000Y-93569881D01*
X117182656Y-93603553D01*
X117115312Y-93603553D01*
X117064805Y-93586717D01*
X116980625Y-93536209D01*
X116930118Y-93485702D01*
X116879610Y-93401522D01*
X116862774Y-93351015D01*
X116862774Y-93283671D01*
X116896446Y-93216328D01*
X116930118Y-93182656D01*
X116997461Y-93148984D01*
X117031133Y-93148984D01*
X117115312Y-92997461D02*
X117334179Y-92778595D01*
X117351015Y-93031133D01*
X117401522Y-92980625D01*
X117452030Y-92963790D01*
X117485702Y-92963790D01*
X117536209Y-92980625D01*
X117620389Y-93064805D01*
X117637225Y-93115312D01*
X117637225Y-93148984D01*
X117620389Y-93199492D01*
X117519374Y-93300507D01*
X117468866Y-93317343D01*
X117435194Y-93317343D01*
%TO.C,C15*%
X126178571Y-92821428D02*
X126202380Y-92845238D01*
X126226190Y-92916666D01*
X126226190Y-92964285D01*
X126202380Y-93035714D01*
X126154761Y-93083333D01*
X126107142Y-93107142D01*
X126011904Y-93130952D01*
X125940476Y-93130952D01*
X125845238Y-93107142D01*
X125797619Y-93083333D01*
X125750000Y-93035714D01*
X125726190Y-92964285D01*
X125726190Y-92916666D01*
X125750000Y-92845238D01*
X125773809Y-92821428D01*
X126226190Y-92345238D02*
X126226190Y-92630952D01*
X126226190Y-92488095D02*
X125726190Y-92488095D01*
X125797619Y-92535714D01*
X125845238Y-92583333D01*
X125869047Y-92630952D01*
X125726190Y-91892857D02*
X125726190Y-92130952D01*
X125964285Y-92154761D01*
X125940476Y-92130952D01*
X125916666Y-92083333D01*
X125916666Y-91964285D01*
X125940476Y-91916666D01*
X125964285Y-91892857D01*
X126011904Y-91869047D01*
X126130952Y-91869047D01*
X126178571Y-91892857D01*
X126202380Y-91916666D01*
X126226190Y-91964285D01*
X126226190Y-92083333D01*
X126202380Y-92130952D01*
X126178571Y-92154761D01*
%TO.C,L1*%
X118678330Y-94391551D02*
X118509971Y-94559910D01*
X118156418Y-94206356D01*
X118981376Y-94088505D02*
X118779345Y-94290536D01*
X118880360Y-94189520D02*
X118526807Y-93835967D01*
X118543643Y-93920146D01*
X118543643Y-93987490D01*
X118526807Y-94037997D01*
%TO.C,R5*%
X129726190Y-97183333D02*
X129488095Y-97350000D01*
X129726190Y-97469047D02*
X129226190Y-97469047D01*
X129226190Y-97278571D01*
X129250000Y-97230952D01*
X129273809Y-97207142D01*
X129321428Y-97183333D01*
X129392857Y-97183333D01*
X129440476Y-97207142D01*
X129464285Y-97230952D01*
X129488095Y-97278571D01*
X129488095Y-97469047D01*
X129226190Y-96730952D02*
X129226190Y-96969047D01*
X129464285Y-96992857D01*
X129440476Y-96969047D01*
X129416666Y-96921428D01*
X129416666Y-96802380D01*
X129440476Y-96754761D01*
X129464285Y-96730952D01*
X129511904Y-96707142D01*
X129630952Y-96707142D01*
X129678571Y-96730952D01*
X129702380Y-96754761D01*
X129726190Y-96802380D01*
X129726190Y-96921428D01*
X129702380Y-96969047D01*
X129678571Y-96992857D01*
%TO.C,C8*%
X115428571Y-105308333D02*
X115452380Y-105332142D01*
X115476190Y-105403571D01*
X115476190Y-105451190D01*
X115452380Y-105522619D01*
X115404761Y-105570238D01*
X115357142Y-105594047D01*
X115261904Y-105617857D01*
X115190476Y-105617857D01*
X115095238Y-105594047D01*
X115047619Y-105570238D01*
X115000000Y-105522619D01*
X114976190Y-105451190D01*
X114976190Y-105403571D01*
X115000000Y-105332142D01*
X115023809Y-105308333D01*
X115190476Y-105022619D02*
X115166666Y-105070238D01*
X115142857Y-105094047D01*
X115095238Y-105117857D01*
X115071428Y-105117857D01*
X115023809Y-105094047D01*
X115000000Y-105070238D01*
X114976190Y-105022619D01*
X114976190Y-104927380D01*
X115000000Y-104879761D01*
X115023809Y-104855952D01*
X115071428Y-104832142D01*
X115095238Y-104832142D01*
X115142857Y-104855952D01*
X115166666Y-104879761D01*
X115190476Y-104927380D01*
X115190476Y-105022619D01*
X115214285Y-105070238D01*
X115238095Y-105094047D01*
X115285714Y-105117857D01*
X115380952Y-105117857D01*
X115428571Y-105094047D01*
X115452380Y-105070238D01*
X115476190Y-105022619D01*
X115476190Y-104927380D01*
X115452380Y-104879761D01*
X115428571Y-104855952D01*
X115380952Y-104832142D01*
X115285714Y-104832142D01*
X115238095Y-104855952D01*
X115214285Y-104879761D01*
X115190476Y-104927380D01*
%TO.C,C6*%
X115478571Y-99083333D02*
X115502380Y-99107142D01*
X115526190Y-99178571D01*
X115526190Y-99226190D01*
X115502380Y-99297619D01*
X115454761Y-99345238D01*
X115407142Y-99369047D01*
X115311904Y-99392857D01*
X115240476Y-99392857D01*
X115145238Y-99369047D01*
X115097619Y-99345238D01*
X115050000Y-99297619D01*
X115026190Y-99226190D01*
X115026190Y-99178571D01*
X115050000Y-99107142D01*
X115073809Y-99083333D01*
X115026190Y-98654761D02*
X115026190Y-98750000D01*
X115050000Y-98797619D01*
X115073809Y-98821428D01*
X115145238Y-98869047D01*
X115240476Y-98892857D01*
X115430952Y-98892857D01*
X115478571Y-98869047D01*
X115502380Y-98845238D01*
X115526190Y-98797619D01*
X115526190Y-98702380D01*
X115502380Y-98654761D01*
X115478571Y-98630952D01*
X115430952Y-98607142D01*
X115311904Y-98607142D01*
X115264285Y-98630952D01*
X115240476Y-98654761D01*
X115216666Y-98702380D01*
X115216666Y-98797619D01*
X115240476Y-98845238D01*
X115264285Y-98869047D01*
X115311904Y-98892857D01*
%TO.C,D1*%
X107130952Y-102026190D02*
X107130952Y-101526190D01*
X107250000Y-101526190D01*
X107321428Y-101550000D01*
X107369047Y-101597619D01*
X107392857Y-101645238D01*
X107416666Y-101740476D01*
X107416666Y-101811904D01*
X107392857Y-101907142D01*
X107369047Y-101954761D01*
X107321428Y-102002380D01*
X107250000Y-102026190D01*
X107130952Y-102026190D01*
X107892857Y-102026190D02*
X107607142Y-102026190D01*
X107750000Y-102026190D02*
X107750000Y-101526190D01*
X107702380Y-101597619D01*
X107654761Y-101645238D01*
X107607142Y-101669047D01*
%TO.C,C10*%
X122828571Y-105213592D02*
X122852380Y-105237402D01*
X122876190Y-105308830D01*
X122876190Y-105356449D01*
X122852380Y-105427878D01*
X122804761Y-105475497D01*
X122757142Y-105499306D01*
X122661904Y-105523116D01*
X122590476Y-105523116D01*
X122495238Y-105499306D01*
X122447619Y-105475497D01*
X122400000Y-105427878D01*
X122376190Y-105356449D01*
X122376190Y-105308830D01*
X122400000Y-105237402D01*
X122423809Y-105213592D01*
X122876190Y-104737402D02*
X122876190Y-105023116D01*
X122876190Y-104880259D02*
X122376190Y-104880259D01*
X122447619Y-104927878D01*
X122495238Y-104975497D01*
X122519047Y-105023116D01*
X122376190Y-104427878D02*
X122376190Y-104380259D01*
X122400000Y-104332640D01*
X122423809Y-104308830D01*
X122471428Y-104285021D01*
X122566666Y-104261211D01*
X122685714Y-104261211D01*
X122780952Y-104285021D01*
X122828571Y-104308830D01*
X122852380Y-104332640D01*
X122876190Y-104380259D01*
X122876190Y-104427878D01*
X122852380Y-104475497D01*
X122828571Y-104499306D01*
X122780952Y-104523116D01*
X122685714Y-104546925D01*
X122566666Y-104546925D01*
X122471428Y-104523116D01*
X122423809Y-104499306D01*
X122400000Y-104475497D01*
X122376190Y-104427878D01*
%TO.C,C5*%
X115478571Y-98083333D02*
X115502380Y-98107142D01*
X115526190Y-98178571D01*
X115526190Y-98226190D01*
X115502380Y-98297619D01*
X115454761Y-98345238D01*
X115407142Y-98369047D01*
X115311904Y-98392857D01*
X115240476Y-98392857D01*
X115145238Y-98369047D01*
X115097619Y-98345238D01*
X115050000Y-98297619D01*
X115026190Y-98226190D01*
X115026190Y-98178571D01*
X115050000Y-98107142D01*
X115073809Y-98083333D01*
X115026190Y-97630952D02*
X115026190Y-97869047D01*
X115264285Y-97892857D01*
X115240476Y-97869047D01*
X115216666Y-97821428D01*
X115216666Y-97702380D01*
X115240476Y-97654761D01*
X115264285Y-97630952D01*
X115311904Y-97607142D01*
X115430952Y-97607142D01*
X115478571Y-97630952D01*
X115502380Y-97654761D01*
X115526190Y-97702380D01*
X115526190Y-97821428D01*
X115502380Y-97869047D01*
X115478571Y-97892857D01*
%TO.C,C11*%
X116328571Y-100278571D02*
X116304761Y-100302380D01*
X116233333Y-100326190D01*
X116185714Y-100326190D01*
X116114285Y-100302380D01*
X116066666Y-100254761D01*
X116042857Y-100207142D01*
X116019047Y-100111904D01*
X116019047Y-100040476D01*
X116042857Y-99945238D01*
X116066666Y-99897619D01*
X116114285Y-99850000D01*
X116185714Y-99826190D01*
X116233333Y-99826190D01*
X116304761Y-99850000D01*
X116328571Y-99873809D01*
X116804761Y-100326190D02*
X116519047Y-100326190D01*
X116661904Y-100326190D02*
X116661904Y-99826190D01*
X116614285Y-99897619D01*
X116566666Y-99945238D01*
X116519047Y-99969047D01*
X117280952Y-100326190D02*
X116995238Y-100326190D01*
X117138095Y-100326190D02*
X117138095Y-99826190D01*
X117090476Y-99897619D01*
X117042857Y-99945238D01*
X116995238Y-99969047D01*
%TO.C,C14*%
X119478571Y-92178571D02*
X119454761Y-92202380D01*
X119383333Y-92226190D01*
X119335714Y-92226190D01*
X119264285Y-92202380D01*
X119216666Y-92154761D01*
X119192857Y-92107142D01*
X119169047Y-92011904D01*
X119169047Y-91940476D01*
X119192857Y-91845238D01*
X119216666Y-91797619D01*
X119264285Y-91750000D01*
X119335714Y-91726190D01*
X119383333Y-91726190D01*
X119454761Y-91750000D01*
X119478571Y-91773809D01*
X119954761Y-92226190D02*
X119669047Y-92226190D01*
X119811904Y-92226190D02*
X119811904Y-91726190D01*
X119764285Y-91797619D01*
X119716666Y-91845238D01*
X119669047Y-91869047D01*
X120383333Y-91892857D02*
X120383333Y-92226190D01*
X120264285Y-91702380D02*
X120145238Y-92059523D01*
X120454761Y-92059523D01*
%TO.C,C1*%
X120178571Y-93083333D02*
X120202380Y-93107142D01*
X120226190Y-93178571D01*
X120226190Y-93226190D01*
X120202380Y-93297619D01*
X120154761Y-93345238D01*
X120107142Y-93369047D01*
X120011904Y-93392857D01*
X119940476Y-93392857D01*
X119845238Y-93369047D01*
X119797619Y-93345238D01*
X119750000Y-93297619D01*
X119726190Y-93226190D01*
X119726190Y-93178571D01*
X119750000Y-93107142D01*
X119773809Y-93083333D01*
X120226190Y-92607142D02*
X120226190Y-92892857D01*
X120226190Y-92750000D02*
X119726190Y-92750000D01*
X119797619Y-92797619D01*
X119845238Y-92845238D01*
X119869047Y-92892857D01*
%TO.C,R6*%
X129726190Y-102383333D02*
X129488095Y-102550000D01*
X129726190Y-102669047D02*
X129226190Y-102669047D01*
X129226190Y-102478571D01*
X129250000Y-102430952D01*
X129273809Y-102407142D01*
X129321428Y-102383333D01*
X129392857Y-102383333D01*
X129440476Y-102407142D01*
X129464285Y-102430952D01*
X129488095Y-102478571D01*
X129488095Y-102669047D01*
X129226190Y-101954761D02*
X129226190Y-102050000D01*
X129250000Y-102097619D01*
X129273809Y-102121428D01*
X129345238Y-102169047D01*
X129440476Y-102192857D01*
X129630952Y-102192857D01*
X129678571Y-102169047D01*
X129702380Y-102145238D01*
X129726190Y-102097619D01*
X129726190Y-102002380D01*
X129702380Y-101954761D01*
X129678571Y-101930952D01*
X129630952Y-101907142D01*
X129511904Y-101907142D01*
X129464285Y-101930952D01*
X129440476Y-101954761D01*
X129416666Y-102002380D01*
X129416666Y-102097619D01*
X129440476Y-102145238D01*
X129464285Y-102169047D01*
X129511904Y-102192857D01*
%TO.C,R1*%
X123916666Y-94976190D02*
X123750000Y-94738095D01*
X123630952Y-94976190D02*
X123630952Y-94476190D01*
X123821428Y-94476190D01*
X123869047Y-94500000D01*
X123892857Y-94523809D01*
X123916666Y-94571428D01*
X123916666Y-94642857D01*
X123892857Y-94690476D01*
X123869047Y-94714285D01*
X123821428Y-94738095D01*
X123630952Y-94738095D01*
X124392857Y-94976190D02*
X124107142Y-94976190D01*
X124250000Y-94976190D02*
X124250000Y-94476190D01*
X124202380Y-94547619D01*
X124154761Y-94595238D01*
X124107142Y-94619047D01*
%TO.C,C4*%
X117317343Y-96435194D02*
X117317343Y-96468866D01*
X117283671Y-96536209D01*
X117250000Y-96569881D01*
X117182656Y-96603553D01*
X117115312Y-96603553D01*
X117064805Y-96586717D01*
X116980625Y-96536209D01*
X116930118Y-96485702D01*
X116879610Y-96401522D01*
X116862774Y-96351015D01*
X116862774Y-96283671D01*
X116896446Y-96216328D01*
X116930118Y-96182656D01*
X116997461Y-96148984D01*
X117031133Y-96148984D01*
X117418358Y-95930118D02*
X117654061Y-96165820D01*
X117199492Y-95879610D02*
X117367851Y-96216328D01*
X117586717Y-95997461D01*
%TO.C,C12*%
X110878571Y-101778571D02*
X110854761Y-101802380D01*
X110783333Y-101826190D01*
X110735714Y-101826190D01*
X110664285Y-101802380D01*
X110616666Y-101754761D01*
X110592857Y-101707142D01*
X110569047Y-101611904D01*
X110569047Y-101540476D01*
X110592857Y-101445238D01*
X110616666Y-101397619D01*
X110664285Y-101350000D01*
X110735714Y-101326190D01*
X110783333Y-101326190D01*
X110854761Y-101350000D01*
X110878571Y-101373809D01*
X111354761Y-101826190D02*
X111069047Y-101826190D01*
X111211904Y-101826190D02*
X111211904Y-101326190D01*
X111164285Y-101397619D01*
X111116666Y-101445238D01*
X111069047Y-101469047D01*
X111545238Y-101373809D02*
X111569047Y-101350000D01*
X111616666Y-101326190D01*
X111735714Y-101326190D01*
X111783333Y-101350000D01*
X111807142Y-101373809D01*
X111830952Y-101421428D01*
X111830952Y-101469047D01*
X111807142Y-101540476D01*
X111521428Y-101826190D01*
X111830952Y-101826190D01*
D12*
%TO.C,R2*%
X118246359Y-100920000D02*
X118553641Y-100920000D01*
X118246359Y-101680000D02*
X118553641Y-101680000D01*
%TO.C,J1*%
X102770000Y-103150000D02*
X103525000Y-103150000D01*
X102770000Y-103150000D02*
X102770000Y-94350000D01*
X99600000Y-104895000D02*
X98550000Y-104895000D01*
X99600000Y-92605000D02*
X98550000Y-92605000D01*
%TO.C,C2*%
X119640000Y-94607836D02*
X119640000Y-94392164D01*
X120360000Y-94607836D02*
X120360000Y-94392164D01*
%TO.C,R4*%
X126846359Y-104880000D02*
X127153641Y-104880000D01*
X126846359Y-104120000D02*
X127153641Y-104120000D01*
%TO.C,C7*%
X116640000Y-102792164D02*
X116640000Y-103007836D01*
X117360000Y-102792164D02*
X117360000Y-103007836D01*
%TO.C,R3*%
X126846359Y-105880000D02*
X127153641Y-105880000D01*
X126846359Y-105120000D02*
X127153641Y-105120000D01*
%TO.C,C9*%
X125360000Y-94607836D02*
X125360000Y-94392164D01*
X124640000Y-94607836D02*
X124640000Y-94392164D01*
%TO.C,C13*%
X114110000Y-103392164D02*
X114110000Y-103607836D01*
X113390000Y-103392164D02*
X113390000Y-103607836D01*
%TO.C,C3*%
X116580810Y-94428307D02*
X116428307Y-94580810D01*
X116071693Y-93919190D02*
X115919190Y-94071693D01*
%TO.C,C15*%
X124640000Y-92392164D02*
X124640000Y-92607836D01*
X125360000Y-92392164D02*
X125360000Y-92607836D01*
D13*
%TO.C,AE1*%
X114850000Y-93840000D02*
X111650000Y-93840000D01*
X114850000Y-91660000D02*
X111650000Y-91660000D01*
D14*
X116050000Y-92750000D02*
G75*
G03*
X116050000Y-92750000I-100000J0D01*
G01*
D12*
%TO.C,R5*%
X130680000Y-97253641D02*
X130680000Y-96946359D01*
X129920000Y-97253641D02*
X129920000Y-96946359D01*
%TO.C,C8*%
X114740000Y-103109420D02*
X114740000Y-103390580D01*
X115760000Y-103109420D02*
X115760000Y-103390580D01*
%TO.C,C6*%
X116707836Y-99360000D02*
X116492164Y-99360000D01*
X116707836Y-98640000D02*
X116492164Y-98640000D01*
%TO.C,SW2*%
X110330000Y-99950000D02*
X110450000Y-99950000D01*
X107170000Y-95550000D02*
X107050000Y-95550000D01*
X110450000Y-95550000D02*
X110330000Y-95550000D01*
X110450000Y-99950000D02*
X110450000Y-95550000D01*
X107050000Y-95550000D02*
X107050000Y-99950000D01*
X107050000Y-99950000D02*
X107170000Y-99950000D01*
X108180000Y-99950000D02*
X109320000Y-99950000D01*
X109320000Y-95550000D02*
X108180000Y-95550000D01*
%TO.C,SW1*%
X111300000Y-95550000D02*
X111300000Y-99950000D01*
X113570000Y-95550000D02*
X112430000Y-95550000D01*
X112430000Y-99950000D02*
X113570000Y-99950000D01*
X111420000Y-95550000D02*
X111300000Y-95550000D01*
X114700000Y-99950000D02*
X114700000Y-95550000D01*
X114700000Y-95550000D02*
X114580000Y-95550000D01*
X114580000Y-99950000D02*
X114700000Y-99950000D01*
X111300000Y-99950000D02*
X111420000Y-99950000D01*
%TO.C,D1*%
X106650000Y-105300000D02*
X108350000Y-105300000D01*
X106650000Y-105300000D02*
X106650000Y-102750000D01*
X108350000Y-105300000D02*
X108350000Y-102750000D01*
%TO.C,C10*%
X123760000Y-104892164D02*
X123760000Y-105107836D01*
X123040000Y-104892164D02*
X123040000Y-105107836D01*
%TO.C,C5*%
X116707836Y-97640000D02*
X116492164Y-97640000D01*
X116707836Y-98360000D02*
X116492164Y-98360000D01*
%TO.C,U1*%
X111000000Y-105560000D02*
X111800000Y-105560000D01*
X111000000Y-105560000D02*
X110200000Y-105560000D01*
X111000000Y-102440000D02*
X109200000Y-102440000D01*
X111000000Y-102440000D02*
X111800000Y-102440000D01*
%TO.C,C11*%
X118507836Y-99740000D02*
X118292164Y-99740000D01*
X118507836Y-100460000D02*
X118292164Y-100460000D01*
%TO.C,C14*%
X121360000Y-92587836D02*
X121360000Y-92372164D01*
X120640000Y-92587836D02*
X120640000Y-92372164D01*
%TO.C,C1*%
X120640000Y-94607836D02*
X120640000Y-94392164D01*
X121360000Y-94607836D02*
X121360000Y-94392164D01*
%TO.C,R6*%
X130680000Y-102146359D02*
X130680000Y-102453641D01*
X129920000Y-102146359D02*
X129920000Y-102453641D01*
%TO.C,R1*%
X122346359Y-94370000D02*
X122653641Y-94370000D01*
X122346359Y-95130000D02*
X122653641Y-95130000D01*
%TO.C,C4*%
X118830810Y-96678307D02*
X118678307Y-96830810D01*
X118321693Y-96169190D02*
X118169190Y-96321693D01*
D13*
%TO.C,U2*%
X127500000Y-103250000D02*
X127500000Y-102780000D01*
X127500000Y-96250000D02*
X127500000Y-96720000D01*
X120500000Y-96250000D02*
X120970000Y-96250000D01*
X120500000Y-96250000D02*
X120500000Y-96720000D01*
X120500000Y-103250000D02*
X120970000Y-103250000D01*
X120500000Y-103250000D02*
X120500000Y-102780000D01*
X127500000Y-103250000D02*
X127030000Y-103250000D01*
X127500000Y-96250000D02*
X127030000Y-96250000D01*
D14*
X119645000Y-97150000D02*
G75*
G03*
X119645000Y-97150000I-100000J0D01*
G01*
D12*
%TO.C,Y1*%
X121650000Y-93900000D02*
X124350000Y-93900000D01*
X121650000Y-91600000D02*
X121650000Y-93900000D01*
%TO.C,C12*%
X109507836Y-101960000D02*
X109292164Y-101960000D01*
X109507836Y-101240000D02*
X109292164Y-101240000D01*
%TD*%
M02*
