%TF.GenerationSoftware,KiCad,Pcbnew,(6.0.7)*%
%TF.CreationDate,2023-02-08T01:32:31-08:00*%
%TF.ProjectId,ESP_SoC,4553505f-536f-4432-9e6b-696361645f70,rev?*%
%TF.SameCoordinates,Original*%
%TF.FileFunction,Copper,L3,Inr*%
%TF.FilePolarity,Positive*%
%FSLAX46Y46*%
G04 Gerber Fmt 4.6, Leading zero omitted, Abs format (unit mm)*
G04 Created by KiCad (PCBNEW (6.0.7)) date 2023-02-08 01:32:31*
%MOMM*%
%LPD*%
G01*
G04 APERTURE LIST*
%TA.AperFunction,ComponentPad*%
%ADD10O,3.500000X1.900000*%
%TD*%
%TA.AperFunction,ViaPad*%
%ADD11C,0.685800*%
%TD*%
%TA.AperFunction,ViaPad*%
%ADD12C,0.889000*%
%TD*%
%TA.AperFunction,Conductor*%
%ADD13C,0.508000*%
%TD*%
%TA.AperFunction,Conductor*%
%ADD14C,0.254000*%
%TD*%
%TA.AperFunction,Conductor*%
%ADD15C,0.762000*%
%TD*%
G04 APERTURE END LIST*
D10*
%TO.N,GND*%
%TO.C,J1*%
X101650000Y-104450000D03*
X101650000Y-93050000D03*
%TD*%
D11*
%TO.N,+3V3*%
X125800000Y-95000000D03*
X116100000Y-102500000D03*
X116400000Y-99900000D03*
X119337156Y-94518432D03*
X122600000Y-104500000D03*
X119000000Y-98900000D03*
X114295000Y-102475000D03*
X120600000Y-95700000D03*
X117100000Y-101226500D03*
%TO.N,GND*%
X117700000Y-92800000D03*
X106800000Y-92700000D03*
X117178019Y-100133500D03*
X104700000Y-104500000D03*
D12*
X122750000Y-98500000D03*
D11*
X111000000Y-104000000D03*
X130400000Y-94500000D03*
X127400000Y-94500000D03*
X106800000Y-91800000D03*
X112800000Y-94500000D03*
D12*
X124000000Y-99750000D03*
D11*
X106800000Y-93600000D03*
X107800000Y-94500000D03*
D12*
X122750000Y-101000000D03*
D11*
X107700000Y-101100000D03*
X117400000Y-96100000D03*
X130400000Y-92300000D03*
X127400000Y-92300000D03*
X113000000Y-97800000D03*
X115300000Y-99900000D03*
D12*
X124000000Y-98500000D03*
D11*
X113800000Y-94500000D03*
X117000000Y-92100000D03*
X109800000Y-94500000D03*
X114800000Y-94500000D03*
X118700000Y-102800000D03*
D12*
X124000000Y-101000000D03*
D11*
X118800000Y-97400000D03*
X108800000Y-94500000D03*
D12*
X125250000Y-98500000D03*
D11*
X106800000Y-94500000D03*
D12*
X122750000Y-99750000D03*
X125250000Y-101000000D03*
D11*
X111800000Y-94500000D03*
X129000000Y-98900000D03*
X118400000Y-93500000D03*
D12*
X125250000Y-99750000D03*
D11*
X108800000Y-97800000D03*
X113000000Y-101100000D03*
X116700000Y-95400000D03*
X129000000Y-96700000D03*
X110800000Y-94500000D03*
X130700000Y-103800000D03*
%TO.N,+5V*%
X108400000Y-103400000D03*
X131800000Y-97300000D03*
X106400000Y-105000000D03*
X131900000Y-100500000D03*
X108400000Y-104400000D03*
%TO.N,USB_D-*%
X106400000Y-99800000D03*
X129600000Y-104200000D03*
%TO.N,USB_D+*%
X128200000Y-103400000D03*
X106400000Y-97800000D03*
%TO.N,Net-(P1-PadB5)*%
X130300000Y-101000000D03*
%TD*%
D13*
%TO.N,+3V3*%
X118879606Y-100079606D02*
X119479606Y-99479606D01*
D14*
X116400000Y-100526500D02*
X117100000Y-101226500D01*
X116400000Y-99900000D02*
X116400000Y-100526500D01*
X121454000Y-97054000D02*
X123746000Y-97054000D01*
D15*
X116075000Y-102475000D02*
X116100000Y-102500000D01*
D14*
X119479606Y-99379606D02*
X119479606Y-99479606D01*
D13*
X121454000Y-97505212D02*
X121454000Y-97054000D01*
D14*
X119000000Y-98900000D02*
X119479606Y-99379606D01*
D13*
X116100000Y-102226500D02*
X117100000Y-101226500D01*
D15*
X114295000Y-102475000D02*
X116075000Y-102475000D01*
D13*
X119479606Y-99479606D02*
X121454000Y-97505212D01*
X118129606Y-100829606D02*
X118879606Y-100079606D01*
D14*
X122600000Y-103800000D02*
X118879606Y-100079606D01*
X122600000Y-104500000D02*
X122600000Y-103800000D01*
D13*
X121454000Y-96635276D02*
X119337156Y-94518432D01*
X117732712Y-101226500D02*
X118129606Y-100829606D01*
D14*
X123746000Y-97054000D02*
X125800000Y-95000000D01*
D13*
X117100000Y-101226500D02*
X117732712Y-101226500D01*
X121454000Y-97054000D02*
X121454000Y-96635276D01*
X116100000Y-102500000D02*
X116100000Y-102226500D01*
%TO.N,+5V*%
X130776100Y-105223900D02*
X109223900Y-105223900D01*
X131900000Y-100500000D02*
X131900000Y-104100000D01*
X131900000Y-104100000D02*
X130776100Y-105223900D01*
X108400000Y-104400000D02*
X108400000Y-103400000D01*
X109223900Y-105223900D02*
X108400000Y-104400000D01*
%TD*%
%TA.AperFunction,Conductor*%
%TO.N,GND*%
G36*
X107425459Y-91655333D02*
G01*
X107430292Y-91667017D01*
X107427956Y-93940306D01*
X107427896Y-93998552D01*
X107431154Y-93998572D01*
X107431155Y-93998572D01*
X115943296Y-94049960D01*
X115954777Y-94054707D01*
X118537691Y-96599637D01*
X119350000Y-97400000D01*
X120805907Y-97400000D01*
X120817574Y-97404833D01*
X120822407Y-97416500D01*
X120817574Y-97428167D01*
X119572895Y-98672846D01*
X119561228Y-98677679D01*
X119549561Y-98672846D01*
X119545984Y-98667493D01*
X119518750Y-98601744D01*
X119518750Y-98601743D01*
X119518334Y-98600740D01*
X119423218Y-98476782D01*
X119321041Y-98398379D01*
X119300122Y-98382327D01*
X119300120Y-98382326D01*
X119299260Y-98381666D01*
X119154908Y-98321874D01*
X119153843Y-98321734D01*
X119153840Y-98321733D01*
X119001071Y-98301621D01*
X119000000Y-98301480D01*
X118998929Y-98301621D01*
X118846160Y-98321733D01*
X118846157Y-98321734D01*
X118845092Y-98321874D01*
X118700740Y-98381666D01*
X118699880Y-98382326D01*
X118699878Y-98382327D01*
X118678959Y-98398379D01*
X118576782Y-98476782D01*
X118481666Y-98600740D01*
X118421874Y-98745092D01*
X118401480Y-98900000D01*
X118421874Y-99054908D01*
X118481666Y-99199260D01*
X118482326Y-99200120D01*
X118482327Y-99200122D01*
X118498910Y-99221733D01*
X118576782Y-99323218D01*
X118577637Y-99323874D01*
X118699878Y-99417673D01*
X118699880Y-99417674D01*
X118700740Y-99418334D01*
X118701743Y-99418750D01*
X118701744Y-99418750D01*
X118767493Y-99445984D01*
X118776423Y-99454914D01*
X118776423Y-99467542D01*
X118772846Y-99472895D01*
X117528574Y-100717167D01*
X117516907Y-100722000D01*
X117422890Y-100722000D01*
X117412846Y-100718590D01*
X117400126Y-100708829D01*
X117400118Y-100708824D01*
X117399260Y-100708166D01*
X117394560Y-100706219D01*
X117255905Y-100648787D01*
X117254908Y-100648374D01*
X117253843Y-100648234D01*
X117253840Y-100648233D01*
X117101071Y-100628121D01*
X117100000Y-100627980D01*
X117050935Y-100634440D01*
X117038737Y-100631171D01*
X117037114Y-100629748D01*
X116784107Y-100376741D01*
X116779274Y-100365074D01*
X116784107Y-100353407D01*
X116785730Y-100351984D01*
X116822359Y-100323878D01*
X116822363Y-100323874D01*
X116823218Y-100323218D01*
X116879735Y-100249564D01*
X116917673Y-100200122D01*
X116917674Y-100200120D01*
X116918334Y-100199260D01*
X116978126Y-100054908D01*
X116987682Y-99982327D01*
X116998379Y-99901071D01*
X116998520Y-99900000D01*
X116978126Y-99745092D01*
X116918334Y-99600740D01*
X116823218Y-99476782D01*
X116747047Y-99418334D01*
X116700122Y-99382327D01*
X116700120Y-99382326D01*
X116699260Y-99381666D01*
X116554908Y-99321874D01*
X116553843Y-99321734D01*
X116553840Y-99321733D01*
X116401071Y-99301621D01*
X116400000Y-99301480D01*
X116398929Y-99301621D01*
X116246160Y-99321733D01*
X116246157Y-99321734D01*
X116245092Y-99321874D01*
X116100740Y-99381666D01*
X116099880Y-99382326D01*
X116099878Y-99382327D01*
X116052953Y-99418334D01*
X115976782Y-99476782D01*
X115881666Y-99600740D01*
X115821874Y-99745092D01*
X115801480Y-99900000D01*
X115801621Y-99901071D01*
X115812319Y-99982327D01*
X115821874Y-100054908D01*
X115881666Y-100199260D01*
X115882326Y-100200120D01*
X115882327Y-100200122D01*
X115920265Y-100249564D01*
X115976782Y-100323218D01*
X115983182Y-100328129D01*
X116016045Y-100353346D01*
X116022359Y-100364282D01*
X116022500Y-100366436D01*
X116022500Y-100484445D01*
X116022130Y-100487917D01*
X116017705Y-100508471D01*
X116017865Y-100509824D01*
X116017865Y-100509827D01*
X116022386Y-100548022D01*
X116022500Y-100549961D01*
X116022500Y-100557862D01*
X116022612Y-100558534D01*
X116022612Y-100558536D01*
X116026071Y-100579317D01*
X116026179Y-100580076D01*
X116032476Y-100633275D01*
X116033066Y-100634503D01*
X116033067Y-100634507D01*
X116035402Y-100639368D01*
X116036805Y-100643803D01*
X116037914Y-100650470D01*
X116038563Y-100651672D01*
X116038563Y-100651673D01*
X116063347Y-100697605D01*
X116063700Y-100698298D01*
X116086878Y-100746566D01*
X116090450Y-100750815D01*
X116092234Y-100752599D01*
X116095088Y-100756431D01*
X116097592Y-100761072D01*
X116098596Y-100762000D01*
X116138550Y-100798933D01*
X116139017Y-100799382D01*
X116464665Y-101125030D01*
X116469498Y-101136697D01*
X116464665Y-101148364D01*
X115784557Y-101828472D01*
X115781695Y-101830759D01*
X115770659Y-101837722D01*
X115770653Y-101837727D01*
X115769661Y-101838353D01*
X115768883Y-101839234D01*
X115768494Y-101839565D01*
X115757799Y-101843500D01*
X114255270Y-101843500D01*
X114200365Y-101850436D01*
X114137732Y-101858348D01*
X114137731Y-101858348D01*
X114136704Y-101858478D01*
X113988355Y-101917214D01*
X113987515Y-101917825D01*
X113987512Y-101917826D01*
X113875620Y-101999121D01*
X113859273Y-102010998D01*
X113757569Y-102133936D01*
X113689634Y-102278305D01*
X113689441Y-102279317D01*
X113689440Y-102279320D01*
X113663114Y-102417328D01*
X113659737Y-102435033D01*
X113659802Y-102436070D01*
X113659802Y-102436074D01*
X113667657Y-102560914D01*
X113669756Y-102594272D01*
X113719060Y-102746017D01*
X113804554Y-102880732D01*
X113920864Y-102989955D01*
X113921771Y-102990454D01*
X113921773Y-102990455D01*
X114059772Y-103066320D01*
X114060682Y-103066820D01*
X114215223Y-103106500D01*
X115908034Y-103106500D01*
X115914587Y-103107857D01*
X115922416Y-103111245D01*
X115985827Y-103121288D01*
X116078981Y-103136042D01*
X116078984Y-103136042D01*
X116080006Y-103136204D01*
X116159429Y-103128697D01*
X116237819Y-103121288D01*
X116237822Y-103121287D01*
X116238852Y-103121190D01*
X116239825Y-103120840D01*
X116239828Y-103120839D01*
X116387999Y-103067494D01*
X116388974Y-103067143D01*
X116390185Y-103066320D01*
X116520081Y-102978042D01*
X116520084Y-102978039D01*
X116520938Y-102977459D01*
X116604808Y-102882327D01*
X116625765Y-102858556D01*
X116625767Y-102858553D01*
X116626452Y-102857776D01*
X116644535Y-102822287D01*
X116698419Y-102716536D01*
X116698420Y-102716534D01*
X116698889Y-102715613D01*
X116733693Y-102559902D01*
X116729802Y-102436074D01*
X116728715Y-102401464D01*
X116728715Y-102401461D01*
X116728682Y-102400426D01*
X116711337Y-102340725D01*
X116712723Y-102328174D01*
X116715515Y-102324456D01*
X117228417Y-101811553D01*
X117237931Y-101806861D01*
X117253839Y-101804767D01*
X117253841Y-101804766D01*
X117254908Y-101804626D01*
X117335966Y-101771051D01*
X117398256Y-101745250D01*
X117398257Y-101745250D01*
X117399260Y-101744834D01*
X117400118Y-101744176D01*
X117400126Y-101744171D01*
X117412846Y-101734410D01*
X117422890Y-101731000D01*
X117674322Y-101731000D01*
X117677963Y-101731407D01*
X117691836Y-101734546D01*
X117748479Y-101731032D01*
X117749501Y-101731000D01*
X117768938Y-101731000D01*
X117783522Y-101728911D01*
X117784840Y-101728776D01*
X117834894Y-101725671D01*
X117836071Y-101725598D01*
X117837178Y-101725198D01*
X117837180Y-101725198D01*
X117853826Y-101719189D01*
X117857088Y-101718376D01*
X117861636Y-101717725D01*
X117875764Y-101715701D01*
X117876836Y-101715214D01*
X117876838Y-101715213D01*
X117922476Y-101694463D01*
X117923702Y-101693963D01*
X117960531Y-101680667D01*
X117971996Y-101676528D01*
X117987236Y-101665394D01*
X117990137Y-101663699D01*
X117995709Y-101661166D01*
X118006247Y-101656375D01*
X118006250Y-101656373D01*
X118007317Y-101655888D01*
X118046200Y-101622384D01*
X118047238Y-101621561D01*
X118061137Y-101611407D01*
X118061144Y-101611401D01*
X118061656Y-101611027D01*
X118075389Y-101597294D01*
X118076285Y-101596461D01*
X118115906Y-101562321D01*
X118116794Y-101561556D01*
X118126287Y-101546910D01*
X118128466Y-101544217D01*
X118957742Y-100714941D01*
X118969409Y-100710108D01*
X118981076Y-100714941D01*
X122217667Y-103951532D01*
X122222500Y-103963199D01*
X122222500Y-104033564D01*
X122217667Y-104045231D01*
X122216045Y-104046654D01*
X122193206Y-104064179D01*
X122176782Y-104076782D01*
X122176126Y-104077637D01*
X122083056Y-104198929D01*
X122081666Y-104200740D01*
X122081250Y-104201743D01*
X122081250Y-104201744D01*
X122050907Y-104275000D01*
X122021874Y-104345092D01*
X122021734Y-104346157D01*
X122021733Y-104346160D01*
X122010548Y-104431119D01*
X122001480Y-104500000D01*
X122001621Y-104501071D01*
X122018369Y-104628283D01*
X122021874Y-104654908D01*
X122022287Y-104655905D01*
X122039137Y-104696586D01*
X122039137Y-104709214D01*
X122030207Y-104718144D01*
X122023893Y-104719400D01*
X109439705Y-104719400D01*
X109428038Y-104714567D01*
X108985053Y-104271582D01*
X108980361Y-104262069D01*
X108978267Y-104246160D01*
X108978266Y-104246157D01*
X108978126Y-104245092D01*
X108941886Y-104157600D01*
X108918750Y-104101744D01*
X108918750Y-104101743D01*
X108918334Y-104100740D01*
X108917676Y-104099882D01*
X108917671Y-104099874D01*
X108907910Y-104087154D01*
X108904500Y-104077110D01*
X108904500Y-103722890D01*
X108907910Y-103712846D01*
X108917671Y-103700126D01*
X108917676Y-103700118D01*
X108918334Y-103699260D01*
X108978126Y-103554908D01*
X108998520Y-103400000D01*
X108980743Y-103264970D01*
X108978267Y-103246160D01*
X108978266Y-103246157D01*
X108978126Y-103245092D01*
X108932983Y-103136106D01*
X108918750Y-103101744D01*
X108918750Y-103101743D01*
X108918334Y-103100740D01*
X108892555Y-103067143D01*
X108823874Y-102977637D01*
X108823218Y-102976782D01*
X108806991Y-102964331D01*
X108700122Y-102882327D01*
X108700120Y-102882326D01*
X108699260Y-102881666D01*
X108554908Y-102821874D01*
X108553843Y-102821734D01*
X108553840Y-102821733D01*
X108401071Y-102801621D01*
X108400000Y-102801480D01*
X108398929Y-102801621D01*
X108246160Y-102821733D01*
X108246157Y-102821734D01*
X108245092Y-102821874D01*
X108100740Y-102881666D01*
X108099880Y-102882326D01*
X108099878Y-102882327D01*
X107993009Y-102964331D01*
X107976782Y-102976782D01*
X107976126Y-102977637D01*
X107907446Y-103067143D01*
X107881666Y-103100740D01*
X107881250Y-103101743D01*
X107881250Y-103101744D01*
X107867017Y-103136106D01*
X107821874Y-103245092D01*
X107821734Y-103246157D01*
X107821733Y-103246160D01*
X107819257Y-103264970D01*
X107801480Y-103400000D01*
X107821874Y-103554908D01*
X107881666Y-103699260D01*
X107882324Y-103700118D01*
X107882329Y-103700126D01*
X107892090Y-103712846D01*
X107895500Y-103722890D01*
X107895500Y-104077110D01*
X107892090Y-104087154D01*
X107882329Y-104099874D01*
X107882324Y-104099882D01*
X107881666Y-104100740D01*
X107881250Y-104101743D01*
X107881250Y-104101744D01*
X107858114Y-104157600D01*
X107821874Y-104245092D01*
X107821734Y-104246157D01*
X107821733Y-104246160D01*
X107804135Y-104379830D01*
X107801480Y-104400000D01*
X107801621Y-104401071D01*
X107814416Y-104498256D01*
X107821874Y-104554908D01*
X107822287Y-104555905D01*
X107851220Y-104625755D01*
X107881666Y-104699260D01*
X107882326Y-104700120D01*
X107882327Y-104700122D01*
X107897120Y-104719400D01*
X107976782Y-104823218D01*
X107977637Y-104823874D01*
X108099878Y-104917673D01*
X108099880Y-104917674D01*
X108100740Y-104918334D01*
X108245092Y-104978126D01*
X108246157Y-104978266D01*
X108246160Y-104978267D01*
X108262069Y-104980361D01*
X108271582Y-104985053D01*
X108825873Y-105539343D01*
X108828160Y-105542205D01*
X108835753Y-105554239D01*
X108836637Y-105555019D01*
X108836638Y-105555021D01*
X108878301Y-105591816D01*
X108879046Y-105592516D01*
X108892781Y-105606251D01*
X108893250Y-105606602D01*
X108893254Y-105606606D01*
X108904567Y-105615084D01*
X108905593Y-105615919D01*
X108944070Y-105649901D01*
X108945131Y-105650399D01*
X108945134Y-105650401D01*
X108961152Y-105657921D01*
X108964036Y-105659654D01*
X108979136Y-105670971D01*
X109027208Y-105688993D01*
X109028424Y-105689505D01*
X109073816Y-105710817D01*
X109073819Y-105710818D01*
X109074882Y-105711317D01*
X109093527Y-105714220D01*
X109096778Y-105715074D01*
X109114452Y-105721699D01*
X109130803Y-105722914D01*
X109165646Y-105725503D01*
X109166962Y-105725654D01*
X109183972Y-105728303D01*
X109183976Y-105728303D01*
X109184597Y-105728400D01*
X109204013Y-105728400D01*
X109205235Y-105728445D01*
X109210107Y-105728807D01*
X109257393Y-105732321D01*
X109257395Y-105732321D01*
X109258567Y-105732408D01*
X109259719Y-105732162D01*
X109259721Y-105732162D01*
X109275638Y-105728764D01*
X109279083Y-105728400D01*
X130717710Y-105728400D01*
X130721351Y-105728807D01*
X130735224Y-105731946D01*
X130791867Y-105728432D01*
X130792889Y-105728400D01*
X130812326Y-105728400D01*
X130826910Y-105726311D01*
X130828228Y-105726176D01*
X130878282Y-105723071D01*
X130879459Y-105722998D01*
X130880566Y-105722598D01*
X130880568Y-105722598D01*
X130897214Y-105716589D01*
X130900476Y-105715776D01*
X130911339Y-105714220D01*
X130919152Y-105713101D01*
X130920224Y-105712614D01*
X130920226Y-105712613D01*
X130965864Y-105691863D01*
X130967090Y-105691363D01*
X130995644Y-105681054D01*
X131015384Y-105673928D01*
X131030624Y-105662794D01*
X131033525Y-105661099D01*
X131040515Y-105657921D01*
X131049635Y-105653775D01*
X131049638Y-105653773D01*
X131050705Y-105653288D01*
X131051594Y-105652522D01*
X131089588Y-105619784D01*
X131090626Y-105618961D01*
X131104523Y-105608808D01*
X131104526Y-105608805D01*
X131105044Y-105608427D01*
X131118789Y-105594681D01*
X131119687Y-105593848D01*
X131137770Y-105578267D01*
X131160182Y-105558956D01*
X131163240Y-105554239D01*
X131169675Y-105544310D01*
X131171854Y-105541617D01*
X132215443Y-104498027D01*
X132218305Y-104495740D01*
X132229341Y-104488777D01*
X132229342Y-104488776D01*
X132230339Y-104488147D01*
X132236431Y-104481250D01*
X132267916Y-104445599D01*
X132268616Y-104444854D01*
X132282351Y-104431119D01*
X132282702Y-104430650D01*
X132282706Y-104430646D01*
X132291184Y-104419333D01*
X132292020Y-104418306D01*
X132306880Y-104401480D01*
X132326001Y-104379830D01*
X132334021Y-104362748D01*
X132335754Y-104359864D01*
X132346365Y-104345706D01*
X132347071Y-104344764D01*
X132365091Y-104296696D01*
X132365603Y-104295480D01*
X132387417Y-104249018D01*
X132388184Y-104244095D01*
X132390320Y-104230370D01*
X132391174Y-104227116D01*
X132397385Y-104210550D01*
X132397385Y-104210549D01*
X132397798Y-104209448D01*
X132401602Y-104158262D01*
X132401753Y-104156947D01*
X132404403Y-104139930D01*
X132404404Y-104139922D01*
X132404500Y-104139303D01*
X132404500Y-104119882D01*
X132404545Y-104118659D01*
X132408421Y-104066507D01*
X132408421Y-104066505D01*
X132408508Y-104065333D01*
X132404864Y-104048262D01*
X132404500Y-104044817D01*
X132404500Y-100822890D01*
X132407910Y-100812846D01*
X132417671Y-100800126D01*
X132417676Y-100800118D01*
X132418334Y-100799260D01*
X132433768Y-100762000D01*
X132477713Y-100655905D01*
X132478126Y-100654908D01*
X132478711Y-100650470D01*
X132498379Y-100501071D01*
X132498520Y-100500000D01*
X132496052Y-100481250D01*
X132478267Y-100346160D01*
X132478266Y-100346157D01*
X132478126Y-100345092D01*
X132427645Y-100223218D01*
X132418750Y-100201744D01*
X132418750Y-100201743D01*
X132418334Y-100200740D01*
X132417199Y-100199260D01*
X132323874Y-100077637D01*
X132323218Y-100076782D01*
X132306991Y-100064331D01*
X132200122Y-99982327D01*
X132200120Y-99982326D01*
X132199260Y-99981666D01*
X132132082Y-99953840D01*
X132055905Y-99922287D01*
X132054908Y-99921874D01*
X132053843Y-99921734D01*
X132053840Y-99921733D01*
X131901071Y-99901621D01*
X131900000Y-99901480D01*
X131898929Y-99901621D01*
X131746160Y-99921733D01*
X131746157Y-99921734D01*
X131745092Y-99921874D01*
X131744095Y-99922287D01*
X131667919Y-99953840D01*
X131600740Y-99981666D01*
X131599880Y-99982326D01*
X131599878Y-99982327D01*
X131493009Y-100064331D01*
X131476782Y-100076782D01*
X131476126Y-100077637D01*
X131382802Y-100199260D01*
X131381666Y-100200740D01*
X131381250Y-100201743D01*
X131381250Y-100201744D01*
X131372355Y-100223218D01*
X131321874Y-100345092D01*
X131321734Y-100346157D01*
X131321733Y-100346160D01*
X131303948Y-100481250D01*
X131301480Y-100500000D01*
X131301621Y-100501071D01*
X131321290Y-100650470D01*
X131321874Y-100654908D01*
X131322287Y-100655905D01*
X131366233Y-100762000D01*
X131381666Y-100799260D01*
X131382324Y-100800118D01*
X131382329Y-100800126D01*
X131392090Y-100812846D01*
X131395500Y-100822890D01*
X131395500Y-103884195D01*
X131390667Y-103895862D01*
X130571962Y-104714567D01*
X130560295Y-104719400D01*
X129946478Y-104719400D01*
X129934811Y-104714567D01*
X129929978Y-104702900D01*
X129934811Y-104691233D01*
X129936433Y-104689810D01*
X129981919Y-104654908D01*
X130023218Y-104623218D01*
X130035669Y-104606991D01*
X130117673Y-104500122D01*
X130117674Y-104500120D01*
X130118334Y-104499260D01*
X130140870Y-104444854D01*
X130177713Y-104355905D01*
X130178126Y-104354908D01*
X130179338Y-104345706D01*
X130198379Y-104201071D01*
X130198520Y-104200000D01*
X130190467Y-104138830D01*
X130178267Y-104046160D01*
X130178266Y-104046157D01*
X130178126Y-104045092D01*
X130118334Y-103900740D01*
X130058850Y-103823218D01*
X130023874Y-103777637D01*
X130023218Y-103776782D01*
X129976664Y-103741060D01*
X129900122Y-103682327D01*
X129900120Y-103682326D01*
X129899260Y-103681666D01*
X129885654Y-103676030D01*
X129755905Y-103622287D01*
X129754908Y-103621874D01*
X129753843Y-103621734D01*
X129753840Y-103621733D01*
X129601071Y-103601621D01*
X129600000Y-103601480D01*
X129598929Y-103601621D01*
X129446160Y-103621733D01*
X129446157Y-103621734D01*
X129445092Y-103621874D01*
X129444095Y-103622287D01*
X129314347Y-103676030D01*
X129300740Y-103681666D01*
X129299880Y-103682326D01*
X129299878Y-103682327D01*
X129223336Y-103741060D01*
X129176782Y-103776782D01*
X129176126Y-103777637D01*
X129141151Y-103823218D01*
X129081666Y-103900740D01*
X129021874Y-104045092D01*
X129021734Y-104046157D01*
X129021733Y-104046160D01*
X129009533Y-104138830D01*
X129001480Y-104200000D01*
X129001621Y-104201071D01*
X129020663Y-104345706D01*
X129021874Y-104354908D01*
X129022287Y-104355905D01*
X129059131Y-104444854D01*
X129081666Y-104499260D01*
X129082326Y-104500120D01*
X129082327Y-104500122D01*
X129164331Y-104606991D01*
X129176782Y-104623218D01*
X129218082Y-104654908D01*
X129263567Y-104689810D01*
X129269881Y-104700746D01*
X129266612Y-104712945D01*
X129255676Y-104719259D01*
X129253522Y-104719400D01*
X123176107Y-104719400D01*
X123164440Y-104714567D01*
X123159607Y-104702900D01*
X123160863Y-104696586D01*
X123177713Y-104655905D01*
X123178126Y-104654908D01*
X123181632Y-104628283D01*
X123198379Y-104501071D01*
X123198520Y-104500000D01*
X123189452Y-104431119D01*
X123178267Y-104346160D01*
X123178266Y-104346157D01*
X123178126Y-104345092D01*
X123149093Y-104275000D01*
X123118750Y-104201744D01*
X123118750Y-104201743D01*
X123118334Y-104200740D01*
X123116945Y-104198929D01*
X123023874Y-104077637D01*
X123023218Y-104076782D01*
X123006794Y-104064179D01*
X122983955Y-104046654D01*
X122977641Y-104035718D01*
X122977500Y-104033564D01*
X122977500Y-103842055D01*
X122977870Y-103838582D01*
X122982295Y-103818029D01*
X122977614Y-103778478D01*
X122977500Y-103776539D01*
X122977500Y-103768638D01*
X122973928Y-103747173D01*
X122973819Y-103746413D01*
X122967524Y-103693225D01*
X122964597Y-103687129D01*
X122963195Y-103682695D01*
X122963024Y-103681666D01*
X122962086Y-103676030D01*
X122936658Y-103628905D01*
X122936305Y-103628212D01*
X122913574Y-103580873D01*
X122913574Y-103580872D01*
X122913123Y-103579934D01*
X122909550Y-103575685D01*
X122907766Y-103573901D01*
X122904912Y-103570069D01*
X122903057Y-103566630D01*
X122903055Y-103566628D01*
X122902408Y-103565428D01*
X122861449Y-103527566D01*
X122860982Y-103527117D01*
X122733865Y-103400000D01*
X127601480Y-103400000D01*
X127621874Y-103554908D01*
X127681666Y-103699260D01*
X127682326Y-103700120D01*
X127682327Y-103700122D01*
X127742452Y-103778478D01*
X127776782Y-103823218D01*
X127777637Y-103823874D01*
X127899878Y-103917673D01*
X127899880Y-103917674D01*
X127900740Y-103918334D01*
X128045092Y-103978126D01*
X128046157Y-103978266D01*
X128046160Y-103978267D01*
X128198929Y-103998379D01*
X128200000Y-103998520D01*
X128201071Y-103998379D01*
X128353840Y-103978267D01*
X128353843Y-103978266D01*
X128354908Y-103978126D01*
X128499260Y-103918334D01*
X128500120Y-103917674D01*
X128500122Y-103917673D01*
X128622363Y-103823874D01*
X128623218Y-103823218D01*
X128657548Y-103778478D01*
X128717673Y-103700122D01*
X128717674Y-103700120D01*
X128718334Y-103699260D01*
X128778126Y-103554908D01*
X128798520Y-103400000D01*
X128780743Y-103264970D01*
X128778267Y-103246160D01*
X128778266Y-103246157D01*
X128778126Y-103245092D01*
X128732983Y-103136106D01*
X128718750Y-103101744D01*
X128718750Y-103101743D01*
X128718334Y-103100740D01*
X128692555Y-103067143D01*
X128623874Y-102977637D01*
X128623218Y-102976782D01*
X128606991Y-102964331D01*
X128500122Y-102882327D01*
X128500120Y-102882326D01*
X128499260Y-102881666D01*
X128354908Y-102821874D01*
X128353843Y-102821734D01*
X128353840Y-102821733D01*
X128201071Y-102801621D01*
X128200000Y-102801480D01*
X128198929Y-102801621D01*
X128046160Y-102821733D01*
X128046157Y-102821734D01*
X128045092Y-102821874D01*
X127900740Y-102881666D01*
X127899880Y-102882326D01*
X127899878Y-102882327D01*
X127793009Y-102964331D01*
X127776782Y-102976782D01*
X127776126Y-102977637D01*
X127707446Y-103067143D01*
X127681666Y-103100740D01*
X127681250Y-103101743D01*
X127681250Y-103101744D01*
X127667017Y-103136106D01*
X127621874Y-103245092D01*
X127621734Y-103246157D01*
X127621733Y-103246160D01*
X127619257Y-103264970D01*
X127601480Y-103400000D01*
X122733865Y-103400000D01*
X120333865Y-101000000D01*
X129701480Y-101000000D01*
X129721874Y-101154908D01*
X129722287Y-101155905D01*
X129750433Y-101223855D01*
X129781666Y-101299260D01*
X129876782Y-101423218D01*
X129877637Y-101423874D01*
X129999878Y-101517673D01*
X129999880Y-101517674D01*
X130000740Y-101518334D01*
X130001743Y-101518750D01*
X130001744Y-101518750D01*
X130101107Y-101559907D01*
X130145092Y-101578126D01*
X130146157Y-101578266D01*
X130146160Y-101578267D01*
X130298929Y-101598379D01*
X130300000Y-101598520D01*
X130301071Y-101598379D01*
X130453840Y-101578267D01*
X130453843Y-101578266D01*
X130454908Y-101578126D01*
X130498893Y-101559907D01*
X130598256Y-101518750D01*
X130598257Y-101518750D01*
X130599260Y-101518334D01*
X130600120Y-101517674D01*
X130600122Y-101517673D01*
X130722363Y-101423874D01*
X130723218Y-101423218D01*
X130818334Y-101299260D01*
X130849568Y-101223855D01*
X130877713Y-101155905D01*
X130878126Y-101154908D01*
X130898520Y-101000000D01*
X130898361Y-100998794D01*
X130878267Y-100846160D01*
X130878266Y-100846157D01*
X130878126Y-100845092D01*
X130859098Y-100799153D01*
X130818750Y-100701744D01*
X130818750Y-100701743D01*
X130818334Y-100700740D01*
X130816461Y-100698298D01*
X130723874Y-100577637D01*
X130723218Y-100576782D01*
X130694616Y-100554835D01*
X130600122Y-100482327D01*
X130600120Y-100482326D01*
X130599260Y-100481666D01*
X130454908Y-100421874D01*
X130453843Y-100421734D01*
X130453840Y-100421733D01*
X130301071Y-100401621D01*
X130300000Y-100401480D01*
X130298929Y-100401621D01*
X130146160Y-100421733D01*
X130146157Y-100421734D01*
X130145092Y-100421874D01*
X130000740Y-100481666D01*
X129999880Y-100482326D01*
X129999878Y-100482327D01*
X129905384Y-100554835D01*
X129876782Y-100576782D01*
X129876126Y-100577637D01*
X129783540Y-100698298D01*
X129781666Y-100700740D01*
X129781250Y-100701743D01*
X129781250Y-100701744D01*
X129740902Y-100799153D01*
X129721874Y-100845092D01*
X129721734Y-100846157D01*
X129721733Y-100846160D01*
X129701639Y-100998794D01*
X129701480Y-101000000D01*
X120333865Y-101000000D01*
X119514941Y-100181076D01*
X119510108Y-100169409D01*
X119514941Y-100157742D01*
X121769443Y-97903240D01*
X121772305Y-97900953D01*
X121783341Y-97893990D01*
X121783347Y-97893985D01*
X121784339Y-97893359D01*
X121821909Y-97850819D01*
X121822609Y-97850074D01*
X121836351Y-97836332D01*
X121845193Y-97824535D01*
X121846029Y-97823509D01*
X121879221Y-97785925D01*
X121880001Y-97785042D01*
X121888021Y-97767961D01*
X121889753Y-97765079D01*
X121900365Y-97750919D01*
X121900367Y-97750915D01*
X121901071Y-97749976D01*
X121919091Y-97701908D01*
X121919603Y-97700692D01*
X121940917Y-97655294D01*
X121941417Y-97654230D01*
X121944320Y-97635580D01*
X121945174Y-97632328D01*
X121951385Y-97615762D01*
X121951385Y-97615761D01*
X121951798Y-97614660D01*
X121955602Y-97563474D01*
X121955753Y-97562159D01*
X121958403Y-97545142D01*
X121958404Y-97545134D01*
X121958500Y-97544515D01*
X121958500Y-97525094D01*
X121958545Y-97523871D01*
X121962421Y-97471719D01*
X121962421Y-97471717D01*
X121962508Y-97470545D01*
X121958864Y-97453474D01*
X121958500Y-97450029D01*
X121958500Y-97448000D01*
X121963333Y-97436333D01*
X121975000Y-97431500D01*
X123703945Y-97431500D01*
X123707417Y-97431870D01*
X123727971Y-97436295D01*
X123729324Y-97436135D01*
X123729327Y-97436135D01*
X123767522Y-97431614D01*
X123769461Y-97431500D01*
X123777362Y-97431500D01*
X123778034Y-97431388D01*
X123778036Y-97431388D01*
X123786755Y-97429937D01*
X123798827Y-97427928D01*
X123799576Y-97427821D01*
X123852775Y-97421524D01*
X123854003Y-97420934D01*
X123854007Y-97420933D01*
X123858868Y-97418598D01*
X123863303Y-97417195D01*
X123869970Y-97416086D01*
X123917105Y-97390653D01*
X123917798Y-97390300D01*
X123965131Y-97367571D01*
X123966066Y-97367122D01*
X123970315Y-97363550D01*
X123972099Y-97361766D01*
X123975931Y-97358912D01*
X123979370Y-97357057D01*
X123979372Y-97357055D01*
X123980572Y-97356408D01*
X124018434Y-97315449D01*
X124018883Y-97314982D01*
X124033865Y-97300000D01*
X131201480Y-97300000D01*
X131201621Y-97301071D01*
X131221461Y-97451769D01*
X131221874Y-97454908D01*
X131281666Y-97599260D01*
X131282326Y-97600120D01*
X131282327Y-97600122D01*
X131322955Y-97653069D01*
X131376782Y-97723218D01*
X131377637Y-97723874D01*
X131499878Y-97817673D01*
X131499880Y-97817674D01*
X131500740Y-97818334D01*
X131501743Y-97818750D01*
X131501744Y-97818750D01*
X131543052Y-97835860D01*
X131645092Y-97878126D01*
X131646157Y-97878266D01*
X131646160Y-97878267D01*
X131798929Y-97898379D01*
X131800000Y-97898520D01*
X131801071Y-97898379D01*
X131953840Y-97878267D01*
X131953843Y-97878266D01*
X131954908Y-97878126D01*
X132056948Y-97835860D01*
X132098256Y-97818750D01*
X132098257Y-97818750D01*
X132099260Y-97818334D01*
X132100120Y-97817674D01*
X132100122Y-97817673D01*
X132222363Y-97723874D01*
X132223218Y-97723218D01*
X132277045Y-97653069D01*
X132317673Y-97600122D01*
X132317674Y-97600120D01*
X132318334Y-97599260D01*
X132378126Y-97454908D01*
X132378540Y-97451769D01*
X132398379Y-97301071D01*
X132398520Y-97300000D01*
X132392003Y-97250500D01*
X132378267Y-97146160D01*
X132378266Y-97146157D01*
X132378126Y-97145092D01*
X132318334Y-97000740D01*
X132283561Y-96955422D01*
X132223874Y-96877637D01*
X132223218Y-96876782D01*
X132128257Y-96803916D01*
X132100122Y-96782327D01*
X132100120Y-96782326D01*
X132099260Y-96781666D01*
X131954908Y-96721874D01*
X131953843Y-96721734D01*
X131953840Y-96721733D01*
X131801071Y-96701621D01*
X131800000Y-96701480D01*
X131798929Y-96701621D01*
X131646160Y-96721733D01*
X131646157Y-96721734D01*
X131645092Y-96721874D01*
X131500740Y-96781666D01*
X131499880Y-96782326D01*
X131499878Y-96782327D01*
X131471743Y-96803916D01*
X131376782Y-96876782D01*
X131376126Y-96877637D01*
X131316440Y-96955422D01*
X131281666Y-97000740D01*
X131221874Y-97145092D01*
X131221734Y-97146157D01*
X131221733Y-97146160D01*
X131207997Y-97250500D01*
X131201480Y-97300000D01*
X124033865Y-97300000D01*
X125737113Y-95596752D01*
X125748780Y-95591919D01*
X125750933Y-95592060D01*
X125800000Y-95598520D01*
X125801071Y-95598379D01*
X125953840Y-95578267D01*
X125953843Y-95578266D01*
X125954908Y-95578126D01*
X125984072Y-95566046D01*
X126098256Y-95518750D01*
X126098257Y-95518750D01*
X126099260Y-95518334D01*
X126100120Y-95517674D01*
X126100122Y-95517673D01*
X126222363Y-95423874D01*
X126223218Y-95423218D01*
X126318334Y-95299260D01*
X126327291Y-95277637D01*
X126377713Y-95155905D01*
X126378126Y-95154908D01*
X126385010Y-95102624D01*
X126398379Y-95001071D01*
X126398520Y-95000000D01*
X126378126Y-94845092D01*
X126318334Y-94700740D01*
X126223218Y-94576782D01*
X126141856Y-94514351D01*
X126100122Y-94482327D01*
X126100120Y-94482326D01*
X126099260Y-94481666D01*
X125954908Y-94421874D01*
X125953843Y-94421734D01*
X125953840Y-94421733D01*
X125801071Y-94401621D01*
X125800000Y-94401480D01*
X125798929Y-94401621D01*
X125646160Y-94421733D01*
X125646157Y-94421734D01*
X125645092Y-94421874D01*
X125500740Y-94481666D01*
X125499880Y-94482326D01*
X125499878Y-94482327D01*
X125458144Y-94514351D01*
X125376782Y-94576782D01*
X125281666Y-94700740D01*
X125221874Y-94845092D01*
X125201480Y-95000000D01*
X125201621Y-95001071D01*
X125207940Y-95049066D01*
X125204671Y-95061264D01*
X125203248Y-95062887D01*
X123594467Y-96671667D01*
X123582800Y-96676500D01*
X121977575Y-96676500D01*
X121965908Y-96671667D01*
X121961107Y-96661022D01*
X121958748Y-96622983D01*
X121958532Y-96619509D01*
X121958500Y-96618487D01*
X121958500Y-96599050D01*
X121956411Y-96584465D01*
X121956276Y-96583148D01*
X121953171Y-96533094D01*
X121953098Y-96531917D01*
X121946689Y-96514162D01*
X121945876Y-96510900D01*
X121943368Y-96493391D01*
X121943201Y-96492224D01*
X121921961Y-96445508D01*
X121921461Y-96444282D01*
X121904425Y-96397094D01*
X121904027Y-96395991D01*
X121892892Y-96380750D01*
X121891199Y-96377851D01*
X121883876Y-96361744D01*
X121883876Y-96361743D01*
X121883388Y-96360671D01*
X121870789Y-96346050D01*
X121849882Y-96321784D01*
X121849059Y-96320748D01*
X121838900Y-96306844D01*
X121838526Y-96306332D01*
X121824801Y-96292607D01*
X121823968Y-96291711D01*
X121789821Y-96252082D01*
X121789056Y-96251194D01*
X121774407Y-96241699D01*
X121771714Y-96239520D01*
X121197376Y-95665181D01*
X121192684Y-95655668D01*
X121178267Y-95546160D01*
X121178266Y-95546157D01*
X121178126Y-95545092D01*
X121138531Y-95449500D01*
X121118750Y-95401744D01*
X121118750Y-95401743D01*
X121118334Y-95400740D01*
X121100057Y-95376920D01*
X121023874Y-95277637D01*
X121023218Y-95276782D01*
X121006991Y-95264331D01*
X120900122Y-95182327D01*
X120900120Y-95182326D01*
X120899260Y-95181666D01*
X120832082Y-95153840D01*
X120755905Y-95122287D01*
X120754908Y-95121874D01*
X120753843Y-95121734D01*
X120753840Y-95121733D01*
X120644332Y-95107316D01*
X120634819Y-95102624D01*
X119922209Y-94390014D01*
X119917517Y-94380501D01*
X119915423Y-94364592D01*
X119915422Y-94364589D01*
X119915282Y-94363524D01*
X119867861Y-94249038D01*
X119855906Y-94220176D01*
X119855906Y-94220175D01*
X119855490Y-94219172D01*
X119760374Y-94095214D01*
X119701398Y-94049960D01*
X119637278Y-94000759D01*
X119637276Y-94000758D01*
X119636416Y-94000098D01*
X119624763Y-93995271D01*
X119505929Y-93946049D01*
X119492064Y-93940306D01*
X119490999Y-93940166D01*
X119490996Y-93940165D01*
X119338227Y-93920053D01*
X119337156Y-93919912D01*
X119336085Y-93920053D01*
X119183316Y-93940165D01*
X119183313Y-93940166D01*
X119182248Y-93940306D01*
X119168383Y-93946049D01*
X119049550Y-93995271D01*
X119037896Y-94000098D01*
X119037036Y-94000758D01*
X119037034Y-94000759D01*
X118972914Y-94049960D01*
X118913938Y-94095214D01*
X118818822Y-94219172D01*
X118818406Y-94220175D01*
X118818406Y-94220176D01*
X118806451Y-94249038D01*
X118759030Y-94363524D01*
X118758890Y-94364589D01*
X118758889Y-94364592D01*
X118740442Y-94504716D01*
X118734128Y-94515652D01*
X118721929Y-94518921D01*
X118712539Y-94514351D01*
X117037537Y-92874245D01*
X116404956Y-92254843D01*
X116400000Y-92243054D01*
X116400000Y-91667000D01*
X116404833Y-91655333D01*
X116416500Y-91650500D01*
X132783000Y-91650500D01*
X132794667Y-91655333D01*
X132799500Y-91667000D01*
X132799500Y-95373701D01*
X132799183Y-95376919D01*
X132794592Y-95400000D01*
X132794909Y-95401594D01*
X132797744Y-95415847D01*
X132797957Y-95417218D01*
X132801277Y-95446683D01*
X132809907Y-95523273D01*
X132810214Y-95524149D01*
X132810214Y-95524151D01*
X132850574Y-95639494D01*
X132850576Y-95639498D01*
X132850879Y-95640364D01*
X132851369Y-95641144D01*
X132851370Y-95641146D01*
X132899111Y-95717125D01*
X132916879Y-95745403D01*
X133004597Y-95833121D01*
X133005385Y-95833616D01*
X133108854Y-95898630D01*
X133108856Y-95898631D01*
X133109636Y-95899121D01*
X133188950Y-95926874D01*
X133198366Y-95935289D01*
X133200000Y-95942448D01*
X133200000Y-101557552D01*
X133195167Y-101569219D01*
X133188951Y-101573125D01*
X133109636Y-101600879D01*
X133108856Y-101601369D01*
X133108854Y-101601370D01*
X133073996Y-101623273D01*
X133004597Y-101666879D01*
X132916879Y-101754597D01*
X132916384Y-101755385D01*
X132851607Y-101858478D01*
X132850879Y-101859636D01*
X132850576Y-101860502D01*
X132850574Y-101860506D01*
X132830517Y-101917826D01*
X132809907Y-101976727D01*
X132805955Y-102011798D01*
X132797957Y-102082782D01*
X132797744Y-102084153D01*
X132794592Y-102100000D01*
X132794909Y-102101594D01*
X132799183Y-102123080D01*
X132799500Y-102126299D01*
X132799500Y-105833000D01*
X132794667Y-105844667D01*
X132783000Y-105849500D01*
X98817000Y-105849500D01*
X98805333Y-105844667D01*
X98800500Y-105833000D01*
X98800500Y-104627320D01*
X99662796Y-104627320D01*
X99685795Y-104761170D01*
X99686185Y-104762622D01*
X99761994Y-104968115D01*
X99762646Y-104969480D01*
X99874628Y-105157706D01*
X99875525Y-105158940D01*
X100019933Y-105323605D01*
X100021032Y-105324648D01*
X100193041Y-105460249D01*
X100194302Y-105461068D01*
X100388146Y-105563054D01*
X100389532Y-105563628D01*
X100598720Y-105628583D01*
X100600182Y-105628894D01*
X100778021Y-105649943D01*
X100778998Y-105650000D01*
X101471717Y-105650000D01*
X101474038Y-105649038D01*
X101475000Y-105646717D01*
X101825000Y-105646717D01*
X101825962Y-105649038D01*
X101828283Y-105650000D01*
X102505569Y-105650000D01*
X102506327Y-105649965D01*
X102668871Y-105635030D01*
X102670343Y-105634757D01*
X102881165Y-105575299D01*
X102882558Y-105574764D01*
X103079007Y-105477886D01*
X103080288Y-105477101D01*
X103255788Y-105346049D01*
X103256914Y-105345034D01*
X103405588Y-105184200D01*
X103406505Y-105183006D01*
X103521973Y-105000000D01*
X105801480Y-105000000D01*
X105821874Y-105154908D01*
X105881666Y-105299260D01*
X105882326Y-105300120D01*
X105882327Y-105300122D01*
X105917568Y-105346049D01*
X105976782Y-105423218D01*
X105977637Y-105423874D01*
X106099878Y-105517673D01*
X106099880Y-105517674D01*
X106100740Y-105518334D01*
X106101743Y-105518750D01*
X106101744Y-105518750D01*
X106158370Y-105542205D01*
X106245092Y-105578126D01*
X106246157Y-105578266D01*
X106246160Y-105578267D01*
X106398929Y-105598379D01*
X106400000Y-105598520D01*
X106401071Y-105598379D01*
X106553840Y-105578267D01*
X106553843Y-105578266D01*
X106554908Y-105578126D01*
X106641630Y-105542205D01*
X106698256Y-105518750D01*
X106698257Y-105518750D01*
X106699260Y-105518334D01*
X106700120Y-105517674D01*
X106700122Y-105517673D01*
X106822363Y-105423874D01*
X106823218Y-105423218D01*
X106882432Y-105346049D01*
X106917673Y-105300122D01*
X106917674Y-105300120D01*
X106918334Y-105299260D01*
X106978126Y-105154908D01*
X106998520Y-105000000D01*
X106996031Y-104981092D01*
X106978267Y-104846160D01*
X106978266Y-104846157D01*
X106978126Y-104845092D01*
X106924061Y-104714567D01*
X106918750Y-104701744D01*
X106918750Y-104701743D01*
X106918334Y-104700740D01*
X106917199Y-104699260D01*
X106823874Y-104577637D01*
X106823218Y-104576782D01*
X106806991Y-104564331D01*
X106700122Y-104482327D01*
X106700120Y-104482326D01*
X106699260Y-104481666D01*
X106554908Y-104421874D01*
X106553843Y-104421734D01*
X106553840Y-104421733D01*
X106401071Y-104401621D01*
X106400000Y-104401480D01*
X106398929Y-104401621D01*
X106246160Y-104421733D01*
X106246157Y-104421734D01*
X106245092Y-104421874D01*
X106100740Y-104481666D01*
X106099880Y-104482326D01*
X106099878Y-104482327D01*
X105993009Y-104564331D01*
X105976782Y-104576782D01*
X105976126Y-104577637D01*
X105882802Y-104699260D01*
X105881666Y-104700740D01*
X105881250Y-104701743D01*
X105881250Y-104701744D01*
X105875939Y-104714567D01*
X105821874Y-104845092D01*
X105821734Y-104846157D01*
X105821733Y-104846160D01*
X105803969Y-104981092D01*
X105801480Y-105000000D01*
X103521973Y-105000000D01*
X103523387Y-104997759D01*
X103524069Y-104996419D01*
X103605230Y-104792987D01*
X103605661Y-104791533D01*
X103638147Y-104628219D01*
X103637656Y-104625755D01*
X103636527Y-104625000D01*
X101828283Y-104625000D01*
X101825962Y-104625962D01*
X101825000Y-104628283D01*
X101825000Y-105646717D01*
X101475000Y-105646717D01*
X101475000Y-104628283D01*
X101474038Y-104625962D01*
X101471717Y-104625000D01*
X99665680Y-104625000D01*
X99663359Y-104625962D01*
X99662796Y-104627320D01*
X98800500Y-104627320D01*
X98800500Y-104271781D01*
X99661853Y-104271781D01*
X99662344Y-104274245D01*
X99663473Y-104275000D01*
X101471717Y-104275000D01*
X101474038Y-104274038D01*
X101475000Y-104271717D01*
X101825000Y-104271717D01*
X101825962Y-104274038D01*
X101828283Y-104275000D01*
X103634320Y-104275000D01*
X103636641Y-104274038D01*
X103637204Y-104272680D01*
X103614205Y-104138830D01*
X103613815Y-104137378D01*
X103538006Y-103931885D01*
X103537354Y-103930520D01*
X103425372Y-103742294D01*
X103424475Y-103741060D01*
X103280067Y-103576395D01*
X103278968Y-103575352D01*
X103106959Y-103439751D01*
X103105698Y-103438932D01*
X102911854Y-103336946D01*
X102910468Y-103336372D01*
X102701280Y-103271417D01*
X102699818Y-103271106D01*
X102521979Y-103250057D01*
X102521002Y-103250000D01*
X101828283Y-103250000D01*
X101825962Y-103250962D01*
X101825000Y-103253283D01*
X101825000Y-104271717D01*
X101475000Y-104271717D01*
X101475000Y-103253283D01*
X101474038Y-103250962D01*
X101471717Y-103250000D01*
X100794431Y-103250000D01*
X100793673Y-103250035D01*
X100631129Y-103264970D01*
X100629657Y-103265243D01*
X100418835Y-103324701D01*
X100417442Y-103325236D01*
X100220993Y-103422114D01*
X100219712Y-103422899D01*
X100044212Y-103553951D01*
X100043086Y-103554966D01*
X99894412Y-103715800D01*
X99893495Y-103716994D01*
X99776613Y-103902241D01*
X99775931Y-103903581D01*
X99694770Y-104107013D01*
X99694339Y-104108467D01*
X99661853Y-104271781D01*
X98800500Y-104271781D01*
X98800500Y-101044376D01*
X100844455Y-101044376D01*
X100863227Y-101222983D01*
X100863524Y-101223855D01*
X100896050Y-101319399D01*
X100921103Y-101392993D01*
X101015206Y-101545955D01*
X101015854Y-101546617D01*
X101015855Y-101546618D01*
X101031233Y-101562321D01*
X101140859Y-101674268D01*
X101210563Y-101719189D01*
X101266728Y-101755385D01*
X101291817Y-101771554D01*
X101367558Y-101799121D01*
X101459714Y-101832664D01*
X101459718Y-101832665D01*
X101460578Y-101832978D01*
X101599283Y-101850500D01*
X101695155Y-101850500D01*
X101695606Y-101850449D01*
X101695613Y-101850449D01*
X101792642Y-101839565D01*
X101828472Y-101835546D01*
X101918449Y-101804213D01*
X101997204Y-101776788D01*
X101997207Y-101776787D01*
X101998073Y-101776485D01*
X102034154Y-101753939D01*
X102149596Y-101681803D01*
X102149597Y-101681802D01*
X102150375Y-101681316D01*
X102155197Y-101676528D01*
X102277151Y-101555422D01*
X102277153Y-101555419D01*
X102277807Y-101554770D01*
X102374037Y-101403136D01*
X102434281Y-101233951D01*
X102455545Y-101055624D01*
X102436773Y-100877017D01*
X102416440Y-100817289D01*
X102379195Y-100707881D01*
X102379193Y-100707877D01*
X102378897Y-100707007D01*
X102284794Y-100554045D01*
X102238856Y-100507134D01*
X102159788Y-100426393D01*
X102159141Y-100425732D01*
X102065018Y-100365074D01*
X102008964Y-100328949D01*
X102008962Y-100328948D01*
X102008183Y-100328446D01*
X101932442Y-100300879D01*
X101840286Y-100267336D01*
X101840282Y-100267335D01*
X101839422Y-100267022D01*
X101700717Y-100249500D01*
X101604845Y-100249500D01*
X101604394Y-100249551D01*
X101604387Y-100249551D01*
X101517758Y-100259268D01*
X101471528Y-100264454D01*
X101397789Y-100290132D01*
X101302796Y-100323212D01*
X101302793Y-100323213D01*
X101301927Y-100323515D01*
X101301150Y-100324001D01*
X101301149Y-100324001D01*
X101182120Y-100398379D01*
X101149625Y-100418684D01*
X101148973Y-100419331D01*
X101148971Y-100419333D01*
X101022849Y-100544578D01*
X101022847Y-100544581D01*
X101022193Y-100545230D01*
X100925963Y-100696864D01*
X100865719Y-100866049D01*
X100844455Y-101044376D01*
X98800500Y-101044376D01*
X98800500Y-99800000D01*
X105801480Y-99800000D01*
X105801621Y-99801071D01*
X105814859Y-99901621D01*
X105821874Y-99954908D01*
X105822287Y-99955905D01*
X105872710Y-100077637D01*
X105881666Y-100099260D01*
X105882326Y-100100120D01*
X105882327Y-100100122D01*
X105935493Y-100169409D01*
X105976782Y-100223218D01*
X105977637Y-100223874D01*
X106099878Y-100317673D01*
X106099880Y-100317674D01*
X106100740Y-100318334D01*
X106101743Y-100318750D01*
X106101744Y-100318750D01*
X106181979Y-100351984D01*
X106245092Y-100378126D01*
X106246157Y-100378266D01*
X106246160Y-100378267D01*
X106398929Y-100398379D01*
X106400000Y-100398520D01*
X106401071Y-100398379D01*
X106553840Y-100378267D01*
X106553843Y-100378266D01*
X106554908Y-100378126D01*
X106618021Y-100351984D01*
X106698256Y-100318750D01*
X106698257Y-100318750D01*
X106699260Y-100318334D01*
X106700120Y-100317674D01*
X106700122Y-100317673D01*
X106822363Y-100223874D01*
X106823218Y-100223218D01*
X106864507Y-100169409D01*
X106917673Y-100100122D01*
X106917674Y-100100120D01*
X106918334Y-100099260D01*
X106927291Y-100077637D01*
X106977713Y-99955905D01*
X106978126Y-99954908D01*
X106985142Y-99901621D01*
X106998379Y-99801071D01*
X106998520Y-99800000D01*
X106978126Y-99645092D01*
X106918334Y-99500740D01*
X106899951Y-99476782D01*
X106823874Y-99377637D01*
X106823218Y-99376782D01*
X106752298Y-99322363D01*
X106700122Y-99282327D01*
X106700120Y-99282326D01*
X106699260Y-99281666D01*
X106554908Y-99221874D01*
X106553843Y-99221734D01*
X106553840Y-99221733D01*
X106401071Y-99201621D01*
X106400000Y-99201480D01*
X106398929Y-99201621D01*
X106246160Y-99221733D01*
X106246157Y-99221734D01*
X106245092Y-99221874D01*
X106100740Y-99281666D01*
X106099880Y-99282326D01*
X106099878Y-99282327D01*
X106047702Y-99322363D01*
X105976782Y-99376782D01*
X105976126Y-99377637D01*
X105900050Y-99476782D01*
X105881666Y-99500740D01*
X105821874Y-99645092D01*
X105801480Y-99800000D01*
X98800500Y-99800000D01*
X98800500Y-97800000D01*
X105801480Y-97800000D01*
X105801621Y-97801071D01*
X105814900Y-97901933D01*
X105821874Y-97954908D01*
X105881666Y-98099260D01*
X105976782Y-98223218D01*
X105977637Y-98223874D01*
X106099878Y-98317673D01*
X106099880Y-98317674D01*
X106100740Y-98318334D01*
X106245092Y-98378126D01*
X106246157Y-98378266D01*
X106246160Y-98378267D01*
X106398929Y-98398379D01*
X106400000Y-98398520D01*
X106401071Y-98398379D01*
X106553840Y-98378267D01*
X106553843Y-98378266D01*
X106554908Y-98378126D01*
X106699260Y-98318334D01*
X106700120Y-98317674D01*
X106700122Y-98317673D01*
X106822363Y-98223874D01*
X106823218Y-98223218D01*
X106918334Y-98099260D01*
X106978126Y-97954908D01*
X106985101Y-97901933D01*
X106998379Y-97801071D01*
X106998520Y-97800000D01*
X106988498Y-97723874D01*
X106978267Y-97646160D01*
X106978266Y-97646157D01*
X106978126Y-97645092D01*
X106918334Y-97500740D01*
X106896066Y-97471719D01*
X106823874Y-97377637D01*
X106823218Y-97376782D01*
X106742977Y-97315211D01*
X106700122Y-97282327D01*
X106700120Y-97282326D01*
X106699260Y-97281666D01*
X106623864Y-97250436D01*
X106555905Y-97222287D01*
X106554908Y-97221874D01*
X106553843Y-97221734D01*
X106553840Y-97221733D01*
X106401071Y-97201621D01*
X106400000Y-97201480D01*
X106398929Y-97201621D01*
X106246160Y-97221733D01*
X106246157Y-97221734D01*
X106245092Y-97221874D01*
X106244095Y-97222287D01*
X106176137Y-97250436D01*
X106100740Y-97281666D01*
X106099880Y-97282326D01*
X106099878Y-97282327D01*
X106057023Y-97315211D01*
X105976782Y-97376782D01*
X105976126Y-97377637D01*
X105903935Y-97471719D01*
X105881666Y-97500740D01*
X105821874Y-97645092D01*
X105821734Y-97646157D01*
X105821733Y-97646160D01*
X105811502Y-97723874D01*
X105801480Y-97800000D01*
X98800500Y-97800000D01*
X98800500Y-96444376D01*
X100844455Y-96444376D01*
X100863227Y-96622983D01*
X100863524Y-96623855D01*
X100889998Y-96701621D01*
X100921103Y-96792993D01*
X101015206Y-96945955D01*
X101140859Y-97074268D01*
X101291817Y-97171554D01*
X101367558Y-97199121D01*
X101459714Y-97232664D01*
X101459718Y-97232665D01*
X101460578Y-97232978D01*
X101599283Y-97250500D01*
X101695155Y-97250500D01*
X101695606Y-97250449D01*
X101695613Y-97250449D01*
X101782242Y-97240732D01*
X101828472Y-97235546D01*
X101926297Y-97201480D01*
X101997204Y-97176788D01*
X101997207Y-97176787D01*
X101998073Y-97176485D01*
X102046603Y-97146160D01*
X102149596Y-97081803D01*
X102149597Y-97081802D01*
X102150375Y-97081316D01*
X102156968Y-97074769D01*
X102277151Y-96955422D01*
X102277153Y-96955419D01*
X102277807Y-96954770D01*
X102374037Y-96803136D01*
X102420851Y-96671667D01*
X102433972Y-96634819D01*
X102433972Y-96634818D01*
X102434281Y-96633951D01*
X102455545Y-96455624D01*
X102436773Y-96277017D01*
X102422713Y-96235715D01*
X102379195Y-96107881D01*
X102379193Y-96107877D01*
X102378897Y-96107007D01*
X102284794Y-95954045D01*
X102281323Y-95950500D01*
X102209079Y-95876727D01*
X102159141Y-95825732D01*
X102034495Y-95745403D01*
X102008964Y-95728949D01*
X102008962Y-95728948D01*
X102008183Y-95728446D01*
X101932442Y-95700879D01*
X101840286Y-95667336D01*
X101840282Y-95667335D01*
X101839422Y-95667022D01*
X101700717Y-95649500D01*
X101604845Y-95649500D01*
X101604394Y-95649551D01*
X101604387Y-95649551D01*
X101517758Y-95659268D01*
X101471528Y-95664454D01*
X101397789Y-95690132D01*
X101302796Y-95723212D01*
X101302793Y-95723213D01*
X101301927Y-95723515D01*
X101149625Y-95818684D01*
X101148973Y-95819331D01*
X101148971Y-95819333D01*
X101022849Y-95944578D01*
X101022847Y-95944581D01*
X101022193Y-95945230D01*
X100925963Y-96096864D01*
X100925654Y-96097732D01*
X100875166Y-96239520D01*
X100865719Y-96266049D01*
X100844455Y-96444376D01*
X98800500Y-96444376D01*
X98800500Y-93227320D01*
X99662796Y-93227320D01*
X99685795Y-93361170D01*
X99686185Y-93362622D01*
X99761994Y-93568115D01*
X99762646Y-93569480D01*
X99874628Y-93757706D01*
X99875525Y-93758940D01*
X100019933Y-93923605D01*
X100021032Y-93924648D01*
X100193041Y-94060249D01*
X100194302Y-94061068D01*
X100388146Y-94163054D01*
X100389532Y-94163628D01*
X100598720Y-94228583D01*
X100600182Y-94228894D01*
X100778021Y-94249943D01*
X100778998Y-94250000D01*
X101471717Y-94250000D01*
X101474038Y-94249038D01*
X101475000Y-94246717D01*
X101825000Y-94246717D01*
X101825962Y-94249038D01*
X101828283Y-94250000D01*
X102505569Y-94250000D01*
X102506327Y-94249965D01*
X102668871Y-94235030D01*
X102670343Y-94234757D01*
X102881165Y-94175299D01*
X102882558Y-94174764D01*
X103079007Y-94077886D01*
X103080288Y-94077101D01*
X103255788Y-93946049D01*
X103256914Y-93945034D01*
X103405588Y-93784200D01*
X103406505Y-93783006D01*
X103523387Y-93597759D01*
X103524069Y-93596419D01*
X103605230Y-93392987D01*
X103605661Y-93391533D01*
X103638147Y-93228219D01*
X103637656Y-93225755D01*
X103636527Y-93225000D01*
X101828283Y-93225000D01*
X101825962Y-93225962D01*
X101825000Y-93228283D01*
X101825000Y-94246717D01*
X101475000Y-94246717D01*
X101475000Y-93228283D01*
X101474038Y-93225962D01*
X101471717Y-93225000D01*
X99665680Y-93225000D01*
X99663359Y-93225962D01*
X99662796Y-93227320D01*
X98800500Y-93227320D01*
X98800500Y-92871781D01*
X99661853Y-92871781D01*
X99662344Y-92874245D01*
X99663473Y-92875000D01*
X101471717Y-92875000D01*
X101474038Y-92874038D01*
X101475000Y-92871717D01*
X101825000Y-92871717D01*
X101825962Y-92874038D01*
X101828283Y-92875000D01*
X103634320Y-92875000D01*
X103636641Y-92874038D01*
X103637204Y-92872680D01*
X103614205Y-92738830D01*
X103613815Y-92737378D01*
X103538006Y-92531885D01*
X103537354Y-92530520D01*
X103425372Y-92342294D01*
X103424475Y-92341060D01*
X103280067Y-92176395D01*
X103278968Y-92175352D01*
X103106959Y-92039751D01*
X103105698Y-92038932D01*
X102911854Y-91936946D01*
X102910468Y-91936372D01*
X102701280Y-91871417D01*
X102699818Y-91871106D01*
X102521979Y-91850057D01*
X102521002Y-91850000D01*
X101828283Y-91850000D01*
X101825962Y-91850962D01*
X101825000Y-91853283D01*
X101825000Y-92871717D01*
X101475000Y-92871717D01*
X101475000Y-91853283D01*
X101474038Y-91850962D01*
X101471717Y-91850000D01*
X100794431Y-91850000D01*
X100793673Y-91850035D01*
X100631129Y-91864970D01*
X100629657Y-91865243D01*
X100418835Y-91924701D01*
X100417442Y-91925236D01*
X100220993Y-92022114D01*
X100219712Y-92022899D01*
X100044212Y-92153951D01*
X100043086Y-92154966D01*
X99894412Y-92315800D01*
X99893495Y-92316994D01*
X99776613Y-92502241D01*
X99775931Y-92503581D01*
X99694770Y-92707013D01*
X99694339Y-92708467D01*
X99661853Y-92871781D01*
X98800500Y-92871781D01*
X98800500Y-91667000D01*
X98805333Y-91655333D01*
X98817000Y-91650500D01*
X107413792Y-91650500D01*
X107425459Y-91655333D01*
G37*
%TD.AperFunction*%
%TD*%
M02*
